<?xml version="1.0" encoding="utf-8"?>
<!-- Generator: Adobe Illustrator 16.0.0, SVG Export Plug-In . SVG Version: 6.00 Build 0)  -->
<!DOCTYPE svg PUBLIC "-//W3C//DTD SVG 1.1//EN" "http://www.w3.org/Graphics/SVG/1.1/DTD/svg11.dtd">
<svg version="1.1" xmlns="http://www.w3.org/2000/svg" xmlns:xlink="http://www.w3.org/1999/xlink" x="0px" y="0px" width="32.5px"
	 height="28px" viewBox="0 0 32.5 28" enable-background="new 0 0 32.5 28" xml:space="preserve">
<style type="text/css">
	.st0{fill:#724597;}
	.st1{fill:#00ADBA;}
</style>
<g>
	<g>
		<polygon class="st0" points="23.25,4.69 21.2,3.5 18.3,5.18 18.3,1.83 16.25,0.64 14.2,1.83 14.2,5.18 11.3,3.5 9.25,4.69 
			9.25,7.05 12.15,8.73 9.25,10.4 9.25,12.77 11.3,13.95 16.25,11.09 21.2,13.95 23.25,12.77 23.25,10.4 20.35,8.73 23.25,7.05 		
			"/>
		<path class="st1" d="M13.35,17.65v-2.41l-2.05-1.18l-2.05,1.18v8.07l7,4.05l7-4.05l0-8.07l-2.05-1.18l-2.05,1.18v2.41l-2.9-1.68
			L13.35,17.65z M19.11,21.59l-2.86,1.65l-2.86-1.65l2.86-1.65L19.11,21.59z"/>
	</g>
</g>
</svg>
