<?xml version="1.0" encoding="utf-8"?>
<!-- Generator: Adobe Illustrator 26.3.1, SVG Export Plug-In . SVG Version: 6.00 Build 0)  -->
<svg version="1.1" id="레이어_1" xmlns="http://www.w3.org/2000/svg" xmlns:xlink="http://www.w3.org/1999/xlink" x="0px"
	 y="0px" viewBox="0 0 32.5 28" style="enable-background:new 0 0 32.5 28;" xml:space="preserve">
<style type="text/css">
	.st0{display:none;}
	.st1{display:inline;}
	.st2{fill:#007C2E;}
	.st3{display:inline;fill:#C2002F;}
	.st4{display:inline;fill:#0080C8;}
	.st5{display:inline;fill:#00933B;}
	.st6{display:inline;fill:#F89C33;}
	.st7{display:inline;fill:#8BC53F;}
	.st8{display:inline;fill:#0066B2;}
	.st9{fill:url(#SVGID_1_);}
	.st10{display:inline;fill:#FFFFFF;}
	.st11{display:inline;fill:#005CB9;}
	.st12{display:inline;fill:#00AFAA;}
	.st13{display:inline;fill:#00A886;}
	.st14{display:inline;fill:#FDB827;}
	.st15{display:inline;fill:#00529B;}
	.st16{display:inline;fill:url(#SVGID_00000144331148655012225110000000727036616763995782_);}
	.st17{display:inline;fill:url(#SVGID_00000103260625364831664240000016909042684348348809_);}
	.st18{display:inline;fill:url(#SVGID_00000098183397563922089770000006723760580589787776_);}
	.st19{display:inline;fill:url(#SVGID_00000017481328999261907660000000541783465934302626_);}
	.st20{display:inline;fill:url(#SVGID_00000059275042749049768630000007181866943603817620_);}
	.st21{display:inline;fill:url(#SVGID_00000018206472974247080460000001465189097359365781_);}
	.st22{display:inline;fill:url(#SVGID_00000062877624782722612610000006104348460259495556_);}
	.st23{display:inline;fill:url(#SVGID_00000057839575056430093170000001680452934918556082_);}
	.st24{display:inline;fill:url(#SVGID_00000181075829113731198550000010035347330891089799_);}
	.st25{display:inline;fill:url(#SVGID_00000021114548100997522040000005516451375630507927_);}
	.st26{display:inline;fill:url(#SVGID_00000006701139894817886770000011996953399084360609_);}
	.st27{display:inline;fill:url(#SVGID_00000064316875503270682990000000160706144371971238_);}
	.st28{display:inline;fill:url(#SVGID_00000007393520494205907960000004924480396328483495_);}
	.st29{display:inline;fill:url(#SVGID_00000053503619569056703220000003913516041808181685_);}
	.st30{display:inline;fill:url(#SVGID_00000032620150137667731770000012998772015687333532_);}
	.st31{display:inline;fill:url(#SVGID_00000132085556980798227150000002405756077768898233_);}
	.st32{display:inline;fill:url(#SVGID_00000101086962618723518520000006731058096278247326_);}
	.st33{display:inline;fill:url(#SVGID_00000169558485888863552330000014794213316746401950_);}
	.st34{display:inline;fill:#EC1A3B;}
	.st35{display:inline;fill:#00ADEE;}
	.st36{display:inline;fill:#00A564;}
	.st37{display:inline;fill-rule:evenodd;clip-rule:evenodd;fill:#72BF44;}
	.st38{display:inline;fill-rule:evenodd;clip-rule:evenodd;fill:#F7941E;}
	.st39{display:inline;fill-rule:evenodd;clip-rule:evenodd;fill:#0097D6;}
	.st40{display:inline;fill-rule:evenodd;clip-rule:evenodd;fill:#B369AB;}
	.st41{display:inline;fill:#F26522;}
	.st42{display:inline;fill-rule:evenodd;clip-rule:evenodd;fill:#F26522;}
	.st43{display:inline;fill-rule:evenodd;clip-rule:evenodd;fill:#9F9D88;}
	.st44{display:inline;fill:#0A50A1;}
	.st45{display:inline;fill:#00A23F;}
	.st46{display:inline;fill:#EE4023;}
	.st47{display:inline;fill:#89BD1E;}
	.st48{display:inline;fill:#D7001E;}
	.st49{display:inline;fill:#003C82;}
	.st50{display:inline;fill:#0080CB;}
	.st51{display:inline;fill:#F9BE00;}
	.st52{display:inline;fill:#F15A38;}
	.st53{display:inline;fill:#00AC6C;}
	.st54{display:inline;fill:#005BAA;}
	.st55{display:inline;fill:#FAA61A;}
	.st56{display:inline;fill:#009FB5;}
	.st57{display:inline;fill:#E68032;}
	.st58{display:inline;fill:#232DAC;}
	.st59{display:inline;fill:#F37521;}
	.st60{display:inline;fill:#006FB9;}
	.st61{display:inline;fill:#009357;}
	.st62{display:inline;fill:#FFD600;}
	.st63{display:inline;fill:#F48120;}
	.st64{display:inline;fill:#00A77E;}
	.st65{display:inline;fill:#0079C0;}
	.st66{display:inline;fill:#231F20;}
	.st67{fill:#112B53;}
	.st68{fill:#E61E2B;}
</style>
<g id="Layer_24" class="st0">
	<g class="st1">
		<rect class="st2" width="32.5" height="28"/>
	</g>
</g>
<g id="Seoul" class="st0">
	<path class="st3" d="M18,5.1c0,0.1,0.1,0.1,0.1,0.2c0.1,0.2,0.3,0.3,0.3,0.6C18.4,6,18.5,6,18.5,6c0.1,0.1,0,0.1,0.1,0.2
		c0,0,0,0.1,0,0.2c0,0,0.1,0.1,0.1,0.1c0.4,0.7,0.5,1.5,0,2.3c-0.1,0.1-0.2,0.2-0.2,0.3c0,0-0.1,0.1-0.2,0.1c0,0.1,0.1,0.1,0.1,0.2
		c-0.2,0.1-0.2,0.2-0.4,0.4c0,0-0.1,0-0.2,0c-0.1,0.1-0.3,0.2-0.4,0.3c0,0,0,0.2,0,0.2c-0.2,0.2-0.5,0.3-0.9,0.3
		c0,0-0.1,0.1-0.1,0.1c-0.2,0-0.5,0-0.7,0c-0.1,0-0.1-0.1-0.2-0.1c-0.1,0-0.2,0-0.3,0c-0.1-0.1-0.3-0.1-0.5-0.2
		c-0.1,0-0.3,0.1-0.4,0c-0.3-0.3-0.6-0.5-0.8-0.8c-0.1-0.2-0.3-0.2-0.4-0.4c0-0.1,0-0.2-0.1-0.2c-0.2-0.1-0.1-0.2-0.1-0.3
		C13,8.5,13,8.5,12.9,8.4c-0.1-0.1,0-0.3,0-0.4c0,0,0-0.1,0-0.1c-0.1-0.2,0-0.4,0-0.6c0-0.1,0-0.3,0.1-0.4c0.1-0.2,0.2-0.5,0.4-0.7
		c0,0,0-0.1,0-0.1c0,0,0.1,0,0.1-0.1c0.1-0.2,0.1-0.3,0.3-0.5c0.2-0.2,0.4-0.4,0.6-0.6c0.1-0.1,0.3-0.2,0.4-0.4c0,0,0.2,0,0.2,0
		c0.1-0.1,0.3-0.1,0.4-0.2c0.1-0.1,0.1,0.1,0.2,0.1c0.1,0,0.1,0,0.2-0.1c0.1,0,0.3,0,0.4,0.1c0.1,0,0.3,0,0.4,0.1
		c0.2,0.1,0.7,0.1,0.7,0.3C17.7,4.8,17.9,4.9,18,5.1z"/>
	<path class="st4" d="M25.7,8c0-0.1,0-0.2,0-0.3c0-0.1,0.1-0.2,0-0.4c0,0-0.1-0.1-0.1-0.1c0.1-0.2,0.1-0.5,0.1-0.7
		c0-0.1,0-0.1-0.1-0.2c0,0,0-0.1,0-0.2c0-0.2-0.1-0.4-0.1-0.6c0-0.1-0.1-0.1-0.1-0.2c0,0-0.1-0.1-0.1-0.1c0.1-0.3-0.1-0.6-0.1-0.9
		c-0.1-0.3-0.4-0.6-0.5-0.9c0,0,0.1,0,0.1,0c0.3,0.2,0.5,0.5,0.6,0.9c0,0.1,0,0.2,0.1,0.3c0.2,0.3,0.3,0.6,0.3,1c0,0,0.1,0,0.1,0.1
		c0,0,0,0.1,0,0.1C26.1,5.9,26,6.1,26,6.3c0,0.1,0,0.1,0.1,0.2c0,0-0.1,0.1-0.1,0.2c0.1,0.2,0.2,0.4,0.2,0.6
		c0.2,0.1,0.1,0.3,0.1,0.4c0,0,0.1,0.1,0.1,0.1c0-0.1,0.1-0.1,0.1-0.2c0-0.3,0-0.5,0-0.8c0-0.1-0.1-0.2,0-0.3
		c-0.1,0-0.1-0.1-0.1-0.1c-0.1-0.5-0.2-1-0.3-1.5c0,0,0,0,0-0.1c0-0.4-0.4-0.8-0.5-1.2c0-0.1-0.1-0.2-0.2-0.2c0,0,0,0,0-0.1
		c0.2,0,0.3,0.2,0.4,0.3C26,3.7,26.2,4,26.2,4.2c0.1,0.2,0.2,0.5,0.3,0.7c0,0.2,0.1,0.3,0.2,0.4c0,0.1,0,0.2,0,0.3
		c0,0.3,0.1,0.5,0.2,0.8c0.1,0.2,0.1,0.4,0,0.6c-0.1,0.3,0.1,0.7,0.2,0.9c0,0.1,0,0.3-0.1,0.4c0,0,0.1,0.1,0,0.1
		c-0.1,0.1,0,0.3,0,0.4c0,0,0,0.1,0,0.2c0,0-0.1,0-0.1,0.1c-0.1,0.1,0,0.2,0,0.3c-0.1,0.2-0.1,0.5-0.2,0.6c-0.1,0-0.1,0.1-0.1,0.1
		c0,0,0.1,0,0.1,0.1c0,0-0.1,0-0.1,0c0,0.1,0.1,0.2,0.2,0.2c-0.1,0.3-0.3,0.5-0.3,0.9c0,0.1,0,0.2,0,0.2c-0.1,0.2-0.2,0.3-0.3,0.5
		c0,0.1-0.1,0.1-0.2,0.1c-0.1,0.1-0.1,0.2-0.1,0.4c0,0.1-0.1,0-0.2,0.1c-0.1,0.1-0.1,0.2-0.1,0.4c-0.1,0.2-0.2,0.3-0.3,0.5
		c-0.1,0.2-0.3,0.5-0.5,0.6c0,0-0.1,0-0.1,0c-0.1,0.2-0.2,0.3-0.4,0.4c0,0-0.1,0.1-0.1,0.2c-0.2,0.1-0.2,0.2-0.4,0.3
		c-0.1,0-0.1,0-0.2-0.1c-0.2,0.4-0.6,0.8-0.9,1.1c-0.2,0.1-0.4,0.1-0.5,0.2c-0.4,0.4-1,0.8-1.1,0.9c0,0-0.2,0.2-0.2,0.2
		c-0.1,0-0.1,0-0.2,0c0,0,0,0.2-0.2,0.2c-0.3,0.1-0.4,0.5-0.5,0.6c0,0.1-0.1,0-0.1,0.1c0,0,0,0.1-0.1,0.1c-0.1,0.1-0.3,0.3-0.4,0.4
		c0,0-0.1,0-0.1,0c0,0-0.2,0.3-0.3,0.5c-0.2,0.3-0.3,0.7-0.5,0.9c-0.1,0.1,0.1,0.3,0.1,0.4c0,0.1-0.1,0.1-0.2,0.2
		c0,0.3-0.1,0.6-0.1,0.9c-0.1,0.3,0,0.5,0.1,0.7c0,0.2,0,0.5,0,0.7c0,0.2,0.1,0.3,0.1,0.5c0,0.2-0.1,0.2,0,0.4c0,0.1,0,0.2,0,0.3
		c0,0.2,0,0.3,0,0.4c0,0-0.1,0.1-0.1,0.2c0,0.4-0.3,0.8-0.6,1c-0.2,0.1-0.3,0.3-0.5,0.3c-0.1,0-0.4,0.2-0.5,0.2
		c-0.3,0.1-0.5,0.1-0.8,0c-0.3-0.1-0.6-0.2-0.8-0.5c-0.1-0.1-0.3-0.1-0.4-0.3c0-0.1-0.2-0.1-0.2-0.2c-0.2-0.1-0.2-0.3-0.4-0.5
		c-0.1-0.2,0-0.4-0.1-0.6c-0.1-0.1-0.1-0.2-0.2-0.3c-0.1-0.2,0-0.4-0.1-0.6c-0.1,0-0.1-0.1-0.2-0.2c-0.1-0.2,0-0.4-0.1-0.6
		c-0.1-0.2,0-1,0-1.2c0,0-0.1-0.1-0.1-0.1c0-0.3,0.1-0.6,0.1-0.9c0-0.2,0-0.3,0.2-0.4c0,0-0.1-0.1-0.1-0.1c0.1-0.2,0.1-0.4,0.1-0.7
		c0,0,0.1-0.1,0.1-0.1c0-0.2-0.1-0.5,0-0.7c0-0.1,0.2-0.2,0.3-0.3c0,0,0-0.1,0-0.3c0,0,0.1,0,0.1-0.1c0,0,0-0.1,0-0.1
		c0-0.1,0.2-0.2,0.2-0.3c0.1-0.3,0.2-0.4,0.4-0.6c0.1-0.1,0.1-0.2,0.2-0.3c0,0,0.1,0,0.1,0c0,0,0-0.1,0-0.1c0.1-0.1,0.2-0.2,0.2-0.3
		c0.1-0.1,0.1-0.2,0.2-0.3c0.2-0.1,0.3-0.2,0.4-0.4c0.1-0.1,0.2-0.1,0.3-0.2c0.1-0.1,0.2-0.3,0.2-0.4c0.2-0.2,0.4-0.4,0.7-0.6
		c0.2-0.1,0.4-0.2,0.6-0.3c0.2-0.1,0.3-0.4,0.5-0.5c0.1-0.1,0.2-0.1,0.4-0.2c0.1-0.1,0.2-0.2,0.4-0.3c0.4-0.1,0.1,0,0.5-0.1
		c0.2-0.1,0.1-0.2,0.4-0.3c0.4-0.2,0.6-0.4,0.6-0.3c0,0,0.1-0.1,0.1-0.1c0.1-0.1,0.6-0.5,0.6-0.5c0.1,0,0.2,0.1,0.2,0
		c0-0.1,0-0.1,0-0.2c0.1-0.1,0.2-0.3,0.4-0.4c0,0,0.1,0,0.2,0c0,0,0.1-0.1,0.1-0.1c0-0.1,0-0.2,0-0.2c0.1-0.1,0.1-0.2,0.2-0.2
		c0.1-0.1,0.3-0.1,0.2-0.2c0-0.1,0.1-0.3,0.2-0.4c0,0,0-0.1,0-0.1c0.1-0.1,0.2-0.1,0.2-0.2c0.1-0.1,0.1-0.3,0.1-0.4
		c0.2-0.2,0.3-0.3,0.4-0.6c0-0.1-0.1-0.3,0-0.4c0-0.1,0.2-0.1,0.2-0.2c0-0.1,0-0.3-0.1-0.5c0-0.1,0.1-0.2,0.1-0.3c0-0.3,0-0.6,0-0.9
		c0.1,0,0.1-0.1,0.1-0.2c0-0.2-0.2-0.4-0.2-0.7c0-0.1,0.1-0.3,0.1-0.4c0-0.1-0.1-0.2-0.2-0.3C23,4.6,23,4.4,23,4.2
		c0-0.2-0.2-0.3-0.2-0.6c0-0.1-0.1-0.1-0.2-0.2c0-0.2-0.1-0.3-0.1-0.5c0-0.1-0.1-0.1-0.2-0.1c-0.1-0.2-0.1-0.6-0.4-0.7
		c0-0.1-0.1-0.2-0.1-0.3c0.2,0,0.3,0.1,0.4,0.3c0,0,0.1,0.1,0.2,0.1c0.1,0.1,0.1,0.3,0.2,0.4c0.1,0.1,0.3,0.1,0.3,0.2
		C23,2.9,23.1,3,23.2,3.2c0,0,0,0.1,0,0.2c0.1,0.1,0.1,0.2,0.2,0.3c0.2,0.2,0.4,0.5,0.3,0.8c-0.1,0.1,0.1,0.1,0.2,0.2
		C24,4.8,24,5.1,24.2,5.3c0,0.4,0.1,0.7,0.3,1c-0.2,0.3-0.1,0.8,0.1,1.1c0,0,0.1,0,0.1-0.1c0-0.2,0.4-0.2,0.3-0.3
		c-0.1-0.2-0.2-0.6-0.2-0.8c0-0.3,0-0.5,0-0.9c0,0-0.1-0.1-0.1-0.1c0-0.2-0.1-0.3,0-0.5c0-0.1-0.1-0.1-0.1-0.2c0,0,0-0.1,0-0.1
		c0.1,0,0.2,0,0.2,0.1c0.1,0,0,0.1,0,0.2c0.1,0.2,0.3,0.2,0.3,0.4c0,0,0,0.1,0,0.1c0,0.2,0.2,0.4,0.2,0.6c0,0.1-0.1,0.3,0,0.4
		c0.1,0.3,0.2,0.6,0.1,1c0,0.1,0.2,0.3,0.1,0.4c-0.1,0.1,0,0.1,0,0.2c0,0-0.1,0.1-0.1,0.1c0.1,0.2,0,0.5-0.1,0.7
		c0,0,0.1,0.1,0.1-0.1c0-0.1,0.1-0.1,0.2-0.1C25.7,8.3,25.7,8.2,25.7,8z M26.4,8.7c0-0.2,0.1-0.3,0.1-0.5c-0.1-0.2-0.2,0-0.3,0
		c0.1,0.2,0,0.4-0.1,0.6c0,0.1-0.1,0.2,0,0.2C26.2,9.1,26.4,8.9,26.4,8.7z M26.1,9.7c0-0.1,0-0.2,0-0.2c-0.1-0.1-0.2,0-0.3,0.1
		s0,0.3,0.1,0.2C26,9.9,26.1,9.8,26.1,9.7z"/>
	<path class="st4" d="M24.2,3.6c0.2,0.1,0.2,0.3,0.4,0.5l0,0.1c-0.2,0.2-0.4-0.1-0.5-0.3c-0.1-0.2-0.2-0.4-0.4-0.6c0,0,0-0.1,0-0.1
		C23.6,3.1,23.5,3,23.6,3c0-0.1,0.1,0.1,0.2,0.1C24,3.2,24,3.5,24.2,3.6z"/>
	<path class="st4" d="M25.2,2.7c0,0-0.1,0.1-0.1,0.1c-0.1-0.1-0.2-0.2-0.3-0.4c0,0-0.1,0-0.1-0.1c0,0,0,0,0-0.1
		c0.1,0,0.2,0.1,0.3,0.1c0,0,0.1,0,0.1,0C25.2,2.5,25.2,2.6,25.2,2.7z"/>
	<path class="st5" d="M10.6,9.3c0,0,0.1,0.1,0.1,0.1c0.1,0,0.1,0,0.2,0c0.1,0,0.1,0.1,0.2,0.1c0.1,0,0.1,0.2,0.2,0.2
		c0.1,0,0.1,0.1,0.2,0.1c0.1,0.1,0.1,0.2,0.2,0.3c0.1,0.1,0.1,0,0.2,0c0.1,0,0.1,0.2,0.2,0.3c0,0,0.1,0.1,0.1,0.1
		c0.1,0,0.1,0.1,0.2,0.1c0,0,0,0.1,0,0.1c0.2,0.3,0.5,0.5,0.6,0.9c0,0,0,0.1,0,0.1c0.2,0.2,0.3,0.5,0.5,0.7c0,0.1,0.1,0.2,0.1,0.4
		c0.1,0.1,0.1,0.1,0.2,0.2c0.1,0.1,0.1,0.3,0.2,0.4c0,0.1,0,0.2-0.1,0.1c-0.1-0.1-0.1-0.3-0.2-0.4c0,0,0-0.1-0.1-0.1
		c-0.1-0.1-0.1-0.1-0.2-0.1c0-0.1-0.1-0.2-0.1-0.2c-0.1-0.2-0.3-0.3-0.5-0.4c0,0-0.1,0-0.1,0c0,0.1-0.1,0.1,0,0.2
		c0.1,0.1,0.2,0.2,0.3,0.3c0.1,0.1,0.1,0.2,0.1,0.4c0.1,0.1,0.1,0.1,0.2,0.2c0.1,0.1,0,0.2,0.1,0.3c0,0,0,0.1,0,0.1
		c0,0.1,0.2,0.1,0.2,0.2c0.1-0.1,0.1,0,0.2,0.1c-0.1,0.1-0.1,0.1-0.1,0.2c-0.1,0.1,0.1,0.3,0.2,0.3c0.1,0,0.1,0.2,0.1,0.2
		c0,0.1,0.2,0.1,0.3,0.2c0,0.1,0,0.1-0.1,0.1c0,0.1,0.1,0.1,0.1,0.2c0.1,0,0.1,0.1,0.1,0.2c-0.1,0-0.2-0.1-0.3-0.1
		c-0.1,0-0.1-0.1-0.3-0.2c0,0-0.1,0.1-0.1,0.1c0,0-0.1,0-0.2,0c-0.1,0-0.2-0.2-0.3-0.2c-0.1,0-0.1,0.1-0.2,0.1
		c-0.2,0-0.3-0.1-0.3-0.1c-0.1,0-0.2-0.1-0.3-0.1c-0.1,0,0-0.1-0.1-0.1c-0.1,0-0.2,0-0.2-0.1c-0.2-0.1-0.4-0.4-0.5-0.5
		c-0.1-0.1-0.2-0.1-0.3-0.2c-0.1,0-0.1-0.1-0.2-0.1c-0.2-0.1-0.4-0.2-0.7-0.3c-0.5-0.1-0.9,0.1-1.3,0.4c0,0-0.1,0-0.1,0
		c-0.1,0.1-0.2,0.1-0.3,0.2c-0.1,0.1-0.3,0.1-0.4,0.2c0,0,0,0.1-0.1,0.1c-0.1,0-0.2,0-0.2,0.1c-0.1,0-0.1,0.1-0.1,0.1
		c-0.1,0.1-0.2,0.2-0.4,0.2c-0.1,0-0.8,0.2-1,0.2c-0.2,0-0.3,0.2-0.6,0.2c-0.4,0-0.9,0-1.2-0.3c-0.1-0.1-0.1-0.2-0.1-0.3
		c-0.2-0.1-0.1-0.3-0.2-0.5c-0.1,0-0.2,0-0.2-0.1c0.1-0.4,0.3-0.8,0.5-1.1c0.1-0.1,0.2-0.2,0.2-0.3c0,0,0.2-0.3,0.4-0.5
		c0-0.1,0-0.2,0-0.2c0.2-0.4,0.6-0.7,1-1.1c0.1-0.1,0.2-0.2,0.3-0.2c0.1,0,0.1,0,0.1,0c0.1-0.1,0.2-0.2,0.3-0.3
		c0.3-0.2,0.6-0.5,0.9-0.6C8,9.7,8,9.7,8.1,9.6c0.1-0.1,0.2,0,0.2,0c0.3-0.1,0.5-0.4,0.8-0.4c0.1,0,0.1-0.1,0.1-0.1
		c0.2,0,0.5-0.2,0.8,0C10.1,9.1,10.4,9.2,10.6,9.3z M12.4,11.9C12.4,11.8,12.4,11.8,12.4,11.9c-0.1-0.2-0.1-0.3-0.3-0.4
		c0,0-0.1,0-0.1,0.1c0,0.2,0.1,0.3,0.1,0.5c0-0.1,0.1-0.1,0.2,0C12.4,12,12.4,11.9,12.4,11.9z"/>
</g>
<g id="GyeongGi" class="st0">
	<path class="st6" d="M28.2,22.3L28,21.1c-2.5,1-5,1.8-7.6,2.5C23,23.3,25.6,22.8,28.2,22.3z"/>
	<path class="st7" d="M9,24.2L7.2,1.6l0.5,24c4.3-0.3,8.6-1,12.7-2.1C16.6,24,12.8,24.2,9,24.2z"/>
	<path class="st8" d="M20.3,23.6c2.6-0.7,5.1-1.5,7.6-2.5L25.4,4.5C19.2,4,13.1,3,7.2,1.6L9,24.2C12.8,24.2,16.6,24,20.3,23.6z"/>
	<g class="st1">
		
			<radialGradient id="SVGID_1_" cx="1654.2296" cy="-2053.5295" r="494.9489" gradientTransform="matrix(4.000000e-02 0 0 -4.110000e-02 -45.0409 -75.5814)" gradientUnits="userSpaceOnUse">
			<stop  offset="0" style="stop-color:#00B8F1"/>
			<stop  offset="1" style="stop-color:#0071BB"/>
		</radialGradient>
		<path class="st9" d="M7.2,1.7L9,24.2c3.8,0,7.6-0.2,11.3-0.6c2.6-0.7,5.1-1.5,7.6-2.5C25.5,8.6,17.4,4,7.2,1.7z"/>
	</g>
	<path class="st10" d="M22.5,10.5c0,0-0.1,0.1-0.1,0.1l0,0l0,0l0,0l-1-0.7l0,0l0,0l0,0c0-0.2-0.2-0.5-0.4-0.8l0,0l0,0l0,0
		c-0.4-0.5-0.9-0.8-1.2-0.7l0,0l0,0l0,0c-0.2,0.1-0.2,0.3,0,0.6l0,0l0,0l0,0L19.4,9l0,0l0,0l0,0l-1-1.5l0,0l0,0l0,0c0,0,0,0,0.1,0
		l0,0l0,0l0,0c0.2-0.1,0.2-0.4-0.1-0.7l0,0l0,0l0,0c-0.3-0.3-0.7-0.6-0.9-0.5l0,0l0,0l0,0c-0.1,0-0.1,0.1-0.2,0.1l0,0l0,0l0,0
		l-1.7-1l0,0l0,0l0,0c0-0.2-0.1-0.3-0.3-0.5l0,0l0,0l0,0c-0.4-0.5-1-0.8-1.4-0.8l0,0l0,0l0,0c-0.4,0-0.5,0.4-0.1,0.9l0,0l0,0l0,0
		c0.4,0.5,1.1,0.9,1.5,0.9l0,0l0,0l0,0c0,0,0,0,0,0l0,0l0,0l0,0l0.9,1l0,0l0,0l0,0l-1.9-0.7l0,0l0,0l0,0c0,0,0,0,0,0l0,0l0,0l0,0
		c-0.2-0.2-0.5-0.4-0.7-0.4l0,0l0,0l0,0c0,0,0,0,0,0l0,0l0,0l0,0l-1.3-1.1l0,0l0,0l0,0c0.1-0.1,0.1-0.3-0.1-0.6l0,0l0,0l0,0
		c-0.3-0.4-0.8-0.7-1.3-0.7l0,0l0,0l0,0c-0.4,0-0.6,0.3-0.3,0.7l0,0l0,0l0,0C11,4.4,11.6,4.7,12,4.7l0,0l0,0l0,0c0.1,0,0.1,0,0.1,0
		l0,0l0,0l0,0l0.6,0.5l0,0l0,0l0,0L13,6.4l0,0l0,0l0,0c-0.1,0-0.1,0-0.2,0l0,0l0,0l0,0c-0.4,0-0.4,0.4-0.1,0.8l0,0l0,0l0,0
		c0.3,0.4,0.8,0.7,1.2,0.6l0,0l0,0l0,0c0.2,0,0.3-0.2,0.3-0.5l0,0l0,0l0,0l1.3,0.3l0,0l0,0l0,0l0.1,0.6l0,0l0,0l0,0
		c-0.1,0-0.1,0-0.2,0l0,0l0,0l0,0c-0.1,0-0.2,0.1-0.2,0.3l0,0l0,0l0,0l-2.5-0.5l0,0l0,0l0,0c-0.1-0.1-0.1-0.2-0.2-0.4l0,0l0,0l0,0
		C12,7,11.1,6.6,10.3,6.6l0,0l0,0l0,0c-0.8,0.1-1,0.7-0.5,1.5l0,0l0,0l0,0c0.2,0.2,0.4,0.5,0.6,0.6l0,0l0,0l0,0l-0.4,0.6l0,0l0,0
		l0,0C9.8,9.2,9.4,9.1,9,9.2l0,0l0,0l0,0c-0.7,0.1-1,0.8-0.5,1.5l0,0l0,0l0,0c0.4,0.7,1.4,1.1,2,0.8l0,0l0,0l0,0
		c0.6-0.2,0.8-0.9,0.4-1.5l0,0l0,0l0,0c-0.1-0.2-0.3-0.3-0.4-0.5l0,0l0,0l0,0c0.1-0.2,0.2-0.4,0.3-0.6l0,0l0,0l0,0
		c0.5,0.3,1,0.4,1.4,0.3l0,0l0,0l0,0c0.5-0.1,0.7-0.5,0.6-0.9l0,0l0,0l0,0c0.4,0.1,0.9,0.2,1.3,0.2l0,0l0,0l0,0l0.1,0.7l0,0l0,0l0,0
		c-0.1,0-0.2,0-0.3,0l0,0l0,0l0,0c-0.4,0.1-0.4,0.6-0.1,1l0,0l0,0l0,0c0.3,0.5,0.9,0.7,1.3,0.6l0,0l0,0l0,0c0.1,0,0.1-0.1,0.2-0.1
		l0,0l0,0l0,0l0.8,0.6l0,0l0,0l0,0c0,0.3-0.1,1.1-0.2,1.5l0,0l0,0l0,0c-0.1,0-0.2,0-0.2,0l0,0l0,0l0,0c-0.1,0-0.1,0.1-0.1,0.2l0,0
		l0,0l0,0c-0.1,0-0.3-0.1-0.5-0.1l0,0l0,0l0,0c0-0.1-0.1-0.1-0.1-0.2l0,0l0,0l0,0c-0.2-0.2-0.5-0.4-0.7-0.3l0,0l0,0l0,0
		c-0.2,0.1-0.2,0.4,0,0.6l0,0l0,0l0,0c0.2,0.3,0.5,0.4,0.7,0.3l0,0l0,0l0,0c0.1,0,0.1-0.1,0.1-0.2l0,0l0,0l0,0l0.5,0.1l0,0l0,0l0,0
		c0,0.1,0.1,0.1,0.1,0.2l0,0l0,0l0,0c0.1,0.2,0.4,0.3,0.5,0.3l0,0l0,0l0,0l1,1.1l0,0l0,0l0,0l-0.2,0l0,0l0,0l0,0c0,0,0,0,0,0l0,0
		l0,0l0,0c-0.2-0.3-0.5-0.4-0.6-0.3l0,0l0,0l0,0c-0.2,0.1-0.2,0.4,0,0.6l0,0l0,0l0,0L16,15.5l0,0l0,0l0,0c-0.3-0.3-0.6-0.3-0.8-0.2
		l0,0l0,0l0,0c-0.3,0.2-0.3,0.7,0,1.1l0,0l0,0l0,0c0.3,0.4,0.8,0.6,1,0.4l0,0l0,0l0,0c0.2-0.2,0.2-0.7,0-1l0,0l0,0l0,0
		c0.1-0.1,0.2-0.2,0.3-0.3l0,0l0,0l0,0c0.2,0.1,0.4,0.2,0.5,0.1l0,0l0,0l0,0l1,0.9l0,0l0,0l0,0c-0.2,0.6,0,1.5,0.5,2.3l0,0l0,0l0,0
		c0.7,1,1.8,1.4,2.2,0.7l0,0l0,0l0,0c0.3-0.4,0.3-1.1,0-1.8l0,0l0,0l0,0l1.5-0.3l0,0l0,0l0,0l0.5,1.8l0,0l0,0l0,0
		c-0.2,0-0.3,0-0.4,0.2l0,0l0,0l0,0c-0.3,0.4,0,1.4,0.5,2.1l0,0l0,0l0,0c0.6,0.8,1.2,0.9,1.4,0.4l0,0l0,0l0,0
		c0.2-0.5-0.1-1.4-0.6-2.1l0,0l0,0l0,0c-0.2-0.3-0.4-0.4-0.6-0.5l0,0l0,0l0,0l-0.5-2l0,0l0,0l0,0l1.3-0.3l0,0l0,0l0,0
		c0.1,0.1,0.2,0.3,0.3,0.4l0,0l0,0l0,0c0.6,0.8,1.3,1,1.5,0.6l0,0l0,0l0,0c0.2-0.4-0.2-1.3-0.7-2l0,0l0,0l0,0
		c-0.5-0.7-1.2-0.9-1.4-0.6l0,0l0,0l0,0c0,0.1-0.1,0.1-0.1,0.2l0,0l0,0l0,0l-0.4-0.4l0,0l0,0l0,0l0.3-1.6l0,0l0,0l0,0
		c0.3,0.2,0.5,0.3,0.6,0.1l0,0l0,0l0,0c0.1-0.2,0-0.7-0.4-1.1l0,0l0,0l0,0c-0.2-0.2-0.4-0.4-0.5-0.4l0,0l0,0l0,0L22,10.4l0,0l0,0
		l0,0c0.2,0.1,0.3,0.2,0.5,0.3l0,0l0,0l0,0c0,0.2,0.2,0.4,0.3,0.6l0,0l0,0l0,0c0.3,0.4,0.7,0.6,0.8,0.4l0,0l0,0l0,0
		c0.1-0.1,0-0.5-0.3-0.9l0,0l0,0l0,0C23,10.6,22.7,10.4,22.5,10.5z M11.8,4.5c-0.3,0-0.7-0.2-0.9-0.5l0,0l0,0l0,0
		c-0.2-0.3-0.1-0.5,0.2-0.5l0,0l0,0l0,0c0.3,0,0.7,0.2,0.9,0.5l0,0l0,0l0,0c0.1,0.2,0.2,0.3,0.1,0.4l0,0l0,0l0,0
		C12,4.4,12,4.5,11.8,4.5L11.8,4.5L11.8,4.5L11.8,4.5C11.9,4.5,11.8,4.5,11.8,4.5z M10.6,10.1c0.3,0.4,0.2,0.9-0.3,1.1l0,0l0,0l0,0
		c-0.5,0.1-1.1-0.1-1.4-0.6l0,0l0,0l0,0c-0.3-0.5-0.1-0.9,0.4-1l0,0l0,0l0,0c0.2-0.1,0.5,0,0.8,0.1l0,0l0,0l0,0
		c0.1,0,0.2,0.1,0.3,0.2l0,0l0,0l0,0C10.4,9.8,10.5,9.9,10.6,10.1z M12.3,8.2c0.1,0.3-0.1,0.6-0.4,0.6l0,0l0,0l0,0
		c-0.3,0.1-0.6,0-0.9-0.2l0,0l0,0l0,0c-0.1,0-0.2-0.1-0.3-0.2l0,0l0,0l0,0c-0.2-0.1-0.3-0.3-0.4-0.4l0,0l0,0l0,0
		c-0.4-0.5-0.2-1,0.3-1.1l0,0l0,0l0,0c0.5-0.1,1.2,0.3,1.5,0.7l0,0l0,0l0,0c0.1,0.1,0.1,0.2,0.1,0.2l0,0l0,0l0,0
		C12.3,8.1,12.3,8.1,12.3,8.2z M14.8,13.1c-0.1,0.1-0.3,0-0.4-0.2l0,0l0,0l0,0c-0.1-0.2-0.1-0.3,0-0.4l0,0l0,0l0,0
		c0.1-0.1,0.3,0,0.4,0.2l0,0l0,0l0,0c0,0,0,0,0,0.1l0,0l0,0l0,0C14.9,12.8,14.9,12.9,14.8,13.1L14.8,13.1L14.8,13.1L14.8,13.1
		C14.9,13,14.9,13.1,14.8,13.1z M23.9,21.6c-0.2,0.4-0.6,0.2-1-0.3l0,0l0,0l0,0c-0.4-0.5-0.5-1.2-0.4-1.5l0,0l0,0l0,0
		c0.1-0.1,0.2-0.2,0.3-0.2l0,0l0,0l0,0c0.1,0,0.2,0,0.3,0.1l0,0l0,0l0,0c0.1,0.1,0.3,0.2,0.4,0.4l0,0l0,0l0,0
		C23.9,20.6,24.1,21.2,23.9,21.6z M20,9.1c-0.1-0.2-0.1-0.4,0-0.4l0,0l0,0l0,0c0.2-0.1,0.6,0.1,0.8,0.5l0,0l0,0l0,0
		c0.2,0.2,0.3,0.4,0.3,0.5l0,0l0,0l0,0c0,0,0,0.1,0,0.1l0,0l0,0l0,0c0,0.1,0,0.1-0.1,0.1l0,0l0,0l0,0c-0.1,0.1-0.3,0-0.5-0.1l0,0
		l0,0l0,0c-0.1,0-0.1-0.1-0.2-0.1l0,0l0,0l0,0c-0.1-0.1-0.2-0.1-0.2-0.2l0,0l0,0l0,0c0,0-0.1-0.1-0.1-0.1l0,0l0,0l0,0
		C20.1,9.3,20.1,9.2,20,9.1z M20,9.3c0,0.1,0.1,0.2,0.2,0.2l0,0l0,0l0,0c0.1,0.1,0.2,0.3,0.4,0.4l0,0l0,0l0,0c0,0.3-0.1,0.8-0.1,1.1
		l0,0l0,0l0,0c-0.2-0.1-0.4-0.2-0.5-0.1l0,0l0,0l0,0c-0.1,0-0.1,0.1-0.1,0.2l0,0l0,0l0,0c-0.2-0.1-0.5-0.3-0.7-0.4l0,0l0,0l0,0
		c0-0.1-0.1-0.2-0.2-0.3l0,0l0,0l0,0c-0.2-0.2-0.4-0.3-0.5-0.3l0,0l0,0l0,0c-0.2-0.2-0.3-0.5-0.4-0.6l0,0l0,0l0,0
		C18,9.5,18,9.4,18,9.4l0,0l0,0l0,0c0.3,0.2,0.6,0.3,0.8,0.3l0,0l0,0l0,0C19,9.6,19,9.4,18.9,9.1l0,0l0,0l0,0
		C19.2,9.2,19.6,9.3,20,9.3z M21.1,14.4C21.1,14.4,21.1,14.4,21.1,14.4L21.1,14.4L21.1,14.4L21.1,14.4c-0.1-0.1-0.1-0.1-0.1-0.1l0,0
		l0,0l0,0c-0.1-0.1-0.1-0.2-0.1-0.2l0,0l0,0l0,0c-0.1-0.3-0.1-0.5,0-0.6l0,0l0,0l0,0c0,0,0.1-0.1,0.2-0.1l0,0l0,0l0,0
		c0.1,0,0.2,0,0.2,0.1l0,0l0,0l0,0c0.1,0.1,0.3,0.2,0.4,0.3l0,0l0,0l0,0c0.2,0.2,0.3,0.5,0.3,0.7l0,0l0,0l0,0c0,0.1,0,0.1,0,0.2l0,0
		l0,0l0,0c0,0,0,0.1,0,0.1l0,0l0,0l0,0c-0.1,0.1-0.4,0.1-0.6-0.1l0,0l0,0l0,0C21.3,14.6,21.2,14.5,21.1,14.4z M20.7,13.2
		c-0.2,0.2-0.2,0.5,0.1,0.9l0,0l0,0l0,0l-0.3,0.1l0,0l0,0l0,0c-0.2-0.2-0.5-0.7-0.7-1.1l0,0l0,0l0,0c0,0,0,0,0,0l0,0l0,0l0,0
		c0.2-0.2,0.1-0.6-0.2-1.1l0,0l0,0l0,0c-0.1-0.1-0.1-0.1-0.2-0.2l0,0l0,0l0,0c0.1-0.3,0.2-0.6,0.2-0.7l0,0l0,0l0,0l0.3,0.2l0,0l0,0
		l0,0c0,0.1,0.1,0.3,0.3,0.5l0,0l0,0l0,0c0.2,0.2,0.3,0.3,0.5,0.4l0,0l0,0l0,0l0.3,1l0,0l0,0l0,0C20.8,13.1,20.7,13.1,20.7,13.2z
		 M18,12.2c0,0.1,0.1,0.1,0.1,0.2l0,0l0,0l0,0c0,0.1,0,0.1-0.1,0.1l0,0l0,0l0,0c0,0-0.1,0-0.1,0l0,0l0,0l0,0c-0.1,0-0.1-0.1-0.2-0.2
		l0,0l0,0l0,0c0,0,0,0,0,0l0,0l0,0l0,0c0,0,0-0.1,0-0.1l0,0l0,0l0,0c-0.1-0.1,0-0.2,0-0.2l0,0l0,0l0,0c0,0,0,0,0,0l0,0l0,0l0,0
		c0,0,0,0,0,0l0,0l0,0l0,0C17.7,12,17.8,12.1,18,12.2L18,12.2L18,12.2L18,12.2C17.9,12.1,17.9,12.2,18,12.2L18,12.2L18,12.2L18,12.2
		C18,12.2,18,12.2,18,12.2z M17.9,12c-0.1-0.4-0.2-1.2-0.2-1.7l0,0l0,0l0,0c0.1,0,0.2,0,0.2,0l0,0l0,0l0,0C18,10.2,18,10,17.8,9.7
		l0,0l0,0l0,0c0,0,0-0.1,0.1-0.1l0,0l0,0l0,0l0.4,0.5l0,0l0,0l0,0c-0.1,0.1-0.1,0.3,0.1,0.6l0,0l0,0l0,0c0.2,0.3,0.5,0.4,0.6,0.3
		l0,0l0,0l0,0c0.1,0,0.1-0.1,0.1-0.1l0,0l0,0l0,0l0.2,0.1l0,0l0,0l0,0l-0.2,0.7l0,0l0,0l0,0c-0.2-0.2-0.5-0.2-0.6-0.1l0,0l0,0l0,0
		c-0.2,0.1-0.2,0.4-0.1,0.6l0,0l0,0l0,0c-0.1,0-0.2,0-0.3,0l0,0l0,0l0,0c0,0,0,0,0,0l0,0l0,0l0,0C18,12.1,17.9,12,17.9,12z
		 M17.3,9.9c-0.1-0.1-0.1-0.1-0.1-0.2l0,0l0,0l0,0c0-0.1,0-0.1,0-0.2l0,0l0,0l0,0c0,0,0,0,0.1,0l0,0l0,0l0,0c0.1,0,0.1,0,0.2,0l0,0
		l0,0l0,0c0.1,0,0.1,0.1,0.2,0.2l0,0l0,0l0,0c0,0,0,0,0,0l0,0l0,0l0,0c0.1,0.2,0.1,0.3,0,0.3l0,0l0,0l0,0c0,0-0.1,0-0.1,0l0,0l0,0
		l0,0c-0.1,0-0.1,0-0.2-0.1l0,0l0,0l0,0C17.4,10,17.3,10,17.3,9.9z M18.9,10.6c0,0.1,0,0.1,0,0.2l0,0l0,0l0,0c0,0,0,0.1-0.1,0.1l0,0
		l0,0l0,0c-0.1,0.1-0.3,0-0.4-0.2l0,0l0,0l0,0c-0.1-0.1-0.1-0.3-0.1-0.4l0,0l0,0l0,0c0,0,0,0,0,0l0,0l0,0l0,0c0,0,0.1,0,0.1,0l0,0
		l0,0l0,0c0.1,0,0.2,0.1,0.3,0.2l0,0l0,0l0,0C18.9,10.5,18.9,10.6,18.9,10.6z M18.7,12.4c0-0.1-0.1-0.1-0.1-0.2l0,0l0,0l0,0
		c-0.1-0.2-0.1-0.4,0.1-0.4l0,0l0,0l0,0c0.1-0.1,0.3,0,0.4,0.1l0,0l0,0l0,0c0.1,0,0.1,0.1,0.2,0.2l0,0l0,0l0,0c0,0,0.1,0.1,0.1,0.1
		l0,0l0,0l0,0c0.2,0.3,0.3,0.6,0.1,0.8l0,0l0,0l0,0c0,0,0,0,0,0l0,0l0,0l0,0c0,0-0.1,0-0.1,0l0,0l0,0l0,0c-0.2,0-0.4-0.1-0.6-0.4
		l0,0l0,0l0,0C18.7,12.5,18.7,12.4,18.7,12.4z M20.7,11.4c0.2,0.3,0.3,0.6,0.2,0.6l0,0l0,0l0,0c0,0-0.1,0-0.1,0l0,0l0,0l0,0
		c-0.1,0-0.1,0-0.2-0.1l0,0l0,0l0,0c-0.1-0.1-0.2-0.2-0.3-0.3l0,0l0,0l0,0c-0.1-0.1-0.1-0.2-0.2-0.3l0,0l0,0l0,0c0-0.1,0-0.1,0-0.2
		l0,0l0,0l0,0c0-0.1,0-0.1,0.1-0.2l0,0l0,0l0,0c0.1,0,0.2,0,0.3,0.1l0,0l0,0l0,0c0.1,0,0.1,0.1,0.2,0.1l0,0l0,0l0,0
		C20.6,11.3,20.7,11.3,20.7,11.4z M17.9,9c-0.2-0.2-0.3-0.5-0.1-0.6l0,0l0,0l0,0c0,0,0,0,0.1,0l0,0l0,0l0,0c0,0,0,0,0,0l0,0l0,0l0,0
		c0.2,0,0.5,0.1,0.7,0.4l0,0l0,0l0,0c0,0,0,0,0.1,0.1l0,0l0,0l0,0C18.6,9,18.7,9,18.7,9.1l0,0l0,0l0,0c0.1,0.2,0,0.3-0.1,0.3l0,0
		l0,0l0,0c-0.1,0-0.3,0-0.5-0.2l0,0l0,0l0,0C18,9.2,18,9.1,17.9,9L17.9,9L17.9,9L17.9,9C17.9,9,17.9,9,17.9,9z M17.6,6.4
		c0.2,0,0.5,0.1,0.7,0.4l0,0l0,0l0,0c0.2,0.2,0.2,0.5,0.1,0.5l0,0l0,0l0,0c0,0,0,0,0,0l0,0l0,0l0,0c0,0-0.1,0-0.1,0l0,0l0,0l0,0
		c-0.2-0.1-0.4-0.2-0.5-0.4l0,0l0,0l0,0c-0.1-0.1-0.1-0.2-0.2-0.2l0,0l0,0l0,0c0-0.1,0-0.1,0-0.2l0,0l0,0l0,0
		C17.5,6.5,17.6,6.5,17.6,6.4z M14.1,4.9c-0.3-0.3-0.2-0.6,0.1-0.6l0,0l0,0l0,0c0.3,0,0.8,0.3,1,0.6l0,0l0,0l0,0
		c0.1,0.1,0.2,0.3,0.2,0.4l0,0l0,0l0,0c0,0.1,0,0.1,0,0.1l0,0l0,0l0,0c0,0.1-0.1,0.1-0.1,0.1l0,0l0,0l0,0c0,0-0.1,0-0.1,0l0,0l0,0
		l0,0c0,0,0,0,0,0l0,0l0,0l0,0C14.9,5.5,14.4,5.3,14.1,4.9z M15.7,5.6l1.7,1l0,0l0,0l0,0c0,0.1,0.1,0.2,0.2,0.4l0,0l0,0l0,0
		c0.2,0.3,0.5,0.5,0.8,0.5l0,0l0,0l0,0l1,1.5l0,0l0,0l0,0l-0.5-0.1l0,0l0,0l0,0c0,0-0.1-0.1-0.1-0.1l0,0l0,0l0,0
		c-0.3-0.4-0.8-0.6-1-0.6l0,0l0,0l0,0l-2.2-2.4l0,0l0,0l0,0C15.6,5.7,15.6,5.7,15.7,5.6z M13.8,5.9c0.1,0,0.3,0.1,0.4,0.2l0,0l0,0
		l0,0c0,0,0,0,0,0l0,0l0,0l0,0c0.1,0.1,0.1,0.1,0.1,0.2l0,0l0,0l0,0c0,0.1,0,0.1-0.1,0.1l0,0l0,0l0,0c-0.1,0-0.4-0.1-0.5-0.3l0,0
		l0,0l0,0C13.6,6.1,13.6,6,13.6,6l0,0l0,0l0,0C13.6,5.9,13.7,5.9,13.8,5.9L13.8,5.9L13.8,5.9L13.8,5.9C13.7,5.9,13.8,5.9,13.8,5.9z
		 M14,7.3c0,0.2,0,0.3-0.2,0.3l0,0l0,0l0,0c-0.3,0-0.6-0.2-0.9-0.4l0,0l0,0l0,0c-0.2-0.3-0.2-0.5,0.1-0.6l0,0l0,0l0,0
		c0,0,0.1,0,0.1,0l0,0l0,0l0,0c0.1,0,0.2,0,0.3,0.1l0,0l0,0l0,0c0.2,0.1,0.3,0.2,0.4,0.3l0,0l0,0l0,0c0,0,0.1,0.1,0.1,0.1l0,0l0,0
		l0,0C13.9,7.2,13.9,7.3,14,7.3z M14.1,7.2C14.1,7.2,14,7.1,14,7l0,0l0,0l0,0c-0.2-0.2-0.4-0.4-0.7-0.5l0,0l0,0l0,0L13,5.5l0,0l0,0
		l0,0l0.4,0.4l0,0l0,0l0,0c0,0.1,0,0.2,0.1,0.3l0,0l0,0l0,0c0.2,0.2,0.5,0.4,0.7,0.4l0,0l0,0l0,0c0.1,0,0.2-0.1,0.2-0.2l0,0l0,0l0,0
		l0.9,0.3l0,0l0,0l0,0l0.1,0.8l0,0l0,0l0,0L14.1,7.2z M15.5,6.7l1,0.3l0,0l0,0l0,0l1.1,1.2l0,0l0,0l0,0c-0.2,0.1-0.1,0.5,0.2,0.8
		l0,0l0,0l0,0c0,0,0,0.1,0.1,0.1l0,0l0,0l0,0l-0.3,0.3l0,0l0,0l0,0c-0.1-0.1-0.3-0.2-0.4-0.1l0,0l0,0l0,0c0,0-0.1,0-0.1,0.1l0,0l0,0
		l0,0l-0.8-0.5l0,0l0,0l0,0c0-0.1-0.1-0.2-0.1-0.3l0,0l0,0l0,0c-0.1-0.1-0.2-0.2-0.3-0.3l0,0l0,0l0,0L15.5,6.7z M15.5,8.4
		c0,0,0.1,0,0.1,0l0,0l0,0l0,0c0.1,0,0.1,0,0.2,0.1l0,0l0,0l0,0c0.1,0,0.1,0.1,0.2,0.2l0,0l0,0l0,0C16,8.7,16,8.8,16,8.8l0,0l0,0
		l0,0C16,8.9,16,9,16,9l0,0l0,0l0,0c0,0,0,0-0.1,0l0,0l0,0l0,0c-0.1,0-0.4-0.1-0.5-0.2l0,0l0,0l0,0c0,0,0,0,0,0l0,0l0,0l0,0
		c-0.1-0.1-0.1-0.1-0.1-0.2l0,0l0,0l0,0C15.3,8.5,15.4,8.4,15.5,8.4z M14.8,10.6c-0.3,0.1-0.7-0.1-0.9-0.4l0,0l0,0l0,0
		c-0.2-0.3-0.2-0.7,0.1-0.7l0,0l0,0l0,0c0.1,0,0.1,0,0.2,0l0,0l0,0l0,0c0.1,0,0.2,0,0.3,0.1l0,0l0,0l0,0c0.1,0.1,0.3,0.2,0.4,0.3
		l0,0l0,0l0,0C15,10,15,10.2,15,10.3l0,0l0,0l0,0c0,0.1,0,0.2-0.1,0.2l0,0l0,0l0,0C14.9,10.6,14.9,10.6,14.8,10.6z M15.3,10.5
		c0-0.2-0.1-0.4-0.2-0.6l0,0l0,0l0,0c-0.2-0.2-0.4-0.4-0.6-0.5l0,0l0,0l0,0c0-0.3-0.1-0.6-0.1-0.8l0,0l0,0l0,0
		c0.4,0.1,0.7,0.1,0.9,0.2l0,0l0,0l0,0c0,0,0,0.1,0.1,0.1l0,0l0,0l0,0c0.2,0.3,0.5,0.4,0.7,0.4l0,0l0,0l0,0c0,0,0.1,0,0.1-0.1l0,0
		l0,0l0,0c0.3,0.2,0.6,0.4,0.8,0.5l0,0l0,0l0,0c0,0.1,0.1,0.2,0.2,0.3l0,0l0,0l0,0c0.1,0.1,0.2,0.2,0.3,0.3l0,0l0,0l0,0l0.2,1.7l0,0
		l0,0l0,0c-0.1,0-0.1,0-0.1,0l0,0l0,0l0,0c0,0,0,0,0,0l0,0l0,0l0,0C17,11.6,16,10.9,15.3,10.5z M15.8,13.3
		C15.7,13.3,15.7,13.3,15.8,13.3L15.8,13.3L15.8,13.3L15.8,13.3c-0.1-0.2-0.1-0.3-0.1-0.3l0,0l0,0l0,0c0,0,0-0.1,0.1-0.1l0,0l0,0
		l0,0c0,0,0.1,0,0.1,0l0,0l0,0l0,0c0.1,0,0.2,0.1,0.3,0.1l0,0l0,0l0,0c0,0,0,0,0,0.1l0,0l0,0l0,0c0.1,0.1,0.1,0.2,0.1,0.2l0,0l0,0
		l0,0c0,0.1,0,0.1-0.1,0.2l0,0l0,0l0,0c0,0-0.1,0-0.1,0l0,0l0,0l0,0C15.9,13.5,15.8,13.4,15.8,13.3z M16.4,13.5c0-0.1,0-0.3-0.1-0.4
		l0,0l0,0l0,0c0-0.1-0.1-0.1-0.1-0.1l0,0l0,0l0,0l0.1-1.5l0,0l0,0l0,0l1.2,0.8l0,0l0,0l0,0c0,0.1,0.1,0.2,0.1,0.2l0,0l0,0l0,0
		c0,0,0,0,0,0l0,0l0,0l0,0l-0.2,0.6l0,0l0,0l0,0c-0.2-0.1-0.4-0.1-0.5-0.1l0,0l0,0l0,0c-0.2,0.1-0.2,0.5,0,0.8l0,0l0,0l0,0
		c0.2,0.3,0.6,0.5,0.8,0.4l0,0l0,0l0,0l0.1,0.1l0,0l0,0l0,0c0,0.1,0,0.2,0,0.3l0,0l0,0l0,0l-0.4,0.1l0,0l0,0l0,0L16.4,13.5z
		 M18.1,14.8c-0.1-0.1-0.1-0.1-0.1-0.2l0,0l0,0l0,0c0,0,0-0.1,0-0.1l0,0l0,0l0,0c0,0,0-0.1,0.1-0.1l0,0l0,0l0,0c0,0,0,0,0.1,0l0,0
		l0,0l0,0c0.1,0,0.2,0.1,0.3,0.2l0,0l0,0l0,0c0.1,0.2,0.1,0.3,0,0.4l0,0l0,0l0,0C18.4,15.1,18.3,15,18.1,14.8L18.1,14.8L18.1,14.8
		L18.1,14.8C18.1,14.9,18.1,14.8,18.1,14.8z M17.6,13.4c0.1,0.2,0.2,0.3,0.1,0.5l0,0l0,0l0,0c0,0,0,0.1-0.1,0.1l0,0l0,0l0,0
		c0,0,0,0-0.1,0l0,0l0,0l0,0c-0.1,0-0.4-0.1-0.5-0.3l0,0l0,0l0,0c-0.2-0.2-0.2-0.5,0-0.6l0,0l0,0l0,0c0.1,0,0.2,0,0.3,0l0,0l0,0l0,0
		C17.4,13.3,17.5,13.3,17.6,13.4L17.6,13.4L17.6,13.4L17.6,13.4C17.6,13.4,17.6,13.4,17.6,13.4z M16.6,15.3c0,0-0.1-0.1-0.1-0.1l0,0
		l0,0l0,0c0,0,0-0.1-0.1-0.1l0,0l0,0l0,0c-0.1-0.1,0-0.3,0-0.4l0,0l0,0l0,0c0.1-0.1,0.3,0,0.4,0.1l0,0l0,0l0,0c0,0,0,0,0,0l0,0l0,0
		l0,0C17,15,17,15.1,17,15.1l0,0l0,0l0,0c0,0,0,0,0,0.1l0,0l0,0l0,0c0,0.1,0,0.1-0.1,0.2l0,0l0,0l0,0c0,0,0,0,0,0l0,0l0,0l0,0
		C16.8,15.4,16.7,15.4,16.6,15.3z M16,16.5c-0.2,0.1-0.5,0-0.7-0.2l0,0l0,0l0,0c-0.2-0.3-0.2-0.6,0-0.7l0,0l0,0l0,0
		c0.1-0.1,0.4-0.1,0.5,0.1l0,0l0,0l0,0c0,0,0.1,0.1,0.1,0.1l0,0l0,0l0,0c0,0,0,0.1,0.1,0.1l0,0l0,0l0,0C16.2,16.1,16.2,16.4,16,16.5
		z M17.2,15.3c0-0.1,0-0.1,0-0.2l0,0l0,0l0,0c0.3-0.1,0.6-0.1,0.9-0.2l0,0l0,0l0,0c0,0,0,0,0,0l0,0l0,0l0,0c0.2,0.2,0.4,0.4,0.6,0.2
		l0,0l0,0l0,0c0.1-0.1,0.1-0.4-0.1-0.6l0,0l0,0l0,0c-0.2-0.2-0.4-0.3-0.5-0.3l0,0l0,0l0,0c0,0-0.1-0.1-0.1-0.1l0,0l0,0l0,0
		c0.1-0.2,0-0.5-0.2-0.7l0,0l0,0l0,0c0,0-0.1-0.1-0.1-0.1l0,0l0,0l0,0c0-0.1,0.1-0.2,0.1-0.3l0,0l0,0l0,0l0.5,0.3l0,0l0,0l0,0
		c0,0.1,0.1,0.2,0.1,0.3l0,0l0,0l0,0c0.2,0.2,0.4,0.3,0.5,0.2l0,0l0,0l0,0c0.1-0.1,0.1-0.3-0.1-0.6l0,0l0,0l0,0
		c-0.2-0.2-0.4-0.3-0.5-0.2l0,0l0,0l0,0c0,0,0,0-0.1,0.1l0,0l0,0l0,0l-0.4-0.3l0,0l0,0l0,0c0-0.1,0-0.1,0.1-0.2l0,0l0,0l0,0
		c0.1,0.1,0.2,0.1,0.3,0l0,0l0,0l0,0c0.1,0,0.1-0.2,0.1-0.3l0,0l0,0l0,0l0.3,0l0,0l0,0l0,0c0,0.1,0.1,0.1,0.1,0.2l0,0l0,0l0,0
		c0.3,0.4,0.6,0.6,0.9,0.5l0,0l0,0l0,0l0.7,1.1l0,0l0,0l0,0l-0.4,0.1l0,0l0,0l0,0c0,0,0,0,0,0l0,0l0,0l0,0c-0.2-0.3-0.6-0.4-0.7-0.3
		l0,0l0,0l0,0c-0.2,0.1-0.1,0.5,0.1,0.8l0,0l0,0l0,0c0.1,0.1,0.1,0.1,0.2,0.2l0,0l0,0l0,0c0,0.3,0,0.7,0,1l0,0l0,0l0,0
		c-0.4-0.2-0.9-0.2-1.2,0l0,0l0,0l0,0c-0.1,0-0.1,0.1-0.1,0.2l0,0l0,0l0,0C17.7,15.9,17.4,15.6,17.2,15.3z M18.3,13.3
		c0-0.1,0-0.1,0-0.2l0,0l0,0l0,0c0,0,0,0,0,0l0,0l0,0l0,0c0.1-0.1,0.2,0,0.3,0.2l0,0l0,0l0,0c0.1,0.1,0.1,0.3,0,0.4l0,0l0,0l0,0
		c-0.1,0.1-0.2,0-0.4-0.2l0,0l0,0l0,0C18.4,13.5,18.3,13.4,18.3,13.3z M19.8,14.4c0.1,0.1,0.1,0.2,0.1,0.2l0,0l0,0l0,0
		c0,0.1,0,0.3,0,0.3l0,0l0,0l0,0c0,0-0.1,0.1-0.2,0l0,0l0,0l0,0c-0.1,0-0.2-0.1-0.2-0.2l0,0l0,0l0,0c0,0-0.1-0.1-0.1-0.1l0,0l0,0
		l0,0c-0.2-0.2-0.2-0.5-0.1-0.6l0,0l0,0l0,0C19.4,14.1,19.6,14.2,19.8,14.4L19.8,14.4L19.8,14.4L19.8,14.4
		C19.8,14.4,19.8,14.4,19.8,14.4z M20.4,17.8c0.2,0.5,0.2,0.9-0.1,1.2l0,0l0,0l0,0c-0.3,0.4-1,0.2-1.5-0.5l0,0l0,0l0,0
		c-0.4-0.5-0.5-1.2-0.4-1.6l0,0l0,0l0,0c0-0.1,0.1-0.2,0.1-0.2l0,0l0,0l0,0c0,0,0-0.1,0.1-0.1l0,0l0,0l0,0c0.2-0.2,0.5-0.2,0.8,0
		l0,0l0,0l0,0c0.1,0,0.2,0.1,0.3,0.2l0,0l0,0l0,0c0.1,0.1,0.3,0.2,0.4,0.4l0,0l0,0l0,0c0.1,0.1,0.1,0.2,0.2,0.3l0,0l0,0l0,0
		C20.3,17.5,20.3,17.6,20.4,17.8z M23.7,15.8c0.2-0.2,0.6,0,1,0.4l0,0l0,0l0,0c0.4,0.5,0.6,1.1,0.5,1.4l0,0l0,0l0,0
		c-0.1,0.3-0.6,0.1-1-0.4l0,0l0,0l0,0c-0.1-0.1-0.1-0.1-0.2-0.2l0,0l0,0l0,0c-0.1-0.1-0.1-0.2-0.2-0.4l0,0l0,0l0,0
		c-0.1-0.2-0.1-0.4-0.2-0.5l0,0l0,0l0,0c0-0.1,0-0.1,0-0.2l0,0l0,0l0,0C23.7,15.9,23.7,15.8,23.7,15.8z M23.6,16.7l-3,0.6l0,0l0,0
		l0,0c-0.1-0.2-0.2-0.3-0.3-0.4l0,0l0,0l0,0c-0.2-0.3-0.4-0.5-0.6-0.6l0,0l0,0l0,0c0-0.4,0-0.8,0-1l0,0l0,0l0,0
		c0.1,0.1,0.3,0.1,0.4,0l0,0l0,0l0,0c0.1-0.1,0.1-0.3,0-0.6l0,0l0,0l0,0c0.2-0.1,0.6-0.2,0.8-0.2l0,0l0,0l0,0c0,0,0.1,0.1,0.1,0.1
		l0,0l0,0l0,0c0,0,0.1,0.1,0.1,0.1l0,0l0,0l0,0l-0.4,1l0,0l0,0l0,0c-0.1-0.1-0.3-0.1-0.3,0l0,0l0,0l0,0c-0.1,0.1-0.1,0.4,0.1,0.6
		l0,0l0,0l0,0c0.2,0.2,0.4,0.3,0.5,0.2l0,0l0,0l0,0c0.1-0.1,0-0.4-0.1-0.6l0,0l0,0l0,0l0.4-1l0,0l0,0l0,0c0.3,0.3,0.7,0.4,0.9,0.2
		l0,0l0,0l0,0c0,0,0.1-0.1,0.1-0.1l0,0l0,0l0,0c0.3,0.3,0.8,0.6,1.1,1l0,0l0,0l0,0C23.3,16.1,23.4,16.4,23.6,16.7z M20.8,15.9
		C20.8,15.9,20.8,15.9,20.8,15.9L20.8,15.9L20.8,15.9L20.8,15.9c0.1,0.2,0.2,0.4,0.1,0.4l0,0l0,0l0,0c-0.1,0.1-0.2,0-0.3-0.1l0,0
		l0,0l0,0c-0.1-0.2-0.2-0.4-0.1-0.4l0,0l0,0l0,0c0,0,0.1,0,0.2,0l0,0l0,0l0,0C20.7,15.8,20.8,15.8,20.8,15.9z M23.6,13.6
		c-0.1,0.1-0.2,0-0.4-0.1l0,0l0,0l0,0c-0.1-0.1-0.2-0.1-0.2-0.2l0,0l0,0l0,0c0,0,0,0,0,0l0,0l0,0l0,0c-0.3-0.3-0.4-0.6-0.2-0.8l0,0
		l0,0l0,0c0,0,0.1,0,0.1,0l0,0l0,0l0,0c0.1,0,0.1,0,0.2,0.1l0,0l0,0l0,0c0.1,0.1,0.2,0.2,0.3,0.3l0,0l0,0l0,0
		C23.6,13.1,23.7,13.4,23.6,13.6z M22.7,12.2c-0.1,0-0.1,0-0.2,0l0,0l0,0l0,0c-0.2,0.2,0,0.6,0.3,1.1l0,0l0,0l0,0
		c0,0,0.1,0.1,0.1,0.1l0,0l0,0l0,0c-0.1,0.5-0.2,1.3-0.3,1.6l0,0l0,0l0,0l-0.4-0.4l0,0l0,0l0,0c0-0.3-0.2-0.7-0.4-1l0,0l0,0l0,0
		c-0.2-0.2-0.4-0.4-0.6-0.5l0,0l0,0l0,0l-0.4-0.9l0,0l0,0l0,0c0.1,0,0.1,0,0.2,0l0,0l0,0l0,0c0.2-0.1,0.1-0.5-0.2-0.9l0,0l0,0l0,0
		c-0.1-0.1-0.1-0.2-0.2-0.2l0,0l0,0l0,0c0-0.3,0.1-0.8,0.1-1.1l0,0l0,0l0,0c0.3,0.2,0.6,0.3,0.7,0.2l0,0l0,0l0,0
		c0.1,0,0.1-0.1,0.1-0.2l0,0l0,0l0,0c0.1,0.1,0.2,0.1,0.3,0.2l0,0l0,0l0,0C21.9,10.5,22.4,11.5,22.7,12.2z M23.5,11.6
		c-0.1,0.1-0.4-0.1-0.6-0.3l0,0l0,0l0,0c-0.1-0.1-0.2-0.3-0.2-0.4l0,0l0,0l0,0c0,0,0-0.1,0-0.1l0,0l0,0l0,0c0,0,0-0.1,0-0.1l0,0l0,0
		l0,0c0.1-0.1,0.4,0.1,0.6,0.3l0,0l0,0l0,0C23.5,11.2,23.6,11.5,23.5,11.6z"/>
</g>
<g id="Incheon" class="st0">
	<path class="st11" d="M15.5,19.9c2.8,1.9,7.1,2.5,11.1,0.3c-2.5,4.2-7.5,6.5-12.5,5.3C7.9,24.1,4,17.9,5.5,11.7
		c1.4-6,7.2-9.8,13.2-8.8c0,0,2.3,0.4,3.5,2.5C22.6,6.2,23,7.1,23.2,8l0,0c0.3,1.3,0.3,2.7,0,4.1c-0.5,2.2-1.7,4.2-3.3,5.2l0,0
		c0.5-0.6,1-1.3,1.1-2.1c0.6-2.4-1-4.8-3.4-5.4c-2.4-0.6-4.8,1-5.4,3.4c-0.2,0.7-0.2,1.4,0,2C12.2,15.3,12.7,18.1,15.5,19.9z"/>
	<path class="st12" d="M14.5,18.2c1,0.6,2.3,0.8,2.3,0.8c2.8,0.6,5.6-0.1,7.8-1.7l0,0c1-0.7,1.8-1.5,2.5-2.6c0.4-0.7,0.8-1.4,1-2.1
		c0.3,2.9-0.3,4.5-0.3,4.5c-0.8,0.9-1.6,1.5-1.6,1.5c-2.1,1.6-4.9,2.2-7.7,1.6C18.5,20.3,16,19.8,14.5,18.2z"/>
	<path class="st12" d="M17.3,18.7c4.4,0.4,8.5-2.8,9.6-6.9c0,0,0.3-1.3,0.3-2.2c0,0-0.9-2.4-3.4-4.4c1,1.9,1.3,4.1,0.8,6.4
		c-0.8,3.4-3.3,5.9-6.4,6.9C17.9,18.6,17.6,18.7,17.3,18.7L17.3,18.7z"/>
</g>
<g id="Gangwon" class="st0">
	<path class="st13" d="M30.2,9.9c0-0.7,0.3-0.7,0.2-1.3c-0.1-0.7,0.1-0.7,0-1.3c-0.1-0.7-0.2-0.6-0.3-1.3c-0.1-0.7,0.2-0.9-0.1-1.4
		c-0.2-0.3-0.4,0.5-0.8,0.6l0,0.1c0,0,0,0,0,0c0,0,1.3,7.9-11.4,13.8c0,0,0,0,0,0c0.2,0.1,0.3,0.3,0.6,0.4c0.4,0.1,0.5-0.3,0.9-0.3
		c0.4,0.1,0.4,0.1,0.8,0.2c0.6,0.1,0.5,0.4,1.1,0.5s0.6,0.1,1.1,0.2c0.6,0.1,0.6,0,1.1,0.1c0.5,0.1,0.5,0.2,1.1,0.2
		c0.7,0,0.7-0.3,1.4-0.4c0.7-0.1,0.7-0.1,1.4-0.2c0.7-0.1,0.7-0.2,1.4-0.2c0.7,0,0.8,0.4,1.4,0c0.3-0.2,0.1-0.4,0-0.7
		S30,18.6,30,18.3s0.1-0.3,0-0.6c-0.1-0.3-0.1-0.5-0.1-0.8c0-0.4-0.2-0.3-0.1-0.7c0.1-0.4-0.2-0.2-0.1-0.6c0.1-0.4,0.1-0.4,0.2-0.8
		c0.1-0.4,0.3-0.4,0.3-0.7c0.1-0.5-0.4-0.6-0.3-1.1s0.2-0.5,0.3-1s0-0.5,0.1-1.1C30.2,10.4,30.2,10.4,30.2,9.9z"/>
	<path class="st14" d="M28.7,5.3c-0.3,0.1-0.5-0.3-0.8-0.2c-0.3,0.1-0.2,0.3-0.6,0.3c-0.4,0-0.5-0.2-0.9-0.2C26,5.2,26,5.6,25.6,5.5
		s-0.4,0-0.8,0c-0.4-0.1-0.4-0.2-0.8-0.3C23.4,5,23.4,5,22.9,4.8S22.2,5,21.7,4.9c-0.6-0.1-0.5-0.3-1.1-0.4C20,4.4,20.1,4,19.5,4
		c-0.7,0-0.7,0.2-1.4,0.3c-0.7,0.1-0.7,0.3-1.3,0.4c-0.7,0.1-0.7,0-1.4,0.1c-0.7,0.1-0.5-0.6-1.1-0.2c-0.3,0.2-0.2,0.7-0.1,1
		s0.2,0.3,0.3,0.6c0.1,0.3-0.1,0.4,0,0.7s0.4,0.3,0.4,0.6c0,0.4-0.2,0.2-0.2,0.6c-0.1,0.4-0.2,0.5-0.2,0.9c-0.1,0.4,0.1,0.4,0.1,0.8
		s-0.1,0.4-0.1,0.8c-0.1,0.5,0.2,0.6,0.1,1.1c-0.1,0.5-0.4,0.4-0.5,0.9c-0.1,0.5,0.2,0.6,0.1,1.1c-0.1,0.5-0.2,0.5-0.2,1
		c0,0.6,0,0.6,0.1,1.1c1.2-1.4,2.1-2.3,2.1-2.3s2.7-3,9.7-5.8c0,0,0,0,0,0c0,0,2.5-1,3.4-2.7l0-0.1C28.9,5.2,28.7,5.3,28.7,5.3z"/>
	<path class="st15" d="M9.9,22.4c0.3-0.8,0.7-1.7,1.2-2.5c0,0-0.1,0-0.1,0c-5.8,0-10.6,0.9-10.6,2s4.7,2,10.6,2
		c5.8,0,10.6-0.9,10.6-2c0-0.9-3-1.7-7.2-1.9c-0.3,0.1-0.6,0.1-0.6,0.1C11.6,20.7,9.9,22.4,9.9,22.4z"/>
</g>
<g id="Sejong" class="st0">
	
		<linearGradient id="SVGID_00000106855291637959158540000006636718925633644196_" gradientUnits="userSpaceOnUse" x1="-675.5027" y1="1296.34" x2="-678.6725" y2="1288.7268" gradientTransform="matrix(0.914 0 0 -0.914 640.081 1194.812)">
		<stop  offset="0" style="stop-color:#55C2F0"/>
		<stop  offset="0.2123" style="stop-color:#2CADE8"/>
		<stop  offset="0.4084" style="stop-color:#0C9CE1"/>
		<stop  offset="0.5169" style="stop-color:#0096DF"/>
		<stop  offset="1" style="stop-color:#005BAB"/>
	</linearGradient>
	<path style="display:inline;fill:url(#SVGID_00000106855291637959158540000006636718925633644196_);" d="M23.2,12.5
		c-0.8-1.5-1.3-2.9-1.6-3.7c-0.1,0.8-0.5,2.6-1,4.4c0.4,0.7,0.8,1.3,1.2,1.8C22.3,14.2,22.8,13.4,23.2,12.5z"/>
	
		<linearGradient id="SVGID_00000179630013194120074780000010348950908253180830_" gradientUnits="userSpaceOnUse" x1="-675.2914" y1="1296.2511" x2="-678.4603" y2="1288.6396" gradientTransform="matrix(0.914 0 0 -0.914 640.081 1194.812)">
		<stop  offset="0" style="stop-color:#55C2F0"/>
		<stop  offset="0.2123" style="stop-color:#2CADE8"/>
		<stop  offset="0.4084" style="stop-color:#0C9CE1"/>
		<stop  offset="0.5169" style="stop-color:#0096DF"/>
		<stop  offset="1" style="stop-color:#005BAB"/>
	</linearGradient>
	<path style="display:inline;fill:url(#SVGID_00000179630013194120074780000010348950908253180830_);" d="M21.5,15.5
		c-0.4-0.5-0.7-1.1-1.1-1.7c-0.3,0.8-0.6,1.6-0.9,2.3c0.2,0.2,0.4,0.6,0.7,0.9C20.4,16.8,20.9,16.3,21.5,15.5z"/>
	
		<linearGradient id="SVGID_00000004508772289599691040000007017781137891330689_" gradientUnits="userSpaceOnUse" x1="-814.45" y1="1298.7142" x2="-810.8119" y2="1291.9932" gradientTransform="matrix(0.9356 0 0 -0.9356 775.6013 1226.5508)">
		<stop  offset="0" style="stop-color:#55C2F0"/>
		<stop  offset="0.2123" style="stop-color:#2CADE8"/>
		<stop  offset="0.4084" style="stop-color:#0C9CE1"/>
		<stop  offset="0.5169" style="stop-color:#0096DF"/>
		<stop  offset="1" style="stop-color:#005BAB"/>
	</linearGradient>
	<path style="display:inline;fill:url(#SVGID_00000004508772289599691040000007017781137891330689_);" d="M14.9,16.1
		c0.5,0.7,1,1.4,1.6,2c0.4-0.3,0.8-0.5,1.1-0.8c-0.3-0.6-0.7-1.6-1.1-2.6C16.2,15.1,15.7,15.6,14.9,16.1z"/>
	
		<linearGradient id="SVGID_00000088101154427507976270000005292751953196368043_" gradientUnits="userSpaceOnUse" x1="-814.3791" y1="1298.7516" x2="-810.742" y2="1292.0323" gradientTransform="matrix(0.9356 0 0 -0.9356 775.6013 1226.5508)">
		<stop  offset="0" style="stop-color:#55C2F0"/>
		<stop  offset="0.2123" style="stop-color:#2CADE8"/>
		<stop  offset="0.4084" style="stop-color:#0C9CE1"/>
		<stop  offset="0.5169" style="stop-color:#0096DF"/>
		<stop  offset="1" style="stop-color:#005BAB"/>
	</linearGradient>
	<path style="display:inline;fill:url(#SVGID_00000088101154427507976270000005292751953196368043_);" d="M16.4,14.2
		c-0.5-1.2-0.9-2.4-1.1-3c-0.7,0.7-1.5,1.4-2.2,2.1c0.3,0.5,0.9,1.4,1.6,2.3C15.4,15.1,16,14.6,16.4,14.2z"/>
	
		<linearGradient id="SVGID_00000165923470620839452910000016629161477986830764_" gradientUnits="userSpaceOnUse" x1="645.343" y1="1097.7042" x2="649.0984" y2="1095.4304" gradientTransform="matrix(1.8556 0 0 -1.8556 -1190.1622 2052.2822)">
		<stop  offset="0" style="stop-color:#55C2F0"/>
		<stop  offset="0.2123" style="stop-color:#2CADE8"/>
		<stop  offset="0.4084" style="stop-color:#0C9CE1"/>
		<stop  offset="0.5169" style="stop-color:#0096DF"/>
		<stop  offset="1" style="stop-color:#005BAB"/>
	</linearGradient>
	<path style="display:inline;fill:url(#SVGID_00000165923470620839452910000016629161477986830764_);" d="M11.1,18.4
		c0.9,0.4,1.8,0.8,2.6,1.1c0.3-0.1,0.7-0.3,1-0.4c-0.8-0.3-1.6-0.8-2.5-1.3C11.9,18,11.5,18.2,11.1,18.4z"/>
	
		<linearGradient id="SVGID_00000035518680755550754380000018234890996183533240_" gradientUnits="userSpaceOnUse" x1="645.2971" y1="1097.6278" x2="649.0527" y2="1095.3538" gradientTransform="matrix(1.8556 0 0 -1.8556 -1190.1622 2052.2822)">
		<stop  offset="0" style="stop-color:#55C2F0"/>
		<stop  offset="0.2123" style="stop-color:#2CADE8"/>
		<stop  offset="0.4084" style="stop-color:#0C9CE1"/>
		<stop  offset="0.5169" style="stop-color:#0096DF"/>
		<stop  offset="1" style="stop-color:#005BAB"/>
	</linearGradient>
	<path style="display:inline;fill:url(#SVGID_00000035518680755550754380000018234890996183533240_);" d="M11.7,17.5
		C10.9,17,10,16.4,9.3,16c-0.5,0.3-0.9,0.5-1.4,0.8c0.6,0.4,1.6,0.9,2.6,1.4C11,17.9,11.4,17.7,11.7,17.5z"/>
	
		<linearGradient id="SVGID_00000150816988034852297990000000984055769477796524_" gradientUnits="userSpaceOnUse" x1="-676.524" y1="1291.7257" x2="-682.4512" y2="1287.6508" gradientTransform="matrix(0.9134 -3.340000e-02 -3.340000e-02 -0.9134 686.8241 1171.1801)">
		<stop  offset="0" style="stop-color:#55C2F0"/>
		<stop  offset="0.2123" style="stop-color:#2CADE8"/>
		<stop  offset="0.4084" style="stop-color:#0C9CE1"/>
		<stop  offset="0.5169" style="stop-color:#0096DF"/>
		<stop  offset="1" style="stop-color:#005BAB"/>
	</linearGradient>
	<path style="display:inline;fill:url(#SVGID_00000150816988034852297990000000984055769477796524_);" d="M20.5,17.4
		c0.2,0.3,0.5,0.5,0.8,0.8c1.6-0.7,3.1-1.8,3.9-2.5c-0.5-0.6-0.9-1.3-1.3-1.9C22.6,15.5,20.9,17.1,20.5,17.4z"/>
	
		<linearGradient id="SVGID_00000094600761431236640780000007736019379469602951_" gradientUnits="userSpaceOnUse" x1="-826.0995" y1="1291.0156" x2="-816.4957" y2="1288.7404" gradientTransform="matrix(0.9356 0 0 -0.9356 773.5818 1226.7881)">
		<stop  offset="0" style="stop-color:#55C2F0"/>
		<stop  offset="0.2123" style="stop-color:#2CADE8"/>
		<stop  offset="0.4084" style="stop-color:#0C9CE1"/>
		<stop  offset="0.5169" style="stop-color:#0096DF"/>
		<stop  offset="1" style="stop-color:#005BAB"/>
	</linearGradient>
	<path style="display:inline;fill:url(#SVGID_00000094600761431236640780000007736019379469602951_);" d="M2.9,19
		c-0.5,0.2-0.8,0.3-1.1,0.4l0,0l0,0c0,0,0,0-0.1,0c0,0,0,0,0,0.1c1.1,0.4,2.2,0.7,3.3,0.9c0.4-0.1,0.8-0.2,1.2-0.4
		C5,19.7,3.8,19.3,2.9,19z"/>
	
		<linearGradient id="SVGID_00000061439661882063888820000006669092622746468799_" gradientUnits="userSpaceOnUse" x1="-826.1127" y1="1290.9686" x2="-816.5051" y2="1288.6924" gradientTransform="matrix(0.9356 0 0 -0.9356 773.5818 1226.7881)">
		<stop  offset="0" style="stop-color:#55C2F0"/>
		<stop  offset="0.2123" style="stop-color:#2CADE8"/>
		<stop  offset="0.4084" style="stop-color:#0C9CE1"/>
		<stop  offset="0.5169" style="stop-color:#0096DF"/>
		<stop  offset="1" style="stop-color:#005BAB"/>
	</linearGradient>
	<path style="display:inline;fill:url(#SVGID_00000061439661882063888820000006669092622746468799_);" d="M7,20.2
		c-0.4,0.1-0.8,0.2-1.1,0.4c1,0.2,1.9,0.4,2.5,0.4c0.4-0.1,0.9-0.1,1.3-0.2C8.8,20.6,7.9,20.4,7,20.2z"/>
	
		<linearGradient id="SVGID_00000156557259234609575460000005248164816758447023_" gradientUnits="userSpaceOnUse" x1="643.7183" y1="1096.7836" x2="647.9512" y2="1094.9746" gradientTransform="matrix(1.8556 0 0 -1.8556 -1189.5411 2051.9688)">
		<stop  offset="0" style="stop-color:#55C2F0"/>
		<stop  offset="0.2123" style="stop-color:#2CADE8"/>
		<stop  offset="0.4084" style="stop-color:#0C9CE1"/>
		<stop  offset="0.5169" style="stop-color:#0096DF"/>
		<stop  offset="1" style="stop-color:#005BAB"/>
	</linearGradient>
	<path style="display:inline;fill:url(#SVGID_00000156557259234609575460000005248164816758447023_);" d="M9.9,18.5
		c-1.1-0.5-2-1-2.7-1.3c-0.4,0.2-0.8,0.4-1.2,0.6c0.9,0.4,1.9,0.8,2.9,1.2C9.2,18.8,9.6,18.6,9.9,18.5z"/>
	
		<linearGradient id="SVGID_00000098932842124734962830000018075261865193665185_" gradientUnits="userSpaceOnUse" x1="643.7259" y1="1096.8035" x2="647.9616" y2="1094.9932" gradientTransform="matrix(1.8556 0 0 -1.8556 -1189.5411 2051.9688)">
		<stop  offset="0" style="stop-color:#55C2F0"/>
		<stop  offset="0.2123" style="stop-color:#2CADE8"/>
		<stop  offset="0.4084" style="stop-color:#0C9CE1"/>
		<stop  offset="0.5169" style="stop-color:#0096DF"/>
		<stop  offset="1" style="stop-color:#005BAB"/>
	</linearGradient>
	<path style="display:inline;fill:url(#SVGID_00000098932842124734962830000018075261865193665185_);" d="M9.5,19.2
		c0.9,0.3,1.9,0.7,2.7,0.9c0.3-0.1,0.7-0.2,1-0.3c-0.8-0.2-1.8-0.6-2.7-1C10.2,18.9,9.9,19,9.5,19.2z"/>
	
		<linearGradient id="SVGID_00000000940113887391555380000010781620700018100113_" gradientUnits="userSpaceOnUse" x1="641.7057" y1="1097.3884" x2="646.2811" y2="1095.8328" gradientTransform="matrix(1.8556 1.460000e-02 1.460000e-02 -1.8556 -1204.0098 2044.7632)">
		<stop  offset="0" style="stop-color:#55C2F0"/>
		<stop  offset="0.2123" style="stop-color:#2CADE8"/>
		<stop  offset="0.4084" style="stop-color:#0C9CE1"/>
		<stop  offset="0.5169" style="stop-color:#0096DF"/>
		<stop  offset="1" style="stop-color:#005BAB"/>
	</linearGradient>
	<path style="display:inline;fill:url(#SVGID_00000000940113887391555380000010781620700018100113_);" d="M8.2,19.2
		c-1.2-0.4-2.3-0.8-3.1-1.1c-0.4,0.2-0.9,0.4-1.3,0.5c0.8,0.3,2,0.7,3.2,1C7.4,19.5,7.8,19.4,8.2,19.2z"/>
	
		<linearGradient id="SVGID_00000026854417545607196810000003067039909366772912_" gradientUnits="userSpaceOnUse" x1="641.7283" y1="1097.4596" x2="646.306" y2="1095.9032" gradientTransform="matrix(1.8556 1.460000e-02 1.460000e-02 -1.8556 -1204.0098 2044.7632)">
		<stop  offset="0" style="stop-color:#55C2F0"/>
		<stop  offset="0.2123" style="stop-color:#2CADE8"/>
		<stop  offset="0.4084" style="stop-color:#0C9CE1"/>
		<stop  offset="0.5169" style="stop-color:#0096DF"/>
		<stop  offset="1" style="stop-color:#005BAB"/>
	</linearGradient>
	<path style="display:inline;fill:url(#SVGID_00000026854417545607196810000003067039909366772912_);" d="M7.8,19.9
		c1,0.3,1.9,0.5,2.8,0.6c0.3-0.1,0.7-0.2,1-0.3c-0.8-0.2-1.8-0.5-2.7-0.8C8.5,19.6,8.2,19.8,7.8,19.9z"/>
	
		<linearGradient id="SVGID_00000041297601495897521330000007818082266418926757_" gradientUnits="userSpaceOnUse" x1="-667.001" y1="1286.1312" x2="-674.5505" y2="1284.6886" gradientTransform="matrix(0.914 0 0 -0.914 638.7646 1194.0513)">
		<stop  offset="0" style="stop-color:#55C2F0"/>
		<stop  offset="0.2123" style="stop-color:#2CADE8"/>
		<stop  offset="0.4084" style="stop-color:#0C9CE1"/>
		<stop  offset="0.5169" style="stop-color:#0096DF"/>
		<stop  offset="1" style="stop-color:#005BAB"/>
	</linearGradient>
	<path style="display:inline;fill:url(#SVGID_00000041297601495897521330000007818082266418926757_);" d="M23.9,20
		c1-0.1,2.7-0.3,4.5-0.9c-0.3-0.3-0.7-0.6-1-0.9c-0.9,0.3-2.6,1-4.4,1.2C23.3,19.6,23.6,19.8,23.9,20z"/>
	
		<linearGradient id="SVGID_00000124154410821802408810000005279311655443433147_" gradientUnits="userSpaceOnUse" x1="-668.9398" y1="1287.9131" x2="-675.4725" y2="1285.8636" gradientTransform="matrix(0.914 0 0 -0.914 638.7646 1194.0513)">
		<stop  offset="0" style="stop-color:#55C2F0"/>
		<stop  offset="0.2123" style="stop-color:#2CADE8"/>
		<stop  offset="0.4084" style="stop-color:#0C9CE1"/>
		<stop  offset="0.5169" style="stop-color:#0096DF"/>
		<stop  offset="1" style="stop-color:#005BAB"/>
	</linearGradient>
	<path style="display:inline;fill:url(#SVGID_00000124154410821802408810000005279311655443433147_);" d="M22.6,19.2
		c0.8-0.2,2.5-0.6,4.3-1.5c-0.4-0.4-0.7-0.8-1-1.2c-0.8,0.5-2.5,1.5-4.1,2C22,18.7,22.3,18.9,22.6,19.2z"/>
	
		<linearGradient id="SVGID_00000049187901342258586600000003534671077385213056_" gradientUnits="userSpaceOnUse" x1="-666.9785" y1="1284.4713" x2="-674.1974" y2="1284.2825" gradientTransform="matrix(0.914 0 0 -0.914 639.6826 1194.0513)">
		<stop  offset="0" style="stop-color:#55C2F0"/>
		<stop  offset="0.2123" style="stop-color:#2CADE8"/>
		<stop  offset="0.4084" style="stop-color:#0C9CE1"/>
		<stop  offset="0.5169" style="stop-color:#0096DF"/>
		<stop  offset="1" style="stop-color:#005BAB"/>
	</linearGradient>
	<path style="display:inline;fill:url(#SVGID_00000049187901342258586600000003534671077385213056_);" d="M29.6,20.1
		c-0.3-0.2-0.5-0.4-0.8-0.6c-0.5,0.2-2.2,0.7-4.4,0.8c0.3,0.2,0.7,0.3,1,0.5C26.4,20.8,27.8,20.7,29.6,20.1
		C29.6,20.2,29.7,20.1,29.6,20.1C29.7,20.1,29.6,20.1,29.6,20.1z"/>
	
		<linearGradient id="SVGID_00000038402115339988887420000004090463605325770172_" gradientUnits="userSpaceOnUse" x1="-817.9205" y1="1295.9116" x2="-812.2947" y2="1290.9846" gradientTransform="matrix(0.9356 0 0 -0.9356 775.6013 1226.5508)">
		<stop  offset="0" style="stop-color:#55C2F0"/>
		<stop  offset="0.2123" style="stop-color:#2CADE8"/>
		<stop  offset="0.4084" style="stop-color:#0C9CE1"/>
		<stop  offset="0.5169" style="stop-color:#0096DF"/>
		<stop  offset="1" style="stop-color:#005BAB"/>
	</linearGradient>
	<path style="display:inline;fill:url(#SVGID_00000038402115339988887420000004090463605325770172_);" d="M12,14.1
		c-0.6,0.5-1.2,0.9-1.8,1.3c1,0.9,3.2,2.6,4.9,3.5c0.4-0.2,0.7-0.4,1-0.6C15.1,17.4,12.9,15.1,12,14.1z"/>
	
		<linearGradient id="SVGID_00000049202865328012763910000001324801381467254151_" gradientUnits="userSpaceOnUse" x1="-1773.235" y1="-572.5947" x2="-1772.8446" y2="-583.9158" gradientTransform="matrix(1.0404 0 0 -1.0404 1862.923 -590.2475)">
		<stop  offset="0" style="stop-color:#55C2F0"/>
		<stop  offset="0.2123" style="stop-color:#2CADE8"/>
		<stop  offset="0.4084" style="stop-color:#0C9CE1"/>
		<stop  offset="0.5169" style="stop-color:#0096DF"/>
		<stop  offset="1" style="stop-color:#005BAB"/>
	</linearGradient>
	<path style="display:inline;fill:url(#SVGID_00000049202865328012763910000001324801381467254151_);" d="M16.4,10
		c0.5,2.3,1.2,5.8,1.5,7.2c0.6-0.5,1-1,1.3-1.3C20.1,11,19.9,6,19.9,6c0,0,0-0.3-0.1-0.4c-0.1,0-0.2,0.1-0.2,0.1S17.7,8.6,16.4,10z"
		/>
</g>
<g id="Chungbuk" class="st0">
	<path class="st34" d="M22.3,4.2c0.1,0,0.2,0.1,0.3,0.1c0,0,0.1,0.1,0.1,0c0,0.1,0.1,0.1,0.2,0.1c0,0,0,0,0,0h0v0.1c0,0,0,0,0.1,0
		v0.1c0.1,0,0.2,0.1,0.2,0.1c0,0,0,0.1,0.1,0.1c0,0,0,0.1,0,0.1c0,0.1,0.1,0.1,0,0.1c0,0,0,0.1,0,0.1c0,0.1,0,0.1,0.1,0.2
		c0,0.1,0.1,0.1,0.1,0.2c0.1,0.1,0,0.2,0.1,0.3v0.3c-0.1,0,0,0.1,0,0.1c0,0-0.1,0.1,0,0.1c0,0,0,0,0,0c0,0,0,0.1,0,0.1v0.2
		c0,0,0,0.1-0.1,0.1c0,0,0,0,0,0c0,0-0.1,0-0.1,0.1h0c0,0.1,0,0.1-0.1,0.2c0,0,0,0.1-0.1,0.1c0,0,0,0,0,0.1c0,0-0.1,0.1-0.1,0.1
		c-0.1,0-0.1,0.1-0.1,0.2c0,0.1-0.1,0,0,0.1c0,0-0.1,0-0.1,0c-0.1,0-0.1,0.1-0.2,0.1c0,0,0,0-0.1,0c-0.1,0.1-0.2,0.2-0.3,0.2
		c-0.1,0-0.2,0-0.2,0.1c-0.1,0-0.1,0-0.2,0.1c0,0-0.1,0-0.1,0c-0.2,0.1-0.5,0-0.7,0c0,0-0.2,0-0.1-0.1l-0.1,0V7.8c0,0-0.1,0-0.1,0.1
		c0,0,0,0-0.1,0c0,0-0.1,0-0.1,0.1c0,0,0,0,0,0c0,0,0,0,0-0.1c0,0-0.1,0.1-0.1,0c0,0,0,0,0,0c0,0,0,0,0,0.1l-0.1,0.1h-0.1
		c0.1,0,0-0.1,0-0.2c0,0,0,0,0,0V7.6l-0.1-0.1c0,0,0,0.1,0,0c0,0,0,0,0,0c0,0,0-0.1,0-0.1l0,0c0.1,0,0-0.1,0-0.1
		c0,0-0.1-0.1-0.1-0.1c0,0,0,0,0,0c0,0,0-0.1,0-0.1V6.9c0,0,0-0.1,0-0.1c0-0.1-0.1-0.1,0-0.1c0,0,0-0.1,0-0.1c0,0,0-0.1,0-0.1
		c0,0,0-0.1,0-0.1c0-0.1,0-0.2,0-0.3c0-0.1,0-0.1,0-0.2c0,0,0-0.1,0-0.1c0,0,0,0,0,0v0c0,0,0-0.1,0.1-0.1l0,0c0,0,0,0,0,0v0
		c0,0,0,0,0,0c0-0.1,0,0,0-0.1c0,0,0-0.1,0-0.1c0,0,0-0.1,0-0.1c0-0.1,0.1-0.1,0.1-0.2c0,0,0,0,0,0c0,0,0-0.1,0-0.1c0,0,0,0,0-0.1
		c0,0,0.1,0,0-0.1c0,0,0,0,0,0c0,0,0.1,0,0.1-0.1c0.1,0,0.1-0.1,0.1-0.1c0,0,0.1-0.1,0-0.1c0,0,0-0.1,0-0.1c0.1-0.1,0.2-0.2,0.3-0.2
		c0.1,0,0.2,0,0.3-0.1c0,0,0.1,0,0.1,0c0.1-0.1,0.2-0.1,0.2-0.1c0,0,0.1,0,0.1,0C22,4.1,22.2,4.1,22.3,4.2z"/>
	<ellipse class="st35" cx="19.2" cy="23.4" rx="10" ry="0.7"/>
	<path class="st36" d="M15.7,6.9c0.6,0.1,1.2,0.3,1.7,0.7c0.1,0,0.2,0,0.3-0.1c-0.1-0.2-0.2-0.3-0.4-0.4c-0.4-0.2-0.8-0.2-1.1-0.5
		c-0.1,0.1-0.2,0.1-0.3,0.1c-0.2,0-0.4-0.2-0.6-0.2c-0.1,0-0.1,0.1-0.1,0.1c0,0,0,0.1,0,0.1c0,0.1,0,0.1,0,0.2L15.7,6.9z"/>
	<path class="st36" d="M23,17.2l0.2,0.2c0.1,0.1,0.1,0.2,0,0.3c0.3,0.4,0.9,1.8,1.2,2.2l0-0.1c0-0.4-0.2-0.4-0.2-0.8
		c-0.1-0.1-0.1-0.3-0.2-0.4c-0.1-0.3-0.2-0.5-0.4-0.8c0,0-0.1,0-0.1-0.1c0-0.3-0.2-0.8-0.4-1c-0.1-0.2-0.2-0.4-0.3-0.6
		c-0.2-0.5-0.8-1.3-0.8-1.6c-0.3-0.2-0.4-0.7-0.6-0.9c-0.1-0.2-0.3-0.4-0.4-0.6c-0.1-0.1-0.2-0.2-0.3-0.3c-0.1-0.1-0.1-0.2-0.1-0.2
		c-0.1,0-0.1,0-0.2,0l-0.2-0.4c-0.1-0.1-0.2-0.3-0.3-0.3c-0.1-0.1-0.1,0.1-0.2,0c-0.1-0.1-0.1-0.3-0.2-0.4c-0.1,0-0.1,0.1-0.1,0
		c0-0.1,0-0.1,0-0.2c-0.1,0-0.3-0.1-0.4-0.2c-0.1,0-0.2-0.2-0.3-0.1c-0.1,0.1-0.1-0.1-0.2-0.2c0-0.1,0-0.1-0.1-0.2
		c-0.1,0,0-0.1-0.1-0.1c0-0.1-0.1,0-0.1,0c-0.1-0.1,0-0.2,0-0.2c0,0,0-0.1,0-0.1c-0.1,0-0.1,0-0.2,0.1c-0.2,0-0.3-0.2-0.4-0.3
		c-0.1,0-0.1,0-0.2,0c-0.1,0-0.2,0-0.2-0.1c0-0.1-0.1-0.2-0.2-0.3c-0.1-0.1-0.2-0.1-0.3-0.1c-0.1-0.1-0.1-0.1-0.2-0.2
		c-0.1,0-0.2,0-0.3-0.1c-0.2-0.1-0.5-0.1-0.7-0.2c-0.1,0-0.1,0-0.1-0.1c-0.1,0-0.1,0.1-0.2,0.1C15.2,9.1,15,9,15,8.9l0,0.2l-0.2,0
		c-0.1,0-0.2,0.1-0.3,0.1c-0.1,0-0.2-0.1-0.3-0.1c-0.1,0.1-0.2,0.2-0.3,0.2c0,0-0.1,0-0.1,0c-0.1,0-0.1,0.1-0.2,0
		c0,0.1-0.1-0.1-0.1,0c0,0.1-0.2,0.2-0.2,0.1c0,0.1,0,0.2-0.1,0.3c-0.1,0-0.1-0.1-0.1-0.1c-0.2,0-0.3,0.1-0.5,0.1l-0.1,0.1
		c-0.1,0-0.1,0.2-0.1,0.3l0,0c0,0-0.1,0-0.1,0c-0.1,0-0.1,0.1-0.2,0.1c0,0-0.1,0.1-0.1,0.1c-0.1,0-0.1,0.1-0.1,0.1
		c0,0-0.1,0.1-0.1,0.2c-0.3,0.4-0.5,0.2-0.5,0.2c0-0.1,0.2-0.2,0.3-0.3c0.1-0.1,0.2-0.2,0.3-0.3c0,0,0.1-0.1,0.1-0.2
		c0.1,0,0.1-0.1,0.2-0.1c0,0,0,0,0.1-0.1c0.2-0.2,0.5-0.3,0.5-0.4c0.1,0,0.1,0,0.2,0l0.1,0c0.1-0.1,0.2-0.2,0.3-0.2
		c0,0,0.1,0.1,0.1,0c0.1,0,0.2,0,0.3-0.1c0.1-0.1,0.2-0.1,0.3,0c0,0,0-0.1,0.1-0.1c0.1,0,0.1-0.1,0.2,0c0.1,0.1,0.2,0,0.2,0.1
		c0.1,0,0.1,0,0.2,0c0,0,0-0.1,0.1-0.1c0.2,0,0.5-0.1,0.6,0.1c0.3-0.1,0.7-0.1,1,0.1C16.7,9,17,9.2,17.3,9.3c0.1,0,0.2,0.1,0.3,0.1
		c0.1,0.1,0.1,0.2,0.2,0.3c0,0,0.1,0,0.1,0c0.7,0.4,1.3,0.9,1.9,1.3c0.7,0.6,1.9,2.2,2.4,2.9c0.1,0,0.1,0.1,0.2,0.2
		c0,0,0.1,0.1,0.1,0.2c0.1,0.1,0.5,0.7,0.6,1c0,0.1,0.1,0.1,0.2,0.2C23,14.8,22.4,14,22,13.2c-0.4-0.6-0.8-1.3-1.3-1.9
		c-0.1-0.1-0.2-0.2-0.3-0.3c-0.1-0.1-0.1-0.3-0.3-0.3c-0.1-0.3-0.3-0.5-0.6-0.7l-0.1,0c0,0,0,0,0,0c0,0.1,0,0.1,0,0.1
		c-0.1,0-0.1-0.1-0.2-0.2c-0.2-0.2-0.5-0.4-0.7-0.6c-0.1-0.1-0.1-0.2-0.2-0.2C18.1,9,17.9,9,17.7,8.8c0-0.1-0.2-0.1-0.2-0.2
		c-0.1,0-0.1,0-0.2,0c-0.3,0-0.5-0.3-0.7-0.4c-0.1,0-0.2-0.1-0.3-0.1c-0.1-0.1-0.3,0-0.4-0.1c-0.1,0-0.2-0.1-0.3-0.1l0,0
		c-0.1,0.1-0.3,0.1-0.4,0c-0.1,0-0.3-0.1-0.4,0.1c-0.1,0-0.2,0-0.3-0.1c-0.3,0-0.5,0.1-0.9,0.2c-0.2,0.1-0.4,0.1-0.6,0.2
		c-0.1,0.1-0.2,0.1-0.3,0.2c-0.1,0-0.2,0.1-0.2,0c0-0.1,0.1-0.1,0.1-0.2c0.1-0.1,0.3-0.1,0.4-0.3c0.2,0,0.3-0.2,0.4-0.2c0,0,0,0,0,0
		c0,0,0,0,0.1,0c0.1,0,0.2,0,0.3-0.1c0.9-0.2,1.6-0.2,2.3-0.1c0.3,0,0.5,0.1,0.8,0.2c0.7,0.3,1.4,0.7,2,1.3c0.2,0.2,0.5,0.5,0.6,0.5
		c0,0-0.1-0.2-0.1-0.3c0-0.1-0.1-0.1-0.1-0.2C19,9.3,19,9.1,19,9.2c-0.3-0.3-0.6-0.5-0.9-0.8c-0.5-0.4-1-0.7-1.6-0.9
		c-0.3,0-0.5-0.1-0.8-0.1c-0.1,0-0.2-0.1-0.3-0.2c-0.2,0-0.3,0-0.5,0.1c-0.2-0.1-0.4,0-0.6,0c0,0-0.1,0.1-0.1,0.1
		c-0.1,0-0.1,0-0.2,0c-0.1,0-0.2,0-0.3,0c0,0.1-0.2,0.1-0.3,0.2c0,0-0.1,0.1-0.1,0.1c-0.2,0-0.3,0.1-0.4,0.2c-0.1,0-0.2,0-0.2-0.1
		c0-0.1,0.1-0.1,0.1-0.1c0,0,0,0,0.1,0c0,0,0,0,0,0c0,0,0.2-0.1,0.2-0.1c0.1,0,0.3-0.1,0.4,0c0-0.1,0.1-0.1,0.2-0.2
		c0.1,0,0.2,0,0.3-0.1c0.2,0,0.4,0,0.6,0c0,0,0.1,0,0.2,0c0,0,0.1,0,0.1-0.1c0.1-0.1,0-0.2,0-0.3c-0.1-0.1-0.2,0-0.3,0
		c0,0-0.1-0.1-0.1-0.1c-0.3,0-0.6,0.1-0.9,0.2c0,0-0.1,0.1-0.1,0c-0.1-0.1-0.2,0.1-0.3,0.1c0,0-0.1,0-0.1,0
		c-0.2,0.2-0.5,0.2-0.8,0.4l0,0c-0.1,0-0.1-0.1-0.1-0.1l0,0c-0.2,0.2-0.6,0.2-0.8,0.3L11,7.3c-0.2,0.1-0.1,0.4-0.3,0.4h-0.5
		c-0.1,0-0.1,0.1-0.1,0.1c0,0.1,0,0.1,0,0.1L9.8,8.1C9.6,8.2,9.5,8.3,9.4,8.4C9.1,8.6,8.8,8.9,8.5,9.1C8.5,9.3,8.2,9.4,8.1,9.5
		C8,9.5,8,9.6,7.9,9.7c0,0,0,0.2-0.1,0.2C7.8,9.9,7.7,10,7.7,10.1c0,0-0.1,0.1-0.1,0.1l-1.3,1.7c0,0.6-0.5,1-0.7,1.5
		c-0.4,0.4-0.6,1-0.8,1.5l-0.6,1.7c0,0.5-0.1,0.9-0.1,1.4c0,0.1,0.1,0.4,0.1,0.5c0.1,0.3,0.3,0.5,0.5,0.8c0.4,0.4,0.8,0.6,1.4,0.5
		c0.3-0.1,0.6-0.2,0.8-0.4c0.2-0.1,0.5-0.2,0.7-0.4c0.1-0.1,0.2-0.3,0.3-0.5c0.1-0.5,0.4-1,0.6-1.5c0.2-0.4,0.5-0.8,0.7-1.2
		c0-0.1,0-0.2,0-0.3c0.1-0.2,0.3-0.4,0.4-0.6c0-0.1,0.1-0.2,0.2-0.3c0,0,0,0,0,0c0,0,0,0,0.1,0c0-0.1,0-0.3,0.1-0.4
		c0.2-0.1,0.3-0.3,0.4-0.4c0.1-0.2,0.3-0.4,0.4-0.7c0.2-0.1,0.2-0.3,0.3-0.4c0.4-0.4,0.9-0.8,1.3-1.2c0.1-0.1,0.2-0.1,0.3-0.2
		c0.1-0.1,0.2-0.2,0.4-0.3c0.7-0.4,2.1-1,4-0.2C18.9,11.6,20.9,13.5,23,17.2z"/>
	<path class="st36" d="M21.8,12.1c0.1,0.1,0.2,0.2,0.2,0.3c0,0,0,0.1,0,0.2c-0.1,0-0.2-0.2-0.2-0.3c-0.2-0.2-0.3-0.5-0.5-0.7
		c-0.3-0.5-0.7-1-1.1-1.4l0-0.1l-0.9-1c-0.4-0.4-0.9-0.8-1.3-1.2c-0.1-0.1-0.2-0.1-0.3-0.2c0,0,0.1-0.1,0.1-0.1c0.1,0,0.2-0.1,0.3,0
		C19.2,8.5,21.1,10.6,21.8,12.1z"/>
	<path class="st36" d="M26.9,16.8c0.1,0.1,0.2,0.3,0.3,0.4c0,0.1,0.2,0.2,0.2,0.3c0.1,0.1,0.2,0.3,0.2,0.4c0.1,0.2,0.2,0.4,0.3,0.5
		c0,0,0,0.1,0,0.1c0,0.1,0.2,0.2,0.2,0.3c0,0,0,0.1,0,0.1c0,0,0,0.1,0,0.1c0.2,0.3,0.3,0.6,0.4,0.9c0,0.1,0.1,0.2,0.1,0.3
		c0.1,0,0.1,0.1,0.1,0.2c0,0,0,0.1,0.1,0c0-0.1-0.1-0.3-0.1-0.4c0,0-0.1-0.1-0.1-0.1c0-0.1-0.1-0.2-0.1-0.4c-0.1-0.1,0-0.3-0.2-0.4
		c0,0,0-0.1,0-0.1c0-0.1,0-0.1-0.1-0.2c0,0,0-0.2,0-0.3c-0.1-0.1-0.1-0.2-0.2-0.3c0-0.1,0-0.2-0.1-0.2c0-0.1-0.1-0.1-0.1-0.2
		c-0.1-0.1-0.1-0.2-0.2-0.3c0,0,0-0.1,0-0.1c-0.1-0.1-0.2-0.3-0.2-0.4c-0.1-0.1-0.2-0.2-0.2-0.3c0-0.1,0-0.2-0.1-0.2
		c-0.1,0-0.1-0.1-0.2-0.2l0-0.1c0,0-0.1-0.1-0.1-0.1c0,0,0-0.1,0-0.1c-0.2-0.1-0.2-0.4-0.4-0.5c0,0,0-0.1,0-0.1c0-0.1,0-0.1-0.1-0.1
		c0,0-0.1,0-0.1,0c0,0,0-0.1-0.1-0.1c0,0,0,0,0-0.1c-0.1-0.1-0.1-0.2-0.2-0.2c0,0,0,0-0.1,0c-0.1,0-0.2-0.1-0.1-0.2
		c0-0.1-0.1,0-0.1,0c-0.1,0,0-0.1,0-0.1c0,0,0-0.1-0.1-0.1c0,0,0,0-0.1,0c-0.1,0-0.2-0.2-0.3-0.2c0,0-0.1,0-0.1,0c0,0-0.1,0-0.1,0
		c-0.1,0-0.1,0-0.2-0.1c0,0-0.1,0-0.1-0.1c-0.1-0.1-0.3-0.1-0.4-0.2s-0.3,0-0.4-0.2c0,0.1,0,0-0.1,0c0,0-0.2,0-0.2-0.1h-0.1l0,0.1
		l-0.3,0c0,0,0,0,0,0c-0.2-0.3,0.2-0.1,0.2-0.1c0,0,0-0.1,0-0.1c0,0,0,0,0-0.1c0.1,0.1,0.3,0,0.4,0.1c0.1,0,0.1,0,0.2,0
		c0.1,0,0.2,0,0.3,0.1c0.2,0,0.3,0.2,0.5,0.2l0.5,0.3c0.2,0.2,0.5,0.3,0.7,0.5c0,0,0,0,0,0.1c0.2,0.1,0.3,0.2,0.4,0.4
		c0.1,0.2,0.4,0.3,0.6,0.6c0.1,0.2,0.2,0.3,0.3,0.4c0.1,0.1,0.1,0.2,0.2,0.3c0.1,0.1,0.2,0.1,0.2,0.2c0,0,0.1,0,0.1,0.1
		c0,0.1,0.1,0.2,0.2,0.3c0.2,0.3,0.5,0.8,0.5,0.8c0.1,0-0.1-0.4-0.2-0.6c-0.1-0.3-0.3-0.5-0.4-0.8l0-0.1c0,0,0-0.1-0.1-0.1
		c-0.1-0.2-0.2-0.4-0.4-0.6c-0.1-0.2-0.2-0.3-0.2-0.5c-0.1-0.1-0.1-0.3-0.3-0.4c0-0.1-0.1-0.1-0.1-0.2c-0.1,0-0.1-0.1-0.2-0.1
		c0,0,0,0.1,0,0.1c-0.1-0.1-0.2-0.2-0.4-0.3l0,0c-0.1,0-0.2-0.1-0.2-0.2c0,0,0-0.1,0,0c-0.1-0.2-0.4-0.2-0.5-0.4
		c-0.1,0-0.1-0.1-0.1-0.1c-0.2,0-0.3-0.2-0.5-0.3c-0.1-0.1-0.2,0-0.3,0c0,0-0.1-0.1-0.1-0.1c-0.1,0-0.2,0-0.2,0c0,0-0.1-0.1-0.1,0
		c0,0-0.1,0-0.1,0c0,0-0.1,0-0.1,0l-0.2,0c-0.3,0-0.6,0-0.8,0.1c-0.1,0-0.2,0.1-0.4,0.1c0,0,0,0-0.1,0c0,0-0.1-0.1-0.1-0.1
		c0-0.1,0.1-0.1,0.2-0.1c0.4-0.2,1.1-0.2,1.3-0.2c0.4,0,0.7,0.1,1,0.2c0.1,0.1,0.2,0.1,0.3,0.2c0.3,0.1,0.6,0.4,0.9,0.6
		c0.1,0.1,0.2,0.3,0.4,0.4h0c0,0,0-0.1,0-0.2c0,0,0-0.1-0.1,0c0,0-0.1,0-0.1,0c-0.1-0.1-0.2-0.2-0.3-0.3c-0.1-0.1-0.2-0.2-0.4-0.3
		c0-0.1-0.1-0.2-0.2-0.1c-0.2-0.2-0.4-0.3-0.6-0.4l0-0.1l-0.2-0.1c-0.2,0-0.3-0.1-0.5-0.1c-0.1-0.1-0.2-0.1-0.4-0.1
		c-0.1,0-0.2,0-0.3,0c-0.1,0-0.1,0-0.2-0.1c0,0,0,0.1,0,0.1c-0.1,0-0.2,0-0.4,0c0,0,0,0,0,0c0,0,0,0-0.1,0c0,0-0.1,0-0.1,0.1
		c-0.1,0-0.1-0.1-0.1-0.1c0.1,0,0.3-0.1,0.4-0.1c0.1-0.1,0.2,0,0.3-0.1c0.1,0.1,0.2,0,0.3,0c0.1,0,0.2,0,0.4,0c0,0,0,0,0,0
		c0.1,0,0.2,0,0.3,0l0,0l0.3,0.1c0.1,0,0.1,0,0.2,0.1c0.1,0.1,0.2,0,0.3,0.1c0.2,0.1,0.4,0.3,0.6,0.3V13c0-0.1-0.1-0.1-0.2-0.2
		c-0.1,0-0.1-0.1-0.2-0.1c0,0-0.1-0.1-0.1-0.1c-0.1-0.1-0.1-0.1-0.2-0.1c-0.1,0.1-0.1,0-0.2,0c-0.1-0.1-0.2-0.1-0.3-0.1
		c-0.1,0-0.1,0-0.1,0c-0.1,0-0.1,0-0.2,0c0,0-0.1,0-0.1,0c0,0.1-0.1,0-0.1,0l0,0c-0.1,0-0.3-0.1-0.3,0c-0.3,0-0.9,0.1-1.1,0.2
		c0,0,0,0,0,0l-0.1,0.1c0,0,0,0-0.1,0h-0.3c-0.1,0-0.1,0.1-0.1,0.2c-0.1,0.1-0.2,0.1-0.3,0.1c-0.1,0-0.2,0-0.3,0c0,0,0,0.1-0.1,0.1
		c0,0,0,0,0,0c-0.1,0-0.2,0-0.2,0.1c-0.1,0-0.1,0.1-0.1,0.1c-0.1,0.1-0.3,0.1-0.4,0.2c-0.1,0.1-0.2,0.2-0.4,0.3c0,0-0.1,0-0.1,0
		c0,0,0,0,0,0v0c0,0,0,0.1-0.1,0.1c0,0,0,0,0,0c0,0,0,0-0.1,0c-0.1,0,0,0.1,0,0.1c-0.1,0.1-0.3,0.2-0.4,0.3
		c-0.2,0.1-0.3,0.2-0.5,0.4c0,0-0.1,0.1-0.1,0.1c-0.1,0.1-0.1,0.2-0.1,0.2c-0.3,0.4-0.7,0.7-1,1.1c0,0.1,0,0.1-0.1,0.2
		c0,0.1-0.2,0.1-0.2,0.2c-0.2,0.2-0.3,0.5-0.5,0.7c-0.2,0.2-0.3,0.5-0.4,0.7c0,0-0.1,0.1-0.1,0.1c-0.1,0.1-0.2,0.2-0.2,0.3
		c-0.1,0.1-0.1,0.2-0.2,0.3c-0.1,0.1-0.1,0.2-0.2,0.3c-0.1,0.1-0.1,0.2-0.1,0.3c-0.1,0.1-0.1,0.2-0.1,0.3c-0.1,0.1,0,0.2,0,0.3
		c0,0,0,0.1,0,0.2l0,0c-0.1,0.2,0,0.4,0.1,0.5c0,0.1,0,0.1,0.1,0.2c0.1,0.2,0.3,0.4,0.6,0.6c0.1,0.1,0.3,0.1,0.4,0.2
		c0,0.1,0.1,0,0.1,0.1c0,0,0.1,0,0.1,0c0.2,0,0.2-0.2,0.4-0.2c0,0,0.1,0,0.1,0c0,0,0.1,0,0.2,0.1c0,0,0,0,0,0v0
		c0.1-0.1,0.2-0.1,0.3-0.2c0.2-0.1,0.3-0.3,0.4-0.5v-0.1c0,0,0-0.1,0-0.1c0,0,0.1-0.1,0.1-0.1c0.2-0.1,0.2-0.3,0.4-0.4
		c0.1,0,0.1-0.1,0.1,0c0-0.1,0-0.2,0.1-0.3c0-0.1,0.1-0.2,0.1-0.3c0-0.1,0.1-0.1,0.1-0.2c0.1-0.1,0.2-0.3,0.3-0.5
		c0.2-0.4,0.5-0.9,0.8-1.3c0.1-0.1,0.2-0.2,0.3-0.4c0.4-0.6,0.9-1.2,1.5-1.6c0.2-0.1,0.4-0.3,0.6-0.4c0.1-0.1,0.3-0.1,0.4-0.2
		c0.1-0.1,0.2-0.1,0.4-0.1c0.2,0,0.4-0.2,0.6-0.2c0,0,0.1,0,0.1,0.1c0,0,0.1,0,0.1,0c0.1,0,0.2,0.1,0.3,0c0,0,0,0,0,0
		c0,0,0.1,0,0.2,0l0,0c0,0,0.1,0,0.1,0c0,0,0.1,0,0.1,0c0,0,0,0,0,0.1c0.1,0,0.2,0,0.3,0c0.1,0.1,0.2,0,0.3,0.1
		c0.1,0.1,0.3,0.2,0.4,0.3c0.1,0.1,0.3,0,0.4,0.2C26,15.6,26.6,16.4,26.9,16.8z"/>
	<path class="st36" d="M25.4,13.3c0.1,0.1,0.1,0.1,0.2,0.2c0.3,0.4,0.7,0.8,1.1,1.1c0.1,0.2,0.2,0.3,0.3,0.4c0.1,0,0.1,0.1,0.1,0.1
		c0,0.1,0.1,0.2,0.1,0.3c0,0,0.1,0,0.1,0.1c0,0,0.1,0,0.1,0c0,0.1,0,0.1,0,0.2c0.1,0.1,0.2,0.3,0.3,0.4c0,0.1,0.1,0.3,0.2,0.2
		c0.1,0,0-0.1-0.1-0.1c-0.1-0.1-0.1-0.3-0.2-0.4c0-0.1-0.1-0.2-0.2-0.3c0,0,0-0.1,0-0.1c-0.1-0.1-0.1-0.1-0.2-0.2
		c0-0.1-0.1-0.1-0.1-0.2c0,0-0.1-0.1-0.1-0.1c-0.4-0.6-0.8-1.1-1.6-1.7h0l0,0c-0.1,0-0.1,0-0.2,0C25.3,13.2,25.3,13.3,25.4,13.3z"/>
	<path class="st36" d="M20.6,18.4c0-0.1-0.3-0.6-0.4-0.7c0,0,0-0.1-0.1-0.1c0-0.1-0.1-0.1-0.1-0.2c0,0,0-0.1,0-0.1
		c0,0-0.1-0.1-0.1-0.1c0,0-0.1-0.1-0.1-0.1c0,0,0,0,0,0c0-0.1-0.1-0.1,0-0.1c0,0-0.5-0.8-1.2-1.2c0,0-0.2-0.1-0.2-0.1
		c0-0.1-0.2-0.1-0.3-0.2c-0.1-0.1-0.3-0.2-0.5-0.3l-0.1-0.1c0,0-0.1,0-0.1,0c0,0,0,0-0.1,0c-0.1,0-0.1,0-0.2,0C17,15,17,15,16.9,15
		c0,0,0,0,0,0c-0.1,0-0.2-0.1-0.2-0.1c0,0,0,0-0.1,0c0,0.1-0.1,0-0.1,0c0,0-0.1,0-0.1,0c-0.1,0-0.2,0-0.3,0c-0.1,0-0.2,0-0.3,0
		c-0.1,0-0.1,0-0.2,0c-0.1,0-0.3,0-0.4,0.1c0,0-0.1,0-0.1-0.1c0,0.1-0.1,0.1-0.1,0.1c-0.1,0-0.1,0-0.2,0c0,0-0.1,0-0.1,0
		c0,0.1-0.1,0.1-0.1,0.2c-0.2,0-0.4-0.1-0.5,0.1c0,0-0.1,0-0.2,0c-0.1,0.1-0.1,0.1-0.2,0.1c-0.2,0.1-0.5,0.2-0.7,0.4
		c0,0,0-0.1-0.1,0c0,0,0,0,0,0c-0.1,0,0,0.1,0,0.1c0,0-0.1,0.1-0.1,0.1c0,0-0.1,0,0,0.1c-0.1,0.1-0.3,0.2-0.5,0.3
		c-0.2,0.1-0.3,0.2-0.4,0.3c0,0.1-0.1,0.2-0.2,0.2c-0.2,0.2-0.4,0.4-0.6,0.6c-0.1,0.1-0.2,0.1-0.3,0.3c0,0.1-0.1,0.1-0.1,0.2
		c-0.1,0-0.1,0.1-0.2,0.2c-0.1,0.1-0.2,0.2-0.3,0.3c-0.3,0.2-0.3,0.5-0.6,0.7c-0.1,0.1-0.2,0.3-0.3,0.4c-0.2,0.2-0.3,0.5-0.4,0.7
		v0.1c0,0,0,0.1,0,0.1v0l0,0v0.1l0,0V21c0,0.1,0.1,0.2,0.1,0.3c0.1,0.2,0.3,0.3,0.4,0.4c0.1,0.1,0.3,0.2,0.4,0.2
		c0.1,0.1,0.2,0,0.3,0.1l0,0c0.1,0,0.1-0.1,0.2-0.1c0.1,0,0.1,0,0.2,0c0,0,0.1,0,0.1,0c0.2-0.1,0.4-0.2,0.5-0.4
		c0-0.1,0.1-0.1,0.1-0.2c0,0,0,0,0-0.1c0,0,0,0,0.1,0c0.1-0.1,0.2-0.2,0.3-0.3c0.1-0.1,0.2-0.1,0.2-0.2c0-0.1,0.2-0.2,0.1-0.3
		c0.1-0.2,0.3-0.3,0.4-0.5c0.1-0.3,0.3-0.5,0.5-0.7c0.1-0.1,0.2-0.2,0.2-0.3l0.5-0.6c0.2-0.2,0.4-0.4,0.6-0.6
		c0.3-0.3,0.7-0.6,1.2-0.7c0.1-0.1,0.2-0.1,0.2-0.2c0.3,0,0.4-0.1,0.7-0.1c0.4,0,1.3,0,1.9,0.5l0.1,0c0.1,0.1,0.2,0.2,0.3,0.3
		c0.1,0,0.2,0.1,0.3,0.1c0,0,0.1,0.1,0.1,0.1l0.1,0.1l0,0c0.2,0.2,0.4,0.3,0.6,0.5c0.1,0.1,0.3,0.3,0.3,0.5c0.2,0.1,0.2,0.3,0.3,0.4
		c0,0,0,0.1,0.1,0.1c0,0.1,0.2,0.2,0.2,0.3c0,0,0,0.1,0,0.1c0,0.1,0.1,0.1,0.1,0.1c0,0,0,0.1,0,0.1c0.1,0.2,0.3,0.4,0.4,0.6
		c0,0.1,0.1,0.2,0.1,0.3v0c0,0,0,0.1,0,0.1c0,0.1,0.1,0,0.1,0.1l0-0.1c-0.1-0.1,0-0.1-0.1-0.2c0,0,0-0.1,0-0.1
		c0-0.2-0.2-0.3-0.2-0.6c0,0-0.1,0-0.1-0.1c0,0,0-0.1,0-0.1c0-0.1-0.1-0.1-0.1-0.1c0-0.1-0.2-0.2-0.2-0.4c0,0,0-0.1-0.1-0.2
		c0-0.1-0.1-0.1-0.1-0.2c-0.1-0.1-0.2-0.4-0.3-0.5c0-0.1-0.1-0.1-0.1-0.2l-0.2-0.2c0,0,0,0,0,0c-0.1-0.1-0.1-0.1-0.2-0.2v-0.1
		c0,0-0.1,0.1-0.1,0.1c-0.1,0,0-0.2,0-0.2c-0.2,0-0.1-0.1-0.3-0.2c0-0.1-0.2-0.1-0.1-0.2c0,0,0-0.1-0.1,0c0,0,0,0-0.1,0c0,0,0,0,0,0
		c0,0-0.1,0-0.1-0.1c0,0,0-0.1-0.1-0.1c0,0-0.1-0.1-0.1-0.1c-0.1,0-0.1-0.1-0.1-0.1c0,0-0.3-0.2-0.3-0.2c-0.1,0-0.2-0.1-0.2-0.2
		c-0.1,0-0.1,0-0.2,0c0,0-0.1,0-0.1-0.1c0-0.1-0.1-0.1-0.1-0.1c0,0-0.1,0-0.1,0l-0.2-0.1c0,0-0.1,0-0.2-0.1c0,0,0-0.1-0.1-0.1
		c0,0-0.1,0.1-0.1,0.1l-0.1-0.1c0,0,0,0,0,0c-0.1,0-0.1-0.1-0.1-0.1c0,0,0,0,0,0h-0.3l0,0c0,0-0.1,0-0.1,0c0-0.1-0.1,0-0.1,0
		c0,0-0.1,0-0.1,0c-0.1,0-0.1,0-0.2,0.1c0,0,0,0-0.1,0c0,0,0,0.1,0,0.1c0,0-0.1,0-0.1,0v0c0,0-0.1,0-0.1,0c-0.1,0-0.2,0.1-0.4,0.1
		c-0.1,0.1-0.2,0.1-0.3,0.2c0,0-0.1,0-0.1,0.1c-0.2,0-0.3,0.1-0.4,0.2c0,0-0.1,0.1-0.1,0.1c0,0,0,0-0.1,0c0,0-0.1,0-0.1,0
		c0,0-0.1,0-0.1,0c0,0,0,0-0.1,0l0,0c0,0,0-0.1,0-0.1c0,0,0.1,0,0.1-0.1c0.1,0,0.1-0.2,0.2-0.1c0.1,0,0.2,0,0.2-0.1
		c0.1,0,0.2-0.2,0.3-0.2c0,0,0.4-0.1,0.3-0.2c0,0,0.1,0,0.1,0c0,0,0.1,0,0.1,0.1c0,0,0.1,0,0.1,0c0,0,0.1,0,0.1-0.1c0,0,0.1,0,0.1,0
		c0,0.1,0,0,0.1,0v0c0,0,0,0,0,0c0-0.1,0.2,0,0.2-0.1c0,0,0,0,0-0.1h0.1c0,0,0.1,0,0.1,0c0,0,0,0,0.1,0c0,0,0.1,0,0.1,0
		c0,0,0.1,0,0.1-0.1l0.3,0c0,0.1,0.1,0,0.2,0c0.2,0,0.3,0,0.5,0.1l0.1,0.1c0.1,0,0.1,0,0.2,0.1c0.3,0.1,0.5,0.3,0.7,0.4
		c0.1,0.1,0.2,0.2,0.4,0.3c0.1,0.1,0.3,0.3,0.4,0.4c0.2,0.2,0.5,0.5,0.7,0.7c0.1,0.1,0.1,0.1,0.1,0.2c0,0,0.1,0.2,0.1,0.2
		c0.1,0.1,0.2,0.3,0.2,0.4c0.1,0.2,0.2,0.4,0.3,0.5c0-0.1-0.1-0.4-0.2-0.5c0-0.1-0.1-0.1-0.1-0.2c-0.1-0.1-0.1-0.2-0.3-0.3
		c0,0,0-0.1,0-0.1C20,18,20,18,20,17.9c-0.1-0.1-0.2-0.2-0.2-0.3c-0.2-0.2-0.3-0.4-0.4-0.6l0,0c-0.1-0.1-0.2-0.3-0.3-0.2
		c-0.1,0-0.1-0.1-0.2-0.2c-0.1-0.1-0.2-0.2-0.4-0.3c0-0.1-0.1-0.1-0.2-0.1C18.2,16,18.1,16,18,15.9c-0.1,0-0.1,0-0.1,0
		c-0.1,0-0.1-0.1-0.2-0.1c-0.1-0.1-0.1-0.1-0.2-0.1c-0.1-0.1-0.1,0-0.2,0c0,0-0.1-0.1-0.1-0.1c0,0,0,0-0.1,0c-0.1,0-0.2,0-0.2-0.1
		c-0.1,0-0.2,0-0.2,0l0,0l-0.2,0c-0.1-0.1-0.2,0-0.3,0c-0.1,0-0.2,0-0.3,0c-0.2,0-0.3,0.1-0.5,0.1c-0.1,0-0.1,0-0.2,0
		c-0.1-0.1,0-0.1,0-0.2c0-0.1,0,0.1,0,0h0c0.1,0,0.2-0.1,0.3-0.1c0.1-0.1,0.3,0,0.4-0.1c0.1,0,0.2,0,0.2,0c0.1,0,0.3,0,0.4,0
		c0.1,0,0.1,0,0.2,0v0c0.1,0,0.2,0,0.2,0c0.1,0,0.2,0,0.3,0.1c0.1,0,0.2,0,0.2,0.1c0,0,0.1,0.1,0.1,0.1c0.1,0.1,0.2,0.1,0.3,0.1
		c0,0,0.1,0.1,0.1,0.1c0,0,0.1,0,0,0c0,0.1,0.1,0,0.1,0.1c0.1,0,0.1,0,0.1,0.1c0.1,0,0.1,0,0.1,0.1c0.2,0.2,0.3,0.2,0.4,0.4
		c0.2,0.2,0.5,0.4,0.6,0.6h0c0.1,0.1,0.1,0.2,0.2,0.3c0.1,0,0.1,0.1,0.1,0.1c0,0.2,0.2,0.3,0.3,0.4C20.2,17.9,20.4,18.2,20.6,18.4
		C20.5,18.5,20.6,18.5,20.6,18.4z"/>
</g>
<g id="Chungnam" class="st0">
	<path class="st37" d="M15.4,12.5c-1.8-1.7-4.5,0.7-3,3c0.8,1.2,2.8,1.9,5.7,1.8c0.4,0,0.5-0.1,0.1-0.3
		C15.7,15.9,16.7,13.8,15.4,12.5z"/>
	<path class="st38" d="M9.4,17.9c0.2-0.4,0.2-0.4-0.2-0.2c-2.8,1.3-3.3-0.8-5.1-0.5c-1,0.2-1.8,1.1-1.6,2.2c0.2,1.3,1.7,1.8,2.9,1.6
		C7.7,20.8,9.1,18.5,9.4,17.9z"/>
	<path class="st39" d="M7.3,17c0.1,0.1,0.2,0.2-0.1,0.2c-4.4-0.7-5.2-3.3-4.1-4.6C3.7,12,5,11.9,5.6,12.6C6.8,13.9,5.6,15.5,7.3,17z
		"/>
	<path class="st38" d="M23.2,6.6c0.4,0,0.5,0.1,0.1,0.3c-1,0.4-2.1,1.2-2.1,2.9c-0.1,2.5-3.7,1.8-3.3-0.8C18.4,6,22.7,6.6,23.2,6.6z
		"/>
	<path class="st40" d="M10.3,19.4c0.7,2.2,3.9,1.5,3.6-0.7c-0.2-1.8-2.4-1.3-2.4-3.3c0-0.2,0-0.5-0.3-0.1
		C10.6,16.4,10,18.3,10.3,19.4z"/>
	<path class="st37" d="M23.9,18.1c-1.9,1.4-2.6-0.3-4-0.4c-1.6-0.1-2.1,2.5,0,3c1,0.2,3.3-0.2,4.3-2.6
		C24.2,18.1,24.1,17.9,23.9,18.1z"/>
	<path class="st38" d="M23.3,16.4c0.4-2.2-1.4-4.2-1.6-4.5c0-0.1-0.4-0.5-0.3,0.2c0.5,2-0.5,2.5-0.8,3.9
		C20.2,18.1,22.9,18.3,23.3,16.4z"/>
	<path class="st41" d="M12.1,12c-2.3,0.2-3.7,0.9-4.4,1.4c-1.1,0.8-0.9,2.2-0.3,2.8c0.7,0.7,2,0.9,2.8-0.1c1-1.2,0-2.8,2-3.9
		C12.5,12,12.3,11.9,12.1,12z"/>
	<path class="st37" d="M27.1,12.2c-0.4,0.2-0.8,0.5-1,0.9c-0.3,0.4-0.4,0.9-0.6,1.3c-0.2,0.4-0.5,0.7-0.9,1
		c-0.2,0.1-0.3,0.3,0.1,0.3c0.3-0.1,0.7-0.1,1.2-0.1c0.5,0,1.2,0.3,1.5,0.4c0.6,0.2,1.3,0.2,1.8-0.3c0.8-0.8,0.7-2.3-0.1-3.1
		C28.6,12.2,27.8,12,27.1,12.2z"/>
	<path class="st39" d="M28.9,16.8c-1.6-0.2-2.3,0.9-4.6-0.6c-0.2-0.1-0.4-0.3-0.2,0.2c0.2,0.8,1.3,3.8,3.4,4.3
		C30.6,21.5,31.4,17.3,28.9,16.8z"/>
	<path class="st39" d="M14.2,5.6c-0.3,1.7,1,2.5,0.7,5.1c0,0.2,0.2,0.2,0.2,0.1c1-2.3,2.5-2.2,3.1-4C19,4.1,14.7,3.4,14.2,5.6z"/>
	<path class="st40" d="M7.6,12.3c2,0.2,2.2-1.3,5.8-1.1c0.3,0,0.3-0.2,0.1-0.2c-3.3-1-3.8-3.1-5.5-3.1C5.2,7.6,4.8,12,7.6,12.3z"/>
	<path class="st42" d="M10.1,8c1.3,1.6,2.2,0.5,3.7,2.1c0.2,0.2,0.4,0.1,0.2-0.1c-1-1.6,0.1-3.1-0.7-4.2C11.7,3.8,8.6,6.1,10.1,8z"
		/>
	<path class="st42" d="M21.9,9.7c0,1.7,1.9,2.5,2,5.7c0,0.2,0.2,0.2,0.2,0c0.6-3.2,2.4-3.8,2.5-5.6C26.9,6.9,21.9,6.4,21.9,9.7z"/>
	<path class="st40" d="M20.2,15.3c0.8-0.7,1-1.8,0.3-2.7c-1.3-1.5-2.6,0-3.9-2.4c-0.2-0.4-0.4-0.3-0.3,0.1c0.3,1.5-0.2,3,0.6,4.3
		C17.8,15.9,19.4,16,20.2,15.3z"/>
	<path class="st43" d="M16.3,18c-0.9,0-1.7,0.8-1.7,1.7v4.5h3.4v-4.5C17.9,18.8,17.2,18,16.3,18z"/>
</g>
<g id="Gyeongbuk" class="st0">
	<path class="st44" d="M22.6,16.1c-5.6-0.3-7.5-2-7.5-2s2.3,1.2,6.5,1.1c0,0,5.2-0.1,7.2-2.9c0,0,3,1.5,0.4,2.9
		C29.2,15.1,26.7,16.4,22.6,16.1z"/>
	<path class="st44" d="M12.4,11.3c0,0-2.2,2.8,2,4.7c0,0,3,2,10.5,1.8L18,22.2c0,0-0.9,0.4-1.7,0.4h0c-0.7,0-1.7-0.4-1.7-0.4L3,14.8
		c-0.5-0.3-0.7-0.7-0.7-1.1v0c0-0.4,0.2-0.8,0.7-1.1c0,0,1.6-1.1,2.1-1.2c0,0,1.6-0.5,3.8-0.5C8.9,10.9,10.8,10.8,12.4,11.3z"/>
	<path class="st44" d="M14.4,10.2c0,0,0.8,0.1,1.4,0.3c0,0,0.4,0,0.3,0.4c0,0-0.1,0.3-0.3,0.3c0,0-0.4,0-0.5,0.4
		c0,0-0.2,0.5,0.3,0.7c0,0,1.8,1.5,5.7,1.5c0,0,2.8,0.1,4.4-1.5c0,0,0.7-1.1-0.1-2.1L18,5.3c0,0-0.9-0.4-1.7-0.4h0
		c-0.7,0-1.7,0.4-1.7,0.4l-8.1,5.1C7.5,10.2,9.9,9.8,14.4,10.2z"/>
</g>
<g id="Daejeon" class="st0">
	<path class="st45" d="M15.8,13.9l-1-10.9c-1.8,0.6-3.1,2.3-3.1,4.3c0,0.5,0.1,0.9,0.2,1.4c-0.7-0.5-1.7-0.9-2.7-0.9
		c-1.5,0-2.9,0.8-3.7,1.9L15.8,13.9z"/>
	<path class="st45" d="M15.6,15L4.9,12.5c0,1.9,1.2,3.6,3.1,4.3C8.5,16.9,9,17,9.4,17c-0.7,0.5-1.3,1.3-1.6,2.3
		c-0.5,1.5-0.2,3,0.7,4.2L15.6,15z"/>
	<path class="st45" d="M16.4,15.5l-5.6,9.4c1.8,0.6,3.9-0.1,5-1.7c0.3-0.4,0.5-0.8,0.6-1.2c0.3,0.9,0.8,1.7,1.6,2.3
		c1.2,0.9,2.8,1.1,4.2,0.6L16.4,15.5z"/>
	<path class="st45" d="M16.9,13.9L27,9.7c-1.1-1.5-3.2-2.2-5.1-1.6c-0.5,0.1-0.9,0.4-1.3,0.6c0.3-0.9,0.3-1.8,0-2.8
		c-0.5-1.5-1.6-2.5-3-3L16.9,13.9z"/>
	<path class="st45" d="M17.2,14.9l7.2,8.2c1.1-1.6,1.1-3.7,0-5.3c-0.3-0.4-0.6-0.7-1-1c0.9,0,1.8-0.3,2.7-0.9
		c1.3-0.9,1.9-2.3,1.9-3.8L17.2,14.9z"/>
</g>
<g id="Gwangju" class="st0">
	<path class="st46" d="M17.4,15.1c5.8-1.1,9.1,2.1,10.8,5c0.9-1.7,1.4-3.7,1.4-5.7c0-0.8-0.1-1.6-0.2-2.4
		c-12.9-2.2-17,7.6-18.3,13.3c1.8,1,3.8,1.5,6,1.5c3.5,0,6.6-1.4,8.9-3.7C23.4,15.3,17.4,15.1,17.4,15.1L17.4,15.1z"/>
	<path class="st46" d="M25.2,4.9c-2.2,3.9-5.4,5.7-5.4,5.7c1.8-2.1,2.6-5.1,3-7.3c-1.7-0.9-3.7-1.4-5.7-1.4c-4.4,0-8.3,2.3-10.5,5.7
		c1.8,1.5,5.9,4.1,12.6,3.4c0,0-7.1,1.2-13.9-0.5c-0.4,1.2-0.6,2.5-0.6,3.9c0,3.3,1.3,6.2,3.3,8.4c3.6-12,17.7-12.7,20.9-12.7
		C28,8,26.8,6.2,25.2,4.9L25.2,4.9z M16.7,10.3c-1.2,0-2.1-0.9-2.1-2.1c0-1.1,0.9-2.1,2.1-2.1c1.2,0,2.1,0.9,2.1,2.1
		C18.8,9.4,17.8,10.3,16.7,10.3L16.7,10.3z"/>
</g>
<g id="Jeonbuk" class="st0">
	<path class="st47" d="M27.1,2.8C21.9,8,15.6,9.1,15.6,9.1c0,3.8-0.6,6.6-1.6,8.7C23.9,12.7,27.1,2.8,27.1,2.8z"/>
	<path class="st48" d="M21.3,15.2c-2.6,2.8-6.2,5.6-11.1,7.2l0,0c-1.7,1.1-3.1,1.2-3.1,1.2l1.7,1.6c8-1.4,12.5-6.3,15.1-11.1
		C23,14.4,22.2,14.8,21.3,15.2z"/>
	<path class="st49" d="M23.9,14c1.1-2,1.8-4,2.3-5.8c-0.9,1.8-2.4,4.4-4.8,7C22.2,14.8,23,14.4,23.9,14z"/>
	<path class="st50" d="M26.1,8.2c0.9-3.1,1-5.3,1-5.3S23.9,12.7,14,17.7l0,0c0,0,3.4-0.9,7.4-2.6C23.7,12.6,25.2,10,26.1,8.2z"/>
	<path class="st51" d="M21.3,15.2c-3.9,1.7-7.4,2.6-7.4,2.6c-1.1,2.3-2.5,3.7-3.8,4.6l0,0C15.1,20.8,18.7,18,21.3,15.2z"/>
</g>
<g id="Gyeongnam" class="st0">
	<path class="st52" d="M16.3,4.2c-3.5-0.1-6.7,1.7-8.5,4.4c0,0,0.1,0.1,0.1,0.1c0,0,0,0,0.1,0.1c0,0,0,0,0,0c0.1,0,0.3,0.1,0.5,0.2
		c0.1,0.1,0.2,0.2,0.2,0.3c0,0,0.1,0.1,0.1,0.1c0,0,0.1,0.1,0.1,0.1C9,9.6,9.1,9.6,9.2,9.7c0.1,0.1,0.1,0.1,0.2,0.2
		c0,0.1,0.1,0.1,0.1,0.1c0,0,0.1,0.1,0.1,0.1c0.1,0.1,0.1,0.1,0.2,0.2c0.1,0.1,0.2,0.2,0.2,0.3c0,0,0,0.1,0.1,0.1l0,0
		c0.1,0.1,0.1,0.2,0.2,0.2l0.1,0.1c0,0,0.1,0.1,0.1,0.1c0.1,0.1,0.2,0.1,0.2,0.2c0.1,0.1,0.1,0.2,0.2,0.2c0,0.1,0.1,0.1,0.1,0.2
		c0.1,0.1,0.1,0.2,0.2,0.3c0,0,0,0.1,0.1,0.1c0,0,0.1,0.1,0.1,0.1c0.1,0.1,0.1,0.1,0.2,0.3c0.1,0.1,0.1,0.2,0.2,0.3c0,0,0,0.1,0,0.1
		c0,0,0,0,0,0c0.1,0.1,0.2,0.2,0.3,0.3c0.1,0.1,0.1,0.2,0.1,0.3l0.2,0.1c0.3,0.2,0.4,0.1,0.3-0.2l-1.8-4c-0.2-0.3-0.1-0.4,0.1-0.1
		l2.6,3.5c0.2,0.3,0.4,0.2,0.4-0.1l-0.4-4.4c0-0.4,0-0.4,0.2,0l1.3,4.1c0.1,0.4,0.3,0.3,0.4,0l0.7-4.3c0.1-0.4,0.1-0.4,0.2,0
		l0.2,4.3c0,0.4,0.2,0.4,0.4,0.1L19.1,9c0.2-0.3,0.3-0.3,0.1,0.1L18,13.2c-0.1,0.4,0,0.5,0.3,0.2l3.3-2.8c0.3-0.2,0.3-0.2,0.1,0.1
		l-1.9,2.6c0.1,0,0.2,0,0.3,0c0.2-0.1,0.2-0.3,0.4-0.4c0.2-0.1,0.4,0,0.5-0.1c0.2-0.1,0.3-0.3,0.4-0.3c0.2-0.1,0.3-0.1,0.5-0.2
		c0.2-0.1,0.3-0.2,0.5-0.2c0.2-0.1,0.4-0.1,0.5-0.1c0.2-0.1,0.4,0,0.5,0c0.2-0.1,0.3-0.2,0.5-0.3c0.2,0,0.4,0,0.5-0.1
		c0.2,0,0.4,0,0.5-0.1c0.2,0,0.4-0.1,0.5-0.2c0,0,0.1,0,0.1,0C24.5,7.3,20.8,4.3,16.3,4.2z"/>
	<path class="st53" d="M14.8,23.6C14.8,23.6,14.8,23.6,14.8,23.6C14.8,23.6,14.8,23.6,14.8,23.6c-0.1-0.2-0.1-0.3-0.2-0.4
		c0-0.1,0-0.1-0.1-0.2c0-0.1,0-0.2-0.1-0.2c0-0.1,0-0.2,0-0.3c0-0.1,0-0.1,0-0.1c0-0.1,0-0.2,0-0.3c0-0.1,0-0.1,0-0.2
		c0,0,0-0.1-0.1-0.2c0-0.1-0.1-0.2-0.1-0.3l0-0.1L14.1,21c0-0.1,0-0.1-0.1-0.2c0-0.1-0.1-0.2-0.1-0.2c0-0.2,0-0.3,0-0.4
		c0,0,0-0.1,0-0.1c0-0.1,0-0.1-0.1-0.2c0-0.1-0.1-0.1-0.1-0.2c0,0,0,0-0.1-0.1c-0.1-0.1-0.1-0.2-0.2-0.3c0,0,0-0.1-0.1-0.1
		c0-0.1-0.1-0.2-0.1-0.3c0-0.1-0.1-0.2-0.1-0.2l-0.1-0.2c-0.1-0.2-0.1-0.3,0-0.4c0,0,0,0,0,0c0,0,0-0.1-0.1-0.1
		c0-0.1-0.1-0.2-0.1-0.3c0,0,0-0.1-0.1-0.1c-0.1-0.1-0.1-0.2-0.2-0.3c0-0.1-0.1-0.2-0.1-0.3c0-0.1,0-0.1-0.1-0.2
		c0-0.1-0.1-0.1-0.1-0.2c0-0.1-0.1-0.1-0.1-0.2l-0.1-0.2c0-0.1-0.1-0.2-0.1-0.2c0,0,0-0.1-0.1-0.1c-0.1-0.1-0.1-0.2-0.2-0.3
		c-0.1-0.1-0.1-0.2-0.1-0.3c0,0,0-0.1,0-0.1c0,0,0,0,0,0c-0.1-0.1-0.2-0.2-0.3-0.3c-0.1-0.1-0.1-0.3-0.1-0.4c0,0,0-0.1,0-0.1
		c-0.1-0.1-0.1-0.2-0.1-0.3c0,0,0-0.1,0-0.1c0,0,0,0,0,0c-0.1-0.1-0.2-0.1-0.3-0.3c-0.1-0.1-0.1-0.2-0.1-0.3c0,0,0-0.1-0.1-0.1
		c0,0-0.1-0.1-0.1-0.1c-0.1-0.1-0.1-0.1-0.2-0.2c-0.1-0.1-0.1-0.2-0.2-0.3c0,0,0-0.1-0.1-0.1c-0.1-0.1-0.1-0.1-0.1-0.2
		c0-0.1-0.1-0.1-0.1-0.2c0,0-0.1-0.1-0.1-0.1c-0.1-0.1-0.2-0.1-0.2-0.2l-0.1-0.1c-0.1-0.1-0.1-0.1-0.2-0.2c-0.1-0.1-0.1-0.2-0.2-0.3
		c0,0,0-0.1,0-0.1C9,11,9,11,8.9,10.9c-0.1-0.1-0.1-0.1-0.2-0.2c-0.1-0.1-0.1-0.1-0.2-0.2c-0.1-0.1-0.1-0.1-0.1-0.2
		c0,0-0.1-0.1-0.1-0.1c-0.1,0-0.1-0.1-0.2-0.2C8,10,7.9,9.9,7.9,9.8c0,0,0,0,0,0c0,0,0,0,0,0c-0.1,0-0.3-0.1-0.5-0.2
		c0,0-0.1-0.1-0.1-0.1c-0.7,1.4-1.1,2.9-1.2,4.5c-0.1,5.2,3.7,9.5,8.7,10.1c0,0,0-0.1,0-0.1C14.8,23.9,14.8,23.7,14.8,23.6z"/>
	<path class="st54" d="M13.9,17.2c0,0,0,0.1,0.1,0.1c0,0.1,0.1,0.2,0.1,0.3c0.1,0.2,0.1,0.3,0,0.5c0,0,0,0,0,0.1l0.1,0.1
		c0,0.1,0.1,0.2,0.1,0.3c0,0,0,0.1,0.1,0.1c0,0.1,0.1,0.2,0.1,0.3c0,0,0,0,0,0c0,0,0,0,0.1,0.1c0.1,0.1,0.1,0.2,0.2,0.3
		c0,0.1,0,0.1,0.1,0.2c0,0.1,0.1,0.2,0.1,0.3c0,0.2,0,0.3,0,0.4c0,0,0,0.1,0,0.1c0,0,0,0.1,0.1,0.2c0,0.1,0.1,0.2,0.1,0.3l0.1,0.3
		l0,0.1c0,0,0,0.1,0.1,0.1c0,0.1,0.1,0.2,0.1,0.3c0,0.1,0,0.2,0.1,0.3c0,0.1,0,0.1,0,0.2c0,0.1,0,0.2,0,0.3c0,0.1,0,0.1,0,0.1
		c0,0.1,0,0.1,0,0.2c0,0.1,0.1,0.2,0.1,0.3c0,0,0,0,0,0.1c0.1,0.1,0.1,0.2,0.1,0.4c0,0.2,0,0.3,0,0.4c0,0,0,0,0,0c0,0,0,0.1,0,0.1
		c0,0.1,0,0.1,0.1,0.2c0,0,0,0,0.1,0c3,0.1,5.7-1.2,7.5-3.2C20,18.4,15.7,17.5,13.9,17.2C13.9,17.2,13.9,17.2,13.9,17.2z"/>
	<path class="st55" d="M26.1,14.4c0-0.8-0.1-1.5-0.2-2.2c-0.1,0-0.1,0-0.2,0c-0.2,0-0.3,0.1-0.5,0.2c-0.2,0-0.3,0.1-0.5,0.1
		c-0.2,0-0.4,0-0.5,0.1c-0.2,0-0.4,0-0.5,0.1c-0.2,0-0.3,0.2-0.5,0.2c-0.2,0.1-0.4,0.1-0.5,0.1c-0.2,0.1-0.4,0.1-0.5,0.1
		c-0.2,0.1-0.3,0.2-0.4,0.3c-0.2,0.1-0.4,0.1-0.5,0.2c-0.2,0.1-0.3,0.2-0.4,0.3c-0.2,0.1-0.3,0.2-0.5,0.2c-0.2,0.1-0.3,0.1-0.5,0.2
		c-0.2,0.1-0.3,0.3-0.4,0.3c-0.2,0.1-0.3,0.3-0.4,0.4c-0.1,0.1-0.3,0.2-0.4,0.3c-0.1,0.1-0.2,0.2-0.3,0.3L18,16c0,0.2,0,0.3-0.1,0.2
		L17.4,17c2,0.6,4.5,1.6,6.6,3.3C25.3,18.7,26.1,16.6,26.1,14.4z"/>
</g>
<g id="Ulsan" class="st0">
	<path class="st56" d="M15.4,8.1c0.4-0.9,1.3-0.8,2.5-0.4c0.8,0.3,2.2-0.1,2.5-1l-2.1-3.5c0.1,1.3-0.5,1.7-1.2,1.8
		c-0.7,0-1.1,0.2-1.4,0.5L12,11.9c2.1,0.1,4.1,0.9,5.8,3.3c1,1.4,2.6,2.5,5.8,3.1c-1.7,0.4-3,0-4.7-0.6"/>
	<path class="st56" d="M18.8,17.7c-0.6-0.2-1.3-0.5-2-0.7c-2.2-0.7-5.6-1-7.9,0.1l-4.3,7.4c2.9-2.4,8.2-3.1,11.9-1.6
		c4.3,1.6,8.5,2.1,13.1-0.2l-3.1-5.3c-0.5,0.4-1.1,0.7-1.6,0.8l0.6-4.2c-1.9,0.2-3.6-0.3-4.8-1.7c-1.8-2.1-3.6-3.7-5.3-4.1"/>
	<path class="st57" d="M12.7,12.2c1.1,0,2,0.9,2.1,2c0,1.1-0.9,2-2,2c-1.1,0-2-0.9-2-2C10.6,13.2,11.6,12.3,12.7,12.2z"/>
</g>
<g id="Busan" class="st0">
	<path id="부산" class="st58" d="M28.4,13.7l-5.5-5.5l-0.3,0.4c0,0-1.6,2.2-3.2,3.8c0,0-1,1.1-2.2,1h-3.7c0,0,2.2-1.2,4.5-4.3
		c0,0,1.5-1.9,2.3-3c0,0,0.1-0.1,0.2-0.3l2.3,2.3c1.7-3.1,4.9-4,4.9-4c0.5-0.2,0-0.2,0-0.2c-4.8-0.6-6.7,1.3-7.2,1.9l-3.4-3.4
		c-0.6-0.6-1-0.6-1.6,0L9.9,8.3c1.4-0.3,2.5,0.2,2.5,0.2c0.9,0.4,1.5,1.4,1.5,1.4s0.4,0.6,0.9,1c0,0,0.7,0.6-0.5,1.1
		c-1.6,0.7-3-1.7-3-1.7C10.8,9.2,10,8.6,9.5,8.7l-5.1,5C4,14,3.9,14.1,3.9,14.5h14.4c0-0.3,0.4-1.1,1.5-0.4c0,0,0.2-0.6,1-0.3
		c0,0,0.5-1.3,1.6-0.6c0,0,0.2-1,1.2-1c0,0,0.9-0.1,1.3,1.4c0,0,1.1-0.6,1.5,0.9v0c0,0,0,0,0,0.1l-0.6,0.1C23,14.9,12.6,16,7.4,18.7
		l2.9,2.9c1.3-0.7,9.3-5.1,17.1-6.4c0,0-10.5,4.5-14.2,9.3l2.4,2.1c0.6,0.6,1,0.6,1.6,0l11.2-11.2C29,14.8,29,14.3,28.4,13.7z"/>
</g>
<g id="Jeonnam" class="st0">
	<path class="st59" d="M19.7,7.8c0-1.8-1.5-3.2-3.2-3.2c-1.8,0-3.2,1.5-3.2,3.2c0,1.8,1.5,3.2,3.2,3.2C18.3,11.1,19.7,9.6,19.7,7.8z
		"/>
	<path class="st60" d="M23.1,20.4c0,0-3,0.3-6.9-2.3c-2.2-1.5-3-1.9-3.5-2.2c-0.7-0.4-1.6-0.7-2.7-0.7c-1.6,0.1-2.9,1.3-2.9,2.9
		s1.3,2.9,2.9,2.9c1.4,0,2.6-1,2.9-2.4l0-0.1c0,0,0.1-0.2,0.2-0.2c0.1,0,0.3,0.2,0.9,0.6l0,0l0.5,0.4c4.2,3.5,7.5,3.9,8.2,4
		c0.4,0,3.3,0.5,6.3-0.8v-5.1C28.1,18.8,25.6,20.3,23.1,20.4z"/>
	<path class="st61" d="M26,11.7c0-0.1-0.1-0.1-0.2-0.1c-0.1,0-0.1,0-0.2,0c-1.6,0-3.3,0-4.6,1.2c-0.9,0.9-1.3,1.9-1.4,3.1
		c0,0,0,0,0,0c0,0.1,0,0.1,0.1,0.2l0,0c0.4,0.2,1,0.4,1.6,0.3c0.7-0.1,1.5-0.5,2-1.3c0,0,0.1-0.1,0.2-0.1c0.1,0,0.1,0.1,0.1,0.2
		c0,0.1-0.1,0.2-0.1,0.2c-0.6,0.9-1.2,1.4-2.1,1.5c-0.2,0-0.3,0-0.5,0c-0.7,0-1.4-0.3-1.8-0.5c-0.9-0.4-2.6-1.7-2.6-1.7
		c-3-2.4-5.5-2.8-5.6-2.8c-2.9-0.6-5.1,0-7,1.2v1.8c1.7-1.5,3.9-2.3,6.8-1.8c0,0,2.3,0.3,5.2,2.4c2.5,1.9,3.9,2.2,3.9,2.2
		c1.7,0.5,3.5,0.1,4.8-1.3c1.2-1.2,1.3-3,1.3-4.6C26,11.9,26,11.8,26,11.7z"/>
	<path class="st62" d="M10.1,15.3c1.1-0.1,2,0.3,2.7,0.7c0.5,0.3,1.2,0.7,3.5,2.2c3.8,2.5,6.9,2.3,6.9,2.3c2.5-0.1,5.1-1.6,5.9-2.8
		V1.5H4v11.6c1.9-1.1,4.1-1.7,7-1.2c0.1,0,2.6,0.4,5.6,2.8c0,0,1.6,1.3,2.6,1.7c0.4,0.2,1.1,0.5,1.8,0.5c0.1,0,0.3,0,0.5,0
		c0.9-0.1,1.5-0.6,2.1-1.5c0-0.1,0.1-0.1,0.1-0.2c0-0.1,0-0.2-0.1-0.2c-0.1-0.1-0.2,0-0.2,0.1c-0.5,0.8-1.3,1.2-2,1.3
		c-0.6,0.1-1.2-0.1-1.6-0.3l0,0c-0.1,0-0.1-0.1-0.1-0.2c0,0,0,0,0,0c0.1-1.1,0.6-2.2,1.4-3.1c1.2-1.2,3-1.2,4.6-1.2
		c0.1,0,0.1,0,0.2,0c0.1,0,0.1,0.1,0.2,0.1c0,0.1,0,0.1,0,0.2c0,1.6,0,3.3-1.3,4.6c-1.3,1.3-3.1,1.7-4.8,1.3c0,0-1.5-0.3-3.9-2.2
		c-2.8-2.1-5.2-2.4-5.2-2.4c-2.9-0.5-5.1,0.4-6.8,1.8v11.8h25v-4c-3,1.3-5.9,0.9-6.3,0.8c-0.7-0.1-4-0.5-8.2-4l-0.5-0.4
		c-0.5-0.4-0.7-0.6-0.9-0.6c-0.1,0-0.2,0.1-0.2,0.2l0,0.1c-0.3,1.4-1.4,2.4-2.9,2.4c-1.6,0-2.9-1.3-2.9-2.9S8.5,15.4,10.1,15.3z
		 M16.5,11.1c-1.8,0-3.2-1.5-3.2-3.2c0-1.8,1.5-3.2,3.2-3.2c1.8,0,3.2,1.5,3.2,3.2C19.7,9.6,18.3,11.1,16.5,11.1z"/>
</g>
<g id="Jeju" class="st0">
	<path class="st63" d="M20.7,7.7C20.7,7.7,20.7,7.7,20.7,7.7c-0.2-0.1-0.2,0-0.4,0.1l-0.1,0.1c-0.4,0.2-0.7,1.2-0.7,1.5c0,0,0,0,0,0
		c-0.2-0.4-0.7-0.8-1.1-0.8c0.2,0.7,0.8,2.7,1.6,2.6c0.4-0.1,1.2-1.8,1.3-2.7c0,0,0,0,0,0C21.2,7.9,20.9,7.8,20.7,7.7z"/>
	<path class="st64" d="M26.1,18.1c-1,0-1.3,0-2.3,0.3c-0.1,0-0.3,0.1-0.4,0.3c0,0.2-0.1,0.5,0.1,0.6c0,0,0,0,0,0.1
		c0.1,0.1,0.1,0.1,0.2,0.1c0,0.1,0.1,0,0.1,0c0,0,0,0,0,0.1c0.1,0,0.2,0,0.3,0.1c0,0,0.1,0,0.1,0c0,0,0.1,0.1,0.1,0.1
		c0.2,0.1,0.4,0,0.5,0c0.6,0,0.5-0.1,1-0.1c0.5,0,0.9,0.1,1.4,0.1c0.3,0,0.5,0,0.8,0c0.4,0,0.9,0,1.3,0c0.2,0,0.5,0.1,0.7,0.1
		c0.2,0,0.5-0.1,0.7,0c0.1,0,0.2,0,0.2,0c0.1,0,0.2,0.1,0.2,0.1c0.2,0,0.4-0.1,0.6-0.1c0.1,0,0.2-0.1,0.4-0.1c0.1,0,0.1-0.1,0.1-0.2
		c0.1-0.2,0.1-0.3,0-0.5c0,0,0,0,0,0c0,0,0-0.1,0-0.1c-0.1,0-0.2,0-0.3-0.1c-0.1,0-0.2-0.1-0.4-0.1C31.1,18.5,28,18.1,26.1,18.1z"/>
	<path class="st65" d="M16.4,18.5c0.1,0,0.2,0,0.3,0.1c0.1,0.1-0.1,0.1,0,0.2c0,0.2,0.1,0.3,0.1,0.5c0,0,0,0.1,0,0.1
		c0,0-0.1,0.1-0.1,0.1c-0.1,0.1-0.3,0.1-0.5,0.1c-0.2,0.1-0.4,0.1-0.6,0.1c-0.4,0-0.8,0-1.1-0.1c-0.1,0-0.3,0-0.4,0.1
		c-0.2,0-0.4,0-0.5,0c-0.9,0-1.9-0.1-2.8,0c-0.2,0-0.3,0-0.5,0c-0.7,0-1.5,0-2.2,0c-0.3,0-0.5,0-0.8,0c-0.1,0-0.3,0-0.4,0
		c-0.6,0-1.1,0.1-1.7,0c-0.2,0-0.4,0-0.7,0c-0.6,0-1.2,0.1-1.9,0.1c-0.5,0-0.9-0.1-1.3-0.3c-0.3-0.1-0.5-0.4-0.7-0.6
		c0.1-0.1,0.3-0.2,0.4-0.2c0.4-0.1,0.8-0.2,1.2-0.3c0.4-0.1,0.7-0.1,1-0.1c4.5-0.4,9.5-0.3,11.4-0.1C15.2,18.3,15.8,18.4,16.4,18.5z
		"/>
	<path class="st66" d="M24.5,14.3C24.5,14.4,24.5,14.4,24.5,14.3c0,0.2,0.1,0.2,0.2,0.3c0.1,0,0.2,0,0.3,0c0-0.1,0.1,0,0.1-0.1
		c0.1,0,0.1,0,0.2-0.1c0,0,0,0,0,0c0-0.1,0.1-0.1,0.2-0.1c0.1-0.1,0.2-0.3,0.3-0.4c0-0.1,0-0.1,0.1-0.1c0.1-0.2,0.1-0.5,0.2-0.7
		c0-0.1,0-0.2,0-0.3c0,0,0,0,0,0c0-0.1,0-0.2,0.1-0.2c0,0,0.1,0,0.1-0.1c0,0,0,0,0,0c0.1,0,0.2,0.1,0.3,0.2c0.1,0,0.1,0,0.1,0
		c0,0.1,0,0.1,0.1,0.1c0.1,0,0.4,0,0.5,0c0,0.1,0.1,0.1,0.1,0.1c0,0.1,0,0.2,0.1,0.2c0,0,0,0.1,0,0.1c0.1,0.1,0.1,0.2,0,0.3
		c0,0.1,0,0.2,0.1,0.3c-0.1,0.1,0,0.1,0,0.2c0.1,0.1,0.1,0.2,0.1,0.4c0.1,0.1,0.1,0.3,0.2,0.4c0,0.1,0,0.1,0,0.2
		c0.1,0,0,0.1,0.1,0.1c0,0.2-0.1,0.3-0.1,0.5c0,0-0.1,0.1-0.1,0.1c0,0,0,0,0,0.1c0,0-0.1,0-0.1,0c-0.1,0.1-0.1,0.1-0.2,0.2
		c-0.1,0-0.1,0-0.1,0c-0.1,0,0,0.1-0.1,0.1c-0.1,0-0.1,0-0.1,0.1c-0.1,0-0.2,0-0.3,0l0,0c0,0-0.1,0.1-0.1,0.1c0,0,0-0.1,0-0.1
		c0,0.1-0.1,0.1-0.2,0.1c0,0,0-0.1-0.1-0.1c0-0.2,0-0.3-0.1-0.4c0,0,0,0,0,0c0-0.1-0.1-0.1-0.1-0.2c-0.1-0.1-0.1-0.2-0.2-0.3
		c0,0,0,0,0-0.1c0,0-0.1-0.1-0.1-0.1c0,0,0,0-0.1,0c0,0.1-0.1,0.2-0.1,0.3l0,0c0,0.1-0.1,0.1-0.1,0.2c0,0-0.1,0.1-0.1,0.1
		c0,0,0,0,0,0c-0.1,0.1-0.2,0.4-0.4,0.5c0,0.1-0.2,0.1-0.2,0.2c-0.1,0-0.2,0-0.3,0.1c-0.1,0-0.1-0.1-0.2,0c0,0,0,0-0.1,0l0,0
		c-0.1-0.1-0.1,0-0.2,0c-0.2-0.1-0.4-0.2-0.6-0.3c-0.1,0,0-0.1-0.1-0.1c0,0-0.1,0-0.1,0c0-0.1,0-0.1-0.1-0.2l0,0c0,0,0,0-0.1,0
		c0-0.2-0.1-0.3-0.1-0.5c0,0,0,0-0.1-0.1c0-0.1,0-0.2-0.1-0.2c0-0.1,0.1-0.2,0-0.3c0,0,0-0.1,0-0.1c0-0.1,0-0.2,0-0.3c0,0,0,0,0-0.1
		c0.1-0.1,0.1-0.2,0.1-0.3c0-0.1,0.1-0.2,0.1-0.2l0,0c0.1-0.1,0-0.1,0.1-0.2c0,0,0,0,0,0c0-0.1,0.1-0.1,0.1-0.1
		c0-0.1,0.1-0.3,0.2-0.3l0,0c0-0.1,0.2-0.1,0.3-0.1c0.1,0,0.2,0.1,0.2,0.1c0,0.1,0,0.1,0,0.2c0,0,0,0,0,0c0,0,0,0,0,0.1c0,0,0,0,0,0
		c0,0.1,0.1,0.2,0,0.2c0,0,0,0,0,0c0,0,0,0.1,0,0.2c0,0.1,0,0.1,0,0.2c0.1,0.1,0,0.3,0.1,0.4C24.4,14.1,24.5,14.2,24.5,14.3z"/>
	<path class="st66" d="M14.2,15.3c0,0,0.1,0.1,0.1,0.1c0,0.1,0.1,0.1,0.1,0.1c0.1,0,0.1,0.1,0.1,0.1l0,0.1l0.1,0.1
		c0.1,0,0.1,0,0.2,0.1c0,0,0.1,0,0.1,0l0,0c0,0.1,0.1,0.1,0.1,0.1c0.1,0,0.2,0,0.2,0.1c0,0,0,0.1,0,0c0.1,0,0.2,0.1,0.2,0
		c0,0,0.1,0,0.1,0l0,0c0.1,0,0.1,0,0.1,0c0,0,0,0,0,0.1c0,0,0,0,0.1,0c0.1,0.1,0.3,0,0.4,0c0.3,0,0.9,0,0.9,0c0,0,0.1,0,0.1,0l0,0
		c0.1,0,0.2-0.1,0.4,0c0,0,0,0,0.1-0.1c0.1,0,0.1,0.1,0.2,0c0,0,0,0,0.1,0c0,0,0,0,0-0.1c0.1,0,0.2,0,0.3-0.1c0,0,0.1,0,0.1,0
		c0,0,0,0,0.1,0c0.1,0,0.3-0.2,0.5-0.2c0,0,0.1,0,0.1-0.1c0,0,0.1,0,0.1,0c0,0,0.1-0.1,0.1-0.1c0.1,0,0.2-0.1,0.3-0.1c0,0,0,0,0-0.1
		l0,0c0.1,0,0.1,0,0.1-0.1c0.1,0,0.1-0.1,0.2-0.2c0,0,0,0,0.1,0c0,0,0,0,0-0.1c0,0,0,0,0.1,0c0.1-0.1,0.1-0.2,0.2-0.2
		c0,0,0-0.1,0-0.1c0.1,0,0-0.1,0.1-0.1c0,0,0.1-0.1,0.1,0c0,0,0.1-0.1,0.1-0.1c0,0,0.1-0.2,0.1-0.3l-0.2-0.6
		c-0.1,0.1-0.4,0.5-0.6,0.6c0,0.1-0.1,0.1-0.2,0.2c0,0,0,0.1,0,0.1c-0.1,0-0.1,0.1-0.2,0.1c0,0,0,0-0.1,0c0,0-0.1,0-0.1,0.1
		c-0.1,0-0.1,0.1-0.2,0.2l0,0c-0.1,0.1-0.3,0.1-0.3,0.2c-0.2,0.1-0.3,0.1-0.5,0.2c0,0-0.1,0-0.1,0c0,0.1-0.1,0-0.2,0.1
		c-0.2,0-0.3,0-0.5,0c0-0.1-0.1,0-0.1,0c-0.1,0.1-0.3,0-0.4,0c0,0-0.1,0-0.1-0.1c-0.1,0-0.2,0-0.3-0.1c-0.1,0-0.1-0.1-0.2-0.1
		c0,0,0,0,0-0.1c0,0,0,0-0.1-0.1c0-0.1,0.1-0.1,0.1-0.1c0.1-0.1,0.2-0.1,0.3-0.1c0,0,0.1-0.1,0.1-0.1c0-0.1,0-0.1,0.1-0.1
		c0.1-0.1,0-0.1,0.1-0.1c0,0,0.1-0.1,0.1-0.1c0.1-0.1,0.1-0.1,0.1-0.3c0.1-0.1,0.1-0.2,0.1-0.3c0,0,0-0.1,0.1-0.2c0-0.2,0-0.3,0-0.5
		c0,0,0,0-0.1-0.1c0-0.1-0.1-0.1,0-0.2c-0.1-0.1-0.1-0.1-0.2-0.2l0-0.1c0,0,0,0-0.1,0c0-0.1-0.1-0.1-0.1-0.1c-0.1,0-0.2-0.1-0.4-0.2
		l0,0l0,0c0,0,0,0-0.1,0.1c0-0.1-0.1,0-0.1-0.1c-0.1,0-0.1,0-0.2,0c-0.2-0.1-0.4,0-0.5,0c0,0.1-0.1,0-0.1,0.1c-0.1,0-0.1,0-0.2,0
		c0,0-0.1,0-0.1,0c-0.1,0.1-0.2,0.2-0.3,0.2c-0.1,0,0,0.1-0.1,0.1c0,0,0,0-0.1,0c-0.1,0.1-0.3,0.3-0.4,0.4c0,0-0.1,0.1,0,0.1
		c0,0,0,0-0.1,0c0,0.1,0,0.1-0.1,0.1c0,0,0,0.1,0,0.1c0,0,0,0.1-0.1,0.1c0,0.1,0,0.2-0.1,0.3c0,0.2-0.1,0.3-0.1,0.5
		c0,0.1,0,0.3,0,0.4c0.1,0.1,0,0.1,0,0.1c0,0,0,0,0,0.1c0,0.1,0.1,0.1,0.1,0.1c0,0,0.1,0.1,0.1,0.1c0,0.1,0,0.1,0,0.1
		c0,0,0.1,0,0.1,0.1L14.2,15.3z M16.1,13.6c-0.1,0,0,0.1-0.1,0.1l0,0c0,0.2-0.2,0.5-0.5,0.7c0,0-0.1,0-0.1,0c0-0.1-0.1-0.1,0-0.2
		c0,0,0,0-0.1,0c0.1-0.1,0-0.1,0-0.2c0,0,0,0,0-0.1c0.1-0.1,0-0.2,0.1-0.3l0,0c0-0.1,0.1-0.1,0.1-0.2c0,0,0,0,0-0.1
		c0.1-0.1,0.3-0.2,0.4-0.2c0,0,0.1,0,0.1,0C16.2,13.4,16.2,13.5,16.1,13.6z"/>
	<path class="st66" d="M21.2,13.3c0,0,0,0.1,0,0.1c0.2,0.2,0.2,0.5,0.3,0.8c-0.1,0.1,0,0.2,0,0.3c0,0,0,0,0.1,0.1
		c-0.1,0.2,0.1,0.4,0.1,0.5c0,0,0,0-0.1,0.1c0,0,0,0.1,0,0.1l0,0l0,0l0,0c0,0,0,0,0,0.1c-0.1,0.1,0.1,0.2,0,0.3c0,0,0,0.1,0,0.1
		c-0.1,0.1,0,0.2-0.1,0.4l0,0l0,0l0,0c0,0,0,0,0,0.1c0,0.1,0.1,0.1,0,0.2l0,0c-0.1,0.1-0.1,0.2-0.2,0.3c0,0,0,0-0.1,0.1
		c0,0,0,0.1,0,0.1c-0.1,0.1-0.1,0.1-0.2,0.2c0,0,0,0.1,0,0.1l0,0c0,0.1-0.1,0.2-0.1,0.2c0,0,0,0,0,0.1c-0.1,0.1-0.2,0.2-0.2,0.3
		c-0.1,0.1-0.1,0.1-0.2,0.2c0,0.1-0.1,0.1-0.1,0.2c0,0.1-0.1,0-0.1,0.1l0,0c0,0,0,0-0.1,0c0,0.1,0,0.1-0.1,0.1c0,0,0,0.1,0,0.1
		c-0.1,0-0.1,0.1-0.2,0.2c0,0-0.1,0.1-0.1,0.1c0,0-0.1,0.1-0.1,0.1c0,0-0.1,0-0.1,0v0c0,0,0,0-0.1,0c-0.3,0.3-0.6,0.4-0.9,0.7
		c-0.1,0-0.1,0.1-0.2,0.1c-0.1,0,0,0.1-0.1,0.1c0,0-0.1,0-0.1,0c-0.1,0.1-0.2,0-0.2,0c0,0,0,0-0.1-0.1l0,0c0,0-0.1-0.1-0.1-0.1
		c0,0,0-0.1,0-0.1l0,0c0,0-0.1,0-0.1,0c-0.1-0.1,0.1,0,0-0.1l-0.1,0c0-0.1-0.1-0.1-0.1-0.1c0-0.1,0.2-0.1,0.2-0.1c0.1,0,0,0,0.1,0
		l0,0c0.1,0,0.1-0.1,0.1-0.1c0,0,0,0,0.1,0c0,0,0.1,0,0.1,0c0,0,0-0.1,0-0.1c0,0,0,0,0.1,0c0.1-0.1,0.1,0,0.2-0.2c0,0,0,0,0-0.1
		c0,0,0-0.1,0.1-0.1c0,0,0,0.1,0,0.1c0.1-0.1,0-0.1,0-0.2c0,0,0,0,0.1-0.1c0,0,0.1,0,0,0c0,0,0-0.1,0.1-0.1c0.1-0.1,0,0,0.1-0.2
		c0,0,0.1,0,0.1-0.1c0,0,0.1,0,0-0.1c0,0,0,0-0.1,0c0-0.1,0.2-0.2,0.2-0.2c0.1,0,0-0.1,0.1-0.1c0,0-0.1,0-0.1,0l0.1,0
		c0.1-0.1-0.1-0.1,0-0.1c0,0,0-0.1,0-0.1c0,0,0-0.1,0-0.1l0,0c0,0,0-0.2,0-0.2c0,0,0-0.1,0-0.1c0.1-0.1,0.1-0.1,0.1-0.2l0,0
		c0,0,0.1,0,0,0c0,0,0,0,0-0.1c0.1,0,0.1-0.3,0.1-0.3c0,0.1-0.1-0.2,0-0.1c0.1-0.1,0-0.3,0-0.5c-0.1,0,0.1-0.1,0-0.1
		c0,0-0.1,0-0.1,0c0,0,0,0,0.1-0.1c0,0,0-0.1,0-0.1c0,0,0-0.1,0-0.1c0,0,0-0.1,0-0.1c0,0,0,0,0.1-0.1c0,0,0,0-0.1,0
		c0-0.1-0.1-0.2-0.1-0.4c0,0,0,0,0-0.1c0.1-0.1,0-0.3,0-0.4c-0.1,0,0-0.1,0-0.2c0,0-0.1-0.1-0.1-0.1c-0.1-0.2-0.1-0.3-0.1-0.5
		c-0.1,0.1-0.1-0.5-0.2-0.7c-0.1-0.1,0-0.3-0.1-0.4c0,0,0.1,0,0.1,0c0-0.1,0.1-0.2,0.1-0.3c0.1,0,0.1-0.1,0.2,0c0.1,0,0-0.1,0-0.1
		c0.1,0,0.2,0,0.4,0c0,0,0,0.1,0,0.1c0.1,0,0.1,0.1,0.3,0c0,0,0,0.1,0,0.1c0.1,0,0.1,0,0.1,0.1c0,0,0.1,0,0.1,0l0,0l0,0
		c0,0,0.1,0,0.1,0c0,0,0,0.1,0.1,0.1C20.9,12.8,21.1,13.1,21.2,13.3z"/>
	<path class="st66" d="M5.4,14c0-0.1-0.1-0.1-0.1-0.1c0,0-0.1,0.1-0.1,0c0,0-0.1,0.1-0.1,0.1c0,0-0.1,0-0.1,0c0,0.1,0,0.1,0.1,0.3
		c0,0,0.1,0.2,0.1,0.2c0-0.1,0.1,0.2,0.1,0.2c0,0,0,0,0,0c0,0,0,0,0,0.1l0.1,0.1c0,0,0,0,0,0.1c0.1,0,0.1,0.1,0.2,0.1c0,0,0,0,0,0
		c0,0,0,0,0.1,0c0.1,0,0,0.1,0,0.1l0,0c0,0,0.1,0.1,0.1,0.1c0.1,0.1,0.4,0.2,0.5,0.3l0,0c0,0.1,0.2,0.1,0.2,0.1l0,0
		c0,0,0.2,0.1,0.3,0.1c0,0,0-0.1,0-0.1c0,0,0.1,0.1,0.2,0.1c0,0,0.1,0,0.2,0c0.1,0.1,0.3,0,0.4,0.1c0,0,0,0,0.1,0l0,0l0,0
		c0.1,0,0.1,0,0.2,0l0,0l0,0c0,0,0,0,0,0.1c0.1,0,0.2,0.1,0.3,0c0,0,0,0,0.1,0c0,0,0,0,0.1,0c0.1,0,0.1,0,0.2,0l0,0
		c0.1-0.1,0.2,0,0.3,0c0,0,0.1,0,0.1,0l0,0c0.1-0.1,0.2,0,0.3,0l0,0c0,0,0,0,0,0c0.1,0,0.2,0,0.3-0.1c0.1,0,0.1,0,0.2,0
		c0,0,0.1,0,0.1,0c0.1-0.1,0.2-0.1,0.3,0c0.1,0,0.3-0.1,0.4-0.1c0,0,0.1,0,0.1,0c0,0,0.1,0,0.1,0c0.1,0,0.2-0.1,0.3-0.2
		c0,0,0.1,0,0.1,0c0,0,0,0,0,0c0.1,0,0.1,0,0.1,0c0,0,0,0,0,0c0.1,0,0,0,0.1-0.1c0.1,0,0.2-0.2,0.3-0.3c0-0.1,0.1-0.1,0.1-0.1
		c0,0,0,0,0.1,0l0,0c0,0,0-0.1,0.1-0.1c0,0,0.1-0.1,0-0.1c0.1-0.1,0.1-0.3,0.2-0.3c0,0,0,0,0,0c0-0.1,0-0.2,0.1-0.2c0,0,0,0,0,0
		c0-0.1,0-0.2,0.1-0.3c0,0,0,0,0,0c0,0,0,0,0,0c0,0,0,0,0-0.1l0,0c0,0,0-0.1,0-0.1l0,0c0-0.1,0-0.2,0-0.3l0,0c-0.1-0.1,0-0.1,0-0.2
		c0,0,0-0.1,0-0.1c-0.1,0,0-0.1,0-0.1c0-0.1-0.1-0.1,0-0.2c0-0.1,0-0.1-0.1-0.1c0,0,0,0,0-0.1c0,0,0,0,0,0c0,0,0-0.1,0-0.1
		c0,0,0-0.1,0-0.1c0-0.1,0-0.2-0.1-0.3c0,0,0-0.2,0-0.3l0,0c0-0.1,0-0.1-0.1-0.1c0,0,0,0,0-0.1c0,0,0,0,0,0c0,0,0,0,0-0.1l0,0
		c0,0-0.1-0.1-0.1-0.1c-0.1-0.1-0.1-0.2-0.2-0.4c0,0,0-0.1-0.1-0.1c-0.1-0.1-0.1-0.2-0.2-0.3c0,0,0,0,0-0.1c0,0,0,0-0.1,0
		c0,0,0,0,0-0.1c-0.2-0.1-0.7-0.2-0.8-0.3c0,0-0.1,0-0.1,0c0,0,0,0,0-0.1c-0.1,0.1-0.2-0.1-0.3-0.1l0,0c0-0.1-0.1,0-0.2,0
		c0,0,0,0-0.1,0c-0.1,0.1-0.2,0-0.3,0.1l0,0l0.3,0.5c0,0,0.1,0.3,0.1,0.5c0,0,0.1,0.1,0.1,0.1c0,0,0,0,0,0.1c0,0.1,0.1,0.1,0.1,0.2
		c0,0,0,0,0,0c0,0.1,0,0.2,0.1,0.3c0,0,0,0.1,0,0.1c0,0,0,0.1,0,0.1c0,0,0,0.1,0,0.1c0,0.1,0,0,0.1,0.1c-0.1,0.1,0,0.2,0,0.3
		c0,0,0,0,0,0c0,0,0,0,0,0c0,0,0,0,0,0c0,0.1,0,0.1,0,0.1c0,0,0,0.1,0,0.1c0,0,0.1,0.1,0,0.1c0,0,0,0.1,0,0.2c0,0,0,0.1,0,0.2
		c0,0,0,0,0,0c0,0,0,0,0,0c0,0,0,0,0,0.1c0,0.1,0,0.1-0.1,0.2c0,0.1,0.1,0.3-0.1,0.3c0,0,0,0.1,0,0.1c0,0,0,0.1-0.1,0.1
		c0,0.1-0.1,0.1-0.1,0.2c-0.1,0-0.1,0.1-0.1,0.1c0,0,0,0,0,0c0,0,0,0,0,0c0,0-0.2,0.1-0.2,0.1l0,0c-0.1,0-0.1,0-0.2,0.1
		c-0.1,0.1-0.2,0.1-0.2,0.1c-0.1,0-0.2,0-0.2,0c0,0-0.1,0-0.1,0c0,0-0.1,0-0.1,0c0,0,0,0.1-0.1,0.1c0,0,0,0,0,0l0,0
		c-0.1,0-0.1,0-0.2,0l0,0c-0.1,0-0.1,0-0.1,0c-0.1,0-0.2,0-0.3,0c0,0,0,0,0,0l0,0c0,0-0.2,0-0.2,0l0,0l0,0l0,0c0,0-0.2-0.1-0.3-0.1
		c0,0-0.1,0-0.1,0c-0.2,0-0.4-0.1-0.5-0.1l0,0c-0.1,0-0.2,0-0.2-0.1c0,0-0.1,0-0.1,0c0-0.1-0.2,0-0.2-0.1c0,0-0.1-0.1-0.1-0.1
		c0,0-0.2-0.1-0.2-0.1l-0.1,0l0-0.1l-0.1-0.1C5.5,14,5.4,14,5.4,14z"/>
	<path class="st66" d="M7.2,10.6C7.3,10.6,7.3,10.7,7.2,10.6c0.2,0.2,0.5,0.1,0.7,0.2c0.1-0.1,0.2,0,0.2,0c0,0,0,0,0,0.1
		c0.2-0.1,0.3,0,0.4,0c0,0,0,0,0.1-0.1c0,0,0.1,0,0.1,0l0,0l0,0l0,0c0,0,0,0,0.1,0c0.1-0.1,0.1,0,0.2-0.1c0,0,0.1,0,0.1,0
		c0.1-0.1,0.1,0,0.2,0l0,0l0,0l0,0c0,0,0,0,0.1,0c0,0,0.1,0.1,0.2,0.1l0,0c0.1,0-0.4-0.1,0.3-0.1c0,0,0,0,0.1,0c0,0,0,0,0.1,0.1
		c0.1,0,0.1,0,0.2-0.1c0,0,0.1,0,0.1,0l0,0c0.1,0,0.2,0,0.2,0c0,0,0,0,0,0c0.1,0,0.2-0.1,0.3,0c0.1,0,0.2-0.1,0.3-0.1
		c0,0.1,0.1,0,0.2,0c0.1,0,0.1,0,0.1,0l0,0c0,0,0,0,0,0c0.1,0,0.1,0,0.1,0c0,0,0,0,0.1,0c0.1,0,0.1,0,0.2,0c0,0,0.1,0,0.1,0
		c0,0,0.1,0,0.1,0c0,0,0,0,0.1,0l0,0c0,0,0,0,0.1,0c0.3,0,0.5-0.2,0.9-0.2c0.1,0,0.1-0.1,0.2-0.1c0.1,0,0.1,0,0.1,0
		c0,0,0.1,0,0.1-0.1c0.1,0,0.1-0.2,0.2-0.2c0,0,0,0,0-0.1l0,0c0,0,0-0.2,0-0.2c0,0-0.1,0,0,0l0,0c0,0,0-0.1,0-0.1c0-0.1-0.1,0-0.1,0
		l0.1-0.1c0-0.1-0.2-0.1-0.2-0.1c0,0,0,0-0.1,0.1l0,0c-0.1,0-0.1,0-0.1,0c0,0,0,0,0,0c0,0,0,0-0.1,0c0,0,0,0-0.1,0c0,0,0,0,0,0
		c-0.2,0-0.5,0-0.6,0c0,0,0,0-0.1,0c0,0,0,0,0,0c0,0-0.1,0-0.1,0c-0.1,0-0.4,0-0.4,0c-0.1,0-0.2,0-0.2,0c0,0.1-0.1,0-0.1,0
		c0,0-0.1,0,0,0l0,0c-0.1,0-0.1-0.1-0.2,0c0,0,0,0,0,0c0,0,0,0-0.1,0l0,0c0,0-0.1-0.1-0.2,0c0,0-0.1,0-0.1,0
		c-0.1,0.1-0.2,0.1-0.3,0.1l0,0c0,0,0,0.1,0,0c0,0,0,0-0.1,0c-0.1,0-0.3,0-0.3,0c0.1,0-0.1-0.1-0.1,0c-0.1,0.1-0.3,0-0.5,0
		c0-0.1-0.1,0-0.1,0c0,0,0-0.1,0-0.1c0,0-0.1,0-0.1,0c0,0-0.1,0-0.1,0c0,0-0.1,0-0.1,0c0,0-0.1,0,0,0c0,0-0.1,0.1-0.1,0.1
		c0,0,0,0,0-0.1C9.2,9.3,9.1,9.2,9,9.2c0,0,0,0-0.1,0c-0.1,0.1-0.3,0-0.4,0c0-0.1-0.1,0-0.1,0c0,0-0.1,0-0.1,0
		c-0.1-0.1-0.3,0-0.4-0.1C8,9.1,7.5,9.1,7.3,9C7.2,9,7,9,6.9,9c0,0,0,0.1,0,0.1C6.8,9,6.7,9.1,6.6,9.1c0,0.1-0.1,0.1-0.1,0.1
		c0,0.1,0,0.1-0.1,0.1c0,0.1,0,0.1-0.1,0.2c0,0,0.1,0,0.1,0c0,0.1,0,0.1,0,0.2c0,0,0.1,0,0.1,0c0,0.1,0,0.1,0,0.1c0,0,0,0.1,0,0.1
		l0,0l0,0c0,0,0,0.1,0,0.1c0,0,0.1,0,0.1,0.1C6.8,10.4,7,10.5,7.2,10.6z"/>
</g>
<g>
	<path class="st67" d="M4.3,11.8L4,12.2c-0.3-0.2-0.6-0.4-0.7-0.8c-0.1,0.4-0.4,0.7-0.7,0.9l-0.3-0.4C2.8,11.6,3,11,3,10.5v-0.1H2.4
		V10h1.8v0.4H3.6v0.1C3.6,11,3.7,11.5,4.3,11.8z M4.3,9.7h0.5v1.2h0.4v0.5H4.9v1.5H4.3V9.7z"/>
	<path class="st67" d="M8.2,11.9H7.6v1H7.1v-1H6.5v1H6v-1H5.4v-0.4h2.9V11.9z M6.8,9.8c0.7,0,1.2,0.3,1.2,0.7c0,0.4-0.5,0.7-1.2,0.7
		c-0.7,0-1.2-0.3-1.2-0.7C5.6,10.1,6.1,9.8,6.8,9.8z M6.8,10.8c0.4,0,0.6-0.1,0.6-0.3c0-0.2-0.2-0.3-0.6-0.3c-0.4,0-0.6,0.1-0.6,0.3
		C6.2,10.7,6.4,10.8,6.8,10.8z"/>
	<path class="st67" d="M10.2,10.7c0,0.4-0.3,0.7-0.6,0.8v0.4c0.2,0,0.4,0,0.6-0.1l0,0.4c-0.7,0.1-1.3,0.1-1.9,0.1l-0.1-0.4
		c0.2,0,0.5,0,0.7,0v-0.4c-0.4-0.1-0.6-0.4-0.6-0.8c0-0.5,0.4-0.8,0.9-0.8C9.8,9.9,10.2,10.2,10.2,10.7z M9.3,11
		c0.2,0,0.3-0.1,0.3-0.3c0-0.2-0.2-0.3-0.3-0.3c-0.2,0-0.4,0.1-0.4,0.3C9,10.9,9.1,11,9.3,11z M10.4,9.7h0.6v1.2h0.4v0.5h-0.4v1.5
		h-0.6V9.7z"/>
	<path class="st67" d="M12.8,11.2v-0.1c-0.3,0-0.5-0.2-0.5-0.4c0-0.3,0.3-0.4,0.8-0.4c0.5,0,0.8,0.2,0.8,0.4c0,0.2-0.2,0.4-0.5,0.4
		v0.1c0.2,0,0.5,0,0.7-0.1l0,0.3c-0.7,0.1-1.4,0.1-1.9,0.1l-0.1-0.4C12.3,11.2,12.6,11.2,12.8,11.2z M12.2,9.9h0.6V9.7h0.5v0.2H14
		v0.4h-1.8V9.9z M12.5,12.1h1.6V12L12.5,12.1v-0.4h2.2v0.8h-1.6v0.1h1.7v0.4h-2.3V12.1z M13.1,10.8c0.2,0,0.3,0,0.3-0.1
		c0-0.1-0.1-0.1-0.3-0.1c-0.2,0-0.3,0-0.3,0.1C12.8,10.7,12.9,10.8,13.1,10.8z M14.7,10.4h0.4v0.5h-0.4v0.7h-0.5V9.7h0.5V10.4z"/>
	<path class="st67" d="M16.7,10.9h-0.9v0.2c0.4,0,0.7,0,0.9-0.1l0,0.4c-0.4,0.1-0.7,0.1-1.3,0.1h-0.2v-1.1h0.9v-0.2h-0.9V9.9h1.4
		V10.9z M15.7,11.8h2.2v1.1h-0.5v-0.7h-1.7V11.8z M16.9,10.8h0.5v-0.3h-0.5v-0.4h0.5V9.7h0.5v2h-0.5v-0.4h-0.5V10.8z"/>
	<path class="st67" d="M19.2,9.9c0.5,0,0.8,0.4,0.8,1.1c0,0.7-0.4,1.1-0.8,1.1c-0.5,0-0.9-0.4-0.9-1.1C18.3,10.3,18.7,9.9,19.2,9.9z
		 M19.2,11.7c0.2,0,0.3-0.2,0.3-0.6c0-0.4-0.1-0.6-0.3-0.6c-0.2,0-0.3,0.2-0.3,0.6C18.8,11.5,19,11.7,19.2,11.7z M20.9,12.9h-0.6
		V9.7h0.6V12.9z"/>
	<path class="st67" d="M22.2,9.9h0.5V11c0.3,0,0.7,0,1.1-0.1l0.1,0.5c-0.5,0.1-1,0.1-1.4,0.1h-0.3V9.9z M24.7,12.8h-2.2v-1.2h2.2
		V12.8z M24.2,12.4V12h-1.1v0.3H24.2z M23.5,10.2h0.7V9.7h0.5v1.8h-0.5v-0.9h-0.7V10.2z"/>
	<path class="st67" d="M25.8,10.7L25.8,10.7l-0.6,0v-0.4h0.6V9.8h0.5v0.4h0.6v0.4h-0.6v0c0,0.4,0.2,0.9,0.7,1.2l-0.3,0.4
		c-0.3-0.1-0.6-0.4-0.7-0.7c-0.1,0.3-0.4,0.6-0.7,0.8L25,11.9C25.6,11.6,25.8,11.1,25.8,10.7z M27.7,12.9h-0.5V9.7h0.5V12.9z"/>
	<path class="st67" d="M28.1,11.2H31v0.4h-2.9V11.2z M28.4,11.9h0.6v0.5h1.7v0.4h-2.3V11.9z M30.7,10.9h-2.2V9.8H29v0.7h1.7V10.9z"
		/>
	<path class="st68" d="M5.4,15.1H5l-0.4,2.1h0.4l-0.2,1.2H1.2l0.2-1.2h0.4l0.4-2.1H1.9l0.2-1.2h3.4L5.4,15.1z M3.1,17.1h0.2l0.4-2.1
		H3.5L3.1,17.1z M7.3,15.5l-0.3,1.2H6.7l-0.3,1.6H4.8l0.9-4.4h1.5l-0.4,1.7H7.3z"/>
	<path class="st68" d="M8,17.6H7l0.3-1.2h3.5l-0.3,1.2h-1l-0.2,0.7H7.9L8,17.6z M7.5,15c0.2-0.9,0.8-1.1,2-1.1c1,0,1.5,0.2,1.5,0.7
		h0.4l0.1-0.7H13l-0.9,4.4h-1.5l0.6-2.6h-0.4c-0.3,0.4-0.9,0.6-1.7,0.6c-1.2,0-1.7-0.3-1.5-1.1L7.5,15z M9.6,15
		c0.1-0.3-0.1-0.4-0.3-0.4c-0.2,0-0.4,0.1-0.4,0.4l0,0.1c-0.1,0.3,0.1,0.4,0.3,0.4C9.3,15.5,9.5,15.4,9.6,15L9.6,15z"/>
	<path class="st68" d="M18.1,16.1h-1.8l0,0.2H18l-0.3,1.3h-3.1l0,0.2h3.1l-0.1,0.6h-5l0.3-1.3H16l0-0.2h-3.1l0.1-0.6h1.7l0-0.2H13
		l0.1-0.6h5.2L18.1,16.1z M13.5,13.9h5l-0.1,0.6h-0.5l-0.1,0.3h0.5l-0.1,0.6h-5l0.1-0.6h0.5l0.1-0.3h-0.5L13.5,13.9z M15.4,14.7h0.9
		l0.1-0.3h-0.9L15.4,14.7z"/>
	<path class="st68" d="M23.1,15.1h-1.2l-0.4,2.1h1.2l-0.2,1.2h-2.7l0.9-4.4h2.7L23.1,15.1z M24.9,18.3h-1.1l0.4-1.7H24l-0.4,1.7
		h-1.1l0.9-4.4h1.1l-0.4,1.7h0.2l0.4-1.7h1.1L24.9,18.3z"/>
	<path class="st68" d="M30.7,17.1h-1.8l-0.3,1.3h-1.5l0.3-1.3h-1.8l0.2-1.1h3.3l0.4-0.9h-3.3l0.2-1.2h4.9l-0.2,1L30.6,16H31
		L30.7,17.1z"/>
</g>
</svg>
