<?xml version="1.0" encoding="utf-8"?>
<!-- Generator: Adobe Illustrator 16.0.0, SVG Export Plug-In . SVG Version: 6.00 Build 0)  -->
<!DOCTYPE svg PUBLIC "-//W3C//DTD SVG 1.1//EN" "http://www.w3.org/Graphics/SVG/1.1/DTD/svg11.dtd">
<svg version="1.1" xmlns="http://www.w3.org/2000/svg" xmlns:xlink="http://www.w3.org/1999/xlink" x="0px" y="0px" width="32.5px"
	 height="28px" viewBox="0 0 32.5 28" enable-background="new 0 0 32.5 28" xml:space="preserve">
<style type="text/css">
	.st0{fill:url(#SVGID_1_);}
	.st1{fill:#014693;}
</style>
<g>
	
		<radialGradient id="SVGID_1_" cx="1529.6245" cy="1074.7677" r="4.4016" gradientTransform="matrix(1.1861 0 0 1.1861 -1793.8656 -1261.5244)" gradientUnits="userSpaceOnUse">
		<stop  offset="0" style="stop-color:#FFFFFF"/>
		<stop  offset="0.0158" style="stop-color:#F3FBF7"/>
		<stop  offset="0.0932" style="stop-color:#BEE8D4"/>
		<stop  offset="0.1716" style="stop-color:#90D8B6"/>
		<stop  offset="0.2494" style="stop-color:#6ACB9E"/>
		<stop  offset="0.3265" style="stop-color:#4DC18B"/>
		<stop  offset="0.4027" style="stop-color:#39BA7D"/>
		<stop  offset="0.4777" style="stop-color:#2CB575"/>
		<stop  offset="0.55" style="stop-color:#28B472"/>
		<stop  offset="0.5993" style="stop-color:#21A278"/>
		<stop  offset="0.6982" style="stop-color:#117286"/>
		<stop  offset="0.78" style="stop-color:#014693"/>
	</radialGradient>
	<path class="st0" d="M20.42,11.27c1.41,0,2.7,0.54,3.66,1.43V8.3h-1.85v1.45c-0.49-0.19-1.06-0.32-1.7-0.35c-0.04,0-0.18,0-0.22,0
		c-0.64,0.03-1.21,0.16-1.7,0.35V8.3h-1.85v4.41C17.72,11.81,19,11.27,20.42,11.27z"/>
	<g>
		<polygon class="st1" points="9.65,16.77 7.8,16.77 7.8,19.7 15.36,19.7 15.36,18.12 9.65,18.12 		"/>
		<path class="st1" d="M9.58,14.87c0.47,0.27,1.1,0.8,1.3,1.72h1.72c-0.24-1.81-1.4-2.76-2.25-3.23c0.13-0.43,0.19-0.85,0.21-1.2
			h1.69v-1.58H6.77v1.58h1.94c-0.03,0.54-0.17,1.27-0.6,1.83c-0.42,0.55-1.02,0.95-1.86,1.16l0.72,1.35
			C8.08,16.21,8.96,15.66,9.58,14.87z"/>
		<path class="st1" d="M21.46,14.19h4.79c-1.49-1.04-3.56-1.68-5.83-1.68c-1.91,0-3.66,0.45-5.06,1.2v-3.14H13.5v2h-1.25v1.61h1.25
			v2.4h1.85v-2.4h4.01v0.82h-2.61v1.58h5.46v1.97h1.85v-3.55h-2.61V14.19z"/>
	</g>
</g>
</svg>
