<?xml version="1.0" encoding="utf-8"?>
<!-- Generator: Adobe Illustrator 16.0.0, SVG Export Plug-In . SVG Version: 6.00 Build 0)  -->
<!DOCTYPE svg PUBLIC "-//W3C//DTD SVG 1.1//EN" "http://www.w3.org/Graphics/SVG/1.1/DTD/svg11.dtd">
<svg version="1.1" id="Layer_1" xmlns="http://www.w3.org/2000/svg" xmlns:xlink="http://www.w3.org/1999/xlink" x="0px" y="0px"
	 width="23px" height="23px" viewBox="0 0 23 23" enable-background="new 0 0 23 23" xml:space="preserve">
<g>
	<path fill="#45BFBB" d="M20.909,0H2.09C0.938,0,0,0.947,0,2.099v12.6c0,1.154,0.938,2.1,2.09,2.1h7.318l-2.091,3.148V21h8.365
		v-1.053l-2.091-3.148h7.318c1.149,0,2.091-0.945,2.091-2.1v-12.6C23,0.947,22.059,0,20.909,0z M11.5,15.656
		c-0.326,0-0.591-0.264-0.591-0.59c0-0.328,0.265-0.594,0.591-0.594s0.589,0.266,0.589,0.594
		C12.089,15.393,11.826,15.656,11.5,15.656z M20.909,13.625H2.09V2.099h18.819V13.625z"/>
	<path fill="#45BFBB" d="M14.957,9.188l1.432-1.435l-1.432-1.437V4.28H12.93L11.5,2.846l-1.43,1.435H8.042v2.037l-1.43,1.437
		l1.43,1.435v2.037h2.027l1.43,1.437l1.431-1.437h2.026L14.957,9.188L14.957,9.188z M11.5,10.355V5.149
		c1.43,0,2.591,1.168,2.591,2.604C14.091,9.188,12.93,10.355,11.5,10.355z"/>
</g>
</svg>
