<?xml version="1.0" encoding="utf-8"?>
<!-- Generator: Adobe Illustrator 16.0.0, SVG Export Plug-In . SVG Version: 6.00 Build 0)  -->
<!DOCTYPE svg PUBLIC "-//W3C//DTD SVG 1.1//EN" "http://www.w3.org/Graphics/SVG/1.1/DTD/svg11.dtd">
<svg version="1.1" id="Layer_1" xmlns="http://www.w3.org/2000/svg" xmlns:xlink="http://www.w3.org/1999/xlink" x="0px" y="0px"
	 width="23px" height="23px" viewBox="0 0 23 23" enable-background="new 0 0 23 23" xml:space="preserve">
<g>
	<path fill="#45BFBB" d="M21.355,0H1.643C0.735,0,0,0.741,0,1.648V19.35C0,20.256,0.735,21,1.643,21h19.712
		C22.262,21,23,20.256,23,19.35V1.648C23,0.741,22.262,0,21.355,0z M5.339,1.24c0.455,0,0.821,0.365,0.821,0.826
		c0,0.455-0.366,0.82-0.821,0.82c-0.456,0-0.824-0.365-0.824-0.82C4.515,1.605,4.883,1.24,5.339,1.24z M2.874,1.24
		c0.453,0,0.82,0.365,0.82,0.826c0,0.455-0.367,0.82-0.82,0.82c-0.455,0-0.821-0.365-0.821-0.82C2.053,1.605,2.419,1.24,2.874,1.24z
		 M20.781,18.771H2.217V4.723h18.564V18.771z"/>
	<g>
		<path fill="#45BFBB" d="M13.816,17.241c-0.002,0-0.004,0-0.006,0c-0.326-0.002-0.606-0.229-0.68-0.552l-1.402-6.356l-1.06,3.849
			c-0.079,0.289-0.331,0.495-0.63,0.516c-0.294,0.029-0.574-0.153-0.69-0.43l-0.866-2.063l-0.459,0.773
			c-0.126,0.213-0.354,0.344-0.602,0.344H3.964c-0.388,0-0.701-0.314-0.701-0.703s0.313-0.704,0.701-0.704h3.06l0.962-1.627
			c0.135-0.229,0.389-0.365,0.65-0.344c0.265,0.018,0.496,0.185,0.599,0.43l0.623,1.479l1.272-4.622
			c0.085-0.312,0.353-0.492,0.692-0.515c0.321,0.007,0.597,0.235,0.667,0.55l1.354,6.127l0.26-1.102
			c0.074-0.316,0.357-0.54,0.683-0.54h4.386c0.387,0,0.7,0.313,0.7,0.703s-0.313,0.704-0.7,0.704h-3.831l-0.84,3.539
			C14.423,17.018,14.143,17.241,13.816,17.241z"/>
	</g>
</g>
</svg>
