<?xml version="1.0" encoding="utf-8"?>
<!-- Generator: Adobe Illustrator 16.0.0, SVG Export Plug-In . SVG Version: 6.00 Build 0)  -->
<!DOCTYPE svg PUBLIC "-//W3C//DTD SVG 1.1//EN" "http://www.w3.org/Graphics/SVG/1.1/DTD/svg11.dtd">
<svg version="1.1" xmlns="http://www.w3.org/2000/svg" xmlns:xlink="http://www.w3.org/1999/xlink" x="0px" y="0px" width="261px"
	 height="292px" viewBox="0 0 261 292" enable-background="new 0 0 261 292" xml:space="preserve">
<g id="Layer_2">
	
		<path fill="#00808E" stroke="#00808E" stroke-width="3" stroke-linecap="round" stroke-linejoin="round" stroke-miterlimit="10" d="
		M256.678,55.291c0.666,0.303,1.305,0.696,1.947,1.029c-2.275,0.167-3.252,1.907-3.791,3.949l-1.287,0.678
		c-0.691-0.836-2.037-2.068-3.184-2.095c-0.545,0.713-1.326,1.447-2.102,1.909c-0.789,0-1.734-0.094-2.518,0l-1.17,0.429
		c-0.047,0.038-1.963,2.038-2.002,2.095l-0.258,0.984c0,0.054,0.523,1.975,0.572,2.158c-0.551,1.351-1.902,2.061-2.775,3.133
		c-0.24,0.296-0.393,1.485-1.383,2.092c-1.75,1.08-3.854,0.909-5.635,1.72c-1.316,1.421-1.064,3.282-3.025,4.316
		c-0.275,0.133-1.482,0.257-2.16,0.606c-0.389,0.72-1.334,1.493-2.053,1.853c-0.18,0.087-0.938,0.22-1.08,0.306l-1.123,0.983
		c-0.594,1.049-0.797,2.4-1.385,3.447c-0.311,0.553-1.723,1.368-2.359,1.478l-0.82,1.046c0.178,1.039-0.646,4.471-1.227,5.354
		l-1.18,0.735l-0.977,3.256l0.664,0.994l2.414,0.799c0.861,0.523,1.439,2.407,1.484,3.32c0.018,0.352-0.414,3.148-0.672,3.509
		c-0.477,0.663-1.311,1.368-1.891,1.969c-0.287,2.111-1.713,5.26-4.305,4.987c-1.424-0.15-3.424-0.867-4.822-0.557
		c-0.734,0.8-2.297,2.315-3.393,2.642c-1.154-0.242-2.367-0.568-3.531-0.734c-1.313-0.187-2.494,0.814-3.33,1.72l-1.135-0.797
		c-0.375-0.758-0.318-1.47-0.561-2.212c-0.25-0.789-0.721-1.414-0.869-2.281c-0.896-1.063-2.625-1.883-3.18-2.523
		c-0.039-0.05-2.305-3.517-2.359-3.627c-0.016-0.03-0.094-1.007-0.102-1.11c-0.666-0.288-1.531-0.493-2.262-0.493
		c-0.419-0.679-1.449-1.515-2.199-1.782c-0.205-0.079-0.939-0.055-1.125-0.123c-0.672-0.258-1.416-0.759-2.057-1.11l-2.001,2.281
		l0.563,2.336l-1.182,0.554l-2.303-0.375l-0.924,1.174c0.18,0.709,0.475,1.555,0.563,2.274c0.021,0.163-0.178,0.969-0.154,1.11
		c0.109,0.731,0.461,1.617,0.67,2.334l-1.188,0.867c-1.166-0.303-2.36-0.687-3.532-0.921c-1.095-0.22-2.47-0.007-3.384-0.807
		c-2.266,0.807-5.127-2.819-6.869-2.273l-0.664,1.228c-1.181,0.859-2.408,0.39-3.438,1.663l-0.72,2.158
		c-0.68,0.484-1.634,0.955-2.461,1.102l-0.57,1.11l-1.172,0.181l-0.721-2.276c-0.951-0.944-2.217-1.608-3.531-1.843
		c-0.102,0.118-0.944,1.047-0.977,1.11c-0.047,0.078-0.209,0.944-0.258,1.108c-0.118,0.338-0.406,0.759-0.469,1.102
		c-0.109,0.611,0.078,1.564-0.102,2.399c-0.674,0.533-1.376,1.25-1.837,1.971c0.016,4.047-2.118,4.587-2.361,6.828
		c0.175,0.985,1.78,2.487,2.563,3.081c0.336,0.258,0.798,0.413,1.127,0.679c1.187,0.969,4.047,3.072,4.047,4.861l-1.227,0.796
		c-1.111-0.28-1.688,0.166-2.518,0.124c-1.103-0.052-1.539-0.811-2.352-1.296c-0.335-0.194-0.828-0.258-1.18-0.429
		c-1.205-0.579-2.338-1.681-3.237-2.641l-1.076-0.063c-0.673,0.47-1.423,1.322-1.735,2.087l-3.596,0.501
		c-0.875-0.854-0.985-1.595-1.437-2.157c-0.493-0.609-1.58-1.321-2.354-1.478l-1.182,0.679c-0.842,1.064-0.678,2.461-1.592,3.448
		l0.258,2.272c-0.641,0.186-1.705,0.111-2.308-0.188c-0.49,0.462-1.008,1.534-0.927,2.22l-1.172,0.984
		c-1.448,0.201-3.393-0.094-4.722-0.681c-2.069,0.345-2.517,2.049-3.688,3.447l0.804,0.462c0.634,0.077,1.712-0.609,2.125-1.019
		c0.962,0.034,2.993,0.455,3.688,1.212l0.784,1.664c0.751-0.021,2.202,0.284,2.767,0.854l-0.25,2.204l1.023,0.819l0.369,1.007
		c-0.743,0.814-0.626,1.986-0.648,2.994c0,0.051-0.471,0.734-0.44,1.191c0.056,0.732,0,1.475-0.039,2.199
		c-0.603,0.074-1.477,0.641-1.758,1.184l-0.14,1.709l-0.454,0.477l-1.031-0.617l0.234-1.398c-0.359-0.455-1.173-1.83-0.999-2.463
		l-1.024-0.975c-0.845,0.061-1.86,0.031-2.688-0.197l-0.421-0.859l0.421-1.391l-0.148-0.587l-1.172-1.021
		c0.178-0.736-0.063-1.922-0.391-2.586l-0.548,0.186c-0.508,1.539-1.688,2.759-2.171,4.305l-1.274,0.734l-1.189-0.117l-0.766,1.104
		c-0.085,0.867,1.172,2.609,1.697,3.205l-0.461,0.986c-0.67-0.182-1.797,0.176-2.313,0.615c-0.666,0.025-1.72-0.502-2.204-0.93
		c-1.227,0.148-1.611,0.922-2.456,1.234c-1.164,0.422-2.475,0.193-3.491,1.109c-0.026,0.104-0.258,1.063-0.258,1.102
		c0.008,0.055,0.6,2.125,0.616,2.158c0.384,0.729,2.563,1.93,3.283,2.211l0.67,1.109c0.698,0.072,1.634-0.164,2.251-0.494
		c1.367,1.244,3.702-0.1,5.797,1.846c2.706,2.523,0.382,4.867,2.72,6.713c0.805,0.338,2.478,0.854,3.384,0.674l0.765,1.045
		c-0.476,2.297,0.766,2.707,0.922,4.494c-1.078,0.35-1.633,1.152-2.46,1.539c-1.008,0.469-2.478,0.734-3.587,0.984
		c-0.14,1.518,1.251,2.836,1.539,4.305c-1.25,2.434-0.235,3.078-0.671,4.373c-0.265,0.795-0.984,1.471-1.023,2.396
		c-0.007,0.111,0.235,0.924,0.257,1.113c0.039,0.385-0.063,0.84,0,1.219c0.102,0.668,0.649,1.545,1.077,2.039
		c0.478,1.508-1.311,3.449-2.258,4.367l-1.126,0.188l0.41,2.273l2.202,0.918c0.079,0.729,0.64,1.742,1.182,2.221
		c-0.25,1.734,0.459,3.055,1.437,4.486l-0.038,1.135c-0.523,1.008-2.066,2.107-3.229,2.094l-1.736,2.219l-2.201,0.807
		c-0.375,0.504-0.579,1.551-0.41,2.164c-0.648,0.381-1.428,1.494-1.428,2.281c0.796,0.912,0.477,2.313,0.678,3.398
		c0.026,0.125,0.409,0.809,0.462,0.984c0.118,0.377,0.103,0.805,0.212,1.182c0.22,0.742,0.524,1.494,0.782,2.219
		c1.046-0.037,2.295-0.201,3.33-0.117c0.78,0.066,1.258,0.801,2.304,0.369c0.618-0.742,1.032-2.363,1.118-3.281
		c0.634-0.316,1.531-1.244,1.633-1.979l1.274-0.492c0.42,0.859,0.587,2.463,0.634,3.391l1.023,1.061
		c1.007,0.006,2.64,0.355,3.383,1.105c0.29,0.281,0.431,0.826,0.72,1.107c0.359,0.346,1.758,0.971,2.266,1.105l-0.046,1.182
		c1.242,0.918,2.819,2.023,4.453,1.654c1.289-0.875,1.273-2.146,2.296-3.154c0.909-0.244,1.767,0,2.402-0.127
		c0.317-0.063,2.156-0.744,2.304-0.752c0.11,0,3.023,0.555,3.32,0.613l0.72,1.047l2.148,0.734l0.822,1.221
		c-0.845,0.582-2.581,1.986-3.01,2.98l-0.048,1.111c0.658,0.887,1.094,2.146,1.033,3.266c0.443,0.508,1.522,1.244,2.24,1.221
		c-0.202,0.75,0.533,2.516,0.875,3.141c-0.959,0.869-2.225,1.326-3.517,1.256c-0.46-0.998-2.093-2.131-3.016-2.631
		c-2.884-1.576-4.9,2.107-7.042,1.943l-0.958,1.119c-0.009,0.107-0.064,1.078-0.05,1.115c0.227,0.773,0.773,1.59,1.08,2.348
		c0.671,1.631,1.244,4.141,2.367,5.496c-0.085,0.166-1.101,2.115-1.11,2.16c-0.18,0.869-0.07,2.531-0.094,3.471
		c-0.625,0.863-2.522,1.584-3.517,1.74l-0.454,1.184c0.196,0.678,0.275,1.576,0.166,2.283c-3.634,4.408-0.009,6.154-1.72,8.773
		c-1.18,0.436-1.156,1.168-1.838,1.787c-0.288,0.275-0.843,0.447-1.179,0.684c-0.367,0.264-0.687,0.691-1.069,0.926
		c-0.291,0.18-0.807,0.303-1.134,0.432l-1.225-0.682c-2.384-0.508-3.05,2.789-4.915,3.516c-0.784,0.316-1.542,0.229-2.307,0.744
		c0.007,0.758-0.735,1.932-1.252,2.432l-0.008,0.008c-1.687,0.166-2.25-1.203-3.251-1.947c-0.639-0.479-1.467-0.881-2.156-1.297
		c-1.164,0.242-2.694,0.393-3.796,0.797c-0.307,0.113-0.433,0.266-0.705,0.445c-0.868,0.547-1.103,0.758-1.383,0.859
		c-0.266,0.104-0.576,0.104-1.57,0.234l-0.773,0.098c-0.703,0.676-2.439,2.123-3.456,2.311c-1.118-0.477-2.421-0.145-3.354,0.586
		l-1.708-0.516l0.827-1.654l-0.514-1.043l-1.031,0.119L91.1,285.98l-1.089,0.971l-0.717-1.176l-1.041,0.479
		c-0.177-0.43-0.741-1.002-1.202-1.135l-0.5,0.688c-0.095-0.076-1.103-0.857-1.133-0.873c-0.639-0.227-1.689-0.285-2.376-0.395
		c-0.883-0.785-1.33-3.164-1.242-4.316l-1.039-0.932l-1.133-0.008l-2.166,1.697l0.048,2.221c-0.352,0.529-1.204,1.371-1.843,1.561
		c-1.18-1.545-0.845-2.695-1.353-3.871c-0.342-0.758-1.304-1.047-1.383-2.289h-0.009l-2.163-1.305
		c-0.447-1.615-1.353-4.563-3.198-5.182c-0.243-0.797-0.07-1.443-0.156-2.209c-0.046-0.484-0.553-2.006-0.875-2.346
		c-1.252-1.344-4.157-3.063-4.157-5.178c0-0.098,0.196-2.297,0.205-2.342c0.318-1.137,2.031-4.131,1.492-5.215
		c-0.557-0.471-1.22-1.424-1.383-2.15l0.772-1.174l-0.924-1.162c-0.03-0.848,0.75-2.486,1.133-3.195l-0.615-3.389
		c-1.174-0.781-1.86-2.199-3.189-2.701c-1.648-0.385-2.188,1.367-4.71,0c-0.259-0.75-0.711-1.529-1.182-2.16l-1.235-0.43
		l-0.413-1.045c-2.469,0.189-5.103,3.463-7.672,2.445l-0.016-0.006c-0.197-0.781-1.007-1.963-1.08-2.268
		c-0.015-0.076-0.36-3.189-0.36-3.258c0-0.092,0.423-0.938,0.462-1.113c0.087-0.334,0-0.758,0.054-1.1
		c0.132-0.85,0.587-1.689,1.284-2.221c0.038-1.211-0.845-2.068-0.822-3.258l0.773-1.047c-0.414-0.803-0.312-2.537-0.156-3.381
		c1.235-1.236,1.414-2.824,1.18-4.494l0.978-1.113l0.147-0.984l1.024-0.121l1.454-2.137c-0.171-1.252,0.64-2.344,0.821-3.508
		c0.171-1.129-0.267-2.313,0.203-3.443c0.094-0.098,1.03-0.969,1.08-0.984c0.883-0.402,3.186-0.697,4.195-0.598l0.633-0.584
		l-0.811-2.168l-1.172-0.918l-0.344-2.203l-2.29,0.248l-1.518-0.977l-1.467,0.287l-0.978,3.957l-1.565-0.639
		c-0.53-1.605-1.522-4.176-2.63-5.516l0.633-1.949c1.813-1.244,2.055-0.811,1.952-3.121c-1.069,0.121-2.304,0.006-3.369-0.107
		l-0.437-0.826l0.727-3.176l-0.681-0.584l-1.905,0.189c-0.22,0.355-0.462,0.684-0.734,0.986c-0.236,0.273-0.634,1.65-0.68,2.039
		c-0.212,1.605-0.439,1.814-1.906,2.531l-1.712-0.131c-0.313-0.439-1.037-1.324-1.603-1.324c-1.28,0-6.767,1.6-6.453-0.971
		c0.156-1.313,0.34-2.629,0.5-3.941c0.156-1.271,0.118-1.438-0.792-2.424c-0.53-0.568-1.741-1.395-2.046-2.033
		c-0.235-0.5-1.515-0.652-1.664-0.029c-0.125,0.521-1.331,2.113-1.915,1.971c-0.534-0.123-1.056-0.273-1.595-0.381h-0.007
		l-1.322-1.998c0.447-0.652,1.235-1.553,1.549-2.244c0.016-0.035,0.156-1.48,0.17-1.615l-1.64-2.279l0.258-0.986l1.078-0.668
		l-0.158-2.463l-1.125-0.619l-1.333-2.273c-0.743,0.025-1.707-0.193-2.354-0.555c0.164-1.398-2.36-3.58-3.596-3.938
		c-0.665-0.195-1.516-0.258-2.202-0.365c-0.086-0.707-0.257-1.525-0.257-2.223c0-0.732,0.341-1.414,0.257-2.213
		c-0.181-0.303-0.5-0.725-0.618-1.045c-0.109-0.305-0.063-0.729-0.154-1.047c-0.206-0.734-0.603-1.479-0.769-2.215
		c-0.17-0.771,0.167-1.336-0.356-2.219c-1.087-0.662-1.618-0.193-2.409-0.367c-1.031-0.225-2.157-1.164-3.282-0.678l-0.155-1.164
		l1.179-0.557v-1.235C3.399,147.35,4,146.459,4.648,145.8c1.031-1.03,3.391-2.14,2.979-4.001c-0.604-0.6-1.206-1.429-1.54-2.21
		c0.407-1.048,2.29-2.314,3.226-2.766c0.008-0.515,0.166-2.877,0.416-3.331c0.398-0.708,2.498-2.539,3.124-3.07l1.134,0.547
		l1.274-0.305c0.413-0.784-0.276-2.595-0.659-3.259l0.455-1.111l2.414-0.313c0.572-0.648,1.456-1.312,2.25-1.656
		c1.289-0.054,2.308,0.788,3.597,0.556c1.03,0.437,2.523,1.857,3.28,2.641c1.729-0.14,2.854-2.007,3.282-3.5
		c-0.39-0.844-1.595-2.656-2.569-2.955c-0.158-0.728-0.704-1.584-1.227-2.093l0.82-2.276c-0.718-1.57-2.423-2.983-3.696-4.063
		c-1.171,0.03-2.695-0.437-3.532-1.29c-0.664-0.68-0.815-1.314-1.846-2.095l-1.076,0.179l-2.259-1.289
		c0.045-1.421,0.225-2.906,0.516-4.305l-1.025-0.86c-0.874,0.133-2.806,0.155-3.594-0.368l-0.72-1.11l0.663-1.045
		c-0.716-1.103,0.167-2.221-0.811-3.448c-1.08-0.561-2.383-1.258-3.259-2.123c0.914-0.822,1.562-2.058,2.236-3.065
		c0.272-0.421,0.476-0.641,0.708-1.089c0.072-0.132,0.032-0.223,0.056-0.364c0.25-1.861-0.53-1.884-0.875-3.08
		c-0.007-0.04,0-0.947,0-1.047c0.618,0.297,1.744,0.25,2.362,0l1.077-1.049l1.227-0.061c1.196-1.148,2.595-1.141,3.697-2.337
		l0.305-1.171c0.663-0.072,1.719,0.28,2.203,0.742l2.359-0.249l1.182-0.861c-0.041-0.648,0.493-1.625,0.977-2.031
		c0.649-0.337,1.634-0.492,2.358-0.432l0.361-1.11c-0.368-0.803-1.461-2.547-2.361-2.883c-0.186-1.208,0.962-2.577,1.742-3.391
		c0.667-0.092,1.587,0.018,2.205,0.313c0.766-0.045,1.869-0.742,2.304-1.351c0.523,0.343,1.603,0.53,2.206,0.306
		c0.459-0.798,1.154-1.61,1.842-2.22l1.19-0.243l0.203-1.11l2.149-1.603c-0.05-0.686-0.072-1.406-0.159-2.084
		c-0.046-0.398-0.232-0.845-0.249-1.236c-0.039-0.845,0.384-1.602,0.924-2.213c1.243-1.413,2.797-1.664,4.563-1.11
		c0.75,0.244,1.547,0.69,2.314,0.861c1.118,0.257,1.585-0.523,2.452-0.861c0.063-0.022,2.141-0.545,2.213-0.554
		c1-0.124,3.642,1.096,4.502,1.539c0.796,0.409,1.257,1.064,2.208,1.292l1.183-0.556c0.31-0.827-0.049-2.486-0.359-3.259
		c0.632-1.118,1.664-2.171,2.561-3.077c0.845-0.321,2.838,0.523,3.539,0.929l1.285-0.679l0.046-1.109l-1.023-0.734l-0.103-1.171
		l2.354,0.311c1.367-1.577,3.069-3.054,4.751-4.281c0.061-0.994,0.234-2.141,0.194-3.126c-0.03-0.712-0.369-1.479-0.43-2.196
		c-0.064-0.775,0.172-1.697,0.053-2.461c-0.163-1.081-1.084-2.158-0.717-3.323c1.062,0.703,2.373,0.269,3.328,1.11
		c0.281,0.243,0.461,0.712,0.719,0.985c1.592,1.697,2.62,1.815,4.836,1.932c0.603,0.031,1.432,0,1.985-0.33
		c0.367-0.67,0.617-1.64,0.609-2.406l1.75-2.087c0-0.576,0.289-1.75,0.61-2.221c0.25-0.356,0.729-0.625,0.978-0.981
		c0.107-0.151,0.366-0.932,0.459-1.05c0.383-0.45,1.9-1.383,2.463-1.655c0.016-1.767,1.11-4.354,2.131-5.746l1.142,4.691
		c0.226,0.913,0.296,1.445,0.578,2.342c0.391,1.252,2.29,4.782,3.432,5.666c0.944,0.735,1.984,1.401,2.96,2.096
		c0.938-0.471,2.057-0.111,3.041-0.186c2.118-0.182,2.842-0.822,4.609-1.36c1.242-0.375,2.329,0.36,3.595-0.306l1.023-1.107
		l1.126,0.615c0.75-0.241,1.682-0.991,2.156-1.6c1.822-0.189,3.433,0.531,4.619,1.906l1.072-0.125l1.023-2.087l1.18-0.618
		l1.132,0.368c0.111-0.061,1.142-0.64,1.174-0.67c0.351-0.353,1.524-2.949,1.649-3.384v-1.046c-0.181-0.735-0.788-1.402-0.773-2.221
		c0.016-0.765,0.413-1.44,0.202-2.273c-0.368-1.471-1.343-2.892-0.922-4.431c0.195-0.697,0.734-1.667,1.337-2.095
		c0.312-0.227,0.858-0.265,1.178-0.492c0.391-0.273,0.68-0.83,1.073-1.103c0.975-0.669,2.452-0.727,3.539-1.11
		c1.203-0.428,2.266-1.154,3.54-1.413c0.656,0.352,2.604,1.163,3.385,0.86l2.406,1.289c0.381,1.11,0.055,2.296,0.828,3.267
		c1.076,1.345,2.133,1.618,2.539,3.463l0.172,0.781c-0.062,0.641-0.476,1.33-0.563,1.971c-0.139,1.061,0.846,2.539,1.586,3.202
		c0.852,0.501,2.742-0.103,3.596-0.368c0.43-0.14,0.844-0.428,1.273-0.553c0.75-0.22,1.642-0.234,2.36-0.492
		c0.806-0.296,1.58-0.883,2.361-1.235c0.72-0.312,1.546-0.462,2.259-0.796c0.928-0.447,3.586-2.789,3.736-3.76
		c-0.213-0.587-0.33-1.398-0.25-2.023l2.467,0.061c0.659,1.148,3.109,3.281,4.455,3.323c1.625-0.33,2.516-2.182,2.562-3.698
		c0.853-1.077,3.307-2.694,4.464-3.32c0.038-0.023,1.156-0.219,1.281-0.242c1.055,0.728,2.438,1.493,3.384,2.334
		c0.421,0.375,0.429,1.447,1.641,2.096l3.493-0.061c0.588,0.897,2.604,3.694,3.688,4.054c0.734-0.172,1.668-0.288,2.361-0.546
		c0.367-0.145,0.713-0.587,1.072-0.743c0.451-0.189,1.717-0.204,2.201-0.125c0.742-0.939,2.273-1.712,3.439-1.103
		c0.664,0.345,1.365,1.156,2.305,1.595c-0.314,0.583-0.447,1.633-0.305,2.273l-0.775,1.11c-0.1,0.031-1.15,0.35-1.172,0.375
		c-0.719,0.523-1.453,1.399-2.102,2.031l-1.078,0.178c-0.564,0.47-1.141,1.647-1.023,2.398l-1.234,0.868l-2.307-0.062
		c-0.875,0.656-1.693,2.194-2.047,3.195c0.383,1.118,1.205,2.266,1.898,3.197l2.406,0.554l0.924,1.171l1.172-0.061
		c0.299-0.75,1.133-1.655,1.799-2.095c1.273,0.057,1.572-0.686,2.461-1.103c0.141-0.068,0.912-0.117,1.078-0.186
		c0.791-0.33,1.602-0.836,2.359-1.227c0.744-0.141,1.924,0.455,2.41,0.985l1.178-0.679c1.031,0.562,2.463,0.407,3.494-0.063
		c1.627,0.421,3.463,1.679,3.891,3.384l-0.82,2.221c0.967,0.493,3.846,2.187,4.314,3.259v1.109l1.428,0.671l1.182-0.493l1.125,0.375
		l1.227-0.742c1.672,0.258,4.236,0.72,5.643-0.554c0.727-0.659,0.764-1.277,1.955-1.909c1.6,0.338,3.32,1.36,4.154,2.83
		c0.422,0.766,0.26,1.421,1.07,2.282l1.191-0.368l1.123,0.368c0.729,1.171,1.93,2.08,3.174,2.641c0.732,0.08,1.719-0.14,2.359-0.493
		c2.104,0.406,3.291,3.456,6.869,1.853l1.078,0.428c0.766-0.163,1.648-0.632,2.26-1.107l1.279,0.367
		c0.182,0.593,1.08,1.85,1.596,2.158C255.035,54.759,255.967,54.962,256.678,55.291z"/>
</g>
<g id="Layer_3">
	
		<polygon fill="#00808E" stroke="#00808E" stroke-width="3" stroke-linecap="round" stroke-linejoin="round" stroke-miterlimit="10" points="
		258.625,43.32 258.625,43.526 258.625,56.32 234.092,52.338 242.279,42.588 	"/>
	
		<polygon fill="#00808E" stroke="#00808E" stroke-width="3" stroke-linecap="round" stroke-linejoin="round" stroke-miterlimit="10" points="
		199.037,10.448 199.037,26.129 181.07,24.254 190.279,12.713 	"/>
	
		<polygon fill="#00808E" stroke="#00808E" stroke-width="3" stroke-linecap="round" stroke-linejoin="round" stroke-miterlimit="10" points="
		151.139,120.935 151.139,134.69 135.779,123.525 	"/>
	
		<polygon fill="#00808E" stroke="#00808E" stroke-width="3" stroke-linecap="round" stroke-linejoin="round" stroke-miterlimit="10" points="
		120.738,167.137 120.738,180.137 106.842,172.9 112.779,165.713 	"/>
	
		<polygon fill="#00808E" stroke="#00808E" stroke-width="3" stroke-linecap="round" stroke-linejoin="round" stroke-miterlimit="10" points="
		117.715,199.559 117.715,213.088 103.967,201.9 	"/>
	
		<polygon fill="#00808E" stroke="#00808E" stroke-width="3" stroke-linecap="round" stroke-linejoin="round" stroke-miterlimit="10" points="
		146.911,222.729 146.911,235.629 137.154,227.713 	"/>
	
		<polygon fill="#00808E" stroke="#00808E" stroke-width="3" stroke-linecap="round" stroke-linejoin="round" stroke-miterlimit="10" points="
		148.002,234.447 148.002,247.713 136.904,237.088 	"/>
	
		<polygon fill="#00808E" stroke="#00808E" stroke-width="3" stroke-linecap="round" stroke-linejoin="round" stroke-miterlimit="10" points="
		62.407,248.938 62.407,261.713 70.904,253.994 	"/>
	
		<polygon fill="#00808E" stroke="#00808E" stroke-width="3" stroke-linecap="round" stroke-linejoin="round" stroke-miterlimit="10" points="
		42.967,221.932 42.967,235.9 50.654,231.463 	"/>
	
		<polygon fill="#00808E" stroke="#00808E" stroke-width="3" stroke-linecap="round" stroke-linejoin="round" stroke-miterlimit="10" points="
		18.729,168.029 18.729,181.463 27.779,172.963 	"/>
	
		<polygon fill="#00808E" stroke="#00808E" stroke-width="3" stroke-linecap="round" stroke-linejoin="round" stroke-miterlimit="10" points="
		1.625,137.046 1.625,150.296 14.738,143.671 	"/>
	
		<polygon fill="#00808E" stroke="#00808E" stroke-width="3" stroke-linecap="round" stroke-linejoin="round" stroke-miterlimit="10" points="
		6.266,81.883 6.266,95.127 18.279,87.379 	"/>
	
		<polygon fill="#00808E" stroke="#00808E" stroke-width="3" stroke-linecap="round" stroke-linejoin="round" stroke-miterlimit="10" points="
		123.869,8.134 123.869,24.088 133.029,15.671 	"/>
	
		<polygon fill="#00808E" stroke="#00808E" stroke-width="3" stroke-linecap="round" stroke-linejoin="round" stroke-miterlimit="10" points="
		126.46,136.19 126.46,150.504 117.779,137.838 	"/>
	
		<polyline fill="#00808E" stroke="#00808E" stroke-width="3" stroke-linecap="round" stroke-linejoin="round" stroke-miterlimit="10" points="
		220.268,88.867 220.268,103.124 210.125,102.25 210.375,93 220.263,89 	"/>
</g>
<g id="Layer_1">
	
		<path fill="#00A6AF" stroke="#00FFFF" stroke-width="2" stroke-linecap="round" stroke-linejoin="round" stroke-miterlimit="10" d="
		M256.678,42.291c0.666,0.303,1.305,0.696,1.947,1.029c-2.275,0.167-3.252,1.907-3.791,3.949l-1.287,0.678
		c-0.691-0.836-2.037-2.068-3.184-2.095c-0.545,0.713-1.326,1.447-2.102,1.909c-0.789,0-1.734-0.094-2.518,0l-1.17,0.429
		c-0.047,0.038-1.963,2.038-2.002,2.095l-0.258,0.984c0,0.054,0.523,1.975,0.572,2.158c-0.551,1.351-1.902,2.061-2.775,3.133
		c-0.24,0.296-0.393,1.485-1.383,2.092c-1.75,1.08-3.854,0.909-5.635,1.72c-1.316,1.421-1.064,3.282-3.025,4.316
		c-0.275,0.133-1.482,0.257-2.16,0.606c-0.389,0.72-1.334,1.493-2.053,1.853c-0.18,0.087-0.938,0.22-1.08,0.306l-1.123,0.983
		c-0.594,1.049-0.797,2.4-1.385,3.447c-0.311,0.553-1.723,1.368-2.359,1.478l-0.82,1.046c0.178,1.039-0.646,4.471-1.227,5.354
		l-1.18,0.735l-0.977,3.256l0.664,0.994l2.414,0.799c0.861,0.523,1.439,2.407,1.484,3.32c0.018,0.352-0.414,3.148-0.672,3.509
		c-0.477,0.663-1.311,1.368-1.891,1.969c-0.287,2.111-1.713,5.26-4.305,4.987c-1.424-0.15-3.424-0.867-4.822-0.557
		c-0.734,0.8-2.297,2.315-3.393,2.642c-1.154-0.242-2.367-0.568-3.531-0.734c-1.313-0.187-2.494,0.814-3.33,1.72l-1.135-0.797
		c-0.375-0.758-0.318-1.47-0.561-2.212c-0.25-0.789-0.721-1.414-0.869-2.281c-0.896-1.063-2.625-1.883-3.18-2.523
		c-0.039-0.05-2.305-3.517-2.359-3.627c-0.016-0.03-0.094-1.007-0.102-1.11c-0.666-0.288-1.531-0.493-2.262-0.493
		c-0.419-0.679-1.449-1.515-2.199-1.782c-0.205-0.079-0.939-0.055-1.125-0.123c-0.672-0.258-1.416-0.759-2.057-1.11l-2.001,2.281
		l0.563,2.336l-1.182,0.554l-2.303-0.375l-0.924,1.174c0.18,0.709,0.475,1.555,0.563,2.274c0.021,0.163-0.178,0.969-0.154,1.11
		c0.109,0.731,0.461,1.617,0.67,2.334l-1.188,0.867c-1.166-0.303-2.36-0.687-3.532-0.921c-1.095-0.22-2.47-0.007-3.384-0.807
		c-2.266,0.807-5.127-2.819-6.869-2.273l-0.664,1.228c-1.181,0.859-2.408,0.39-3.438,1.663l-0.72,2.158
		c-0.68,0.484-1.634,0.955-2.461,1.102l-0.57,1.11l-1.172,0.181l-0.721-2.276c-0.951-0.944-2.217-1.608-3.531-1.843
		c-0.102,0.118-0.944,1.047-0.977,1.11c-0.047,0.078-0.209,0.944-0.258,1.108c-0.118,0.338-0.406,0.759-0.469,1.102
		c-0.109,0.611,0.078,1.564-0.102,2.399c-0.674,0.533-1.376,1.25-1.837,1.971c0.016,4.047-2.118,4.587-2.361,6.828
		c0.175,0.985,1.78,2.487,2.563,3.081c0.336,0.258,0.798,0.413,1.127,0.679c1.187,0.969,4.047,3.072,4.047,4.861l-1.227,0.796
		c-1.111-0.28-1.688,0.166-2.518,0.124c-1.103-0.052-1.539-0.811-2.352-1.296c-0.335-0.194-0.828-0.258-1.18-0.429
		c-1.205-0.579-2.338-1.681-3.237-2.641l-1.076-0.063c-0.673,0.47-1.423,1.322-1.735,2.087l-3.596,0.501
		c-0.875-0.854-0.985-1.595-1.437-2.157c-0.493-0.609-1.58-1.321-2.354-1.478l-1.182,0.679c-0.842,1.064-0.678,2.461-1.592,3.448
		l0.258,2.272c-0.641,0.186-1.705,0.111-2.308-0.188c-0.49,0.462-1.008,1.534-0.927,2.22l-1.172,0.984
		c-1.448,0.201-3.393-0.094-4.722-0.681c-2.069,0.345-2.517,2.049-3.688,3.447l0.804,0.462c0.634,0.077,1.712-0.609,2.125-1.019
		c0.962,0.034,2.993,0.455,3.688,1.212l0.784,1.664c0.751-0.021,2.202,0.284,2.767,0.854l-0.25,2.204l1.023,0.819l0.369,1.008
		c-0.743,0.814-0.626,1.985-0.648,2.993c0,0.05-0.471,0.735-0.44,1.191c0.056,0.733,0,1.475-0.039,2.201
		c-0.603,0.073-1.477,0.641-1.758,1.183l-0.14,1.709l-0.454,0.477l-1.031-0.617l0.234-1.398c-0.359-0.454-1.173-1.83-0.999-2.462
		l-1.024-0.974c-0.845,0.061-1.86,0.03-2.688-0.197l-0.421-0.86l0.421-1.391l-0.148-0.587l-1.172-1.022
		c0.178-0.736-0.063-1.922-0.391-2.586l-0.548,0.186c-0.508,1.539-1.688,2.759-2.171,4.306l-1.274,0.734l-1.189-0.117l-0.766,1.102
		c-0.085,0.869,1.172,2.61,1.697,3.207l-0.461,0.985c-0.67-0.182-1.797,0.177-2.313,0.615c-0.666,0.025-1.72-0.502-2.204-0.929
		c-1.227,0.148-1.611,0.922-2.456,1.235c-1.164,0.421-2.475,0.194-3.491,1.11c-0.026,0.103-0.258,1.063-0.258,1.102
		c0.008,0.054,0.6,2.125,0.616,2.157c0.384,0.729,2.563,1.93,3.283,2.211l0.67,1.109c0.698,0.072,1.634-0.164,2.251-0.494
		c1.367,1.244,3.702-0.1,5.797,1.846c2.706,2.523,0.382,4.867,2.72,6.713c0.805,0.338,2.478,0.854,3.384,0.674l0.765,1.045
		c-0.476,2.297,0.766,2.707,0.922,4.494c-1.078,0.35-1.633,1.152-2.46,1.539c-1.008,0.469-2.478,0.734-3.587,0.984
		c-0.14,1.518,1.251,2.836,1.539,4.305c-1.25,2.434-0.235,3.078-0.671,4.373c-0.265,0.795-0.984,1.471-1.023,2.396
		c-0.007,0.111,0.235,0.924,0.257,1.113c0.039,0.385-0.063,0.84,0,1.219c0.102,0.668,0.649,1.545,1.077,2.039
		c0.478,1.508-1.311,3.449-2.258,4.367l-1.126,0.188l0.41,2.273l2.202,0.918c0.079,0.729,0.64,1.742,1.182,2.221
		c-0.25,1.734,0.459,3.055,1.437,4.486l-0.038,1.135c-0.523,1.008-2.066,2.107-3.229,2.094l-1.736,2.219l-2.201,0.807
		c-0.375,0.504-0.579,1.551-0.41,2.164c-0.648,0.381-1.428,1.494-1.428,2.281c0.796,0.912,0.477,2.313,0.678,3.398
		c0.026,0.125,0.409,0.809,0.462,0.984c0.118,0.377,0.103,0.805,0.212,1.182c0.22,0.742,0.524,1.494,0.782,2.219
		c1.046-0.037,2.295-0.201,3.33-0.117c0.78,0.066,1.258,0.801,2.304,0.369c0.618-0.742,1.032-2.363,1.118-3.281
		c0.634-0.316,1.531-1.244,1.633-1.979l1.274-0.492c0.42,0.859,0.587,2.463,0.634,3.391l1.023,1.061
		c1.007,0.006,2.64,0.355,3.383,1.105c0.29,0.281,0.431,0.826,0.72,1.107c0.359,0.346,1.758,0.971,2.266,1.105l-0.046,1.182
		c1.242,0.918,2.819,2.023,4.453,1.654c1.289-0.875,1.273-2.146,2.296-3.154c0.909-0.244,1.767,0,2.402-0.127
		c0.317-0.063,2.156-0.744,2.304-0.752c0.11,0,3.023,0.555,3.32,0.613l0.72,1.047l2.148,0.734l0.822,1.221
		c-0.845,0.582-2.581,1.986-3.01,2.98l-0.048,1.111c0.658,0.887,1.094,2.146,1.033,3.266c0.443,0.508,1.522,1.244,2.24,1.221
		c-0.202,0.75,0.533,2.516,0.875,3.141c-0.959,0.869-2.225,1.326-3.517,1.256c-0.46-0.998-2.093-2.131-3.016-2.631
		c-2.884-1.576-4.9,2.107-7.042,1.943l-0.958,1.119c-0.009,0.107-0.064,1.078-0.05,1.115c0.227,0.773,0.773,1.59,1.08,2.348
		c0.671,1.631,1.244,4.141,2.367,5.496c-0.085,0.166-1.101,2.115-1.11,2.16c-0.18,0.869-0.07,2.531-0.094,3.471
		c-0.625,0.863-2.522,1.584-3.517,1.74l-0.454,1.184c0.196,0.678,0.275,1.576,0.166,2.283c-3.634,4.408-0.009,6.154-1.72,8.773
		c-1.18,0.436-1.156,1.168-1.838,1.787c-0.288,0.275-0.843,0.447-1.179,0.684c-0.367,0.264-0.687,0.691-1.069,0.926
		c-0.291,0.18-0.807,0.303-1.134,0.432l-1.225-0.682c-2.384-0.508-3.05,2.789-4.915,3.516c-0.784,0.316-1.542,0.229-2.307,0.744
		c0.007,0.758-0.735,1.932-1.252,2.432l-0.008,0.008c-1.687,0.166-2.25-1.203-3.251-1.947c-0.639-0.479-1.467-0.881-2.156-1.297
		c-1.164,0.242-2.694,0.393-3.796,0.797c-0.307,0.113-0.433,0.266-0.705,0.445c-0.868,0.547-1.103,0.758-1.383,0.859
		c-0.266,0.104-0.576,0.104-1.57,0.234l-0.773,0.098c-0.703,0.676-2.439,2.123-3.456,2.311c-1.118-0.477-2.421-0.145-3.354,0.586
		l-1.708-0.516l0.827-1.654l-0.514-1.043l-1.031,0.119L91.1,272.98l-1.089,0.971l-0.717-1.176l-1.041,0.479
		c-0.177-0.43-0.741-1.002-1.202-1.135l-0.5,0.688c-0.095-0.076-1.103-0.857-1.133-0.873c-0.639-0.227-1.689-0.285-2.376-0.395
		c-0.883-0.785-1.33-3.164-1.242-4.316l-1.039-0.932l-1.133-0.008l-2.166,1.697l0.048,2.221c-0.352,0.529-1.204,1.371-1.843,1.561
		c-1.18-1.545-0.845-2.695-1.353-3.871c-0.342-0.758-1.304-1.047-1.383-2.289h-0.009l-2.163-1.305
		c-0.447-1.615-1.353-4.563-3.198-5.182c-0.243-0.797-0.07-1.443-0.156-2.209c-0.046-0.484-0.553-2.006-0.875-2.346
		c-1.252-1.344-4.157-3.063-4.157-5.178c0-0.098,0.196-2.297,0.205-2.342c0.318-1.137,2.031-4.131,1.492-5.215
		c-0.557-0.471-1.22-1.424-1.383-2.15l0.772-1.174l-0.924-1.162c-0.03-0.848,0.75-2.486,1.133-3.195l-0.615-3.389
		c-1.174-0.781-1.86-2.199-3.189-2.701c-1.648-0.385-2.188,1.367-4.71,0c-0.259-0.75-0.711-1.529-1.182-2.16l-1.235-0.43
		l-0.413-1.045c-2.469,0.189-5.103,3.463-7.672,2.445l-0.016-0.006c-0.197-0.781-1.007-1.963-1.08-2.268
		c-0.015-0.076-0.36-3.189-0.36-3.258c0-0.092,0.423-0.938,0.462-1.113c0.087-0.334,0-0.758,0.054-1.1
		c0.132-0.85,0.587-1.689,1.284-2.221c0.038-1.211-0.845-2.068-0.822-3.258l0.773-1.047c-0.414-0.803-0.312-2.537-0.156-3.381
		c1.235-1.236,1.414-2.824,1.18-4.494l0.978-1.113l0.147-0.984l1.024-0.121l1.454-2.137c-0.171-1.252,0.64-2.344,0.821-3.508
		c0.171-1.129-0.267-2.313,0.203-3.443c0.094-0.098,1.03-0.969,1.08-0.984c0.883-0.402,3.186-0.697,4.195-0.598l0.633-0.584
		l-0.811-2.168l-1.172-0.918l-0.344-2.203l-2.29,0.248l-1.518-0.977l-1.467,0.287l-0.978,3.957l-1.565-0.639
		c-0.53-1.605-1.522-4.176-2.63-5.516l0.633-1.949c1.813-1.244,2.055-0.811,1.952-3.121c-1.069,0.121-2.304,0.006-3.369-0.107
		l-0.437-0.826l0.727-3.176l-0.681-0.584l-1.905,0.189c-0.22,0.355-0.462,0.684-0.734,0.986c-0.236,0.273-0.634,1.65-0.68,2.039
		c-0.212,1.605-0.439,1.814-1.906,2.531l-1.712-0.131c-0.313-0.439-1.037-1.324-1.603-1.324c-1.28,0-6.767,1.6-6.453-0.971
		c0.156-1.313,0.34-2.629,0.5-3.941c0.156-1.271,0.118-1.438-0.792-2.424c-0.53-0.568-1.741-1.395-2.046-2.033
		c-0.235-0.5-1.515-0.652-1.664-0.029c-0.125,0.521-1.331,2.113-1.915,1.971c-0.534-0.123-1.056-0.273-1.595-0.381h-0.007
		l-1.322-1.998c0.447-0.652,1.235-1.553,1.549-2.244c0.016-0.035,0.156-1.48,0.17-1.615l-1.64-2.279l0.258-0.986l1.078-0.668
		l-0.158-2.463l-1.125-0.619l-1.333-2.273c-0.743,0.025-1.707-0.193-2.354-0.555c0.164-1.398-2.36-3.58-3.596-3.937
		c-0.665-0.196-1.516-0.258-2.202-0.366c-0.086-0.706-0.257-1.524-0.257-2.222c0-0.733,0.341-1.414,0.257-2.212
		c-0.181-0.304-0.5-0.726-0.618-1.046c-0.109-0.304-0.063-0.728-0.154-1.047c-0.206-0.734-0.603-1.478-0.769-2.214
		c-0.17-0.771,0.167-1.336-0.356-2.219c-1.087-0.663-1.618-0.194-2.409-0.367c-1.031-0.225-2.157-1.164-3.282-0.679l-0.155-1.164
		l1.179-0.556v-1.235C3.399,134.35,4,133.459,4.648,132.8c1.031-1.03,3.391-2.14,2.979-4.001c-0.604-0.6-1.206-1.429-1.54-2.21
		c0.407-1.048,2.29-2.314,3.226-2.766c0.008-0.515,0.166-2.877,0.416-3.331c0.398-0.708,2.498-2.539,3.124-3.07l1.134,0.547
		l1.274-0.305c0.413-0.784-0.276-2.595-0.659-3.259l0.455-1.111l2.414-0.313c0.572-0.648,1.456-1.312,2.25-1.656
		c1.289-0.054,2.308,0.788,3.597,0.556c1.03,0.437,2.523,1.857,3.28,2.641c1.729-0.14,2.854-2.007,3.282-3.5
		c-0.39-0.844-1.595-2.656-2.569-2.955c-0.158-0.728-0.704-1.584-1.227-2.093l0.82-2.276c-0.718-1.57-2.423-2.983-3.696-4.063
		c-1.171,0.03-2.695-0.437-3.532-1.29c-0.664-0.68-0.815-1.314-1.846-2.095l-1.076,0.179l-2.259-1.289
		c0.045-1.421,0.225-2.906,0.516-4.305l-1.025-0.86c-0.874,0.133-2.806,0.155-3.594-0.368l-0.72-1.11l0.663-1.045
		c-0.716-1.103,0.167-2.221-0.811-3.448c-1.08-0.561-2.383-1.258-3.259-2.123c0.914-0.822,1.562-2.058,2.236-3.065
		c0.272-0.421,0.476-0.641,0.708-1.089c0.072-0.132,0.032-0.223,0.056-0.364c0.25-1.861-0.53-1.884-0.875-3.08
		c-0.007-0.04,0-0.947,0-1.047c0.618,0.297,1.744,0.25,2.362,0l1.077-1.049l1.227-0.061c1.196-1.148,2.595-1.141,3.697-2.337
		l0.305-1.171c0.663-0.072,1.719,0.28,2.203,0.742l2.359-0.249l1.182-0.861c-0.041-0.648,0.493-1.625,0.977-2.031
		c0.649-0.337,1.634-0.492,2.358-0.432l0.361-1.11c-0.368-0.803-1.461-2.547-2.361-2.883c-0.186-1.208,0.962-2.577,1.742-3.391
		c0.667-0.092,1.587,0.018,2.205,0.313c0.766-0.045,1.869-0.742,2.304-1.351c0.523,0.343,1.603,0.53,2.206,0.306
		c0.459-0.798,1.154-1.61,1.842-2.22l1.19-0.243l0.203-1.11l2.149-1.603c-0.05-0.686-0.072-1.406-0.159-2.084
		c-0.046-0.398-0.232-0.845-0.249-1.236c-0.039-0.845,0.384-1.602,0.924-2.213c1.243-1.413,2.797-1.664,4.563-1.11
		c0.75,0.244,1.547,0.69,2.314,0.861c1.118,0.257,1.585-0.523,2.452-0.861c0.063-0.022,2.141-0.545,2.213-0.554
		c1-0.124,3.642,1.096,4.502,1.539c0.796,0.409,1.257,1.064,2.208,1.292l1.183-0.556c0.31-0.827-0.049-2.486-0.359-3.259
		c0.632-1.118,1.664-2.171,2.561-3.077c0.845-0.321,2.838,0.523,3.539,0.929l1.285-0.679l0.046-1.109l-1.023-0.734l-0.103-1.171
		l2.354,0.311c1.367-1.577,3.069-3.054,4.751-4.281c0.061-0.994,0.234-2.141,0.194-3.126c-0.03-0.712-0.369-1.479-0.43-2.196
		c-0.064-0.775,0.172-1.697,0.053-2.461c-0.163-1.081-1.084-2.158-0.717-3.323c1.062,0.703,2.373,0.269,3.328,1.11
		c0.281,0.243,0.461,0.712,0.719,0.985c1.592,1.697,2.62,1.815,4.836,1.932c0.603,0.031,1.432,0,1.985-0.33
		c0.367-0.67,0.617-1.64,0.609-2.406l1.75-2.087c0-0.576,0.289-1.75,0.61-2.221c0.25-0.356,0.729-0.625,0.978-0.981
		c0.107-0.151,0.366-0.932,0.459-1.05c0.383-0.45,1.9-1.383,2.463-1.655c0.016-1.767,1.11-4.354,2.131-5.746l1.142,4.691
		c0.226,0.913,0.296,1.445,0.578,2.342c0.391,1.252,2.29,4.782,3.432,5.666c0.944,0.735,1.984,1.401,2.96,2.096
		c0.938-0.471,2.057-0.111,3.041-0.186c2.118-0.182,2.842-0.822,4.609-1.36c1.242-0.375,2.329,0.36,3.595-0.306l1.023-1.107
		l1.126,0.615c0.75-0.241,1.682-0.991,2.156-1.6c1.822-0.189,3.433,0.531,4.619,1.906l1.072-0.125l1.023-2.087l1.18-0.618
		l1.132,0.368c0.111-0.061,1.142-0.64,1.174-0.67c0.351-0.353,1.524-2.949,1.649-3.384v-1.046c-0.181-0.735-0.788-1.402-0.773-2.221
		c0.016-0.765,0.413-1.44,0.202-2.273c-0.368-1.471-1.343-2.892-0.922-4.431c0.195-0.697,0.734-1.667,1.337-2.095
		c0.312-0.227,0.858-0.265,1.178-0.492c0.391-0.273,0.68-0.83,1.073-1.103c0.975-0.669,2.452-0.727,3.539-1.11
		c1.203-0.428,2.266-1.154,3.54-1.413c0.656,0.352,2.604,1.163,3.385,0.86l2.406,1.289c0.381,1.11,0.055,2.296,0.828,3.267
		c1.076,1.345,2.133,1.618,2.539,3.463l0.172,0.781c-0.062,0.641-0.476,1.33-0.563,1.971c-0.139,1.061,0.846,2.539,1.586,3.202
		c0.852,0.501,2.742-0.103,3.596-0.368c0.43-0.14,0.844-0.428,1.273-0.553c0.75-0.22,1.642-0.234,2.36-0.492
		c0.806-0.296,1.58-0.883,2.361-1.235c0.72-0.312,1.546-0.462,2.259-0.796c0.928-0.447,3.586-2.789,3.736-3.76
		c-0.213-0.587-0.33-1.398-0.25-2.023l2.467,0.061c0.659,1.148,3.109,3.281,4.455,3.323c1.625-0.33,2.516-2.182,2.562-3.698
		c0.853-1.077,3.307-2.694,4.464-3.32c0.038-0.023,1.156-0.219,1.281-0.242c1.055,0.728,2.438,1.493,3.384,2.334
		c0.421,0.375,0.429,1.447,1.641,2.096l3.493-0.061c0.588,0.897,2.604,3.694,3.688,4.054c0.734-0.172,1.668-0.288,2.361-0.546
		c0.367-0.145,0.713-0.587,1.072-0.743c0.451-0.189,1.717-0.204,2.201-0.125c0.742-0.939,2.273-1.712,3.439-1.103
		c0.664,0.345,1.365,1.156,2.305,1.595c-0.314,0.583-0.447,1.633-0.305,2.273l-0.775,1.11c-0.1,0.031-1.15,0.35-1.172,0.375
		c-0.719,0.523-1.453,1.399-2.102,2.031l-1.078,0.178c-0.564,0.47-1.141,1.647-1.023,2.398l-1.234,0.868l-2.307-0.062
		c-0.875,0.656-1.693,2.194-2.047,3.195c0.383,1.118,1.205,2.266,1.898,3.197l2.406,0.554l0.924,1.171l1.172-0.061
		c0.299-0.75,1.133-1.655,1.799-2.095c1.273,0.057,1.572-0.686,2.461-1.103c0.141-0.068,0.912-0.117,1.078-0.186
		c0.791-0.33,1.602-0.836,2.359-1.227c0.744-0.141,1.924,0.455,2.41,0.985l1.178-0.679c1.031,0.562,2.463,0.407,3.494-0.063
		c1.627,0.421,3.463,1.679,3.891,3.384l-0.82,2.221c0.967,0.493,3.846,2.187,4.314,3.259v1.109l1.428,0.671l1.182-0.493l1.125,0.375
		l1.227-0.742c1.672,0.258,4.236,0.72,5.643-0.554c0.727-0.659,0.764-1.277,1.955-1.909c1.6,0.338,3.32,1.36,4.154,2.83
		c0.422,0.766,0.26,1.421,1.07,2.282l1.191-0.368l1.123,0.368c0.729,1.171,1.93,2.08,3.174,2.641c0.732,0.08,1.719-0.14,2.359-0.493
		c2.104,0.406,3.291,3.456,6.869,1.853l1.078,0.428c0.766-0.163,1.648-0.632,2.26-1.107l1.279,0.367
		c0.182,0.593,1.08,1.85,1.596,2.158C255.035,41.759,255.967,41.962,256.678,42.291z"/>
</g>
<g id="Layer_5">
	<g opacity="0.35">
		<path fill="#FFFFFF" d="M178.234,5.771c-0.539-0.474-1.336-0.981-2.105-1.472c-0.158-0.101-0.31-0.199-0.463-0.299h-1.185
			c-0.879,0.504-2.059,1.291-2.931,2h6.797C178.312,5.916,178.278,5.831,178.234,5.771z"/>
		<path fill="#FFFFFF" d="M139.66,4.555c-0.018-0.194-0.042-0.375-0.068-0.555h-10.688c-0.297,0.093-0.57,0.202-0.781,0.348
			c-0.079,0.055-0.213,0.219-0.332,0.363c-0.2,0.244-0.427,0.521-0.735,0.735c-0.284,0.202-0.608,0.302-0.868,0.381
			c-0.102,0.032-0.257,0.079-0.305,0.107c-0.021,0.015-0.045,0.047-0.067,0.065h14.115C139.763,5.493,139.701,4.992,139.66,4.555z"
			/>
		<path fill="#FFFFFF" d="M183.546,8.106l-2.952,0.051c-0.155,0.006-0.338-0.038-0.488-0.118c-0.023-0.013-0.042-0.027-0.064-0.04
			h-9.549c-0.258,0.755-0.675,1.458-1.241,2h15.737C184.393,9.292,183.867,8.569,183.546,8.106z"/>
		<path fill="#FFFFFF" d="M196.371,9.522c-0.473-0.246-1.26,0.003-1.834,0.478h2.495C196.786,9.802,196.553,9.617,196.371,9.522z"/>
		<path fill="#FFFFFF" d="M160.964,10h3.83c-0.866-0.584-1.677-1.328-2.251-2h-1.101c0.024,0.096,0.04,0.201,0.071,0.287
			c0.058,0.158,0.074,0.328,0.049,0.494C161.507,9.142,161.282,9.563,160.964,10z"/>
		<path fill="#FFFFFF" d="M125.393,10h17.395c-0.211-0.861-0.583-1.223-1.19-1.788c-0.07-0.065-0.148-0.143-0.221-0.212h-16.505
			c0,0.604,0.235,1.246,0.508,1.964C125.384,9.976,125.388,9.988,125.393,10z"/>
		<path fill="#FFFFFF" d="M142.524,12h-16.581c0.022,0.486-0.068,0.916-0.149,1.279c-0.056,0.25-0.104,0.465-0.107,0.66
			c0,0.019,0.006,0.041,0.007,0.061h16.918c-0.172-0.498-0.267-1.01-0.202-1.5C142.435,12.327,142.479,12.162,142.524,12z"/>
		<path fill="#FFFFFF" d="M196.205,13.249c0.146-0.15,0.318-0.21,1.229-0.49l0.354-0.507c-0.006-0.08,0.004-0.168,0.003-0.251
			h-9.193c-0.21,0.041-0.421,0.081-0.612,0.125c-0.178,0.042-0.367,0.034-0.542-0.025c-0.065-0.021-0.137-0.069-0.204-0.1h-28.192
			c-0.728,0.625-1.421,1.118-1.774,1.288c-0.451,0.212-0.902,0.35-1.338,0.484c-0.226,0.069-0.443,0.149-0.662,0.228h40.087
			C195.633,13.729,195.913,13.471,196.205,13.249z"/>
		<path fill="#FFFFFF" d="M90.313,16.712C90.266,16.494,90.213,16.26,90.15,16h-1.268c-0.039,0.247-0.062,0.483-0.064,0.701
			c-0.003,0.381-0.223,0.727-0.565,0.892c-0.188,0.091-0.45,0.24-0.726,0.407h3.105C90.492,17.518,90.403,17.122,90.313,16.712z"/>
		<path fill="#FFFFFF" d="M126.461,16.139v1.046c0,0.093-0.013,0.187-0.039,0.276c-0.022,0.079-0.099,0.277-0.207,0.539h65.489
			c0.099-0.704,0.432-1.442,0.845-2h-42.726c-0.062,0.03-0.123,0.061-0.185,0.091c-0.246,0.123-0.494,0.242-0.744,0.324
			c-0.773,0.241-1.96,0.61-3.004,0.61c-0.57,0-1.031-0.108-1.41-0.331c-0.057-0.034-0.11-0.073-0.159-0.117
			c-0.169-0.152-0.356-0.353-0.544-0.577h-17.333C126.451,16.046,126.461,16.092,126.461,16.139z"/>
		<path fill="#FFFFFF" d="M91.458,20h-5.767c-0.19,0.264-0.424,0.469-0.634,0.649c-0.125,0.108-0.268,0.23-0.321,0.306
			C84.624,21.121,84.479,21.58,84.39,22h8.176C92.157,21.334,91.774,20.634,91.458,20z"/>
		<path fill="#FFFFFF" d="M187.296,20h-61.994c-0.29,0.571-0.576,1.069-0.781,1.274c-0.072,0.069-0.187,0.171-1.192,0.726h62.923
			C186.466,21.46,186.825,20.707,187.296,20z"/>
		<path fill="#FFFFFF" d="M196.914,26h13.961c-0.536-0.854-1.56-1.525-2.545-1.85c-1.141,0.425-2.463,0.482-3.486,0.123
			l-0.742,0.428c-0.408,0.235-0.922,0.154-1.238-0.19c-0.159-0.175-0.481-0.371-0.806-0.51h-0.895
			c-0.095,0.052-0.188,0.103-0.284,0.156c-0.537,0.298-1.092,0.605-1.66,0.843c-0.199,0.083-0.422,0.113-0.801,0.161
			c-0.111,0.014-0.225,0.026-0.309,0.041c-0.176,0.094-0.33,0.21-0.504,0.342C197.414,25.689,197.186,25.854,196.914,26z"/>
		<path fill="#FFFFFF" d="M96.455,25.842c-0.654-0.448-1.33-0.912-1.967-1.408c-0.148-0.115-0.304-0.265-0.462-0.434H83.44
			l-0.893,1.065c-0.021,0.304-0.078,0.62-0.149,0.935h14.285C96.606,25.948,96.531,25.895,96.455,25.842z"/>
		<path fill="#FFFFFF" d="M186.627,24h-66.418l-0.008,0.016c-0.149,0.305-0.444,0.514-0.782,0.553l-1.072,0.125
			c-0.333,0.037-0.657-0.088-0.874-0.34c-0.116-0.135-0.248-0.237-0.373-0.355h-4.581c-0.253,0.143-0.507,0.268-0.758,0.348
			c-0.261,0.083-0.545,0.057-0.785-0.074l-0.441-0.241l-0.494,0.535c-0.077,0.083-0.168,0.153-0.269,0.207
			c-0.763,0.401-1.652,0.442-2.573,0.353c-0.423-0.042-0.869-0.074-1.199,0.026c-0.553,0.168-1.006,0.352-1.444,0.529
			c-0.271,0.11-0.539,0.217-0.819,0.318h84.168C187.451,25.376,186.996,24.704,186.627,24z"/>
		<path fill="#FFFFFF" d="M71.924,29.971c0.002,0.01,0.004,0.02,0.007,0.029h139.712c-0.258-0.148-0.514-0.291-0.754-0.413
			c-0.451-0.23-0.66-0.762-0.484-1.238L210.533,28h-16.208c-0.173,0.265-0.455,0.441-0.778,0.458l-1.172,0.061
			c-0.334,0.016-0.637-0.125-0.836-0.379l-0.11-0.14H81.362c-0.524,0.284-1.207,0.432-2.044,0.432c-0.142,0-0.277-0.004-0.404-0.011
			c-1.161-0.061-2.068-0.132-2.911-0.421h-4.215c-0.004,0.046-0.005,0.093-0.009,0.139c-0.031,0.354-0.06,0.688-0.037,0.958
			C71.763,29.351,71.841,29.652,71.924,29.971z"/>
		<path fill="#FFFFFF" d="M72.062,33.566c-0.014,0.148-0.023,0.288-0.036,0.434h143.271l-0.064-0.03
			c-0.35-0.165-0.574-0.518-0.574-0.905v-0.847c-0.048-0.065-0.119-0.14-0.195-0.217H72.162
			C72.147,32.521,72.11,33.048,72.062,33.566z"/>
		<path fill="#FFFFFF" d="M231.496,33.725c-0.381-0.668-1.064-1.279-1.876-1.725h-1.788c-0.05,0.064-0.101,0.132-0.154,0.205
			c-0.189,0.258-0.404,0.549-0.746,0.858c-0.513,0.465-1.165,0.764-1.939,0.937h6.622C231.581,33.904,231.544,33.813,231.496,33.725
			z"/>
		<path fill="#FFFFFF" d="M235.115,36.367l-0.492-0.161l-0.887,0.274c-0.365,0.111-0.76,0.008-1.021-0.27
			c-0.068-0.072-0.111-0.14-0.17-0.21H70.671c-0.831,0.651-1.603,1.321-2.304,2h168.357
			C236.091,37.517,235.541,36.968,235.115,36.367z"/>
		<path fill="#FFFFFF" d="M65.811,42h187.74c-0.55-0.466-1.156-1.283-1.502-1.955L251.89,40h-0.303
			c-0.604,0.386-1.374,0.768-2.142,0.932c-0.193,0.042-0.395,0.025-0.578-0.049l-0.701-0.278c-0.674,0.257-1.313,0.383-1.938,0.383
			c-1.2,0-2.129-0.474-2.898-0.987H65.917c0.055,0.132,0.089,0.272,0.083,0.419l-0.046,1.109C65.947,41.699,65.895,41.859,65.811,42
			z"/>
		<path fill="#FFFFFF" d="M58.985,44c-0.109,0.145-0.22,0.29-0.317,0.437C58.794,44.85,58.929,45.413,59,46h189.891
			c0.246-0.24,0.479-0.496,0.68-0.756c0.193-0.254,0.486-0.424,0.816-0.392c0.95,0.022,1.873,0.569,2.594,1.147h1.196
			c0.221-0.617,0.557-1.348,1.093-2H58.985z"/>
		<path fill="#FFFFFF" d="M58.355,48.479l-1.183,0.556c-0.206,0.096-0.439,0.12-0.658,0.068c-0.79-0.188-1.307-0.579-1.763-0.923
			c-0.083-0.063-0.164-0.121-0.245-0.18H38.952c-0.27,0.396-0.399,0.774-0.382,1.13c0.005,0.111,0.052,0.293,0.098,0.47
			c0.035,0.136,0.056,0.267,0.083,0.4H241.62c0.027-0.096,0.066-0.188,0.122-0.271c0.094-0.141,1.008-1.09,1.629-1.729H58.82
			C58.721,48.207,58.564,48.381,58.355,48.479z"/>
		<path fill="#FFFFFF" d="M241.467,52H38.948l0.027,0.423c0.025,0.341-0.126,0.67-0.4,0.875L37.634,54h203.673
			c0.201-0.213,0.381-0.433,0.517-0.671l-0.012-0.046C241.647,52.674,241.541,52.279,241.467,52z"/>
		<path fill="#FFFFFF" d="M35.826,56.189l-0.919,0.188c-0.52,0.492-0.997,1.075-1.337,1.623h204.243
			c0.132-0.063,0.266-0.121,0.391-0.198c0.418-0.256,0.604-0.734,0.766-1.155c0.095-0.244,0.186-0.455,0.322-0.646H36.22
			C36.104,56.087,35.974,56.159,35.826,56.189z"/>
		<path fill="#FFFFFF" d="M25.158,61.24c0.28,0.211,0.542,0.478,0.785,0.76h205.083c0.021-0.053,0.043-0.098,0.066-0.152
			c0.248-0.583,0.537-1.229,1.021-1.848H25.826C25.41,60.554,25.229,60.96,25.158,61.24z"/>
		<path fill="#FFFFFF" d="M27.407,64.262c0.104,0.228,0.12,0.487,0.042,0.726L27.121,66h198.716
			c0.486-0.331,0.994-0.813,1.192-1.181c0.096-0.177,0.242-0.32,0.42-0.413c0.359-0.185,0.792-0.31,1.196-0.407H27.274
			C27.353,64.151,27.405,64.257,27.407,64.262z"/>
		<path fill="#FFFFFF" d="M23.801,68.189c0.021,0.341-0.133,0.67-0.409,0.871l-1.182,0.861c-0.044,0.033-0.095,0.054-0.145,0.079
			h199.891c0.017-0.049,0.033-0.093,0.05-0.143c0.205-0.62,0.422-1.26,0.75-1.857H23.833C23.814,68.072,23.798,68.142,23.801,68.189
			z"/>
		<path fill="#FFFFFF" d="M13.749,72.85c-0.174,0.167-0.402,0.266-0.643,0.277l-0.85,0.042l-0.806,0.785
			c-0.02,0.02-0.047,0.027-0.069,0.045h206.816c0.032-0.071,0.054-0.146,0.103-0.208l0.822-1.046
			c0.152-0.194,0.371-0.325,0.615-0.368c0.186-0.032,0.519-0.19,0.841-0.378H15.114C14.606,72.234,14.156,72.459,13.749,72.85z"/>
		<path fill="#FFFFFF" d="M10.18,78h207.321c0.186-0.621,0.359-1.354,0.475-2H10.247c0.077,0.398,0.095,0.874,0.011,1.499
			C10.257,77.603,10.255,77.784,10.18,78z"/>
		<path fill="#FFFFFF" d="M215.188,82l0.537-1.79c0.023-0.077,0.067-0.143,0.107-0.21H8.933c-0.026,0.041-0.052,0.081-0.078,0.122
			c-0.34,0.541-0.709,1.128-1.141,1.668c0.102,0.073,0.224,0.139,0.332,0.21H215.188z"/>
		<path fill="#FFFFFF" d="M216.055,85.697c-0.213-0.07-0.395-0.208-0.518-0.394l-0.664-0.994c-0.063-0.094-0.091-0.202-0.118-0.309
			H10.694c0.351,0.72,0.342,1.4,0.332,1.927c0,0.027,0,0.047,0,0.073h170.423l0.276-0.315c0.309-0.352,0.82-0.443,1.232-0.218
			c0.206,0.113,0.422,0.241,0.645,0.372c0.093,0.055,0.187,0.107,0.279,0.162h33.091L216.055,85.697z"/>
		<path fill="#FFFFFF" d="M179.7,88H11.174l-0.313,0.494l0.229,0.353c0.293,0.112,0.878,0.212,1.668,0.212
			c0.392,0,0.795-0.026,1.079-0.069c0.283-0.042,0.573,0.038,0.793,0.223L15.57,90h164.208l-0.274-1.141
			C179.431,88.557,179.507,88.241,179.7,88z"/>
		<path fill="#FFFFFF" d="M188.014,88c0.128,0.127,0.259,0.254,0.367,0.385c0.705,0.067,1.473,0.262,2.135,0.549
			c0.346,0.149,0.576,0.478,0.602,0.852c0.001,0.024,0.008,0.111,0.017,0.215h27.991c0.08-0.497,0.14-0.942,0.143-1.114
			c-0.013-0.257-0.078-0.57-0.171-0.886H188.014z"/>
		<path fill="#FFFFFF" d="M175.86,93.28c-0.071-0.249-0.141-0.491-0.198-0.721c-0.048-0.189-0.02-0.378,0.041-0.559H15.829
			c-0.11,0.665-0.195,1.332-0.25,2h146.757c0.035-0.016,0.064-0.043,0.102-0.055c0.217-0.068,0.446-0.102,0.684-0.102
			c0.309,0,0.615,0.061,0.923,0.157h12.014C175.998,93.763,175.929,93.52,175.86,93.28z"/>
		<path fill="#FFFFFF" d="M193.367,93.968c0.01,0.009,0.026,0.022,0.037,0.032h23.374c0.048-0.128,0.111-0.25,0.208-0.35
			c0.191-0.2,0.412-0.411,0.637-0.627c0.36-0.345,0.723-0.698,0.994-1.023H192.08C192.62,92.828,193.212,93.733,193.367,93.968z"/>
		<path fill="#FFFFFF" d="M176.084,96h-8.252c0.548,0.241,1.056,0.366,1.438,0.23c0.341-0.123,0.721-0.05,0.993,0.189
			c0.388,0.338,1.051,0.389,1.752,0.442c0.383,0.029,0.779,0.059,1.17,0.137c0.816,0.163,1.635,0.393,2.426,0.615
			c0.236,0.066,0.471,0.132,0.706,0.197l0.221-0.161c-0.001-0.005-0.003-0.011-0.005-0.016C176.354,97.094,176.181,96.54,176.084,96
			z"/>
		<path fill="#FFFFFF" d="M19.88,97c0.169,0.239,0.315,0.446,0.513,0.649c0.123,0.125,0.28,0.243,0.455,0.351h127.467
			c0.058-0.064,0.112-0.125,0.181-0.202l0.207-0.232c0.23-0.266,0.586-0.392,0.932-0.329c0.766,0.136,1.512,0.398,2.206,0.763h5.669
			l0.176-0.527c0.037-0.113,0.096-0.219,0.171-0.313c0.526-0.651,1.103-0.968,1.646-1.161H19.057
			C19.419,96.36,19.665,96.695,19.88,97z"/>
		<path fill="#FFFFFF" d="M196.525,96.467c0.113,0.136,0.191,0.301,0.221,0.476c0.063,0.361,0.212,0.688,0.384,1.057h10.834
			c0.117-0.093,0.248-0.168,0.397-0.201c0.938-0.208,2.147-0.028,3.295,0.201h3.115c0.624-0.421,1.117-1.178,1.455-2h-20.151
			C196.234,96.149,196.387,96.303,196.525,96.467z"/>
		<path fill="#FFFFFF" d="M27.037,102h119.684c0.002-0.218,0.014-0.43,0.05-0.636c0.063-0.348,0.22-0.659,0.358-0.933
			c0.057-0.113,0.116-0.222,0.151-0.322c0-0.006,0.008-0.049,0.02-0.109H25.155C25.826,100.606,26.493,101.271,27.037,102z"/>
		<path fill="#FFFFFF" d="M204.279,100.19c0.279,0.064,0.555,0.127,0.83,0.188c0.186-0.085,0.398-0.216,0.627-0.377h-2.312
			C203.711,100.063,203.998,100.125,204.279,100.19z"/>
		<path fill="#FFFFFF" d="M197.813,100.132c0.049,0.299,0.094,0.566,0.184,0.818l0.217,0.151c0.544-0.499,1.076-0.861,1.608-1.101
			h-2.032C197.796,100.043,197.806,100.09,197.813,100.132z"/>
		<path fill="#FFFFFF" d="M154.342,101.022l0.223-0.431c0.143-0.278,0.407-0.473,0.715-0.527c0.08-0.014,0.17-0.041,0.256-0.064
			h-1.517L154.342,101.022z"/>
		<path fill="#FFFFFF" d="M144.817,105.915c-0.001-0.192,0.054-0.381,0.157-0.542c0.291-0.454,0.682-0.925,1.124-1.372H27.852
			c-0.004,0.013-0.001,0.026-0.006,0.039l-0.619,1.717c0.059,0.074,0.11,0.166,0.167,0.245h117.42
			C144.814,105.97,144.817,105.945,144.817,105.915z"/>
		<path fill="#FFFFFF" d="M143.551,110c0.006-0.01,0.012-0.02,0.019-0.029c0.367-0.567,0.739-1.151,0.98-1.971H28.946
			c0.64,0.626,1.182,1.422,1.52,2H143.551z"/>
		<path fill="#FFFFFF" d="M142.471,112.913c-0.016-0.093-0.02-0.188-0.009-0.282c0.025-0.227,0.074-0.43,0.125-0.631H30.604
			c-0.275,0.698-0.67,1.403-1.181,2h113.501C142.703,113.639,142.534,113.271,142.471,112.913z"/>
		<path fill="#FFFFFF" d="M127.886,118c0.148-0.381,0.338-0.768,0.631-1.138c0.079-0.1,0.176-0.183,0.286-0.247l1.071-0.616H16.257
			c0.154,0.684,0.193,1.411-0.062,2H127.886z"/>
		<path fill="#FFFFFF" d="M146.896,117.58l-0.383-0.308c-0.117-0.095-0.267-0.165-0.412-0.242c-0.216-0.113-0.461-0.241-0.691-0.418
			c-0.034-0.026-0.334-0.257-0.731-0.612H131.26c0.927,0.352,1.869,1.053,2.354,1.653c0.093,0.115,0.165,0.231,0.236,0.347h4.116
			c0.352-0.393,0.728-0.733,1.064-0.969c0.186-0.128,0.405-0.191,0.633-0.178l1.076,0.063c0.255,0.015,0.495,0.127,0.67,0.314
			c0.231,0.247,0.488,0.508,0.756,0.77h5.249C147.223,117.843,147.042,117.697,146.896,117.58z"/>
		<path fill="#FFFFFF" d="M145.339,120c0.087,0.038,0.174,0.069,0.259,0.119c0.335,0.2,0.597,0.417,0.829,0.607
			c0.438,0.361,0.666,0.536,1.068,0.555c0.279,0.001,0.438-0.038,0.661-0.083c0.431-0.088,1.001-0.18,1.603-0.099l0.326-0.212
			c-0.116-0.279-0.317-0.581-0.568-0.886H145.339z"/>
		<path fill="#FFFFFF" d="M10.601,120.982c-0.047,0.133-0.104,0.542-0.154,1.018h116.377l-0.108-0.957
			c-0.033-0.29,0.062-0.579,0.26-0.792c0.071-0.076,0.13-0.162,0.186-0.251H11.494C11.028,120.455,10.694,120.816,10.601,120.982z"
			/>
		<path fill="#FFFFFF" d="M118.675,124.553c0.192-0.033,0.39-0.008,0.568,0.072c1.08,0.477,2.696,0.74,3.906,0.636l0.596-0.5
			c0.03-0.251,0.097-0.507,0.183-0.76H10.289c-0.057,0.311-0.25,0.584-0.541,0.724c-0.599,0.289-1.338,0.789-1.903,1.276h108.238
			C116.681,125.326,117.463,124.754,118.675,124.553z"/>
		<path fill="#FFFFFF" d="M114.908,130l-0.255-0.147c-0.256-0.147-0.435-0.4-0.486-0.692c-0.052-0.291,0.028-0.59,0.218-0.817
			c0.093-0.11,0.176-0.228,0.262-0.344H8.255c0.027,0.028,0.05,0.063,0.078,0.089c0.136,0.135,0.23,0.307,0.272,0.494
			C8.719,129.1,8.689,129.57,8.566,130H114.908z"/>
		<path fill="#FFFFFF" d="M114.265,133.72c0.099-0.298,0.332-0.533,0.629-0.634l0.548-0.186c0.475-0.16,0.995,0.056,1.217,0.505
			c0.086,0.174,0.166,0.376,0.238,0.594h7.206l0.153-1.348c-0.437-0.189-1.128-0.347-1.628-0.347c-0.274,0-0.565-0.116-0.772-0.305
			H7.182c-0.333,0.302-0.675,0.571-0.978,0.805c-0.329,0.254-0.639,0.494-0.849,0.703c-0.142,0.145-0.287,0.319-0.432,0.493h109.232
			C114.192,133.907,114.233,133.814,114.265,133.72z"/>
		<path fill="#FFFFFF" d="M110.678,137.961l0.397,0.039h0.553l0.593-0.342c0.229-0.6,0.536-1.136,0.847-1.658H3.804v0.309
			c0,0.288-0.124,0.557-0.332,0.744c0.343,0.103,0.664,0.24,0.964,0.369c0.309,0.132,0.601,0.257,0.839,0.309
			c0.14,0.03,0.321,0.015,0.496,0c0.588-0.049,1.185,0.016,1.775,0.269h102.768C110.431,137.967,110.553,137.948,110.678,137.961z"
			/>
		<path fill="#FFFFFF" d="M125.339,136.035L125.326,136h-8.118c0,0.009,0.001,0.019,0.001,0.028l0.773,0.674
			c0.154,0.134,0.263,0.312,0.313,0.509l0.148,0.587c0.017,0.066,0.02,0.134,0.022,0.202h6.369
			C124.866,137.353,124.969,136.664,125.339,136.035z"/>
		<path fill="#FFFFFF" d="M108.82,140H8.769c0.011,0.188,0.013,0.366,0.009,0.52c-0.006,0.219-0.01,0.392,0.027,0.559
			c0.063,0.283,0.183,0.595,0.312,0.922h100.304C109.056,141.337,108.774,140.611,108.82,140z"/>
		<path fill="#FFFFFF" d="M121.096,140l0.779,0.741c0.268,0.254,0.373,0.635,0.275,0.991c0.002,0.052,0.036,0.15,0.083,0.269h1.821
			c0.106-0.06,0.211-0.121,0.32-0.17c0.024-0.476,0.037-0.933,0.002-1.379c-0.01-0.153,0.004-0.302,0.03-0.451H121.096z"/>
		<path fill="#FFFFFF" d="M10.363,145.496c0.019,0.176,0.02,0.342,0.014,0.504h89.255c0.053-0.177,0.148-0.338,0.285-0.462
			c0.871-0.786,1.849-0.936,2.711-1.069c0.401-0.062,0.781-0.12,1.109-0.239c0.128-0.047,0.259-0.132,0.397-0.23H9.667
			c0.007,0.087,0.015,0.183,0.026,0.221c0.037,0.1,0.202,0.351,0.311,0.517c0.082,0.125,0.161,0.245,0.224,0.352
			C10.302,145.214,10.348,145.353,10.363,145.496z"/>
		<path fill="#FFFFFF" d="M99.468,148H10.124c0.016,0.353,0.067,0.748,0.127,1.145c0.52,0.068,1.095,0.146,1.603,0.297
			c0.313,0.091,0.714,0.287,1.144,0.558h87.061C99.974,149.825,99.65,148.668,99.468,148z"/>
		<path fill="#FFFFFF" d="M107.042,153.51c-0.734,0.277-1.572,0.416-2.246,0.344c-0.312-0.031-0.591-0.209-0.753-0.477l-0.509-0.844
			c-0.256-0.121-0.624-0.309-1.023-0.533H15.223c0.417,0.533,0.75,1.099,0.883,1.664c0.419,0.146,0.921,0.236,1.33,0.23
			c0.156,0,0.319,0.041,0.471,0.105h91.387C108.561,153.96,107.761,153.905,107.042,153.51z"/>
		<path fill="#FFFFFF" d="M20.977,157.721L20.995,158h92.458c0-0.006,0-0.012-0.001-0.018c-0.029-0.701-0.062-1.34-0.377-1.982
			H19.329l0.248,0.424l0.883,0.484C20.76,157.072,20.955,157.379,20.977,157.721z"/>
		<path fill="#FFFFFF" d="M115.675,162c-0.147-0.055-0.285-0.107-0.396-0.154c-0.083-0.035-0.161-0.082-0.231-0.137
			c-0.679-0.536-1.052-1.122-1.271-1.709H21.123l0.012,0.184c0.023,0.369-0.158,0.721-0.471,0.914l-0.739,0.457l-0.038,0.145
			L20.104,162H115.675z"/>
		<path fill="#FFFFFF" d="M21.249,166h98.111c-0.02-0.041-0.033-0.081-0.053-0.123c-0.236-0.494-0.499-1.078-0.57-1.877H21.414
			c0.018,0.096,0.032,0.192,0.021,0.291l-0.028,0.277C21.314,165.502,21.281,165.835,21.249,166z"/>
		<path fill="#FFFFFF" d="M19.939,168.07l0.712,1.076c0.204,0.047,0.406,0.098,0.608,0.148c0.13,0.033,0.26,0.066,0.391,0.098
			c0.313-0.238,0.845-0.924,0.944-1.203c0.017-0.069,0.059-0.125,0.085-0.189h-2.687C19.975,168.023,19.958,168.047,19.939,168.07z"
			/>
		<path fill="#FFFFFF" d="M113.695,169.568c0.04-0.432,0.354-0.789,0.777-0.885l0.592-0.129c0.731-0.157,1.533-0.33,2.201-0.555
			H26.09c0.01,0.02,0.029,0.032,0.039,0.053c0.103,0.215,0.709,0.734,1.036,1.014c0.323,0.275,0.627,0.539,0.837,0.764
			c0.056,0.061,0.1,0.112,0.151,0.17h85.531C113.678,169.858,113.681,169.715,113.695,169.568z"/>
		<path fill="#FFFFFF" d="M44.217,174h70.893c0.021-0.048,0.036-0.092,0.059-0.141c-0.126-0.385-0.344-0.793-0.572-1.219
			c-0.11-0.207-0.223-0.421-0.332-0.641H29.122c0.008,0.297-0.016,0.635-0.068,1.057c-0.038,0.314-0.08,0.629-0.12,0.943h10.283
			c0.213-0.246,0.405-0.496,0.582-0.779c0.164-0.266,0.441-0.438,0.751-0.469l1.905-0.189c0.276-0.023,0.543,0.059,0.75,0.234
			l0.681,0.584C44.073,173.542,44.183,173.764,44.217,174z"/>
		<path fill="#FFFFFF" d="M28.554,176.994c-0.011,0.092-0.004,0.139,0,0.15c0,0,0.133,0.195,1.156,0.195
			c0.874,0,1.93-0.17,2.779-0.307c0.648-0.104,1.16-0.186,1.524-0.186c0.627,0,1.277,0.399,1.938,1.152h1.708
			c0.438-0.28,0.473-0.523,0.584-1.359c0.012-0.102,0.063-0.346,0.139-0.641H28.68C28.638,176.331,28.593,176.663,28.554,176.994z"
			/>
		<path fill="#FFFFFF" d="M46.202,177.256c0.277-0.029,0.551,0.055,0.762,0.234c0.155,0.133,0.245,0.315,0.296,0.51h67.355
			c0.084-0.263,0.067-0.479,0.021-0.885c-0.036-0.314-0.072-0.68-0.047-1.115H43.835l-0.269,1.178l0.013,0.025
			C44.433,177.285,45.377,177.35,46.202,177.256z"/>
		<path fill="#FFFFFF" d="M47.239,180c-0.166,0.727-0.581,1.116-1.462,1.652c-0.16,0.099-0.346,0.211-0.555,0.348h68.575
			c-0.001-0.017,0.003-0.036,0.001-0.053c-0.01-0.049-0.055-0.213-0.098-0.379c-0.134-0.516-0.176-0.689-0.162-0.9
			c0.01-0.237,0.057-0.457,0.117-0.668H47.239z"/>
		<path fill="#FFFFFF" d="M45.377,184c0.363,0.638,0.692,1.33,0.979,2h1.396l0.179-0.723c0.093-0.377,0.397-0.666,0.779-0.742
			l1.467-0.287c0.252-0.051,0.515,0,0.733,0.141l1.221,0.785l1.938-0.209c0.535-0.057,1.014,0.313,1.096,0.84l0.03,0.195h59.698
			c0.045-0.171,0.064-0.322,0.053-0.445c-0.296-0.379-0.664-0.951-0.909-1.555H45.377z"/>
		<path fill="#FFFFFF" d="M112.32,188.674l0.814-0.135c0.186-0.188,0.353-0.366,0.506-0.539H55.935l0.374,0.293
			c0.145,0.113,0.255,0.266,0.32,0.438l0.476,1.27h54.426l-0.029-0.162c-0.047-0.264,0.013-0.533,0.167-0.752
			S112.056,188.719,112.32,188.674z"/>
		<path fill="#FFFFFF" d="M52.192,193.297c-0.17,0.15-0.528,0.48-0.735,0.676c-0.002,0.009-0.003,0.019-0.005,0.027h62.936
			c-0.058-0.143-0.112-0.285-0.155-0.426l-1.724-0.719c-0.313-0.131-0.539-0.41-0.599-0.744L111.89,192H57.162l-0.614,0.566
			c-0.209,0.193-0.491,0.287-0.775,0.26C54.883,192.746,52.932,193.018,52.192,193.297z"/>
		<path fill="#FFFFFF" d="M51.12,198h64.572c-0.249-0.611-0.421-1.273-0.454-2H51.426c0.01,0.326,0.008,0.658-0.045,1.008
			C51.326,197.359,51.228,197.684,51.12,198z"/>
		<path fill="#FFFFFF" d="M114.46,201.787c0.674,0,1.76-0.693,2.226-1.383L116.7,200H50.559c0,0.076-0.007,0.153,0.003,0.229
			c0.034,0.246-0.025,0.494-0.164,0.699L49.668,202h64.203C114.04,201.875,114.232,201.786,114.46,201.787z"/>
		<path fill="#FFFFFF" d="M110.167,204.873l1.933-0.707l0.13-0.166H47.861c-0.042,0.097-0.094,0.188-0.164,0.268l-0.684,0.779
			c0.031,0.331,0.039,0.646,0.034,0.953h62.266c0.106-0.291,0.233-0.566,0.396-0.785
			C109.825,205.059,109.984,204.939,110.167,204.873z"/>
		<path fill="#FFFFFF" d="M45.691,210h62.003c0.078-0.686,0.451-1.417,0.923-2H46.71c-0.221,0.62-0.543,1.18-0.982,1.676
			C45.713,209.78,45.701,209.889,45.691,210z"/>
		<path fill="#FFFFFF" d="M45.21,214h63.201c-0.016-0.048-0.029-0.094-0.039-0.141c-0.082-0.443-0.095-0.871-0.107-1.285
			c-0.006-0.197-0.014-0.389-0.027-0.574H45.782c0.016,0.05,0.032,0.101,0.052,0.139c0.174,0.338,0.141,0.746-0.085,1.051
			l-0.555,0.752C45.197,213.961,45.206,213.98,45.21,214z"/>
		<path fill="#FFFFFF" d="M109.619,217.703c-0.196-0.529-0.394-1.064-0.551-1.596c-0.01-0.035-0.011-0.072-0.02-0.107H45.89
			c0.067,0.288,0.114,0.593,0.103,0.932c-0.009,0.301-0.154,0.582-0.394,0.766c-0.115,0.087-0.222,0.189-0.32,0.303h64.448
			L109.619,217.703z"/>
		<path fill="#FFFFFF" d="M127.447,221.453l0.018-0.453c-0.639-0.263-1.423-0.652-1.834-1H44.692
			c-0.007,0.151-0.026,0.311-0.068,0.473c-0.029,0.137-0.106,0.314-0.3,0.744c-0.041,0.09-0.082,0.18-0.115,0.254
			c0.013,0.118,0.034,0.309,0.059,0.529h83.326C127.495,221.836,127.439,221.648,127.447,221.453z"/>
		<path fill="#FFFFFF" d="M143.116,221.34l-0.487-0.709c-0.742-0.143-2.165-0.41-2.67-0.498c-0.184,0.059-0.473,0.16-0.774,0.266
			c-0.81,0.279-1.187,0.406-1.397,0.447c-0.306,0.063-0.697,0.063-1.148,0.045c-0.312-0.014-0.665-0.021-0.924,0.016
			c-0.228,0.279-0.389,0.6-0.57,0.957c-0.022,0.045-0.048,0.092-0.072,0.137h9.366l-0.821-0.281
			C143.414,221.65,143.238,221.516,143.116,221.34z"/>
		<path fill="#FFFFFF" d="M142.902,225.666c0.006-0.123,0.033-0.242,0.081-0.354c0.187-0.433,0.529-0.884,0.922-1.313h-10.503
			c-0.089,0.053-0.182,0.101-0.283,0.123c-0.287,0.064-0.583,0.098-0.881,0.098c-0.474,0-0.928-0.085-1.367-0.221H53.221
			c0.009,0.019,0.023,0.033,0.031,0.053l0.245,0.617l0.803,0.281c0.188,0.064,0.353,0.186,0.472,0.346
			c0.169,0.227,0.315,0.466,0.463,0.703h87.653L142.902,225.666z"/>
		<path fill="#FFFFFF" d="M44.531,224.35c0.051,0.107,0.139,0.26,0.237,0.434c0.204,0.367,0.439,0.793,0.62,1.217h0.792
			c0.783-0.167,1.666-0.664,2.518-1.154c0.518-0.298,1.044-0.596,1.581-0.846h-5.788C44.507,224.144,44.521,224.271,44.531,224.35z"
			/>
		<path fill="#FFFFFF" d="M63.683,230h80.204c0.028-0.632-0.151-1.361-0.478-2H61.611c0.319,0.283,0.606,0.585,0.873,0.873
			c0.375,0.404,0.729,0.789,1.123,1.051C63.637,229.944,63.655,229.977,63.683,230z"/>
		<path fill="#FFFFFF" d="M64.651,233.965c0.002,0.012-0.001,0.023,0,0.035h69.961c0.552-0.047,1.184-0.453,1.854-0.896
			c0.599-0.396,1.248-0.821,1.967-1.104H64.294L64.651,233.965z"/>
		<path fill="#FFFFFF" d="M145.906,232h-4.369c0.138,0.059,0.276,0.121,0.412,0.195c0.077,0.042,1.432,0.791,2.468,1.805h2.28
			c-0.224-0.539-0.47-1.236-0.564-1.896C146.055,232.075,145.982,232.033,145.906,232z"/>
		<path fill="#FFFFFF" d="M132.486,236H63.901c-0.162,0.403-0.283,0.768-0.336,1.029l0.676,0.85c0.03,0.037,0.045,0.081,0.068,0.121
			h68.332c-0.063-0.155-0.133-0.309-0.18-0.469c-0.034-0.078-0.089-0.225,0.013-1.479C132.475,236.034,132.484,236.018,132.486,236z
			"/>
		<path fill="#FFFFFF" d="M64.715,241.064c0.104,0.088,0.188,0.195,0.249,0.316c0.095,0.191,0.146,0.401,0.176,0.619h69.157
			c-0.052-0.151-0.106-0.305-0.156-0.453c-0.188-0.555-0.368-1.087-0.557-1.547H63.893
			C64.107,240.392,64.423,240.816,64.715,241.064z"/>
		<path fill="#FFFFFF" d="M64.855,244c-0.198,0.603-0.474,1.269-0.789,2h71.205c0.114-0.221,0.248-0.479,0.425-0.82
			c-0.233-0.361-0.434-0.765-0.622-1.18H64.855z"/>
		<path fill="#FFFFFF" d="M63.492,248c-0.053,0.599-0.115,1.312-0.121,1.42c0,0.189,0.058,0.384,0.139,0.58h71.153
			c-0.001-0.095-0.001-0.182-0.003-0.281c-0.008-0.563-0.013-1.167,0.016-1.719H63.492z"/>
		<path fill="#FFFFFF" d="M65.922,252.654c0.498,0.426,0.969,0.826,1.339,1.225c0.031,0.032,0.062,0.081,0.092,0.121h63.395
			c-0.006-0.023-0.008-0.052-0.014-0.074c-0.061-0.209-0.051-0.432,0.027-0.637l0.454-1.182c0.015-0.039,0.039-0.071,0.059-0.107
			H65.17C65.423,252.226,65.678,252.446,65.922,252.654z"/>
		<path fill="#FFFFFF" d="M68.4,256.811c0.036,0.324,0.033,0.643,0.027,0.959c-0.001,0.085,0.004,0.152,0.004,0.23h61.063
			c0.212-0.615,0.548-1.279,1.056-2H68.222C68.316,256.336,68.383,256.633,68.4,256.811z"/>
		<path fill="#FFFFFF" d="M129.172,260H70.065c0.398,0.601,0.725,1.288,0.999,2h58.401c-0.01-0.046-0.016-0.082-0.027-0.131
			C129.319,261.323,129.185,260.704,129.172,260z"/>
		<path fill="#FFFFFF" d="M73.396,264.721c0.297,0.158,0.509,0.461,0.532,0.816c0.012,0.19,0.057,0.329,0.139,0.463h4.301
			l0.643-0.504c0.176-0.139,0.394-0.213,0.617-0.213c0.002,0,0.005,0,0.008,0l1.133,0.008c0.244,0.002,0.479,0.094,0.66,0.256
			L81.934,266h45.257c0.143-0.07,0.359-0.176,0.421-0.23c0.166-0.152,0.27-0.311,0.4-0.512c0.248-0.381,0.586-0.873,1.288-1.258
			H72.202L73.396,264.721z"/>
		<path fill="#FFFFFF" d="M76.462,268H75.41c0.106,0.356,0.168,0.695,0.224,1.025c0.057,0.338,0.129,0.655,0.23,0.975h0.518
			c0.038-0.042,0.085-0.08,0.12-0.121l-0.04-1.877C76.462,268.001,76.462,268.001,76.462,268z"/>
		<path fill="#FFFFFF" d="M83.254,270h35.77c0.281-0.27,0.556-0.611,0.839-0.977c0.259-0.333,0.543-0.691,0.863-1.023H82.812
			C82.868,268.655,83.033,269.418,83.254,270z"/>
		<path fill="#FFFFFF" d="M113.473,272.654c0.507,0.533,0.819,0.84,1.29,0.898c0.373-0.477,0.713-1.143,0.71-1.432
			c0-0.041,0.009-0.081,0.014-0.121h-2.695C113.038,272.211,113.263,272.433,113.473,272.654z"/>
		<path fill="#FFFFFF" d="M91.512,272.07l0.99,0.447l0.756-0.086c0.417-0.057,0.824,0.172,1.012,0.551L94.772,274h4.965
			c0.408-0.314,0.813-0.658,1.148-0.98c0.155-0.15,0.354-0.244,0.567-0.271l0.773-0.098c0.327-0.043,0.584-0.072,0.789-0.096
			c0.26-0.031,0.485-0.057,0.544-0.078c0.081-0.031,0.242-0.139,0.429-0.264c0.092-0.062,0.199-0.133,0.322-0.213H91.266
			C91.35,272.014,91.433,272.034,91.512,272.07z"/>
	</g>
</g>
</svg>
