<?xml version="1.0" encoding="utf-8"?>
<!-- Generator: Adobe Illustrator 16.0.0, SVG Export Plug-In . SVG Version: 6.00 Build 0)  -->
<!DOCTYPE svg PUBLIC "-//W3C//DTD SVG 1.1//EN" "http://www.w3.org/Graphics/SVG/1.1/DTD/svg11.dtd">
<svg version="1.1" xmlns="http://www.w3.org/2000/svg" xmlns:xlink="http://www.w3.org/1999/xlink" x="0px" y="0px" width="285px"
	 height="255px" viewBox="0 0 285 255" enable-background="new 0 0 285 255" xml:space="preserve">
<g id="Layer_1">
	<g>
		
			<path fill="#00808E" stroke="#00808E" stroke-width="3" stroke-linecap="round" stroke-linejoin="round" stroke-miterlimit="10" d="
			M282.619,233.174l-2.156-1.299c-0.443-1.611-1.344-4.547-3.18-5.158c-0.242-0.795-0.07-1.439-0.156-2.201
			c-0.047-0.484-0.553-1.998-0.871-2.334c-1.244-1.338-4.137-3.051-4.137-5.154c0-0.098,0.193-2.291,0.201-2.33
			c0.318-1.135,2.022-4.115,1.486-5.197c-0.553-0.463-1.215-1.414-1.377-2.135l0.77-1.17l-0.92-1.158
			c-0.03-0.84,0.747-2.475,1.129-3.18l-0.615-3.369c-1.166-0.779-1.851-2.195-3.174-2.693c-1.64-0.379-2.178,1.361-4.689,0
			c-0.256-0.742-0.707-1.521-1.175-2.145l-1.229-0.43l-0.411-1.043c-2.459,0.189-5.08,3.449-7.639,2.436
			c-1.549,0.582-3.166,1.557-4.457,2.566l-0.662,2.188c-0.614,0.404-2.58,1.555-2.939,1.945c-0.273,0.289,0.023,0.902,0.178,1.199
			l-2.512,1.352c-0.178-0.195-1.96-2.178-2.037-2.23c-0.699-0.506-2.248-1.059-3.08-1.451c-0.699-1.521-2.35-4.563-3.85-5.25
			c-1.207-2.82-0.926-2.883-0.313-5.787c0.693-3.252-5.795-2.783-5.592-0.498c0.063,0.762,0.832,3.275,0.762,3.611l-0.902,4.172
			l0.801,1.609c-1.617,2.422-3.492,1.037-3.329,5.393l-2.629,2.482l-2.263-6.484c-0.311-0.881-2.449-4.008-3.189-1.988l-1.852-0.629
			c-0.622-0.914-2.723-5.404-2.582-6.42c0.086-0.682,1.734-1.785,2.318-2.158c-1.207-0.445-3.431-0.969-4.115-2.063
			c-1.074-0.52-2.957-1.568-3.687-2.459c-1.819-2.193,3.989-10.877,5.102-13.275c0.451-0.955,0.568-4.023,0.669-5.227
			c0.242-2.861,0.887-5.795,0.887-8.66c0-1.053,0.451-1.777,1.222-2.455c0.241-0.213,0.524-0.531,0.837-0.844
			c0.006-0.006,0.014-0.016,0.02-0.021l-1.947,0.025l-2.283-1.881l-2.486-0.386l-0.484-2.332l0.24-2.264l-1.489-0.327l-1.142-1.896
			l0.445-1.854l-1.883-0.32l-0.758,0.531l-1.219-1.134l0.789-0.948l-1.797-1.239l0.516-0.931l1.064-1.156l-1.771-1.88l-0.049-1.189
			l0.773-0.834l0.84,0.051l0.592-0.197l-0.436-1.333l0.285-2.045l1.242-0.669l0.309-1.749l-0.081-0.769l-1.921,0.059l-0.74,0.416
			l-0.456-1.626l-0.386-0.331l-1.027-0.012l-0.135-0.46l-1.021,0.212l-0.986-0.958l-1.497,0.011l-0.306-1.471l-1.012-0.69
			l0.434-1.14l0.577-0.456l-1.08-2.549l-0.571-0.479l0.011-1.464l0.614-0.652l-0.209-0.817l-0.68-0.609l0.367-1.273l0.51-0.968
			l-0.838-1.772l-0.121-0.764l-0.535-0.487l-0.412,1.057l-1.316,0.5l-2.002-2.806l-0.846-0.273l0.76-1.094l1.592-1.078l0.064-1.399
			l0.861-0.031l0.578-1.205l1.211-0.25l1.176,0.542l1.492-0.422l2.064,0.058l0.844,1.023l1.376-0.023l0.724,0.451l0.635-0.17
			l0.647,0.838l1.589,0.047l0.441,0.994l0.773-0.273l0.553,0.859l1.324,0.026c0,0,0.379,0.296,0.5,0.31
			c0.121,0.012,1.479-0.878,1.479-0.878l1.173-0.552v-1.229c0.592-0.722,1.19-1.608,1.836-2.262
			c1.027-1.028,3.375-2.133,2.964-3.982c-0.601-0.6-1.198-1.424-1.532-2.201c0.404-1.043,2.279-2.303,3.213-2.753
			c0.008-0.514,0.164-2.863,0.412-3.314c0.396-0.709,2.488-2.529,3.111-3.058l1.127,0.545l1.268-0.304
			c0.413-0.779-0.271-2.582-0.652-3.245l0.451-1.105l2.402-0.31c0.568-0.646,1.447-1.306,2.242-1.648
			c1.281-0.053,2.293,0.787,3.577,0.552c1.027,0.435,2.511,1.852,3.268,2.628c1.719-0.14,2.838-1.997,3.267-3.484
			c-0.389-0.839-1.588-2.642-2.56-2.94c-0.155-0.725-0.7-1.578-1.22-2.086l0.815-2.261c-0.716-1.566-2.411-2.972-3.68-4.046
			c-1.166,0.033-2.681-0.436-3.515-1.282c-0.661-0.677-0.809-1.308-1.837-2.084l-1.073,0.177l-2.248-1.281
			c0.047-1.418,0.227-2.894,0.514-4.289l-1.02-0.855c-0.871,0.132-2.793,0.155-3.578-0.363l-0.715-1.105l0.66-1.043
			c-0.715-1.096,0.164-2.209-0.809-3.43c-1.074-0.561-2.371-1.252-3.244-2.117h-0.008c-0.318-0.297-0.832-0.667-1.09-1.005
			c-0.215-0.286-0.325-0.785-0.502-1.104c-0.266-0.458-1.339-1.849-1.736-2.083c-1.33-0.763-1.656-0.193-2.98-1.548l-0.34-0.35
			c-0.537,0.459-1.742,0.87-2.45,0.676c-0.988-1.033-2.372-1.345-3.421-2.333c-0.678,0.03-1.565-0.265-2.141-0.604l0.203-1.043
			l-0.615-1.105l0.055-0.979c-2.488-2.738-3.881-1.664-5.616-2.753c-0.396-0.248-0.724-0.677-1.118-0.925
			c-0.569-0.341-1.525-0.633-2.201-0.669l-1.021-1.165c-1.149,0.116-2.543,0.272-3.623,0.738c-0.771-0.427-2.396-1.135-3.314-1.044
			c-1.035,0.492-2.676,1.417-3.422,2.325c-0.155,0.616,0.194,1.659,0.561,2.149l-0.865,1.158c-0.684-0.178-1.625-0.114-2.301,0.063
			l-1.066,0.98l-0.77-0.016c-1.453-0.038-1.821-0.125-2.995,0.73l-0.785,0.576c-0.7,0.281-1.61,0.32-2.341,0.543
			c-0.795,0.25-1.277,0.677-2.193,0.616c-0.771-0.536-2.342-1.508-3.322-1.596l-1.617,1.308l-0.072,0.023
			c0.111,0.352,0.25,0.708,0.436,1.082l-0.271,1.229c-1.666,0.995-3.345,1.751-5.172,2.387c-1.065,0.375-2.209,0.575-3.182,1.168
			c-0.988,0.598-1.648,1.633-2.699,2.129c-2.224,1.074-6.683,1.214-8.136,1.813c-1.928,0.799-2.73,2.357-5.228,2.202
			c-0.997,2.146-2.816,2.969-1.674,5.63c0.788,0.468,1.736,0.528,2.539,0.965c0.372,0.209,0.653,0.56,1.018,0.776
			c0.374,0.227,0.81,0.321,1.191,0.522c1.369,0.724,2.427,1.929,3.555,2.973v1.29l-1.239,0.072c-1.36-0.833-5.009-2.515-6.526-1.751
			l-0.318,0.715c0.242,1.097,1.104,1.876,1.61,2.848c1.097,2.1,0.849,5.405-0.964,7.046c-2.039,1.837-3.198,0.669-2.808,4.27
			l-0.7,0.964l-1.455-0.124c-0.848-0.739-1.493-1.711-1.835-2.785l0.491-1.29c1.89-0.925,3.461-2.612,3.234-4.856
			c-0.256-2.496-3.554-5.589-3.935-9.187c-0.615-5.771,2.939-6.126,0.107-14.031c-0.52-1.445-0.162-3.063-1.616-4.077
			c-0.412,0.064-0.84,0.095-1.246,0.197c-1.236,0.318-1.585,4.977-5.335,6.278l-0.808-0.851c0.379-2.27,4.138-6.588,4.043-7.56
			c-0.209-2.16-1.182-2.403-1.89-4.074c-0.629-1.494-1.034-4.084-2.582-4.988c-1.145-0.66-3.967-0.621-5.18-0.125
			c-2.334,0.949-2.232,5.843-3.93,6.21c-0.341,0.068-0.685,0.091-1.025,0.133c-1.845-2.663,2.496-5.189-4.156-9.056
			c-0.076-0.763-0.263-1.508-0.59-2.201l-0.918,0.318c-0.535,1.089-1.563,2.519-1.563,3.756c0,0.816,0.491,1.565,0.326,2.391
			c-0.296,1.524-2.193,2.394-3.396,3.108l-1.402-0.132c-0.583,1.043-1.461,2.382-1.666,3.554c-0.332,1.861-0.552,3.4-1.833,4.917
			l-1.083-0.061c-0.942-2.676,2.218-6.69-1.237-8.278c-1.104-1.703,0.03-4.028-1.135-5.764c-0.88-1.305-3.43-1.376-4.738-2.837
			c-1.384-1.558-2.644-3.289-3.329-5.291c-0.241-0.708-0.39-1.982-0.824-2.542c-0.227-0.291-0.492-0.586-0.756-0.843
			c-1.343-1.267-3.507-2.129-5.008-3.359c-0.912-0.738-1.696-1.672-2.753-2.201c-1.12-0.559-2.909-0.575-4.146-0.514l-0.654,0.647
			l0.761,0.839c2.404,0.413,4.685,2.178,4.685,4.853c0,0.484-0.205,0.935-0.157,1.426c0.124,1.453,0.225,1.578-0.218,3.033
			c1.906,5.832,5.647,0.567,9.271,6.789l-0.216,1.168l-1.127,0.39c-0.717-0.242-5.533-1.533-5.556-1.558
			c-0.357-0.311-0.56-0.769-0.878-1.127c-0.676-0.759-1.485-1.383-2.141-2.17c-1.593-1.898-2.899-3.99-5.715-2.908l-0.273,1.229
			c0.66,1.687,2.877,1.868,4.044,3.063c1.222,1.244,1.547,3.098,2.808,4.311c0.607,0.59,1.439,0.81,2.154,1.229
			c1.433,0.839,3.041,2.746,3.828,4.206c1.392,2.612,1.509,5.812,3.336,8.214l0.056,1.293l-0.964,0.583
			c-0.436-0.11-0.881-0.178-1.301-0.326c-0.923-0.321-2.775-4.606-3.608-5.624c-0.458-0.57-1.036-1.044-1.399-1.682
			c-0.5-0.87-1.479-3.406-2.428-3.688c-0.42-0.121-0.863-0.178-1.29-0.261c-3.299,1.349-0.632,3.74-0.973,5.044
			c-0.086,0.338-0.249,0.656-0.381,0.972c-4.231,1.93-2.311,6.645-2.583,10.152c-0.08,0.997-0.583,1.921-0.919,2.846
			c-0.552,1.517-1.119,3.205-2.534,4.138l-1.183-0.061l-0.754-0.779c-0.279-1.501-0.717-3.093-0.918-4.587
			c-0.156-1.208-0.095-2.569-0.326-3.751c-0.264-1.378-1.293-3.132-0.911-4.595c0.692-2.66,5.041-4.153,3.937-7.046
			c-0.265-0.685-0.831-1.191-1.19-1.815c-1.119-1.944-0.467-2.526-2.693-3.491c-1.85,1.282-1.903,3.607-4.743,2.129
			c-2.016-3.536,2.591-5.919,3.071-7.108c0.171-0.43,0.343-0.864,0.483-1.3c0.193-0.59-0.56-1.604-0.865-2.068
			c-0.194-0.303-0.349-0.639-0.59-0.903c-0.847-0.939-2.458-1.227-3.665-1.104c-1.616,0.173-5.45-0.224-6.471,0.329
			c0.538,0.972,1.4,1.717,2.001,2.651l-0.544,0.838c-3.135,0.758-5.741-5.203-11.047,0.39l1.13,0.514
			c1.22-0.188,2.659-0.654,3.881-0.257c0.802,0.265,3.018,2.451,3.018,3.298c0,0.483-0.103,0.949-0.156,1.422
			c-1.795,1.494-2.893,0.522-4.908-0.132l-1.028,0.39c-0.016,0.18-0.148,0.987-0.108,1.104c0.521,1.581,4.271,3.135,5.772,4.202
			c0.091,0.698,0.589,1.443,1.18,1.811c1.558-0.256,2.996-0.934,4.474-1.422c3.732,1.229,2.201,3.514,0.49,5.623
			c0.241,0.599,0.933,1.12,1.51,1.361l0.371,1.033c-0.355,0.7-0.993,1.176-1.508,1.751c-1.96,2.194-2.091,4.3-5.707,3.555
			l-0.919,0.583v1.229c1.298,1.478,2.901,0.242,4.581,2.132l0.055,1.228c-0.873,0.583-3.789,0-6.036,1.228
			c-0.367,0.865-0.576,1.79-0.594,2.722c-2.628,0.663-3.755-0.699-3.505-3.233l-0.973-0.716l-1.184,0.265
			c-3.407,3.221-0.295,6.519,1.992,9.053c0.364,0.396,2.262,3.438,2.262,3.812c0,0.46-0.101,0.911-0.154,1.361l-1.245-0.257
			c-1.353-1.392-2.832-2.746-4.581-3.624c-0.841,0.257-1.781,0.241-2.639,0.061c-0.93,1.309-2.02,2.374-2.961,3.627l-0.919,0.326
			c-0.809-1.185-0.802-1.906-1.191-3.174c-0.387-1.282-1.071-1.861-0.427-3.361c2.49,0.32,4.107,0.305,5.173-2.395
			c-0.28-0.654-2.179-3.423-2.099-3.82l0.318-1.546c0.211-0.988,3.959-3.756,4.153-7.443c0.022-0.382-1.064-2.629-1.29-3.166
			c-1.736-4.149-0.352-6.388-1.029-9.576c-1.648-1.26-1.717-2.678-0.861-4.467c-0.622-0.28-1.354-0.238-2.016-0.084
			c-3.439,0.833-1.615,4.294-1.865,6.688c-0.155,1.535-0.715,2.492-0.484,4.14c0.156,1.144,0.84,2.137,0.919,3.298
			c0.079,1.211-0.787,5.879-1.3,6.984l-0.962,0.644c-0.67-0.429-1.558-0.981-2.318-1.157c-2.202-0.522-5.087,2.534-6.638-0.265
			c0.227-2.382,2.235-3.782,1.729-6.271c-0.212-0.038-4.498,0.616-4.962,0.708c-0.912,1.921-3.174,2.164-4.148,3.82
			c0.779,5.009,3.09,1.679,4.474,5.04c-0.295,1.422-1.126,1.805-1.671,2.979c-0.458,1.003-1.377,3.991-1.456,5.04l0.594,0.911
			c0.972,0.084,1.958,0.045,2.909,0.257c1.297,0.288,2.511,0.964,3.725,0l1.017,0.715l0.272,1.159
			c-2.224,2.481-3.438,1.005-5.661,0.389c-0.359-0.091-2.155,0.032-2.637,0.071l-0.491,0.575c0.692,2.163,2.817,2.098,3.346,5.692
			l-0.755,0.46c-1.377-0.616-1.828-2.669-3.499-2.723l-0.709,0.912l-0.909-0.196c-1.424-2.146,0.458-4.8-2.054-6.276
			c-2.107,2.162-0.17,5.18-3.827,7.568c-0.632,0.413-1.392,0.583-2.046,0.973c-0.646,0.379-1.229,0.862-1.883,1.229
			c-0.413,3.173,1.721,2.675,1.721,5.367c0,2.488-1.09,4.784-1.619,7.177l0.81,0.839l1.244,0.257
			c0.988-0.435,1.688-1.213,2.186-2.155c0.273-0.497,0.625-0.98,0.779-1.533c0.716-2.629-2.575-5.691,0.591-7.886
			c0.185,0.629,0.583,1.297,1.127,1.679c0.816-0.162,1.68-0.03,2.48-0.257c1.401-0.389,2.226-1.059,3.725-0.193
			c0.057,0.824-0.245,1.905-0.806,2.519c0.886,1.25,2.727,1.118,3.39,1.812c0.56,0.592,0.288,2.303,0.435,3.104
			c0.669,0.266,1.346,0.871,1.611,1.555c-1.641,4.615-6.883-1.819-10.4,1.293c-2.753,2.432-0.288,8.586,5.555,7.312
			c1.82-0.406,2.708-1.548,4.044-1.944c1.682-0.5,3.158,0.363,4.628-1.097c1.354-1.345,1.12-5.011,2.973-5.756
			c1.09-0.442,2.021-0.676,3.018-1.362c0.893,1.158,0,2.481,0.156,3.749c0.147,1.176,1.236,1.86,1.244,3.173
			c-0.748,0.865-1.914,1.3-2.48,2.326c0.892,3.207,5.926,3.922,5.926,9.686c0,1.726-0.435,3.063-1.619,4.355l-0.045,0.512
			c0.582,0.717,0.162,4.481-0.11,5.439l0.7,0.644c0.646-0.427,1.144-1.205,1.346-1.945l1.509,0.195
			c0.544-0.615,0.964-1.353,1.237-2.132c1.694-0.995,3.982-1.082,5.281-2.201l-0.264-1.097c-1.028-0.7-1.977-1.562-3.184-1.944
			c-1.648-2.465,1.426-3.506,2.103-4.917c-0.98-2.704-6.013-6.432-6.092-10.415l0.7-0.965c1.229,0.273,2.764,0.881,3.991,0.321
			c1.198-2.319,0.421-8.426,3.346-9.762c1.494-0.685,3.446,0.769,4.093,2.07c-0.165,0.885-0.22,1.812-0.103,2.711l0.754,0.903
			c1.097,0.14,2.544,1.066,2.639,2.264c0.083,1.15-1.463,4.045-1.892,5.305c0.296,0.684,0.723,1.331,0.863,2.067
			c0.389,1.994-2.511,6.722-1.827,7.826c0.193,0.329,0.465,0.617,0.699,0.912c1.79-1.479,1.828-3.858,4.747-2.909
			c0.458-0.173,1.671-0.654,1.99-0.973c1.494-1.477,5.29-9.582,5.446-11.644c-1.129-1.744-1.759-2.171-1.345-4.395l0.963-0.585
			c0.669,0.343,1.37,0.632,2.107,0.778c2.654-1.576,1.082-3.858,3.283-5.108l1.082,0.325c0.639,0.925,0.987,2.008,1.672,2.909
			c0.84,0.109,1.758,0.499,2.375,1.096l0.053,1.292c-2.115,0.786-4.683,5.14-2.644,6.986c0.9,0.817,2.932,0.745,4.1,0.847
			c0.528,1.244,2.027,2.31,2.963,3.297c-0.753,3.253-4.683,1.516-5.39,4.916c1.508,1.074,3.276,1.26,4.8,2.194
			c0.045,0.917-0.187,1.812-0.163,2.722c0.068,2.59,2.805,5.483,1.289,7.957l-1.075,0.38c-1.236-0.404-1.996-1.485-3.397-1.485
			c-1.667,0-3.081,1.02-4.8,0.84c-0.88,0.7-1.741,1.733-1.772,2.909c-0.042,1.19,0.737,2.209,0.862,3.368
			c0.163,1.556,0.069,3.414,0.375,4.915c0.105,0.536,0.62,1.626,1.134,1.875c1.999,0.988,3.982-2.263,6.789,0.45
			c-0.265,2.481-0.667,2.514-2.535,3.946c-0.608,0.464-3.011,2.643-3.181,3.236c-0.941,3.266-0.264,3.142,0.916,5.888
			c0.141,0.328,0.405,0.614,0.483,0.973c0.102,0.42-0.038,0.862,0,1.29c0.068,0.724,1.555,3.423,2.107,3.944
			c2.825,2.709,4.739-1.254,6.302-2.973c1.322-1.454,3.523-3.452,5.127-4.401c1.181-0.694,4.115,0.193,5.491,0.257
			c0.917,0.045,1.843-0.063,2.754,0.133l0.591,0.909c-1.144,1.874-2.528,1.546-4.418,1.415c-0.764,2.693-1.596,3.384-4.474,3.306
			c-1.602,1.378-3.532,4.156-4.743,4.917c-1.005,0.621-5.252,1.266-5.556,1.68c-1.251,1.701,0.764,2.76,1.292,4.006l-1.073,0.457
			l-1.401-0.193l-1.081,0.451c0.349,1.852,1.446,1.443,2.536,2.457c1.596,1.479,1.043,2.988,3.555,3.813
			c2.45,0.809,3.608-0.695,6.682,0c0.379,0.082,2.697,1.912,2.908,2.268c0.374,0.607,0.498,1.559,0.436,2.266
			c-2.28,1.736-10.408,2.555-12.073,3.885l-0.49,1.35c0.281,0.654,0.405,1.41,0.808,2.008c1.059,1.572,3.283,1.227,4.91,1.422
			c1.059,0.127,2.061,0.531,3.128,0.584c0.862,0.037,1.727-0.154,2.583,0l0.809,0.777l-0.11,1.424
			c-0.972,0.58-2.046,1.004-3.12,1.352l-0.435,1.037c2.147,3.365-0.746,4.115-2.156,5.949c-1.188,1.555-2.069,5.139-2.334,7.092
			c-0.389,2.797,1.456,3.652,1.309,5.197c1.477,1.361,4.145-0.793,5.881,0c1.135,0.529,1.025,1.891,1.664,2.787
			c0.878,1.221,2.006,2.098,2.373,3.686l-0.911,0.643c-1.259-0.246-2.138-1.225-2.969-2.127c-2.917-0.256-2.76,1.719-4.584,3.164
			c-2.44,0.182-3.801,2.031-5.227,2.201c-0.862,0.104-1.725-0.195-2.582,0.061c-0.708,1.475-2.357,4.539-2.699,6.021l0.59,0.967
			l1.191-0.256c0.2-0.658,1.112-3.098,1.881-3.17c2.147-0.199,4.667-0.303,6.681,0.453c1.285,3.064,3.93-0.279,7.009,1.484
			c1.014,0.574,2.613,5.059,4.209,6.404c1.86,1.57,4.035,0.666,5.763,2.648l0.218,1.17c-0.553,1.016-1.689,1.469-2.481,2.264
			c0.404,0.932,0.94,3.602,1.672,4.137c1.229,0.898,3.057,1.246,3.719,2.844c1.328,3.223-1.222,5.822,3.506,8.154
			c0.617,0.303,1.269,0.787,1.993,0.582l-1.075-0.326c1.075,0.148,3.019,0.365,4.037,0.063c1.237-0.355,2.11-0.797,3.454-0.9
			c0.809-0.063,1.703,0.121,2.481-0.197c2.115-0.885,3.359-3.086,5.063-4.463c1.229-0.99,3.018-0.816,4.472-1.158
			c0.779-0.188,3.478-1.4,4.154-1.814c1.189-0.738,2.25-2.027,3.663-2.525c0.818-0.279,1.688-0.127,2.528-0.258
			c1.345-0.205,2.957-1.156,3.89-2.133c0.226,0.537,0.491,1.059,0.801,1.551h0.008c5.896-3.51,1.206-10.674,4.449-14.584
			c1.883-2.266,3.113-5.012,6.558-4.076c3.563,0.969,2.715-0.771,4.689-2.111c1.276-0.861,3.073-1.875,4.467-0.721
			c0.924,0.76,6.16,3.578,7.068,2.504c0.919-1.104,2.646-1.246,3.502,0.018c0.311,0.447,0.879,1.385,1.508,1.477l1.642-1.166
			c0.856,1.422,2.294,3.205,3.772,4.053l-0.102,5.779c0.467,0.729,1.004,1.795,1.572,2.426c1.043,1.135,2.442,2.209,3.586,3.248
			c1.478-0.486,3.088,0.166,4.238,1.066c2.076,1.635,3.151,1.074,3.865-1.33c0.374-1.248,1.238-2.432,2.481-2.945l2.325,0.615
			c0.242-0.07,3.096-0.918,3.143-0.918c0.125,0,3.866,0.791,4.231,0.873c0.008-1.061,0.545-2.293,1.767-2.293
			c1.494,0,3.102,0.393,4.543,0.803l1.376,2.016c1.097,1.594,1.563-0.512,1.649-1.367c0.148-1.574,0.226-3.244,0.684-4.771
			l3.027,0.795l4.27-1.268l0.234-1.393l7.918-1.666l0.771,2.209l1.392,1.146l-0.389,4.473l1.75,1.164
			c0.295,1.59,0.855,3.682,0.973,5.25c0,0.104-0.357,2.33-0.389,2.529c0.824,1.57,3.973,7.502,5.057,8.75
			c0.029,0.041,1.602,1.072,1.749,1.168l6.223-4.277l0.973,2.525L245.292,246c0.108,0.082,1.353,0.961,1.36,0.977
			c0.692,1.119,1.556,3.396,2.139,4.666l1.945-0.582l3.5,1.748c0.553-0.824,1.914-1.811,2.917-1.945l0.972,1.75
			c1.229-0.078,2.979-0.48,3.695-1.553c0.716-1.074,1.175-1.604,1.361-2.92c0.256-1.754,0.605-3.508,0.973-5.25l-1.75-2.525
			l0.973-0.975c2.938,1.021,7.466,2.881,10.111,4.475c1.586,0.963,3.15,2.232,4.667,3.305v-3.305l3.694-2.723l-3.307-4.863
			L282.619,233.174z"/>
		<polygon fill="#CECECE" points="211.646,105.032 211.646,105.037 211.65,105.03 		"/>
	</g>
</g>
<g id="Layer_3">
	
		<polygon fill="#00808E" stroke="#00808E" stroke-width="3" stroke-linecap="round" stroke-linejoin="round" stroke-miterlimit="10" points="
		239.777,66.305 239.777,79.547 223.205,63.63 	"/>
	
		<polygon fill="#00808E" stroke="#00808E" stroke-width="3" stroke-linecap="round" stroke-linejoin="round" stroke-miterlimit="10" points="
		217.281,140.23 217.281,153.422 209.205,145.922 	"/>
	
		<polygon fill="#00808E" stroke="#00808E" stroke-width="3" stroke-linecap="round" stroke-linejoin="round" stroke-miterlimit="10" points="
		216.348,175.234 216.348,185.338 208.205,178.756 	"/>
	
		<polygon fill="#00808E" stroke="#00808E" stroke-width="3" stroke-linecap="round" stroke-linejoin="round" stroke-miterlimit="10" points="
		282.619,220.174 282.619,240.881 272.122,226.09 	"/>
	
		<polygon fill="#00808E" stroke="#00808E" stroke-width="3" stroke-linecap="round" stroke-linejoin="round" stroke-miterlimit="10" points="
		70.119,205.336 70.119,218.537 93.331,205.797 82.039,199.59 	"/>
	
		<polygon fill="#00808E" stroke="#00808E" stroke-width="3" stroke-linecap="round" stroke-linejoin="round" stroke-miterlimit="10" points="
		73.731,162.26 73.731,175.133 94.122,174.775 87.56,161.963 	"/>
	
		<polygon fill="#00808E" stroke="#00808E" stroke-width="3" stroke-linecap="round" stroke-linejoin="round" stroke-miterlimit="10" points="
		70.177,146.222 70.177,159.65 90.997,151.463 	"/>
	
		<polygon fill="#00808E" stroke="#00808E" stroke-width="3" stroke-linecap="round" stroke-linejoin="round" stroke-miterlimit="10" points="
		64.489,105.853 64.489,118.844 80.06,111.276 	"/>
	
		<polygon fill="#00808E" stroke="#00808E" stroke-width="3" stroke-linecap="round" stroke-linejoin="round" stroke-miterlimit="10" points="
		67.423,126.333 67.423,138.52 79.747,129.651 	"/>
	
		<polygon fill="#00808E" stroke="#00808E" stroke-width="3" stroke-linecap="round" stroke-linejoin="round" stroke-miterlimit="10" points="
		32.335,103.731 32.335,116.401 42.204,111.319 42.204,98.317 	"/>
	
		<polygon fill="#00808E" stroke="#00808E" stroke-width="3" stroke-linecap="round" stroke-linejoin="round" stroke-miterlimit="10" points="
		47.434,93.114 47.434,105.853 56.122,94.088 	"/>
	
		<polygon fill="#00808E" stroke="#00808E" stroke-width="3" stroke-linecap="round" stroke-linejoin="round" stroke-miterlimit="10" points="
		7.829,80.653 7.829,94.338 23.56,89.088 	"/>
	
		<polygon fill="#00808E" stroke="#00808E" stroke-width="3" stroke-linecap="round" stroke-linejoin="round" stroke-miterlimit="10" points="
		1.625,65.152 1.625,79.401 22.247,69.901 7.372,63.088 	"/>
	
		<polygon fill="#00808E" stroke="#00808E" stroke-width="3" stroke-linecap="round" stroke-linejoin="round" stroke-miterlimit="10" points="
		12.935,39.441 12.935,53.151 25.872,53.151 	"/>
	
		<polygon fill="#00808E" stroke="#00808E" stroke-width="3" stroke-linecap="round" stroke-linejoin="round" stroke-miterlimit="10" points="
		38.124,38.511 38.124,51.088 48.185,57.463 27.685,63.901 	"/>
	
		<polygon fill="#00808E" stroke="#00808E" stroke-width="3" stroke-linecap="round" stroke-linejoin="round" stroke-miterlimit="10" points="
		40.641,15.833 40.641,28.833 52.372,22.651 48.997,16.776 	"/>
	
		<polygon fill="#00808E" stroke="#00808E" stroke-width="3" stroke-linecap="round" stroke-linejoin="round" stroke-miterlimit="10" points="
		42.497,21.838 42.497,35.213 52.372,34.401 	"/>
	
		<polygon fill="#00808E" stroke="#00808E" stroke-width="3" stroke-linecap="round" stroke-linejoin="round" stroke-miterlimit="10" points="
		48.133,41.401 48.133,47.901 58.06,47.901 53.997,41.401 	"/>
	
		<polygon fill="#00808E" stroke="#00808E" stroke-width="3" stroke-linecap="round" stroke-linejoin="round" stroke-miterlimit="10" points="
		67.051,28.526 67.051,41.151 58.712,32.875 	"/>
	
		<polygon fill="#00808E" stroke="#00808E" stroke-width="3" stroke-linecap="round" stroke-linejoin="round" stroke-miterlimit="10" points="
		61.823,15.702 61.823,26.588 55.814,20.579 	"/>
	
		<polygon fill="#00808E" stroke="#00808E" stroke-width="3" stroke-linecap="round" stroke-linejoin="round" stroke-miterlimit="10" points="
		70.958,1.485 70.958,27.088 59.435,34.338 61.185,53.151 93.62,35.902 81.372,11.713 	"/>
</g>
<g id="Layer_2">
	<g>
		
			<path fill="#00A6AF" stroke="#00FFFF" stroke-width="2" stroke-linecap="round" stroke-linejoin="round" stroke-miterlimit="10" d="
			M282.619,220.174l-2.156-1.299c-0.443-1.611-1.344-4.547-3.18-5.158c-0.242-0.795-0.07-1.439-0.156-2.201
			c-0.047-0.484-0.553-1.998-0.871-2.334c-1.244-1.338-4.137-3.051-4.137-5.154c0-0.098,0.193-2.291,0.201-2.33
			c0.318-1.135,2.022-4.115,1.486-5.197c-0.553-0.463-1.215-1.414-1.377-2.135l0.77-1.17l-0.92-1.158
			c-0.03-0.84,0.747-2.475,1.129-3.18l-0.615-3.369c-1.166-0.779-1.851-2.195-3.174-2.693c-1.64-0.379-2.178,1.361-4.689,0
			c-0.256-0.742-0.707-1.521-1.175-2.145l-1.229-0.43l-0.411-1.043c-2.459,0.189-5.08,3.449-7.639,2.436
			c-1.549,0.582-3.166,1.557-4.457,2.566l-0.662,2.188c-0.614,0.404-2.58,1.555-2.939,1.945c-0.273,0.289,0.023,0.902,0.178,1.199
			l-2.512,1.352c-0.178-0.195-1.96-2.178-2.037-2.23c-0.699-0.506-2.248-1.059-3.08-1.451c-0.699-1.521-2.35-4.563-3.85-5.25
			c-1.207-2.82-0.926-2.883-0.313-5.787c0.693-3.252-5.795-2.783-5.592-0.498c0.063,0.762,0.832,3.275,0.762,3.611l-0.902,4.172
			l0.801,1.609c-1.617,2.422-3.492,1.037-3.329,5.393l-2.629,2.482l-2.263-6.484c-0.311-0.881-2.449-4.008-3.189-1.988l-1.852-0.629
			c-0.622-0.914-2.723-5.404-2.582-6.42c0.086-0.682,1.734-1.785,2.318-2.158c-1.207-0.445-3.431-0.969-4.115-2.063
			c-1.074-0.52-2.957-1.568-3.687-2.459c-1.819-2.193,3.989-10.877,5.102-13.275c0.451-0.955,0.568-4.023,0.669-5.227
			c0.242-2.862,0.887-5.794,0.887-8.661c0-1.053,0.451-1.777,1.222-2.454c0.241-0.214,0.524-0.532,0.837-0.844
			c0.006-0.006,0.014-0.016,0.02-0.022l-1.947,0.025l-2.283-1.88l-2.486-0.387l-0.484-2.332l0.24-2.264l-1.489-0.327l-1.142-1.896
			l0.445-1.854l-1.883-0.32l-0.758,0.531l-1.219-1.134l0.789-0.948l-1.797-1.239l0.516-0.931l1.064-1.156l-1.771-1.88l-0.049-1.189
			l0.773-0.834l0.84,0.051l0.592-0.197l-0.436-1.333l0.285-2.045l1.242-0.669l0.309-1.749l-0.081-0.769l-1.921,0.059l-0.74,0.416
			l-0.456-1.626l-0.386-0.331l-1.027-0.012l-0.135-0.46l-1.021,0.212l-0.986-0.958l-1.497,0.011l-0.306-1.471l-1.012-0.69
			l0.434-1.14l0.577-0.456l-1.08-2.549l-0.571-0.479l0.011-1.464l0.614-0.652l-0.209-0.817l-0.68-0.609l0.367-1.273l0.51-0.968
			l-0.838-1.772l-0.121-0.764l-0.535-0.487l-0.412,1.057l-1.316,0.5l-2.002-2.806l-0.846-0.273l0.76-1.094l1.592-1.078l0.064-1.399
			l0.861-0.031l0.578-1.205l1.211-0.25l1.176,0.542l1.492-0.422l2.064,0.058l0.844,1.023l1.376-0.023l0.724,0.451l0.635-0.17
			l0.647,0.838l1.589,0.047l0.441,0.994l0.773-0.273l0.553,0.859l1.324,0.026c0,0,0.379,0.296,0.5,0.31
			c0.121,0.012,1.479-0.878,1.479-0.878l1.173-0.552v-1.229c0.592-0.722,1.19-1.608,1.836-2.262
			c1.027-1.028,3.375-2.133,2.964-3.982c-0.601-0.6-1.198-1.424-1.532-2.201c0.404-1.043,2.279-2.303,3.213-2.753
			c0.008-0.514,0.164-2.863,0.412-3.314c0.396-0.709,2.488-2.529,3.111-3.058l1.127,0.545l1.268-0.304
			c0.413-0.779-0.271-2.582-0.652-3.245l0.451-1.105l2.402-0.31c0.568-0.646,1.447-1.306,2.242-1.648
			c1.281-0.053,2.293,0.787,3.577,0.552c1.027,0.435,2.511,1.852,3.268,2.628c1.719-0.14,2.838-1.997,3.267-3.484
			c-0.389-0.839-1.588-2.642-2.56-2.94c-0.155-0.725-0.7-1.578-1.22-2.086l0.815-2.261c-0.716-1.566-2.411-2.972-3.68-4.046
			c-1.166,0.033-2.681-0.436-3.515-1.282c-0.661-0.677-0.809-1.308-1.837-2.084l-1.073,0.177l-2.248-1.281
			c0.047-1.418,0.227-2.894,0.514-4.289l-1.02-0.855c-0.871,0.132-2.793,0.155-3.578-0.363l-0.715-1.105l0.66-1.043
			c-0.715-1.096,0.164-2.209-0.809-3.43c-1.074-0.561-2.371-1.252-3.244-2.117h-0.008c-0.318-0.297-0.832-0.667-1.09-1.005
			c-0.215-0.286-0.325-0.785-0.502-1.104c-0.266-0.458-1.339-1.849-1.736-2.083c-1.33-0.763-1.656-0.193-2.98-1.548l-0.34-0.35
			c-0.537,0.459-1.742,0.87-2.45,0.676c-0.988-1.033-2.372-1.345-3.421-2.333c-0.678,0.03-1.565-0.265-2.141-0.604l0.203-1.043
			l-0.615-1.105l0.055-0.979c-2.488-2.738-3.881-1.664-5.616-2.753c-0.396-0.248-0.724-0.677-1.118-0.925
			c-0.569-0.341-1.525-0.633-2.201-0.669l-1.021-1.165c-1.149,0.116-2.543,0.272-3.623,0.738c-0.771-0.427-2.396-1.135-3.314-1.044
			c-1.035,0.492-2.676,1.417-3.422,2.325c-0.155,0.616,0.194,1.659,0.561,2.149l-0.865,1.158c-0.684-0.178-1.625-0.114-2.301,0.063
			l-1.066,0.98l-0.77-0.016c-1.453-0.038-1.821-0.125-2.995,0.73l-0.785,0.576c-0.7,0.281-1.61,0.32-2.341,0.543
			c-0.795,0.25-1.277,0.677-2.193,0.616c-0.771-0.536-2.342-1.508-3.322-1.596l-1.617,1.308l-0.072,0.023
			c0.111,0.352,0.25,0.708,0.436,1.082l-0.271,1.229c-1.666,0.995-3.345,1.751-5.172,2.387c-1.065,0.375-2.209,0.575-3.182,1.168
			c-0.988,0.598-1.648,1.633-2.699,2.129c-2.224,1.074-6.683,1.214-8.136,1.813c-1.928,0.799-2.73,2.357-5.228,2.202
			c-0.997,2.146-2.816,2.969-1.674,5.63c0.788,0.468,1.736,0.528,2.539,0.965c0.372,0.209,0.653,0.56,1.018,0.776
			c0.374,0.227,0.81,0.321,1.191,0.522c1.369,0.724,2.427,1.929,3.555,2.973v1.29l-1.239,0.072c-1.36-0.833-5.009-2.515-6.526-1.751
			l-0.318,0.715c0.242,1.097,1.104,1.876,1.61,2.848c1.097,2.1,0.849,5.405-0.964,7.046c-2.039,1.837-3.198,0.669-2.808,4.27
			l-0.7,0.964l-1.455-0.124c-0.848-0.739-1.493-1.711-1.835-2.785l0.491-1.29c1.89-0.925,3.461-2.612,3.234-4.856
			c-0.256-2.496-3.554-5.589-3.935-9.187c-0.615-5.771,2.939-6.126,0.107-14.031c-0.52-1.445-0.162-3.063-1.616-4.077
			c-0.412,0.064-0.84,0.095-1.246,0.197c-1.236,0.318-1.585,4.977-5.335,6.278l-0.808-0.851c0.379-2.27,4.138-6.588,4.043-7.56
			c-0.209-2.16-1.182-2.403-1.89-4.074c-0.629-1.494-1.034-4.084-2.582-4.988c-1.145-0.66-3.967-0.621-5.18-0.125
			c-2.334,0.949-2.232,5.843-3.93,6.21c-0.341,0.068-0.685,0.091-1.025,0.133c-1.845-2.663,2.496-5.189-4.156-9.056
			c-0.076-0.763-0.263-1.508-0.59-2.201l-0.918,0.318c-0.535,1.089-1.563,2.519-1.563,3.756c0,0.816,0.491,1.565,0.326,2.391
			c-0.296,1.524-2.193,2.394-3.396,3.108l-1.402-0.132c-0.583,1.043-1.461,2.382-1.666,3.554c-0.332,1.861-0.552,3.4-1.833,4.917
			l-1.083-0.061c-0.942-2.676,2.218-6.69-1.237-8.278c-1.104-1.703,0.03-4.028-1.135-5.764c-0.88-1.305-3.43-1.376-4.738-2.837
			c-1.384-1.558-2.644-3.289-3.329-5.291c-0.241-0.708-0.39-1.982-0.824-2.542c-0.227-0.291-0.492-0.586-0.756-0.843
			c-1.343-1.267-3.507-2.129-5.008-3.359c-0.912-0.738-1.696-1.672-2.753-2.201c-1.12-0.559-2.909-0.575-4.146-0.514L70.77,1.671
			L71.53,2.51c2.404,0.413,4.685,2.178,4.685,4.853c0,0.484-0.205,0.935-0.157,1.426c0.124,1.453,0.225,1.578-0.218,3.033
			c1.906,5.832,5.647,0.567,9.271,6.789l-0.216,1.168l-1.127,0.39c-0.717-0.242-5.533-1.533-5.556-1.558
			c-0.357-0.311-0.56-0.769-0.878-1.127c-0.676-0.759-1.485-1.383-2.141-2.17c-1.593-1.898-2.899-3.99-5.715-2.908l-0.273,1.229
			c0.66,1.687,2.877,1.868,4.044,3.063c1.222,1.244,1.547,3.098,2.808,4.311c0.607,0.59,1.439,0.81,2.154,1.229
			c1.433,0.839,3.041,2.746,3.828,4.206c1.392,2.612,1.509,5.812,3.336,8.214l0.056,1.293l-0.964,0.583
			c-0.436-0.11-0.881-0.178-1.301-0.326c-0.923-0.321-2.775-4.606-3.608-5.624c-0.458-0.57-1.036-1.044-1.399-1.682
			c-0.5-0.87-1.479-3.406-2.428-3.688c-0.42-0.121-0.863-0.178-1.29-0.261c-3.299,1.349-0.632,3.74-0.973,5.044
			c-0.086,0.338-0.249,0.656-0.381,0.972c-4.231,1.93-2.311,6.645-2.583,10.152c-0.08,0.997-0.583,1.921-0.919,2.846
			c-0.552,1.517-1.119,3.205-2.534,4.138l-1.183-0.061l-0.754-0.779c-0.279-1.501-0.717-3.093-0.918-4.587
			c-0.156-1.208-0.095-2.569-0.326-3.751c-0.264-1.378-1.293-3.132-0.911-4.595c0.692-2.66,5.041-4.153,3.937-7.046
			c-0.265-0.685-0.831-1.191-1.19-1.815c-1.119-1.944-0.467-2.526-2.693-3.491c-1.85,1.282-1.903,3.607-4.743,2.129
			c-2.016-3.536,2.591-5.919,3.071-7.108c0.171-0.43,0.343-0.864,0.483-1.3c0.193-0.59-0.56-1.604-0.865-2.068
			c-0.194-0.303-0.349-0.639-0.59-0.903c-0.847-0.939-2.458-1.227-3.665-1.104c-1.616,0.173-5.45-0.224-6.471,0.329
			c0.538,0.972,1.4,1.717,2.001,2.651l-0.544,0.838c-3.135,0.758-5.741-5.203-11.047,0.39l1.13,0.514
			c1.22-0.188,2.659-0.654,3.881-0.257c0.802,0.265,3.018,2.451,3.018,3.298c0,0.483-0.103,0.949-0.156,1.422
			c-1.795,1.494-2.893,0.522-4.908-0.132l-1.028,0.39c-0.016,0.18-0.148,0.987-0.108,1.104c0.521,1.581,4.271,3.135,5.772,4.202
			c0.091,0.698,0.589,1.443,1.18,1.811c1.558-0.256,2.996-0.934,4.474-1.422c3.732,1.229,2.201,3.514,0.49,5.623
			c0.241,0.599,0.933,1.12,1.51,1.361l0.371,1.033c-0.355,0.7-0.993,1.176-1.508,1.751c-1.96,2.194-2.091,4.3-5.707,3.555
			l-0.919,0.583v1.229c1.298,1.478,2.901,0.242,4.581,2.132l0.055,1.228c-0.873,0.583-3.789,0-6.036,1.228
			c-0.367,0.865-0.576,1.79-0.594,2.722c-2.628,0.663-3.755-0.699-3.505-3.233l-0.973-0.716l-1.184,0.265
			c-3.407,3.221-0.295,6.519,1.992,9.053c0.364,0.396,2.262,3.438,2.262,3.812c0,0.46-0.101,0.911-0.154,1.361l-1.245-0.257
			c-1.353-1.392-2.832-2.746-4.581-3.624c-0.841,0.257-1.781,0.241-2.639,0.061c-0.93,1.309-2.02,2.374-2.961,3.627l-0.919,0.326
			c-0.809-1.185-0.802-1.906-1.191-3.174c-0.387-1.282-1.071-1.861-0.427-3.361c2.49,0.32,4.107,0.305,5.173-2.395
			c-0.28-0.654-2.179-3.423-2.099-3.82l0.318-1.546c0.211-0.988,3.959-3.756,4.153-7.443c0.022-0.382-1.064-2.629-1.29-3.166
			c-1.736-4.149-0.352-6.388-1.029-9.576c-1.648-1.26-1.717-2.678-0.861-4.467c-0.622-0.28-1.354-0.238-2.016-0.084
			c-3.439,0.833-1.615,4.294-1.865,6.688c-0.155,1.535-0.715,2.492-0.484,4.14c0.156,1.144,0.84,2.137,0.919,3.298
			c0.079,1.211-0.787,5.879-1.3,6.984l-0.962,0.644c-0.67-0.429-1.558-0.981-2.318-1.157c-2.202-0.522-5.087,2.534-6.638-0.265
			c0.227-2.382,2.235-3.782,1.729-6.271c-0.212-0.038-4.498,0.616-4.962,0.708c-0.912,1.921-3.174,2.164-4.148,3.82
			c0.779,5.009,3.09,1.679,4.474,5.04c-0.295,1.422-1.126,1.805-1.671,2.979c-0.458,1.003-1.377,3.991-1.456,5.04l0.594,0.911
			c0.972,0.084,1.958,0.045,2.909,0.257c1.297,0.288,2.511,0.964,3.725,0l1.017,0.715l0.272,1.159
			c-2.224,2.481-3.438,1.005-5.661,0.389c-0.359-0.091-2.155,0.032-2.637,0.071l-0.491,0.575c0.692,2.163,2.817,2.098,3.346,5.692
			l-0.755,0.46c-1.377-0.616-1.828-2.669-3.499-2.723l-0.709,0.912l-0.909-0.196c-1.424-2.146,0.458-4.8-2.054-6.276
			c-2.107,2.162-0.17,5.18-3.827,7.568c-0.632,0.413-1.392,0.583-2.046,0.973c-0.646,0.379-1.229,0.862-1.883,1.229
			c-0.413,3.173,1.721,2.675,1.721,5.367c0,2.488-1.09,4.784-1.619,7.177l0.81,0.839l1.244,0.257
			c0.988-0.435,1.688-1.213,2.186-2.155c0.273-0.497,0.625-0.98,0.779-1.533c0.716-2.629-2.575-5.691,0.591-7.886
			c0.185,0.629,0.583,1.297,1.127,1.679c0.816-0.162,1.68-0.03,2.48-0.257c1.401-0.389,2.226-1.059,3.725-0.193
			c0.057,0.824-0.245,1.905-0.806,2.519c0.886,1.25,2.727,1.118,3.39,1.812c0.56,0.592,0.288,2.303,0.435,3.104
			c0.669,0.266,1.346,0.871,1.611,1.555c-1.641,4.615-6.883-1.819-10.4,1.293c-2.753,2.432-0.288,8.586,5.555,7.312
			c1.82-0.406,2.708-1.548,4.044-1.944c1.682-0.5,3.158,0.363,4.628-1.097c1.354-1.345,1.12-5.011,2.973-5.756
			c1.09-0.442,2.021-0.676,3.018-1.362c0.893,1.158,0,2.481,0.156,3.749c0.147,1.176,1.236,1.86,1.244,3.173
			c-0.748,0.865-1.914,1.3-2.48,2.326c0.892,3.207,5.926,3.922,5.926,9.686c0,1.726-0.435,3.063-1.619,4.355l-0.045,0.512
			c0.582,0.717,0.162,4.481-0.11,5.439l0.7,0.644c0.646-0.427,1.144-1.205,1.346-1.945l1.509,0.195
			c0.544-0.615,0.964-1.353,1.237-2.132c1.694-0.995,3.982-1.082,5.281-2.201l-0.264-1.097c-1.028-0.7-1.977-1.562-3.184-1.944
			c-1.648-2.465,1.426-3.506,2.103-4.917c-0.98-2.704-6.013-6.432-6.092-10.415l0.7-0.965c1.229,0.273,2.764,0.881,3.991,0.321
			c1.198-2.319,0.421-8.426,3.346-9.762c1.494-0.685,3.446,0.769,4.093,2.07c-0.165,0.885-0.22,1.812-0.103,2.711l0.754,0.903
			c1.097,0.14,2.544,1.066,2.639,2.264c0.083,1.15-1.463,4.045-1.892,5.305c0.296,0.684,0.723,1.331,0.863,2.067
			c0.389,1.994-2.511,6.722-1.827,7.826c0.193,0.329,0.465,0.617,0.699,0.912c1.79-1.479,1.828-3.858,4.747-2.909
			c0.458-0.173,1.671-0.654,1.99-0.973c1.494-1.477,5.29-9.582,5.446-11.644c-1.129-1.744-1.759-2.171-1.345-4.395l0.963-0.585
			c0.669,0.343,1.37,0.632,2.107,0.778c2.654-1.576,1.082-3.858,3.283-5.108l1.082,0.325c0.639,0.925,0.987,2.008,1.672,2.909
			c0.84,0.109,1.758,0.499,2.375,1.096l0.053,1.292c-2.115,0.786-4.683,5.14-2.644,6.986c0.9,0.817,2.932,0.745,4.1,0.847
			c0.528,1.244,2.027,2.31,2.963,3.297c-0.753,3.253-4.683,1.516-5.39,4.916c1.508,1.074,3.276,1.26,4.8,2.194
			c0.045,0.917-0.187,1.812-0.163,2.722c0.068,2.59,2.805,5.483,1.289,7.957l-1.075,0.38c-1.236-0.404-1.996-1.485-3.397-1.485
			c-1.667,0-3.081,1.02-4.8,0.84c-0.88,0.7-1.741,1.733-1.772,2.909c-0.042,1.19,0.737,2.209,0.862,3.368
			c0.163,1.556,0.069,3.414,0.375,4.915c0.105,0.536,0.62,1.626,1.134,1.875c1.999,0.988,3.982-2.263,6.789,0.45
			c-0.265,2.481-0.667,2.514-2.535,3.946c-0.608,0.464-3.011,2.643-3.181,3.236c-0.941,3.266-0.264,3.142,0.916,5.888
			c0.141,0.328,0.405,0.614,0.483,0.973c0.102,0.42-0.038,0.862,0,1.29c0.068,0.724,1.555,3.423,2.107,3.944
			c2.825,2.709,4.739-1.254,6.302-2.973c1.322-1.454,3.523-3.452,5.127-4.401c1.181-0.694,4.115,0.193,5.491,0.257
			c0.917,0.045,1.843-0.063,2.754,0.133l0.591,0.909c-1.144,1.874-2.528,1.546-4.418,1.415c-0.764,2.693-1.596,3.384-4.474,3.306
			c-1.602,1.378-3.532,4.155-4.743,4.917c-1.005,0.621-5.252,1.266-5.556,1.68c-1.251,1.702,0.764,2.761,1.292,4.006l-1.073,0.457
			l-1.401-0.192l-1.081,0.45c0.349,1.853,1.446,1.444,2.536,2.457c1.596,1.479,1.043,2.989,3.555,3.813
			c2.45,0.809,3.608-0.695,6.682,0c0.379,0.082,2.697,1.912,2.908,2.268c0.374,0.607,0.498,1.559,0.436,2.266
			c-2.28,1.736-10.408,2.555-12.073,3.885l-0.49,1.35c0.281,0.654,0.405,1.41,0.808,2.008c1.059,1.572,3.283,1.227,4.91,1.422
			c1.059,0.127,2.061,0.531,3.128,0.584c0.862,0.037,1.727-0.154,2.583,0l0.809,0.777l-0.11,1.424
			c-0.972,0.58-2.046,1.004-3.12,1.352l-0.435,1.037c2.147,3.365-0.746,4.115-2.156,5.949c-1.188,1.555-2.069,5.139-2.334,7.092
			c-0.389,2.797,1.456,3.652,1.309,5.197c1.477,1.361,4.145-0.793,5.881,0c1.135,0.529,1.025,1.891,1.664,2.787
			c0.878,1.221,2.006,2.098,2.373,3.686l-0.911,0.643c-1.259-0.246-2.138-1.225-2.969-2.127c-2.917-0.256-2.76,1.719-4.584,3.164
			c-2.44,0.182-3.801,2.031-5.227,2.201c-0.862,0.104-1.725-0.195-2.582,0.061c-0.708,1.475-2.357,4.539-2.699,6.021l0.59,0.967
			l1.191-0.256c0.2-0.658,1.112-3.098,1.881-3.17c2.147-0.199,4.667-0.303,6.681,0.453c1.285,3.064,3.93-0.279,7.009,1.484
			c1.014,0.574,2.613,5.059,4.209,6.404c1.86,1.57,4.035,0.666,5.763,2.648l0.218,1.17c-0.553,1.016-1.689,1.469-2.481,2.264
			c0.404,0.932,0.94,3.602,1.672,4.137c1.229,0.898,3.057,1.246,3.719,2.844c1.328,3.223-1.222,5.822,3.506,8.154
			c0.617,0.303,1.269,0.787,1.993,0.582l-1.075-0.326c1.075,0.148,3.019,0.365,4.037,0.063c1.237-0.355,2.11-0.797,3.454-0.9
			c0.809-0.063,1.703,0.121,2.481-0.197c2.115-0.885,3.359-3.086,5.063-4.463c1.229-0.99,3.018-0.816,4.472-1.158
			c0.779-0.188,3.478-1.4,4.154-1.814c1.189-0.738,2.25-2.027,3.663-2.525c0.818-0.279,1.688-0.127,2.528-0.258
			c1.345-0.205,2.957-1.156,3.89-2.133c0.226,0.537,0.491,1.059,0.801,1.551h0.008c5.896-3.51,1.206-10.674,4.449-14.584
			c1.883-2.266,3.113-5.012,6.558-4.076c3.563,0.969,2.715-0.771,4.689-2.111c1.276-0.861,3.073-1.875,4.467-0.721
			c0.924,0.76,6.16,3.578,7.068,2.504c0.919-1.104,2.646-1.246,3.502,0.018c0.311,0.447,0.879,1.385,1.508,1.477l1.642-1.166
			c0.856,1.422,2.294,3.205,3.772,4.053l-0.102,5.779c0.467,0.729,1.004,1.795,1.572,2.426c1.043,1.135,2.442,2.209,3.586,3.248
			c1.478-0.486,3.088,0.166,4.238,1.066c2.076,1.635,3.151,1.074,3.865-1.33c0.374-1.248,1.238-2.432,2.481-2.945l2.325,0.615
			c0.242-0.07,3.096-0.918,3.143-0.918c0.125,0,3.866,0.791,4.231,0.873c0.008-1.061,0.545-2.293,1.767-2.293
			c1.494,0,3.102,0.393,4.543,0.803l1.376,2.016c1.097,1.594,1.563-0.512,1.649-1.367c0.148-1.574,0.226-3.244,0.684-4.771
			l3.027,0.795l4.27-1.268l0.234-1.393l7.918-1.666l0.771,2.209l1.392,1.146l-0.389,4.473l1.75,1.164
			c0.295,1.59,0.855,3.682,0.973,5.25c0,0.104-0.357,2.33-0.389,2.529c0.824,1.57,3.973,7.502,5.057,8.75
			c0.029,0.041,1.602,1.072,1.749,1.168l6.223-4.277l0.973,2.525L245.292,233c0.108,0.082,1.353,0.961,1.36,0.977
			c0.692,1.119,1.556,3.396,2.139,4.666l1.945-0.582l3.5,1.748c0.553-0.824,1.914-1.811,2.917-1.945l0.972,1.75
			c1.229-0.078,2.979-0.48,3.695-1.553c0.716-1.074,1.175-1.604,1.361-2.92c0.256-1.754,0.605-3.508,0.973-5.25l-1.75-2.525
			l0.973-0.975c2.938,1.021,7.466,2.881,10.111,4.475c1.586,0.963,3.15,2.232,4.667,3.305v-3.305l3.694-2.723l-3.307-4.863
			L282.619,220.174z"/>
		<polygon fill="#CECECE" points="211.646,92.032 211.646,92.037 211.65,92.03 		"/>
	</g>
</g>
<g id="Layer_5">
	<g opacity="0.35">
		<path fill="#FFFFFF" d="M79.931,6c-0.774-0.456-1.561-0.928-2.243-1.487C77.491,4.353,77.299,4.174,77.107,4h-1.063
			c0.456,0.573,0.791,1.246,0.985,2H79.931z"/>
		<path fill="#FFFFFF" d="M77.115,8.191c-0.039,0.201-0.073,0.375-0.061,0.501l0.048,0.521C77.13,9.519,77.15,9.768,77.159,10h6.587
			c-0.011-0.046-0.022-0.088-0.033-0.134c-0.097-0.415-0.26-1.11-0.417-1.311C83.152,8.369,82.982,8.18,82.81,8h-5.662
			C77.137,8.063,77.126,8.131,77.115,8.191z"/>
		<path fill="#FFFFFF" d="M70.75,14h1.985c-0.701-0.668-1.434-1.047-2.405-0.817l-0.072,0.324C70.378,13.695,70.553,13.852,70.75,14
			z"/>
		<path fill="#FFFFFF" d="M53.027,14h6.985c-0.03-0.051-0.063-0.104-0.093-0.154c-0.101-0.174-0.196-0.338-0.29-0.44
			c-0.444-0.492-1.38-0.807-2.389-0.807c-0.151,0-0.298,0.007-0.438,0.021c-0.544,0.058-1.497,0.057-2.58,0.04
			c-0.807-0.013-1.682-0.019-2.238,0.004c0.032,0.037,0.063,0.075,0.095,0.112C52.402,13.157,52.732,13.554,53.027,14z"/>
		<path fill="#FFFFFF" d="M79.347,14h6.24c-0.453-0.675-0.83-1.338-1.138-2h-7.476C77.579,13.539,78.273,13.845,79.347,14z"/>
		<path fill="#FFFFFF" d="M106.972,17.868c-0.278-0.162-0.461-0.446-0.493-0.766c-0.022-0.221-0.054-0.436-0.097-0.646
			c-0.002,0.005-0.005,0.01-0.008,0.015c-0.279,0.498-0.567,1.032-0.759,1.529h1.573C107.115,17.956,107.049,17.913,106.972,17.868z
			"/>
		<path fill="#FFFFFF" d="M49.13,18h9.924c0.186-0.185,0.365-0.356,0.527-0.51c0.318-0.303,0.754-0.717,0.837-0.875
			c0.078-0.197,0.152-0.408,0.23-0.614h-8.133c-0.14,0.207-0.35,0.357-0.593,0.416c-0.263,0.063-0.535,0.096-0.809,0.096
			c-0.712,0-1.372-0.223-2.009-0.512h-1.82C47.946,16.55,48.657,17.283,49.13,18z"/>
		<path fill="#FFFFFF" d="M76.44,18c-0.251-0.268-0.512-0.525-0.779-0.778C75.262,16.844,74.851,16.45,74.47,16h-0.503
			c0.599,0.61,0.994,1.308,1.352,2H76.44z"/>
		<path fill="#FFFFFF" d="M85.91,18h4.051c-0.863-0.354-1.774-0.785-2.467-1.56c-0.132-0.148-0.253-0.294-0.378-0.44H84.39
			C84.901,16.508,85.412,17.163,85.91,18z"/>
		<path fill="#FFFFFF" d="M85.223,20.724l-1.127,0.39c-0.209,0.072-0.437,0.073-0.646,0.002c-0.407-0.137-2.439-0.694-3.784-1.063
			c-0.072-0.02-0.125-0.034-0.192-0.053h-2.977c0.082,0.099,0.162,0.199,0.253,0.287c0.277,0.269,0.66,0.446,1.104,0.652
			c0.293,0.136,0.585,0.273,0.863,0.436c0.296,0.173,0.592,0.391,0.886,0.625H92.57c-0.002-0.154-0.002-0.306-0.002-0.455
			c0-0.569-0.012-1.083-0.105-1.545h-6.596C85.79,20.335,85.55,20.61,85.223,20.724z"/>
		<path fill="#FFFFFF" d="M190.875,21.353c-0.887,0.098-1.998,0.255-2.814,0.608c-0.069,0.03-0.145,0.025-0.217,0.039h3.6
			L190.875,21.353z"/>
		<path fill="#FFFFFF" d="M33.608,21.751c-0.133,0.016-0.272,0.041-0.417,0.074c-0.199,0.048-0.366,0.107-0.515,0.174h0.881
			C33.576,21.917,33.586,21.836,33.608,21.751z"/>
		<path fill="#FFFFFF" d="M187.18,21.917c-0.774-0.429-1.957-0.891-2.589-0.924c-0.557,0.274-1.185,0.631-1.741,1.007h4.621
			C187.372,21.98,187.271,21.967,187.18,21.917z"/>
		<path fill="#FFFFFF" d="M109.673,20h-4.032c0.102,0.427,0.177,0.92,0.069,1.462c-0.037,0.189-0.097,0.365-0.164,0.538h4.803
			C110.359,21.354,110.223,20.709,109.673,20z"/>
		<path fill="#FFFFFF" d="M49.508,20.923c-0.029,0.256-0.156,0.492-0.354,0.657c-0.193,0.161-0.386,0.298-0.579,0.42h8.204
			c0.063-0.729,0.314-1.397,0.664-2h-7.811c-0.02,0.174-0.043,0.342-0.066,0.498C49.545,20.639,49.524,20.781,49.508,20.923z"/>
		<path fill="#FFFFFF" d="M121.261,20.705c-0.285-0.165-1.029-0.36-2.171-0.36c-0.85,0-1.684,0.117-2.126,0.297
			c-0.459,0.187-0.81,0.715-1.106,1.358h6.407C121.998,21.427,121.677,20.948,121.261,20.705z"/>
		<path fill="#FFFFFF" d="M82.92,25.968c0.005,0.01,0.01,0.021,0.015,0.032h11.613c-0.169-0.292-0.435-0.524-0.854-0.717
			c-0.172-0.079-0.318-0.206-0.421-0.364C93.079,24.62,92.942,24.312,92.84,24H81.584C82.126,24.672,82.592,25.36,82.92,25.968z"/>
		<path fill="#FFFFFF" d="M197.295,24.669c-0.608-0.111-1.296-0.249-2.033-0.669h-12.907c0.185,0.339,0.171,0.755-0.065,1.071
			L181.596,26h18.424C198.941,24.981,198.169,24.829,197.295,24.669z"/>
		<path fill="#FFFFFF" d="M32.061,26h2.872c-0.003-0.018-0.003-0.035-0.006-0.052c-0.676-0.585-1.117-1.233-1.332-1.948h-1.741
			c0.02,0.353,0.06,0.748,0.118,1.218C32.004,25.477,32.034,25.738,32.061,26z"/>
		<path fill="#FFFFFF" d="M123.427,25.22c-0.151-0.358-0.291-0.779-0.434-1.22h-7.884c-0.263,0.757-0.542,1.464-0.937,2h9.649
			C123.687,25.77,123.553,25.519,123.427,25.22z"/>
		<path fill="#FFFFFF" d="M110.143,24h-6.276c-0.511,0.372-1.054,0.681-1.531,0.951c-0.172,0.098-0.338,0.192-0.492,0.284
			c-0.183,0.107-0.396,0.155-0.604,0.136l-0.761-0.072c-0.004,0.007-0.008,0.014-0.012,0.021c-0.128,0.221-0.261,0.45-0.39,0.681
			h10.384C110.15,25.308,110.101,24.636,110.143,24z"/>
		<path fill="#FFFFFF" d="M48.822,25.559c0.155,0.11,0.256,0.269,0.327,0.441h3.915c0.173-0.062,0.346-0.128,0.52-0.186
			c0.203-0.067,0.423-0.068,0.626,0c0.178,0.059,0.344,0.122,0.506,0.186h10.144c-0.006-0.01-0.015-0.019-0.021-0.029
			c-0.397-0.689-0.593-1.22-0.75-1.646C64.042,24.2,64.003,24.098,63.962,24h-1.546c-0.577,0.717-1.298,1.585-2.59,1.585
			c-0.598,0-1.259-0.192-2.02-0.588c-0.17-0.089-0.312-0.225-0.407-0.392C57.283,24.4,57.184,24.199,57.102,24H46.174
			c0.275,0.158,0.542,0.309,0.776,0.439C47.662,24.837,48.333,25.212,48.822,25.559z"/>
		<path fill="#FFFFFF" d="M84.315,29.715c0.028,0.097,0.058,0.189,0.086,0.285h9.9c0.056-0.339,0.124-0.677,0.19-1.012
			c0.073-0.368,0.13-0.688,0.177-0.988H83.777C83.974,28.573,84.147,29.148,84.315,29.715z"/>
		<path fill="#FFFFFF" d="M57.093,28.211c0.174,0.594,0.117,1.194-0.072,1.789h8.042c0.738-0.794,1.088-1.365,0.993-2h-9.043
			C57.04,28.07,57.072,28.139,57.093,28.211z"/>
		<path fill="#FFFFFF" d="M77.713,30c-0.149-0.187-0.297-0.382-0.423-0.603c-0.125-0.218-0.282-0.539-0.459-0.904
			c-0.061-0.125-0.146-0.301-0.243-0.494h-2.534c0.018,0.048,0.033,0.091,0.052,0.142c0.225,0.603,0.438,1.225,0.359,1.858H77.713z"
			/>
		<path fill="#FFFFFF" d="M34.999,28.872c0.015-0.294,0.027-0.583,0.035-0.872h-2.993c-0.066,0.46-0.152,0.886-0.237,1.258
			c-0.059,0.261-0.109,0.502-0.152,0.742h3.305C34.964,29.612,34.98,29.235,34.999,28.872z"/>
		<path fill="#FFFFFF" d="M125.233,28.911c-0.042-0.378-0.117-0.659-0.207-0.911H99.244l-0.043,0.244
			c-0.105,0.596-0.212,1.18-0.355,1.756h25.787C124.923,29.536,125.166,29.12,125.233,28.911z"/>
		<path fill="#FFFFFF" d="M201.094,29.807c-0.365-0.215-0.554-0.636-0.473-1.051l0.133-0.686L200.715,28h-26.343
			c-0.093,0.061-0.178,0.112-0.292,0.196l-0.783,0.574c-0.067,0.049-0.141,0.09-0.219,0.122c-0.491,0.197-1.01,0.289-1.513,0.377
			c-0.313,0.056-0.626,0.108-0.909,0.194c-0.205,0.065-0.393,0.149-0.573,0.229c-0.247,0.108-0.514,0.223-0.819,0.309h32.2
			C201.331,29.936,201.201,29.871,201.094,29.807z"/>
		<path fill="#FFFFFF" d="M164.58,30h3.131c-0.036-0.02-0.076-0.033-0.11-0.057c-0.928-0.645-1.878-1.153-2.487-1.343l-0.755,0.609
			c0.042,0.095,0.086,0.189,0.133,0.283C164.57,29.651,164.591,29.826,164.58,30z"/>
		<path fill="#FFFFFF" d="M31.999,32.864c0.131,0.35,0.268,0.73,0.374,1.136h3.094c-0.213-0.714-0.346-1.378-0.421-2h-3.332
			C31.792,32.281,31.887,32.566,31.999,32.864z"/>
		<path fill="#FFFFFF" d="M71.568,34h8.81c-0.131-0.239-0.266-0.486-0.412-0.756c-0.235-0.435-0.472-0.874-0.684-1.244h-5.99
			C72.36,32.484,71.834,33.145,71.568,34z"/>
		<path fill="#FFFFFF" d="M94.19,32h-9.127c0.282,0.719,0.623,1.392,1.077,2h35.977c0.359-0.659,0.781-1.337,1.212-2H98.107
			c-0.24,0.457-0.533,0.909-0.913,1.359c-0.203,0.24-0.511,0.371-0.819,0.353l-1.083-0.061c-0.403-0.022-0.753-0.286-0.888-0.667
			C94.292,32.662,94.224,32.333,94.19,32z"/>
		<path fill="#FFFFFF" d="M129.893,33.65c-0.122-0.77-0.226-1.267-0.53-1.65h-0.701c-0.169,0.2-0.441,0.776-0.646,1.211
			c-0.116,0.246-0.245,0.513-0.383,0.789h2.322C129.935,33.883,129.91,33.761,129.893,33.65z"/>
		<path fill="#FFFFFF" d="M212.4,33.951c-0.368-0.209-0.632-0.277-0.938-0.355c-0.637-0.164-1.199-0.355-2.004-1.12
			c-0.831,0.394-1.846,0.567-2.561,0.373c-0.174-0.048-0.332-0.142-0.458-0.273c-0.21-0.22-0.456-0.404-0.723-0.576h-41.853
			c-0.012,0.007-0.018,0.02-0.029,0.027c-1.278,0.764-2.581,1.403-4.017,1.973h52.635C212.437,33.984,212.414,33.961,212.4,33.951z"
			/>
		<path fill="#FFFFFF" d="M56.837,33.41L57.049,34h4.968c0.213-0.752,0.638-1.408,1.135-2h-7.207
			c-0.101,0.14-0.203,0.28-0.308,0.417c0.182,0.161,0.415,0.312,0.645,0.408C56.541,32.934,56.742,33.146,56.837,33.41z"/>
		<path fill="#FFFFFF" d="M32.213,38h4.883c-0.186-0.516-0.66-1.555-0.859-1.99c-0.002-0.004-0.003-0.006-0.005-0.01h-3.745
			C32.433,36.578,32.335,37.276,32.213,38z"/>
		<path fill="#FFFFFF" d="M21.109,36.021c-1.013,0.139-2.582,0.374-3.384,0.504c-0.404,0.639-0.925,1.091-1.459,1.475h4.118
			C20.736,37.295,21.036,36.687,21.109,36.021z"/>
		<path fill="#FFFFFF" d="M86.422,36c-0.017,0.33-0.188,0.634-0.473,0.806l-0.964,0.583c-0.229,0.139-0.504,0.178-0.762,0.114
			c-0.138-0.035-0.276-0.065-0.415-0.095c-0.33-0.072-0.657-0.146-0.973-0.257c-0.427-0.148-0.813-0.51-1.261-1.15H71.31
			c0,0.605,0.041,1.273,0.096,2h50.868l-0.805-0.848c-0.216-0.228-0.313-0.544-0.261-0.854c0.016-0.096,0.048-0.199,0.072-0.298
			H86.422z"/>
		<path fill="#FFFFFF" d="M54.86,38h7.7c-0.022-0.066-0.042-0.128-0.065-0.196C62.3,37.233,62.092,36.625,61.973,36h-5.329
			c-0.224,0.272-0.463,0.513-0.688,0.735c-0.154,0.152-0.308,0.303-0.452,0.464C55.265,37.467,55.057,37.734,54.86,38z"/>
		<path fill="#FFFFFF" d="M131.057,38c-0.125-0.598-0.302-1.258-0.544-2h-4.105c-0.618,0.791-1.429,1.506-2.492,2H131.057z"/>
		<path fill="#FFFFFF" d="M215.251,37.746c-0.298-0.25-0.636-0.533-0.874-0.846c-0.215-0.285-0.336-0.605-0.441-0.887
			c-0.002-0.004-0.004-0.008-0.005-0.013h-58.999c-0.158,0.138-0.316,0.285-0.479,0.438c-0.484,0.459-1.033,0.979-1.755,1.32
			c-0.179,0.086-0.368,0.167-0.567,0.242h63.413C215.456,37.919,215.357,37.835,215.251,37.746z"/>
		<path fill="#FFFFFF" d="M219.012,41.285c0.011-0.504,0.007-0.796-0.174-1.095c-0.119-0.063-0.234-0.127-0.352-0.19h-74.76
			c-0.251,0.154-0.494,0.321-0.743,0.494c-0.89,0.616-1.893,1.31-3.47,1.38c-0.025,0.045-0.052,0.083-0.078,0.126h79.59
			C219.004,41.746,219.008,41.506,219.012,41.285z"/>
		<path fill="#FFFFFF" d="M131.305,40H71.523c0.01,0.405,0.009,0.808-0.021,1.199c-0.022,0.276-0.075,0.542-0.138,0.801h59.757
			C131.248,41.396,131.324,40.75,131.305,40z"/>
		<path fill="#FFFFFF" d="M15.455,41.671c0.309,0.068,0.677,0.15,1.059,0.329h3.161c-0.077-0.112-0.163-0.205-0.233-0.331
			c-0.098-0.177-0.14-0.379-0.121-0.58c0.037-0.389,0.122-0.746,0.222-1.09H14.06C14.377,41.414,14.803,41.526,15.455,41.671z"/>
		<path fill="#FFFFFF" d="M50.382,41.24c-0.35,0-0.721-0.032-1.126-0.098l-0.123,0.078v0.248c0.282,0.201,0.613,0.257,1.146,0.333
			c0.31,0.044,0.662,0.096,1.038,0.2h11.81c-0.021-0.29-0.036-0.583-0.051-0.876c-0.019-0.389-0.042-0.763-0.073-1.124h-9.657
			C52.663,40.71,51.783,41.24,50.382,41.24z"/>
		<path fill="#FFFFFF" d="M36.677,40h-4.853c-0.176,0.797-0.362,1.508-0.534,2h4.204C35.943,41.395,36.365,40.722,36.677,40z"/>
		<path fill="#FFFFFF" d="M63.826,46c-0.023-0.105-0.042-0.208-0.066-0.313c-0.123-0.556-0.243-1.121-0.352-1.687h-9.695
			l0.055,1.214c0.014,0.303-0.117,0.588-0.34,0.786H63.826z"/>
		<path fill="#FFFFFF" d="M138.685,46h81.503c-0.122-0.056-0.255-0.101-0.361-0.171c-0.115-0.076-0.215-0.176-0.289-0.292
			l-0.715-1.105c-0.085-0.132-0.127-0.281-0.145-0.432h-80.546c-0.283,0.538-0.363,1.034-0.105,1.78
			C138.226,45.865,138.454,45.931,138.685,46z"/>
		<path fill="#FFFFFF" d="M130.578,44H70.647c-0.041,0.103-0.085,0.207-0.123,0.31l-0.067,0.185
			C70.279,44.985,70.09,45.496,69.87,46h60.267C130.242,45.257,130.406,44.604,130.578,44z"/>
		<path fill="#FFFFFF" d="M17.903,46h14.998l0.126-0.615c0.094-0.438,0.387-0.854,0.827-1.385h-15.57
			c0.015,0.036,0.033,0.063,0.048,0.1c0.076,0.185,0.095,0.388,0.054,0.584C18.276,45.221,18.102,45.644,17.903,46z"/>
		<path fill="#FFFFFF" d="M65.149,48.74L64.433,48H47.305c-0.092,0.408-0.157,0.817-0.165,1.228
			c-0.006,0.314-0.164,0.591-0.403,0.772h83.525c-0.071-0.311-0.13-0.626-0.164-0.947c-0.04-0.372-0.059-0.718-0.068-1.053H68.667
			c-0.302,0.349-0.652,0.668-1.065,0.94c-0.178,0.117-0.391,0.179-0.602,0.164l-1.183-0.061
			C65.564,49.031,65.325,48.922,65.149,48.74z"/>
		<path fill="#FFFFFF" d="M145.17,50h78.324c0.035-0.66,0.097-1.327,0.184-2h-81.03C143.61,48.548,144.412,49.269,145.17,50z"/>
		<path fill="#FFFFFF" d="M15.9,50h18.176c-0.579-0.943-0.942-1.557-1.151-2h-16.33C16.399,48.455,16.14,49.208,15.9,50z"/>
		<path fill="#FFFFFF" d="M43.212,53.907c0.014,0.015,0.04,0.049,0.073,0.093h88.691c-0.367-0.637-0.727-1.303-1.036-2H41.572
			c0.44,0.559,0.947,1.14,1.5,1.751L43.212,53.907z"/>
		<path fill="#FFFFFF" d="M15.32,52.262l0.12,0.185c0.148,0.008,0.295,0.015,0.443,0.021c0.686,0.031,1.395,0.063,2.118,0.224
			c0.279,0.062,0.556,0.14,0.83,0.219c0.847,0.243,1.505,0.413,2.056-0.026c0.347-0.275,0.835-0.289,1.197-0.035l1.017,0.715
			c0.154,0.108,0.259,0.265,0.331,0.436h5.956c0.048-0.317,0.144-0.663,0.308-1.046c0.177-0.411,0.607-0.657,1.046-0.597
			c0.509,0.065,1.097,0.132,1.6,0.132c0.673,0,1.194-0.1,1.636-0.489H15.373C15.355,52.089,15.333,52.185,15.32,52.262z"/>
		<path fill="#FFFFFF" d="M146.537,53.024c0,0.498-0.371,0.902-0.854,0.976h82.884c-0.141-0.176-0.267-0.345-0.376-0.5
			c-0.206-0.292-0.391-0.554-0.695-0.834l-0.624,0.104c-0.227,0.038-0.458-0.005-0.658-0.118L225.072,52h-78.536V53.024z"/>
		<path fill="#FFFFFF" d="M16.073,57.803c0.065,0.063,0.132,0.131,0.2,0.197h14.083c-0.01-0.04-0.021-0.079-0.031-0.119
			c-0.067-0.268-0.139-0.554-0.239-0.878c-0.09-0.297-0.197-0.548-0.295-0.783C29.76,56.148,29.73,56.074,29.7,56h-6.015
			c-0.039,0.074-0.085,0.145-0.143,0.208c-1.052,1.174-2.06,1.722-3.17,1.722c-0.807,0-1.535-0.295-2.239-0.582
			c-0.402-0.163-0.818-0.332-1.263-0.455c-0.01,0.004-0.12,0.003-0.254,0.003c-0.375,0-0.89,0.025-1.32,0.051
			C15.499,57.242,15.76,57.497,16.073,57.803z"/>
		<path fill="#FFFFFF" d="M9.867,57.812C9.865,56.995,9.844,56.436,9.618,56H9.584c-0.209,0.495-0.301,1.05-0.401,1.692
			c-0.016,0.1-0.034,0.206-0.05,0.308h0.735C9.868,57.937,9.867,57.873,9.867,57.812z"/>
		<path fill="#FFFFFF" d="M140.687,58h94.223c-0.633-0.719-1.402-1.4-2.11-2h-92.309C140.638,56.639,140.705,57.313,140.687,58z"/>
		<path fill="#FFFFFF" d="M45.647,58h88.343c-0.117-0.587-0.441-1.268-0.849-2H44.609C45.055,56.731,45.475,57.491,45.647,58z"/>
		<path fill="#FFFFFF" d="M35.75,58h4.457c-0.501-0.389-1.021-0.759-1.578-1.066c-0.644,0.141-1.353,0.167-2.075,0.081
			C36.29,57.358,36.02,57.682,35.75,58z"/>
		<path fill="#FFFFFF" d="M131.525,62c0.63-0.33,1.611-0.986,2.146-2H45.527c-0.059,0.222-0.175,0.426-0.364,0.562
			c-0.227,0.164-0.514,0.224-0.787,0.168l-1.245-0.257c-0.196-0.041-0.375-0.139-0.515-0.283c-0.061-0.062-0.129-0.127-0.19-0.19
			h-8.348c-0.042,0.053-0.085,0.104-0.126,0.158c-0.118,0.157-0.28,0.276-0.465,0.342l-0.919,0.326
			c-0.425,0.152-0.903-0.003-1.16-0.378c-0.108-0.158-0.185-0.3-0.27-0.447H17.734c0.25,0.539,0.456,1.191,0.585,2H131.525z"/>
		<path fill="#FFFFFF" d="M235.396,60h-95.012c-0.215,0.728-0.545,1.408-0.998,2h95.919c-0.002-0.002-0.004-0.004-0.006-0.006
			c-0.28-0.274-0.375-0.686-0.242-1.055L235.396,60z"/>
		<path fill="#FFFFFF" d="M13.495,61.128l-0.313,0.403c-0.236,0.304-0.623,0.447-1,0.364l-0.909-0.196
			c-0.255-0.055-0.478-0.208-0.623-0.425c-0.277-0.417-0.452-0.847-0.567-1.273H8.605c-0.278,0.673-0.709,1.351-1.394,2h7.146
			C14.021,61.583,13.765,61.283,13.495,61.128z"/>
		<path fill="#FFFFFF" d="M130.995,66c-0.261-0.449-0.488-0.918-0.647-1.416c-0.061-0.191-0.053-0.393,0.003-0.584H3.831
			c-0.199,0.127-0.398,0.255-0.59,0.389c-0.205,0.142-0.41,0.284-0.619,0.419C2.597,65.359,2.696,65.702,2.859,66h3.3
			c0.191-0.185,0.403-0.366,0.654-0.54c0.263-0.184,0.598-0.229,0.903-0.121C8.018,65.446,8.251,65.691,8.342,66v0H130.995z"/>
		<path fill="#FFFFFF" d="M228.652,66c0.207-0.118,0.414-0.223,0.617-0.311c0.112-0.048,0.232-0.076,0.354-0.081l0.159-0.003
			c0.689,0,1.289,0.184,1.816,0.346c0.057,0.017,0.107,0.032,0.162,0.049h6.705c-0.509-0.798-1.195-1.573-1.542-1.679
			c-0.189-0.058-0.35-0.173-0.472-0.321h-99.68c-0.563,0.292-0.66,0.466-0.499,2H228.652z"/>
		<path fill="#FFFFFF" d="M66.693,68.558c0.217,0.065,0.406,0.203,0.535,0.39c0.24,0.347,0.433,0.701,0.615,1.053h155.808
			c-0.081-0.23-0.101-0.478-0.007-0.707l0.451-1.105c0.027-0.068,0.066-0.129,0.107-0.188h-89.037
			c-0.188,0.134-0.417,0.206-0.659,0.185l-1.455-0.124c-0.085-0.007-0.167-0.033-0.247-0.061H15.712
			c-0.039,0.597-0.197,1.271-0.5,1.874c0.086,0.049,0.188,0.085,0.284,0.126h25.763c0.341-0.383,0.735-0.715,1.232-0.942
			c0.384-0.176,0.802-0.266,1.241-0.266c1.032,0,2.063,0.509,2.876,1.208h16.687c0.266-0.606,0.701-1.206,1.535-1.68
			c0.238-0.135,0.521-0.167,0.782-0.088L66.693,68.558z"/>
		<path fill="#FFFFFF" d="M236.1,68c0.267,0.242,0.517,0.48,0.738,0.699c0.344-0.129,0.659-0.381,0.938-0.699H236.1z"/>
		<path fill="#FFFFFF" d="M4.129,68c0.157,0.422,0.263,0.931,0.263,1.582c0,0.142-0.021,0.278-0.027,0.418h0.767
			c-0.135-0.644-0.203-1.325-0.081-2H4.129z"/>
		<path fill="#FFFFFF" d="M39.654,74c0.122-0.692,0.276-1.37,0.49-2H18.49c0.179,0.589,0.187,1.271,0.19,1.9
			c0,0.034,0.001,0.066,0.001,0.1h10.194c0.187-0.057,0.378-0.054,0.563,0H39.654z"/>
		<path fill="#FFFFFF" d="M4.111,72c-0.145,0.681-0.328,1.346-0.523,2h2.198c0.012-0.033,0.034-0.069,0.042-0.102
			c0.15-0.55,0.035-1.201-0.152-1.898H4.111z"/>
		<path fill="#FFFFFF" d="M71.147,72.802c0.185,0.179,0.293,0.421,0.303,0.677L71.472,74h148.419c0.695-0.702,1.556-1.461,2.188-2
			H70.011C70.438,72.22,70.828,72.492,71.147,72.802z"/>
		<path fill="#FFFFFF" d="M47.982,72.22c-0.116,0.624-0.148,1.214-0.128,1.78h10.121c0.005-0.028,0.006-0.05,0.012-0.078
			c0.052-0.28,0.221-0.524,0.464-0.671l0.963-0.585c0.298-0.18,0.667-0.193,0.976-0.035c0.54,0.276,1.013,0.47,1.461,0.595
			c0.492-0.367,0.708-0.766,0.858-1.226H47.987C47.99,72.073,47.996,72.147,47.982,72.22z"/>
		<path fill="#FFFFFF" d="M20.277,76.139c0.086,0.223,0.09,0.47,0.01,0.696c-0.162,0.456-0.368,0.839-0.606,1.165h4.043
			c0.255-0.752,0.587-1.471,1.116-2h-4.632C20.229,76.047,20.259,76.092,20.277,76.139z"/>
		<path fill="#FFFFFF" d="M2.873,76.458l0.215,0.224l0.604,0.125C4.039,76.611,4.343,76.337,4.618,76H3.005
			C2.963,76.151,2.911,76.308,2.873,76.458z"/>
		<path fill="#FFFFFF" d="M68.7,78h149.662c0.044-0.62,0.121-1.396,0.246-2H70.396C69.8,76.402,69.155,77.146,68.7,78z"/>
		<path fill="#FFFFFF" d="M39.362,76h-8.806c0.027,0.526-0.063,1.025-0.139,1.448c-0.035,0.191-0.066,0.375-0.089,0.552h8.726
			C39.177,77.391,39.272,76.695,39.362,76z"/>
		<path fill="#FFFFFF" d="M58.778,78c-0.45-0.682-0.762-1.265-0.88-2h-7.502c0.489,0.511,0.835,1.134,0.891,1.837
			c0.004,0.051-0.001,0.109-0.001,0.163H58.778z"/>
		<path fill="#FFFFFF" d="M68.532,81.057c0.469,0.425,1.839,0.496,2.746,0.543c0.279,0.015,0.541,0.029,0.77,0.049
			c0.266,0.023,0.504,0.153,0.672,0.351h142.412c-0.039-0.188-0.042-0.381,0.028-0.562c0.195-0.503,0.59-0.992,1.053-1.438H68.121
			C68.126,80.453,68.259,80.81,68.532,81.057z"/>
		<path fill="#FFFFFF" d="M34.133,82c-0.146-0.525-0.252-1.058-0.263-1.606c-0.003-0.137,0.032-0.269,0.083-0.394h-2.938
			c0.28,0.498,0.542,1.095,0.546,1.862c0,0.047-0.018,0.091-0.024,0.138H34.133z"/>
		<path fill="#FFFFFF" d="M9.058,81.707C9.095,81.804,9.146,81.902,9.192,82h10.27c0.245-0.016,0.485-0.022,0.716-0.022l0.313,0
			c0.916,0,1.409-0.062,1.976-0.625c0.271-0.27,0.475-0.782,0.657-1.354H8.854C8.775,80.533,8.837,81.122,9.058,81.707z"/>
		<path fill="#FFFFFF" d="M49.987,82h8.137c0.308-0.731,0.571-1.411,0.776-2h-8.083C50.597,80.594,50.313,81.258,49.987,82z"/>
		<path fill="#FFFFFF" d="M50.243,85.101c0.054,0.276,0.058,0.58,0.035,0.899h5.984c0.326-0.639,0.655-1.317,0.973-2h-7.358
			C50.029,84.338,50.167,84.702,50.243,85.101z"/>
		<path fill="#FFFFFF" d="M216.668,84.449c-0.131-0.143-0.256-0.295-0.379-0.449H74.332c0.115,0.107,0.23,0.216,0.346,0.322
			c0.348,0.319,0.685,0.63,0.972,0.933c0.191,0.202,0.281,0.472,0.266,0.745h139.586C216.183,85.442,216.647,84.957,216.668,84.449z
			"/>
		<path fill="#FFFFFF" d="M34.969,84h-5.403c-0.134,0.111-0.26,0.223-0.366,0.34c0.28,0.594,0.777,1.117,1.369,1.66h5.707
			C35.795,85.355,35.35,84.688,34.969,84z"/>
		<path fill="#FFFFFF" d="M12.972,84.276c0.419,0,0.862-0.05,1.315-0.149c0.153-0.034,0.292-0.082,0.431-0.127h-3.322
			C11.857,84.17,12.378,84.276,12.972,84.276z"/>
		<path fill="#FFFFFF" d="M39.404,90c-0.417-0.615-0.967-1.295-1.544-2h-5.162c0.53,0.57,1.024,1.223,1.422,2H39.404z"/>
		<path fill="#FFFFFF" d="M193.348,89.131l0.256-0.009l0.318-0.66c0.104-0.219,0.297-0.367,0.516-0.461H74.93
			c-0.702,0.713-1.611,1.024-2.35,1.276c-0.684,0.233-1.167,0.418-1.508,0.724h121.333
			C192.469,89.522,192.856,89.149,193.348,89.131z"/>
		<path fill="#FFFFFF" d="M49.156,89.929c-0.008,0.022-0.018,0.048-0.026,0.071h1.8c0.233-0.059,0.48-0.101,0.759-0.101
			c0.267,0,0.551,0.04,0.847,0.101h0.447c0.662-0.271,1.091-0.493,1.195-0.578c0.253-0.25,0.6-0.762,0.992-1.422h-5.325
			C49.644,88.632,49.399,89.284,49.156,89.929z"/>
		<path fill="#FFFFFF" d="M202.074,88.838l0.895-0.015c0.19,0.003,0.382,0.049,0.545,0.151l0.355,0.221l0.215-0.058
			c0.388-0.104,0.804,0.035,1.051,0.354l0.358,0.464l1.116,0.033c0.021,0,0.041,0.009,0.063,0.011h5.195
			c0.035-0.141,0.091-0.275,0.184-0.389c0.198-0.241,0.396-0.501,0.598-0.764c0.216-0.283,0.437-0.569,0.664-0.847H201.3
			c0.085,0.055,0.172,0.107,0.237,0.187L202.074,88.838z"/>
		<path fill="#FFFFFF" d="M75.332,93.003c0.017,0.346-0.001,0.675-0.029,0.997h114.715c-0.093-0.294-0.049-0.614,0.127-0.868
			l0.76-1.095c0.01-0.015,0.027-0.023,0.038-0.038H74.494c0.121,0.065,0.242,0.127,0.361,0.2
			C75.137,92.373,75.315,92.673,75.332,93.003z"/>
		<path fill="#FFFFFF" d="M37.397,94c0.107-0.805,0.571-1.466,1.071-2h-3.663c0.118,0.575,0.203,1.186,0.203,1.879
			c0,0.042-0.003,0.08-0.004,0.121H37.397z"/>
		<path fill="#FFFFFF" d="M38.558,96.658c-0.217-0.068-0.403-0.208-0.529-0.397c-0.06-0.089-0.105-0.174-0.156-0.261H34.75
			c-0.189,0.721-0.489,1.379-0.908,2h6.971c-0.039-0.028-0.078-0.057-0.117-0.085C39.983,97.391,39.309,96.896,38.558,96.658z"/>
		<path fill="#FFFFFF" d="M195.813,98l-0.364-0.769l-1.279,0.486c-0.428,0.162-0.906,0.016-1.17-0.354L192.028,96H75.201
			c0.065,0.616,0.293,1.29,0.575,2H195.813z"/>
		<path fill="#FFFFFF" d="M195.631,102c0.027-0.039,0.043-0.084,0.076-0.119l0.232-0.247l-0.447-0.401
			c-0.285-0.256-0.398-0.653-0.293-1.021l0.062-0.212H76.535c0.212,0.653,0.369,1.324,0.381,2H195.631z"/>
		<path fill="#FFFFFF" d="M33.562,102h0.268c0.176-0.09,0.376-0.135,0.579-0.107L35.242,102h0.127
			c0.295-0.415,0.539-0.885,0.713-1.383c0.078-0.224,0.233-0.412,0.438-0.532c0.054-0.032,0.11-0.055,0.165-0.085h-3.07
			C33.648,100.645,33.623,101.339,33.562,102z"/>
		<path fill="#FFFFFF" d="M196.168,105.122l-0.387-0.324c-0.229-0.191-0.36-0.476-0.357-0.774V104H76.436
			c-0.044,0.084-0.072,0.169-0.124,0.254c-0.12,0.196-0.303,0.344-0.519,0.42l-1.075,0.38c-0.209,0.073-0.435,0.075-0.644,0.008
			c-0.613-0.2-1.109-0.52-1.547-0.801c-0.151-0.097-0.289-0.184-0.418-0.261h-2.974c-0.016,0.005-0.032,0.009-0.048,0.014
			c-0.791,0.239-1.601,0.499-2.556,0.473c-0.378,0.344-0.872,0.894-1.047,1.513H196.54L196.168,105.122z"/>
		<path fill="#FFFFFF" d="M197.18,109.943l-0.679-0.463c-0.382-0.261-0.536-0.75-0.371-1.182l0.113-0.298H65.824
			c0.185,0.489,0.383,1.033,0.448,1.637c0.012,0.118,0.018,0.243,0.027,0.363h130.892L197.18,109.943z"/>
		<path fill="#FFFFFF" d="M202.582,113.016l-0.572-0.006c-0.278-0.003-0.535-0.122-0.717-0.315l-0.225,0.046
			c-0.325,0.069-0.662-0.03-0.9-0.262L199.675,112H66.404c0.027,0.69,0.066,1.377,0.155,2h136.299L202.582,113.016z"/>
		<path fill="#FFFFFF" d="M204.092,116.553c0.031-0.219,0.151-0.4,0.305-0.553H73.954c0.105,0.09,0.213,0.163,0.317,0.264
			c0.222,0.214,0.332,0.519,0.299,0.825c-0.036,0.34-0.078,0.638-0.125,0.911H203.89L204.092,116.553z"/>
		<path fill="#FFFFFF" d="M202.637,120H73.659c-0.349,0.446-0.816,0.825-1.473,1.317l-0.536,0.405
			c-0.09,0.068-0.208,0.166-0.339,0.278h130.756l-0.037-0.91c-0.012-0.266,0.084-0.525,0.265-0.72L202.637,120z"/>
		<path fill="#FFFFFF" d="M202.394,125.721l0.516-0.93c0.038-0.07,0.085-0.134,0.139-0.192l0.433-0.471L203.36,124H69.212
			c-0.205,0.224-0.362,0.412-0.422,0.523c-0.183,0.641-0.289,1.099-0.34,1.477h133.852
			C202.321,125.905,202.345,125.81,202.394,125.721z"/>
		<path fill="#FFFFFF" d="M82.286,128.025c0.016-0.009,0.036-0.016,0.052-0.025H68.905c0.022,0.044,0.041,0.081,0.064,0.128
			c0.208,0.41,0.454,0.896,0.726,1.529c0.037,0.086,0.09,0.167,0.14,0.25c0.017,0.027,0.035,0.064,0.052,0.093h9.752
			C80.55,129.216,81.486,128.498,82.286,128.025z"/>
		<path fill="#FFFFFF" d="M87.229,128c0.431,0.071,0.824,0.13,1.104,0.144c0.185,0.009,0.368,0.011,0.551,0.011l0.653-0.003
			c0.539,0,1.119,0.018,1.714,0.146c0.258,0.056,0.484,0.211,0.628,0.432l0.591,0.909c0.072,0.111,0.111,0.235,0.135,0.361h111.929
			l-0.94-0.875c-0.317-0.295-0.388-0.746-0.224-1.125H87.229z"/>
		<path fill="#FFFFFF" d="M207.022,132H91.324c-0.813,0.595-1.67,0.708-2.396,0.708c-0.317,0-0.649-0.021-1-0.049
			c-0.185,0.526-0.394,0.96-0.627,1.341h121.219c-0.225-0.075-0.423-0.213-0.546-0.418L207.022,132z"/>
		<path fill="#FFFFFF" d="M75.966,133.808c0.335-0.44,0.656-0.857,0.962-1.194c0.179-0.197,0.374-0.403,0.579-0.614h-7.242
			c-0.006,0.076-0.016,0.151-0.009,0.226c0.046,0.274,0.413,1.041,0.815,1.774h4.749C75.868,133.936,75.918,133.87,75.966,133.808z"
			/>
		<path fill="#FFFFFF" d="M73.267,136.18c0.194,0,0.394-0.071,0.595-0.18h-1.195C72.879,136.118,73.08,136.18,73.267,136.18z"/>
		<path fill="#FFFFFF" d="M81.193,138h128.352l-0.415-2H83.027C82.444,136.561,81.812,137.286,81.193,138z"/>
		<path fill="#FFFFFF" d="M78.529,140.668c-0.616,0.38-1.764,0.669-3.446,1.068c-0.338,0.08-0.731,0.173-1.085,0.263H214.52
			c0.129-0.303,0.281-0.578,0.454-0.812c-0.099-0.038-0.191-0.092-0.274-0.161L213.451,140H79.349
			C79.066,140.266,78.79,140.504,78.529,140.668z"/>
		<path fill="#FFFFFF" d="M74.653,145.117c0.127,0.301,0.082,0.621-0.07,0.883h139.482c0.066-0.673,0.108-1.341,0.124-2H73.928
			C74.205,144.343,74.476,144.699,74.653,145.117z"/>
		<path fill="#FFFFFF" d="M74.838,150h138.721c0.053-0.411,0.106-0.823,0.162-1.227c0.035-0.256,0.069-0.515,0.104-0.773H73.444
			c0.71,0.676,1.067,1.363,1.351,1.917C74.81,149.946,74.823,149.972,74.838,150z"/>
		<path fill="#FFFFFF" d="M213.259,152.986c0.022-0.334,0.042-0.631,0.062-0.859c0.004-0.042,0.01-0.085,0.014-0.127H84.075
			c0.853,0.569,1.963,1.49,2.439,2h126.672C213.217,153.617,213.24,153.264,213.259,152.986z"/>
		<path fill="#FFFFFF" d="M212.74,157.018c0.092-0.195,0.169-0.572,0.236-1.018H87.258c0.046,0.405,0.06,0.799,0.032,1.113
			c-0.024,0.281-0.167,0.537-0.391,0.709c-0.081,0.062-0.185,0.118-0.276,0.178h125.604
			C212.446,157.603,212.625,157.266,212.74,157.018z"/>
		<path fill="#FFFFFF" d="M211.101,160H80.653c-0.288,0.067-0.576,0.135-0.863,0.201c-1.761,0.408-3.914,0.908-4.741,1.359
			L74.89,162h135.105C210.346,161.35,210.716,160.682,211.101,160z"/>
		<path fill="#FFFFFF" d="M79.568,164.697c0.526,0.063,1.021,0.182,1.499,0.297c0.544,0.131,1.058,0.256,1.559,0.279l0.188,0.004
			c0.243,0,0.487-0.016,0.73-0.031c0.631-0.037,1.27-0.053,1.792,0.043c0.194,0.035,0.374,0.127,0.516,0.264L86.318,166h121.749
			c0.255-0.635,0.555-1.302,0.896-2H75.634c0.553,0.478,1.454,0.561,2.694,0.613C78.76,164.631,79.18,164.65,79.568,164.697z"/>
		<path fill="#FFFFFF" d="M86.897,168l-0.042,0.551c-0.025,0.324-0.206,0.615-0.484,0.781c-0.398,0.237-0.823,0.458-1.285,0.668
			H207.23c-0.071-0.583-0.006-1.254,0.173-2H86.897z"/>
		<path fill="#FFFFFF" d="M211.61,174c-0.013-0.015-0.03-0.026-0.042-0.041c-0.705-0.353-2.126-1.113-3.127-1.959H83.926
			c0.218,0.777,0.177,1.435-0.019,2H211.61z"/>
		<path fill="#FFFFFF" d="M230.588,177.264c0.072,0.288,0.13,0.524,0.181,0.736h2.622c0.058-0.326,0.129-0.676,0.224-1.096
			c0.06-0.268,0.127-0.568,0.198-0.904h-3.525C230.365,176.374,230.487,176.863,230.588,177.264z"/>
		<path fill="#FFFFFF" d="M82.056,176.32c-0.421,0.367-0.819,0.715-1.116,1.102c-0.125,0.164-0.248,0.36-0.367,0.578h132.511
			c-0.053-0.293-0.072-0.549-0.046-0.744c0.025-0.194,0.085-0.598,0.709-1.256H82.417C82.295,176.11,82.174,176.218,82.056,176.32z"
			/>
		<path fill="#FFFFFF" d="M230.838,180l-0.433,2h3.658c-0.345-0.83-0.571-1.463-0.685-2H230.838z"/>
		<path fill="#FFFFFF" d="M79.196,182h135.353c-0.297-0.639-0.6-1.331-0.855-2H79.754C79.539,180.655,79.352,181.338,79.196,182z"/>
		<path fill="#FFFFFF" d="M263.129,181.49l-0.932-0.324c-0.275-0.096-0.494-0.307-0.602-0.578l-0.102-0.26
			c-0.615,0.209-1.289,0.598-1.99,1.002c-0.398,0.23-0.803,0.46-1.213,0.67h5.147C263.338,181.829,263.244,181.656,263.129,181.49z"
			/>
		<path fill="#FFFFFF" d="M230.475,184l0.295,0.594c0.158,0.32,0.135,0.701-0.064,1c-0.104,0.155-0.211,0.274-0.316,0.406h6.852
			c-0.416-0.739-0.866-1.441-1.303-2H230.475z"/>
		<path fill="#FFFFFF" d="M220.284,186c-0.29-0.426-0.658-0.87-0.935-1.094c-0.227,0.43-0.738,0.643-1.209,0.482l-1.851-0.629
			c-0.206-0.07-0.383-0.205-0.505-0.385c-0.055-0.08-0.134-0.213-0.226-0.375H78.81c-0.002,0.012-0.005,0.027-0.006,0.039
			c-0.116,0.837,0.018,1.432,0.234,1.961H220.284z"/>
		<path fill="#FFFFFF" d="M270.766,184.967c-0.352-0.381-0.671-0.722-1.014-0.967h-1.524c-0.409,0.155-0.904,0.324-1.534,0.324
			c-0.49,0-0.999-0.111-1.536-0.324h-13.145c-0.384,0.246-0.765,0.503-1.129,0.777l-0.37,1.223h21.305
			C271.427,185.678,271.089,185.32,270.766,184.967z"/>
		<path fill="#FFFFFF" d="M84.753,188c0.233,0.039,0.458,0.098,0.665,0.191c0.898,0.419,1.288,1.155,1.535,1.809h134.885l-0.698-2
			H84.753z"/>
		<path fill="#FFFFFF" d="M81.989,188.275c0.443-0.113,0.907-0.216,1.365-0.275h-3.377c0.054,0.169,0.1,0.343,0.126,0.527
			C80.468,188.621,81.235,188.471,81.989,188.275z"/>
		<path fill="#FFFFFF" d="M227.959,188c-0.294,0.339-0.434,0.869-0.421,2h14.417c-0.312-0.342-0.474-0.516-0.547-0.592
			c-0.439-0.289-1.24-0.625-1.893-0.898c-0.365-0.152-0.705-0.297-0.975-0.424c-0.046-0.021-0.081-0.059-0.122-0.086H227.959z"/>
		<path fill="#FFFFFF" d="M247.448,190h24.323c0.201-0.507,0.425-0.976,0.592-1.303L272.236,188h-23.605
			c-0.438,0.273-0.953,0.6-1.259,0.818c0.025,0.061,0.062,0.135,0.109,0.229C247.646,189.359,247.611,189.713,247.448,190z"/>
		<path fill="#FFFFFF" d="M226.341,192l-1.739,1.643c-0.246,0.232-0.594,0.322-0.924,0.244c-0.329-0.08-0.596-0.322-0.707-0.643
			L222.536,192h-134.5c0.061,0.072,0.118,0.15,0.179,0.223c0.437,0.516,0.898,1.091,1.268,1.777h182.038
			c0.024-0.062,0.036-0.127,0.073-0.184l0.372-0.566l-0.47-0.592c-0.133-0.168-0.208-0.371-0.216-0.584
			c-0.001-0.023,0.004-0.051,0.004-0.074H226.341z"/>
		<path fill="#FFFFFF" d="M272.917,197.041c-0.281-0.28-0.572-0.646-0.825-1.041H89.935c-0.072,0.151-0.175,0.289-0.318,0.391
			l-0.911,0.643c-0.224,0.158-0.5,0.217-0.77,0.166c-0.927-0.183-1.659-0.648-2.291-1.199H82.97
			c-0.071,0.094-0.144,0.195-0.223,0.305c-0.361,0.505-0.813,1.132-1.51,1.695h191.471
			C272.835,197.611,272.923,197.261,272.917,197.041z"/>
		<path fill="#FFFFFF" d="M75.466,200.447c-0.425,0.051-0.854,0.025-1.282-0.008c-0.251-0.02-0.517-0.037-0.744-0.027
			c-0.108,0.217-0.227,0.455-0.353,0.707c-0.136,0.271-0.286,0.571-0.439,0.881h2.02c0.644-0.044,1.223-0.066,1.763-0.066
			c0.522,0,1.007,0.026,1.474,0.066h68.729c0.717-0.475,1.546-0.791,2.564-0.791c0.496,0,1.023,0.074,1.567,0.223
			c0.601,0.162,1.078,0.246,1.419,0.246c0.455,0,0.515-0.084,0.902-0.629c0.212-0.299,0.488-0.672,0.883-1.049H76.784
			C76.364,200.22,75.936,200.392,75.466,200.447z"/>
		<path fill="#FFFFFF" d="M271.34,201.5c0.123-0.448,0.334-0.941,0.574-1.5H162.351c1.301,0.66,2.854,1.311,3.665,1.311
			c0.02,0,0.035-0.002,0.049-0.002c0.64-0.701,1.562-1.121,2.49-1.121c1.016,0,1.929,0.488,2.504,1.338l0.104,0.152
			c0.048,0.07,0.129,0.191,0.225,0.322h0.823l0.59-0.42c0.229-0.16,0.514-0.219,0.783-0.162c0.273,0.057,0.51,0.225,0.652,0.463
			c0.023,0.038,0.052,0.08,0.075,0.119h96.977C271.313,201.737,271.332,201.54,271.34,201.5z"/>
		<path fill="#FFFFFF" d="M87.917,204.146c0.505,0.287,0.934,0.891,1.479,1.854h53.663c0.042-0.055,0.072-0.112,0.117-0.166
			c0.309-0.373,0.599-0.756,0.885-1.135c0.174-0.23,0.354-0.466,0.537-0.699h-56.98C87.718,204.049,87.819,204.091,87.917,204.146z"
			/>
		<path fill="#FFFFFF" d="M271.119,204.027c0-0.003,0.002-0.021,0.002-0.027h-95.313c0.571,0.638,1.206,1.217,1.842,1.582
			c0.172,0.098,0.304,0.246,0.391,0.418h45.631l4.085-0.859c0.491-0.104,0.984,0.174,1.15,0.648l0.073,0.211h42.733
			C271.354,205.396,271.119,204.743,271.119,204.027z"/>
		<path fill="#FFFFFF" d="M178.09,210h33.306c0.051-0.213,0.096-0.426,0.159-0.637c0.154-0.516,0.691-0.816,1.211-0.68l2.757,0.723
			l3.403-1.01l0.066-0.396h-40.867L178.09,210z"/>
		<path fill="#FFFFFF" d="M231.081,210h44.514c-0.032-0.066-0.063-0.122-0.09-0.158c-0.272-0.291-0.7-0.656-1.153-1.043
			c-0.294-0.252-0.603-0.521-0.908-0.799h-43.537l0.853,0.701c0.254,0.211,0.39,0.531,0.36,0.859L231.081,210z"/>
		<path fill="#FFFFFF" d="M91.695,210h50.007c0.048-0.686,0.159-1.355,0.35-2H90.481C90.872,208.719,91.292,209.451,91.695,210z"/>
		<path fill="#FFFFFF" d="M276.15,212.34c0.002-0.109-0.007-0.228-0.009-0.34h-45.234l-0.125,1.443l0.839,0.557h44.703
			C276.132,213.363,276.141,212.818,276.15,212.34z"/>
		<path fill="#FFFFFF" d="M178.367,212.477c0.316,0.539,0.675,1.15,0.998,1.51c0.004,0.005,0.009,0.009,0.014,0.014h12.563
			c0.153-0.085,0.309-0.164,0.47-0.23c0.203-0.084,0.426-0.1,0.638-0.043l1.035,0.273h1.932c2.058-0.607,2.081-0.609,2.245-0.609
			c0.198,0,1.871,0.347,3.108,0.609h0.328c0.336-1.028,1.089-1.86,2.227-2h-25.84C178.177,212.152,178.271,212.312,178.367,212.477z
			"/>
		<path fill="#FFFFFF" d="M141.671,212H96.124c0.687,0.265,1.379,0.672,2.023,1.41c0.117,0.135,0.196,0.299,0.229,0.475L98.397,214
			h43.318c-0.004-0.403-0.013-0.813-0.025-1.232C141.683,212.513,141.677,212.256,141.671,212z"/>
		<path fill="#FFFFFF" d="M181.646,216.086c0.283,0.242,0.563,0.482,0.835,0.719c0.256-0.045,0.52-0.068,0.785-0.068
			c1.521,0,2.807,0.725,3.555,1.264h2.311c0.077-0.189,0.152-0.406,0.224-0.646c0.145-0.483,0.35-0.936,0.595-1.354h-8.403
			C181.579,216.028,181.612,216.058,181.646,216.086z"/>
		<path fill="#FFFFFF" d="M278.298,216h-45.612c0.039,0.182,0.077,0.362,0.118,0.549c0.104,0.482,0.208,0.969,0.304,1.451h46.042
			C278.88,217.192,278.597,216.521,278.298,216z"/>
		<path fill="#FFFFFF" d="M96.703,217.516c-0.138,0.1-0.273,0.197-0.401,0.295c0.019,0.059,0.039,0.129,0.058,0.189h44.705
			c0.299-0.617,0.469-1.287,0.556-2H98.298C97.85,216.664,97.25,217.119,96.703,217.516z"/>
		<path fill="#FFFFFF" d="M97.414,220.85c0.304,0.219,0.708,0.426,1.137,0.645c0.297,0.151,0.614,0.317,0.93,0.506h30.625
			c0.545-0.414,1.143-0.805,1.831-1.047c0.649-0.223,1.276-0.236,1.829-0.248c0.313-0.006,0.609-0.014,0.876-0.055
			c0.527-0.08,1.15-0.319,1.747-0.65H97C97.146,220.393,97.293,220.729,97.414,220.85z"/>
		<path fill="#FFFFFF" d="M278.572,222l2.27-1.73l-0.447-0.27h-46.974c0.01,0.095,0.025,0.195,0.032,0.287
			c0.004,0.162,0.004,0.224-0.231,1.713H278.572z"/>
		<path fill="#FFFFFF" d="M101.445,224.1c0.274,0.667,0.406,1.3,0.469,1.9h18.504c0.818-0.337,1.692-0.444,2.494-0.537
			c0.472-0.055,0.917-0.107,1.313-0.201c0.467-0.11,2.003-0.771,3.028-1.262h-25.857C101.41,224.034,101.43,224.064,101.445,224.1z"
			/>
		<path fill="#FFFFFF" d="M277.824,224h-44.037c0.363,0.678,0.729,1.352,1.086,2h27.479l0.315-0.316
			c0.271-0.271,0.674-0.363,1.037-0.238c0.476,0.165,0.993,0.355,1.525,0.555h13.953L277.824,224z"/>
		<path fill="#FFFFFF" d="M273.986,230h3.658l2.713-2h-10.289C271.534,228.666,272.915,229.355,273.986,230z"/>
		<path fill="#FFFFFF" d="M102.329,230h13.637c0.518-0.449,1.008-0.976,1.511-1.525c0.145-0.158,0.297-0.315,0.444-0.475h-15.954
			C101.967,228.774,102.009,229.413,102.329,230z"/>
		<path fill="#FFFFFF" d="M245.914,228c0.038,0.059,0.09,0.105,0.115,0.172l0.704,1.828h16.279l-1.385-2H245.914z"/>
		<path fill="#FFFFFF" d="M237.191,230h4.003l2.91-2h-8.108C236.445,228.782,236.854,229.469,237.191,230z"/>
		<path fill="#FFFFFF" d="M246.512,232.643c0.908,0.646,0.911,0.652,1.023,0.863c0.088,0.142,0.181,0.319,0.273,0.494h14.551
			c0.111-0.676,0.225-1.343,0.352-2h-15.942L246.512,232.643z"/>
		<path fill="#FFFFFF" d="M249.093,236.822c0.089,0.211,0.175,0.414,0.259,0.609l1.098-0.33c0.094-0.027,0.19-0.041,0.287-0.041
			c0.154,0,0.307,0.035,0.447,0.105l1.67,0.834h1.765c0.722-0.563,1.597-1.021,2.403-1.127c0.407-0.053,0.807,0.146,1.006,0.506
			l0.346,0.621h2.041c0.246-0.142,0.448-0.305,0.575-0.494l0.257-0.381c0.301-0.443,0.513-0.77,0.669-1.125h-13.173
			C248.861,236.276,248.979,236.554,249.093,236.822z"/>
	</g>
</g>
</svg>
