<?xml version="1.0" encoding="utf-8"?>
<!-- Generator: Adobe Illustrator 16.0.0, SVG Export Plug-In . SVG Version: 6.00 Build 0)  -->
<!DOCTYPE svg PUBLIC "-//W3C//DTD SVG 1.1//EN" "http://www.w3.org/Graphics/SVG/1.1/DTD/svg11.dtd">
<svg version="1.1" xmlns="http://www.w3.org/2000/svg" xmlns:xlink="http://www.w3.org/1999/xlink" x="0px" y="0px" width="275px"
	 height="206px" viewBox="0 0 275 206" enable-background="new 0 0 275 206" xml:space="preserve">
<g id="Layer_2">
	
		<path fill="#00808E" stroke="#00808E" stroke-width="3" stroke-linecap="round" stroke-linejoin="round" stroke-miterlimit="10" d="
		M272.411,59.308l-1.02-0.739l-0.258-1.223l-0.057-1.111l-0.716-1.047l-0.258-1.099l-1.123-0.554l0.305-1.111l-0.049-1.106
		l-0.717-1.171l-0.258-1.162l-0.36-0.554l-0.239-0.357l-1.039-1.071l-0.39-1.092l0.178-1.084l0.382-0.717
		c-1.686,0.163-2.248-1.205-3.247-1.944c-0.637-0.478-1.466-0.883-2.154-1.296c-1.163,0.243-2.69,0.39-3.791,0.796
		c-0.306,0.11-0.431,0.266-0.703,0.443c-0.864,0.549-1.099,0.757-1.379,0.862c-0.267,0.102-0.58,0.102-1.57,0.234l-0.772,0.091
		c-0.701,0.681-2.433,2.123-3.449,2.312c-1.116-0.477-2.419-0.142-3.347,0.584l-1.709-0.516l0.827-1.653l-0.516-1.038l-1.03,0.117
		l-1.24-0.562l-1.084,0.967l-0.72-1.172l-1.036,0.479c-0.179-0.429-0.741-1.001-1.203-1.134l-0.498,0.686
		c-0.094-0.075-1.102-0.856-1.133-0.871c-0.64-0.227-1.686-0.279-2.373-0.391c-0.88-0.789-1.326-3.161-1.239-4.315l-1.039-0.93
		l-1.133-0.007l-2.16,1.694l0.045,2.217c-0.348,0.53-1.202,1.372-1.838,1.558c-1.179-1.543-0.844-2.691-1.353-3.863
		c-0.34-0.754-1.303-1.046-1.379-2.285h-0.008l-4.089,3.138l3.316,4.877l-3.707,2.729v3.316c-1.524-1.076-3.089-2.346-4.681-3.316
		c-2.654-1.599-7.199-3.463-10.146-4.487l-0.974,0.978l1.755,2.535c-0.369,1.748-0.72,3.503-0.977,5.269
		c-0.187,1.319-0.646,1.85-1.365,2.926c-0.717,1.077-2.476,1.482-3.707,1.562l-0.974-1.758c-1.008,0.132-2.373,1.125-2.926,1.952
		l-3.514-1.755l-1.952,0.584c-0.583-1.27-1.452-3.558-2.145-4.681c-0.008-0.015-1.255-0.896-1.364-0.977l0.78-1.948l-0.978-2.536
		l-6.242,4.291c-0.148-0.093-1.724-1.131-1.755-1.17c-1.085-1.254-4.245-7.2-5.071-8.778c0.031-0.205,0.388-2.436,0.388-2.536
		c-0.115-1.576-0.68-3.676-0.976-5.268l-1.754-1.172l0.39-4.487l-1.398-1.148l-0.773-2.213l-7.944,1.667l-0.232,1.399l-4.286,1.27
		l-3.037-0.796c-0.458,1.531-0.537,3.209-0.686,4.787c-0.085,0.856-0.554,2.97-1.653,1.372l-1.382-2.021
		c-1.444-0.413-3.059-0.804-4.556-0.804c-1.227,0-1.767,1.231-1.774,2.293c-0.364-0.08-4.12-0.875-4.245-0.875
		c-0.046,0-2.911,0.852-3.153,0.92l-2.331-0.614c-1.25,0.515-2.115,1.7-2.49,2.956c-0.717,2.411-1.796,2.974-3.877,1.335
		c-1.154-0.905-2.77-1.563-4.253-1.069c-1.147-1.046-2.553-2.122-3.599-3.263c-0.569-0.629-1.107-1.701-1.578-2.433l0.103-5.798
		c-1.481-0.85-2.926-2.638-3.783-4.067l-1.649,1.171c-0.632-0.091-1.202-1.031-1.511-1.482c-0.861-1.266-2.593-1.121-3.513-0.015
		c-0.913,1.076-6.163-1.748-7.092-2.513c-1.397-1.156-3.203-0.141-4.479,0.725c-1.982,1.345-1.133,3.092-4.707,2.115
		c-3.456-0.936-4.688,1.819-6.58,4.089c-3.251,3.925,1.451,11.11-4.461,14.633h-0.008c-0.205,0.882-0.462,1.746-0.758,2.597
		c-1,0.476-1.865,1.194-2.865,1.685c-1.02,0.508-2.161,0.728-3.191,1.235c-0.664,0.326-1.217,0.842-1.887,1.168
		c-2.824,1.376-7.43,1.486-9.734,3.434c-1.458,1.243-2.228,3.404-3.463,4.935c-1.225,0.303-2.528,0.567-3.783,0.326
		c-0.524-0.102-1.03-0.399-1.57-0.391c-2.615,0.038-8.873,1.921-11.518,2.794c-1.209,0.39-2.521,0.226-3.732,0.578
		c-0.717,0.21-1.365,0.601-2.005,0.975l-0.592,1.17c0.054,0.751,0.265,1.497,0.648,2.138c-0.133,2.021-1.725,2.991-2.645,4.542
		c-0.258,0.44-0.698,2.24-0.648,2.733c0.03,0.382,0.201,0.724,0.265,1.099c0.288,1.739-0.663,3.535-0.057,5.26
		c2.755,1.481,4.325-2.167,6.925-2.466c1.982-0.233,4.479,1.514,6.272,2.272c2.153,0.903,4.877,1.771,7.197,2.013
		c2.846,0.288,4.072-1.359,6.375-2.403c1.232-0.565,2.764,0.209,4.055,0.061c1.717-0.193,3.522-1.785,4.87-2.724
		c1.055-0.732,3.597-0.77,4.436,0.321c0.333,0.443,0.613,1.644,0.7,2.209c-2.145,2.793-4.097,0.246-5.674,3.501
		c0.304,0.922,0.016,3.139-0.921,3.639c-0.39,0.208-5.719,0.562-6.439,0.512c-0.989-0.054-1.932-0.407-2.918-0.512
		c-2.316-0.258-8.888,1.247-9.519,3.829c-0.109,0.454-0.109,0.954-0.157,1.419c1.093,1,3.646,1.467,5.082,2.013
		c1.958,0.75,3.643,2.033,5.462,3.055c1.778,1.004,3.919,1.58,5.298,3.183c0.178,0.21,1.062,2.964,1.085,3.309
		c0.042,0.922-0.318,1.801-0.383,2.722c-0.061,0.89,0.064,1.78-0.108,2.659l-0.969,0.587c-0.997-1.724-3.41-4.104-5.462-4.346
		c-1.475-0.182-3.255,0.812-4.65,1.232c-1.975,0.574-5.572-0.024-6.438,2.394c-0.665,1.857,1.561,6.852-2.052,8.243
		c-1.716-0.861-2.303-3.505-3.521-4.213c-1.296-0.758-3.285,0.215-4.43,0.905c-0.712,0.429-3.078,2.323-3.46,2.926
		c-0.437,0.679-0.664,1.482-1.248,2.073c-1.008,1.03-2.498,1.399-3.619,2.271c-0.861,0.666-1.479,1.758-2.437,2.271
		c-2.365,1.263-4.704,1.982-6.867,3.76c-0.607,0.5-0.959,1.209-1.513,1.755c-0.819,0.803-1.467,1.789-2.326,2.528
		c-0.25,0.22-2.973,2.062-3.347,2.274c-1.639,0.934-4.035,1.577-5.197,3.11c-0.034,0.842,0.349,1.632,0.326,2.467
		c-0.03,1.114-1.163,2.316-1.458,3.442c0.515,1.622,1.391,2.456,2.437,3.699c0.459,0.553,0.622,1.283,1.13,1.816
		c1.325,1.376,4.339,2.357,6.165,1.686c1.062-0.391,1.669-1.489,2.653-2.012c0.671-0.359,1.437-0.516,2.051-0.974
		c1.474,0.007,2.918,0.796,4.378,0.645c1.334-0.134,2.394-0.473,3.792-0.319c1.467,0.163,2.874,0.875,4.377,0.648
		c1.888-0.289,3.494-1.614,5.354-2.013c1.302-0.274,4.025,0.133,4.651,1.489c0.413,0.914,0.772,2.217,1.077,3.183
		c0.243,0.758,0.178,1.583,0.436,2.334c0.273,0.812,0.406,1.381,0.595,2.206c0.349,1.569,1.476,2.592,1.292,4.347l-0.7,0.977
		c-3.06-1.545-2.514-6.292-7.998-6.166c-5.033,0.111-3.21,4.011-5.902,5.188c-1.474,0.648-4.722-0.834-7.458,0.33
		c-0.861,0.368-2.226,1.622-2.865,1.816c-0.922,0.275-3.347-0.444-4.333-0.717c-1.542,0.506-2.793,1.53-3.293,3.114
		c-0.818-0.025-1.8-0.15-2.596,0.069c-0.811,0.219-1.952,1.811-2.38,2.527c-0.898,1.509-1.296,3.247-2.217,4.737
		c-0.842,1.372-1.928,2.512-2.809,3.832c-0.477,0.699-0.67,1.561-1.141,2.27c-0.215,0.329-0.537,0.603-0.7,0.965
		c-0.383,0.868-0.493,2.086-0.781,3.227l0.07,0.021c1.125,1.319,3.981,2.3,5.588,1.918c1.6,0.765,2.604,1.857,3.26,3.482l0.58,1.438
		c0.177,0.768-1.092,3.626-1.437,4.297c0.436,1.305,1.786,1.827,2.357,3.073c0.319,0.811-0.555,2.68-0.97,3.316l0.25,1.047
		c0.111-0.053,1.156-0.584,1.188-0.614c0.523-0.538,1.037-1.467,1.482-2.093l0.977,0.493c0.375,0.671,0.936,1.45,1.225,2.154
		c0.132,0.334,0.054,2.161,0.045,2.292l-0.099,2.373c0.031,0.476,0.631,2.843,0.975,3.255c0.539,0.664,1.373,1.313,1.999,1.91
		l1.539-0.819c1.239-0.67,1.481-0.655,2.903-0.39l2.214,0.405l2.001,2.154l1.02-0.679l0.156-1.106
		c-0.561-0.833-1.748-3.309-1.49-4.239l1.025-0.617c0.553,0.25,1.545,0.288,2.106,0.064l0.921-1.111
		c0.094,0.017,1.09,0.175,1.121,0.19l1.436,1.106c0.884,0.679,2.824,1.935,3.995,1.967c1.062-0.7,1.221-1.459,1.892-2.092
		c0.678-0.634,1.536-0.864,2.3-1.777c0.023-0.928,0.546-2.71,1.381-3.264c1.141,0.353,2.488,0.797,3.49,1.476l1.068-0.982
		l1.13-0.243l0.875-2.217l1.171-0.922l1.129-0.061c1.655-0.773,3.043-3.175,3.169-4.98c-0.078-0.796-0.91-1.872-1.585-2.27
		c1.07-0.648,2.335-1.282,3.327-2.028c0.122-0.086,1.218-1.554,1.794-2.023c0.03-0.091,0.258-0.922,0.258-0.983
		c-0.125-1.107-0.524-2.349-0.766-3.44c-0.709-0.501-1.436-1.335-1.849-2.092l0.564-0.982c1.676,0.193,3.15-1.906,3.848-3.14
		c0.7-0.506,2.505-0.78,3.324-0.796c0.333-0.008,0.739,0.235,1.076,0.243c1.055,0.03,3.801,0.039,4.761-0.493
		c0.545-0.764,0.819-2.418,0.872-3.316l1.024-0.429l1.124,0.24l0.725,1.235c0.656,0.251,1.553,0.318,2.248,0.251l1.28-0.868
		l1.122,0.493c0.728,0.981,0.985,2.176,1.493,3.263l0.708,1.16c0.104,0.103,0.959,0.537,1.131,0.68l0.647,0.654
		c0.132,0.126,0.173,0.243,0.329,0.33c0.641,0.343,1.653,0.562,2.358,0.797c0.372,0.725,1.077,1.497,1.739,1.967l-0.469,1.107
		c0.405,0.531,0.663,1.613,0.515,2.271l1.383,2.155l1.232,0.491c-0.079,0.686,0.023,1.561,0.258,2.208
		c0.531-0.397,1.637-0.708,2.301-0.554l0.154,1.046l1.024,1.047c0.837,0.398,1.421-0.042,2.202-0.189
		c1.171-0.216,2.123,0.412,3.277,0.25c0.687-0.25,1.584-1.054,1.896-1.717c-0.163-1.121-0.766-1.545-1.076-2.403
		c-0.228-0.594-0.322-1.398-0.463-2.021l0.822-1.11l1.02,0.545c0.087-0.098,0.743-0.91,0.766-0.974
		c0.072-0.14,0.14-0.921,0.212-1.106c0.281-0.773,0.951-1.695,1.584-2.217c0.398-1.106,0-2.396,0.717-3.381h1.122l1.132,0.743
		l1.024-0.061l1.069-1.046l1.129-0.064c0.72,0.883,0.588,2.209,0.773,3.264c0.057,0.34,0.244,0.694,0.306,1.039
		c0.142,0.841,0.061,1.511,0.46,2.338l1.124,0.116l1.077,0.987c0.209,1.918-2.031,3.758-0.514,5.655
		c-1.069,0.891-2.297,0.565-3.325,1.478l0.156,1.107l2.918,3.191c0.64-0.458,1.52-0.882,2.301-1.046
		c0.258,0.951,0.999,2.607,1.796,3.255c-0.08,0.592-0.289,1.445-0.258,2.029c0,0.116,0.374,0.927,0.406,1.107
		c0.171,0.788,0.069,1.5,0.359,2.333l-1.078,0.986l-2.146-0.118c-0.201,1.263-1.161,2.169-1.536,3.377l0.819,1.102
		c0.936-0.024,1.952,0.297,2.732,0.804l0.747,0.49c0.687,0.218,1.554,0.204,2.256,0.367c2.513,0.578,4.276,2.866,6.655,2.396
		c0.758-0.532,1.522-1.107,2.303-1.602c0.163-0.102,0.929-0.405,1.024-0.492c0.14-0.115,0.655-0.903,0.769-0.983
		c1.024-0.708,2.29-1.148,3.328-1.841c0.778-0.515,1.417-1.334,2.197-1.84c0.493-0.327,1.282-0.258,2.107-0.982l1.1,0.273v0.147
		c-0.231,0.226-0.24,0.678-0.289,0.966c-0.288,1.866,2.195,3.074,3.589,3.59l1.282-0.125c1.796-1.335,0.602-2.862,1.739-4.057
		c0.633-0.249,1.748-0.165,2.358,0.126c1.429,1.738,3.354,3.347,5.173,4.665c1.406-0.11,5.844-0.36,7.064,0.493
		c0.334,0.239,0.725,0.738,1.021,1.046c1.008,0.122,2.577-0.189,3.535-0.433l-0.03,0.175c0.67-0.501,0.958-1.781,1.925-2.569
		l2.358-0.655c1.482-0.413,1.834-0.43,3.191,0.242l1.569,0.78c0.171,0.118,1.142,1.445,1.896,1.968l1.08-0.116l2.096-2.093
		c-0.14-0.531,0-1.651,0.352-2.092c0.304-0.374,0.884-0.615,1.18-0.983c0.442-0.537,0.943-1.414,1.287-2.027
		c0.187-0.338,0.266-0.765,0.46-1.11c0.743-1.318,2.63-3.131,3.683-4.238c2.116,1.232,4.84-1.187,6.86-0.731
		c1.055,1.271,2.763,2.089,4.306,1.1c1.304,0.243,1.459,0.952,2.305,1.599c0.655,0.501,1.512,0.826,2.145,1.349
		c0.717,0.596,1.327,1.445,1.998,2.093c0.985,0.944,2.069,1.967,3.124,2.823c1.312,1.061,2.736,0.407,3.9,1.968l0.818,1.119
		l0.455,0.42c1.561,0.053,3.472-1.349,4.704-2.153c0.189-1.17,1.633-2.046,2.662-2.398c0.912-0.819,1.086-2.338,0.616-3.441
		c-0.656-1.542-1.812-2.626-1.437-4.475l1.797-1.975l0.202-2.209c0.556-0.725,1.187-1.459,1.694-2.217
		c0.133-0.193,0.337-0.818,0.463-0.975c1.675-2.083,4.298-1.944,5.157-5.204c0.209-0.814,0.498-1.686,0.421-2.547
		c0.467-0.508,0.898-1.512,0.921-2.206l-0.72-0.986c-0.709-0.171-1.528-0.459-2.248-0.554c-0.833-0.103-1.311,0.368-2.255-0.368
		c-0.475-0.663-0.929-1.488-1.18-2.269c0.611-1.085-0.052-2.27,0.721-3.264l2.3-1.527l0.155-1.109
		c-0.787-1.07-1.69-2.146-2.403-3.261c-0.442-0.679-0.28-1.232-1.179-2.085l-0.155-1.107l-1.13-0.921
		c-0.258-0.545-0.382-1.577-0.148-2.156c-0.844-0.982-2.281-0.761-3.388-1.285c-0.079-0.125-0.708-1.125-0.765-1.172
		c-0.102-0.093-0.958-0.484-1.121-0.609c-0.486-0.374-1.493-1.57-1.695-2.153c-0.537-1.553,1.13-3.277,2.051-4.299
		c0.64-0.719,1.353-1.14,1.742-2.092l-0.257-2.209l0.872-0.981l-0.201-1.048c0.28-0.5,1.27-1.795,1.731-2.091
		c0.398-0.258,1.498-0.47,2.309-1.046c-0.803-1.38-2.425-3.832-2.566-5.525c0.111-0.732,0.913-1.695,1.536-2.028l0.463-2.029
		c2.316-1.059,1.739-3.3,2.05-5.408c0.117-0.757,0.382-1.583,0.571-2.334c0.577-0.634,1.373-1.273,2.146-1.664
		c0.353-0.467,0.546-1.13,0.679-1.676c0.205-0.811,0.444-1.647,0.444-2.496c0-1.133-0.334-2.302-0.201-3.442
		c0.038-0.339,0.249-0.716,0.258-1.046c0.061-2.099-0.743-4.112,1.179-5.712c0.583,0.349,1.738,0.531,2.403,0.304
		c-0.072-0.639,0.258-1.652,0.663-2.145l1.076-0.428c0.975-2.115,2.786-2.015,4.151-2.835l0.682-0.731l0.341-0.375l0.205-2.208
		c0.531-0.732,1.326-1.49,2.099-1.968l0.255-1.107l0.977-0.981l0.25-2.335l0.773-1.046c0.678,0.03,1.652,0.538,2.153,0.982
		l3.377-0.545l1.485-2.09c1.061-0.36,2.395-0.978,3.479-1.171c0.053-0.007,2.107,0.117,2.301,0.126
		c1.155-0.773,1.318-2.069,2.255-3.012l1.179-0.43l1.023,0.554l1.232-0.368c0.023-1.187,0.665-2.452,1.687-3.072l-0.507-1.112
		c0.523-0.561,1.023-1.318,1.326-2.028l-0.406-0.981l0.155-1.102c0.897,0.537,2.547,0.64,3.426,0l1.406-1.313l0.702-0.656
		l-0.671-1.356l0.205-2.331l1.122-0.368l2.365-1.224l0.865-0.986l0.462-1.106L272.411,59.308z"/>
</g>
<g id="Layer_3">
	
		<polygon fill="#00808E" stroke="#00808E" stroke-width="3" stroke-linecap="round" stroke-linejoin="round" stroke-miterlimit="10" points="
		272.618,47.279 272.618,60.279 259.562,49.871 	"/>
	
		<polygon fill="#00808E" stroke="#00808E" stroke-width="3" stroke-linecap="round" stroke-linejoin="round" stroke-miterlimit="10" points="
		221.566,120.087 221.566,133.087 211,121.288 	"/>
	
		<polygon fill="#00808E" stroke="#00808E" stroke-width="3" stroke-linecap="round" stroke-linejoin="round" stroke-miterlimit="10" points="
		225.302,148.604 225.302,159.163 215.562,151.1 	"/>
	
		<polygon fill="#00808E" stroke="#00808E" stroke-width="3" stroke-linecap="round" stroke-linejoin="round" stroke-miterlimit="10" points="
		228.529,158.681 228.529,172.1 214.375,163.913 	"/>
	
		<polygon fill="#00808E" stroke="#00808E" stroke-width="3" stroke-linecap="round" stroke-linejoin="round" stroke-miterlimit="10" points="
		219.563,181.847 219.563,195.225 209.812,180.538 	"/>
	
		<polygon fill="#00808E" stroke="#00808E" stroke-width="3" stroke-linecap="round" stroke-linejoin="round" stroke-miterlimit="10" points="
		113.045,185.598 113.045,198.35 126,195.6 116.5,184.475 	"/>
	
		<polygon fill="#00808E" stroke="#00808E" stroke-width="3" stroke-linecap="round" stroke-linejoin="round" stroke-miterlimit="10" points="
		109.97,169.319 109.97,182.788 124.187,179.975 118.25,169.788 	"/>
	
		<polygon fill="#00808E" stroke="#00808E" stroke-width="3" stroke-linecap="round" stroke-linejoin="round" stroke-miterlimit="10" points="
		100.985,167.347 100.985,180.347 93.625,166.038 	"/>
	
		<polygon fill="#00808E" stroke="#00808E" stroke-width="3" stroke-linecap="round" stroke-linejoin="round" stroke-miterlimit="10" points="
		28.782,189.589 28.782,202.589 22.687,190.573 	"/>
	
		<polygon fill="#00808E" stroke="#00808E" stroke-width="3" stroke-linecap="round" stroke-linejoin="round" stroke-miterlimit="10" points="
		1.618,160.554 1.618,173.576 19.25,167.413 	"/>
	
		<polygon fill="#00808E" stroke="#00808E" stroke-width="3" stroke-linecap="round" stroke-linejoin="round" stroke-miterlimit="10" points="
		6.403,121.649 6.403,134.649 17.104,123.579 	"/>
	
		<polygon fill="#00808E" stroke="#00808E" stroke-width="3" stroke-linecap="round" stroke-linejoin="round" stroke-miterlimit="10" points="
		48.746,69.861 48.746,82.858 74.812,84.1 	"/>
	
		<polygon fill="#00808E" stroke="#00808E" stroke-width="3" stroke-linecap="round" stroke-linejoin="round" stroke-miterlimit="10" points="
		33.281,58.749 33.281,72.357 45.25,53.413 	"/>
</g>
<g id="Layer_1">
	
		<path fill="#00A6AF" stroke="#00FFFF" stroke-width="2" stroke-linecap="round" stroke-linejoin="round" stroke-miterlimit="10" d="
		M272.411,46.308l-1.02-0.739l-0.258-1.223l-0.057-1.111l-0.716-1.047l-0.258-1.099l-1.123-0.554l0.305-1.111l-0.049-1.106
		l-0.717-1.171l-0.258-1.162l-0.36-0.554l-0.239-0.357l-1.039-1.071l-0.39-1.092l0.178-1.084l0.382-0.717
		c-1.686,0.163-2.248-1.205-3.247-1.944c-0.637-0.478-1.466-0.883-2.154-1.296c-1.163,0.243-2.69,0.39-3.791,0.796
		c-0.306,0.11-0.431,0.266-0.703,0.443c-0.864,0.549-1.099,0.757-1.379,0.862c-0.267,0.102-0.58,0.102-1.57,0.234l-0.772,0.091
		c-0.701,0.681-2.433,2.123-3.449,2.312c-1.116-0.477-2.419-0.142-3.347,0.584l-1.709-0.516l0.827-1.653l-0.516-1.038l-1.03,0.117
		l-1.24-0.562l-1.084,0.967l-0.72-1.172l-1.036,0.479c-0.179-0.429-0.741-1.001-1.203-1.134l-0.498,0.686
		c-0.094-0.075-1.102-0.856-1.133-0.871c-0.64-0.227-1.686-0.279-2.373-0.391c-0.88-0.789-1.326-3.161-1.239-4.315l-1.039-0.93
		l-1.133-0.007l-2.16,1.694l0.045,2.217c-0.348,0.53-1.202,1.372-1.838,1.558c-1.179-1.543-0.844-2.691-1.353-3.863
		c-0.34-0.754-1.303-1.046-1.379-2.285h-0.008l-4.089,3.138l3.316,4.877l-3.707,2.729v3.316c-1.524-1.076-3.089-2.346-4.681-3.316
		c-2.654-1.599-7.199-3.463-10.146-4.487l-0.974,0.978l1.755,2.535c-0.369,1.748-0.72,3.503-0.977,5.269
		c-0.187,1.319-0.646,1.85-1.365,2.926c-0.717,1.077-2.476,1.482-3.707,1.562l-0.974-1.758c-1.008,0.132-2.373,1.125-2.926,1.952
		l-3.514-1.755l-1.952,0.584c-0.583-1.27-1.452-3.558-2.145-4.681c-0.008-0.015-1.255-0.896-1.364-0.977l0.78-1.948l-0.978-2.536
		l-6.242,4.291c-0.148-0.093-1.724-1.131-1.755-1.17c-1.085-1.254-4.245-7.2-5.071-8.778c0.031-0.205,0.388-2.436,0.388-2.536
		c-0.115-1.576-0.68-3.676-0.976-5.268l-1.754-1.172l0.39-4.487l-1.398-1.148l-0.773-2.213l-7.944,1.667l-0.232,1.399l-4.286,1.27
		l-3.037-0.796c-0.458,1.531-0.537,3.209-0.686,4.787c-0.085,0.856-0.554,2.97-1.653,1.372l-1.382-2.021
		c-1.444-0.413-3.059-0.804-4.556-0.804c-1.227,0-1.767,1.231-1.774,2.293c-0.364-0.08-4.12-0.875-4.245-0.875
		c-0.046,0-2.911,0.852-3.153,0.92l-2.331-0.614c-1.25,0.515-2.115,1.7-2.49,2.956c-0.717,2.411-1.796,2.974-3.877,1.335
		c-1.154-0.905-2.77-1.563-4.253-1.069c-1.147-1.046-2.553-2.122-3.599-3.263c-0.569-0.629-1.107-1.701-1.578-2.433l0.103-5.798
		c-1.481-0.85-2.926-2.638-3.783-4.067l-1.649,1.171c-0.632-0.091-1.202-1.031-1.511-1.482c-0.861-1.266-2.593-1.121-3.513-0.015
		c-0.913,1.076-6.163-1.748-7.092-2.513c-1.397-1.156-3.203-0.141-4.479,0.725c-1.982,1.345-1.133,3.092-4.707,2.115
		c-3.456-0.936-4.688,1.819-6.58,4.089c-3.251,3.925,1.451,11.11-4.461,14.633h-0.008c-0.205,0.882-0.462,1.746-0.758,2.597
		c-1,0.476-1.865,1.194-2.865,1.685c-1.02,0.508-2.161,0.728-3.191,1.235c-0.664,0.326-1.217,0.842-1.887,1.168
		c-2.824,1.376-7.43,1.486-9.734,3.434c-1.458,1.243-2.228,3.404-3.463,4.935c-1.225,0.303-2.528,0.567-3.783,0.326
		c-0.524-0.102-1.03-0.399-1.57-0.391c-2.615,0.038-8.873,1.921-11.518,2.794c-1.209,0.39-2.521,0.226-3.732,0.578
		c-0.717,0.21-1.365,0.601-2.005,0.975l-0.592,1.17c0.054,0.751,0.265,1.497,0.648,2.138c-0.133,2.021-1.725,2.991-2.645,4.542
		c-0.258,0.44-0.698,2.24-0.648,2.733c0.03,0.382,0.201,0.724,0.265,1.099c0.288,1.739-0.663,3.535-0.057,5.26
		c2.755,1.481,4.325-2.167,6.925-2.466c1.982-0.233,4.479,1.514,6.272,2.272c2.153,0.903,4.877,1.771,7.197,2.013
		c2.846,0.288,4.072-1.359,6.375-2.403c1.232-0.565,2.764,0.209,4.055,0.061c1.717-0.193,3.522-1.785,4.87-2.724
		c1.055-0.732,3.597-0.77,4.436,0.321c0.333,0.443,0.613,1.644,0.7,2.209c-2.145,2.793-4.097,0.246-5.674,3.501
		c0.304,0.922,0.016,3.139-0.921,3.639c-0.39,0.208-5.719,0.562-6.439,0.512c-0.989-0.054-1.932-0.407-2.918-0.512
		c-2.316-0.258-8.888,1.247-9.519,3.829c-0.109,0.454-0.109,0.954-0.157,1.419c1.093,1,3.646,1.467,5.082,2.013
		c1.958,0.75,3.643,2.033,5.462,3.055c1.778,1.004,3.919,1.58,5.298,3.183c0.178,0.21,1.062,2.964,1.085,3.309
		c0.042,0.922-0.318,1.801-0.383,2.722c-0.061,0.89,0.064,1.78-0.108,2.659l-0.969,0.587c-0.997-1.724-3.41-4.104-5.462-4.346
		c-1.475-0.182-3.255,0.812-4.65,1.232c-1.975,0.574-5.572-0.024-6.438,2.394c-0.665,1.857,1.561,6.852-2.052,8.243
		c-1.716-0.861-2.303-3.505-3.521-4.213c-1.296-0.758-3.285,0.215-4.43,0.905c-0.712,0.429-3.078,2.323-3.46,2.926
		c-0.437,0.679-0.664,1.482-1.248,2.073c-1.008,1.03-2.498,1.399-3.619,2.271c-0.861,0.666-1.479,1.758-2.437,2.271
		c-2.365,1.263-4.704,1.982-6.867,3.76c-0.607,0.5-0.959,1.209-1.513,1.755c-0.819,0.803-1.467,1.789-2.326,2.528
		c-0.25,0.22-2.973,2.062-3.347,2.274c-1.639,0.934-4.035,1.577-5.197,3.11c-0.034,0.842,0.349,1.632,0.326,2.467
		c-0.03,1.114-1.163,2.316-1.458,3.442c0.515,1.622,1.391,2.456,2.437,3.699c0.459,0.553,0.622,1.283,1.13,1.816
		c1.325,1.376,4.339,2.357,6.165,1.686c1.062-0.391,1.669-1.489,2.653-2.012c0.671-0.359,1.437-0.516,2.051-0.974
		c1.474,0.007,2.918,0.796,4.378,0.645c1.334-0.134,2.394-0.473,3.792-0.319c1.467,0.163,2.874,0.875,4.377,0.648
		c1.888-0.289,3.494-1.614,5.354-2.013c1.302-0.274,4.025,0.133,4.651,1.489c0.413,0.914,0.772,2.217,1.077,3.183
		c0.243,0.758,0.178,1.583,0.436,2.334c0.273,0.812,0.406,1.381,0.595,2.206c0.349,1.569,1.476,2.592,1.292,4.347l-0.7,0.977
		c-3.06-1.545-2.514-6.292-7.998-6.166c-5.033,0.111-3.21,4.011-5.902,5.188c-1.474,0.648-4.722-0.834-7.458,0.33
		c-0.861,0.368-2.226,1.622-2.865,1.816c-0.922,0.275-3.347-0.444-4.333-0.717c-1.542,0.506-2.793,1.53-3.293,3.114
		c-0.818-0.025-1.8-0.15-2.596,0.069c-0.811,0.219-1.952,1.811-2.38,2.527c-0.898,1.509-1.296,3.247-2.217,4.737
		c-0.842,1.372-1.928,2.512-2.809,3.832c-0.477,0.699-0.67,1.561-1.141,2.27c-0.215,0.329-0.537,0.603-0.7,0.965
		c-0.383,0.868-0.493,2.086-0.781,3.227l0.07,0.021c1.125,1.319,3.981,2.3,5.588,1.918c1.6,0.765,2.604,1.857,3.26,3.482l0.58,1.438
		c0.177,0.768-1.092,3.626-1.437,4.297c0.436,1.305,1.786,1.827,2.357,3.073c0.319,0.811-0.555,2.68-0.97,3.316l0.25,1.047
		c0.111-0.053,1.156-0.584,1.188-0.614c0.523-0.538,1.037-1.467,1.482-2.093l0.977,0.493c0.375,0.671,0.936,1.45,1.225,2.154
		c0.132,0.334,0.054,2.161,0.045,2.292l-0.099,2.373c0.031,0.476,0.631,2.843,0.975,3.255c0.539,0.664,1.373,1.313,1.999,1.91
		l1.539-0.819c1.239-0.67,1.481-0.655,2.903-0.39l2.214,0.405l2.001,2.154l1.02-0.679l0.156-1.106
		c-0.561-0.833-1.748-3.309-1.49-4.239l1.025-0.617c0.553,0.25,1.545,0.288,2.106,0.064l0.921-1.111
		c0.094,0.017,1.09,0.175,1.121,0.19l1.436,1.106c0.884,0.679,2.824,1.935,3.995,1.967c1.062-0.7,1.221-1.459,1.892-2.092
		c0.678-0.634,1.536-0.864,2.3-1.777c0.023-0.928,0.546-2.71,1.381-3.264c1.141,0.353,2.488,0.797,3.49,1.476l1.068-0.982
		l1.13-0.243l0.875-2.217l1.171-0.922l1.129-0.061c1.655-0.773,3.043-3.175,3.169-4.98c-0.078-0.796-0.91-1.872-1.585-2.27
		c1.07-0.648,2.335-1.282,3.327-2.028c0.122-0.086,1.218-1.554,1.794-2.023c0.03-0.091,0.258-0.922,0.258-0.983
		c-0.125-1.107-0.524-2.349-0.766-3.44c-0.709-0.501-1.436-1.335-1.849-2.092l0.564-0.982c1.676,0.193,3.15-1.906,3.848-3.14
		c0.7-0.506,2.505-0.78,3.324-0.796c0.333-0.008,0.739,0.235,1.076,0.243c1.055,0.03,3.801,0.039,4.761-0.493
		c0.545-0.764,0.819-2.418,0.872-3.316l1.024-0.429l1.124,0.24l0.725,1.235c0.656,0.251,1.553,0.318,2.248,0.251l1.28-0.868
		l1.122,0.493c0.728,0.981,0.985,2.176,1.493,3.263l0.708,1.16c0.104,0.103,0.959,0.537,1.131,0.68l0.647,0.654
		c0.132,0.126,0.173,0.243,0.329,0.33c0.641,0.343,1.653,0.562,2.358,0.797c0.372,0.725,1.077,1.497,1.739,1.967l-0.469,1.107
		c0.405,0.531,0.663,1.613,0.515,2.271l1.383,2.155l1.232,0.491c-0.079,0.686,0.023,1.561,0.258,2.208
		c0.531-0.397,1.637-0.708,2.301-0.554l0.154,1.046l1.024,1.047c0.837,0.398,1.421-0.042,2.202-0.189
		c1.171-0.216,2.123,0.412,3.277,0.25c0.687-0.25,1.584-1.054,1.896-1.717c-0.163-1.121-0.766-1.545-1.076-2.403
		c-0.228-0.594-0.322-1.398-0.463-2.021l0.822-1.11l1.02,0.545c0.087-0.098,0.743-0.91,0.766-0.974
		c0.072-0.14,0.14-0.921,0.212-1.106c0.281-0.773,0.951-1.695,1.584-2.217c0.398-1.106,0-2.396,0.717-3.381h1.122l1.132,0.743
		l1.024-0.061l1.069-1.046l1.129-0.064c0.72,0.883,0.588,2.209,0.773,3.264c0.057,0.34,0.244,0.694,0.306,1.039
		c0.142,0.841,0.061,1.511,0.46,2.338l1.124,0.116l1.077,0.987c0.209,1.918-2.031,3.758-0.514,5.655
		c-1.069,0.891-2.297,0.565-3.325,1.478l0.156,1.107l2.918,3.191c0.64-0.458,1.52-0.882,2.301-1.046
		c0.258,0.951,0.999,2.607,1.796,3.255c-0.08,0.592-0.289,1.445-0.258,2.029c0,0.116,0.374,0.927,0.406,1.107
		c0.171,0.788,0.069,1.5,0.359,2.333l-1.078,0.986l-2.146-0.118c-0.201,1.263-1.161,2.169-1.536,3.377l0.819,1.102
		c0.936-0.024,1.952,0.297,2.732,0.804l0.747,0.49c0.687,0.218,1.554,0.204,2.256,0.367c2.513,0.578,4.276,2.866,6.655,2.396
		c0.758-0.532,1.522-1.107,2.303-1.602c0.163-0.102,0.929-0.405,1.024-0.492c0.14-0.115,0.655-0.903,0.769-0.983
		c1.024-0.708,2.29-1.148,3.328-1.841c0.778-0.515,1.417-1.334,2.197-1.84c0.493-0.327,1.282-0.258,2.107-0.982l1.1,0.273v0.147
		c-0.231,0.226-0.24,0.678-0.289,0.966c-0.288,1.866,2.195,3.074,3.589,3.59l1.282-0.125c1.796-1.335,0.602-2.862,1.739-4.057
		c0.633-0.249,1.748-0.165,2.358,0.126c1.429,1.738,3.354,3.347,5.173,4.665c1.406-0.11,5.844-0.36,7.064,0.493
		c0.334,0.239,0.725,0.738,1.021,1.046c1.008,0.122,2.577-0.189,3.535-0.433l-0.03,0.175c0.67-0.501,0.958-1.781,1.925-2.569
		l2.358-0.655c1.482-0.413,1.834-0.43,3.191,0.242l1.569,0.78c0.171,0.118,1.142,1.445,1.896,1.968l1.08-0.116l2.096-2.093
		c-0.14-0.531,0-1.651,0.352-2.092c0.304-0.374,0.884-0.615,1.18-0.983c0.442-0.537,0.943-1.414,1.287-2.027
		c0.187-0.338,0.266-0.765,0.46-1.11c0.743-1.318,2.63-3.131,3.683-4.238c2.116,1.232,4.84-1.187,6.86-0.731
		c1.055,1.271,2.763,2.089,4.306,1.1c1.304,0.243,1.459,0.952,2.305,1.599c0.655,0.501,1.512,0.826,2.145,1.349
		c0.717,0.596,1.327,1.445,1.998,2.093c0.985,0.944,2.069,1.967,3.124,2.823c1.312,1.061,2.736,0.407,3.9,1.968l0.818,1.119
		l0.455,0.42c1.561,0.053,3.472-1.349,4.704-2.153c0.189-1.17,1.633-2.046,2.662-2.398c0.912-0.819,1.086-2.338,0.616-3.441
		c-0.656-1.542-1.812-2.626-1.437-4.475l1.797-1.975l0.202-2.209c0.556-0.725,1.187-1.459,1.694-2.217
		c0.133-0.193,0.337-0.818,0.463-0.975c1.675-2.083,4.298-1.944,5.157-5.204c0.209-0.814,0.498-1.686,0.421-2.547
		c0.467-0.508,0.898-1.512,0.921-2.206l-0.72-0.986c-0.709-0.171-1.528-0.459-2.248-0.554c-0.833-0.103-1.311,0.368-2.255-0.368
		c-0.475-0.663-0.929-1.488-1.18-2.269c0.611-1.085-0.052-2.27,0.721-3.264l2.3-1.527l0.155-1.109
		c-0.787-1.07-1.69-2.146-2.403-3.261c-0.442-0.679-0.28-1.232-1.179-2.085l-0.155-1.107l-1.13-0.921
		c-0.258-0.545-0.382-1.577-0.148-2.156c-0.844-0.982-2.281-0.761-3.388-1.285c-0.079-0.125-0.708-1.125-0.765-1.172
		c-0.102-0.093-0.958-0.484-1.121-0.609c-0.486-0.374-1.493-1.57-1.695-2.153c-0.537-1.553,1.13-3.277,2.051-4.299
		c0.64-0.719,1.353-1.14,1.742-2.092l-0.257-2.209l0.872-0.981l-0.201-1.048c0.28-0.5,1.27-1.795,1.731-2.091
		c0.398-0.258,1.498-0.47,2.309-1.046c-0.803-1.38-2.425-3.832-2.566-5.525c0.111-0.732,0.913-1.695,1.536-2.028l0.463-2.029
		c2.316-1.059,1.739-3.3,2.05-5.408c0.117-0.757,0.382-1.583,0.571-2.334c0.577-0.634,1.373-1.273,2.146-1.664
		c0.353-0.467,0.546-1.13,0.679-1.676c0.205-0.811,0.444-1.647,0.444-2.496c0-1.133-0.334-2.302-0.201-3.442
		c0.038-0.339,0.249-0.716,0.258-1.046c0.061-2.099-0.743-4.112,1.179-5.712c0.583,0.349,1.738,0.531,2.403,0.304
		c-0.072-0.639,0.258-1.652,0.663-2.145l1.076-0.428c0.975-2.115,2.786-2.015,4.151-2.835l0.682-0.731l0.341-0.375l0.205-2.208
		c0.531-0.732,1.326-1.49,2.099-1.968l0.255-1.107l0.977-0.981l0.25-2.335l0.773-1.046c0.678,0.03,1.652,0.538,2.153,0.982
		l3.377-0.545l1.485-2.09c1.061-0.36,2.395-0.978,3.479-1.171c0.053-0.007,2.107,0.117,2.301,0.126
		c1.155-0.773,1.318-2.069,2.255-3.012l1.179-0.43l1.023,0.554l1.232-0.368c0.023-1.187,0.665-2.452,1.687-3.072l-0.507-1.112
		c0.523-0.561,1.023-1.318,1.326-2.028l-0.406-0.981l0.155-1.102c0.897,0.537,2.547,0.64,3.426,0l1.406-1.313l0.702-0.656
		l-0.671-1.356l0.205-2.331l1.122-0.368l2.365-1.224l0.865-0.986l0.462-1.106L272.411,46.308z"/>
</g>
<g id="Layer_5">
	<g opacity="0.35">
		<path fill="#FFFFFF" d="M111.077,4.749l-0.092-0.136c-0.261-0.384-0.609-0.463-0.856-0.463c-0.394,0-0.792,0.195-1.064,0.522
			c-0.236,0.278-0.679,0.602-1.484,0.602c-1.089,0-2.67-0.599-4.068-1.274h-7.145c-0.041,0.056-0.083,0.112-0.123,0.169
			c-0.467,0.656-1.048,1.473-2.536,1.474c-0.528,0-1.167-0.105-1.955-0.32c-0.372-0.101-0.724-0.152-1.043-0.152
			c-0.768,0-1.368,0.301-1.954,0.829h23.358C111.664,5.618,111.32,5.112,111.077,4.749z"/>
		<path fill="#FFFFFF" d="M117.742,8.967c-0.396-0.277-0.776-0.612-1.146-0.967h-29.54c-0.276,0.364-0.554,0.732-0.851,1.088
			C85.977,9.365,85.807,9.674,85.664,10h32.06L117.742,8.967z"/>
		<polygon fill="#FFFFFF" points="169.071,9.258 165.535,10 169.33,10 		"/>
		<path fill="#FFFFFF" d="M117.653,14l0.035-2H85.203c-0.054,0.637-0.058,1.307-0.043,2H117.653z"/>
		<path fill="#FFFFFF" d="M170.845,12h-8.748c-0.081,0.053-0.169,0.096-0.264,0.124l-4.286,1.27
			c-0.175,0.051-0.36,0.056-0.538,0.008l-2.055-0.539c-0.073,0.371-0.122,0.753-0.169,1.137h15.887L170.845,12z"/>
		<path fill="#FFFFFF" d="M139.979,17.415c-0.393,0.112-1.295,0.378-1.994,0.585h4.831C141.816,17.79,140.472,17.509,139.979,17.415
			z"/>
		<path fill="#FFFFFF" d="M149.884,16.642c-1.054-0.292-2.309-0.578-3.483-0.642h-0.589c-0.507,0.13-0.635,0.941-0.637,1.274
			c-0.002,0.281-0.131,0.539-0.338,0.726h5.977L149.884,16.642z"/>
		<path fill="#FFFFFF" d="M119.49,17.332c-0.341-0.377-0.654-0.857-0.941-1.332H85.205c0.005,0.664-0.013,1.335-0.08,2h35.044
			C119.94,17.778,119.7,17.561,119.49,17.332z"/>
		<path fill="#FFFFFF" d="M172.358,17.719l-1.408-0.94c-0.264-0.176-0.417-0.467-0.434-0.779h-15.935l-0.046,0.52
			c-0.037,0.369-0.13,0.942-0.331,1.48h18.213C172.399,17.908,172.376,17.808,172.358,17.719z"/>
		<path fill="#FFFFFF" d="M127.46,21.774c-1.1-0.863-2.366-1.223-3.319-0.906c-0.341,0.115-0.721,0.035-0.989-0.209
			c-0.238-0.217-0.499-0.438-0.754-0.659H84.723c-0.227,0.699-0.561,1.37-1.033,2h44.087
			C127.671,21.923,127.57,21.861,127.46,21.774z"/>
		<path fill="#FFFFFF" d="M172.844,20h-39.948c-0.133,0.446-0.417,1.317-0.985,2h41.277C173.114,21.383,172.99,20.703,172.844,20z"
			/>
		<path fill="#FFFFFF" d="M225.312,26c-0.004-0.023-0.008-0.047-0.012-0.07c-0.069-0.404-0.129-0.752-0.268-1.072
			c-0.047-0.105-0.191-0.251-0.356-0.42c-0.12-0.122-0.257-0.272-0.394-0.438h-0.456l-1.995,1.531L222.15,26H225.312z"/>
		<path fill="#FFFFFF" d="M232.643,26c-0.138-0.637-0.21-1.262-0.223-1.77L232.162,24h-0.749l-1.309,1.026l0.02,0.974H232.643z"/>
		<path fill="#FFFFFF" d="M172.962,25.386c-0.099-0.188-0.135-0.402-0.103-0.612l0.07-0.447c0.016-0.098,0.033-0.21,0.052-0.327
			H81.766c-0.171,0.649-0.368,1.308-0.608,2h92.128C173.149,25.742,173.037,25.528,172.962,25.386z"/>
		<path fill="#FFFFFF" d="M224.617,29.627c0.079,0.116,0.127,0.243,0.152,0.373h12.588c-0.226-0.175-0.588-0.456-0.779-0.601
			c-0.342-0.094-0.849-0.153-1.302-0.206c-0.277-0.032-0.542-0.063-0.77-0.1c-0.188-0.031-0.365-0.115-0.507-0.243
			c-0.247-0.221-0.458-0.517-0.643-0.85h-3.935c-0.506,0.54-1.191,1.094-1.838,1.283c-0.396,0.115-0.823-0.024-1.074-0.353
			c-0.247-0.323-0.435-0.632-0.586-0.93h-2.412L224.617,29.627z"/>
		<path fill="#FFFFFF" d="M174.355,28H78.26c-0.156,0.088-0.309,0.18-0.474,0.261c-0.57,0.284-1.157,0.481-1.725,0.672
			c-0.521,0.175-1.014,0.34-1.465,0.563c-0.264,0.129-0.528,0.312-0.808,0.505h101.668C175.073,29.316,174.699,28.633,174.355,28z"
			/>
		<path fill="#FFFFFF" d="M262.952,29.971c-0.381-0.287-0.87-0.56-1.342-0.824c-0.133-0.075-0.266-0.149-0.396-0.223
			c-0.277,0.051-0.567,0.1-0.864,0.148c-0.857,0.142-1.744,0.29-2.403,0.532c-0.063,0.023-0.089,0.041-0.21,0.133
			c-0.088,0.067-0.181,0.137-0.294,0.21c-0.031,0.02-0.051,0.033-0.08,0.052h5.621C262.974,29.992,262.963,29.979,262.952,29.971z"
			/>
		<path fill="#FFFFFF" d="M214.882,33.773c-0.942-0.568-2.151-1.177-3.447-1.773h-4.418c-0.002,0.051,0.01,0.101,0,0.151
			c-0.126,0.598-0.25,1.225-0.374,1.849h8.581C215.109,33.928,214.995,33.842,214.882,33.773z"/>
		<path fill="#FFFFFF" d="M265.292,33.248c-0.057-0.16-0.072-0.331-0.045-0.499L265.37,32h-12.629
			c-0.817,0.656-1.926,1.424-2.83,1.592c-0.194,0.036-0.395,0.014-0.576-0.064c-0.688-0.292-1.629-0.102-2.338,0.453
			c-0.01,0.008-0.021,0.012-0.032,0.019h18.595L265.292,33.248z"/>
		<path fill="#FFFFFF" d="M244.383,33.635c-0.282-0.085-0.513-0.291-0.629-0.562c-0.117-0.271-0.108-0.58,0.024-0.843l0.115-0.23
			h-20.875l-1.935,1.425V34h24.51L244.383,33.635z"/>
		<path fill="#FFFFFF" d="M176.604,32H68.434c-0.025,0.006-0.051,0.013-0.076,0.019c-1.972,0.471-4.012,0.958-5.179,1.945
			c-0.013,0.011-0.023,0.025-0.036,0.037h114.74C177.539,33.534,177.091,32.82,176.604,32z"/>
		<polygon fill="#FFFFFF" points="186.82,33.11 186.439,32.122 183.707,34 186.463,34 		"/>
		<path fill="#FFFFFF" d="M187.722,36.727c-0.172-0.124-0.462-0.33-0.712-0.507c-0.116-0.083-0.223-0.159-0.308-0.22H61.622
			c-0.113,0.189-0.226,0.378-0.34,0.573c-0.28,0.478-0.578,0.958-0.893,1.427h127.964C188.134,37.518,187.919,37.07,187.722,36.727z
			"/>
		<path fill="#FFFFFF" d="M267.666,37.669c-0.058-0.094-0.099-0.197-0.123-0.305l-0.219-0.985L267.075,36h-45.992v0.235
			c0,0.374-0.208,0.716-0.54,0.888s-0.731,0.145-1.037-0.071c-0.477-0.336-0.958-0.693-1.441-1.052H206.28
			c-0.078,0.453-0.164,0.903-0.23,1.357c-0.033,0.234-0.077,0.443-0.125,0.643h61.944L267.666,37.669z"/>
		<path fill="#FFFFFF" d="M269.237,41.778l-0.7-0.345c-0.43-0.212-0.649-0.7-0.522-1.162L268.09,40h-63.094
			c-0.073,0.109-0.148,0.22-0.225,0.333l-0.245,0.362c-0.395,0.593-0.971,1.009-1.588,1.305h66.351L269.237,41.778z"/>
		<path fill="#FFFFFF" d="M198.534,41.14c-0.416,0.202-0.868,0.524-1.217,0.86h1.693L198.534,41.14z"/>
		<path fill="#FFFFFF" d="M192.482,41.211l-1.572,0.47c-0.477,0.14-0.987-0.087-1.195-0.541c-0.149-0.324-0.319-0.722-0.497-1.141
			H48.691c-2.277,0.584-4.673,1.317-6.178,1.813C42.255,41.896,42,41.953,41.747,42h152.314L192.482,41.211z"/>
		<path fill="#FFFFFF" d="M37.517,45.79c-0.005,0.073-0.019,0.139-0.027,0.21h233.016c-0.036-0.073-0.076-0.144-0.093-0.225
			l-0.258-1.223c-0.011-0.051-0.018-0.104-0.02-0.156L270.115,44H36.945c0.083,0.441,0.22,0.857,0.431,1.21
			C37.481,45.385,37.53,45.587,37.517,45.79z"/>
		<path fill="#FFFFFF" d="M36.814,48c-0.333,0.562-0.736,1.047-1.118,1.5c-0.142,0.169-0.277,0.334-0.409,0.5h232.245l1.005-0.33
			l2.126-1.1l0.5-0.57H36.814z"/>
		<path fill="#FFFFFF" d="M266.603,53.207L266.709,52H34.371c-0.088,0.39-0.155,0.758-0.15,0.914
			c0.009,0.114,0.052,0.254,0.102,0.417c0.06,0.196,0.118,0.393,0.152,0.597c0.004,0.024,0.003,0.048,0.007,0.072h232.35
			l-0.129-0.262C266.622,53.573,266.587,53.39,266.603,53.207z"/>
		<path fill="#FFFFFF" d="M59.79,57.862c0.838-0.383,1.972-0.302,2.972-0.14c0.511,0.083,0.974,0.165,1.382,0.118
			c1.079-0.122,2.371-1.051,3.437-1.84H41.805c1.262,0.266,2.562,0.914,3.718,1.511c0.34,0.175,0.663,0.338,0.976,0.489h13.022
			C59.614,57.955,59.693,57.906,59.79,57.862z"/>
		<path fill="#FFFFFF" d="M75.159,58H261.63c-0.04-0.136-0.059-0.277-0.039-0.418l0.155-1.102c0.025-0.179,0.101-0.342,0.21-0.479
			H74.467C74.818,56.576,75.045,57.452,75.159,58z"/>
		<path fill="#FFFFFF" d="M34.375,56.578c-0.073,0.494-0.138,0.97-0.142,1.422h2.107c0.197-0.141,0.396-0.292,0.602-0.449
			c0.794-0.605,1.681-1.277,2.759-1.551h-5.245C34.432,56.194,34.404,56.387,34.375,56.578z"/>
		<path fill="#FFFFFF" d="M260.969,60H74.359c-1.051,0.956-2.091,1.096-2.888,1.193c-0.749,0.091-1.197,0.149-1.652,0.807h190.718
			c0.125-0.159,0.253-0.315,0.396-0.455l-0.183-0.399c-0.167-0.368-0.097-0.801,0.179-1.097
			C260.943,60.034,260.956,60.015,260.969,60z"/>
		<path fill="#FFFFFF" d="M68.86,66h186.402c0.271-0.492,0.58-1.047,1.075-1.546c0.104-0.104,0.229-0.185,0.367-0.235L257.307,64
			H69.624C69.511,64.73,69.262,65.455,68.86,66z"/>
		<path fill="#FFFFFF" d="M49.764,69.846c-0.011,0.047-0.017,0.103-0.026,0.154H241.53c0.157-0.083,0.33-0.134,0.512-0.13
			c0.228,0.01,0.47,0.062,0.715,0.13h4.472l0.969-1.363c0.122-0.171,0.294-0.3,0.494-0.368c0.227-0.077,0.478-0.175,0.726-0.27
			H52.119C50.876,68.531,49.927,69.179,49.764,69.846z"/>
		<path fill="#FFFFFF" d="M54.073,72.106c1.293,0.496,2.455,1.197,3.575,1.894h182.164l0.205-0.206L240.21,72H53.762
			C53.864,72.035,53.979,72.07,54.073,72.106z"/>
		<path fill="#FFFFFF" d="M61.276,76.02c1.153,0.534,2.336,1.089,3.334,1.98h172.086c0.032-0.099,0.075-0.195,0.137-0.28
			c0.453-0.624,1.047-1.227,1.67-1.72H61.237C61.251,76.006,61.263,76.013,61.276,76.02z"/>
		<path fill="#FFFFFF" d="M66.448,82h166.669c0.553-0.346,1.125-0.556,1.642-0.743c0.372-0.135,0.726-0.263,1.029-0.427l0.686-0.739
			l0.008-0.09H65.838C66.08,80.694,66.314,81.483,66.448,82z"/>
		<path fill="#FFFFFF" d="M66.347,84.355c-0.076,0.36-0.147,0.7-0.17,1.023c-0.014,0.207-0.009,0.414-0.008,0.621H227.44
			c0.016-0.014,0.026-0.028,0.043-0.042c0.326-0.272,0.79-0.308,1.153-0.089c0.077,0.045,0.193,0.091,0.326,0.131h0.663
			c0.146-0.649,0.429-1.311,0.791-1.75c0.088-0.107,0.201-0.188,0.323-0.25H66.42C66.396,84.121,66.371,84.241,66.347,84.355z"/>
		<path fill="#FFFFFF" d="M66.071,88c-0.009,0.054-0.007,0.105-0.018,0.16c-0.054,0.276-0.222,0.517-0.463,0.663l-0.969,0.587
			c-0.23,0.139-0.508,0.18-0.767,0.114c-0.26-0.067-0.483-0.235-0.618-0.468c-0.199-0.345-0.459-0.702-0.745-1.056H48.583
			c-0.03,0.058-0.066,0.109-0.089,0.173c-0.123,0.343-0.07,1.098-0.005,1.827h177.348c-0.018-0.661,0.028-1.337,0.24-2H66.071z"/>
		<path fill="#FFFFFF" d="M41.477,92.731c-0.614-0.36-1.902-0.011-3.412,0.896c-0.13,0.079-0.323,0.215-0.536,0.373h4.911
			C42.107,93.443,41.77,92.901,41.477,92.731z"/>
		<path fill="#FFFFFF" d="M48.45,94h177.208c0.001-0.208,0.011-0.418,0.036-0.631c0.029-0.256,0.104-0.483,0.17-0.684
			c0.03-0.092,0.076-0.231,0.082-0.281c0.004-0.133-0.003-0.269-0.006-0.404H48.625C48.638,92.662,48.601,93.347,48.45,94z"/>
		<path fill="#FFFFFF" d="M225.759,98c0.076-0.367,0.129-0.725,0.129-1.074c0-0.294-0.03-0.606-0.066-0.926H47.412
			c-0.391,0.408-0.892,0.758-1.552,1.012c-0.262,0.103-0.556,0.087-0.808-0.039c-0.486-0.244-0.873-0.592-1.221-0.973H35.14
			c-0.096,0.097-0.169,0.179-0.208,0.236c-0.143,0.222-0.257,0.458-0.374,0.692c-0.169,0.341-0.359,0.713-0.615,1.072H225.759z"/>
		<path fill="#FFFFFF" d="M225.071,100.335c0.058-0.103,0.109-0.218,0.155-0.335H31.248c-0.518,0.265-1.008,0.516-1.412,0.831
			c-0.294,0.227-0.575,0.541-0.873,0.873c-0.087,0.097-0.179,0.197-0.271,0.297h194.274
			C223.577,101.351,224.339,100.745,225.071,100.335z"/>
		<path fill="#FFFFFF" d="M222.06,104.95c0.049-0.318,0.12-0.635,0.198-0.95H25.627c-0.222,0.104-0.446,0.21-0.665,0.312
			c-1.125,0.521-2.204,1.025-3.236,1.688h200.233C221.98,105.655,222.007,105.307,222.06,104.95z"/>
		<path fill="#FFFFFF" d="M220.583,109.594c0.756-0.346,1.062-0.843,1.207-1.594H19.583c-0.144,0.182-0.296,0.363-0.475,0.54
			c-0.327,0.32-0.627,0.677-0.946,1.055c-0.113,0.135-0.234,0.27-0.352,0.405h202.35
			C220.264,109.829,220.397,109.679,220.583,109.594z"/>
		<path fill="#FFFFFF" d="M219.555,112H15.488c-0.923,0.632-2.043,1.376-2.262,1.5c-0.31,0.176-0.643,0.341-0.981,0.5h205.87
			C218.364,113.249,218.951,112.49,219.555,112z"/>
		<path fill="#FFFFFF" d="M8.846,118h210.355c-0.349-0.658-0.667-1.338-0.891-2H8.656c-0.033,0.032-0.076,0.059-0.107,0.091
			c0.024,0.216,0.075,0.448,0.127,0.689C8.755,117.146,8.829,117.56,8.846,118z"/>
		<path fill="#FFFFFF" d="M217.147,122c0.454-0.624,1.098-1.405,1.571-1.709c0.175-0.113,0.393-0.203,0.628-0.291H8.322
			c-0.117,0.227-0.238,0.449-0.357,0.66c-0.197,0.349-0.387,0.684-0.506,0.982c0.048,0.129,0.108,0.239,0.163,0.358H217.147z"/>
		<path fill="#FFFFFF" d="M44.3,125.895c0.015,0.033,0.028,0.071,0.043,0.105h171.591l-0.073-0.631
			c-0.033-0.283,0.056-0.566,0.246-0.779l0.524-0.59H41.58C42.695,124.289,43.821,124.857,44.3,125.895z"/>
		<path fill="#FFFFFF" d="M9.141,124.161l0.464,0.542c0.29,0.349,0.475,0.716,0.639,1.04c0.047,0.093,0.091,0.173,0.136,0.256h7.871
			c0.024-0.014,0.042-0.033,0.067-0.046c0.299-0.161,0.618-0.288,0.937-0.414c0.372-0.146,0.724-0.284,0.985-0.479
			c0.173-0.129,0.383-0.199,0.598-0.199c0.001,0,0.003,0,0.005,0c0.791,0.004,1.526,0.187,2.236,0.363
			c0.729,0.181,1.396,0.355,2.034,0.287c0.401-0.04,0.772-0.1,1.137-0.158c0.87-0.138,1.783-0.281,2.869-0.161
			c0.611,0.068,1.187,0.214,1.744,0.355c0.84,0.213,1.601,0.414,2.374,0.299c0.847-0.129,1.673-0.527,2.548-0.947
			c0.692-0.333,1.407-0.669,2.177-0.901H9.003C9.051,124.055,9.092,124.104,9.141,124.161z"/>
		<path fill="#FFFFFF" d="M45.217,128.53l0.205,0.666c0.087,0.272,0.138,0.542,0.178,0.804h168.053
			c0.289-0.357,0.581-0.68,0.832-0.957l0.143-0.157c0.21-0.236,0.431-0.447,0.647-0.653c0.086-0.082,0.156-0.156,0.234-0.233H45.054
			C45.109,128.179,45.165,128.358,45.217,128.53z"/>
		<path fill="#FFFFFF" d="M46.007,132c0.195,0.64,0.321,1.176,0.467,1.814c0.014,0.064,0.042,0.123,0.06,0.186h165.791
			c-0.189-0.689-0.112-1.364,0.12-2H46.007z"/>
		<path fill="#FFFFFF" d="M215.851,138c-0.138-0.218-0.3-0.472-0.407-0.633c-0.083-0.043-0.187-0.095-0.292-0.148
			c-0.42-0.212-0.606-0.31-0.749-0.42c-0.222-0.171-0.518-0.461-0.816-0.799H47.372c0.242,0.582,0.439,1.23,0.439,2H215.851z"/>
		<path fill="#FFFFFF" d="M34.918,136.437c-0.192,0.496-0.409,1.051-0.759,1.563h9.14c-0.187-0.282-0.359-0.565-0.526-0.839
			c-0.251-0.414-0.49-0.805-0.748-1.161h-6.934C35.034,136.14,34.977,136.285,34.918,136.437z"/>
		<path fill="#FFFFFF" d="M23.824,140.483c-0.633,0.459-1.18,0.856-1.664,1.003c-1.028,0.307-2.921-0.16-4.588-0.625
			c-0.569,0.221-1.196,0.575-1.688,1.139h203.918c-0.114-0.094-0.207-0.21-0.269-0.343c-0.206-0.436-0.345-1.048-0.363-1.657H46.846
			c-0.296,0.349-0.791,0.465-1.205,0.253c-0.153-0.078-0.296-0.164-0.435-0.253H24.504C24.283,140.15,24.046,140.321,23.824,140.483
			z"/>
		<path fill="#FFFFFF" d="M222.057,145.881c-0.226-0.346-0.338-0.672-0.429-0.934c-0.122-0.352-0.206-0.587-0.579-0.947H11.839
			c-0.351,0.196-1.124,1.06-1.692,2h211.991C222.113,145.96,222.083,145.922,222.057,145.881z"/>
		<path fill="#FFFFFF" d="M224.219,149.129l0.036-0.257c-0.185-0.246-0.375-0.493-0.566-0.74c-0.033-0.043-0.067-0.088-0.1-0.132
			H9.207c-0.03,0.073-0.06,0.14-0.089,0.213c-0.238,0.59-0.486,1.194-0.784,1.787h61.891c0.027-0.208,0.05-0.413,0.061-0.6
			c0.022-0.381,0.26-0.716,0.612-0.864l1.024-0.429c0.188-0.079,0.396-0.099,0.595-0.056l1.124,0.24
			c0.274,0.059,0.512,0.229,0.654,0.472l0.529,0.901c0.36,0.087,0.819,0.129,1.244,0.112l1.057-0.717
			c0.285-0.194,0.648-0.226,0.963-0.088l1.122,0.493c0.159,0.07,0.297,0.18,0.401,0.32c0.052,0.07,0.092,0.144,0.14,0.215h143.158
			L224.219,149.129z"/>
		<path fill="#FFFFFF" d="M6.293,153.008c-0.264,0.336-0.516,0.664-0.759,0.992h54.431c0.14-0.211,0.279-0.433,0.414-0.671
			c0.071-0.125,0.168-0.234,0.285-0.318c1.075-0.777,3.342-0.975,3.89-0.985c0,0,0.001,0,0.002,0c0.362,0,0.652,0.095,0.884,0.172
			c0.085,0.028,0.168,0.062,0.248,0.073c0.197,0.005,0.472,0.01,0.786,0.01c1.661,0,2.688-0.135,3.186-0.279H7.068
			C6.812,152.345,6.551,152.68,6.293,153.008z"/>
		<path fill="#FFFFFF" d="M221.261,154c0.147-0.27,0.159-0.584,0.164-1.072c0.003-0.285,0.009-0.6,0.059-0.928H80.715
			c0.018,0.047,0.037,0.095,0.054,0.142c0.13,0.347,0.259,0.694,0.413,1.03L81.688,154h22.155c0.188-0.199,0.446-0.32,0.723-0.32
			h1.122c0.195,0,0.386,0.057,0.548,0.164l0.238,0.156h1.332l0.408-0.399c0.173-0.169,0.401-0.27,0.643-0.284l1.129-0.064
			c0.325-0.016,0.629,0.118,0.832,0.367c0.1,0.123,0.185,0.25,0.262,0.38H221.261z"/>
		<path fill="#FFFFFF" d="M55.971,157.445l0.564-0.982c0.136-0.237,0.362-0.396,0.617-0.463H4.416
			c-0.136,0.305-0.283,0.612-0.484,0.916c-0.103,0.157-0.229,0.311-0.356,0.463c-0.115,0.137-0.223,0.266-0.265,0.359
			c-0.035,0.079-0.065,0.171-0.096,0.262h52.631C55.835,157.809,55.873,157.617,55.971,157.445z"/>
		<path fill="#FFFFFF" d="M85.019,156.084c0.273,0.079,0.538,0.154,0.77,0.232c0.248,0.083,0.454,0.259,0.573,0.492
			c0.199,0.387,0.551,0.826,0.935,1.192h15.205c0.151-0.176,0.309-0.346,0.47-0.497c0.063-0.279,0.082-0.602,0.101-0.938
			c0.01-0.179,0.021-0.369,0.04-0.564H84.729C84.827,156.028,84.924,156.057,85.019,156.084z"/>
		<path fill="#FFFFFF" d="M222.493,157.356c-0.313-0.437-0.588-0.896-0.82-1.356H111.657c0.019,0.174,0.035,0.345,0.049,0.507
			c0.025,0.289,0.048,0.572,0.094,0.836c0.021,0.126,0.069,0.245,0.112,0.366c0.035,0.097,0.054,0.194,0.084,0.292h111.502
			c-0.272-0.1-0.542-0.23-0.808-0.438C222.616,157.503,222.549,157.434,222.493,157.356z"/>
		<path fill="#FFFFFF" d="M112.809,160.014c0.213,0.022,0.414,0.112,0.572,0.257l1.077,0.987c0.179,0.164,0.292,0.387,0.319,0.629
			c0.004,0.039-0.003,0.075,0,0.113h111.74c0.076-0.358,0.123-0.703,0.095-1.024c-0.025-0.28,0.069-0.559,0.26-0.766
			c0.053-0.058,0.105-0.132,0.157-0.21H112.677L112.809,160.014z"/>
		<path fill="#FFFFFF" d="M87.859,160.267c0.25,0.521,0.399,1.149,0.427,1.733h10.6l0.579-0.781
			c0.295-0.397,0.837-0.521,1.275-0.287l0.291,0.155c0.038-0.048,0.073-0.093,0.102-0.131c0.014-0.081,0.027-0.18,0.042-0.279
			c0.047-0.314,0.082-0.508,0.136-0.677H87.972L87.859,160.267z"/>
		<path fill="#FFFFFF" d="M57.995,161.409c-0.069-0.27-0.138-0.537-0.201-0.797c-0.222-0.181-0.438-0.392-0.65-0.612H2.764
			c-0.013,0.067-0.025,0.134-0.04,0.201c0.867,0.749,2.533,1.376,3.763,1.376c0.212,0,0.4-0.019,0.557-0.056
			c0.222-0.054,0.457-0.028,0.663,0.07c0.264,0.126,0.511,0.264,0.75,0.409h49.685C58.093,161.802,58.046,161.605,57.995,161.409z"
			/>
		<path fill="#FFFFFF" d="M114.191,164.621c-0.236,0.586-0.391,1.017-0.435,1.379h110.028c0.904-0.544,1.651-1.023,2.128-2H114.434
			C114.355,164.213,114.272,164.421,114.191,164.621z"/>
		<path fill="#FFFFFF" d="M11.463,165.602L11.624,166h44.704c0.137-0.091,0.288-0.18,0.415-0.273
			c0.064-0.073,0.165-0.199,0.289-0.351c0.425-0.522,0.835-1.014,1.194-1.376H10.6C10.934,164.48,11.223,165.008,11.463,165.602z"/>
		<path fill="#FFFFFF" d="M98.641,164h-9.219l0.821,0.327c0.419,0.167,0.675,0.595,0.624,1.043c-0.022,0.191-0.022,0.409-0.008,0.63
			h0.195c0.568-0.134,1.148-0.169,1.604-0.063c0.057,0.013,0.106,0.041,0.159,0.063h6.493c-0.121-0.211-0.241-0.439-0.341-0.716
			C98.817,164.889,98.723,164.433,98.641,164z"/>
		<path fill="#FFFFFF" d="M113.909,168.418c-0.702,0.585-1.45,0.774-2.051,0.926c-0.317,0.081-0.593,0.15-0.837,0.264l0.026,0.181
			l0.193,0.211h108.8c0.246-0.315,0.487-0.631,0.696-0.944c0.035-0.063,0.083-0.187,0.133-0.309
			c0.141-0.337,0.235-0.554,0.381-0.736c0.003-0.004,0.007-0.007,0.011-0.012H114.189
			C114.13,168.156,114.046,168.304,113.909,168.418z"/>
		<path fill="#FFFFFF" d="M12.081,168c-0.085,0.601-0.308,1.32-0.565,2h42.701c-0.201-0.262-0.439-0.503-0.65-0.627
			c-0.304-0.179-0.491-0.504-0.493-0.856c-0.001-0.186,0.052-0.362,0.144-0.517H12.081z"/>
		<path fill="#FFFFFF" d="M11.586,172.632c0.391,0.379,0.82,0.807,1.155,1.368h40.4c0.499-0.554,0.937-1.271,1.214-2h-43.36
			C11.166,172.209,11.36,172.415,11.586,172.632z"/>
		<path fill="#FFFFFF" d="M116.284,172.119c0.155,0.571,0.467,1.3,0.806,1.881h101.265l0.351-0.386l0.147-1.614H116.226
			C116.243,172.041,116.271,172.074,116.284,172.119z"/>
		<path fill="#FFFFFF" d="M216.869,176h-23.167c0.768,0.584,1.627,0.729,2.344,0.269c0.214-0.137,0.472-0.189,0.723-0.141
			c1.209,0.225,1.754,0.807,2.191,1.275c0.171,0.183,0.333,0.356,0.538,0.513c0.038,0.029,0.086,0.056,0.127,0.084h17.371
			C216.818,177.413,216.747,176.754,216.869,176z"/>
		<path fill="#FFFFFF" d="M15.413,176.041c0.178,0.089,0.325,0.23,0.423,0.405c0.122,0.219,0.266,0.45,0.412,0.686
			c0.176,0.284,0.351,0.575,0.514,0.869h26.164c0.05-0.04,0.095-0.088,0.148-0.123c0.25-0.167,0.562-0.21,0.848-0.122
			c0.25,0.078,0.509,0.159,0.77,0.245h3.928l0.641-1.624c0.058-0.146,0.153-0.272,0.27-0.376H15.333L15.413,176.041z"/>
		<path fill="#FFFFFF" d="M118.002,176.399c-0.065,0.368-0.145,0.817-0.148,1.119c0.032,0.087,0.082,0.205,0.13,0.324
			c0.024,0.059,0.043,0.107,0.064,0.159h64.776c0.417-0.45,0.844-0.888,1.237-1.291c0.231-0.237,0.446-0.458,0.635-0.656
			c0.021-0.022,0.049-0.033,0.071-0.053h-66.699C118.047,176.131,118.028,176.256,118.002,176.399z"/>
		<path fill="#FFFFFF" d="M118.566,180.776c0.131,0.377,0.025,0.796-0.269,1.066L118.125,182h19.042
			c0.244-0.201,0.568-0.278,0.875-0.201L138.85,182h41.329c0.087-0.152,0.165-0.291,0.226-0.399
			c0.062-0.113,0.104-0.249,0.152-0.384c0.078-0.223,0.167-0.475,0.308-0.727c0.09-0.159,0.194-0.324,0.308-0.49h-62.758
			C118.441,180.266,118.478,180.521,118.566,180.776z"/>
		<path fill="#FFFFFF" d="M217.937,180h-15.523c0.187,0.199,0.369,0.402,0.545,0.603c0.254,0.288,0.506,0.576,0.769,0.829
			c0.192,0.184,0.393,0.375,0.596,0.568h14.225c0.036-0.375-0.01-0.771-0.158-1.119C218.263,180.58,218.1,180.293,217.937,180z"/>
		<path fill="#FFFFFF" d="M17.229,181.446L17.207,182h13.476l0.048-0.059c0.229-0.276,0.592-0.409,0.943-0.346l0.212,0.035
			c1.021,0.167,1.021,0.167,1.178,0.244c0.06,0.029,0.116,0.064,0.168,0.105L33.26,182h7.45c0.198-0.133,0.388-0.272,0.566-0.448
			c0.051-0.429,0.171-0.988,0.367-1.552H17.264C17.275,180.72,17.23,181.434,17.229,181.446z"/>
		<path fill="#FFFFFF" d="M206.787,184.198c0.389,0.314,0.807,0.412,1.336,0.536c0.738,0.172,1.637,0.387,2.445,1.266h4.149
			c0.121-0.08,0.238-0.157,0.348-0.23l0.1-0.066c0.237-0.675,0.733-1.246,1.32-1.704h-9.934
			C206.63,184.065,206.709,184.135,206.787,184.198z"/>
		<path fill="#FFFFFF" d="M26.481,184h-9.298c0.107,0.526,0.354,1.443,0.552,2h8.947C26.456,185.276,26.335,184.556,26.481,184z"/>
		<path fill="#FFFFFF" d="M139.629,184.098l-0.032,0.226c-0.091,0.593,0.469,1.18,1.266,1.677h2.645
			c0.07-0.23,0.092-0.485,0.118-0.794c0.031-0.367,0.068-0.781,0.205-1.206h-4.188C139.638,184.034,139.633,184.07,139.629,184.098z
			"/>
		<path fill="#FFFFFF" d="M114.445,184.38c-0.165,0.28-0.323,0.549-0.45,0.818l0.2,0.27c0.668,0.054,1.35,0.243,1.985,0.532h14.445
			c0.27-0.143,0.541-0.281,0.807-0.413c0.544-0.27,1.058-0.525,1.508-0.826c0.3-0.198,0.595-0.472,0.904-0.761h-19.183
			C114.588,184.128,114.516,184.259,114.445,184.38z"/>
		<path fill="#FFFFFF" d="M151.356,186h15.021l1.982-0.551c0.664-0.185,1.216-0.327,1.769-0.327c0.713,0,1.3,0.224,2.134,0.636
			l0.485,0.241h4.717c0.085-0.578,0.267-1.151,0.564-1.523c0.159-0.195,0.336-0.343,0.513-0.477h-29.346
			C149.818,184.655,150.544,185.323,151.356,186z"/>
		<path fill="#FFFFFF" d="M37.784,184.8c0.292-0.245,0.473-0.5,0.681-0.8h-2.419C36.688,184.377,37.327,184.69,37.784,184.8z"/>
		<path fill="#FFFFFF" d="M160.39,188.029c0.333,0.238,0.637,0.581,0.905,0.883c0.003,0.003,0.006,0.007,0.009,0.01
			c0.637-0.015,1.661-0.143,2.69-0.396c0.09-0.139,0.184-0.303,0.271-0.457c0.013-0.022,0.028-0.047,0.041-0.069h-3.963
			C160.358,188.01,160.376,188.02,160.39,188.029z"/>
		<path fill="#FFFFFF" d="M122.709,188.504c1.087,0.628,1.998,1.167,2.974,1.054l0.471-0.335c0.556-0.398,1.117-0.8,1.686-1.16
			c0.024-0.015,0.08-0.042,0.121-0.063h-6.158C122.116,188.167,122.421,188.338,122.709,188.504z"/>
	</g>
</g>
</svg>
