<?xml version="1.0" encoding="utf-8"?>
<!-- Generator: Adobe Illustrator 16.0.0, SVG Export Plug-In . SVG Version: 6.00 Build 0)  -->
<!DOCTYPE svg PUBLIC "-//W3C//DTD SVG 1.1//EN" "http://www.w3.org/Graphics/SVG/1.1/DTD/svg11.dtd">
<svg version="1.1" xmlns="http://www.w3.org/2000/svg" xmlns:xlink="http://www.w3.org/1999/xlink" x="0px" y="0px" width="327px"
	 height="361px" viewBox="0 0 327 361" enable-background="new 0 0 327 361" xml:space="preserve">
<style type="text/css">
	.st0{fill:#00808E;stroke:#00808E;stroke-width:3;stroke-linecap:round;stroke-linejoin:round;stroke-miterlimit:10;}
	.st1{fill:#00A6AF;stroke:#00FFFF;stroke-width:2;stroke-linecap:round;stroke-linejoin:round;stroke-miterlimit:10;}
	.st2{opacity:0.35;}
	.st3{fill:#FFFFFF;}
</style>
<g id="Layer_1">
	<path class="st0" d="M323.57,252.9c-0.26-0.84-0.25-1.74-0.64-2.53c-0.46-0.94-1.16-1.89-1.76-2.75l-1.27-0.45l-1.12,0.31
		c-0.75,1.06-1.19,4.27-2.18,4.79c-0.53,0.28-1.14,0.39-1.67,0.69c-2.12,1.25-3.29,3.61-4.93,5.37c-1.04,1.11-2.14,2.16-3.14,3.31
		c-1.3,1.51-2.16,2.91-3.99,3.9c-1.39,0.75-5.33-0.02-6.8-0.57c-1.15-0.44-4.96-3.19-5.69-4.15c-0.67-0.89-1.33-3.15-1.33-4.27
		c0-0.58,0.52-3.76,0.74-4.21c1.19-2.39,6.82-2.86,7.28-7.02c0.35-3.06-1.96-3.63-3.45-5.48c-3.01-3.72-0.64-9.22-2.23-12.45
		c-0.95-1.89-4.03-2.9-4.21-5.1c-0.13-1.66,1.93-3.77,2.07-6.19c0.25-4.04-0.68-10.23-0.9-14.42c-0.06-1.08,0.12-2.17,0-3.26
		c-0.08-0.81-0.27-1.6-0.21-2.42c0.52-8.15,9.62-12.54,10.37-20.04c0.46-4.59-0.71-9.19,0-13.78c0.42-2.65,2.77-5.12,2.07-7.98
		c-0.34-1.39-1.04-2.76-1.38-4.21c-0.35-1.47-0.31-2.97-1.06-4.33c-0.88-1.62-2.14-2.9-2.55-4.79c-0.21-0.94-0.51-1.99-0.67-2.93
		c-0.16-0.98,0.23-2,0.14-3c-0.22-2.58-1.21-6.09,0.37-8.49c0.74-1.12,1.39-1.86,1.97-3.13c0.54-1.18,0.85-2.52,1.75-3.51
		c0.87-0.95,4.17-2.8,4.42-3.32c0.91-1.98,1.34-8.16,1.11-10.34c-0.17-1.67-0.57-3.09-0.42-4.79c0.15-1.82,1-3.58,0.74-5.42
		c-0.44-3.16-2.72-6.12-3.82-9.06c-1.04-2.79-2.04-5.59-2.98-8.42c-0.34-1.04-0.95-2-1.17-3.07c-0.17-0.82-0.31-1.37-0.59-2.17
		c-0.8-2.36-0.57-4.67-0.74-7.08c-0.16-2.33-1.13-4.47-1.33-6.7c-0.34-3.81,0.38-7.58,0.15-11.37c-0.14-2.38-0.84-5-0.37-7.33
		c0.72-3.61,3.35-4.64,3.34-6.7c0-1.53-2.13-3.74-3.12-4.85c-0.4-0.45-0.65-1.04-1.08-1.47c-1.48-1.5-3.71-2.85-4.46-4.98
		c-0.53-1.5-0.24-2.46-1.12-4.27c-0.76-1.56-2.06-2.77-3.07-4.16c-1.33,0.81-3.47,2.09-4.8,2.82c-0.71,0.38-1.54,0.6-2.26,0.97
		c-2.32,1.17-4.42,2.67-6.64,3.99c-0.32,0.18-0.75,0.27-1.06,0.48c-1.13,0.74-1.4,1.75-1.77,2.05c-0.67,0.55-1.65,0.87-2.36,1.39
		c-0.92,0.68-2.48,1.98-2.93,3.09c-0.52,1.31-0.81,2.95-0.86,4.35c-0.01,0.35,0.15,0.74,0.15,1.09c0,0.71-0.21,1.58-0.3,2.29
		l-0.86,0.97c-0.64,0.14-1.57,0.45-2.21,0.48c-1.01,0.04-3.89-0.15-4.89-0.61c-0.58-0.72-1.21-1.65-1.87-2.29
		c-0.12-0.12-0.97-0.48-1.1-0.61c-0.66-0.62-1.17-1.61-1.87-2.17c-0.54-0.44-1.5-0.65-2.11-1.03c-0.74-0.47-1.37-1.17-2.11-1.63
		c-0.36-0.22-0.89-0.27-1.26-0.48c-0.91-0.49-1.14-1.26-1.76-1.75c-1.05-0.82-2.69-0.21-4.58-1.87c-1.41-0.09-3.52,1.43-4.58,2.17
		c-0.84,1.33-0.88,3.39-2.17,4.35l-1.06,0.31c-1.53-0.46-3.09-1.01-4.63-1.4c-2.58-0.64-5.31-0.85-7.8-1.81
		c-0.81,0.2-1.7,0.48-2.52,0.61c-0.85,0.12-1.36-0.19-2.31,0.3c-1.6-0.15-2.35-2.69-4.03-3.2c-1,0.12-2.2,0.3-3.12,0.73
		c-0.97,0.82-0.86,2.23-1.41,3.32c-0.61,1.2-1.49,2.49-2.36,3.51l0.28,3.08h-1.19l-0.79-1.27l-1.42-0.62l-0.45,1.97
		c-0.64,0.21-1.53-0.57-2.08-0.78c-0.84-0.31-2-0.22-2.81-0.68l-1.37-1.28c-0.62-1.12-1.12-2.86-1.6-4.08
		c-0.07-0.04-0.78-0.41-0.81-0.41c-1.1-0.07-2.37,0.09-3.48,0.14l-1.4-1.99c-1.4-0.1-2.86-0.4-4.21-0.75
		c-0.1,2.43-1.8,3.05-2.63,4.97l-1.26-0.12c-1.13,1.5-0.86,2.51-0.11,4.1l1.07,2.3l-0.96,1.03l-1.25,0.19
		c-1.55-0.55-2.72-2.06-4.29-2.48c-1.51-0.41-3,0.97-4.48,0.42c-1.06-0.81-2.12-1.73-3.22-2.48c-0.31-0.21-0.78-0.29-1.11-0.48
		c-0.34-0.19-0.66-0.56-1.01-0.72c-1.17-0.54-2.46-0.98-3.67-1.46c0,0-0.01,0-0.01-0.01c-2.23,0.16-3.19,1.87-3.72,3.88l-1.27,0.67
		c-0.67-0.82-2-2.03-3.12-2.06c-0.54,0.7-1.3,1.42-2.06,1.87c-0.78,0-1.7-0.09-2.47,0l-1.15,0.42c-0.05,0.04-1.93,2-1.96,2.06
		l-0.25,0.97c0,0.05,0.52,1.94,0.56,2.12c-0.54,1.33-1.86,2.03-2.72,3.08c-0.24,0.29-0.38,1.46-1.36,2.06
		c-1.72,1.06-3.78,0.89-5.53,1.69c-1.29,1.4-1.04,3.22-2.97,4.24c-0.27,0.13-1.46,0.25-2.12,0.6c-0.38,0.71-1.31,1.46-2.02,1.82
		c-0.17,0.08-0.92,0.21-1.06,0.3l-1.1,0.97c-0.58,1.03-0.79,2.36-1.36,3.38c-0.31,0.54-1.7,1.34-2.32,1.45l-0.81,1.03
		c0.17,1.02-0.64,4.39-1.2,5.26l-1.16,0.72l-0.96,3.2l0.65,0.97l2.37,0.78c0.85,0.51,1.41,2.36,1.46,3.26
		c0.02,0.35-0.41,3.09-0.66,3.44c-0.47,0.65-1.29,1.34-1.86,1.93c-0.28,2.07-1.68,5.16-4.23,4.9c-1.4-0.15-3.36-0.85-4.73-0.54
		c-0.72,0.78-2.26,2.27-3.33,2.59c-1.14-0.24-2.33-0.56-3.47-0.72c-1.29-0.18-2.45,0.8-3.27,1.69l-1.11-0.78
		c-0.37-0.74-0.32-1.44-0.55-2.17c-0.25-0.78-0.71-1.39-0.85-2.24c-0.88-1.04-2.58-1.85-3.12-2.48c-0.04-0.05-2.26-3.45-2.32-3.56
		c-0.02-0.03-0.09-0.99-0.1-1.09c-0.65-0.28-1.5-0.48-2.22-0.48c-0.41-0.67-1.43-1.49-2.16-1.75c-0.2-0.08-0.92-0.05-1.1-0.12
		c-0.66-0.25-1.39-0.74-2.02-1.09l-1.96,2.24l0.55,2.29l-1.16,0.55l-2.26-0.37l-0.9,1.15c0.17,0.7,0.47,1.53,0.55,2.23
		c0.02,0.16-0.18,0.95-0.15,1.09c0.11,0.72,0.45,1.59,0.66,2.29l-1.17,0.85C75.18,87.6,74,87.23,72.85,87
		c-1.07-0.21-2.42-0.01-3.32-0.79c-2.23,0.79-5.04-2.77-6.75-2.23l-0.65,1.21c-1.16,0.84-2.36,0.38-3.37,1.63l-0.71,2.12
		c-0.67,0.48-1.6,0.94-2.42,1.08l-0.56,1.09l-1.15,0.18l-0.71-2.23c-0.94-0.93-2.18-1.58-3.47-1.81c-0.1,0.11-0.93,1.03-0.96,1.09
		c-0.05,0.08-0.21,0.93-0.25,1.09c-0.11,0.33-0.4,0.74-0.46,1.08c-0.11,0.6,0.08,1.54-0.1,2.36c-0.66,0.52-1.35,1.23-1.81,1.93
		c0.02,3.97-2.08,4.5-2.32,6.71c0.17,0.97,1.75,2.44,2.52,3.02c0.33,0.25,0.78,0.41,1.1,0.67c1.17,0.95,3.98,3.02,3.98,4.77
		l-1.2,0.78c-1.09-0.28-1.66,0.16-2.47,0.12c-1.08-0.05-1.51-0.8-2.31-1.27c-0.33-0.19-0.81-0.25-1.16-0.42
		c-1.18-0.57-2.29-1.65-3.18-2.59l-1.06-0.06c-0.66,0.46-1.4,1.3-1.7,2.05l-3.53,0.49c-0.86-0.84-0.97-1.57-1.41-2.12
		c-0.48-0.6-1.55-1.3-2.31-1.45l-1.16,0.67c-0.83,1.04-0.67,2.42-1.57,3.38l0.25,2.23c-0.63,0.18-1.67,0.11-2.27-0.19
		c-0.48,0.45-0.99,1.5-0.91,2.18l-1.15,0.97c-1.42,0.2-3.33-0.09-4.63-0.67c-2.03,0.34-2.47,2.01-3.62,3.38l0.79,0.45
		c0.62,0.08,1.68-0.6,2.09-1c0.94,0.03,2.94,0.45,3.62,1.19l0.77,1.64c0.74-0.02,2.16,0.28,2.72,0.84l-0.25,2.16l1.01,0.81
		l0.36,0.99c-0.73,0.8-0.61,1.95-0.64,2.94c0,0.05-0.46,0.72-0.43,1.17c0.05,0.72,0,1.45-0.04,2.16c-0.59,0.07-1.45,0.63-1.73,1.16
		l-0.14,1.68l-0.44,0.47l-1.01-0.61l0.23-1.37c-0.35-0.44-1.15-1.79-0.98-2.42l-1.01-0.96c-0.83,0.06-1.83,0.03-2.64-0.19
		l-0.41-0.85l0.41-1.37l-0.15-0.58l-1.15-1c0.18-0.72-0.06-1.89-0.38-2.54l-0.54,0.18c-0.5,1.51-1.66,2.71-2.13,4.23l-1.25,0.72
		l-1.17-0.12l-0.75,1.08c-0.09,0.85,1.15,2.56,1.66,3.15l-0.45,0.97c-0.66-0.18-1.77,0.17-2.27,0.61c-0.65,0.02-1.69-0.49-2.16-0.91
		c-1.21,0.15-1.58,0.91-2.41,1.21c-1.14,0.41-2.43,0.19-3.43,1.09c-0.02,0.1-0.25,1.04-0.25,1.08c0.01,0.05,0.59,2.09,0.61,2.12
		c0.38,0.72,2.52,1.9,3.22,2.17l0.66,1.09c0.68,0.07,1.61-0.16,2.21-0.48c1.34,1.22,3.64-0.1,5.69,1.81
		c2.66,2.48,0.38,4.78,2.67,6.59c0.79,0.33,2.43,0.84,3.32,0.66l0.75,1.03c-0.47,2.26,0.75,2.66,0.91,4.41
		c-1.06,0.35-1.6,1.13-2.42,1.51c-0.99,0.46-2.43,0.72-3.52,0.97c-0.14,1.49,1.23,2.79,1.51,4.23c-1.23,2.39-0.23,3.02-0.66,4.29
		c-0.26,0.78-0.97,1.45-1.01,2.36c-0.01,0.11,0.23,0.9,0.25,1.09c0.04,0.38-0.06,0.83,0,1.2c0.1,0.65,0.64,1.51,1.06,2
		c0.47,1.48-1.29,3.39-2.22,4.29l-1.1,0.18l0.4,2.23l2.16,0.91c0.08,0.71,0.63,1.71,1.16,2.18c-0.25,1.7,0.45,3,1.41,4.4l-0.04,1.11
		c-0.51,0.99-2.03,2.07-3.17,2.06l-1.71,2.18l-2.16,0.79c-0.37,0.5-0.57,1.53-0.4,2.13c-0.64,0.38-1.4,1.46-1.4,2.24
		c0.78,0.9,0.47,2.27,0.67,3.34c0.02,0.12,0.4,0.79,0.45,0.97c0.11,0.37,0.1,0.79,0.21,1.16c0.22,0.73,0.52,1.47,0.77,2.18
		c1.03-0.04,2.25-0.2,3.27-0.11c0.77,0.06,1.23,0.78,2.26,0.36c0.61-0.73,1.01-2.32,1.1-3.22c0.62-0.31,1.5-1.22,1.6-1.94l1.25-0.48
		c0.41,0.84,0.58,2.42,0.62,3.33l1.01,1.04c0.99,0.01,2.59,0.35,3.32,1.09c0.28,0.28,0.42,0.81,0.71,1.09
		c0.35,0.34,1.73,0.95,2.22,1.08l-0.05,1.16c1.22,0.9,2.77,1.98,4.37,1.62c1.27-0.86,1.25-2.11,2.26-3.1c0.89-0.24,1.73,0,2.36-0.12
		c0.31-0.06,2.12-0.73,2.26-0.74c0.11,0,2.97,0.54,3.26,0.6l0.71,1.03l2.11,0.72l0.81,1.2c-0.83,0.57-2.53,1.95-2.96,2.93
		l-0.05,1.09c0.64,0.87,1.07,2.11,1.01,3.21c0.44,0.5,1.5,1.22,2.2,1.2c-0.2,0.74,0.52,2.47,0.86,3.09
		c-0.94,0.85-2.19,1.3-3.45,1.23c-0.45-0.98-2.06-2.09-2.96-2.59c-2.83-1.54-4.81,2.07-6.91,1.91l-0.94,1.1
		c-0.01,0.11-0.06,1.06-0.05,1.09c0.22,0.76,0.76,1.56,1.06,2.3c0.66,1.61,1.22,4.07,2.32,5.4c-0.08,0.17-1.08,2.08-1.09,2.12
		c-0.17,0.85-0.07,2.49-0.09,3.41c-0.61,0.85-2.48,1.56-3.45,1.71l-0.44,1.16c0.19,0.67,0.27,1.55,0.16,2.24
		c-3.57,4.33-0.01,6.04-1.69,8.62c-1.16,0.43-1.14,1.15-1.8,1.76c-0.28,0.27-0.83,0.44-1.16,0.67c-0.36,0.26-0.68,0.68-1.05,0.91
		c-0.28,0.18-0.79,0.3-1.11,0.42l-1.21-0.67c-2.34-0.5-2.99,2.74-4.83,3.45c-0.77,0.31-1.51,0.22-2.26,0.73
		c0.01,0.75-0.72,1.9-1.23,2.39l-0.01,0.01l-0.38,0.71l-0.18,1.07l0.38,1.07l1.02,1.05l0.24,0.35l0.35,0.55l0.25,1.14l0.71,1.15
		l0.05,1.09l-0.3,1.09l1.1,0.55l0.25,1.08l0.71,1.03l0.05,1.09l0.25,1.21l1,0.73l0.2,0.96l-0.45,1.09l-0.85,0.97l-2.32,1.21
		l-1.11,0.36l-0.2,2.29l0.66,1.33h0.01c0.54,0.91,0.15,2.24-0.25,3.14c0,0.69,0.33,1.26,0.72,1.79c0.81,1.1,2.46,1.07,3.65,0.68
		c0.35-0.11,0.71-0.41,1.06-0.49c0.07-0.02,0.98,0,1.1,0c0.12,0.75,0.72,1.74,1.27,2.24c-0.13,1.1,0.16,2.39,0.95,3.2l-0.25,1.09
		l-1.06,1.09l1.01,0.3c0.91-0.43,1.64-0.22,2.26-0.42c0.68-0.22,1.18-0.84,2.16-1.03c0.64,0.61,2.2,1.84,3.12,2l1.16-0.85l1.21,0.12
		l2.01,4.23c0.74,0.18,1.69,0.86,2.22,1.39c0.69-0.07,1.54-0.08,2.21-0.24c0.38-0.09,0.78-0.44,1.16-0.54
		c1.05-0.28,2.67,0.22,3.42,0.97c0.55-0.39,1.53-0.78,2.22-0.78c0.48-0.55,1.51-1.25,2.26-1.33c1.06,0.16,2.54,1.01,3.42,1.56
		l1.11-0.05c0.64,0.42,1.43,1.08,2.11,1.39c0.64,0.28,1.34-0.1,2.41,0.78c0.67,0.98,0.33,2.41,0.41,3.51
		c0.05,0.59,0.35,1.29,0.58,1.81l0.64,1.45c0.85,1.35,2.83,1.96,4.32,1.45c1.96,1.72,1.12,2.5,1.82,4.47
		c1.24,1.09,3.05,1.26,4.17,2.48c0.42,0.46,1.65,2.66,1.82,3.15c0.05,0.14,0,0.23,0,0.38c0,0.85-0.05,0.58,0.2,1.53l0.4,1.54
		c0,0.64-0.47,1.35-0.25,2.06c0.34,1.14,1.74,4.67,1.21,5.73L73.3,334l-1.61,1.94c-0.51,0.31-1.56,0.44-2.11,0.18l-1.16,0.43
		c-0.39,0.72-1.04,2.54-0.71,3.38c1.6,0.12,2.54-0.96,4.48-0.24l1.96,2.05c0.67-0.05,1.67,0.51,2.11,0.97l3.53,0.3l1.05-0.78
		c0.02-0.68,0.52-1.67,1.01-2.11c1.24-0.07,2.52,1.3,3.08,2.29l0.76-0.14l1.51-0.28c0.57-0.21,1.34-1.03,2.16-1.33
		c1.15,0.31,2.6-0.04,3.52-0.79c1.06-0.24,3.41,1.68,4.38,2.17c1.31,0.68,3.2-0.57,4.48,0.43c0.69,0.82,1.69,2.09,2.01,3.14
		c0.21,0.7,0.28,1.57,0.55,2.23c0.49,1.2,1.89,1.96,3.08,2.3l2.49-1.32c0.41-0.56,1.27-1.87,1.04-2.26
		c-0.29-0.51,1.17-1.84,1.32-2.86c0.14-1.03-0.58-2.05-1.8-3.05c-1.23-0.99-2.16-1.18-4.53-4.01c-2.38-2.82-2.74-6.09-2.26-7.51
		c0.48-1.42,1.58-0.91,3-0.14c1.42,0.76,9.74,1.94,9.74,1.94s1.11-0.38,1.83-1.54c0.72-1.18-0.13-3.65-0.11-5.12
		c0.02-1.47-2.52-2.04-5.73-3.45c-3.21-1.41-2.49-5.31-1.08-6.51c1.41-1.2,1.95-4.65,2.9-6.05c0.95-1.39,2.56-1.96,3.45-1.96
		c0.88,0,5.4,0.14,7.57-0.01c2.17-0.15,1.65-3.31,1.65-3.31l-5.11-4.41c0,0-3.97-0.45-5.14-0.59c-1.17-0.15-2.79,0-5.4-1.32
		c-2.62-1.32-0.88-3.8-0.52-5.17c0.37-1.36,1.84-2.32,1.84-2.32l4.56-9.17l5.43-2.86l4.16,1.85c0,0-1.17,3.5-2.03,4.96
		c-0.86,1.47,0.42,3.36,1.5,3.29c1.07-0.07,2.8-0.15,2.8-0.15l2.16,1.8l6.73-18.97l2.14,2.79l1.64-2.13l1.82-1.15l2.69,0.34
		l3.08-1.77l5.85-5.11l1.13-0.04v-0.2l-1.87-0.88l-0.82-0.67l-0.08-1.37v-0.76l0.21-0.72l0.4-0.55l0.23-0.73l0.3-0.41l-0.14-0.4
		l0.3-1.04l-0.14-1.54l0.38-0.11l0.32-1.55l-0.87-0.49l0.12-0.53l0.5-0.78l-0.06-0.33l-0.72-0.7l-0.41-0.04l-0.32,0.55l-0.82,0.21
		l-0.49-0.18l-1.36,0.46l-1.65,0.19l-0.19,0.22v1.11l0.11,0.46l-0.59,0.89l-1.35-0.21l-0.64-0.93l-0.54,0.42l-0.63,0.73l-0.49,0.25
		l-0.74,0.84l-0.14-0.48l0.03-0.61l-0.29-0.71l-0.63-0.98l0.4-0.76l-0.03-0.55l0.37-0.65l-0.15-0.48l0.32-1.53l-0.34-1.51
		l-0.84-0.66l0.22-0.49l0.23-0.69l0.02-1.12l-0.47-0.32l0.13-0.65l0.06-0.53l-0.69-0.71l-0.28,0.07l-0.71-0.55l-0.32-0.73v-0.57
		l-0.72-0.61l0.09-0.47l0.43-0.71l0.21-0.57l-0.4-0.2h-0.33l-0.1-0.58l0.26-0.58l-0.1-0.47l0.13-0.52l-0.63-0.73l-0.74-0.16
		l-0.41-1.48l0.77-1.04l0.59,0.38l0.65-0.08l0.39-0.55l0.02-1.19l0.48-0.96l-0.21-0.26h-1.13l-0.38-0.6l-0.32-0.27l-0.19-0.4
		l-0.31-0.19l-0.17-0.58l-0.53-0.72l-0.14-0.54l-1.34-0.78h-0.49l-0.34-0.55l-0.56-0.19l-1.01,0.25l-0.36,0.81l-0.17,0.84
		l-0.41,0.36l-0.73,1.18l-0.84,0.05l-0.07-1.05l-0.21-0.43l-0.2-0.54l-0.13-0.38l-0.57-0.02l-0.44-0.99l0.08-1.6l-0.35-0.7
		l-0.22-0.41l-0.56-0.39l0.29-1.13l-0.97-0.91l-0.49,0.19l-0.25-0.26l0.29-0.36l0.86-1.04l-0.32-0.53l-1.03-0.16l-0.59,0.68
		l-0.17,0.32l-0.82,0.34l-0.48-0.29l-0.93,0.9h-0.63l-0.74,0.4l-0.2,0.34l-0.51,0.39h-0.93l-0.48,0.63l-0.63-0.96v-0.84l-0.55-0.77
		l-0.21-0.91l-0.74-0.49l-1.04,0.08l-0.06-0.85l0.1-0.35l-1.13-0.94l0.17-1.11l0.32-0.25l-0.24-0.63l-0.51-0.45l0.36-0.23l0.55-0.75
		l-0.06-0.89l0.14-0.76l0.72-0.9l-0.31-0.78l-0.8-0.57l-0.71-0.5h-0.37l-0.29-0.6l-0.25-0.32l0.49-1.01l-0.12-0.59l0.66-1.06
		l0.74,0.06l0.75-0.06l0.74-0.51l0.34-0.69l0.54-0.26l0.39,0.29l0.23-0.21l0.09-1.77l-0.13-0.18l0.61-0.4l0.97-1.58l0.55-0.34
		l0.07-0.47h0.8l0.07,0.46l2.25,0.7l0.84,0.86l-0.03,1.13l0.83,0.26l0.49,0.26l0.51,0.42l0.49-0.09l0.39,0.08l0.38,0.52l0.03,0.18
		l0.47,0.02l0.58,0.24l0.74-0.15l0.96,0.11l0.34-0.1l0.31,0.64l0.54-0.12l0.48-0.24l0.44,0.21l0.42,0.25l0.66,0.01l0.31,0.45
		l0.41,0.86l0.57-0.13l0.48-0.24l0.53,0.21l0.37,0.01l0.5,0.17l0.53,0.63l0.51,0.72l0.33,1.13l0.03,0.64l0.3,0.57l0.02,0.4
		l0.73,0.06l0.62-0.29l0.62-0.05l0.63,0.31l0.82-0.2l0.57-0.95l0.55-0.1l2.65,0.52l0.33,0.04l0.31,0.85l0.13,0.43l0.78,0.21
		l0.77-0.25l0.72,0.04l0.64,0.36c0,0,0.44,0.35,0.46,0.36c0.02,0.01,0.53-0.11,0.53-0.11l0.34,0.14l0.57,0.21l0.7,0.51l0.26,0.39
		l0.77,0.06l0.55,0.5l0.46,0.36l0.06,0.36l-0.02,0.66l-0.35,0.36l0.13,0.75l0.29,0.46l-0.31,0.63l0.01,0.36l-0.94,0.51l0.21,0.65
		l0.32,0.67l-0.39,0.34l0.18,0.32l0.29,0.02l0.05,0.42l-0.72,0.42l0.06,0.18l0.44,0.24l-0.19,1.01l-0.4,0.47l0.23,0.53l0.37,0.87
		l0.03,0.32l0.56,0.18l0.54-0.71l0.4-0.76l0.61-0.51l0.29-0.21l0.39,0.1l0.3-0.06l0.44-0.3v-0.24l0.7-0.25l0.46,0.32l0.57,0.62
		l0.38,0.8l0.06,0.55l0.67,0.52l0.17-0.36l0.35-0.82l0.97-0.31l0.85-0.02l0.64,0.48l0.44,0.02l0.52-0.36l0.87,1.03l-0.27,0.74
		l-0.28,0.73l0.25,0.32l1.27,0.29l0.19,0.25l1.67-0.4l0.49,0.02l0.1,0.4l0.97-0.27l0.56-0.25c0,0,0.74,0.17,0.81,0.19
		s0.79-0.23,0.79-0.23l0.82,0.37l0.53,0.55l0.28,0.25l0.56-0.23l0.4-0.44v-0.42l0.27-0.6h0.85c0,0,0.42,0.55,0.43,0.57
		c0.01,0.02,0.68,0.23,0.68,0.23s0.33,0.56,0.42,0.67c0.09,0.11,0.71,0.52,0.71,0.52l0.67-0.55l1.13,0.27l2.34,0.72l0.57-0.18
		l0.35-0.97l0.8-1.5l-0.44-0.68l0.67-0.25l-0.23-0.7l1.15-0.04l1.32-0.86l0.87-0.63l1.11-0.17l0.47,0.37l0.57,0.48l1.33-0.48
		l1.25,0.46l0.84,0.55l0.98,0.74l1.28,0.32l0.72,0.27l0.59,1.21l1.35-0.02l0.04,1.2c0,0-0.31,0.59-0.31,0.61s0.29,0.46,0.31,0.49
		c0.02,0.03,0.23,0.9,0.23,0.9l1.29,0.57l0.05,1.22l0.72,0.72l-0.12,0.67l0.84,1.33l-0.64,0.82l-0.62,0.95l-0.06,1.02l-0.09,0.81
		l0.08,0.67l-0.35,0.16l-1.03-0.01l-1.22,0.03l-0.82-0.19l-0.82-0.32l-0.61,0.17l-0.83-0.17l-0.85,1.3l-0.61,0.48l0.06,0.86l0.5,1.2
		l-0.44,0.71l0.15,0.63l-0.24,0.81l-0.98,0.4l-0.13,0.5l-0.75,0.14l-0.3-0.04l-0.17,0.66l-0.05,0.6l-0.51,1.19l-0.62-0.1l-0.6,0.25
		l-0.78,0.4l-0.58,0.59l0.05,0.66l-0.67,0.49l-0.5,0.2l-0.37,0.56l-0.97,0.11l-0.66,0.5l-0.3-0.01l-0.7-0.4l-0.99,0.25l-0.22-0.33
		l-0.36-0.63l-1.66-0.95l-1.05-0.18l-0.46-0.38l-0.28-0.44l-0.45,0.01l-1.07,0.89l-0.32,0.81l-0.44,0.42l-0.52-0.41l0.34-0.74
		l-0.02-0.62l-0.23-0.48l0.02-0.59l-1.1-1.16l-0.16,1.1l-0.31,0.76l-0.58,0.32l-0.47-0.01l-0.13,0.32l0.07,0.32l-0.9,0.85
		l-0.55,0.04l-0.39-0.05l-0.36,0.49l0.44,0.73l0.45,0.13c0,0,0.05,0.7,0.09,0.82c0.04,0.13-0.16,0.74-0.16,0.74
		s-0.48,0.92-0.48,0.94c0,0.02-0.33,0.32-0.33,0.32l-1.44-0.46l-0.75,2l-1.05,1.63l-0.24,1.11l0.28,1.4l-0.35,1.19l-0.82,1.28
		l-0.09,0.29l0.57,1.54l-0.28,0.86l-0.34,0.68l3.49,0.36l2.13,5.4l3.13,3.22l-1.96,8.99c0,0,0.64,1.38,2.69,2.85
		c2.05,1.47,1.32,2.93,1.32,3.65c0,0.71,0.58,7.16,0.58,7.16l-5.1,3.45l-1.8-0.23l-2.08,4.68l-2.42,7.45l-3.09,2.77
		c0,0,2.06,3.66,2.06,6.87c0,3.21-1.13,5.27-1.13,5.27l-5,2.34l-2.88,2.45l-2.82,0.34l-2.16-0.42l-0.49-6.7l-3.8,0.72l-2.59-0.64
		l-8.67,4.96l0.52,4.73l-1.43,2.33c0,0,1.24,4.64,1.39,5.23c0.14,0.58,0.86,2.76,0.44,5.26c-0.41,2.49,1.01,3.08,1.93,3.35
		c0.91,0.27,4.64,5.14,5.28,6.18c0.64,1.05,2.14,1.43,3.76,1.43c1.61,0,6.28-0.44,7.21-0.85c0.93-0.4,3.23-1.91,3.23-1.91l6.38,0.51
		l0.95,2.18l1.17,1.2l4.4,0.08l6.55,2.27l4.79,0.29l1.87-4.11l6.04-2.45l1.36,1.21l2.01-0.56l1.45-2.73l2.24-2.71l0.46-3.33l6-0.1
		l1.44-2.33l1.39,0.22l4.47,3.64l2.93,2.77l3.35,1.02l3.42-1.68l3.96-3.87l2.59,0.44l2.06-3.5l4.55,2.04l1.23-1.75l-2.33-2.99
		l0.76-4.46l1.97-3.55l3.02-1.32l4.41-0.71l3.05-3.09l2.16-0.68l1.21,1.92l2.6,0.24l1.82-1.54l4.2,0.07c0,0,3.38,1.94,3.94,2.83
		c0.55,0.88,2.17,1.45,2.17,1.45l2.99,0.61l0.77,1.39l-1.28,5.76c0,0,0.46,1.81,0.74,2.3c0.28,0.48,3.98,1.24,3.98,1.24l1.97,1.02
		l3.25-3.09l1.99,0.23l5.75-3.74l3.08,0.13l7.17,2.79l8.46,2.64l0.24,0.11c0.97-2.55,2.54-4.79,3.63-7.47
		c0.74-1.82,0.92-3.88,1.33-5.8c0.3-1.42,0.82-2.83,0.96-4.27c0.24-2.53,0.37-4.33,0.95-6.83c0.32-1.37,0.26-2.78,0.54-4.15
		c0.24-1.2,0.71-3.01,1.38-4.02c0.65-0.97,1.72-1.71,2.07-2.87c0.27-0.88-0.01-1.8,0.16-2.67c0.32-1.71,1.73-3.07,2.5-4.54
		c1.74-3.31-0.55-4.1-0.85-5.55c-0.19-0.91,0.49-1.63,0.8-2.43c1.54-4.03-1.32-4.49-0.38-7.33c0.63-1.88,2.56-3.13,3.3-5.1
		c0.53-1.42,0.53-3,1.11-4.4c0.37-0.88,0.61-1.78,0.96-2.62c0.61-1.47,2.22-2.34,2.81-3.89c0.29-0.74,0.35-1.56,0.47-2.34
		C325.94,259.4,325.18,257.56,323.57,252.9z"/>
</g>
<g id="Layer_4">
	<polygon class="st0" points="325.46,247.11 325.46,262.33 311.91,262.33 	"/>
	<polygon class="st0" points="297.12,231.87 297.12,245.33 283.66,236.2 	"/>
	<polygon class="st0" points="300.72,142.36 300.72,155.36 290.33,151.79 	"/>
	<polygon class="st0" points="305,82.95 305,97.45 290.41,95.04 	"/>
	<polygon class="st0" points="297.51,21.06 297.51,34.06 284.74,29.54 	"/>
	<polygon class="st0" points="114.8,60.03 114.8,79.87 129.91,71.87 	"/>
	<polygon class="st0" points="43.85,88.49 43.85,101.95 63.99,100.45 	"/>
	<polygon class="st0" points="16.06,104.45 16.06,120.04 38.58,120.04 32.24,103.04 	"/>
	<polygon class="st0" points="1.5,122.51 1.5,135.51 30.58,137.45 	"/>
	<polygon class="st0" points="13.44,164.75 13.44,181.45 34.58,173.67 	"/>
	<polygon class="st0" points="9.71,184.08 9.71,196.82 20.93,194.41 	"/>
	<polygon class="st0" points="34,210.63 34,222.94 43.31,223.63 	"/>
	<polygon class="st0" points="15.57,249.16 15.57,262.35 25.99,257.91 	"/>
	<polygon class="st0" points="17.32,273.69 17.32,282.62 31.53,278.15 	"/>
	<polygon class="st0" points="24.43,283.24 24.43,296.41 32.03,290.08 	"/>
	<polygon class="st0" points="67.63,326.49 67.63,339.51 84.58,336.24 76.62,323.54 	"/>
	<polygon class="st0" points="112.25,330.69 112.25,343.69 100.87,333.87 	"/>
	<polygon class="st0" points="118.35,316.1 118.35,328.24 102.83,312.24 	"/>
	<polygon class="st0" points="126.88,289.96 126.88,304.12 105.53,296.74 	"/>
	<polygon class="st0" points="173.42,266.75 173.42,286.74 187.24,286.74 	"/>
	<polygon class="st0" points="163.54,298.54 163.54,314.54 173.58,304.49 	"/>
	<polygon class="st0" points="135.28,320.66 135.28,334.87 145.14,325.01 	"/>
	<polygon class="st0" points="235.53,328.16 235.53,341.29 230.38,336.13 	"/>
	<polygon class="st0" points="266.87,324.11 266.87,337.48 274.74,337.48 	"/>
	<polygon class="st0" points="317.87,283.04 317.87,296.74 307.79,286.66 	"/>
</g>
<g id="Layer_3">
	<path class="st1" d="M323.57,239.9c-0.26-0.84-0.25-1.74-0.64-2.53c-0.46-0.94-1.16-1.89-1.76-2.75l-1.27-0.45l-1.12,0.31
		c-0.75,1.06-1.19,4.27-2.18,4.79c-0.53,0.28-1.14,0.39-1.67,0.69c-2.12,1.25-3.29,3.61-4.93,5.37c-1.04,1.11-2.14,2.16-3.14,3.31
		c-1.3,1.51-2.16,2.91-3.99,3.9c-1.39,0.75-5.33-0.02-6.8-0.57c-1.15-0.44-4.96-3.19-5.69-4.15c-0.67-0.89-1.33-3.15-1.33-4.27
		c0-0.58,0.52-3.76,0.74-4.21c1.19-2.39,6.82-2.86,7.28-7.02c0.35-3.06-1.96-3.63-3.45-5.48c-3.01-3.72-0.64-9.22-2.23-12.45
		c-0.95-1.89-4.03-2.9-4.21-5.1c-0.13-1.66,1.93-3.77,2.07-6.19c0.25-4.04-0.68-10.23-0.9-14.42c-0.06-1.08,0.12-2.17,0-3.26
		c-0.08-0.81-0.27-1.6-0.21-2.42c0.52-8.15,9.62-12.54,10.37-20.04c0.46-4.59-0.71-9.19,0-13.78c0.42-2.65,2.77-5.12,2.07-7.98
		c-0.34-1.39-1.04-2.76-1.38-4.21c-0.35-1.47-0.31-2.97-1.06-4.33c-0.88-1.62-2.14-2.9-2.55-4.79c-0.21-0.94-0.51-1.99-0.67-2.93
		c-0.16-0.98,0.23-2,0.14-3c-0.22-2.58-1.21-6.09,0.37-8.49c0.74-1.12,1.39-1.86,1.97-3.13c0.54-1.18,0.85-2.52,1.75-3.51
		c0.87-0.95,4.17-2.8,4.42-3.32c0.91-1.98,1.34-8.16,1.11-10.34c-0.17-1.67-0.57-3.09-0.42-4.79c0.15-1.82,1-3.58,0.74-5.42
		c-0.44-3.16-2.72-6.12-3.82-9.06c-1.04-2.79-2.04-5.59-2.98-8.42c-0.34-1.04-0.95-2-1.17-3.07c-0.17-0.82-0.31-1.37-0.59-2.17
		c-0.8-2.36-0.57-4.67-0.74-7.08c-0.16-2.33-1.13-4.47-1.33-6.7c-0.34-3.81,0.38-7.58,0.15-11.37c-0.14-2.38-0.84-5-0.37-7.33
		c0.72-3.61,3.35-4.64,3.34-6.7c0-1.53-2.13-3.74-3.12-4.85c-0.4-0.45-0.65-1.04-1.08-1.47c-1.48-1.5-3.71-2.85-4.46-4.98
		c-0.53-1.5-0.24-2.46-1.12-4.27c-0.76-1.56-2.06-2.77-3.07-4.16c-1.33,0.81-3.47,2.09-4.8,2.82c-0.71,0.38-1.54,0.6-2.26,0.97
		c-2.32,1.17-4.42,2.67-6.64,3.99c-0.32,0.18-0.75,0.27-1.06,0.48c-1.13,0.74-1.4,1.75-1.77,2.05c-0.67,0.55-1.65,0.87-2.36,1.39
		c-0.92,0.68-2.48,1.98-2.93,3.09c-0.52,1.31-0.81,2.95-0.86,4.35c-0.01,0.35,0.15,0.74,0.15,1.09c0,0.71-0.21,1.58-0.3,2.29
		l-0.86,0.97c-0.64,0.14-1.57,0.45-2.21,0.48c-1.01,0.04-3.89-0.15-4.89-0.61c-0.58-0.72-1.21-1.65-1.87-2.29
		c-0.12-0.12-0.97-0.48-1.1-0.61c-0.66-0.62-1.17-1.61-1.87-2.17c-0.54-0.44-1.5-0.65-2.11-1.03c-0.74-0.47-1.37-1.17-2.11-1.63
		c-0.36-0.22-0.89-0.27-1.26-0.48c-0.91-0.49-1.14-1.26-1.76-1.75c-1.05-0.82-2.69-0.21-4.58-1.87c-1.41-0.09-3.52,1.43-4.58,2.17
		c-0.84,1.33-0.88,3.39-2.17,4.35l-1.06,0.31c-1.53-0.46-3.09-1.01-4.63-1.4c-2.58-0.64-5.31-0.85-7.8-1.81
		c-0.81,0.2-1.7,0.48-2.52,0.61c-0.85,0.12-1.36-0.19-2.31,0.3c-1.6-0.15-2.35-2.69-4.03-3.2c-1,0.12-2.2,0.3-3.12,0.73
		c-0.97,0.82-0.86,2.23-1.41,3.32c-0.61,1.2-1.49,2.49-2.36,3.51l0.28,3.08h-1.19l-0.79-1.27l-1.42-0.62l-0.45,1.97
		c-0.64,0.21-1.53-0.57-2.08-0.78c-0.84-0.31-2-0.22-2.81-0.68l-1.37-1.28c-0.62-1.12-1.12-2.86-1.6-4.08
		c-0.07-0.04-0.78-0.41-0.81-0.41c-1.1-0.07-2.37,0.09-3.48,0.14l-1.4-1.99c-1.4-0.1-2.86-0.4-4.21-0.75
		c-0.1,2.43-1.8,3.05-2.63,4.97l-1.26-0.12c-1.13,1.5-0.86,2.51-0.11,4.1l1.07,2.3l-0.96,1.03l-1.25,0.19
		c-1.55-0.55-2.72-2.06-4.29-2.48c-1.51-0.41-3,0.97-4.48,0.42c-1.06-0.81-2.12-1.73-3.22-2.48c-0.31-0.21-0.78-0.29-1.11-0.48
		c-0.34-0.19-0.66-0.56-1.01-0.72c-1.17-0.54-2.46-0.98-3.67-1.46c0,0-0.01,0-0.01-0.01c-2.23,0.16-3.19,1.87-3.72,3.88l-1.27,0.67
		c-0.67-0.82-2-2.03-3.12-2.06c-0.54,0.7-1.3,1.42-2.06,1.87c-0.78,0-1.7-0.09-2.47,0l-1.15,0.42c-0.05,0.04-1.93,2-1.96,2.06
		l-0.25,0.97c0,0.05,0.52,1.94,0.56,2.12c-0.54,1.33-1.86,2.03-2.72,3.08c-0.24,0.29-0.38,1.46-1.36,2.06
		c-1.72,1.06-3.78,0.89-5.53,1.69c-1.29,1.4-1.04,3.22-2.97,4.24c-0.27,0.13-1.46,0.25-2.12,0.6c-0.38,0.71-1.31,1.46-2.02,1.82
		c-0.17,0.08-0.92,0.21-1.06,0.3l-1.1,0.97c-0.58,1.03-0.79,2.36-1.36,3.38c-0.31,0.54-1.7,1.34-2.32,1.45l-0.81,1.03
		c0.17,1.02-0.64,4.39-1.2,5.26l-1.16,0.72l-0.96,3.2l0.65,0.97l2.37,0.78c0.85,0.51,1.41,2.36,1.46,3.26
		c0.02,0.35-0.41,3.09-0.66,3.44c-0.47,0.65-1.29,1.34-1.86,1.93c-0.28,2.07-1.68,5.16-4.23,4.9c-1.4-0.15-3.36-0.85-4.73-0.54
		c-0.72,0.78-2.26,2.27-3.33,2.59c-1.14-0.24-2.33-0.56-3.47-0.72c-1.29-0.18-2.45,0.8-3.27,1.69l-1.11-0.78
		c-0.37-0.74-0.32-1.44-0.55-2.17c-0.25-0.78-0.71-1.39-0.85-2.24c-0.88-1.04-2.58-1.85-3.12-2.48c-0.04-0.05-2.26-3.45-2.32-3.56
		c-0.02-0.03-0.09-0.99-0.1-1.09c-0.65-0.28-1.5-0.48-2.22-0.48c-0.41-0.67-1.43-1.49-2.16-1.75c-0.2-0.08-0.92-0.05-1.1-0.12
		c-0.66-0.25-1.39-0.74-2.02-1.09l-1.96,2.24l0.55,2.29l-1.16,0.55l-2.26-0.37l-0.9,1.15c0.17,0.7,0.47,1.53,0.55,2.23
		c0.02,0.16-0.18,0.95-0.15,1.09c0.11,0.72,0.45,1.59,0.66,2.29l-1.17,0.85C75.18,74.6,74,74.23,72.85,74
		c-1.07-0.21-2.42-0.01-3.32-0.79c-2.23,0.79-5.04-2.77-6.75-2.23l-0.65,1.21c-1.16,0.84-2.36,0.38-3.37,1.63l-0.71,2.12
		c-0.67,0.48-1.6,0.94-2.42,1.08l-0.56,1.09l-1.15,0.18l-0.71-2.23c-0.94-0.93-2.18-1.58-3.47-1.81c-0.1,0.11-0.93,1.03-0.96,1.09
		c-0.05,0.08-0.21,0.93-0.25,1.09c-0.11,0.33-0.4,0.74-0.46,1.08c-0.11,0.6,0.08,1.54-0.1,2.36c-0.66,0.52-1.35,1.23-1.81,1.93
		c0.02,3.97-2.08,4.5-2.32,6.71c0.17,0.97,1.75,2.44,2.52,3.02c0.33,0.25,0.78,0.41,1.1,0.67c1.17,0.95,3.98,3.02,3.98,4.77
		l-1.2,0.78c-1.09-0.28-1.66,0.16-2.47,0.12c-1.08-0.05-1.51-0.8-2.31-1.27c-0.33-0.19-0.81-0.25-1.16-0.42
		c-1.18-0.57-2.29-1.65-3.18-2.59l-1.06-0.06c-0.66,0.46-1.4,1.3-1.7,2.05l-3.53,0.49c-0.86-0.84-0.97-1.57-1.41-2.12
		c-0.48-0.6-1.55-1.3-2.31-1.45l-1.16,0.67c-0.83,1.04-0.67,2.42-1.57,3.38l0.25,2.23c-0.63,0.18-1.67,0.11-2.27-0.19
		c-0.48,0.45-0.99,1.5-0.91,2.18l-1.15,0.97c-1.42,0.2-3.33-0.09-4.63-0.67c-2.03,0.34-2.47,2.01-3.62,3.38l0.79,0.45
		c0.62,0.08,1.68-0.6,2.09-1c0.94,0.03,2.94,0.45,3.62,1.19l0.77,1.64c0.74-0.02,2.16,0.28,2.72,0.84l-0.25,2.16l1.01,0.81
		l0.36,0.99c-0.73,0.8-0.61,1.95-0.64,2.94c0,0.05-0.46,0.72-0.43,1.17c0.05,0.72,0,1.45-0.04,2.16c-0.59,0.07-1.45,0.63-1.73,1.16
		l-0.14,1.68l-0.44,0.47l-1.01-0.61l0.23-1.37c-0.35-0.44-1.15-1.79-0.98-2.42l-1.01-0.96c-0.83,0.06-1.83,0.03-2.64-0.19
		l-0.41-0.85l0.41-1.37l-0.15-0.58l-1.15-1c0.18-0.72-0.06-1.89-0.38-2.54l-0.54,0.18c-0.5,1.51-1.66,2.71-2.13,4.23l-1.25,0.72
		l-1.17-0.12l-0.75,1.08c-0.09,0.85,1.15,2.56,1.66,3.15l-0.45,0.97c-0.66-0.18-1.77,0.17-2.27,0.61c-0.65,0.02-1.69-0.49-2.16-0.91
		c-1.21,0.15-1.58,0.91-2.41,1.21c-1.14,0.41-2.43,0.19-3.43,1.09c-0.02,0.1-0.25,1.04-0.25,1.08c0.01,0.05,0.59,2.09,0.61,2.12
		c0.38,0.72,2.52,1.9,3.22,2.17l0.66,1.09c0.68,0.07,1.61-0.16,2.21-0.48c1.34,1.22,3.64-0.1,5.69,1.81
		c2.66,2.48,0.38,4.78,2.67,6.59c0.79,0.33,2.43,0.84,3.32,0.66l0.75,1.03c-0.47,2.26,0.75,2.66,0.91,4.41
		c-1.06,0.35-1.6,1.13-2.42,1.51c-0.99,0.46-2.43,0.72-3.52,0.97c-0.14,1.49,1.23,2.79,1.51,4.23c-1.23,2.39-0.23,3.02-0.66,4.29
		c-0.26,0.78-0.97,1.45-1.01,2.36c-0.01,0.11,0.23,0.9,0.25,1.09c0.04,0.38-0.06,0.83,0,1.2c0.1,0.65,0.64,1.51,1.06,2
		c0.47,1.48-1.29,3.39-2.22,4.29l-1.1,0.18l0.4,2.23l2.16,0.91c0.08,0.71,0.63,1.71,1.16,2.18c-0.25,1.7,0.45,3,1.41,4.4l-0.04,1.11
		c-0.51,0.99-2.03,2.07-3.17,2.06l-1.71,2.18l-2.16,0.79c-0.37,0.5-0.57,1.53-0.4,2.13c-0.64,0.38-1.4,1.46-1.4,2.24
		c0.78,0.9,0.47,2.27,0.67,3.34c0.02,0.12,0.4,0.79,0.45,0.97c0.11,0.37,0.1,0.79,0.21,1.16c0.22,0.73,0.52,1.47,0.77,2.18
		c1.03-0.04,2.25-0.2,3.27-0.11c0.77,0.06,1.23,0.78,2.26,0.36c0.61-0.73,1.01-2.32,1.1-3.22c0.62-0.31,1.5-1.22,1.6-1.94l1.25-0.48
		c0.41,0.84,0.58,2.42,0.62,3.33l1.01,1.04c0.99,0.01,2.59,0.35,3.32,1.09c0.28,0.28,0.42,0.81,0.71,1.09
		c0.35,0.34,1.73,0.95,2.22,1.08l-0.05,1.16c1.22,0.9,2.77,1.98,4.37,1.62c1.27-0.86,1.25-2.11,2.26-3.1c0.89-0.24,1.73,0,2.36-0.12
		c0.31-0.06,2.12-0.73,2.26-0.74c0.11,0,2.97,0.54,3.26,0.6l0.71,1.03l2.11,0.72l0.81,1.2c-0.83,0.57-2.53,1.95-2.96,2.93
		l-0.05,1.09c0.64,0.87,1.07,2.11,1.01,3.21c0.44,0.5,1.5,1.22,2.2,1.2c-0.2,0.74,0.52,2.47,0.86,3.09
		c-0.94,0.85-2.19,1.3-3.45,1.23c-0.45-0.98-2.06-2.09-2.96-2.59c-2.83-1.54-4.81,2.07-6.91,1.91l-0.94,1.1
		c-0.01,0.11-0.06,1.06-0.05,1.09c0.22,0.76,0.76,1.56,1.06,2.3c0.66,1.61,1.22,4.07,2.32,5.4c-0.08,0.17-1.08,2.08-1.09,2.12
		c-0.17,0.85-0.07,2.49-0.09,3.41c-0.61,0.85-2.48,1.56-3.45,1.71l-0.44,1.16c0.19,0.67,0.27,1.55,0.16,2.24
		c-3.57,4.33-0.01,6.04-1.69,8.62c-1.16,0.43-1.14,1.15-1.8,1.76c-0.28,0.27-0.83,0.44-1.16,0.67c-0.36,0.26-0.68,0.68-1.05,0.91
		c-0.28,0.18-0.79,0.3-1.11,0.42l-1.21-0.67c-2.34-0.5-2.99,2.74-4.83,3.45c-0.77,0.31-1.51,0.22-2.26,0.73
		c0.01,0.75-0.72,1.9-1.23,2.39l-0.01,0.01l-0.38,0.71l-0.18,1.07l0.38,1.07l1.02,1.05l0.24,0.35l0.35,0.55l0.25,1.14l0.71,1.15
		l0.05,1.09l-0.3,1.09l1.1,0.55l0.25,1.08l0.71,1.03l0.05,1.09l0.25,1.21l1,0.73l0.2,0.96l-0.45,1.09l-0.85,0.97l-2.32,1.21
		l-1.11,0.36l-0.2,2.29l0.66,1.33h0.01c0.54,0.91,0.15,2.24-0.25,3.14c0,0.69,0.33,1.26,0.72,1.79c0.81,1.1,2.46,1.07,3.65,0.68
		c0.35-0.11,0.71-0.41,1.06-0.49c0.07-0.02,0.98,0,1.1,0c0.12,0.75,0.72,1.74,1.27,2.24c-0.13,1.1,0.16,2.39,0.95,3.2l-0.25,1.09
		l-1.06,1.09l1.01,0.3c0.91-0.43,1.64-0.22,2.26-0.42c0.68-0.22,1.18-0.84,2.16-1.03c0.64,0.61,2.2,1.84,3.12,2l1.16-0.85l1.21,0.12
		l2.01,4.23c0.74,0.18,1.69,0.86,2.22,1.39c0.69-0.07,1.54-0.08,2.21-0.24c0.38-0.09,0.78-0.44,1.16-0.54
		c1.05-0.28,2.67,0.22,3.42,0.97c0.55-0.39,1.53-0.78,2.22-0.78c0.48-0.55,1.51-1.25,2.26-1.33c1.06,0.16,2.54,1.01,3.42,1.56
		l1.11-0.05c0.64,0.42,1.43,1.08,2.11,1.39c0.64,0.28,1.34-0.1,2.41,0.78c0.67,0.98,0.33,2.41,0.41,3.51
		c0.05,0.59,0.35,1.29,0.58,1.81l0.64,1.45c0.85,1.35,2.83,1.96,4.32,1.45c1.96,1.72,1.12,2.5,1.82,4.47
		c1.24,1.09,3.05,1.26,4.17,2.48c0.42,0.46,1.65,2.66,1.82,3.15c0.05,0.14,0,0.23,0,0.38c0,0.85-0.05,0.58,0.2,1.53l0.4,1.54
		c0,0.64-0.47,1.35-0.25,2.06c0.34,1.14,1.74,4.67,1.21,5.73L73.3,321l-1.61,1.94c-0.51,0.31-1.56,0.44-2.11,0.18l-1.16,0.43
		c-0.39,0.72-1.04,2.54-0.71,3.38c1.6,0.12,2.54-0.96,4.48-0.24l1.96,2.05c0.67-0.05,1.67,0.51,2.11,0.97l3.53,0.3l1.05-0.78
		c0.02-0.68,0.52-1.67,1.01-2.11c1.24-0.07,2.52,1.3,3.08,2.29l0.76-0.14l1.51-0.28c0.57-0.21,1.34-1.03,2.16-1.33
		c1.15,0.31,2.6-0.04,3.52-0.79c1.06-0.24,3.41,1.68,4.38,2.17c1.31,0.68,3.2-0.57,4.48,0.43c0.69,0.82,1.69,2.09,2.01,3.14
		c0.21,0.7,0.28,1.57,0.55,2.23c0.49,1.2,1.89,1.96,3.08,2.3l2.49-1.32c0.41-0.56,1.27-1.87,1.04-2.26
		c-0.29-0.51,1.17-1.84,1.32-2.86c0.14-1.03-0.58-2.05-1.8-3.05c-1.23-0.99-2.16-1.18-4.53-4.01c-2.38-2.82-2.74-6.09-2.26-7.51
		c0.48-1.42,1.58-0.91,3-0.14c1.42,0.76,9.74,1.94,9.74,1.94s1.11-0.38,1.83-1.54c0.72-1.18-0.13-3.65-0.11-5.12
		c0.02-1.47-2.52-2.04-5.73-3.45c-3.21-1.41-2.49-5.31-1.08-6.51c1.41-1.2,1.95-4.65,2.9-6.05c0.95-1.39,2.56-1.96,3.45-1.96
		c0.88,0,5.4,0.14,7.57-0.01c2.17-0.15,1.65-3.31,1.65-3.31l-5.11-4.41c0,0-3.97-0.45-5.14-0.59c-1.17-0.15-2.79,0-5.4-1.32
		c-2.62-1.32-0.88-3.8-0.52-5.17c0.37-1.36,1.84-2.32,1.84-2.32l4.56-9.17l5.43-2.86l4.16,1.85c0,0-1.17,3.5-2.03,4.96
		c-0.86,1.47,0.42,3.36,1.5,3.29c1.07-0.07,2.8-0.15,2.8-0.15l2.16,1.8l6.73-18.97l2.14,2.79l1.64-2.13l1.82-1.15l2.69,0.34
		l3.08-1.77l5.85-5.11l1.13-0.04v-0.2l-1.87-0.88l-0.82-0.67l-0.08-1.37v-0.76l0.21-0.72l0.4-0.55l0.23-0.73l0.3-0.41l-0.14-0.4
		l0.3-1.04l-0.14-1.54l0.38-0.11l0.32-1.55l-0.87-0.49l0.12-0.53l0.5-0.78l-0.06-0.33l-0.72-0.7l-0.41-0.04l-0.32,0.55l-0.82,0.21
		l-0.49-0.18l-1.36,0.46l-1.65,0.19l-0.19,0.22v1.11l0.11,0.46l-0.59,0.89l-1.35-0.21l-0.64-0.93l-0.54,0.42l-0.63,0.73l-0.49,0.25
		l-0.74,0.84l-0.14-0.48l0.03-0.61l-0.29-0.71l-0.63-0.98l0.4-0.76l-0.03-0.55l0.37-0.65l-0.15-0.48l0.32-1.53l-0.34-1.51
		l-0.84-0.66l0.22-0.49l0.23-0.69l0.02-1.12l-0.47-0.32l0.13-0.65l0.06-0.53l-0.69-0.71l-0.28,0.07l-0.71-0.55l-0.32-0.73v-0.57
		l-0.72-0.61l0.09-0.47l0.43-0.71l0.21-0.57l-0.4-0.2h-0.33l-0.1-0.58l0.26-0.58l-0.1-0.47l0.13-0.52l-0.63-0.73l-0.74-0.16
		l-0.41-1.48l0.77-1.04l0.59,0.38l0.65-0.08l0.39-0.55l0.02-1.19l0.48-0.96l-0.21-0.26h-1.13l-0.38-0.6l-0.32-0.27l-0.19-0.4
		l-0.31-0.19l-0.17-0.58l-0.53-0.72l-0.14-0.54l-1.34-0.78h-0.49l-0.34-0.55l-0.56-0.19l-1.01,0.25l-0.36,0.81l-0.17,0.84
		l-0.41,0.36l-0.73,1.18l-0.84,0.05l-0.07-1.05l-0.21-0.43l-0.2-0.54l-0.13-0.38l-0.57-0.02l-0.44-0.99l0.08-1.6l-0.35-0.7
		l-0.22-0.41l-0.56-0.39l0.29-1.13l-0.97-0.91l-0.49,0.19l-0.25-0.26l0.29-0.36l0.86-1.04l-0.32-0.53l-1.03-0.16l-0.59,0.68
		l-0.17,0.32l-0.82,0.34l-0.48-0.29l-0.93,0.9h-0.63l-0.74,0.4l-0.2,0.34l-0.51,0.39h-0.93l-0.48,0.63l-0.63-0.96v-0.84l-0.55-0.77
		l-0.21-0.91l-0.74-0.49l-1.04,0.08l-0.06-0.85l0.1-0.35l-1.13-0.94l0.17-1.11l0.32-0.25l-0.24-0.63l-0.51-0.45l0.36-0.23l0.55-0.75
		l-0.06-0.89l0.14-0.76l0.72-0.9l-0.31-0.78l-0.8-0.57l-0.71-0.5h-0.37l-0.29-0.6l-0.25-0.32l0.49-1.01l-0.12-0.59l0.66-1.06
		l0.74,0.06l0.75-0.06l0.74-0.51l0.34-0.69l0.54-0.26l0.39,0.29l0.23-0.21l0.09-1.77l-0.13-0.18l0.61-0.4l0.97-1.58l0.55-0.34
		l0.07-0.47h0.8l0.07,0.46l2.25,0.7l0.84,0.86l-0.03,1.13l0.83,0.26l0.49,0.26l0.51,0.42l0.49-0.09l0.39,0.08l0.38,0.52l0.03,0.18
		l0.47,0.02l0.58,0.24l0.74-0.15l0.96,0.11l0.34-0.1l0.31,0.64l0.54-0.12l0.48-0.24l0.44,0.21l0.42,0.25l0.66,0.01l0.31,0.45
		l0.41,0.86l0.57-0.13l0.48-0.24l0.53,0.21l0.37,0.01l0.5,0.17l0.53,0.63l0.51,0.72l0.33,1.13l0.03,0.64l0.3,0.57l0.02,0.4
		l0.73,0.06l0.62-0.29l0.62-0.05l0.63,0.31l0.82-0.2l0.57-0.95l0.55-0.1l2.65,0.52l0.33,0.04l0.31,0.85l0.13,0.43l0.78,0.21
		l0.77-0.25l0.72,0.04l0.64,0.36c0,0,0.44,0.35,0.46,0.36c0.02,0.01,0.53-0.11,0.53-0.11l0.34,0.14l0.57,0.21l0.7,0.51l0.26,0.39
		l0.77,0.06l0.55,0.5l0.46,0.36l0.06,0.36l-0.02,0.66l-0.35,0.36l0.13,0.75l0.29,0.46l-0.31,0.63l0.01,0.36l-0.94,0.51l0.21,0.65
		l0.32,0.67l-0.39,0.34l0.18,0.32l0.29,0.02l0.05,0.42l-0.72,0.42l0.06,0.18l0.44,0.24l-0.19,1.01l-0.4,0.47l0.23,0.53l0.37,0.87
		l0.03,0.32l0.56,0.18l0.54-0.71l0.4-0.76l0.61-0.51l0.29-0.21l0.39,0.1l0.3-0.06l0.44-0.3v-0.24l0.7-0.25l0.46,0.32l0.57,0.62
		l0.38,0.8l0.06,0.55l0.67,0.52l0.17-0.36l0.35-0.82l0.97-0.31l0.85-0.02l0.64,0.48l0.44,0.02l0.52-0.36l0.87,1.03l-0.27,0.74
		l-0.28,0.73l0.25,0.32l1.27,0.29l0.19,0.25l1.67-0.4l0.49,0.02l0.1,0.4l0.97-0.27l0.56-0.25c0,0,0.74,0.17,0.81,0.19
		s0.79-0.23,0.79-0.23l0.82,0.37l0.53,0.55l0.28,0.25l0.56-0.23l0.4-0.44v-0.42l0.27-0.6h0.85c0,0,0.42,0.55,0.43,0.57
		c0.01,0.02,0.68,0.23,0.68,0.23s0.33,0.56,0.42,0.67c0.09,0.11,0.71,0.52,0.71,0.52l0.67-0.55l1.13,0.27l2.34,0.72l0.57-0.18
		l0.35-0.97l0.8-1.5l-0.44-0.68l0.67-0.25l-0.23-0.7l1.15-0.04l1.32-0.86l0.87-0.63l1.11-0.17l0.47,0.37l0.57,0.48l1.33-0.48
		l1.25,0.46l0.84,0.55l0.98,0.74l1.28,0.32l0.72,0.27l0.59,1.21l1.35-0.02l0.04,1.2c0,0-0.31,0.59-0.31,0.61s0.29,0.46,0.31,0.49
		c0.02,0.03,0.23,0.9,0.23,0.9l1.29,0.57l0.05,1.22l0.72,0.72l-0.12,0.67l0.84,1.33l-0.64,0.82l-0.62,0.95l-0.06,1.02l-0.09,0.81
		l0.08,0.67l-0.35,0.16l-1.03-0.01l-1.22,0.03l-0.82-0.19l-0.82-0.32l-0.61,0.17l-0.83-0.17l-0.85,1.3l-0.61,0.48l0.06,0.86l0.5,1.2
		l-0.44,0.71l0.15,0.63l-0.24,0.81l-0.98,0.4l-0.13,0.5l-0.75,0.14l-0.3-0.04l-0.17,0.66l-0.05,0.6l-0.51,1.19l-0.62-0.1l-0.6,0.25
		l-0.78,0.4l-0.58,0.59l0.05,0.66l-0.67,0.49l-0.5,0.2l-0.37,0.56l-0.97,0.11l-0.66,0.5l-0.3-0.01l-0.7-0.4l-0.99,0.25l-0.22-0.33
		l-0.36-0.63l-1.66-0.95l-1.05-0.18l-0.46-0.38l-0.28-0.44l-0.45,0.01l-1.07,0.89l-0.32,0.81l-0.44,0.42l-0.52-0.41l0.34-0.74
		l-0.02-0.62l-0.23-0.48l0.02-0.59l-1.1-1.16l-0.16,1.1l-0.31,0.76l-0.58,0.32l-0.47-0.01l-0.13,0.32l0.07,0.32l-0.9,0.85
		l-0.55,0.04l-0.39-0.05l-0.36,0.49l0.44,0.73l0.45,0.13c0,0,0.05,0.7,0.09,0.82c0.04,0.13-0.16,0.74-0.16,0.74
		s-0.48,0.92-0.48,0.94c0,0.02-0.33,0.32-0.33,0.32l-1.44-0.46l-0.75,2l-1.05,1.63l-0.24,1.11l0.28,1.4l-0.35,1.19l-0.82,1.28
		l-0.09,0.29l0.57,1.54l-0.28,0.86l-0.34,0.68l3.49,0.36l2.13,5.4l3.13,3.22l-1.96,8.99c0,0,0.64,1.38,2.69,2.85
		c2.05,1.47,1.32,2.93,1.32,3.65c0,0.71,0.58,7.16,0.58,7.16l-5.1,3.45l-1.8-0.23l-2.08,4.68l-2.42,7.45l-3.09,2.77
		c0,0,2.06,3.66,2.06,6.87c0,3.21-1.13,5.27-1.13,5.27l-5,2.34l-2.88,2.45l-2.82,0.34l-2.16-0.42l-0.49-6.7l-3.8,0.72l-2.59-0.64
		l-8.67,4.96l0.52,4.73l-1.43,2.33c0,0,1.24,4.64,1.39,5.23c0.14,0.58,0.86,2.76,0.44,5.26c-0.41,2.49,1.01,3.08,1.93,3.35
		c0.91,0.27,4.64,5.14,5.28,6.18c0.64,1.05,2.14,1.43,3.76,1.43c1.61,0,6.28-0.44,7.21-0.85c0.93-0.4,3.23-1.91,3.23-1.91l6.38,0.51
		l0.95,2.18l1.17,1.2l4.4,0.08l6.55,2.27l4.79,0.29l1.87-4.11l6.04-2.45l1.36,1.21l2.01-0.56l1.45-2.73l2.24-2.71l0.46-3.33l6-0.1
		l1.44-2.33l1.39,0.22l4.47,3.64l2.93,2.77l3.35,1.02l3.42-1.68l3.96-3.87l2.59,0.44l2.06-3.5l4.55,2.04l1.23-1.75l-2.33-2.99
		l0.76-4.46l1.97-3.55l3.02-1.32l4.41-0.71l3.05-3.09l2.16-0.68l1.21,1.92l2.6,0.24l1.82-1.54l4.2,0.07c0,0,3.38,1.94,3.94,2.83
		c0.55,0.88,2.17,1.45,2.17,1.45l2.99,0.61l0.77,1.39l-1.28,5.76c0,0,0.46,1.81,0.74,2.3c0.28,0.48,3.98,1.24,3.98,1.24l1.97,1.02
		l3.25-3.09l1.99,0.23l5.75-3.74l3.08,0.13l7.17,2.79l8.46,2.64l0.24,0.11c0.97-2.55,2.54-4.79,3.63-7.47
		c0.74-1.82,0.92-3.88,1.33-5.8c0.3-1.42,0.82-2.83,0.96-4.27c0.24-2.53,0.37-4.33,0.95-6.83c0.32-1.37,0.26-2.78,0.54-4.15
		c0.24-1.2,0.71-3.01,1.38-4.02c0.65-0.97,1.72-1.71,2.07-2.87c0.27-0.88-0.01-1.8,0.16-2.67c0.32-1.71,1.73-3.07,2.5-4.54
		c1.74-3.31-0.55-4.1-0.85-5.55c-0.19-0.91,0.49-1.63,0.8-2.43c1.54-4.03-1.32-4.49-0.38-7.33c0.63-1.88,2.56-3.13,3.3-5.1
		c0.53-1.42,0.53-3,1.11-4.4c0.37-0.88,0.61-1.78,0.96-2.62c0.61-1.47,2.22-2.34,2.81-3.89c0.29-0.74,0.35-1.56,0.47-2.34
		C325.94,246.4,325.18,244.56,323.57,239.9z"/>
</g>
<g id="Layer_6">
	<g class="st2">
		<path class="st3" d="M286.82,5.93c-0.33-0.69-0.79-1.31-1.3-1.93h-3.4c-0.65,0.38-1.29,0.74-1.8,1.03
			c-0.43,0.23-0.87,0.4-1.3,0.57c-0.33,0.13-0.66,0.25-0.97,0.41h8.8C286.84,5.97,286.83,5.95,286.82,5.93z"/>
		<path class="st3" d="M287.48,8.23c-0.01-0.08-0.02-0.15-0.04-0.23H274.6c-0.27,0.17-0.54,0.34-0.8,0.51
			c-0.78,0.49-1.55,0.99-2.35,1.46c-0.03,0.01-0.05,0.02-0.08,0.04h16.5C287.64,9.33,287.56,8.77,287.48,8.23z"/>
		<path class="st3" d="M288.99,12h-19.87c-0.11,0.15-0.22,0.29-0.37,0.41c-0.44,0.36-0.95,0.62-1.44,0.87
			c-0.36,0.18-0.7,0.36-0.96,0.55c-0.08,0.06-0.15,0.11-0.22,0.17h24.86C290.3,13.4,289.58,12.75,288.99,12z"/>
		<path class="st3" d="M293.96,17.23l-0.32-0.36c-0.23-0.26-0.41-0.54-0.58-0.79c-0.02-0.03-0.04-0.05-0.05-0.08h-28.97
			c-0.13,0.18-0.23,0.34-0.28,0.48c-0.18,0.45-0.33,0.98-0.45,1.52h31.33C294.39,17.71,294.15,17.44,293.96,17.23z"/>
		<path class="st3" d="M244.27,17.8c-0.06-0.04-0.25-0.1-0.4-0.14c-0.25-0.08-0.54-0.16-0.81-0.31c-0.71-0.39-1.11-0.9-1.43-1.32
			c-0.01-0.01-0.01-0.02-0.02-0.03h-8.36c-0.15,0.34-0.29,0.72-0.42,1.12c-0.09,0.29-0.19,0.58-0.3,0.88h12.03
			C244.46,17.93,244.37,17.86,244.27,17.8z"/>
		<path class="st3" d="M183.53,16.78c-0.87-0.09-1.81-0.24-2.84-0.48c-0.18,0.69-0.49,1.22-0.82,1.7h4.52L183.53,16.78z"/>
		<path class="st3" d="M209.3,16.46c-0.13-0.16-0.26-0.31-0.39-0.46h-3.55c-0.17,0.3-0.28,0.7-0.39,1.15
			c-0.07,0.27-0.15,0.56-0.25,0.85h6.19C210.27,17.62,209.76,17.02,209.3,16.46z"/>
		<path class="st3" d="M189.4,20h-11c-0.08,0.14-0.18,0.28-0.25,0.44c-0.17,0.4-0.58,0.65-1.01,0.6l-0.67-0.06
			c-0.2,0.35-0.27,0.67-0.25,1.03h13.96C189.9,21.38,189.65,20.69,189.4,20z"/>
		<path class="st3" d="M249.25,21.38c-0.29-0.39-0.57-0.76-0.84-0.98c-0.17-0.14-0.49-0.27-0.8-0.4h-16.35
			c-0.07,0.06-0.13,0.12-0.2,0.17c-0.1,0.07-0.21,0.13-0.32,0.16l-1.06,0.31c-0.18,0.05-0.38,0.05-0.56,0
			c-0.52-0.16-1.04-0.32-1.57-0.49c-0.15-0.05-0.31-0.1-0.47-0.15H203.7c-0.43,0.68-0.91,1.36-1.42,2h47.45
			C249.57,21.8,249.41,21.59,249.25,21.38z"/>
		<path class="st3" d="M263.12,21.55c0,0.15-0.02,0.3-0.03,0.45h33.11c0.2-0.33,0.31-0.63,0.31-0.94c0-0.29-0.16-0.66-0.38-1.06
			h-33.12c-0.01,0.16-0.03,0.33-0.04,0.49c0,0.05,0.03,0.21,0.05,0.32C263.07,21.03,263.12,21.27,263.12,21.55z"/>
		<path class="st3" d="M164.24,25.4c-0.6-0.48-1.22-0.96-1.83-1.4h-8.09c-0.05,0.15-0.09,0.29-0.14,0.46
			c-0.07,0.27-0.25,0.5-0.5,0.63l-1.27,0.67c-0.42,0.22-0.94,0.12-1.24-0.25c-0.55-0.67-1.24-1.23-1.79-1.5h-0.26
			c-0.56,0.61-1.22,1.17-1.85,1.54c-0.38,0.23-0.86,0.14-1.35,0.12c-0.47-0.02-0.97-0.04-1.41,0l-0.83,0.3
			c-0.01,0.01-0.02,0.02-0.03,0.03H165C164.75,25.8,164.49,25.6,164.24,25.4z"/>
		<path class="st3" d="M294.74,24h-31.93c-0.03,0.19-0.11,0.37-0.24,0.51l-0.86,0.97c-0.14,0.16-0.33,0.27-0.54,0.31
			c-0.2,0.04-0.42,0.1-0.66,0.17c-0.06,0.02-0.12,0.03-0.18,0.04h33.3C293.95,25.21,294.34,24.56,294.74,24z"/>
		<path class="st3" d="M177.84,25.9c0.02,0.03,0.02,0.07,0.03,0.1h77.07c-0.58-0.1-1.11-0.23-1.49-0.4
			c-0.14-0.06-0.26-0.16-0.36-0.28c-0.2-0.24-0.39-0.5-0.6-0.77c-0.14-0.18-0.28-0.37-0.42-0.55h-49.66l0.07,0.73
			c0.02,0.28-0.07,0.56-0.26,0.76c-0.19,0.21-0.46,0.33-0.74,0.33h-1.19c-0.35,0-0.67-0.18-0.85-0.47l-0.65-1.02l-0.18,0.78
			c-0.08,0.34-0.33,0.62-0.66,0.73c-0.18,0.06-0.36,0.09-0.56,0.09c-0.67,0-1.28-0.36-1.77-0.65c-0.16-0.09-0.31-0.19-0.43-0.24
			c-0.25-0.09-0.61-0.15-0.99-0.2c-0.62-0.09-1.32-0.19-1.94-0.54c-0.07-0.04-0.14-0.09-0.2-0.14L191.88,24h-14.93L177.84,25.9z"/>
		<path class="st3" d="M142.46,30h150.56c-0.02-0.67,0.01-1.34,0.11-2h-116.4l-0.03,0.03c-0.15,0.17-0.36,0.27-0.58,0.31l-1.25,0.19
			c-0.16,0.02-0.33,0.01-0.48-0.05c-0.35-0.13-0.68-0.29-0.99-0.47H142l-0.04,0.14c0.08,0.3,0.23,0.85,0.34,1.27
			C142.38,29.7,142.44,29.94,142.46,30z"/>
		<path class="st3" d="M293.29,32.89c-0.04-0.29-0.07-0.59-0.11-0.89H141.54c-0.33,0.38-0.7,0.71-1.04,1.01
			c-0.36,0.32-0.7,0.62-0.96,0.95c0.01,0,0,0.02-0.01,0.04h153.89C293.38,33.64,293.34,33.27,293.29,32.89z"/>
		<path class="st3" d="M293.56,36h-155.3c-0.1,0.08-0.21,0.16-0.33,0.23c-1.11,0.68-2.28,0.91-3.41,1.14
			c-0.73,0.14-1.42,0.28-2.04,0.53c-0.03,0.03-0.04,0.07-0.06,0.1h161.13C293.57,37.33,293.57,36.66,293.56,36z"/>
		<path class="st3" d="M293.43,40.36c0.01-0.12,0.01-0.24,0.02-0.36H131.42c-0.34,0.7-0.83,1.43-1.73,2h163.66
			C293.37,41.45,293.4,40.9,293.43,40.36z"/>
		<path class="st3" d="M293.29,44H126.17c-0.33,0.25-0.66,0.47-0.96,0.62c-0.19,0.09-0.38,0.14-0.72,0.22
			c-0.1,0.02-0.19,0.04-0.27,0.07l-0.82,0.72c-0.06,0.12-0.11,0.25-0.16,0.38h170.11C293.3,45.33,293.29,44.66,293.29,44z"/>
		<path class="st3" d="M294.05,49.89c-0.16-0.62-0.32-1.25-0.45-1.89H122.51c-0.11,0.29-0.24,0.58-0.4,0.86
			c-0.22,0.39-0.69,0.8-1.21,1.14h173.17C294.07,49.96,294.06,49.93,294.05,49.89z"/>
		<path class="st3" d="M294.71,53.23c-0.03-0.41-0.09-0.82-0.17-1.23H119.08c-0.07,0.62-0.2,1.32-0.37,2h176.03
			C294.73,53.74,294.72,53.49,294.71,53.23z"/>
		<path class="st3" d="M294.81,56H118.08c-0.11,0.26-0.22,0.5-0.32,0.66c-0.08,0.12-0.19,0.23-0.31,0.3l-0.84,0.52L116.45,58h178.5
			C294.87,57.32,294.83,56.66,294.81,56z"/>
		<path class="st3" d="M118.13,60.84c0.07,0.02,0.14,0.06,0.21,0.09c0.39,0.24,0.71,0.62,0.98,1.07h176.6
			c-0.12-0.5-0.24-0.92-0.42-1.44c-0.06-0.19-0.1-0.38-0.15-0.56H115.98l0.11,0.16L118.13,60.84z"/>
		<path class="st3" d="M86.56,66c-0.32-0.47-1.1-1.1-1.6-1.27c-0.03,0.01-0.17,0-0.3-0.01c-0.36-0.02-0.6-0.04-0.82-0.12
			c-0.41-0.16-0.81-0.38-1.19-0.6h-0.4l-0.95,1.08L81.52,66H86.56z"/>
		<path class="st3" d="M120.28,65c0.01,0.12-0.03,0.5-0.09,1h177.14c-0.02-0.07-0.05-0.14-0.07-0.21c-0.12-0.37-0.29-0.75-0.47-1.14
			c-0.09-0.21-0.18-0.43-0.27-0.65H120.12C120.21,64.38,120.26,64.73,120.28,65z"/>
		<path class="st3" d="M119.43,69.08c-0.23,0.32-0.51,0.62-0.81,0.92H298.7c-0.24-0.68-0.46-1.33-0.69-2H119.82
			C119.7,68.48,119.57,68.88,119.43,69.08z"/>
		<path class="st3" d="M77.87,70h12.59c-0.46-0.7-0.98-1.51-1.29-2H81.2c-0.01,0-0.01,0.01-0.02,0.01l-1.16,0.55
			c-0.18,0.09-0.39,0.11-0.59,0.08l-1.68-0.27l-0.23,0.29c0.02,0.06,0.04,0.13,0.05,0.19C77.69,69.23,77.79,69.61,77.87,70z"/>
		<path class="st3" d="M116.52,74h183.64c-0.25-0.67-0.49-1.33-0.73-2h-182C117.21,72.68,116.91,73.37,116.52,74z"/>
		<path class="st3" d="M78.22,73.04c0.08,0.25,0.16,0.5,0.23,0.73c0.02,0.08,0.03,0.15,0.03,0.23h15.94
			c-0.04-0.13-0.09-0.24-0.13-0.38c-0.42-0.42-1.02-0.83-1.56-1.2c-0.21-0.15-0.41-0.28-0.6-0.42H77.91
			C77.99,72.33,78.1,72.69,78.22,73.04z"/>
		<path class="st3" d="M95.27,76.43c-0.03-0.15-0.06-0.29-0.09-0.43h-36.1L59,76.25c-0.07,0.2-0.2,0.38-0.37,0.5
			c-0.72,0.51-1.55,0.92-2.32,1.13L56.25,78h39.47C95.44,77.43,95.35,76.9,95.27,76.43z"/>
		<path class="st3" d="M301.88,77.7c-0.29-0.56-0.59-1.13-0.87-1.7H114.4c-0.58,0.27-1.23,0.4-1.97,0.32
			c-0.51-0.05-1.06-0.17-1.63-0.29c-0.05-0.01-0.1-0.02-0.15-0.03h-2.63c-0.64,0.65-1.59,1.5-2.51,2h196.53
			C301.98,77.9,301.93,77.8,301.88,77.7z"/>
		<path class="st3" d="M303.03,80H48.96c0,0.02,0,0.04-0.01,0.06c-0.05,0.23-0.18,0.43-0.36,0.58c-0.51,0.4-0.99,0.89-1.35,1.36
			h256.53C303.59,81.33,303.33,80.67,303.03,80z"/>
		<path class="st3" d="M304.03,84H46.93c-0.19,0.82-0.48,1.46-0.78,2h257.54C303.85,85.31,303.99,84.65,304.03,84z"/>
		<path class="st3" d="M303.27,90c-0.04-0.54-0.06-1.11,0-1.71c0.01-0.1,0.03-0.19,0.04-0.29H44.99c-0.05,0.14-0.09,0.28-0.12,0.43
			c0.14,0.36,0.66,0.98,1.27,1.57H303.27z"/>
		<path class="st3" d="M303.69,93.27c-0.04-0.44-0.11-0.86-0.17-1.27H48.84c0.69,0.55,1.5,1.24,2.18,2h252.72
			C303.73,93.73,303.72,93.48,303.69,93.27z"/>
		<path class="st3" d="M51.99,97.8L51.68,98h251.91c0.06-0.68,0.1-1.36,0.13-2H52.28c0.11,0.32,0.17,0.63,0.17,0.96
			C52.45,97.3,52.28,97.61,51.99,97.8z"/>
		<path class="st3" d="M45.68,98c-0.06-0.04-0.12-0.09-0.17-0.13c-0.17-0.14-0.35-0.29-0.56-0.42c-0.07-0.04-0.25-0.09-0.4-0.14
			c-0.24-0.07-0.48-0.15-0.69-0.25c-0.57-0.28-1.12-0.65-1.63-1.07h-2.98c-0.15,0.29-0.42,0.5-0.75,0.55l-3.53,0.49
			c-0.31,0.04-0.61-0.06-0.84-0.27c-0.27-0.27-0.48-0.52-0.65-0.77h-3.62c-0.11,0.28-0.25,0.56-0.44,0.83L29.56,98H45.68z"/>
		<path class="st3" d="M303.37,100H26.62c-0.11,0.26-0.18,0.51-0.16,0.65c0.04,0.33-0.09,0.66-0.35,0.88L25.55,102h277.46
			C303.14,101.43,303.26,100.75,303.37,100z"/>
		<path class="st3" d="M23.46,104.67l0.51,1.09c0.35,0.04,0.74,0.13,1.14,0.24h273.46c0.56-0.55,1.54-1.21,2.51-1.86
			c0.06-0.04,0.14-0.09,0.2-0.14H22.79c0.19,0.13,0.36,0.26,0.5,0.42C23.36,104.49,23.42,104.57,23.46,104.67z"/>
		<path class="st3" d="M26.85,109.29l0.58,0.46c0.09,0.07,0.16,0.16,0.21,0.25h268.81c0.02-0.03,0.03-0.06,0.05-0.09
			c0.14-0.31,0.27-0.64,0.4-0.97c0.12-0.3,0.25-0.62,0.39-0.94H27L26.85,109.29z"/>
		<path class="st3" d="M17.3,113.32L17.3,113.32l-0.92-0.8c-0.16-0.14-0.24-0.32-0.29-0.51h-0.17c-0.4,0.66-0.77,1.27-0.98,1.93
			c-0.01,0.03-0.03,0.04-0.04,0.07h2.19L17.3,113.32z"/>
		<path class="st3" d="M295.22,112H28.03c-0.04,0.07-0.08,0.14-0.13,0.2c-0.36,0.39-0.37,1.08-0.37,1.8h266.53
			c0.14-0.38,0.31-0.75,0.54-1.1C294.82,112.58,295.02,112.28,295.22,112z"/>
		<path class="st3" d="M13.36,118h7.85c-0.11-0.29-0.2-0.58-0.23-0.88l-0.38-0.36c-0.12,0-0.24,0.01-0.37,0.01
			c-0.56,0-1.38-0.04-2.16-0.25c-0.27-0.07-0.5-0.26-0.63-0.52h-5.42c0.27,0.54,0.75,1.28,1.21,1.81
			C13.29,117.86,13.32,117.93,13.36,118z"/>
		<path class="st3" d="M27.1,116c0.02,0.53,0,1.07-0.03,1.6l-0.01,0.25c0,0.05-0.02,0.1-0.04,0.15H293.6
			c-0.05-0.66-0.05-1.34,0.01-2H27.1z"/>
		<path class="st3" d="M23.23,121.96l-1.01-0.61c-0.35-0.21-0.54-0.62-0.47-1.02L21.8,120h-8.97c-0.24,0.34-0.66,0.51-1.06,0.4
			c-0.01,0-0.05-0.01-0.14-0.01c-0.42,0-1,0.22-1.23,0.41c-0.17,0.15-0.39,0.23-0.61,0.24c0,0,0,0,0,0c-0.86,0-1.8-0.42-2.43-0.84
			c-0.27,0.09-0.48,0.25-0.74,0.44c-0.3,0.22-0.63,0.47-1.09,0.64c-0.51,0.19-1.02,0.26-1.47,0.33c-0.62,0.1-1.05,0.17-1.41,0.39
			h20.69C23.31,121.98,23.27,121.98,23.23,121.96z"/>
		<path class="st3" d="M25.19,120.71c-0.02,0.23-0.11,0.44-0.27,0.61l-0.44,0.47c-0.09,0.09-0.19,0.16-0.3,0.21h269.9
			c-0.05-0.51-0.12-1.06-0.2-1.64c-0.02-0.12-0.03-0.24-0.05-0.36H25.25L25.19,120.71z"/>
		<path class="st3" d="M293.94,125.11c-0.06-0.38-0.06-0.75-0.03-1.11H2.96c0.03,0.09,0.05,0.17,0.06,0.22
			c0.29,0.36,1.89,1.34,2.67,1.65c0.08,0.03,0.15,0.08,0.22,0.13h288.2C294.05,125.7,293.99,125.4,293.94,125.11z"/>
		<path class="st3" d="M14.57,128.48c0.54,0.51,0.9,1.02,1.16,1.52h279.6c-0.3-0.58-0.56-1.2-0.71-1.91
			c-0.01-0.03-0.01-0.06-0.02-0.09H13.96C14.17,128.14,14.37,128.3,14.57,128.48z"/>
		<path class="st3" d="M296.57,132H16.31c0.03,0.3,0.04,0.58,0.06,0.84c0.02,0.48,0.05,0.85,0.13,1.16h281.12
			c-0.09-0.3-0.19-0.59-0.34-0.86C297.06,132.75,296.82,132.38,296.57,132z"/>
		<path class="st3" d="M298.47,138c-0.08-0.26-0.16-0.51-0.23-0.77c-0.1-0.41-0.17-0.82-0.23-1.23H20.78l0.66,0.9
			c0.17,0.23,0.23,0.52,0.17,0.79c-0.02,0.12-0.02,0.2-0.04,0.3H298.47z"/>
		<path class="st3" d="M299.62,141.45c-0.12-0.47-0.28-0.95-0.46-1.45H22.01c0.22,0.47,0.46,1.04,0.53,1.82
			c0.01,0.06-0.01,0.12-0.01,0.18h277.18C299.7,141.82,299.67,141.63,299.62,141.45z"/>
		<path class="st3" d="M298.67,145.77c0.27-0.6,0.53-1.19,0.73-1.77H20.11c-0.17,0.12-0.35,0.23-0.55,0.32
			c-0.84,0.39-1.89,0.64-2.86,0.85c0.08,0.26,0.22,0.54,0.37,0.83h281.5C298.6,145.92,298.63,145.85,298.67,145.77z"/>
		<path class="st3" d="M17.98,148c0.04,0.14,0.08,0.28,0.11,0.42c0.04,0.22,0.01,0.45-0.09,0.65c-0.19,0.36-0.3,0.66-0.38,0.93
			h279.81c0.03-0.32,0.05-0.64,0.1-0.96c0.06-0.35,0.15-0.7,0.25-1.04H17.98z"/>
		<path class="st3" d="M17.56,152c0.02,0.36,0,0.76-0.16,1.23c-0.09,0.28-0.23,0.53-0.36,0.77h280.28c-0.03-0.66-0.03-1.33-0.02-2
			H17.56z"/>
		<path class="st3" d="M16.7,156.23c0.03,0.25,0.01,0.49,0,0.74c-0.01,0.16-0.02,0.33-0.01,0.42c0.02,0.16,0.11,0.38,0.23,0.61
			h280.62c-0.03-0.45-0.05-0.9-0.08-1.36c-0.01-0.21-0.03-0.43-0.04-0.64H16.65C16.67,156.1,16.69,156.18,16.7,156.23z"/>
		<path class="st3" d="M297.62,160H17.83c0.02,0.62-0.17,1.29-0.55,2h280.3C297.62,161.34,297.64,160.67,297.62,160z"/>
		<path class="st3" d="M297.33,164H15.78c-0.17,0.18-0.35,0.37-0.54,0.56c-0.15,0.14-0.33,0.23-0.53,0.27l-0.11,0.02l0.13,0.7
			l1.09,0.46h280.83C296.93,165.35,297.18,164.69,297.33,164z"/>
		<path class="st3" d="M17.37,168c0.14,0.24,0.3,0.46,0.45,0.6c0.25,0.22,0.37,0.56,0.33,0.89c-0.03,0.18-0.04,0.35-0.04,0.51
			h276.02c0.5-0.66,0.98-1.33,1.41-2H17.37z"/>
		<path class="st3" d="M291.01,174c0.51-0.68,1.03-1.34,1.55-2H18.67c0.2,0.37,0.44,0.76,0.73,1.18c0.12,0.18,0.18,0.39,0.17,0.6
			L19.57,174H291.01z"/>
		<path class="st3" d="M15.79,178h272.72c0.33-0.69,0.71-1.35,1.12-2H18.96c-0.73,0.88-1.92,1.68-3.07,1.87L15.79,178z"/>
		<path class="st3" d="M12.06,181.74c0.02,0.09,0.03,0.17,0.03,0.26h275.19c0.1-0.69,0.24-1.36,0.44-2H14.07
			c-0.02,0.01-0.04,0.03-0.07,0.04l-1.81,0.66C12.07,181.02,12,181.51,12.06,181.74z"/>
		<path class="st3" d="M17.43,188.83c0.03-0.35,0.24-0.65,0.55-0.8c0.01,0,0.02-0.02,0.03-0.02h-6.35c0.05,0.12,0.09,0.21,0.11,0.27
			c0.08,0.27,0.12,0.53,0.14,0.76c0.02,0.14,0.03,0.28,0.07,0.4c0.06,0.19,0.12,0.38,0.18,0.56h5.03
			C17.31,189.59,17.39,189.17,17.43,188.83z"/>
		<path class="st3" d="M35.04,193.1c0.12-0.12,0.28-0.21,0.45-0.26c0.52-0.14,1.15-0.15,1.76-0.13c0.24,0.01,0.47,0.03,0.66-0.01
			c0.16-0.04,0.64-0.21,1.09-0.36c0.57-0.2,0.86-0.29,1.04-0.34H27.45c0.01,0.01,0.01,0.02,0.02,0.04c0.05,0.1,0.13,0.25,0.17,0.29
			c0.21,0.18,1.35,0.71,1.77,0.82c0.4,0.1,0.67,0.45,0.73,0.85h4.2C34.52,193.7,34.74,193.39,35.04,193.1z"/>
		<path class="st3" d="M38.08,208.34c-0.82,0.54-1.67,1.1-2.62,1.21L35.07,210h9.15c-0.11-0.09-0.21-0.21-0.27-0.34
			c-0.21-0.46-0.98-1.12-1.76-1.66h-3.58C38.44,208.11,38.26,208.22,38.08,208.34z"/>
		<path class="st3" d="M322.04,237.82c-0.29-0.6-0.7-1.21-1.12-1.82h-1.73c-0.1,0.28-0.2,0.59-0.29,0.88
			c-0.12,0.38-0.24,0.76-0.37,1.12h3.57C322.08,237.94,322.06,237.87,322.04,237.82z"/>
		<path class="st3" d="M322.85,240.87l-0.22-0.64c-0.03-0.08-0.04-0.15-0.06-0.23h-5.25c-0.08,0.06-0.16,0.12-0.25,0.17
			c-0.31,0.17-0.64,0.28-0.93,0.38c-0.26,0.09-0.51,0.18-0.71,0.29c-0.52,0.31-0.97,0.71-1.41,1.16h9.21
			C323.11,241.64,322.99,241.27,322.85,240.87z"/>
		<path class="st3" d="M323.88,244h-11.5c0,0.01-0.01,0.01-0.01,0.02c-0.5,0.67-1.02,1.36-1.6,1.98h13.57
			C324.23,245.34,324.07,244.69,323.88,244z"/>
		<path class="st3" d="M171.05,248.77l0.49,1.23h119.75c-0.77-0.61-1.41-1.18-1.7-1.57c-0.09-0.12-0.19-0.27-0.28-0.43H168.89
			l1.33,0.14C170.59,248.18,170.91,248.42,171.05,248.77z"/>
		<path class="st3" d="M308.84,248c-0.42,0.43-0.83,0.87-1.22,1.32c-0.2,0.23-0.38,0.46-0.57,0.68h17.35c0.07-0.73,0.1-1.39,0.09-2
			H308.84z"/>
		<path class="st3" d="M18.55,252l0.21,0.94l0.62,1.01c0.01,0.02,0.01,0.03,0.02,0.05h129.42l2.29-2H18.55z"/>
		<path class="st3" d="M303.36,253.44c-0.54,0.29-1.28,0.43-2.26,0.43c-1.96,0-4.32-0.56-5.37-0.95c-0.37-0.14-0.97-0.48-1.65-0.92
			H172.32l0.78,1.98l0.02,0.02h150.42c0.12-0.18,0.23-0.37,0.31-0.57c0.17-0.43,0.24-0.92,0.31-1.43H305.3
			C304.76,252.53,304.14,253.01,303.36,253.44z"/>
		<path class="st3" d="M19.82,256.3c0.27,0.13,0.46,0.38,0.53,0.67l0.21,0.9l0.09,0.13H136.4l0.51-1.45
			c0.09-0.25,0.27-0.44,0.49-0.55H19.48l-0.03,0.12L19.82,256.3z"/>
		<path class="st3" d="M176.09,257.06c0.23,0.24,0.33,0.58,0.26,0.91l-0.01,0.03h144.43c0.08-0.24,0.16-0.48,0.26-0.71
			c0.21-0.49,0.49-0.91,0.8-1.29H175.06L176.09,257.06z"/>
		<path class="st3" d="M21.38,260.27l0.16,0.75l0.69,0.5c0.16,0.12,0.27,0.29,0.34,0.48h112.41l0.71-2H21.37L21.38,260.27z"/>
		<path class="st3" d="M175.48,262H319.5c0.13-0.66,0.28-1.34,0.55-2H175.91L175.48,262z"/>
		<path class="st3" d="M120.59,264H22.64l-0.32,0.77c-0.04,0.1-0.1,0.2-0.17,0.28L21.31,266h95.49L120.59,264z"/>
		<path class="st3" d="M174.61,266h143.35c0.42-0.53,0.78-1.06,1-1.65c0.04-0.11,0.07-0.24,0.1-0.35H175.04L174.61,266z"/>
		<path class="st3" d="M127.11,265.04c0.38,0.17,0.6,0.56,0.58,0.96h5.87l0.71-2h-9.5L127.11,265.04z"/>
		<path class="st3" d="M126.23,270h5.91l0.71-2h-5.81C126.8,268.63,126.52,269.34,126.23,270z"/>
		<polygon class="st3" points="114.48,270 115.48,268 18.02,268 17.93,269.02 18.41,270 		"/>
		<path class="st3" d="M176.69,268.78c0.56,0.4,0.95,0.81,1.24,1.22h137.58c0.04-0.17,0.08-0.33,0.14-0.51
			c0.18-0.55,0.45-1.03,0.75-1.49H175.72C176,268.25,176.32,268.51,176.69,268.78z"/>
		<path class="st3" d="M125.55,272.61c0.2,0.39,0.48,0.58,0.56,0.59c1.07-0.07,2.81-0.15,2.81-0.15c0.25-0.01,0.49,0.07,0.68,0.23
			l0.85,0.71h0.26l0.71-2h-6.03C125.41,272.26,125.49,272.5,125.55,272.61z"/>
		<path class="st3" d="M113.49,272H18.82c-0.06,0.66-0.26,1.31-0.49,1.86c0.01,0.05,0.02,0.09,0.03,0.14h94.12L113.49,272z"/>
		<path class="st3" d="M315.96,273.13c-0.14-0.34-0.3-0.71-0.41-1.13H178.56c0,0.37-0.05,0.69-0.08,0.94
			c-0.02,0.12-0.04,0.22-0.04,0.3c0,0.1,0.02,0.38,0.04,0.76h137.81C316.2,273.7,316.08,273.42,315.96,273.13z"/>
		<path class="st3" d="M315.43,278c0.1-0.23,0.21-0.44,0.32-0.63c0.1-0.2,0.21-0.39,0.29-0.59c0.11-0.29,0.18-0.54,0.25-0.78H178.64
			c0.05,0.63,0.11,1.32,0.17,2H315.43z"/>
		<path class="st3" d="M111.14,276H25.01c0.19,0.43,0.5,0.91,0.8,1.19c0.22,0.21,0.34,0.51,0.31,0.81h83.69
			C110.1,277.15,110.65,276.47,111.14,276z"/>
		<path class="st3" d="M316.42,282c-0.12-0.22-0.27-0.43-0.43-0.65c-0.27-0.38-0.57-0.82-0.73-1.35H178.99
			c0.01,0.11,0.02,0.21,0.03,0.32c0.03,0.36-0.13,0.71-0.44,0.92l-1.13,0.77H316.42z"/>
		<path class="st3" d="M109.09,280h-82.6c0.09,0.16,0.19,0.3,0.3,0.42c0.24,0.24,0.34,0.59,0.26,0.93L26.9,282h1.26
			c0.05-0.03,0.09-0.06,0.14-0.09c0.42-0.27,0.95-0.6,1.71-0.75c0.32-0.06,0.64,0.03,0.88,0.25c0.2,0.19,0.44,0.38,0.68,0.58h77.27
			C108.76,281.3,108.9,280.61,109.09,280z"/>
		<path class="st3" d="M173.48,284.69c-0.2,0.13-0.45,0.19-0.69,0.16l-1.06-0.14l-0.57,1.28h144.1c0.33-0.47,0.63-0.91,0.86-1.35
			c0.12-0.24,0.22-0.45,0.3-0.65H174.5L173.48,284.69z"/>
		<path class="st3" d="M116.5,285.94c-0.21-0.03-0.43-0.04-0.67-0.06c-1.17-0.09-2.76-0.2-5.06-1.36c-0.32-0.16-0.58-0.34-0.81-0.52
			H37.09l0.95,2h78.94C116.79,285.98,116.63,285.96,116.5,285.94z"/>
		<path class="st3" d="M169.98,288.67l-0.43,1.33h143.93c0.01-0.18,0.02-0.36,0.05-0.54c0.1-0.52,0.29-1,0.51-1.46H170.28
			L169.98,288.67z"/>
		<path class="st3" d="M123.08,288H56.6c0.13,0.09,0.26,0.18,0.39,0.28c0.44,0.32,0.9,0.65,1.27,0.82c0.05,0.02,0.2,0.03,0.36,0.04
			c0.52,0.04,1.31,0.1,2.24,0.86h64.53L123.08,288z"/>
		<path class="st3" d="M168.25,294h143.7c0.13-0.16,0.27-0.31,0.41-0.46c0.45-0.5,0.88-0.97,1.04-1.51c0-0.01,0-0.02,0-0.03H168.9
			L168.25,294z"/>
		<path class="st3" d="M61.67,293.31c-0.01,0.24-0.01,0.46,0,0.69h52.28c1.09-1.13,2.6-1.72,3.71-1.72c0.2,0,0.6,0.01,1.12,0.02
			c0.95,0.02,2.31,0.04,3.62,0.04c1.2,0,2.13-0.02,2.76-0.07c0.28-0.02,0.39-0.12,0.47-0.21c0.01-0.02,0.02-0.04,0.03-0.06h-64
			C61.69,292.46,61.68,292.91,61.67,293.31z"/>
		<path class="st3" d="M112.23,297.34c0.16-0.47,0.32-0.92,0.49-1.34H62.29l0.48,1.08c0.29,0.42,0.77,0.73,1.32,0.92h47.91
			C112.07,297.78,112.15,297.56,112.23,297.34z"/>
		<path class="st3" d="M167.57,296.07c-0.05,0.17-0.15,0.32-0.28,0.44l-1.66,1.49h144.52c0.16-0.63,0.36-1.33,0.62-2H167.6
			L167.57,296.07z"/>
		<path class="st3" d="M166.04,302h143.54c0.03-0.3,0.06-0.61,0.09-0.93c0.03-0.35,0.06-0.71,0.1-1.07H165.33
			C165.58,300.58,165.82,301.27,166.04,302z"/>
		<path class="st3" d="M109.61,302c0.26-0.59,0.62-1.1,1.05-1.47c0.15-0.13,0.3-0.31,0.44-0.53H68.26c0.28,0.6,0.35,1.14,0.41,1.67
			c0.01,0.11,0.03,0.22,0.04,0.33H109.61z"/>
		<path class="st3" d="M166.59,305.4c0,0.21-0.02,0.4-0.03,0.6h142.29c0.09-0.64,0.21-1.3,0.35-2H166.48
			C166.54,304.47,166.59,304.94,166.59,305.4z"/>
		<path class="st3" d="M71.1,304c0.64,0.31,1.29,0.69,1.83,1.27c0.13,0.15,0.32,0.41,0.52,0.73h35.95c-0.1-0.29-0.19-0.59-0.23-0.91
			c-0.05-0.36-0.06-0.72-0.04-1.09H71.1z"/>
		<path class="st3" d="M75.01,309.85c0,0.06,0,0.11,0,0.15h40.11c-0.33-0.14-0.67-0.27-1-0.4c-0.66-0.26-1.38-0.55-2.13-0.88
			c-0.44-0.19-0.83-0.44-1.18-0.72H74.6c0.17,0.33,0.3,0.61,0.36,0.77c0.11,0.31,0.08,0.57,0.06,0.7L75.01,309.85z"/>
		<path class="st3" d="M165.82,310h142.61l0.06-0.62c0.04-0.48,0.09-0.93,0.13-1.38H166.35C166.2,308.81,166,309.49,165.82,310z"/>
		<polygon class="st3" points="160,313.85 159.83,314 242.99,314 244.97,312 163.97,312 		"/>
		<path class="st3" d="M262.78,314h44.77c0.1-0.45,0.21-0.89,0.33-1.34c0.06-0.23,0.11-0.44,0.17-0.66H260.1
			C261.07,312.61,262.17,313.36,262.78,314z"/>
		<polygon class="st3" points="137.56,314 150.49,314 150.35,312 141.05,312 		"/>
		<path class="st3" d="M117.16,312H75.51l0.08,0.29c0.02,0.08,0.03,0.17,0.03,0.25c0,0.39-0.1,0.74-0.19,1.06
			c-0.04,0.14-0.08,0.28-0.1,0.4h42.1c-0.04-0.28-0.08-0.57-0.12-0.82C117.25,312.77,117.2,312.38,117.16,312z"/>
		<path class="st3" d="M268.26,316.48l0.77,1.39c0.02,0.04,0.03,0.09,0.04,0.13h37.7c0.14-0.64,0.26-1.3,0.38-1.98
			c0-0.01,0-0.01,0-0.02h-39.53C267.89,316.07,268.13,316.24,268.26,316.48z"/>
		<path class="st3" d="M75.88,316c0.23,0.71,0.43,1.38,0.57,2h26.06c-0.05-0.76,0-1.44,0.15-2H75.88z"/>
		<path class="st3" d="M157.22,316.21c-0.15,0.13-0.33,0.21-0.53,0.23l-2.82,0.34c-0.1,0.01-0.21,0.01-0.31-0.01l-2.16-0.42
			c-0.23-0.05-0.43-0.17-0.58-0.35h-13.54l0.22,2h96.73l0.71-1.28c0.11-0.19,0.27-0.34,0.47-0.43l0.65-0.29h-78.6L157.22,316.21z"/>
		<path class="st3" d="M268.37,322h14.47l1.17-0.76c0.17-0.12,0.38-0.18,0.59-0.16l3.08,0.13c0.11,0,0.22,0.03,0.32,0.07l1.87,0.73
			h15.36c0.33-0.65,0.65-1.31,0.94-2h-37.34L268.37,322z"/>
		<path class="st3" d="M232.87,320.59c0.02-0.11,0.06-0.22,0.11-0.32l0.15-0.27h-96.35l-0.58,0.94c0.07,0.26,0.17,0.64,0.28,1.06
			h96.15L232.87,320.59z"/>
		<path class="st3" d="M73.88,321.88l-0.1,0.12h29.88c-0.34-0.67-0.59-1.34-0.78-2H76.66c-0.03,0.29-0.08,0.55-0.19,0.77
			c-0.12,0.25-0.35,0.44-0.62,0.52L73.88,321.88z"/>
		<path class="st3" d="M232.31,325.83c-0.17-0.22-0.24-0.51-0.2-0.78l0.18-1.05h-95.28c0.22,0.84,0.41,1.57,0.47,1.78l0.05,0.2
			c0,0.01,0,0.02,0.01,0.02h94.9L232.31,325.83z"/>
		<path class="st3" d="M295.16,324.06l6.23,1.94h1.78c0.32-0.68,0.66-1.35,1-2h-9.16L295.16,324.06z"/>
		<path class="st3" d="M267.9,324.09c0.18,0.68,0.39,1.35,0.51,1.67c0.15,0.07,0.39,0.15,0.67,0.24h5.84l1.2-1.14
			c0.22-0.21,0.51-0.31,0.81-0.27l1.63,0.19l1.2-0.78h-11.84L267.9,324.09z"/>
		<path class="st3" d="M105.15,324.27c-0.07-0.09-0.13-0.18-0.2-0.27h-33.2c-0.66,0.24-1.5,0.33-2.15,0.17l-0.46,0.17
			c-0.21,0.47-0.38,1.04-0.47,1.5c0.16-0.04,0.32-0.08,0.49-0.12c0.9-0.24,2.13-0.44,3.38,0.03c0.14,0.05,0.27,0.14,0.37,0.25
			l0.01,0.01h19.51c0.08-0.04,0.15-0.09,0.23-0.11c0.38-0.08,0.8-0.03,1.26,0.11h12.8C106.27,325.55,105.76,325,105.15,324.27z"/>
		<path class="st3" d="M207.02,328.11c0.17,0.03,0.34,0.1,0.47,0.21l2.06,1.67h17.72l1.18-2H206.3L207.02,328.11z"/>
		<path class="st3" d="M138.06,330h65.54l1.02-1.65c0.1-0.16,0.23-0.27,0.39-0.35h-67.05C138.04,328.59,138.08,329.27,138.06,330z"
			/>
		<path class="st3" d="M76.69,328.73l2.82,0.24l0.41-0.3c0.05-0.22,0.12-0.45,0.21-0.67h-4.7C75.9,328.19,76.35,328.45,76.69,328.73
			z"/>
		<polygon class="st3" points="232.27,328 233.86,328.71 234.18,328.24 234,328 		"/>
		<path class="st3" d="M109.81,328.41c-0.19-0.15-0.38-0.29-0.56-0.41H97.48c0.09,0.06,0.18,0.11,0.25,0.14
			c0.3,0.15,0.85,0.1,1.48,0.02c0.39-0.05,0.78-0.1,1.2-0.1c0.79,0,1.43,0.2,1.97,0.62c0.05,0.04,0.1,0.09,0.15,0.14
			c0.35,0.42,0.65,0.81,0.93,1.18h7.73C110.95,329.44,110.35,328.85,109.81,328.41z"/>
		<path class="st3" d="M85.41,328.29l1.51-0.28c0,0,0.01-0.01,0.02-0.01h-1.76C85.26,328.1,85.34,328.2,85.41,328.29z"/>
		<path class="st3" d="M104.6,332c0.04,0.1,0.09,0.21,0.12,0.31c0.1,0.33,0.17,0.69,0.24,1.05c0.04,0.23,0.09,0.44,0.14,0.64h4.74
			c0.04-0.09,0.08-0.17,0.1-0.23c-0.19-0.6,0.12-1.2,0.49-1.77H104.6z"/>
		<polygon class="st3" points="214.12,334 220.49,334 222.53,332 212,332 		"/>
		<path class="st3" d="M139.15,333.66c0.17,0.05,0.37,0.17,0.59,0.34h56.91l0.28-2h-59.06
			C137.83,333.17,138.43,333.45,139.15,333.66z"/>
		<path class="st3" d="M143.33,338h50.53l0.59-1.11c0.03-0.06,0.07-0.12,0.11-0.17l0.6-0.72h-53.43
			C142.28,336.65,142.84,337.35,143.33,338z"/>
		<path class="st3" d="M145,340.28c0.37,0.61,1.43,0.96,2.91,0.96c1.7,0,6.13-0.46,6.81-0.76c0.22-0.09,0.54-0.27,0.89-0.47h-10.81
			C144.93,340.17,145,340.27,145,340.28z"/>
		<path class="st3" d="M166.53,341.6l0.39,0.4h16.39l0.24-0.52c0.11-0.23,0.3-0.42,0.54-0.51l2.39-0.97h-20.65L166.53,341.6z"/>
		<polygon class="st3" points="178.01,344.73 181.97,344.96 182.41,344 175.91,344 		"/>
		<path class="st3" d="M154.33,248.74l-0.82-0.67l0-0.07H16.92l-0.22,0.42l-0.11,0.65l0.22,0.62l0.3,0.31h136.27l1.02-0.89
			c0.09-0.08,0.2-0.14,0.31-0.18L154.33,248.74z"/>
		<g>
			<path class="st3" d="M167.58,244.13l-0.82,1.28l-0.09,0.29l0.11,0.3H288.5c-0.21-0.71-0.36-1.42-0.41-2H167.62L167.58,244.13z"/>
			<path class="st3" d="M153.42,245.94l0.21-0.72l0.4-0.55l0.21-0.68H21.56c-0.44,0.49-0.94,0.94-1.58,1.19
				c-0.38,0.15-0.75,0.22-1.07,0.29c-0.24,0.05-0.45,0.09-0.64,0.16c-0.03,0.12-0.08,0.24-0.13,0.36h135.28V245.94z"/>
		</g>
		<g>
			<path class="st3" d="M154.58,240.56l0.38-0.11l0.09-0.45h-9.81l-0.37,0.19l-0.74,0.84l-0.14-0.48l0.03-0.54H29.84
				c-0.07,0.07-0.12,0.14-0.19,0.21c-0.26,0.25-0.6,0.41-0.9,0.56c-0.13,0.06-0.26,0.12-0.36,0.19c-0.11,0.08-0.22,0.2-0.34,0.31
				c-0.21,0.21-0.46,0.45-0.76,0.63c-0.06,0.04-0.13,0.06-0.2,0.1h127.63L154.58,240.56z"/>
			<path class="st3" d="M168.17,240l-0.28,0.43l-0.24,1.11l0.09,0.46h120.5c0.1-0.66,0.23-1.39,0.36-2H168.17z"/>
		</g>
		<g>
			<polygon class="st3" points="154.25,236.07 153.84,236.03 153.52,236.57 152.7,236.79 152.21,236.61 150.85,237.07 149.2,237.26 
				149.01,237.48 149.01,238 154.5,238 154.53,237.87 155.03,237.1 154.97,236.76 			"/>
			<path class="st3" d="M171.94,236c-0.03,0.06-0.47,0.91-0.47,0.93c0,0.02-0.33,0.32-0.33,0.32l-1.44-0.46l-0.45,1.2h120.31
				c0.7-0.73,1.69-1.28,2.72-1.84c0.1-0.05,0.19-0.11,0.29-0.16H171.94z"/>
			<path class="st3" d="M143.5,237.49l-0.03-0.55l0.37-0.65l-0.09-0.29H32.25c0.02,0.62-0.09,1.29-0.49,2h111.47L143.5,237.49z"/>
		</g>
		<g>
			<polygon class="st3" points="177.16,232.19 176.84,232.99 176.4,233.41 175.88,233 176.22,232.26 176.21,232 173.26,232 
				173.32,232.23 172.42,233.08 171.87,233.12 171.49,233.07 171.13,233.56 171.39,234 182.56,234 182.48,233.88 182.13,233.25 
				180.47,232.3 179.42,232.11 179.28,232 177.38,232 			"/>
			<polygon class="st3" points="183.69,233.97 183.57,234 183.75,234 			"/>
			<path class="st3" d="M143.67,232.78l-0.84-0.66l0.06-0.12H31.95c-0.21,0.74-0.16,1.38-0.04,2h112.03L143.67,232.78z"/>
			<path class="st3" d="M187.82,232l0.04,0.51l-0.67,0.49l-0.5,0.2l-0.37,0.56l-0.97,0.11l-0.17,0.13h110.14
				c0.41-0.5,0.69-1.07,0.77-1.78c0.01-0.08,0.01-0.14,0.01-0.22H187.82z"/>
		</g>
		<g>
			<path class="st3" d="M143.29,229.82l-0.47-0.32l0.13-0.65l0.06-0.53l-0.31-0.32H33.5c0.03,0.44,0.02,0.87-0.04,1.25
				c-0.03,0.18-0.1,0.34-0.22,0.48c-0.08,0.09-0.13,0.18-0.2,0.27h110.25L143.29,229.82z"/>
			<path class="st3" d="M192.17,228.15l-0.75,0.14l-0.3-0.04l-0.17,0.66l-0.05,0.6l-0.21,0.48h104.79c-0.28-0.34-0.65-0.65-1.07-1
				c-0.34-0.29-0.71-0.63-1.07-1H192.21L192.17,228.15z"/>
			<polygon class="st3" points="175.44,230 174.89,229.42 174.8,230 			"/>
		</g>
		<g>
			<path class="st3" d="M193.81,225.1l-0.44,0.71l0.05,0.19h98.54c-0.31-0.65-0.53-1.32-0.67-2h-97.92L193.81,225.1z"/>
			<path class="st3" d="M141.03,225.84l-0.72-0.61l0.09-0.47l0.43-0.71l0.02-0.06H37.2c0,0,0,0.01,0,0.01c0,0.2-0.07,0.4-0.19,0.56
				c-0.43,0.6-1.19,1.07-1.96,1.43h105.98V225.84z"/>
		</g>
		<g>
			<path class="st3" d="M200.39,220.11l-0.09,0.81l0.08,0.67l-0.35,0.16l-1.03-0.01l-1.22,0.03l-0.82-0.19l-0.82-0.32l-0.61,0.17
				l-0.83-0.17l-0.48,0.74h96.8c-0.04-0.68-0.04-1.34-0.03-2h-90.6L200.39,220.11z"/>
			<path class="st3" d="M140.36,221.67l0.13-0.52l-0.63-0.73l-0.74-0.16l-0.07-0.26H37.71c-0.19,0.36-0.37,0.71-0.46,0.89
				c-0.04,0.29-0.06,0.7-0.06,1.11h103.25L140.36,221.67z"/>
		</g>
		<g>
			<path class="st3" d="M201.7,217.31l-0.54,0.69h89.86c0-0.72-0.05-1.39-0.16-2h-89.98L201.7,217.31z"/>
			<path class="st3" d="M139.47,217.74l0.41,0.26h0.86l0.36-0.52l0.02-1.19l0.15-0.29H37.18c0.28,0.71,0.6,1.37,0.97,1.82
				c0.05,0.06,0.08,0.12,0.11,0.18h101.02L139.47,217.74z"/>
		</g>
		<g>
			<path class="st3" d="M198.92,212.8l1.29,0.57l0.02,0.63h89.61c-0.31-0.31-0.67-0.61-1.06-0.92c-0.41-0.34-0.84-0.69-1.23-1.08
				h-88.84C198.79,212.23,198.92,212.8,198.92,212.8z"/>
			<path class="st3" d="M139.37,213.8l-0.31-0.19l-0.17-0.58l-0.53-0.72l-0.08-0.31h-4.3l-0.03,0.16l-0.41,0.36l-0.73,1.18
				l-0.84,0.05l-0.07-1.05l-0.21-0.43l-0.1-0.27H35.66c0.12,0.23,0.23,0.46,0.32,0.69c0.16,0.39,0.32,0.85,0.48,1.31h103
				L139.37,213.8z"/>
		</g>
		<g>
			<polygon class="st3" points="155.86,208.42 156.18,208 155.27,208 155.29,208.24 			"/>
			<path class="st3" d="M166.2,208.68l-0.28,0.73l0.25,0.32l1.14,0.26h1.47l0.51-0.12l0.49,0.02l0.02,0.11h1.11l0.5-0.22
				c0,0,0.74,0.17,0.81,0.19s0.79-0.23,0.79-0.23l0.56,0.26h2.02v-0.17l0.27-0.6h0.85c0,0,0.42,0.55,0.43,0.57
				c0.01,0.02,0.4,0.14,0.59,0.2h6.57l0.52-0.98l-0.44-0.68l0.67-0.25l-0.03-0.09h-18.58L166.2,208.68z"/>
			<path class="st3" d="M130.41,208.75l-0.35-0.7l-0.03-0.05H49.3c0,0.28-0.1,0.55-0.32,0.75c-0.67,0.6-1.45,1.01-2.29,1.25h83.65
				L130.41,208.75z"/>
			<path class="st3" d="M286.38,208h-90.97l0.58,0.14l0.72,0.27l0.59,1.21l1.35-0.02l0.01,0.4h87.64c-0.05-0.2-0.09-0.41-0.11-0.62
				C286.16,208.91,286.24,208.46,286.38,208z"/>
			<polygon class="st3" points="161.3,208 161.66,208.29 161.79,208 			"/>
		</g>
		<g>
			<polygon class="st3" points="128.81,204 126.93,204 126.9,204.05 126.09,204.39 125.61,204.1 124.68,205 124.05,205 
				123.31,205.39 123.12,205.74 122.76,206 129.45,206 128.61,205.2 128.11,205.39 127.87,205.13 128.16,204.78 			"/>
			<path class="st3" d="M120.57,205.8v-0.84l-0.55-0.77l-0.04-0.19H47.77c0.18,0.06,0.35,0.16,0.46,0.31
				c0.19,0.25,0.27,0.57,0.19,0.87c-0.02,0.14,0.04,0.45,0.15,0.82h72.12L120.57,205.8z"/>
			<path class="st3" d="M155.46,204l0.02,0.19l-0.72,0.42l0.06,0.18l0.44,0.24l-0.18,0.97h3.7l0.06-0.04v-0.24l0.7-0.25l0.46,0.32
				l0.19,0.2h27.79l0.19-0.14l1.11-0.17l0.39,0.31h97.6c0.33-0.66,0.64-1.32,0.83-2H155.46z"/>
		</g>
		<g>
			<path class="st3" d="M118.07,201.67l-1.13-0.94l0.11-0.73H45.26l-0.01,0.22c0.35,0.54,0.61,1.15,0.78,1.78h71.95L118.07,201.67z"
				/>
			<path class="st3" d="M156.06,200.25l-0.31,0.63l0.01,0.36l-0.94,0.51l0.07,0.23h133.41c0.01-0.63-0.01-1.3-0.04-2H155.91
				L156.06,200.25z"/>
		</g>
		<g>
			<path class="st3" d="M153.92,196.35l0.26,0.39l0.77,0.06l0.55,0.5l0.46,0.36l0.05,0.35h132.14c-0.05-0.66-0.1-1.32-0.16-2H153.45
				L153.92,196.35z"/>
			<path class="st3" d="M117.58,197.3l-0.06-0.89l0.08-0.41H48.1c0.26,0.45,0.15,1.03-0.29,1.32c-0.29,0.2-0.59,0.43-0.89,0.68
				h70.15L117.58,197.3z"/>
		</g>
		<g>
			<path class="st3" d="M140.09,192.66l0.03,0.64l0.3,0.57l0.01,0.13h1.81l0.17-0.01l0.03,0.01h1.48l0.51-0.85l0.55-0.1l2.65,0.52
				l0.33,0.04l0.14,0.39h139.69c-0.01-0.11-0.02-0.22-0.03-0.33c-0.05-0.57-0.11-1.12-0.16-1.67H139.9L140.09,192.66z"/>
			<path class="st3" d="M118.08,193.97l-0.8-0.57l-0.71-0.5h-0.37l-0.29-0.6l-0.23-0.3H40.74c0.4,0.06,1.22,0.21,3.07,0.57
				c0.26,0.05,0.49,0.2,0.64,0.42l0.52,0.75l0.77,0.26h72.36L118.08,193.97z"/>
		</g>
		<g>
			<path class="st3" d="M130.1,188.01l0.58,0.24l0.74-0.15l0.96,0.11l0.34-0.1l0.31,0.64l0.54-0.12l0.48-0.24l0.44,0.21l0.42,0.25
				l0.66,0.01l0.31,0.45l0.33,0.69h0.7l0.42-0.21l0.53,0.21l0.26,0.01h149.34c-0.03-0.43-0.06-0.86-0.08-1.26
				c-0.01-0.25-0.02-0.5-0.01-0.74H129.98L130.1,188.01z"/>
			<polygon class="st3" points="120.19,188.15 120.35,188 119.99,188 			"/>
			<path class="st3" d="M116.68,189.32l0.74,0.06l0.75-0.06l0.74-0.51l0.34-0.69l0.26-0.12H22.71c0.08,0.52,0.13,1.01,0.16,1.39
				l0.47,0.49c0.26,0.02,0.55,0.06,0.87,0.12h92.05L116.68,189.32z"/>
		</g>
		<g>
			<path class="st3" d="M125.71,184.35l0.84,0.86l-0.02,0.79h160.87c0-0.15,0-0.31-0.02-0.46c-0.02-0.24-0.06-0.47-0.09-0.7
				c-0.04-0.27-0.08-0.56-0.1-0.84H124.59L125.71,184.35z"/>
			<path class="st3" d="M120.38,185.98l0.61-0.4l0.97-1.57H10.75c0,0,0,0,0,0.01c0.38,0.64,0.48,1.35,0.51,1.99h8.52l1.13-0.44
				c0.46-0.18,0.97,0.02,1.22,0.44h98.26L120.38,185.98z"/>
		</g>
	</g>
</g>
</svg>
