<?xml version="1.0" encoding="utf-8"?>
<!-- Generator: Adobe Illustrator 16.0.0, SVG Export Plug-In . SVG Version: 6.00 Build 0)  -->
<!DOCTYPE svg PUBLIC "-//W3C//DTD SVG 1.1//EN" "http://www.w3.org/Graphics/SVG/1.1/DTD/svg11.dtd">
<svg version="1.1" xmlns="http://www.w3.org/2000/svg" xmlns:xlink="http://www.w3.org/1999/xlink" x="0px" y="0px" width="304px"
	 height="269px" viewBox="0 0 304 269" enable-background="new 0 0 304 269" xml:space="preserve">
<g id="Layer_1">
	<g>
		
			<path fill="#00808E" stroke="#00808E" stroke-width="3" stroke-linecap="round" stroke-linejoin="round" stroke-miterlimit="10" d="
			M299.923,121.798l-0.254-2.109l-1.392-1.416l-2.636,1.345l-5.001-1.676l-5.155-4.392l-4.113-7.658l-6.153-2.482l-2.837-2.373
			c0,0-1.066,0.735-1.562,0.509c-0.488-0.216-9.003-2.93-9.003-2.93l-0.125-3.762l-2.218-0.041l-1.144-3.786l3.75-1.623l2.759-2.421
			l-0.54-7.011l-1.423-0.949l-3.447,1.686l-3.379-1.029l-2.952-2.79l-4.506-3.663l-1.399-0.223l-1.453,2.348l-6.039,0.103
			l-0.463,3.354l-2.257,2.736l-1.462,2.752l-2.024,0.564l-1.375-1.214l-6.083,2.464l-1.88,4.136l-4.821-0.286l-6.602-2.287
			l-4.43-0.078l-1.181-1.213l-0.958-2.195l-6.432-0.509c0,0-2.318,1.522-3.253,1.925c-0.935,0.408-5.642,0.85-7.266,0.85
			c-1.629,0-3.144-0.379-3.786-1.437c-0.649-1.05-4.406-5.961-5.318-6.232c-0.92-0.269-2.359-0.856-1.941-3.369
			c0.425-2.513-0.295-4.708-0.44-5.295c-0.146-0.597-1.4-5.27-1.4-5.27l-3.044,1.73l-0.256,2.969l0.542,3.772
			c0,0-0.782,0.503-2.435,1.151c-1.653,0.648-6.238,0.085-6.238,0.085s-2.96-0.195-4.042,0.926c-1.082,1.111-4.19,3.749-4.19,3.749
			l-2.798,0.595l-2.736,0.049l-0.223,0.114l-2.503,1.332c-1.199-0.342-2.606-1.115-3.101-2.319c-0.278-0.674-0.339-1.548-0.557-2.25
			c-0.324-1.06-1.33-2.341-2.025-3.161c-1.291-1.005-3.191,0.247-4.513-0.434c-0.975-0.494-3.347-2.427-4.413-2.188
			c-0.929,0.75-2.391,1.099-3.55,0.79c-0.833,0.302-1.599,1.127-2.178,1.337l-1.524,0.286l-0.765,0.147
			c-0.558-0.999-1.847-2.383-3.099-2.313c-0.487,0.448-0.998,1.446-1.015,2.125l-1.058,0.792l-3.556-0.304
			c-0.441-0.464-1.452-1.019-2.126-0.975l-1.978-2.063c-1.957-0.726-2.908,0.363-4.515,0.241c-0.332-0.851,0.316-2.685,0.712-3.411
			l1.168-0.424c0.556,0.263,1.615,0.131,2.125-0.186l1.622-1.948l2.29-0.673c0.524-1.074-0.881-4.629-1.222-5.774
			c-0.216-0.711,0.254-1.431,0.254-2.072l-0.4-1.545c-0.255-0.957-0.203-0.68-0.203-1.537c0-0.154,0.047-0.249,0-0.387
			c-0.169-0.486-1.405-2.705-1.83-3.169c-1.138-1.229-2.953-1.401-4.206-2.496c-0.705-1.981,0.139-2.768-1.832-4.5
			c-1.5,0.512-3.494-0.098-4.352-1.46l-0.649-1.462c-0.232-0.524-0.534-1.229-0.579-1.822c-0.08-1.106,0.261-2.542-0.411-3.532
			c-1.074-0.888-1.784-0.5-2.428-0.789c-0.688-0.318-1.484-0.982-2.125-1.401l-1.122,0.053c-0.89-0.561-2.38-1.412-3.446-1.575
			C91.044,31,90,31.703,89.52,32.26c-0.687,0-1.676,0.396-2.233,0.788c-0.757-0.75-2.389-1.25-3.447-0.972
			c-0.388,0.105-0.783,0.456-1.168,0.547c-0.681,0.162-1.531,0.169-2.226,0.24c-0.533-0.532-1.485-1.212-2.235-1.4l-2.024-4.261
			l-1.222-0.112l-1.167,0.849c-0.927-0.154-2.497-1.399-3.145-2.008c-0.991,0.192-1.491,0.81-2.181,1.035
			c-0.625,0.2-1.359-0.016-2.279,0.425l-1.019-0.301l1.066-1.099l0.256-1.097c-0.798-0.813-1.092-2.12-0.96-3.223
			c-0.549-0.512-1.152-1.507-1.275-2.259c-0.122,0-1.044-0.016-1.111,0c-0.349,0.079-0.719,0.379-1.067,0.489
			c-1.208,0.385-2.868,0.425-3.68-0.69c-0.395-0.533-0.725-1.112-0.725-1.8c0.4-0.904,0.795-2.24,0.253-3.164h-0.007l-0.695,0.651
			L55.836,16.2c-0.874,0.632-2.504,0.53-3.393,0l-0.155,1.088l0.402,0.976c-0.301,0.701-0.798,1.45-1.314,2.007l0.5,1.1
			c-1.013,0.618-1.646,1.868-1.668,3.043l-1.222,0.364l-1.012-0.55l-1.167,0.426c-0.929,0.935-1.091,2.218-2.237,2.983
			c-0.192-0.008-2.226-0.131-2.279-0.122c-1.074,0.193-2.395,0.803-3.446,1.157l-1.468,2.074l-3.347,0.539
			c-0.498-0.439-1.462-0.942-2.134-0.972l-0.765,1.037l-0.249,2.309l-0.964,0.975l-0.256,1.096
			c-0.764,0.475-1.555,1.224-2.078,1.951l-0.203,2.188l-0.34,0.368l-0.671,0.728c-1.355,0.813-3.148,0.711-4.112,2.805l-1.069,0.426
			c-0.4,0.485-0.726,1.492-0.655,2.124c-0.66,0.225-1.801,0.048-2.38-0.301c-1.902,1.585-1.107,3.581-1.168,5.659
			c-0.007,0.323-0.218,0.704-0.256,1.036c-0.132,1.131,0.201,2.289,0.201,3.408c0,0.844-0.239,1.67-0.441,2.474
			c-0.13,0.542-0.324,1.198-0.671,1.662c-0.764,0.387-1.555,1.019-2.127,1.647c-0.184,0.742-0.449,1.562-0.561,2.311
			c-0.312,2.086,0.261,4.305-2.033,5.358l-0.455,2.008c-0.622,0.336-1.417,1.283-1.526,2.012c0.14,1.676,1.747,4.104,2.545,5.471
			c-0.805,0.571-1.894,0.781-2.289,1.035c-0.456,0.294-1.438,1.579-1.716,2.072l0.202,1.036l-0.866,0.976l0.256,2.188
			c-0.388,0.942-1.092,1.36-1.724,2.072c-0.913,1.012-2.567,2.721-2.033,4.258c0.2,0.58,1.198,1.763,1.676,2.134
			c0.162,0.123,1.013,0.51,1.113,0.604c0.054,0.047,0.682,1.035,0.758,1.158c1.099,0.518,2.519,0.302,3.355,1.274
			c-0.233,0.573-0.109,1.593,0.146,2.135l1.121,0.911l0.155,1.097c0.889,0.845,0.726,1.395,1.167,2.066
			c0.702,1.106,1.598,2.172,2.38,3.23l-0.155,1.099l-2.281,1.514c-0.764,0.981-0.109,2.158-0.711,3.231
			c0.248,0.772,0.696,1.594,1.168,2.25c0.938,0.726,1.408,0.261,2.233,0.363c0.711,0.093,1.525,0.379,2.229,0.55l0.709,0.974
			c-0.023,0.688-0.448,1.686-0.912,2.188c0.079,0.851-0.208,1.717-0.418,2.519c-0.848,3.231-3.446,3.092-5.107,5.157
			c-0.124,0.155-0.327,0.773-0.457,0.966c-0.502,0.75-1.129,1.477-1.679,2.196l-0.2,2.188l-1.777,1.956
			c-0.373,1.832,0.772,2.907,1.42,4.435c0.465,1.09,0.293,2.598-0.61,3.409c-1.02,0.348-2.448,1.214-2.636,2.375
			c-1.22,0.795-3.114,2.187-4.659,2.131l-0.45-0.417c-0.431,3.172,1.151,4.169,2.729,6.749c0.697,1.136,0.852,2.126,1.932,3.044
			c0.712,0.603,1.484,0.958,2.136,1.701c0.425,1.059,0.153,2.226,0.399,3.285c0.319,1.407,1.393,2.775,1.216,4.32
			c-0.11,0.946-0.636,2.405-0.61,3.294c0.007,0.048,0.833,4.832,0.863,4.922l1.167,2.074c0.533,0.571,1.547,0.918,2.134,1.459
			c0.495,0.457,0.852,1.594,1.624,2.126c0.595,0.418,1.398,0.649,2.025,1.036c0.664,0.417,1.601,1.059,2.181,1.584
			c1.01,0.921,2.08,2.08,2.991,3.109c2.256,2.527,0.595,4.606,1.423,6.756c0.973,0.725,2.132,1.684,2.791,2.735
			c0.215,0.356,0.339,0.794,0.554,1.16l0.813,1.09c0.494,0.425,2.636,0.75,3.246,0.794c0.448,0.904,0.2,1.477,0.301,1.824
			c0.031,0.078,0.951,2.28,0.967,2.312c0.099,0.162,0.231,0.184,0.37,0.308c0.911,0.735,1.987,1.252,3.186,0.789
			c1.623,1.013,1.77,3.007,2.327,4.669c1.013,2.982,1.722,1.584,1.979,5.355c0.03,0.465,0.071,1.361-0.102,1.84
			c-0.369,1.028-0.912,2.266-1.413,3.232c-0.528,0.983-1.445,1.284-1.981,1.95c-0.417,0.51-0.719,2.017-0.64,2.789
			c0.169-0.048,0.347-0.084,0.525-0.116c1.963-0.347,4.667,0.889,7.01,0.773c2.095,1.228,1.423,1.963,2.682,3.471h0.753l0.641-1.09
			c2.704-0.998,3.185,0.99,5.572,1.283l-0.75-0.192c1.594,0.455,4.305,0.053,5.781-0.704c0.657-0.34,1.122-0.928,1.717-1.354
			c1.014-0.726,1.909-0.641,2.835-1.669c1.051-1.167,2.328-4.791,2.412-6.361c0.108-2.042-1.135-3.874-0.965-5.913l1.074-0.325
			c3.178,2.712,2.188,6.994,4.175,8.61c2.233-1.205,1.714-2.751,4.552-3.144l0.965,0.641l0.218,1.159l0.964,0.766l1.175-0.255
			c0.388-0.588,1.175-1.044,1.872-1.089c0.663,0.347,1.26,0.827,1.716,1.415l0.965-0.07c0.603-1.771,0.402-5.75-0.324-7.451
			c-1.005-0.597-1.824-1.462-2.836-2.056l-0.109-0.967c2.32-1.415,3.039,0.541,5.193-1.306c2.119-1.809,1.623-2.472,2.627-4.738
			c0.324-0.726,2.791-4.971,3.326-5.077c0.308-0.061,0.64-0.048,0.956-0.061c0.396,0.448,0.883,1.521,0.806,2.125
			c-0.154,1.322-3.803,7.364-4.391,9.445c0.402,0.627,0.866,1.214,1.39,1.739c0.44,2.164-0.772,4.259-0.316,6.554
			c0.218,1.09,1.036,1.917,1.392,2.952c-0.488,2.358-2.544,5.613-2.574,5.853c-0.163,1.304,0.805,2.094,1.393,3.021
			c3.02,4.699,7.388,1.8,11.3,3.408l0.539,0.896c-0.076,0.919-0.346,1.893-0.912,2.635c0.192,1.494,2.682,3.053,3.694,4.112
			l1.122-0.194c0.824-0.75,1.676-1.461,2.464-2.249c2.659-0.124,3.231,1.926,6.268,0.519c0.967,0.123,1.917,0.394,2.782,0.833
			c2.297-4.791-1.667-8.973,4.399-10.032c0.819-0.141,6.315,0.51,6.801,0.967c2.211,2.102-0.362,5.634,3.425,6.815
			c6.446-2.303,4.461-4.87,6.911-9.258c0.378-0.673,0.672-1.416,1.336-1.864c1.731,0.681,4.204,3.115,4.236,5.079
			c-0.409,0.67-0.759,1.383-1.021,2.117c0.472,0.595,1.059,1.106,1.716,1.484l0.109,0.958c-0.61,0.41-1.183,0.897-1.879,1.16
			c-1.136,0.425-3.688,0.325-4.497,0.966c-0.79,0.627-0.828,2.45-0.372,3.277c0.534,0.989,4.383,2.938,5.511,2.953
			c0.326,0.007,0.65-0.109,0.965-0.062c0.868,0.124,1.571,0.641,2.575,0.71c1.208,0.078,2.28-0.733,3.478-0.517
			c1.724,0.308,3.603,1.467,5.411,1.282l0.805,0.774l-0.588,1.097c-1.623,0.232-3.448-0.602-4.822,0.641l-0.217,0.896
			c0.588,0.44,1.825,2.48,2.097,2.573c1.212,0.417,4.69,0.178,5.834-0.254c0.689-0.271,1.238-0.781,1.98-0.905
			c1.529-1.669,1.183-2.62,1.88-4.497c0.139-0.371,0.479-0.642,0.693-0.966c0.488-0.72,0.773-1.569,1.076-2.373
			c0.958-2.582,1.059-3.254-0.966-5.271l-0.588-0.132c0.047,0.465,0.102,1.94-0.109,2.311c-1.043,1.848-2.93,3.007-4.499,0.967
			c0.279-2.343,1.648-8.008,1.556-9.771c-0.047-0.757-0.496-1.423-0.541-2.187c-0.085-1.601,1.537-3.773,1.398-4.692
			c-1.885-2.125-4.945-0.82-4.931-4.622c0.37-0.557,1.043-0.982,1.716-1.028c0.842-0.061,1.585,0.457,2.411,0.509
			c0.695,0.054,8.093-1.785,8.999-2.115c0.679-0.255,1.259-0.712,1.871-1.098c0.122-1.688,0.246-3.796-1.121-5.141
			c-0.186-0.177-0.92-0.641-0.967-0.704c-0.866-1.12,1.848-4.9-2.141-6.299c-4.051,0.975-2.56,2.35-4.336,3.409
			c-3.108,1.849-8.356-0.75-8.788,4.498c-1.657,1.446-3.618,3.208-5.998,2.83l-0.271-1.028c0.663-0.333,1.306-0.703,1.932-1.098
			c0.617-2.428-0.937-3.153-0.642-4.754c0.773-0.672,1.476-1.46,2.411-1.932c0.998-0.5,2.188-0.518,3.154-1.09
			c0.325-0.193,0.572-0.486,0.913-0.641c0.595-0.271,1.668-0.162,2.358-0.324c1.637-0.387,3.555-1.53,5.039-2.31
			c0.991-0.529,2.158-0.589,3.154-1.098c0.68-0.34,1.26-0.906,1.662-1.538l-0.426-0.712c-0.75-0.364-1.475-0.788-2.143-1.282
			l-0.216-1.16c0.209-0.356,0.378-0.766,0.641-1.09c0.434-0.542,1.678-0.324,2.304-0.448c1.638-0.324,2.813-1.098,4.607-0.966
			c1.298,0.092,2.52,0.982,3.803,0.773c1.431-0.232,1.924-1.16,3.531-0.58c0.813,1.763,1.849,2.397,3.641,2.636
			c0.689-0.388,1.469-0.604,2.249-0.643l1.077,0.643c-0.063,0.756-0.279,1.514-0.643,2.187l0.162,1.152
			c0.79,0.07,1.81,0.509,2.297,1.158c-0.07,0.821-0.162,1.631-0.263,2.443c0.248,0.254,0.471,0.54,0.75,0.772
			c0.379,0.309,3.302,0.502,4.02,0.642c0.795,0.154,2.125,0.641,2.891,0.579c0.276-0.022,0.58-0.052,0.856-0.131
			c0.303-0.078,1.284-0.958,1.556-1.222c-1.445-2.055-3.611-0.711-4.183-3.855l0.967-0.509l0.479-0.835
			c-0.44-0.642-1.182-0.928-1.708-1.484c-0.975-1.015-1.19-2.723-2.095-3.858c-0.927-1.167-2.396-1.809-3.214-3.084
			c-0.958-1.497-0.34-3.123-0.641-4.753c-0.132-0.72-0.373-1.421-0.588-2.116c-0.751-2.451-2.883-3.069-2.891-5.914
			c-0.008-2.194,2.85-5.905,3.75-8.099c0.479-0.273,1.838-0.603,2.358-0.387c2.287,0.965-0.217,4.962,1.606,6.684
			c-1.392,2.452-0.463,2.328,0.695,4.112c0.834,1.283,0.425,3.741-0.27,5.008l0.214,1.16l1.066-0.448
			c0.325-0.727,0.751-1.406,1.291-1.994l1.284-0.063c4.483,2.797,3.139,5.527,5.943,7.838l1.075-0.387l0.694-0.896
			c-0.293-1.392-0.789-3.439-0.425-4.823l0.958-0.51c1.911,0.308,2.829,0.905,3.803,2.697c-0.24,2.371-1.475,5.04-1.445,6.94
			l0.75,0.836c1.099-0.558,2.806-2.335,4.127-1.732c0.734,0.333,2.165,3.896,4.391,1.732c0.904,0.124,1.818,0.176,2.729,0.132
			c1.429-1.261,3.741-0.465,4.823-2.636l1.067-0.387l0.803,0.58c0.054,3.726,2.729,1.7-0.533,5.852v0.773l1.183-0.193
			c0.394-0.666,0.896-1.262,1.5-1.74c1.567-0.062,3.029-0.727,4.497-1.16c0,0,0.009,0,0.017,0l-0.217-2.851l3.099-1.028
			l-1.028-3.841l-3.795-1.253l-2.542-3.438l-0.386-1.964l2.82-0.145c0,0,2.712,0.78,3.455,0.78c0.734,0,2.597-1.862,2.597-1.862
			l2.427-0.756l1.749,2.179l1.854-1.121l0.286-4.554l-1.738-3.997l3.261-2.721l3.045-1.337l3.609,0.858l2.852-2.327l2.203,0.627
			l4.646-0.905l3.238-1.135l2.937-6.887c0,0-0.27-1.687,0.233-1.981c0.501-0.295,4.839-0.509,4.839-0.509l3.694-4.299l2.597,1.036
			l2.458-2.528l4.731-0.766l-0.04-2.929l2.845-2.668l1.036-4.11l-0.711-1.887l1.84-1.552l5.587,2.674l2.018-0.564l3.338-6.631h0.008
			l2.504-5.882L299.923,121.798z"/>
		
			<path fill="#00808E" stroke="#00808E" stroke-width="3" stroke-linecap="round" stroke-linejoin="round" stroke-miterlimit="10" d="
			M155.326,252.142c-0.573,0-1.211-0.055-1.771,0c-0.804,0.083-1.567,0.424-2.411,0.263c-0.874-0.171-1.739-0.773-2.626-0.967
			c-2.042-0.44-4.236-0.333-4.925,1.995l0.163,1.151c0.628,0.457,1.385,0.975,2.088,1.291c0.872,0.387,2.118,0.439,2.836,0.774
			c0.556,0.246,1.251,1.188,1.336,1.791c-0.502,0.665-0.983,1.432-1.336,2.187c0.301,0.966,1.066,0.989,1.715,1.477
			c0.842,0.642,0.696,1.205,1.128,1.863c0.31,0.479,1.756,1.739,2.297,2.442c0.834,0.302,1.8,0.519,2.683,0.58
			c0.625-0.171,1.431-0.905,1.717-1.477c0.046-1.143,0.215-3.022,0.479-4.112c0.192-0.825,0.61-1.854,0.966-2.634
			c0.155-0.348,0.479-0.743,0.587-1.09c0.054-0.169,0.031-0.277,0.054-0.457c0.069-0.619,0.362-1.405,0.378-1.985
			c0-0.079-0.193-1.021-0.216-1.159C158.873,252.126,157.622,252.142,155.326,252.142z"/>
	</g>
</g>
<g id="Layer_3">
	
		<polygon fill="#00808E" stroke="#00808E" stroke-width="3" stroke-linecap="round" stroke-linejoin="round" stroke-miterlimit="10" points="
		264.301,66.707 264.301,79.973 250.247,78.602 	"/>
	
		<polygon fill="#00808E" stroke="#00808E" stroke-width="3" stroke-linecap="round" stroke-linejoin="round" stroke-miterlimit="10" points="
		302,110.892 302,124.157 285.963,114.637 	"/>
	
		<polygon fill="#00808E" stroke="#00808E" stroke-width="3" stroke-linecap="round" stroke-linejoin="round" stroke-miterlimit="10" points="
		233.533,177.285 233.533,190.551 219.377,181.99 	"/>
	
		<polygon fill="#00808E" stroke="#00808E" stroke-width="3" stroke-linecap="round" stroke-linejoin="round" stroke-miterlimit="10" points="
		196.573,188.683 196.573,201.949 182.895,188.683 	"/>
	
		<polygon fill="#00808E" stroke="#00808E" stroke-width="3" stroke-linecap="round" stroke-linejoin="round" stroke-miterlimit="10" points="
		169.521,201.151 169.521,214.417 159.679,201.151 	"/>
	
		<polygon fill="#00808E" stroke="#00808E" stroke-width="3" stroke-linecap="round" stroke-linejoin="round" stroke-miterlimit="10" points="
		136.526,226.927 136.526,240.194 145.902,234.863 	"/>
	
		<polygon fill="#00808E" stroke="#00808E" stroke-width="3" stroke-linecap="round" stroke-linejoin="round" stroke-miterlimit="10" points="
		163.839,225.434 163.839,238.959 154.64,230.462 	"/>
	
		<polygon fill="#00808E" stroke="#00808E" stroke-width="3" stroke-linecap="round" stroke-linejoin="round" stroke-miterlimit="10" points="
		86.71,212.276 86.71,225.743 100.426,214.582 	"/>
	
		<polygon fill="#00808E" stroke="#00808E" stroke-width="3" stroke-linecap="round" stroke-linejoin="round" stroke-miterlimit="10" points="
		35.679,209.429 35.679,222.15 50.422,215.79 	"/>
	
		<polygon fill="#00808E" stroke="#00808E" stroke-width="3" stroke-linecap="round" stroke-linejoin="round" stroke-miterlimit="10" points="
		1.022,134.612 1.022,148.898 16.428,146.911 	"/>
	
		<polygon fill="#00808E" stroke="#00808E" stroke-width="3" stroke-linecap="round" stroke-linejoin="round" stroke-miterlimit="10" points="
		3.395,78.732 3.395,92.173 20.255,83.64 	"/>
	
		<polygon fill="#00808E" stroke="#00808E" stroke-width="3" stroke-linecap="round" stroke-linejoin="round" stroke-miterlimit="10" points="
		116.351,51.126 116.351,64.762 100.235,50.476 	"/>
</g>
<g id="Layer_2">
	<g>
		
			<path fill="#00A6AF" stroke="#00FFFF" stroke-width="2" stroke-linecap="round" stroke-linejoin="round" stroke-miterlimit="10" d="
			M299.923,108.533l-0.254-2.111l-1.392-1.414l-2.636,1.345l-5.001-1.677l-5.155-4.392l-4.113-7.659l-6.153-2.481l-2.837-2.373
			c0,0-1.066,0.734-1.562,0.51c-0.488-0.217-9.003-2.93-9.003-2.93l-0.125-3.765l-2.218-0.039l-1.144-3.788l3.75-1.623l2.759-2.418
			l-0.54-7.012l-1.423-0.949l-3.447,1.685l-3.379-1.028l-2.952-2.791l-4.506-3.664l-1.399-0.221l-1.453,2.348l-6.039,0.1
			l-0.463,3.354l-2.257,2.738l-1.462,2.752l-2.024,0.562l-1.375-1.212l-6.083,2.465l-1.88,4.136l-4.821-0.287l-6.602-2.287
			l-4.43-0.078l-1.181-1.213l-0.958-2.195l-6.432-0.511c0,0-2.318,1.524-3.253,1.926c-0.935,0.408-5.642,0.849-7.266,0.849
			c-1.629,0-3.144-0.377-3.786-1.436c-0.649-1.052-4.406-5.96-5.318-6.231c-0.92-0.271-2.359-0.858-1.941-3.37
			c0.425-2.512-0.295-4.708-0.44-5.295c-0.146-0.596-1.4-5.271-1.4-5.271l-3.044,1.732l-0.256,2.967l0.542,3.774
			c0,0-0.782,0.5-2.435,1.151c-1.653,0.647-6.238,0.083-6.238,0.083s-2.96-0.192-4.042,0.929c-1.082,1.111-4.19,3.749-4.19,3.749
			l-2.798,0.595l-2.736,0.049l-0.223,0.113l-2.503,1.33c-1.199-0.339-2.606-1.111-3.101-2.316c-0.278-0.674-0.339-1.548-0.557-2.252
			c-0.324-1.058-1.33-2.342-2.025-3.16c-1.291-1.005-3.191,0.245-4.513-0.434c-0.975-0.497-3.347-2.429-4.413-2.188
			c-0.929,0.75-2.391,1.096-3.55,0.788c-0.833,0.301-1.599,1.129-2.178,1.336l-1.524,0.285l-0.765,0.147
			c-0.558-0.996-1.847-2.38-3.099-2.31c-0.487,0.448-0.998,1.444-1.015,2.125l-1.058,0.79l-3.556-0.304
			c-0.441-0.463-1.452-1.018-2.126-0.972l-1.978-2.064c-1.957-0.726-2.908,0.362-4.515,0.238c-0.332-0.848,0.316-2.682,0.712-3.409
			l1.168-0.426c0.556,0.265,1.615,0.133,2.125-0.184l1.622-1.948l2.29-0.674c0.524-1.073-0.881-4.628-1.222-5.773
			c-0.216-0.711,0.254-1.432,0.254-2.073l-0.4-1.547c-0.255-0.956-0.203-0.678-0.203-1.536c0-0.154,0.047-0.249,0-0.388
			c-0.169-0.485-1.405-2.705-1.83-3.168c-1.138-1.231-2.953-1.4-4.206-2.496c-0.705-1.981,0.139-2.768-1.832-4.5
			c-1.5,0.511-3.494-0.101-4.352-1.46l-0.649-1.462c-0.232-0.524-0.534-1.229-0.579-1.822c-0.08-1.107,0.261-2.544-0.411-3.532
			c-1.074-0.888-1.784-0.503-2.428-0.791c-0.688-0.316-1.484-0.98-2.125-1.399l-1.122,0.053c-0.89-0.563-2.38-1.412-3.446-1.577
			c-0.757,0.079-1.802,0.782-2.282,1.339c-0.687,0-1.676,0.394-2.233,0.788c-0.757-0.75-2.389-1.253-3.447-0.975
			c-0.388,0.108-0.783,0.456-1.168,0.55c-0.681,0.162-1.531,0.169-2.226,0.24c-0.533-0.532-1.485-1.215-2.235-1.4l-2.024-4.26
			l-1.222-0.115l-1.167,0.852c-0.927-0.154-2.497-1.399-3.145-2.011c-0.991,0.195-1.491,0.813-2.181,1.039
			c-0.625,0.2-1.359-0.019-2.279,0.422l-1.019-0.301l1.066-1.096l0.256-1.1c-0.798-0.81-1.092-2.117-0.96-3.221
			c-0.549-0.511-1.152-1.508-1.275-2.258c-0.122,0-1.044-0.016-1.111,0C62.8,6.226,62.43,6.526,62.082,6.633
			c-1.208,0.388-2.868,0.425-3.68-0.688c-0.395-0.533-0.725-1.112-0.725-1.8c0.4-0.906,0.795-2.243,0.253-3.164h-0.007L57.228,1.63
			l-1.392,1.301c-0.874,0.635-2.504,0.533-3.393,0l-0.155,1.091l0.402,0.973c-0.301,0.704-0.798,1.454-1.314,2.01l0.5,1.097
			c-1.013,0.621-1.646,1.872-1.668,3.046l-1.222,0.364l-1.012-0.55l-1.167,0.426c-0.929,0.935-1.091,2.218-2.237,2.983
			c-0.192-0.008-2.226-0.132-2.279-0.124c-1.074,0.195-2.395,0.805-3.446,1.159l-1.468,2.073l-3.347,0.54
			c-0.498-0.438-1.462-0.942-2.134-0.975l-0.765,1.036l-0.249,2.312l-0.964,0.975l-0.256,1.096
			c-0.764,0.472-1.555,1.221-2.078,1.949L27.383,26.6l-0.34,0.371l-0.671,0.728c-1.355,0.81-3.148,0.711-4.112,2.805l-1.069,0.426
			c-0.4,0.486-0.726,1.492-0.655,2.124c-0.66,0.226-1.801,0.048-2.38-0.301c-1.902,1.585-1.107,3.58-1.168,5.659
			c-0.007,0.323-0.218,0.7-0.256,1.035c-0.132,1.128,0.201,2.288,0.201,3.408c0,0.844-0.239,1.668-0.441,2.474
			c-0.13,0.539-0.324,1.197-0.671,1.661c-0.764,0.387-1.555,1.019-2.127,1.646c-0.184,0.741-0.449,1.563-0.561,2.312
			c-0.312,2.085,0.261,4.303-2.033,5.355l-0.455,2.011c-0.622,0.333-1.417,1.284-1.526,2.012c0.14,1.676,1.747,4.104,2.545,5.471
			c-0.805,0.572-1.894,0.78-2.289,1.036c-0.456,0.294-1.438,1.578-1.716,2.071L7.86,69.94l-0.866,0.976l0.256,2.188
			c-0.388,0.942-1.092,1.36-1.724,2.072c-0.913,1.012-2.567,2.719-2.033,4.258c0.2,0.58,1.198,1.763,1.676,2.132
			c0.162,0.124,1.013,0.512,1.113,0.603c0.054,0.049,0.682,1.035,0.758,1.159c1.099,0.52,2.519,0.302,3.355,1.277
			c-0.233,0.572-0.109,1.593,0.146,2.133l1.121,0.914l0.155,1.096c0.889,0.846,0.726,1.395,1.167,2.065
			c0.702,1.107,1.598,2.173,2.38,3.231l-0.155,1.1l-2.281,1.514c-0.764,0.981-0.109,2.157-0.711,3.231
			c0.248,0.771,0.696,1.594,1.168,2.249c0.938,0.727,1.408,0.263,2.233,0.364c0.711,0.091,1.525,0.377,2.229,0.548l0.709,0.976
			c-0.023,0.688-0.448,1.686-0.912,2.188c0.079,0.851-0.208,1.716-0.418,2.519c-0.848,3.23-3.446,3.092-5.107,5.156
			c-0.124,0.154-0.327,0.772-0.457,0.967c-0.502,0.75-1.129,1.477-1.679,2.196l-0.2,2.187l-1.777,1.956
			c-0.373,1.831,0.772,2.907,1.42,4.434c0.465,1.089,0.293,2.598-0.61,3.408c-1.02,0.349-2.448,1.215-2.636,2.374
			c-1.22,0.797-3.114,2.188-4.659,2.134l-0.45-0.418c-0.431,3.171,1.151,4.169,2.729,6.749c0.697,1.137,0.852,2.125,1.932,3.044
			c0.712,0.603,1.484,0.958,2.136,1.7c0.425,1.06,0.153,2.226,0.399,3.286c0.319,1.406,1.393,2.774,1.216,4.32
			c-0.11,0.946-0.636,2.404-0.61,3.293c0.007,0.049,0.833,4.832,0.863,4.924l1.167,2.074c0.533,0.571,1.547,0.917,2.134,1.46
			c0.495,0.456,0.852,1.594,1.624,2.125c0.595,0.417,1.398,0.65,2.025,1.036c0.664,0.417,1.601,1.059,2.181,1.584
			c1.01,0.921,2.08,2.079,2.991,3.108c2.256,2.527,0.595,4.607,1.423,6.756c0.973,0.725,2.132,1.686,2.791,2.736
			c0.215,0.355,0.339,0.793,0.554,1.16l0.813,1.089c0.494,0.425,2.636,0.75,3.246,0.794c0.448,0.905,0.2,1.477,0.301,1.825
			c0.031,0.077,0.951,2.279,0.967,2.312c0.099,0.161,0.231,0.184,0.37,0.308c0.911,0.734,1.987,1.251,3.186,0.788
			c1.623,1.014,1.77,3.007,2.327,4.67c1.013,2.981,1.722,1.585,1.979,5.355c0.03,0.465,0.071,1.361-0.102,1.84
			c-0.369,1.028-0.912,2.266-1.413,3.232c-0.528,0.982-1.445,1.283-1.981,1.949c-0.417,0.511-0.719,2.018-0.64,2.79
			c0.169-0.047,0.347-0.084,0.525-0.115c1.963-0.347,4.667,0.889,7.01,0.773c2.095,1.229,1.423,1.963,2.682,3.471h0.753l0.641-1.089
			c2.704-0.998,3.185,0.989,5.572,1.282l-0.75-0.193c1.594,0.456,4.305,0.053,5.781-0.703c0.657-0.34,1.122-0.928,1.717-1.354
			c1.014-0.725,1.909-0.64,2.835-1.669c1.051-1.167,2.328-4.792,2.412-6.361c0.108-2.041-1.135-3.874-0.965-5.912l1.074-0.325
			c3.178,2.712,2.188,6.996,4.175,8.611c2.233-1.206,1.714-2.752,4.552-3.145l0.965,0.641l0.218,1.159l0.964,0.766l1.175-0.255
			c0.388-0.588,1.175-1.043,1.872-1.089c0.663,0.347,1.26,0.826,1.716,1.414l0.965-0.069c0.603-1.771,0.402-5.749-0.324-7.452
			c-1.005-0.596-1.824-1.462-2.836-2.056l-0.109-0.966c2.32-1.414,3.039,0.541,5.193-1.305c2.119-1.81,1.623-2.473,2.627-4.739
			c0.324-0.726,2.791-4.971,3.326-5.077c0.308-0.062,0.64-0.049,0.956-0.062c0.396,0.448,0.883,1.521,0.806,2.125
			c-0.154,1.322-3.803,7.365-4.391,9.444c0.402,0.627,0.866,1.214,1.39,1.74c0.44,2.164-0.772,4.259-0.316,6.553
			c0.218,1.09,1.036,1.917,1.392,2.952c-0.488,2.358-2.544,5.613-2.574,5.852c-0.163,1.304,0.805,2.095,1.393,3.021
			c3.02,4.7,7.388,1.8,11.3,3.408l0.539,0.897c-0.076,0.919-0.346,1.893-0.912,2.635c0.192,1.494,2.682,3.054,3.694,4.111
			l1.122-0.193c0.824-0.749,1.676-1.461,2.464-2.25c2.659-0.123,3.231,1.926,6.268,0.518c0.967,0.124,1.917,0.395,2.782,0.835
			c2.297-4.792-1.667-8.973,4.399-10.033c0.819-0.141,6.315,0.51,6.801,0.966c2.211,2.104-0.362,5.635,3.425,6.816
			c6.446-2.302,4.461-4.869,6.911-9.258c0.378-0.673,0.672-1.415,1.336-1.863c1.731,0.681,4.204,3.115,4.236,5.079
			c-0.409,0.67-0.759,1.383-1.021,2.117c0.472,0.595,1.059,1.105,1.716,1.484l0.109,0.958c-0.61,0.409-1.183,0.896-1.879,1.158
			c-1.136,0.424-3.688,0.325-4.497,0.967c-0.79,0.626-0.828,2.45-0.372,3.276c0.534,0.99,4.383,2.938,5.511,2.953
			c0.326,0.007,0.65-0.109,0.965-0.062c0.868,0.124,1.571,0.64,2.575,0.71c1.208,0.077,2.28-0.733,3.478-0.518
			c1.724,0.308,3.603,1.467,5.411,1.283l0.805,0.773l-0.588,1.097c-1.623,0.232-3.448-0.602-4.822,0.642l-0.217,0.896
			c0.588,0.44,1.825,2.48,2.097,2.573c1.212,0.418,4.69,0.179,5.834-0.254c0.689-0.271,1.238-0.781,1.98-0.904
			c1.529-1.67,1.183-2.621,1.88-4.499c0.139-0.371,0.479-0.641,0.693-0.966c0.488-0.72,0.773-1.568,1.076-2.372
			c0.958-2.582,1.059-3.255-0.966-5.272l-0.588-0.132c0.047,0.466,0.102,1.94-0.109,2.312c-1.043,1.847-2.93,3.006-4.499,0.966
			c0.279-2.343,1.648-8.008,1.556-9.771c-0.047-0.757-0.496-1.422-0.541-2.187c-0.085-1.601,1.537-3.773,1.398-4.692
			c-1.885-2.126-4.945-0.82-4.931-4.623c0.37-0.555,1.043-0.981,1.716-1.027c0.842-0.06,1.585,0.458,2.411,0.51
			c0.695,0.053,8.093-1.786,8.999-2.116c0.679-0.255,1.259-0.712,1.871-1.098c0.122-1.688,0.246-3.795-1.121-5.141
			c-0.186-0.177-0.92-0.642-0.967-0.704c-0.866-1.119,1.848-4.899-2.141-6.299c-4.051,0.977-2.56,2.35-4.336,3.41
			c-3.108,1.848-8.356-0.751-8.788,4.498c-1.657,1.445-3.618,3.208-5.998,2.829l-0.271-1.028c0.663-0.333,1.306-0.703,1.932-1.097
			c0.617-2.429-0.937-3.154-0.642-4.754c0.773-0.672,1.476-1.461,2.411-1.933c0.998-0.5,2.188-0.516,3.154-1.088
			c0.325-0.193,0.572-0.487,0.913-0.642c0.595-0.271,1.668-0.162,2.358-0.324c1.637-0.386,3.555-1.529,5.039-2.31
			c0.991-0.528,2.158-0.589,3.154-1.099c0.68-0.339,1.26-0.906,1.662-1.537l-0.426-0.712c-0.75-0.365-1.475-0.79-2.143-1.283
			l-0.216-1.16c0.209-0.355,0.378-0.765,0.641-1.088c0.434-0.543,1.678-0.325,2.304-0.448c1.638-0.325,2.813-1.1,4.607-0.968
			c1.298,0.093,2.52,0.983,3.803,0.774c1.431-0.233,1.924-1.161,3.531-0.581c0.813,1.763,1.849,2.398,3.641,2.636
			c0.689-0.387,1.469-0.604,2.249-0.643l1.077,0.643c-0.063,0.756-0.279,1.515-0.643,2.187l0.162,1.151
			c0.79,0.071,1.81,0.509,2.297,1.159c-0.07,0.821-0.162,1.631-0.263,2.443c0.248,0.254,0.471,0.54,0.75,0.772
			c0.379,0.309,3.302,0.502,4.02,0.641c0.795,0.155,2.125,0.642,2.891,0.58c0.276-0.022,0.58-0.051,0.856-0.131
			c0.303-0.077,1.284-0.957,1.556-1.222c-1.445-2.055-3.611-0.711-4.183-3.855l0.967-0.51l0.479-0.834
			c-0.44-0.642-1.182-0.928-1.708-1.484c-0.975-1.014-1.19-2.722-2.095-3.858c-0.927-1.167-2.396-1.808-3.214-3.084
			c-0.958-1.497-0.34-3.122-0.641-4.752c-0.132-0.72-0.373-1.421-0.588-2.117c-0.751-2.45-2.883-3.067-2.891-5.914
			c-0.008-2.194,2.85-5.905,3.75-8.099c0.479-0.273,1.838-0.603,2.358-0.386c2.287,0.966-0.217,4.962,1.606,6.684
			c-1.392,2.453-0.463,2.329,0.695,4.113c0.834,1.284,0.425,3.741-0.27,5.008l0.214,1.16l1.066-0.448
			c0.325-0.727,0.751-1.406,1.291-1.994l1.284-0.062c4.483,2.797,3.139,5.526,5.943,7.838l1.075-0.385l0.694-0.897
			c-0.293-1.393-0.789-3.439-0.425-4.822l0.958-0.511c1.911,0.308,2.829,0.906,3.803,2.699c-0.24,2.371-1.475,5.039-1.445,6.94
			l0.75,0.835c1.099-0.557,2.806-2.335,4.127-1.731c0.734,0.332,2.165,3.895,4.391,1.731c0.904,0.124,1.818,0.177,2.729,0.132
			c1.429-1.26,3.741-0.465,4.823-2.636l1.067-0.387l0.803,0.58c0.054,3.725,2.729,1.7-0.533,5.851v0.773l1.183-0.193
			c0.394-0.665,0.896-1.261,1.5-1.739c1.567-0.063,3.029-0.727,4.497-1.16c0,0,0.009,0,0.017,0l-0.217-2.852l3.099-1.028
			l-1.028-3.841l-3.795-1.252l-2.542-3.439l-0.386-1.964l2.82-0.146c0,0,2.712,0.78,3.455,0.78c0.734,0,2.597-1.86,2.597-1.86
			l2.427-0.757l1.749,2.178l1.854-1.12l0.286-4.554l-1.738-3.998l3.261-2.721l3.045-1.337l3.609,0.858l2.852-2.327l2.203,0.626
			l4.646-0.904l3.238-1.137l2.937-6.886c0,0-0.27-1.687,0.233-1.98c0.501-0.295,4.839-0.509,4.839-0.509l3.694-4.3l2.597,1.036
			l2.458-2.528l4.731-0.765l-0.04-2.929l2.845-2.667l1.036-4.11l-0.711-1.887l1.84-1.553l5.587,2.675l2.018-0.564l3.338-6.631h0.008
			l2.504-5.882L299.923,108.533z"/>
		
			<path fill="#00A6AF" stroke="#00FFFF" stroke-width="2" stroke-linecap="round" stroke-linejoin="round" stroke-miterlimit="10" d="
			M155.326,238.876c-0.573,0-1.211-0.055-1.771,0c-0.804,0.084-1.567,0.425-2.411,0.263c-0.874-0.171-1.739-0.773-2.626-0.967
			c-2.042-0.44-4.236-0.333-4.925,1.994l0.163,1.151c0.628,0.456,1.385,0.975,2.088,1.292c0.872,0.387,2.118,0.439,2.836,0.773
			c0.556,0.247,1.251,1.188,1.336,1.792c-0.502,0.665-0.983,1.431-1.336,2.186c0.301,0.967,1.066,0.99,1.715,1.477
			c0.842,0.643,0.696,1.207,1.128,1.863c0.31,0.479,1.756,1.739,2.297,2.443c0.834,0.302,1.8,0.518,2.683,0.58
			c0.625-0.172,1.431-0.905,1.717-1.477c0.046-1.144,0.215-3.022,0.479-4.112c0.192-0.825,0.61-1.854,0.966-2.635
			c0.155-0.348,0.479-0.742,0.587-1.09c0.054-0.169,0.031-0.277,0.054-0.456c0.069-0.619,0.362-1.405,0.378-1.985
			c0-0.078-0.193-1.021-0.216-1.159C158.873,238.86,157.622,238.876,155.326,238.876z"/>
	</g>
</g>
<g id="Layer_5">
	<g opacity="0.35">
		<path fill="#FFFFFF" d="M53.296,6h3.942c-0.303-0.503-0.562-1.119-0.562-1.854c0-0.05,0.023-0.096,0.031-0.146h-0.741
			c-0.607,0.291-1.257,0.371-1.74,0.371c-0.247,0-0.494-0.018-0.734-0.053l0.122,0.295c0.103,0.249,0.102,0.528-0.004,0.776
			C53.524,5.589,53.407,5.795,53.296,6z"/>
		<path fill="#FFFFFF" d="M64.508,8.771C64.318,8.547,64.129,8.283,63.956,8h-11.09c0.039,0.374-0.129,0.749-0.465,0.955
			C52.027,9.184,51.722,9.563,51.509,10h13.116C64.543,9.577,64.498,9.158,64.508,8.771z"/>
		<path fill="#FFFFFF" d="M64.457,13.125l0.872-0.896L65.382,12H50.717c-0.07,0.042-0.141,0.083-0.222,0.107l-1.222,0.364
			c-0.255,0.075-0.53,0.047-0.763-0.08l-0.615-0.334l-0.515,0.188c-0.233,0.277-0.417,0.61-0.609,0.959
			c-0.142,0.258-0.301,0.528-0.48,0.796h17.905C64.139,13.684,64.23,13.357,64.457,13.125z"/>
		<path fill="#FFFFFF" d="M76.06,16H40.13c-0.222,0.085-0.443,0.169-0.652,0.245L38.235,18H77.01L76.06,16z"/>
		<path fill="#FFFFFF" d="M99.137,21.715c-0.296-0.022-0.665-0.051-1.051-0.224c-0.559-0.256-1.125-0.666-1.626-1.028
			c-0.128-0.092-0.254-0.184-0.376-0.269l-0.789,0.037c-0.202,0.011-0.408-0.044-0.582-0.154c-0.044-0.028-0.085-0.05-0.129-0.077
			h-5.108c-0.428,0.016-1.178,0.292-1.611,0.598c-0.396,0.282-0.937,0.237-1.282-0.105c-0.191-0.189-0.497-0.361-0.838-0.493h-2.076
			c-0.222,0.126-0.467,0.257-0.76,0.329c-0.555,0.132-1.169,0.174-1.711,0.212c-0.225,0.016-0.444,0.03-0.649,0.051
			c-0.3,0.032-0.596-0.075-0.809-0.287c-0.098-0.098-0.219-0.202-0.344-0.305H31.931l-0.054,0.5
			c-0.024,0.225-0.124,0.436-0.283,0.596l-0.765,0.774L30.799,22h69.291C99.745,21.77,99.479,21.741,99.137,21.715z"/>
		<path fill="#FFFFFF" d="M100.335,24.977c-0.022-0.307-0.011-0.64,0-0.977H29.298c-0.271,0.247-0.527,0.517-0.743,0.788L28.443,26
			h72.112C100.446,25.661,100.361,25.316,100.335,24.977z"/>
		<path fill="#FFFFFF" d="M101.715,28.72c-0.026-0.041-0.049-0.084-0.068-0.128L101.384,28h-73.93l-0.346,0.376
			c-0.065,0.07-0.14,0.131-0.223,0.181c-0.488,0.292-0.99,0.473-1.475,0.648c-0.611,0.221-1.141,0.414-1.575,0.794h79.17
			C102.482,29.659,102.035,29.227,101.715,28.72z"/>
		<path fill="#FFFFFF" d="M107.396,32.551c-0.022-0.205-0.046-0.383-0.078-0.551H21.729c-0.132,0.327-0.224,0.718-0.199,0.94
			c0.053,0.466-0.226,0.907-0.67,1.059c-0.001,0-0.003,0-0.004,0.001h86.797C107.496,33.431,107.439,32.951,107.396,32.551z"/>
		<path fill="#FFFFFF" d="M17.982,38h94.688c-0.196-0.321-0.368-0.584-0.458-0.683c-0.467-0.505-1.159-0.81-1.892-1.132
			c-0.137-0.06-0.275-0.123-0.413-0.185H17.882c0.008,0.258,0.024,0.53,0.046,0.836C17.956,37.212,17.976,37.602,17.982,38z"/>
		<path fill="#FFFFFF" d="M17.885,42h96.131l-0.062-0.236c-0.165-0.612-0.186-0.709-0.178-1.226l0.002-0.34
			c0-0.063,0.003-0.12,0.008-0.174c-0.003-0.006-0.008-0.017-0.012-0.024H17.72c-0.001,0.42,0.033,0.856,0.09,1.321
			C17.837,41.543,17.863,41.771,17.885,42z"/>
		<path fill="#FFFFFF" d="M114.17,45.639c-0.187-0.615-0.071-1.185,0.049-1.639H17.823c-0.077,0.441-0.182,0.869-0.289,1.287
			l-0.072,0.284c-0.033,0.135-0.071,0.281-0.113,0.429h96.937C114.241,45.865,114.201,45.74,114.17,45.639z"/>
		<path fill="#FFFFFF" d="M114.938,48H16.065c-0.499,0.285-1.031,0.692-1.467,1.135c-0.04,0.153-0.083,0.308-0.125,0.464
			c-0.036,0.133-0.07,0.267-0.105,0.401h101.072C115.355,49.443,115.15,48.691,114.938,48z"/>
		<path fill="#FFFFFF" d="M175.699,53.093l-1.461,0.832L174.231,54h1.71C175.856,53.683,175.773,53.372,175.699,53.093z"/>
		<path fill="#FFFFFF" d="M108.268,53.879c0.117-0.214,0.307-0.378,0.536-0.461l1.168-0.426c0.252-0.092,0.53-0.079,0.772,0.037
			c0.026,0.012,0.139,0.044,0.341,0.044c0.288,0,0.558-0.063,0.717-0.124l0.791-0.95H14.037c-0.009,0.153-0.019,0.305-0.027,0.463
			c-0.024,0.489-0.057,1.014-0.143,1.537h94.341C108.244,53.926,108.267,53.883,108.268,53.879z"/>
		<path fill="#FFFFFF" d="M176.992,58c-0.061-0.26-0.121-0.487-0.167-0.656l-0.066-0.249c-0.037-0.15-0.146-0.564-0.286-1.095
			h-2.415l-0.022,0.254l0.25,1.746H176.992z"/>
		<path fill="#FFFFFF" d="M107.492,56H13.078c-0.274,0.361-0.632,0.692-1.105,0.973L11.74,58h95.724
			C107.274,57.4,107.336,56.676,107.492,56z"/>
		<path fill="#FFFFFF" d="M177.184,61.986c0.119-0.701,0.134-1.371,0.101-1.986h-2.723c0.02,0.358-0.145,0.704-0.451,0.899
			c-0.033,0.021-0.779,0.489-2.268,1.101h5.34C177.184,61.995,177.183,61.991,177.184,61.986z"/>
		<polygon fill="#FFFFFF" points="248.172,60.907 247.695,60.832 246.972,62 249.518,62 		"/>
		<path fill="#FFFFFF" d="M142.778,62c-0.206-0.278-0.448-0.587-0.737-0.931c-0.324-0.204-0.926-0.156-1.625-0.064
			c-0.918,0.121-1.935,0.152-2.662-0.221c-0.322-0.164-0.724-0.429-1.19-0.736c-0.022-0.015-0.05-0.033-0.074-0.048h-6.827
			c-0.034,0.025-0.068,0.049-0.102,0.074c-0.387,0.285-0.752,0.555-1.155,0.699c-0.05,0.018-0.101,0.031-0.152,0.041l-2.283,0.432
			c-0.425,0.083-0.852-0.118-1.062-0.494c-0.144-0.256-0.337-0.51-0.545-0.752h-1.679c-0.005,0.034-0.016,0.073-0.017,0.103
			c-0.007,0.307-0.155,0.593-0.401,0.777l-1.058,0.79c-0.197,0.146-0.438,0.216-0.684,0.195l-3.556-0.304
			c-0.243-0.021-0.47-0.13-0.639-0.307c-0.295-0.311-1-0.665-1.321-0.665c-0.273,0-0.615-0.108-0.804-0.305L113.933,60H10.329
			c-0.088,0.135-0.163,0.268-0.198,0.379c0.066,0.471,0.275,1.035,0.547,1.621H142.778z"/>
		<path fill="#FFFFFF" d="M252.413,64.351L251.98,64h-11.519l-0.231,1.679c-0.016,0.114-0.057,0.22-0.109,0.321h14.036
			L252.413,64.351z"/>
		<path fill="#FFFFFF" d="M12.131,64.628c0.145,0.24,0.279,0.464,0.396,0.665c0.129,0.221,0.163,0.473,0.114,0.708h131.702
			c-0.167-0.442-0.265-0.905-0.353-1.356c-0.043-0.222-0.093-0.435-0.146-0.644H11.756C11.886,64.22,12.014,64.434,12.131,64.628z"
			/>
		<path fill="#FFFFFF" d="M177.219,64h-16.785c-0.755,0.688-1.634,1.454-2.267,2h20.55C177.932,65.542,177.428,64.873,177.219,64z"
			/>
		<path fill="#FFFFFF" d="M8.832,70h174.083c-0.533-0.681-1.111-1.39-1.636-2h-30.636l-1.767,0.939
			c-0.229,0.121-0.493,0.148-0.741,0.079c-0.389-0.11-1.298-0.421-2.155-1.018H9.583c-0.274,0.306-0.628,0.752-0.868,1.102
			l0.126,0.646C8.858,69.833,8.837,69.916,8.832,70z"/>
		<path fill="#FFFFFF" d="M263.397,68h-2.829l-0.699,0.342c-0.227,0.11-0.488,0.132-0.73,0.058l-1.314-0.4H238.51l-0.691,0.839
			L237.201,70h26.351L263.397,68z"/>
		<path fill="#FFFFFF" d="M7.912,74h179.437c-1.294-0.275-2.244-0.855-2.774-1.73c-0.048-0.078-0.108-0.169-0.176-0.27H8.128
			l0.115,0.987c0.02,0.169-0.004,0.34-0.068,0.497C8.097,73.673,8.006,73.841,7.912,74z"/>
		<path fill="#FFFFFF" d="M206.408,73.816c-0.084-0.086-0.152-0.188-0.2-0.298L205.545,72h-6.44
			c-0.751,0.468-1.675,1.019-2.23,1.257c-0.691,0.301-2.731,0.572-4.592,0.743h14.303L206.408,73.816z"/>
		<path fill="#FFFFFF" d="M263.805,73.296l-0.1-1.296h-27.932l-2.01,0.558c-0.326,0.09-0.676,0.011-0.929-0.213L232.443,72h-1.652
			l-4.009,1.624L226.611,74h36.391L263.805,73.296z"/>
		<path fill="#FFFFFF" d="M257.935,76.842L259.88,76h-34.178l-0.635,1.396c-0.171,0.377-0.557,0.611-0.97,0.584l-4.82-0.287
			c-0.092-0.005-0.182-0.023-0.268-0.053L214.271,76H6.128L6.12,76.009c-0.45,0.496-1.144,1.265-1.5,1.991h252.748
			C257.252,77.528,257.484,77.037,257.935,76.842z"/>
		<path fill="#FFFFFF" d="M257.963,80H5.048c0.262,0.321,0.547,0.631,0.732,0.774c0.056,0.032,0.245,0.125,0.426,0.216
			c0.444,0.224,0.605,0.308,0.749,0.438C7.042,81.509,7.202,81.733,7.379,82h251.218c-0.028-0.054-0.062-0.104-0.08-0.163
			L257.963,80z"/>
		<path fill="#FFFFFF" d="M11.349,86h249.718c-0.146-0.169-0.241-0.381-0.249-0.616L260.772,84H11.185
			c0.214,0.28,0.271,0.652,0.137,0.981C11.247,85.163,11.262,85.627,11.349,86z"/>
		<path fill="#FFFFFF" d="M12.762,88.283c0.532,0.588,0.708,1.097,0.841,1.482c0.031,0.089,0.058,0.163,0.086,0.235h259.799
			l-1.211-1.013c-0.559,0.271-1.32,0.455-1.868,0.205c-0.221-0.09-1.745-0.59-3.607-1.192H12.722L12.762,88.283z"/>
		<path fill="#FFFFFF" d="M15.378,92.41c0.269,0.347,0.535,0.693,0.79,1.038c0.12,0.161,0.168,0.355,0.177,0.552h264.63
			l-0.313-0.583L277.147,92H15.066C15.171,92.136,15.274,92.275,15.378,92.41z"/>
		<path fill="#FFFFFF" d="M13.646,97.38c-0.086,0.161-0.115,0.354-0.126,0.62h269.604l-1.074-2H15.726L13.646,97.38z"/>
		<path fill="#FFFFFF" d="M14.107,101.424c0.195,0.129,0.294,0.129,0.363,0.129c0.103,0,0.202-0.014,0.305-0.026
			c0.295-0.035,0.608-0.063,0.965-0.02c0.552,0.071,1.106,0.228,1.642,0.379c0.144,0.041,0.28,0.076,0.419,0.113h268.156
			l-1.121-0.955c-0.095-0.081-0.174-0.178-0.232-0.288L284.197,100H13.329C13.524,100.469,13.795,100.972,14.107,101.424z"/>
		<path fill="#FFFFFF" d="M19.556,104.057c-0.02,0.599-0.242,1.32-0.569,1.943h272.457l-1.121-0.376
			c-0.121-0.041-0.233-0.104-0.331-0.187L288.305,104H19.548C19.549,104.019,19.556,104.037,19.556,104.057z"/>
		<path fill="#FFFFFF" d="M18.285,108.646l-0.091,0.338c-0.1,0.379-0.226,0.708-0.364,1.017h282.052l-0.709-0.806
			c-0.134-0.152-0.218-0.341-0.242-0.542L298.852,108H18.451C18.397,108.221,18.341,108.438,18.285,108.646z"/>
		<path fill="#FFFFFF" d="M16.32,112c-0.489,0.408-1.009,0.723-1.504,1.021c-0.506,0.305-0.989,0.601-1.417,0.979h286.191l0.852-2
			H16.32z"/>
		<path fill="#FFFFFF" d="M11.328,116.958c-0.126,0.158-0.251,0.315-0.375,0.472L10.902,118h286.849l0.844-1.676
			c0.008-0.017,0.017-0.033,0.026-0.049l0.117-0.274H12.068C11.825,116.326,11.576,116.647,11.328,116.958z"/>
		<path fill="#FFFFFF" d="M8.948,121.644c-0.013,0.125,0.001,0.239,0.007,0.356h277.202l1.742-1.471
			c0.301-0.254,0.722-0.308,1.077-0.138l3.359,1.608h3.401l1.007-2H10.441L8.948,121.644z"/>
		<path fill="#FFFFFF" d="M9.719,124c0.215,0.385,0.436,0.782,0.628,1.235c0.101,0.236,0.172,0.497,0.229,0.765h275.489l0.304-1.207
			L286.071,124H9.719z"/>
		<path fill="#FFFFFF" d="M9.484,129.778c-0.1,0.09-0.216,0.158-0.343,0.202c-0.017,0.006-0.034,0.014-0.051,0.02h274.595
			l1.798-1.686l0.079-0.314H10.534C10.363,128.661,10.031,129.289,9.484,129.778z"/>
		<path fill="#FFFFFF" d="M6.972,132c-0.069,0.092-0.146,0.18-0.245,0.245l-0.404,0.268c-0.728,0.485-1.608,1.07-2.537,1.487
			h276.242l2.535-0.41l-0.022-1.59H6.972z"/>
		<path fill="#FFFFFF" d="M3.495,137.64c0.081,0.112,0.17,0.241,0.255,0.36h267.601l1.68-1.955c0.015-0.018,0.036-0.028,0.053-0.045
			H2.444C2.705,136.525,3.06,137.035,3.495,137.64z"/>
		<path fill="#FFFFFF" d="M5.268,140.52c0.276,0.578,0.512,1.045,0.958,1.48h257.76c0.081-0.575,0.297-1.084,0.765-1.358
			c0.187-0.11,0.678-0.399,4.865-0.622l0.017-0.02H5.014C5.106,140.181,5.19,140.356,5.268,140.52z"/>
		<path fill="#FFFFFF" d="M8.797,144.243c0.241,0.6,0.305,1.199,0.329,1.757h253.737l0.853-2H8.647
			C8.707,144.075,8.762,144.154,8.797,144.243z"/>
		<path fill="#FFFFFF" d="M9.746,149.054c0.129,0.302,0.262,0.618,0.382,0.946h250l1.212-0.425L262.01,148H9.345
			C9.451,148.338,9.588,148.686,9.746,149.054z"/>
		<path fill="#FFFFFF" d="M10.478,152.335c-0.053,0.454-0.175,0.953-0.303,1.481c-0.015,0.06-0.029,0.123-0.044,0.184h175.298
			c0.03-0.067,0.068-0.142,0.094-0.205c0.084-0.207,0.236-0.378,0.43-0.489c0.568-0.324,1.641-0.588,2.391-0.588
			c0.333,0,0.61,0.048,0.848,0.147c0.623,0.263,1.005,0.667,1.251,1.135h51.198l0.211-0.176c0.072-0.06,0.152-0.11,0.239-0.147
			l3.045-1.337c0.199-0.088,0.421-0.11,0.633-0.057l3.128,0.744l1.257-1.026H10.497C10.494,152.111,10.491,152.222,10.478,152.335z"
			/>
		<path fill="#FFFFFF" d="M239.244,156h-48.412c-0.007,0.387-0.038,0.767-0.068,1.116c-0.026,0.303-0.05,0.6-0.063,0.884h47.738
			l-0.125-0.288c-0.177-0.407-0.064-0.882,0.276-1.167L239.244,156z"/>
		<path fill="#FFFFFF" d="M184.118,156.417c0.083-0.142,0.161-0.278,0.242-0.417H9.972c0.089,0.515,0.22,1.27,0.347,2h172.895
			C183.504,157.473,183.812,156.943,184.118,156.417z"/>
		<path fill="#FFFFFF" d="M191.292,160c0.159,0.296,0.164,0.66-0.01,0.965c-0.283,0.5-0.452,0.805-0.522,1.035h49.164l0.032-0.512
			L239.309,160H191.292z"/>
		<path fill="#FFFFFF" d="M182.239,160H10.671c0.005,0.029,0.011,0.063,0.016,0.087l1.02,1.812c0.037,0.033,0.095,0.067,0.141,0.101
			h169.874C181.765,161.376,181.953,160.704,182.239,160z"/>
		<path fill="#FFFFFF" d="M181.968,164H14.302c0.059,0.095,0.121,0.188,0.177,0.282c0.224,0.377,0.478,0.804,0.75,0.992
			c0.253,0.178,0.586,0.327,0.939,0.484c0.173,0.077,0.349,0.156,0.524,0.242h166.388C182.65,165.44,182.231,164.808,181.968,164z"
			/>
		<path fill="#FFFFFF" d="M191.947,164.04c0.367,0.565,0.549,1.248,0.606,1.96h32.648c0.156-0.115,0.332-0.2,0.529-0.21l2.82-0.146
			c0.112-0.007,0.221,0.007,0.328,0.038c0.375,0.108,0.779,0.217,1.172,0.318h2.608c0.38-0.302,0.865-0.724,1.288-1.145
			c0.114-0.114,0.254-0.199,0.409-0.247l1.95-0.608h-44.387C191.928,164.015,191.937,164.025,191.947,164.04z"/>
		<path fill="#FFFFFF" d="M237.861,164.18l1.201,1.496l0.656-0.396l0.081-1.279h-2.133
			C237.736,164.052,237.804,164.109,237.861,164.18z"/>
		<path fill="#FFFFFF" d="M184.748,168.847l-0.114-0.364c-0.053-0.172-0.12-0.329-0.189-0.483H19.564
			c0.589,0.538,1.249,1.204,1.988,2h163.527C184.984,169.624,184.874,169.244,184.748,168.847z"/>
		<path fill="#FFFFFF" d="M225.848,170l-0.483-0.654c-0.088-0.119-0.148-0.256-0.177-0.401L225.001,168h-28.902
			c0.907,0.672,1.55,1.343,2.028,2h2.834c0.018-0.091,0.029-0.185,0.052-0.272c0.071-0.269,0.251-0.497,0.496-0.628l0.958-0.511
			c0.193-0.103,0.416-0.138,0.63-0.105c1.491,0.24,2.492,0.679,3.317,1.517H225.848z"/>
		<path fill="#FFFFFF" d="M199.233,172c0.079,0.182,0.154,0.363,0.228,0.54c0.216,0.521,0.426,1.002,0.698,1.46h1.056
			c-0.128-0.627-0.25-1.315-0.313-2H199.233z"/>
		<path fill="#FFFFFF" d="M231.001,174l-2.604-0.859c-0.196-0.065-0.368-0.189-0.491-0.355L227.326,172h-19.602
			c0.015,0.089,0.022,0.179,0.013,0.27c-0.058,0.575-0.168,1.153-0.303,1.73H231.001z"/>
		<path fill="#FFFFFF" d="M185.261,172.076c0-0.026,0-0.05,0-0.076H23.236c0.444,0.694,0.673,1.364,0.78,2H185.36
			C185.237,173.334,185.247,172.682,185.261,172.076z"/>
		<path fill="#FFFFFF" d="M206.906,176c-0.198,0.707-0.383,1.388-0.496,2h0.764c0.742-0.487,1.551-0.91,2.418-0.91
			c0.353,0,0.688,0.072,0.999,0.214c0.305,0.138,0.547,0.383,0.806,0.696h8.624c0.553-0.188,0.922-0.445,1.202-1.006
			c0.115-0.229,0.313-0.406,0.554-0.494l1.067-0.387c0.312-0.112,0.658-0.063,0.926,0.13l0.803,0.58
			c0.256,0.185,0.41,0.48,0.415,0.796c0.002,0.138,0.008,0.264,0.018,0.381h4.488c0.097-0.292,0.32-0.535,0.626-0.636l2.205-0.731
			L232.154,176H206.906z"/>
		<path fill="#FFFFFF" d="M187.928,177.554c-0.575-0.455-1.159-0.932-1.65-1.554H24.074c-0.003,0.05-0.006,0.103-0.009,0.151
			c-0.043,0.672-0.081,1.265,0.068,1.82c0.011,0.009,0.024,0.02,0.036,0.028h142.656c0.168-0.052,0.336-0.104,0.508-0.161
			c0.994-0.325,2.031-0.662,3.389-0.564c0.677,0.048,1.309,0.264,1.867,0.454c0.306,0.104,0.595,0.204,0.873,0.271h1.056
			c0.281-0.072,0.539-0.17,0.798-0.283c0.469-0.206,1-0.438,1.704-0.438c0.416,0,0.841,0.081,1.302,0.248
			c0.232,0.084,0.417,0.257,0.534,0.474h9.617C188.296,177.852,188.118,177.704,187.928,177.554z"/>
		<path fill="#FFFFFF" d="M162.114,180.96c-0.044-0.237-0.001-0.482,0.121-0.69c0.051-0.086,0.099-0.178,0.146-0.27H26.337
			c0.213,0.253,0.413,0.516,0.583,0.788c0.142,0.234,0.25,0.479,0.355,0.728c0.06,0.141,0.117,0.283,0.19,0.415l0.053,0.07h134.79
			L162.114,180.96z"/>
		<path fill="#FFFFFF" d="M190.876,182c-0.33-0.516-0.571-1.078-0.799-1.63c-0.053-0.129-0.108-0.245-0.162-0.37h-4.863l0.408,0.244
			c0.328,0.196,0.516,0.562,0.484,0.942c-0.023,0.275-0.085,0.545-0.141,0.814H190.876z"/>
		<path fill="#FFFFFF" d="M225.868,180c0.216,0.435,0.262,0.853,0.122,1.336c0.036-0.005,0.071-0.008,0.107-0.01
			c1.005-0.04,1.993-0.374,3.04-0.728c0.152-0.052,0.304-0.103,0.456-0.153L229.56,180H225.868z"/>
		<path fill="#FFFFFF" d="M92.2,185.861c-0.005,0.042-0.019,0.094-0.027,0.139h67.834c0.201-0.108,0.403-0.218,0.592-0.318
			c0.601-0.32,1.217-0.486,1.813-0.646c0.492-0.132,0.957-0.256,1.351-0.458c0.281-0.14,0.542-0.342,0.779-0.579H91.805
			C92.08,184.596,92.273,185.288,92.2,185.861z"/>
		<path fill="#FFFFFF" d="M191.688,186c-0.112-0.292-0.212-0.611-0.281-0.993c-0.072-0.398,0.109-0.789,0.442-1.007h-5.521
			c0.476,0.252,0.921,0.579,1.237,1c0.147,0.196,0.217,0.44,0.196,0.685c-0.009,0.106-0.023,0.21-0.033,0.316H191.688z"/>
		<path fill="#FFFFFF" d="M31.614,184c0.37,0.793,0.36,1.422,0.348,1.8c-0.001,0.042-0.004,0.083-0.004,0.119
			c0.009,0.021,0.022,0.054,0.034,0.081h54.51c0.408-0.685,0.868-1.403,1.317-2H31.614z"/>
		<path fill="#FFFFFF" d="M193.576,188h-5.659c0.487,0.115,1.643,0.242,2.241,0.308c0.566,0.062,1.057,0.118,1.304,0.166
			c0.276,0.054,0.611,0.144,0.966,0.239c0.54,0.146,1.211,0.328,1.592,0.328c0.259-0.018,0.491-0.039,0.673-0.084
			c0.09-0.054,0.244-0.171,0.417-0.313c-0.27-0.166-0.567-0.273-0.903-0.394C194.008,188.178,193.793,188.096,193.576,188z"/>
		<path fill="#FFFFFF" d="M150.829,189.475c0.526-0.133,1.023-0.259,1.416-0.492c0.097-0.058,0.183-0.132,0.271-0.204
			c0.19-0.154,0.427-0.347,0.738-0.488c0.458-0.209,0.989-0.259,1.514-0.291H91.396c-0.271,0.565-0.605,1.225-1.006,2h58.857
			C149.779,189.749,150.313,189.605,150.829,189.475z"/>
		<path fill="#FFFFFF" d="M32.99,188.061c0.807,0.647,1.482,0.862,2.159,0.601c0.293-0.113,0.624-0.082,0.89,0.084
			c0.558,0.349,0.969,0.781,1.292,1.254h47.265c0.139-0.45,0.314-0.99,0.61-1.658c0.003-0.008,0.07-0.14,0.176-0.342H32.912
			C32.938,188.021,32.965,188.038,32.99,188.061z"/>
		<path fill="#FFFFFF" d="M161.469,193.276c-0.624,0.371-1.306,0.586-1.998,0.724h6.822c0.027-0.222,0.063-0.445,0.099-0.667
			c0.082-0.504,0.139-0.942,0.145-1.333h-3.816C162.491,192.412,162.141,192.875,161.469,193.276z"/>
		<path fill="#FFFFFF" d="M146.534,192.11c0.041-0.036,0.081-0.074,0.121-0.11H89.356c-0.361,0.705-0.707,1.395-0.988,2h57.868
			c-0.088-0.389-0.121-0.82-0.029-1.316C146.247,192.461,146.362,192.258,146.534,192.11z"/>
		<path fill="#FFFFFF" d="M38.47,192.857c0.099,0.369,0.197,0.737,0.315,1.088c0.007,0.02,0.013,0.035,0.02,0.054h38.899
			c0.026-0.02,0.047-0.045,0.076-0.063c0.788-0.48,1.531-0.704,2.338-0.704c0.291,0,0.564,0.029,0.833,0.06
			c0.506,0.057,0.9,0.282,1.893-0.566c0.321-0.274,0.567-0.51,0.764-0.727h-45.38C38.314,192.289,38.395,192.577,38.47,192.857z"/>
		<path fill="#FFFFFF" d="M89.188,196.719c0.089,0.438,0.109,0.862,0.105,1.281h55.917c0.071-0.068,0.149-0.132,0.241-0.178
			c0.486-0.244,0.976-0.516,1.489-0.828c0.059-0.385,0.038-0.702-0.021-0.994H88.722c0.065,0.07,0.127,0.146,0.194,0.212
			C89.055,196.351,89.149,196.527,89.188,196.719z"/>
		<path fill="#FFFFFF" d="M167.699,196.723c-0.08-0.068-0.295-0.211-0.475-0.334c-0.275-0.189-0.408-0.281-0.511-0.389h-13.358
			c-0.087,0.285-0.157,0.602-0.19,0.998c-0.021,0.259-0.143,0.5-0.339,0.671l-0.1,0.087c-0.091,0.079-0.189,0.163-0.282,0.244
			h15.964C168.275,197.507,168.055,197.074,167.699,196.723z"/>
		<path fill="#FFFFFF" d="M79.218,197.575c-0.445-0.356-0.866-0.692-1.314-0.956c-0.23-0.135-0.375-0.364-0.44-0.62H39.876
			c0.341,0.484,0.595,0.981,0.766,2h22.25c-0.002-0.174-0.012-0.345,0.003-0.524c0.034-0.409,0.314-0.755,0.707-0.874l1.074-0.325
			c0.326-0.099,0.68-0.025,0.939,0.196c0.556,0.475,0.992,0.992,1.352,1.527h12.791C79.574,197.859,79.394,197.716,79.218,197.575z"
			/>
		<path fill="#FFFFFF" d="M40.577,202h23.132c-0.083-0.377-0.189-0.759-0.301-1.151c-0.08-0.279-0.159-0.563-0.232-0.849H40.83
			c0.026,0.8-0.028,1.387-0.177,1.798C40.63,201.863,40.601,201.934,40.577,202z"/>
		<path fill="#FFFFFF" d="M67.965,200c0.248,0.688,0.422,1.366,0.575,2h3.782c0.351-0.123,0.753-0.225,1.234-0.291
			c0.242-0.032,0.486,0.023,0.69,0.158L74.447,202h6.475c-0.014-0.679-0.07-1.367-0.161-2H67.965z"/>
		<path fill="#FFFFFF" d="M146.014,200.732c-0.391-0.063-0.708-0.35-0.81-0.732H89.083c-0.017,0.094-0.031,0.189-0.048,0.283
			c-0.104,0.588-0.196,1.156-0.229,1.717h75.972c1.212-0.307,2.215-0.576,2.53-0.69c0.387-0.146,0.777-0.406,1.189-0.683
			c0.02-0.013,0.039-0.026,0.059-0.039c0.012-0.2,0.021-0.396,0.027-0.588h-18.878C148.604,200.592,147.377,200.947,146.014,200.732
			z"/>
		<path fill="#FFFFFF" d="M39.188,205.151c-0.185,0.345-0.403,0.614-0.626,0.849h24.674c0.246-0.722,0.446-1.434,0.548-2h-24.04
			C39.56,204.402,39.373,204.795,39.188,205.151z"/>
		<path fill="#FFFFFF" d="M153.972,204H89.144c0.107,0.21,0.23,0.422,0.359,0.641C89.75,205.06,90,205.498,90.187,206h63.434
			c-0.062-0.333-0.097-0.703-0.096-1.121c0-0.196,0.059-0.387,0.167-0.55C153.771,204.209,153.876,204.108,153.972,204z"/>
		<path fill="#FFFFFF" d="M158.359,210c0.014-0.038,0.036-0.087,0.047-0.122c-0.499-0.416-1.098-0.623-1.726-0.841
			c-0.641-0.223-1.394-0.487-2.005-1.037H89.864c-0.244,0.682-0.545,1.364-0.853,2H158.359z"/>
		<path fill="#FFFFFF" d="M36.768,208.255c1.004-0.035,2.133,0.198,3.208,0.422c1.086,0.226,2.194,0.459,3.189,0.411
			c0.191-0.007,0.387,0.038,0.555,0.136c0.46,0.27,0.804,0.524,1.085,0.775h15.526c0.031-0.013,0.064-0.027,0.095-0.04
			c0.512-0.209,0.881-0.36,1.276-0.798c0.229-0.254,0.478-0.668,0.722-1.163H36.827C36.806,208.083,36.786,208.167,36.768,208.255z"
			/>
		<path fill="#FFFFFF" d="M51.174,212.035c0.343,0.203,0.659,0.389,1.015,0.526c0.057,0.004,0.115,0.014,0.172,0.028l0.199,0.051
			c0.304,0.07,0.715,0.11,1.165,0.11c1.25,0,2.725-0.307,3.635-0.75h-6.247C51.133,212.012,51.155,212.023,51.174,212.035z"/>
		<path fill="#FFFFFF" d="M157.53,212h-17.176c0.71,0.549,1.404,1.239,1.958,2h14.763C157.088,213.329,157.276,212.652,157.53,212z"
			/>
		<path fill="#FFFFFF" d="M87.965,212.013c-0.118,0.217-0.214,0.39-0.272,0.505c-0.017,0.49,0.253,0.882,0.708,1.482h47.253
			c0.117-0.242,0.228-0.482,0.37-0.737c0.068-0.122,0.132-0.243,0.196-0.364c0.154-0.292,0.322-0.601,0.528-0.899H87.973
			C87.97,212.004,87.968,212.009,87.965,212.013z"/>
		<path fill="#FFFFFF" d="M94.916,217.159c0.312-0.005,0.626-0.011,0.939-0.011c1.182,0,2.573,0.075,3.927,0.632
			c0.122,0.05,0.225,0.129,0.317,0.22h15.122c0.101-0.719,0.33-1.404,0.805-2H89.99C91.435,217.276,93.114,217.192,94.916,217.159z"
			/>
		<path fill="#FFFFFF" d="M157.599,216.436c-0.008-0.131-0.045-0.279-0.093-0.436h-14.178c0.087,0.317,0.137,0.635,0.142,0.95
			c0.003,0.189-0.048,0.375-0.146,0.537c-0.104,0.17-0.196,0.341-0.29,0.513h14.434
			C157.561,217.334,157.616,216.776,157.599,216.436z"/>
		<path fill="#FFFFFF" d="M156.758,222c0.125-0.646,0.255-1.33,0.377-2h-13.155c0.093,0.134,0.158,0.287,0.177,0.454l0.109,0.958
			c0.024,0.208-0.024,0.411-0.121,0.588H156.758z"/>
		<path fill="#FFFFFF" d="M115.156,220h-14.257c-0.073,0.596-0.241,1.303-0.576,2h14.832c0.039-0.629,0.021-1.247,0.005-1.857
			C115.158,220.096,115.157,220.048,115.156,220z"/>
		<path fill="#FFFFFF" d="M156.378,224h-16.582c-0.081,0.01-0.16,0.02-0.241,0.029c-0.666,0.078-1.78,0.209-2.036,0.405
			c-0.229,0.181-0.349,0.971-0.252,1.566h18.787C156.119,225.462,156.237,224.768,156.378,224z"/>
		<path fill="#FFFFFF" d="M102.236,224.575c0.29,0.243,0.569,0.477,0.817,0.703l0.338-0.058c0.193-0.173,0.387-0.345,0.581-0.516
			c0.268-0.237,0.508-0.472,0.763-0.703h-3.173C101.797,224.206,102.029,224.401,102.236,224.575z"/>
		<path fill="#FFFFFF" d="M158.873,228.232c-0.312,0-0.693-0.059-1.103-0.232h-18.012c0.944,0.482,1.897,0.875,2.292,0.88
			c0.001,0,0.002,0,0.002,0c0.1,0,0.183-0.015,0.265-0.027c0.282-0.04,0.559-0.065,0.835-0.023c0.489,0.07,0.926,0.235,1.312,0.381
			c0.416,0.157,0.774,0.292,1.183,0.321l0.095,0.003c0.358,0,0.757-0.117,1.179-0.241c0.666-0.196,1.466-0.417,2.311-0.266
			c0.728,0.13,1.454,0.386,2.157,0.634c0.347,0.122,0.682,0.235,1.013,0.339h8.946c0.335-0.525,0.571-1.133,0.812-1.781l0.082-0.219
			h-2.256C159.619,228.147,159.246,228.232,158.873,228.232z"/>
		<path fill="#FFFFFF" d="M156.152,232.54l-0.588,1.097c-0.082,0.154-0.206,0.272-0.349,0.363h4.517
			c0.113-0.311,0.191-0.627,0.274-0.997c0.068-0.302,0.154-0.641,0.258-1.003h-4.007C156.271,232.183,156.244,232.37,156.152,232.54
			z"/>
		<path fill="#FFFFFF" d="M157.221,236.086c0.061-0.024,0.121-0.056,0.181-0.086h-5.443c0.106,0.145,0.208,0.282,0.285,0.377
			c0.236,0.051,0.696,0.116,1.505,0.116C155.229,236.493,156.704,236.282,157.221,236.086z"/>
		<path fill="#FFFFFF" d="M159.536,241.252c-0.671-0.771-1.25-1.104-1.979-1.252h-4.608c-0.574,0.123-1.267,0.259-1.992,0.121
			c-0.144-0.028-0.274-0.08-0.411-0.121h-5.818c-0.042,0.084-0.08,0.17-0.111,0.256l0.07,0.498c0.49,0.345,1.056,0.713,1.569,0.944
			c0.292,0.13,0.695,0.219,1.101,0.302h12.324c-0.025-0.145-0.078-0.414-0.122-0.635
			C159.55,241.326,159.542,241.288,159.536,241.252z"/>
		<path fill="#FFFFFF" d="M151.006,245.036c0.037,0.263-0.032,0.53-0.192,0.741c-0.055,0.072-0.103,0.149-0.156,0.223h7.706
			c0.134-0.331,0.27-0.648,0.391-0.916c0.08-0.179,0.199-0.378,0.322-0.578c0.078-0.126,0.196-0.317,0.22-0.394
			c0-0.041,0.005-0.076,0.007-0.113h-8.683C150.817,244.347,150.96,244.707,151.006,245.036z"/>
		<path fill="#FFFFFF" d="M150.995,248.037c0.779,0.594,0.995,1.199,1.153,1.641c0.043,0.122,0.085,0.225,0.131,0.322h5.112
			c0.081-0.733,0.187-1.445,0.313-2h-6.767C150.958,248.014,150.976,248.022,150.995,248.037z"/>
		<path fill="#FFFFFF" d="M154.413,252.29c0.636,0.208,1.326,0.356,1.955,0.418c0.264-0.129,0.613-0.434,0.824-0.708h-3.048
			C154.234,252.097,154.334,252.198,154.413,252.29z"/>
	</g>
</g>
</svg>
