<?xml version="1.0" encoding="utf-8"?>
<!-- Generator: Adobe Illustrator 16.0.0, SVG Export Plug-In . SVG Version: 6.00 Build 0)  -->
<!DOCTYPE svg PUBLIC "-//W3C//DTD SVG 1.1//EN" "http://www.w3.org/Graphics/SVG/1.1/DTD/svg11.dtd">
<svg version="1.1" id="Layer_1" xmlns="http://www.w3.org/2000/svg" xmlns:xlink="http://www.w3.org/1999/xlink" x="0px" y="0px"
	 width="167px" height="88px" viewBox="0 0 167 88" enable-background="new 0 0 167 88" xml:space="preserve">
<path fill="#00808E" stroke="#00808E" stroke-width="3" stroke-linecap="round" stroke-linejoin="round" stroke-miterlimit="10" d="
	M163.995,29.895l-0.359,1.293c-0.853,0.16-1.724,0.301-2.591,0.408c-1.109-0.391-1.781-1.274-2.831-1.766l-0.299-1.05
	c0.635-1.196,0.986-2.589,1.082-3.883c-1.254-0.802-2.616-0.098-4.151-0.883c-1.011-0.79-0.592-3.018-0.963-4.167
	c-1.75-0.727-2.479-0.315-4.155-0.176c-1.3,0.112-3.282,0.112-4.504-0.23c-2.773-0.775-4.435-4.324-7.044-5.052
	c-1.779-0.498-3.195-0.063-4.881-0.063c-1.252,0-2.318,0.305-3.543,0.417c-0.461,0.035-0.938,0.008-1.391,0.058
	c-0.419,0.046-4.986,0.409-5.409,0.469c-0.377,0.051-0.781,0.272-1.15,0.352c-1.2,0.264-2.681,0.481-3.917,0.592
	c-1.39,0.119-2.814-0.005-4.209,0.111c-0.417,0.037-0.848,0.147-1.263,0.178c-0.938,0.063-1.895-0.022-2.83,0.063
	c-0.405,0.026-0.923,0.187-1.323,0.18c-1.45-0.037-3.018-0.784-4.513-0.653l-1.144,0.353c-0.322,0.163-0.596,0.512-0.91,0.707
	c-0.554,0.352-1.402,0.799-2.037,1.053c-0.503,0.205-2.961,0.988-3.494,1.116c-0.814,0.205-1.77,0.164-2.586,0.351
	c-0.391,0.093-2.6,0.62-3.61,0.941c-0.723,0.233-1.498,0.59-2.226,0.77c-0.823,0.19-1.795,0.213-2.649,0.347
	c-2.102,0.34-4.247,0.819-6.385,1.004c-2.674,0.23-5.62-0.227-8.181,0.583c-1.52,0.483-2.701,1.643-4.151,2.233
	c-0.74,0.303-1.598,0.459-2.345,0.762c-0.338,0.135-2.545,0.972-3.317,1.238c-0.834,0.289-1.451,0.721-2.223,1.053
	c-0.35,0.152-4.255,1.368-4.578,1.415c-1.433,0.195-2.937-0.193-4.152-0.821c-3.145,0.336-4.283,1.039-6.983,2.167
	c-0.712,0.303-1.477,0.536-2.165,0.882c-0.684,0.347-1.318,0.819-2.047,1.116c-1.573,0.644-3.319,0.205-4.812,1.117
	c-1.034,0.63-1.565,1.638-2.589,2.288c-1.529,0.982-4.863,2.248-6.078,3.236c-0.263,0.206-1.33,1.395-1.564,1.705
	c-0.234,0.302-0.383,0.676-0.598,0.996c-0.853,1.195-1.784,2.48-3.138,3.342c-1.225,0.798-2.761,1.436-4.09,2.116
	c-0.712,0.368-1.267,0.836-1.928,1.234c-0.652,0.394-1.405,0.696-2.041,1.117c-0.921,0.604-3.595,2.768-4.395,3.522
	c-0.947,0.892-1.582,1.78-2.052,2.877c-0.164,0.401-0.268,0.869-0.477,1.235c-0.173,0.299-0.511,0.597-0.721,0.886
	c-0.65,0.881-1.249,1.737-1.988,2.586c0.035,0.734,0.209,1.621,0.122,2.345c-0.104,0.883-0.676,1.83-0.721,2.705
	c0,0.105,0.346,1.829,0.478,2.114c0.26,0.546,0.911,1.148,1.331,1.644c0.441,0.534,2.482,2.603,3.003,3.111
	c0.79,0.774,1.486,1.563,2.345,2.293c0.583,0.484,1.235,0.925,1.807,1.412c0.564,0.466,1.068,1.054,1.685,1.469
	c0.66,0.438,3.901,2.548,5.055,3.229c0.712,0.414,1.512,0.772,2.171,1.235c0.296,0.205,0.538,0.501,0.844,0.697
	c0.33,0.227,1.656,1.133,1.989,1.356c0.631,0.447,1.422,0.821,2.101,1.229c1.137,0.196,4.107-0.305,4.931-0.994
	c0.626-0.522,0.922-1.338,1.391-1.936c1.398-1.823,4.351-3.448,6.859-4.053c0.218-0.06,2.868-0.409,3.126-0.409
	c1.861,0,4.214,0.598,6.021,0.345c0.729-0.102,1.59-0.529,2.283-0.766c1.564-0.507,3.205-0.931,4.881-1.116
	c3.37-0.356,4.664,1.229,7.218,1.182c1.243-0.028,2.433-0.692,3.735-0.773c1.051,0.502,1.998,1.309,2.588,2.18l0.415,0.062
	c1.313,0.175,0.93-0.028,2.05-0.178c0.424-0.063,0.949-0.04,1.382-0.063c1.371-0.055,2.762,0.022,4.089-0.286
	c0.791-0.192,1.557-0.539,2.357-0.709c0.806-0.178,3.011-0.579,3.784-0.647c0.991-0.088,2.022,0.075,3.016,0.119
	c1.832,0.07,6.48-0.065,8.182-0.478c0.77-0.181,3.847-0.989,4.687-1.345c1.079-0.452,2.006-1.16,3.077-1.585
	c0.37-0.155,1.874-0.74,2.226-0.883c0.963-0.393,3.495-1.251,4.515-1.468c0.423-0.092,2.084-0.492,2.466-0.587
	c0.401-0.098,2.057-0.449,2.469-0.532c1.186-0.255,2.579-0.478,3.793-0.649c0.871-0.119,1.717-0.138,2.586-0.353
	c0.791-0.189,1.519-0.52,2.286-0.762l3.108-0.937c1.21-0.372,2.683-0.69,3.812-1.172c1.158-0.504,1.851-1.37,2.835-2.002
	c0.604-0.388,1.405-0.648,2.04-1.051c0.947,0.057,1.736-0.125,2.646-0.177c0.456-0.041,1.019,0.061,1.441,0
	c0.377-0.065,3.173-0.918,3.555-1.002c0.896-0.197,1.556-0.088,2.415-0.537c0.439-0.223,0.91-0.584,1.201-0.935
	c1.157-1.419,1.857-3.091,3.242-4.407c0.88-0.819,1.898-1.304,2.591-2.294c0.224-0.316,0.364-0.686,0.605-0.994
	c0.237-0.309,0.603-0.575,0.845-0.879c0.686-0.896,1.201-2.033,1.978-2.877c0.783-0.854,2.106-1.08,2.953-1.764
	c0.262-0.216,1.338-1.471,1.566-1.771c0.525-0.687,0.763-1.465,1.083-2.23c0.495-1.164,2.181-4.274,3.187-5.108
	c0.525-1.582-0.971-2.768-0.781-4.343c0.391-1.216,2.546-2.17,4.035-1.823l0.423-0.883
	C165.378,31.658,165.013,30.443,163.995,29.895z"/>
<polygon fill="#00808E" stroke="#00808E" stroke-width="3" stroke-linecap="round" stroke-linejoin="round" stroke-miterlimit="10" points="
	164.413,19.42 164.413,32.6 153.397,26.011 "/>
<polyline fill="#00808E" stroke="#00808E" stroke-width="3" stroke-linecap="round" stroke-linejoin="round" stroke-miterlimit="10" points="
	1.5,54.013 1.5,67.712 14.904,58.235 1.5,54.013 "/>
<path fill="#00A6AF" stroke="#00FFFF" stroke-width="2" stroke-linecap="round" stroke-linejoin="round" stroke-miterlimit="10" d="
	M163.995,17.246l-0.359,1.292c-0.853,0.162-1.724,0.299-2.591,0.41c-1.109-0.392-1.781-1.278-2.831-1.769l-0.299-1.05
	c0.635-1.198,0.986-2.585,1.082-3.88c-1.254-0.807-2.616-0.101-4.151-0.888c-1.011-0.79-0.592-3.012-0.963-4.161
	c-1.75-0.733-2.479-0.321-4.155-0.177c-1.3,0.106-3.282,0.106-4.504-0.231c-2.773-0.775-4.435-4.323-7.044-5.054
	c-1.779-0.496-3.195-0.06-4.881-0.06c-1.252,0-2.318,0.301-3.543,0.417c-0.461,0.036-0.938,0.008-1.391,0.051
	c-0.419,0.052-4.986,0.414-5.409,0.477c-0.377,0.051-0.781,0.27-1.15,0.351c-1.2,0.263-2.681,0.481-3.917,0.587
	c-1.39,0.121-2.814-0.004-4.209,0.116c-0.417,0.037-0.848,0.147-1.263,0.171c-0.938,0.069-1.895-0.015-2.83,0.069
	c-0.405,0.023-0.923,0.179-1.323,0.179c-1.45-0.041-3.018-0.788-4.513-0.656l-1.144,0.356c-0.322,0.164-0.596,0.507-0.91,0.708
	c-0.554,0.346-1.402,0.796-2.037,1.046c-0.503,0.207-2.961,0.994-3.494,1.12c-0.814,0.207-1.77,0.165-2.586,0.354
	c-0.391,0.093-2.6,0.62-3.61,0.935c-0.723,0.24-1.498,0.596-2.226,0.776c-0.823,0.188-1.795,0.213-2.649,0.343
	c-2.102,0.339-4.247,0.824-6.385,1.003c-2.674,0.236-5.62-0.222-8.181,0.587c-1.52,0.483-2.701,1.643-4.151,2.23
	c-0.74,0.308-1.598,0.458-2.345,0.768c-0.338,0.135-2.545,0.971-3.317,1.234c-0.834,0.288-1.451,0.724-2.223,1.056
	c-0.35,0.151-4.255,1.368-4.578,1.415c-1.433,0.194-2.937-0.197-4.152-0.824c-3.145,0.336-4.283,1.039-6.983,2.166
	c-0.712,0.308-1.477,0.537-2.165,0.886c-0.684,0.347-1.318,0.815-2.047,1.114c-1.573,0.646-3.319,0.204-4.812,1.115
	c-1.034,0.633-1.565,1.642-2.589,2.289c-1.529,0.983-4.863,2.251-6.078,3.237c-0.263,0.203-1.33,1.397-1.564,1.702
	c-0.234,0.307-0.383,0.679-0.598,0.995c-0.853,1.202-1.784,2.482-3.138,3.352c-1.225,0.79-2.761,1.434-4.09,2.11
	c-0.712,0.37-1.267,0.835-1.928,1.238c-0.652,0.395-1.405,0.692-2.041,1.115c-0.921,0.61-3.595,2.771-4.395,3.525
	C6.39,42.279,5.755,43.16,5.285,44.26c-0.164,0.398-0.268,0.867-0.477,1.235c-0.173,0.297-0.511,0.601-0.721,0.881
	c-0.65,0.892-1.249,1.74-1.988,2.585c0.035,0.734,0.209,1.631,0.122,2.352c-0.104,0.876-0.676,1.83-0.721,2.7
	c0,0.108,0.346,1.829,0.478,2.12c0.26,0.541,0.911,1.146,1.331,1.639c0.441,0.54,2.482,2.609,3.003,3.118
	c0.79,0.768,1.486,1.563,2.345,2.289c0.583,0.482,1.235,0.928,1.807,1.413c0.564,0.463,1.068,1.049,1.685,1.464
	c0.66,0.443,3.901,2.555,5.055,3.231c0.712,0.415,1.512,0.772,2.171,1.239c0.296,0.204,0.538,0.5,0.844,0.694
	c0.33,0.227,1.656,1.135,1.989,1.358c0.631,0.444,1.422,0.82,2.101,1.228c1.137,0.198,4.107-0.303,4.931-0.993
	c0.626-0.524,0.922-1.338,1.391-1.939c1.398-1.822,4.351-3.443,6.859-4.052c0.218-0.056,2.868-0.407,3.126-0.407
	c1.861,0,4.214,0.601,6.021,0.346c0.729-0.104,1.59-0.533,2.283-0.766c1.564-0.511,3.205-0.934,4.881-1.115
	c3.37-0.356,4.664,1.23,7.218,1.176c1.243-0.022,2.433-0.686,3.735-0.767c1.051,0.503,1.998,1.308,2.588,2.175l0.415,0.066
	c1.313,0.175,0.93-0.03,2.05-0.176c0.424-0.064,0.949-0.048,1.382-0.064c1.371-0.06,2.762,0.017,4.089-0.288
	c0.791-0.197,1.557-0.54,2.357-0.707c0.806-0.178,3.011-0.58,3.784-0.654c0.991-0.086,2.022,0.078,3.016,0.125
	c1.832,0.069,6.48-0.064,8.182-0.477c0.77-0.181,3.847-0.989,4.687-1.345c1.079-0.457,2.006-1.16,3.077-1.586
	c0.37-0.154,1.874-0.74,2.226-0.882c0.963-0.398,3.495-1.25,4.515-1.476c0.423-0.09,2.084-0.49,2.466-0.586
	c0.401-0.092,2.057-0.441,2.469-0.524c1.186-0.253,2.579-0.481,3.793-0.65c0.871-0.12,1.717-0.144,2.586-0.352
	c0.791-0.192,1.519-0.522,2.286-0.764l3.108-0.942c1.21-0.363,2.683-0.684,3.812-1.172c1.158-0.502,1.851-1.364,2.835-1.997
	c0.604-0.392,1.405-0.653,2.04-1.055c0.947,0.059,1.736-0.118,2.646-0.18c0.456-0.03,1.019,0.068,1.441,0
	c0.377-0.06,3.173-0.919,3.555-1.001c0.896-0.188,1.556-0.088,2.415-0.525c0.439-0.229,0.91-0.587,1.201-0.942
	c1.157-1.423,1.857-3.097,3.242-4.412c0.88-0.815,1.898-1.295,2.591-2.283c0.224-0.319,0.364-0.692,0.605-0.995
	c0.237-0.314,0.603-0.576,0.845-0.888c0.686-0.895,1.201-2.023,1.978-2.873c0.783-0.855,2.106-1.079,2.953-1.766
	c0.262-0.211,1.338-1.467,1.566-1.766c0.525-0.687,0.763-1.471,1.083-2.23c0.495-1.165,2.181-4.275,3.187-5.108
	c0.525-1.583-0.971-2.769-0.781-4.344c0.391-1.214,2.546-2.168,4.035-1.823l0.423-0.882
	C165.378,19.008,165.013,17.792,163.995,17.246z"/>
<g opacity="0.35">
	<path fill="#FFFFFF" d="M140.538,4.966h-27.793c-0.07,0.006-0.144,0.026-0.212,0.032c-0.353,0.02-0.712,0.027-1.072,0.027
		l-0.738-0.003c-0.329,0-0.655,0.006-0.98,0.032c-0.16,0.014-0.288,0.039-0.419,0.069c-0.308,0.051-0.656,0.12-1.034,0.12
		c-0.705-0.021-1.326-0.144-1.929-0.277h-3.235c-0.18,0.166-0.368,0.324-0.561,0.445c-0.561,0.35-1.485,0.853-2.28,1.174
		C99.983,6.708,99.102,7,98.254,7.267h45.075C142.269,6.666,141.391,5.808,140.538,4.966z"/>
	<path fill="#FFFFFF" d="M152.723,9.57H89.02c-0.285,0.094-0.573,0.189-0.871,0.259c-0.619,0.149-1.23,0.204-1.824,0.265
		c-0.329,0.03-0.656,0.061-0.966,0.108c-0.619,0.105-1.256,0.219-1.896,0.333c-1.494,0.277-3.04,0.555-4.604,0.693
		c-0.828,0.069-1.646,0.081-2.409,0.081l-1.261-0.004c-1.403,0-2.878,0.032-4.146,0.431c-0.111,0.038-0.222,0.083-0.332,0.13h82.811
		C152.967,11.234,152.799,10.401,152.723,9.57z"/>
	<path fill="#FFFFFF" d="M156.538,16.384c-0.068-0.237-0.039-0.488,0.079-0.711c0.244-0.457,0.434-0.97,0.593-1.503H66.342
		c-0.226,0.069-0.45,0.135-0.67,0.198c-0.342,0.1-0.686,0.19-1.003,0.319c-0.362,0.148-2.612,0.994-3.399,1.272
		c-0.376,0.127-0.712,0.301-1.099,0.506h96.389L156.538,16.384z"/>
	<path fill="#FFFFFF" d="M161.254,20.08c-0.262,0.035-0.527,0.005-0.771-0.081c-0.835-0.293-1.44-0.753-1.972-1.158
		c-0.035-0.023-0.068-0.051-0.105-0.075H45.688c-0.312,0.131-0.636,0.269-0.993,0.426c-0.391,0.169-0.806,0.346-1.268,0.543
		c-0.289,0.124-0.599,0.241-0.91,0.356c-0.393,0.148-0.788,0.294-1.158,0.48c-0.246,0.124-0.483,0.267-0.724,0.411
		c-0.044,0.028-0.098,0.053-0.144,0.083h120.078c0.532-0.499,1.226-0.915,2.017-1.17C162.13,19.966,161.688,20.029,161.254,20.08z"
		/>
	<path fill="#FFFFFF" d="M159.65,23.365H33.874c-0.105,0.107-0.209,0.206-0.313,0.32c-0.412,0.434-0.878,0.925-1.523,1.334
		c-0.328,0.211-0.722,0.428-1.146,0.649h129.507c-0.066-0.2-0.146-0.411-0.252-0.658C159.943,24.517,159.728,23.976,159.65,23.365z"
		/>
	<path fill="#FFFFFF" d="M26.09,28.165c-0.223,0.191-1.154,1.219-1.365,1.498c-0.1,0.127-0.171,0.273-0.249,0.414
		c-0.034,0.065-0.076,0.126-0.113,0.191h133.655c0.374-0.714,0.847-1.543,1.346-2.303H26.382
		C26.284,28.034,26.164,28.104,26.09,28.165z"/>
	<path fill="#FFFFFF" d="M20.666,34.3c-0.314,0.203-0.656,0.383-0.993,0.565h135.702c0.356-0.397,0.829-0.951,0.975-1.143
		c0.259-0.333,0.433-0.736,0.604-1.156H22.647C22.091,33.193,21.446,33.799,20.666,34.3z"/>
	<path fill="#FFFFFF" d="M14.617,37.666c-0.325,0.198-0.67,0.374-1.019,0.55c-0.333,0.168-0.67,0.333-0.972,0.535
		c-0.227,0.151-0.576,0.407-0.977,0.716h138.661c0.094-0.151,0.192-0.306,0.285-0.46c0.385-0.618,0.778-1.259,1.307-1.833
		c0.003-0.002,0.006-0.005,0.007-0.006H15.373C15.127,37.337,14.88,37.507,14.617,37.666z"/>
	<path fill="#FFFFFF" d="M8.408,42.136c-0.667,0.63-1.136,1.233-1.509,1.928h139.145c0.339-0.3,0.684-0.567,1.028-0.825
		c0.525-0.389,0.98-0.729,1.31-1.195c0.06-0.084,0.109-0.18,0.161-0.276H8.821C8.656,41.908,8.51,42.04,8.408,42.136z"/>
	<path fill="#FFFFFF" d="M5.535,46.694c-0.083,0.092-0.167,0.179-0.233,0.27l-0.328,0.455c-0.3,0.41-0.615,0.829-0.941,1.249
		h138.567c0.424-0.525,0.791-1.093,1.179-1.701c0.126-0.194,0.256-0.399,0.388-0.6H5.82C5.725,46.482,5.625,46.597,5.535,46.694z"/>
	<path fill="#FFFFFF" d="M3.627,51.424c-0.061,0.514-0.234,1.007-0.402,1.482c-0.043,0.118-0.083,0.243-0.122,0.358h124.988
		c0.103-0.084,0.201-0.159,0.311-0.248c0.362-0.301,0.743-0.612,1.2-0.911c0.385-0.246,0.79-0.432,1.186-0.61
		c0.295-0.142,0.596-0.275,0.856-0.441c0.063-0.038,0.141-0.054,0.205-0.089H3.639C3.636,51.115,3.645,51.271,3.627,51.424z"/>
	<path fill="#FFFFFF" d="M3.313,55.753c0.102,0.213,0.455,0.59,0.739,0.9c0.149,0.162,0.293,0.319,0.419,0.466
		c0.115,0.138,0.374,0.421,0.685,0.749h106.109c0.188-0.042,0.352-0.074,0.446-0.095c1.349-0.288,2.866-0.524,3.897-0.67
		c0.32-0.04,0.637-0.075,0.95-0.105c0.518-0.054,1.01-0.1,1.466-0.211c0.403-0.1,0.81-0.247,1.244-0.405
		c0.311-0.119,0.622-0.229,0.938-0.328l1.611-0.486H3.258C3.28,55.647,3.299,55.717,3.313,55.753z"/>
	<path fill="#FFFFFF" d="M8.191,60.955c0.494,0.507,0.959,0.985,1.484,1.426c0.033,0.027,0.074,0.059,0.109,0.086h87.768
		c0.144-0.08,0.284-0.157,0.436-0.242c0.548-0.317,1.118-0.645,1.768-0.904c0.218-0.087,0.907-0.356,1.475-0.583l0.751-0.291
		c0.186-0.079,0.443-0.176,0.724-0.283H7.41C7.678,60.425,7.936,60.693,8.191,60.955z"/>
	<path fill="#FFFFFF" d="M68.215,66.425c0.122,0.016,0.223,0.021,0.303,0.021c0.286-0.087,0.571-0.163,1.065-0.23
		c0.371-0.055,0.781-0.062,1.144-0.068l0.386-0.009c0.373-0.013,0.743-0.02,1.114-0.025c0.955-0.014,1.856-0.03,2.662-0.221
		c0.304-0.073,0.617-0.179,0.932-0.285c0.458-0.156,0.934-0.316,1.462-0.426c0.452-0.102,1.33-0.271,2.178-0.413h-13.15
		C67.041,65.224,67.698,65.798,68.215,66.425z"/>
	<path fill="#FFFFFF" d="M13.049,65.175c0.41,0.271,1.703,1.115,2.917,1.889h17.583c1.127-0.581,2.341-1.052,3.538-1.345
		c0.304-0.082,3.101-0.452,3.529-0.452c0.86,0,1.77,0.106,2.65,0.207c1.11,0.134,2.228,0.282,3.131,0.153
		c0.301-0.042,0.782-0.236,1.205-0.404c0.27-0.104,0.533-0.205,0.775-0.286c0.189-0.064,0.367-0.116,0.552-0.168H12.546
		C12.717,64.92,12.884,65.059,13.049,65.175z"/>
	<path fill="#FFFFFF" d="M20.299,69.656c0.179,0.125,0.353,0.275,0.524,0.434c0.089,0.082,0.172,0.166,0.271,0.23
		c0.355,0.244,1.601,1.096,1.976,1.347h5.451c0.121-0.171,0.241-0.362,0.356-0.555c0.178-0.299,0.357-0.594,0.56-0.854
		c0.231-0.305,0.514-0.598,0.818-0.892H19.839C19.994,69.458,20.15,69.549,20.299,69.656z"/>
</g>
</svg>
