<?xml version="1.0" encoding="utf-8"?>
<!-- Generator: Adobe Illustrator 16.0.0, SVG Export Plug-In . SVG Version: 6.00 Build 0)  -->
<!DOCTYPE svg PUBLIC "-//W3C//DTD SVG 1.1//EN" "http://www.w3.org/Graphics/SVG/1.1/DTD/svg11.dtd">
<svg version="1.1" xmlns="http://www.w3.org/2000/svg" xmlns:xlink="http://www.w3.org/1999/xlink" x="0px" y="0px" width="120px"
	 height="77px" viewBox="0 0 120 77" enable-background="new 0 0 120 77" xml:space="preserve">
<g id="Layer_1">
	
		<path fill="#00808E" stroke="#00808E" stroke-width="3" stroke-linecap="round" stroke-linejoin="round" stroke-miterlimit="10" d="
		M116.58,25.675l-0.256,1.125c-0.602,0.14-1.217,0.263-1.832,0.355c-0.785-0.338-1.259-1.107-2.002-1.535l-0.21-0.915
		c0.449-1.039,0.697-2.25,0.763-3.374c-0.885-0.7-1.85-0.088-2.936-0.77c-0.714-0.688-0.417-2.622-0.681-3.624
		c-1.236-0.632-1.752-0.274-2.937-0.151c-0.921,0.096-2.322,0.096-3.188-0.204c-1.961-0.67-3.135-3.759-4.982-4.391
		c-1.258-0.431-2.26-0.056-3.452-0.056c-0.885,0-1.64,0.263-2.506,0.362c-0.326,0.032-0.664,0.006-0.984,0.049
		c-0.294,0.043-3.526,0.355-3.826,0.411c-0.265,0.043-0.553,0.232-0.813,0.302c-0.848,0.233-1.896,0.421-2.77,0.516
		c-0.983,0.102-1.991-0.006-2.979,0.096c-0.294,0.033-0.598,0.131-0.892,0.155c-0.664,0.056-1.34-0.018-2.002,0.056
		c-0.288,0.023-0.653,0.16-0.936,0.154c-1.025-0.032-2.135-0.682-3.193-0.566l-0.81,0.306c-0.228,0.143-0.42,0.443-0.642,0.615
		c-0.393,0.306-0.993,0.694-1.442,0.915c-0.355,0.178-2.095,0.858-2.471,0.97c-0.576,0.178-1.252,0.142-1.829,0.309
		c-0.276,0.079-1.838,0.54-2.555,0.816c-0.51,0.203-1.058,0.516-1.573,0.67c-0.583,0.167-1.27,0.185-1.874,0.3
		c-1.486,0.297-3.003,0.714-4.516,0.875c-1.891,0.2-3.975-0.197-5.786,0.509c-1.075,0.417-1.911,1.425-2.937,1.94
		c-0.523,0.266-1.13,0.399-1.658,0.665c-0.239,0.116-1.801,0.842-2.347,1.075c-0.589,0.25-1.026,0.626-1.571,0.915
		c-0.248,0.134-3.01,1.19-3.238,1.229c-1.013,0.171-2.077-0.167-2.937-0.714c-2.226,0.293-3.03,0.903-4.939,1.885
		c-0.504,0.266-1.045,0.466-1.532,0.769c-0.483,0.3-0.932,0.711-1.447,0.97c-1.113,0.559-2.348,0.178-3.403,0.97
		c-0.731,0.549-1.107,1.425-1.832,1.99c-1.082,0.854-3.439,1.956-4.298,2.815c-0.187,0.177-0.941,1.214-1.107,1.48
		c-0.166,0.265-0.271,0.589-0.422,0.865c-0.604,1.044-1.262,2.156-2.22,2.913c-0.866,0.687-1.952,1.247-2.893,1.835
		c-0.504,0.321-0.895,0.726-1.363,1.076c-0.461,0.345-0.994,0.603-1.443,0.97c-0.652,0.53-2.543,2.409-3.108,3.065
		c-0.67,0.775-1.119,1.544-1.452,2.499c-0.116,0.348-0.189,0.757-0.337,1.075c-0.123,0.26-0.361,0.519-0.51,0.77
		c-0.46,0.769-0.883,1.511-1.406,2.249c0.025,0.638,0.148,1.414,0.087,2.04c-0.073,0.767-0.478,1.591-0.51,2.352
		c0,0.092,0.244,1.59,0.338,1.838c0.184,0.476,0.644,1,0.941,1.429c0.312,0.468,1.756,2.267,2.124,2.709
		c0.559,0.671,1.052,1.358,1.658,1.991c0.414,0.423,0.874,0.805,1.279,1.229c0.399,0.405,0.755,0.915,1.191,1.276
		c0.466,0.382,2.759,2.217,3.575,2.809c0.503,0.361,1.069,0.67,1.536,1.075c0.209,0.179,0.381,0.435,0.597,0.606
		c0.233,0.198,1.171,0.985,1.407,1.18c0.446,0.388,1.005,0.713,1.486,1.068c0.804,0.172,2.905-0.265,3.487-0.865
		c0.443-0.454,0.653-1.163,0.984-1.684c0.988-1.584,3.077-2.998,4.851-3.525c0.155-0.05,2.029-0.355,2.211-0.355
		c1.317,0,2.981,0.521,4.26,0.3c0.516-0.089,1.125-0.461,1.614-0.665c1.107-0.442,2.267-0.81,3.453-0.97
		c2.383-0.312,3.298,1.07,5.105,1.025c0.879-0.023,1.721-0.6,2.642-0.67c0.743,0.437,1.413,1.136,1.83,1.894l0.293,0.055
		c0.929,0.152,0.658-0.026,1.451-0.154c0.3-0.055,0.671-0.039,0.977-0.055c0.97-0.05,1.954,0.018,2.892-0.251
		c0.56-0.167,1.102-0.469,1.667-0.615c0.57-0.154,2.129-0.504,2.676-0.565c0.7-0.076,1.43,0.067,2.134,0.105
		c1.294,0.061,4.583-0.055,5.786-0.414c0.545-0.158,2.721-0.86,3.315-1.171c0.763-0.393,1.419-1.008,2.176-1.378
		c0.263-0.134,1.326-0.644,1.574-0.766c0.681-0.343,2.473-1.086,3.192-1.279c0.3-0.079,1.474-0.428,1.746-0.509
		c0.283-0.085,1.455-0.388,1.745-0.46c0.84-0.221,1.824-0.417,2.684-0.566c0.615-0.104,1.214-0.122,1.829-0.306
		c0.56-0.166,1.075-0.453,1.617-0.664l2.2-0.814c0.855-0.321,1.897-0.599,2.696-1.02c0.819-0.437,1.308-1.192,2.004-1.739
		c0.428-0.338,0.993-0.565,1.442-0.915c0.67,0.05,1.229-0.105,1.874-0.155c0.321-0.031,0.72,0.055,1.019,0
		c0.266-0.055,2.243-0.798,2.515-0.871c0.632-0.167,1.098-0.076,1.708-0.463c0.312-0.196,0.645-0.51,0.848-0.816
		c0.821-1.235,1.314-2.689,2.295-3.834c0.621-0.71,1.341-1.13,1.833-1.989c0.157-0.276,0.256-0.6,0.428-0.865
		c0.167-0.271,0.424-0.5,0.597-0.769c0.484-0.779,0.848-1.762,1.398-2.5c0.553-0.744,1.489-0.939,2.089-1.536
		c0.185-0.183,0.946-1.276,1.107-1.535c0.373-0.597,0.54-1.279,0.766-1.94c0.351-1.012,1.544-3.718,2.255-4.442
		c0.371-1.375-0.687-2.407-0.553-3.776c0.277-1.057,1.801-1.887,2.853-1.585l0.3-0.769C117.557,27.21,117.299,26.153,116.58,25.675z
		"/>
	
		<polygon fill="#00808E" stroke="#00808E" stroke-width="3" stroke-linecap="round" stroke-linejoin="round" stroke-miterlimit="10" points="
		116.874,16.57 116.874,28.028 109.083,22.299 	"/>
	
		<polyline fill="#00808E" stroke="#00808E" stroke-width="3" stroke-linecap="round" stroke-linejoin="round" stroke-miterlimit="10" points="
		1.644,46.651 1.644,58.563 11.124,50.32 1.644,46.651 	"/>
</g>
<g id="Layer_3">
</g>
<g id="Layer_2">
	
		<path fill="#00A6AF" stroke="#00FFFF" stroke-width="2" stroke-linecap="round" stroke-linejoin="round" stroke-miterlimit="10" d="
		M116.58,14.675l-0.256,1.125c-0.602,0.14-1.217,0.263-1.832,0.355c-0.785-0.338-1.259-1.107-2.002-1.535l-0.21-0.915
		c0.449-1.039,0.697-2.25,0.763-3.374c-0.885-0.7-1.85-0.088-2.936-0.77c-0.714-0.688-0.417-2.622-0.681-3.624
		c-1.236-0.632-1.752-0.274-2.937-0.151c-0.921,0.096-2.322,0.096-3.188-0.204c-1.961-0.67-3.135-3.759-4.982-4.391
		c-1.258-0.431-2.26-0.056-3.452-0.056c-0.885,0-1.64,0.263-2.506,0.362c-0.326,0.032-0.664,0.006-0.984,0.049
		c-0.294,0.043-3.526,0.355-3.826,0.411c-0.265,0.043-0.553,0.232-0.813,0.302c-0.848,0.233-1.896,0.421-2.77,0.516
		c-0.983,0.102-1.991-0.006-2.979,0.096c-0.294,0.033-0.598,0.131-0.892,0.155c-0.664,0.056-1.34-0.018-2.002,0.056
		c-0.288,0.023-0.653,0.16-0.936,0.154c-1.025-0.032-2.135-0.682-3.193-0.566l-0.81,0.306c-0.228,0.143-0.42,0.443-0.642,0.615
		c-0.393,0.306-0.993,0.694-1.442,0.915c-0.355,0.178-2.095,0.858-2.471,0.97c-0.576,0.178-1.252,0.142-1.829,0.309
		c-0.276,0.079-1.838,0.54-2.555,0.816c-0.51,0.203-1.058,0.516-1.573,0.67c-0.583,0.167-1.27,0.185-1.874,0.3
		c-1.486,0.297-3.003,0.714-4.516,0.875c-1.891,0.2-3.975-0.197-5.786,0.509c-1.075,0.417-1.911,1.425-2.937,1.94
		c-0.523,0.266-1.13,0.399-1.658,0.665c-0.239,0.116-1.801,0.842-2.347,1.075c-0.589,0.25-1.026,0.626-1.571,0.915
		c-0.248,0.134-3.01,1.19-3.238,1.229c-1.013,0.171-2.077-0.167-2.937-0.714c-2.226,0.293-3.03,0.903-4.939,1.885
		c-0.504,0.266-1.045,0.466-1.532,0.769c-0.483,0.3-0.932,0.711-1.447,0.97c-1.113,0.559-2.348,0.178-3.403,0.97
		c-0.731,0.549-1.107,1.425-1.832,1.99c-1.082,0.854-3.439,1.956-4.298,2.815c-0.187,0.177-0.941,1.214-1.107,1.48
		c-0.166,0.265-0.271,0.589-0.422,0.865c-0.604,1.044-1.262,2.156-2.22,2.913c-0.866,0.687-1.952,1.247-2.893,1.835
		c-0.504,0.321-0.895,0.726-1.363,1.076c-0.461,0.345-0.994,0.603-1.443,0.97c-0.652,0.53-2.543,2.409-3.108,3.065
		c-0.67,0.775-1.119,1.544-1.452,2.499c-0.116,0.348-0.189,0.757-0.337,1.075c-0.123,0.26-0.361,0.519-0.51,0.77
		c-0.46,0.769-0.883,1.511-1.406,2.249c0.025,0.638,0.148,1.414,0.087,2.04c-0.073,0.767-0.478,1.591-0.51,2.352
		c0,0.092,0.244,1.59,0.338,1.838c0.184,0.476,0.644,1,0.941,1.429c0.312,0.468,1.756,2.267,2.124,2.709
		c0.559,0.671,1.052,1.358,1.658,1.991c0.414,0.423,0.874,0.805,1.279,1.229c0.399,0.405,0.755,0.915,1.191,1.276
		c0.466,0.382,2.759,2.217,3.575,2.809c0.503,0.361,1.069,0.67,1.536,1.075c0.209,0.179,0.381,0.435,0.597,0.606
		c0.233,0.198,1.171,0.985,1.407,1.18c0.446,0.388,1.005,0.713,1.486,1.068c0.804,0.172,2.905-0.265,3.487-0.865
		c0.443-0.454,0.653-1.163,0.984-1.684c0.988-1.584,3.077-2.998,4.851-3.525c0.155-0.05,2.029-0.355,2.211-0.355
		c1.317,0,2.981,0.521,4.26,0.3c0.516-0.089,1.125-0.461,1.614-0.665c1.107-0.442,2.267-0.81,3.453-0.97
		c2.383-0.312,3.298,1.07,5.105,1.025c0.879-0.023,1.721-0.6,2.642-0.67c0.743,0.437,1.413,1.136,1.83,1.894l0.293,0.055
		c0.929,0.152,0.658-0.026,1.451-0.154c0.3-0.055,0.671-0.039,0.977-0.055c0.97-0.05,1.954,0.018,2.892-0.251
		c0.56-0.167,1.102-0.469,1.667-0.615c0.57-0.154,2.129-0.504,2.676-0.565c0.7-0.076,1.43,0.067,2.134,0.105
		c1.294,0.061,4.583-0.055,5.786-0.414c0.545-0.158,2.721-0.86,3.315-1.171c0.763-0.393,1.419-1.008,2.176-1.378
		c0.263-0.134,1.326-0.644,1.574-0.766c0.681-0.343,2.473-1.086,3.192-1.279c0.3-0.079,1.474-0.428,1.746-0.509
		c0.283-0.085,1.455-0.388,1.745-0.46c0.84-0.221,1.824-0.417,2.684-0.566c0.615-0.104,1.214-0.122,1.829-0.306
		c0.56-0.166,1.075-0.453,1.617-0.664l2.2-0.814c0.855-0.321,1.897-0.599,2.696-1.02c0.819-0.437,1.308-1.192,2.004-1.739
		c0.428-0.338,0.993-0.565,1.442-0.915c0.67,0.05,1.229-0.105,1.874-0.155c0.321-0.031,0.72,0.055,1.019,0
		c0.266-0.055,2.243-0.798,2.515-0.871c0.632-0.167,1.098-0.076,1.708-0.463c0.312-0.196,0.645-0.51,0.848-0.816
		c0.821-1.235,1.314-2.689,2.295-3.834c0.621-0.71,1.341-1.13,1.833-1.989c0.157-0.276,0.256-0.6,0.428-0.865
		c0.167-0.271,0.424-0.5,0.597-0.769c0.484-0.779,0.848-1.762,1.398-2.5c0.553-0.744,1.489-0.939,2.089-1.536
		c0.185-0.183,0.946-1.276,1.107-1.535c0.373-0.597,0.54-1.279,0.766-1.94c0.351-1.012,1.544-3.718,2.255-4.442
		c0.371-1.375-0.687-2.407-0.553-3.776c0.277-1.057,1.801-1.887,2.853-1.585l0.3-0.769C117.557,16.21,117.299,15.153,116.58,14.675z
		"/>
</g>
<g id="Layer_5">
	<g opacity="0.35">
		<path fill="#FFFFFF" d="M99.987,4H80.33c-0.05,0.007-0.102,0.021-0.151,0.025c-0.25,0.021-0.503,0.026-0.757,0.026l-0.523-0.002
			c-0.232,0-0.463,0.004-0.693,0.029c-0.113,0.009-0.205,0.034-0.298,0.055c-0.217,0.049-0.463,0.105-0.73,0.105
			c-0.5-0.015-0.939-0.122-1.364-0.238h-2.289c-0.129,0.141-0.261,0.279-0.397,0.384c-0.396,0.308-1.05,0.745-1.613,1.021
			C71.303,5.512,70.678,5.767,70.079,6h31.884C101.212,5.475,100.59,4.732,99.987,4z"/>
		<path fill="#FFFFFF" d="M108.605,8H63.547c-0.2,0.086-0.404,0.167-0.615,0.23c-0.439,0.125-0.872,0.178-1.291,0.228
			c-0.232,0.028-0.463,0.055-0.683,0.097c-0.438,0.087-0.889,0.188-1.341,0.289c-1.057,0.236-2.15,0.48-3.257,0.598
			c-0.585,0.062-1.165,0.07-1.704,0.07l-0.892-0.003c-0.992,0-2.036,0.029-2.933,0.379C50.754,9.918,50.676,9.96,50.598,10h58.573
			C108.779,9.45,108.66,8.723,108.605,8z"/>
		<path fill="#FFFFFF" d="M111.305,13.93c-0.048-0.208-0.028-0.425,0.057-0.621c0.172-0.397,0.306-0.844,0.417-1.309H47.508
			c-0.16,0.063-0.318,0.119-0.475,0.174c-0.242,0.085-0.484,0.167-0.709,0.28c-0.257,0.125-1.848,0.865-2.405,1.102
			c-0.265,0.113-0.503,0.266-0.776,0.444h68.178L111.305,13.93z"/>
		<path fill="#FFFFFF" d="M114.641,17.144c-0.186,0.028-0.375,0.004-0.545-0.07c-0.591-0.255-1.019-0.655-1.396-1.007
			c-0.025-0.023-0.048-0.043-0.073-0.066H32.899c-0.221,0.113-0.45,0.234-0.703,0.369c-0.275,0.147-0.57,0.304-0.896,0.472
			c-0.205,0.108-0.424,0.21-0.645,0.312c-0.278,0.129-0.557,0.255-0.818,0.417c-0.174,0.108-0.342,0.233-0.512,0.357
			c-0.032,0.023-0.069,0.049-0.102,0.073h84.932c0.378-0.434,0.869-0.797,1.428-1.019C115.26,17.043,114.948,17.098,114.641,17.144z
			"/>
		<path fill="#FFFFFF" d="M113.505,20H24.542c-0.074,0.091-0.147,0.179-0.222,0.276c-0.291,0.378-0.621,0.806-1.078,1.162
			c-0.232,0.184-0.51,0.371-0.811,0.562h91.603c-0.046-0.172-0.104-0.356-0.176-0.571C113.713,21.001,113.56,20.529,113.505,20z"/>
		<path fill="#FFFFFF" d="M19.036,24.172c-0.158,0.166-0.815,1.062-0.965,1.302c-0.07,0.112-0.121,0.237-0.176,0.36
			c-0.025,0.057-0.054,0.11-0.08,0.166h94.535c0.266-0.62,0.6-1.34,0.953-2h-94.06C19.173,24.058,19.089,24.119,19.036,24.172z"/>
		<path fill="#FFFFFF" d="M15.199,29.507c-0.222,0.176-0.464,0.333-0.702,0.493h95.985c0.252-0.347,0.586-0.828,0.689-0.995
			c0.181-0.29,0.306-0.639,0.427-1.005H16.602C16.208,28.544,15.752,29.071,15.199,29.507z"/>
		<path fill="#FFFFFF" d="M10.921,32.435c-0.229,0.171-0.475,0.325-0.721,0.479c-0.235,0.146-0.473,0.29-0.687,0.465
			C9.353,33.509,9.106,33.733,8.823,34h98.077c0.068-0.131,0.135-0.264,0.203-0.398c0.271-0.539,0.551-1.097,0.923-1.596
			c0.001-0.002,0.003-0.003,0.005-0.005H11.456C11.282,32.148,11.107,32.295,10.921,32.435z"/>
		<path fill="#FFFFFF" d="M6.529,36.321C6.058,36.867,5.726,37.392,5.462,38h98.421c0.239-0.265,0.483-0.495,0.726-0.718
			c0.372-0.342,0.694-0.637,0.926-1.042c0.042-0.074,0.078-0.158,0.114-0.24H6.821C6.705,36.125,6.603,36.236,6.529,36.321z"/>
		<path fill="#FFFFFF" d="M4.497,40.286c-0.059,0.08-0.118,0.159-0.165,0.237l-0.231,0.389C3.889,41.269,3.667,41.634,3.436,42
			h98.011c0.301-0.454,0.56-0.95,0.833-1.475c0.09-0.174,0.183-0.35,0.276-0.525H4.699C4.632,40.103,4.562,40.197,4.497,40.286z"/>
		<path fill="#FFFFFF" d="M3.148,44.397c-0.043,0.451-0.166,0.876-0.284,1.287C2.833,45.793,2.806,45.896,2.777,46h88.405
			c0.073-0.073,0.143-0.136,0.219-0.214c0.259-0.264,0.527-0.538,0.85-0.792c0.271-0.215,0.56-0.379,0.838-0.538
			c0.208-0.119,0.421-0.235,0.607-0.38c0.043-0.034,0.097-0.05,0.144-0.076H3.157C3.155,44.133,3.161,44.267,3.148,44.397z"/>
		<path fill="#FFFFFF" d="M2.926,48.162c0.072,0.183,0.321,0.516,0.522,0.783c0.105,0.141,0.208,0.277,0.296,0.405
			C3.827,49.472,4.009,49.714,4.229,50h75.052c0.135-0.035,0.25-0.064,0.316-0.081c0.956-0.251,2.027-0.455,2.756-0.581
			c0.228-0.039,0.451-0.066,0.673-0.094c0.368-0.045,0.715-0.087,1.039-0.185c0.284-0.084,0.572-0.214,0.877-0.353
			c0.22-0.099,0.44-0.198,0.664-0.285L86.747,48H2.887C2.902,48.069,2.916,48.128,2.926,48.162z"/>
		<path fill="#FFFFFF" d="M6.377,52.685c0.349,0.44,0.679,0.855,1.049,1.242C7.45,53.951,7.479,53.976,7.503,54h62.081
			c0.102-0.069,0.202-0.137,0.306-0.21c0.389-0.274,0.792-0.558,1.252-0.783c0.153-0.079,0.64-0.313,1.042-0.508l0.529-0.257
			c0.134-0.067,0.315-0.152,0.513-0.241H5.824C6.013,52.227,6.195,52.456,6.377,52.685z"/>
		<path fill="#FFFFFF" d="M48.832,57.442c0.087,0.013,0.158,0.02,0.214,0.02c0.202-0.077,0.404-0.143,0.753-0.2
			c0.263-0.048,0.553-0.054,0.809-0.059l0.273-0.008c0.264-0.014,0.526-0.019,0.788-0.024c0.675-0.013,1.313-0.026,1.883-0.189
			c0.215-0.064,0.437-0.158,0.659-0.251c0.325-0.135,0.661-0.274,1.034-0.371c0.32-0.086,0.941-0.233,1.542-0.36h-9.302
			C48.001,56.401,48.467,56.896,48.832,57.442z"/>
		<path fill="#FFFFFF" d="M9.813,56.354c0.29,0.237,1.204,0.971,2.063,1.646h12.436c0.797-0.506,1.656-0.918,2.502-1.17
			c0.215-0.07,2.193-0.397,2.496-0.397c0.608,0,1.252,0.094,1.875,0.184c0.785,0.114,1.575,0.241,2.215,0.131
			c0.212-0.037,0.552-0.203,0.853-0.349c0.19-0.093,0.376-0.183,0.547-0.254c0.134-0.054,0.26-0.096,0.391-0.146H9.457
			C9.577,56.133,9.695,56.257,9.813,56.354z"/>
		<path fill="#FFFFFF" d="M14.941,60.252c0.126,0.107,0.249,0.241,0.37,0.377c0.063,0.07,0.122,0.144,0.192,0.2
			c0.251,0.212,1.132,0.952,1.397,1.171h3.855c0.086-0.148,0.171-0.313,0.253-0.482c0.125-0.26,0.252-0.516,0.396-0.741
			c0.164-0.262,0.363-0.521,0.579-0.776h-7.368C14.725,60.082,14.835,60.16,14.941,60.252z"/>
	</g>
</g>
</svg>
