<?xml version="1.0" encoding="utf-8"?>
<!-- Generator: Adobe Illustrator 16.0.0, SVG Export Plug-In . SVG Version: 6.00 Build 0)  -->
<!DOCTYPE svg PUBLIC "-//W3C//DTD SVG 1.1//EN" "http://www.w3.org/Graphics/SVG/1.1/DTD/svg11.dtd">
<svg version="1.1" xmlns="http://www.w3.org/2000/svg" xmlns:xlink="http://www.w3.org/1999/xlink" x="0px" y="0px" width="47px"
	 height="72px" viewBox="0 0 47 72" enable-background="new 0 0 47 72" xml:space="preserve">
<g id="Layer_1">
	<g>
		
			<path fill="#00808E" stroke="#00808E" stroke-width="3" stroke-linecap="round" stroke-linejoin="round" stroke-miterlimit="10" d="
			M44.348,53.053l-1.434-2.171c0.484-0.706,1.341-1.681,1.68-2.436c0.018-0.036,0.171-1.607,0.188-1.752l-1.783-2.478l0.279-1.069
			l1.171-0.729l-0.168-2.674l-1.222-0.67l-1.45-2.469c-0.809,0.025-1.852-0.212-2.557-0.603c0.18-1.519-2.563-3.887-3.904-4.278
			c-0.721-0.212-1.645-0.28-2.394-0.399c-0.091-0.764-0.279-1.654-0.279-2.41c0-0.797,0.375-1.538,0.279-2.403
			c-0.193-0.332-0.543-0.789-0.67-1.136c-0.117-0.332-0.067-0.791-0.168-1.138c-0.221-0.797-0.654-1.605-0.831-2.404
			c-0.187-0.839,0.177-1.451-0.392-2.409c-1.178-0.722-1.757-0.214-2.612-0.398c-1.122-0.247-2.344-1.267-3.565-0.74l-0.168-1.265
			l0.103-0.047l-0.099,0.042c0,0-1.483,0.968-1.615,0.954c-0.13-0.013-0.544-0.336-0.544-0.336l-1.446-0.027l-0.602-0.939
			l-0.846,0.3l-0.482-1.086l-1.732-0.049l-0.708-0.916l-0.692,0.185l-0.789-0.491l-1.501,0.026l-0.921-1.119l-2.251-0.063
			l-1.629,0.46l-1.283-0.591l-1.322,0.273l-0.631,1.316l-0.938,0.031l-0.073,1.527l-1.734,1.177l-0.83,1.194l0.922,0.298
			l2.184,3.063l1.437-0.544l0.451-1.155l0.583,0.532l0.131,0.833l0.916,1.934L7.85,24.86l-0.401,1.392l0.74,0.663l0.229,0.893
			l-0.67,0.711l-0.012,1.597l0.623,0.524l1.178,2.779l-0.629,0.499L8.435,35.16l1.105,0.752l0.332,1.605l1.633-0.01l1.076,1.043
			l1.118-0.232l0.147,0.502l1.12,0.014l0.42,0.362l0.499,1.776l0.807-0.455l2.096-0.066l0.088,0.84L18.539,43.2l-1.354,0.73
			l-0.313,2.23l0.474,1.453l-0.644,0.216l-0.916-0.056l-0.843,0.91l0.052,1.298l1.932,2.053l-1.159,1.261l-0.563,1.016l1.96,1.353
			l-0.861,1.035l1.331,1.237l0.826-0.581l2.055,0.351l-0.485,2.021l1.245,2.07l1.626,0.357l-0.263,2.466l0.528,2.547l2.714,0.42
			l2.491,2.055l2.133-0.027c0.65-0.636,1.408-1.223,2.173-0.917c1.039,0.409,2.073,0.715,3.16,0.918
			c1.247-0.604,2.556-1.297,3.877-1.673c0.569-0.159,0.723-2.962,1.978-3.573c1.366-0.662,2.283-1.705,2.002-3.326
			c-0.194-1.122-0.561-1.521,0.315-2.376c0.747-0.74,0.719-0.426,0.719-1.572c0-1.34-0.201-2.711-0.371-4.044H44.348z"/>
	</g>
</g>
<g id="Layer_3">
	
		<polyline fill="#00808E" stroke="#00808E" stroke-width="3" stroke-linecap="round" stroke-linejoin="round" stroke-miterlimit="10" points="
		1.781,6.519 1.781,18.845 16.144,15.653 1.781,6.519 	"/>
	
		<polygon fill="#00808E" stroke="#00808E" stroke-width="3" stroke-linecap="round" stroke-linejoin="round" stroke-miterlimit="10" points="
		15.203,41.986 15.203,49.111 22.581,42.653 	"/>
</g>
<g id="Layer_2">
	<g>
		
			<path fill="#00A6AF" stroke="#00FFFF" stroke-width="2" stroke-linecap="round" stroke-linejoin="round" stroke-miterlimit="10" d="
			M44.348,40.728l-1.434-2.171c0.484-0.706,1.341-1.681,1.68-2.436c0.018-0.036,0.171-1.607,0.188-1.752l-1.783-2.477l0.279-1.069
			l1.171-0.729l-0.168-2.674l-1.222-0.67l-1.45-2.469c-0.809,0.025-1.852-0.212-2.557-0.603c0.18-1.519-2.563-3.887-3.904-4.278
			c-0.721-0.212-1.645-0.28-2.394-0.399c-0.091-0.764-0.279-1.653-0.279-2.412c0-0.795,0.375-1.536,0.279-2.401
			c-0.193-0.332-0.543-0.791-0.67-1.137c-0.117-0.332-0.067-0.791-0.168-1.138c-0.221-0.797-0.654-1.605-0.831-2.404
			c-0.187-0.839,0.177-1.451-0.392-2.408c-1.178-0.723-1.757-0.214-2.612-0.398c-1.122-0.247-2.344-1.267-3.565-0.74l-0.168-1.265
			l0.103-0.047l-0.099,0.042c0,0-1.483,0.968-1.615,0.954c-0.13-0.013-0.544-0.336-0.544-0.336l-1.446-0.026l-0.602-0.939
			l-0.846,0.299l-0.482-1.086l-1.732-0.051l-0.708-0.914l-0.692,0.185l-0.789-0.491l-1.501,0.026l-0.921-1.119l-2.251-0.063
			l-1.629,0.46L7.309,1L5.987,1.273L5.356,2.59L4.418,2.621L4.346,4.148L2.611,5.325l-0.83,1.194l0.922,0.298L4.888,9.88
			l1.437-0.544l0.451-1.155l0.583,0.532L7.49,9.545l0.916,1.934L7.85,12.534l-0.401,1.392l0.74,0.664l0.229,0.893l-0.67,0.711
			L7.735,17.79l0.623,0.524l1.178,2.779l-0.629,0.499l-0.472,1.242l1.105,0.752l0.332,1.605l1.633-0.01l1.076,1.043l1.118-0.232
			l0.147,0.502l1.12,0.014l0.42,0.362l0.499,1.776l0.807-0.455l2.096-0.066l0.088,0.84l-0.336,1.909l-1.354,0.73l-0.313,2.23
			l0.474,1.453l-0.644,0.216l-0.916-0.056l-0.843,0.91l0.052,1.298l1.932,2.053l-1.159,1.261l-0.563,1.016l1.96,1.351l-0.861,1.037
			l1.331,1.237l0.826-0.581l2.055,0.351l-0.485,2.021l1.245,2.07l1.626,0.357l-0.263,2.466l0.528,2.547l2.714,0.42l2.491,2.055
			l2.133-0.027c0.65-0.636,1.408-1.223,2.173-0.917c1.039,0.409,2.073,0.715,3.16,0.918c1.247-0.604,2.556-1.297,3.877-1.673
			c0.569-0.159,0.723-2.962,1.978-3.573c1.366-0.662,2.283-1.705,2.002-3.326c-0.194-1.122-0.561-1.521,0.315-2.376
			c0.747-0.74,0.719-0.426,0.719-1.572c0-1.34-0.201-2.711-0.371-4.044H44.348z"/>
	</g>
</g>
<g id="Layer_5">
	<g opacity="0.35">
		<path fill="#FFFFFF" d="M19.904,5.824L19.73,5.552l-0.098,0.035c-0.491,0.173-1.036-0.06-1.248-0.537L18.158,4.54l-1.103-0.032
			c-0.299-0.009-0.578-0.151-0.761-0.387L16.201,4H5.354L5.345,4.196C5.33,4.51,5.167,4.799,4.907,4.976L3.398,6h16.653
			C19.996,5.947,19.946,5.889,19.904,5.824z"/>
		<path fill="#FFFFFF" d="M30.188,10c-0.025-0.092-0.059-0.18-0.08-0.274c-0.096-0.43-0.087-0.807-0.08-1.11
			c0.006-0.25-0.004-0.433-0.047-0.616H8.053c0.154,0.15,0.26,0.344,0.293,0.557l0.109,0.69L8.813,10H30.188z"/>
		<path fill="#FFFFFF" d="M8.984,14h22.469c-0.12-0.197-0.232-0.399-0.308-0.604c-0.11-0.313-0.132-0.605-0.151-0.864
			c-0.009-0.122-0.021-0.274-0.039-0.338c-0.018-0.066-0.048-0.128-0.069-0.193H9.262l-0.479,0.91l-0.199,0.691l0.273,0.245
			C8.907,13.891,8.945,13.946,8.984,14z"/>
		<path fill="#FFFFFF" d="M31.475,16.589c0-0.205,0.021-0.4,0.049-0.589H9.268c-0.036,0.059-0.074,0.117-0.123,0.168l-0.401,0.425
			l-0.005,0.733l0.263,0.222c0.121,0.101,0.216,0.229,0.277,0.375L9.312,18h22.292C31.535,17.529,31.475,17.053,31.475,16.589z"/>
		<path fill="#FFFFFF" d="M34.869,20.359c-0.43-0.126-0.987-0.198-1.525-0.268c-0.229-0.029-0.45-0.06-0.663-0.092H10.16
			l0.298,0.703c0.175,0.414,0.053,0.894-0.3,1.174L10.002,22h27.122C36.438,21.267,35.523,20.55,34.869,20.359z"/>
		<path fill="#FFFFFF" d="M41.026,25.262c-0.858-0.073-1.783-0.335-2.459-0.71c-0.22-0.122-0.372-0.323-0.45-0.552H10.646
			l0.039,0.187l0.813-0.005c0.278,0.021,0.515,0.1,0.703,0.282l0.695,0.674l0.599-0.125c0.435-0.089,0.868,0.117,1.076,0.49
			l0.407,0.005c0.235,0.003,0.462,0.088,0.64,0.242L15.908,26h25.552L41.026,25.262z"/>
		<path fill="#FFFFFF" d="M19.781,28.021l0.088,0.84c0.01,0.093,0.006,0.186-0.01,0.278L19.708,30h23.013
			c0.011-0.007,0.018-0.02,0.029-0.027l0.664-0.413l-0.096-1.529L43.26,28H19.775C19.776,28.007,19.78,28.013,19.781,28.021z"/>
		<path fill="#FFFFFF" d="M42.018,32H18.559l-0.455,0.245l-0.21,1.5L17.977,34h25.307l-1.097-1.524
			C42.085,32.334,42.037,32.169,42.018,32z"/>
		<path fill="#FFFFFF" d="M42.085,38c0.002-0.003,0.002-0.006,0.004-0.009c0.165-0.241,0.371-0.511,0.586-0.793
			c0.303-0.397,0.63-0.831,0.848-1.198H18.036c-0.104,0.102-0.226,0.188-0.373,0.237l-0.644,0.216
			c-0.122,0.041-0.251,0.059-0.378,0.05l-0.444-0.027l-0.239,0.258l0.021,0.51L16.69,38H42.085z"/>
		<path fill="#FFFFFF" d="M43.426,41.335l-0.03-0.234L42.669,40H17.873c-0.042,0.139-0.106,0.273-0.21,0.387l-1.144,1.291L16.986,42
			H43.51C43.482,41.777,43.454,41.555,43.426,41.335z"/>
		<path fill="#FFFFFF" d="M43.727,44.892v-0.12c0-0.254-0.01-0.512-0.024-0.772h-25.79l-0.237,0.285l0.044,0.042l0.163-0.114
			c0.216-0.152,0.486-0.21,0.743-0.168l2.055,0.351c0.273,0.047,0.515,0.204,0.667,0.435c0.152,0.231,0.202,0.515,0.137,0.784
			L21.393,46h21.581c0.096-0.122,0.205-0.245,0.335-0.372c0.161-0.159,0.292-0.277,0.396-0.37c0.008-0.007,0.015-0.014,0.022-0.02
			C43.729,45.15,43.727,45.039,43.727,44.892z"/>
		<path fill="#FFFFFF" d="M42.592,48.347c-0.026-0.113-0.052-0.229-0.076-0.347H21.555l0.354,0.588l1.206,0.265
			c0.498,0.109,0.833,0.576,0.779,1.083L23.886,50h18.699c0.192-0.391,0.18-0.774,0.122-1.109
			C42.671,48.686,42.629,48.507,42.592,48.347z"/>
		<path fill="#FFFFFF" d="M23.646,52.246l0.355,1.714L24.261,54h15.132c0.204-0.637,0.462-1.393,0.896-2H23.673L23.646,52.246z"/>
	</g>
</g>
</svg>
