<?xml version="1.0" encoding="utf-8"?>
<!-- Generator: Adobe Illustrator 16.0.0, SVG Export Plug-In . SVG Version: 6.00 Build 0)  -->
<!DOCTYPE svg PUBLIC "-//W3C//DTD SVG 1.1//EN" "http://www.w3.org/Graphics/SVG/1.1/DTD/svg11.dtd">
<svg version="1.1" xmlns="http://www.w3.org/2000/svg" xmlns:xlink="http://www.w3.org/1999/xlink" x="0px" y="0px" width="76px"
	 height="71px" viewBox="0 0 76 71" enable-background="new 0 0 76 71" xml:space="preserve">
<g id="Layer_3">
	
		<path fill="#00808E" stroke="#00808E" stroke-width="3" stroke-linecap="round" stroke-linejoin="round" stroke-miterlimit="10" d="
		M74.5,44.361l-0.842,0.951c-1.871,0.441-4.206,1.105-5.223,2.925c-0.166,0.313-0.188,0.761-0.35,1.08
		c-0.361,0.725-0.838,1.444-1.248,2.157l0.287,1.607l2.805,0.586v1.074c-0.674,0.582-2.242,2.176-2.432,3.105l-1.199,0.834
		l-1.189-0.295l-0.803,1.076l0.848,1.018l-3.182,2.857c-0.955,0.098-1.804-0.258-2.283-0.236c-0.704,0.022-1.537,0.242-2.242,0.356
		c-0.577,1.054-2.349,2.888-3.229,3.578c-0.842,0.659-2.615,1.545-3.676,1.964l-1.038-0.661c-0.136-0.839-0.706-2.401-1.402-2.972
		v-3.1c-1.198-0.211-1.812,0.607-2.29,0.651c-1.069,0.112-2.439-0.082-3.531-0.12c-1.766,1.341-3.806,1.902-5.722,2.927
		c-0.371,0.204-0.674,0.688-1.047,0.894c-0.931,0.537-2.378,0.455-3.327,0l-2.344,0.537l-2.287-0.894
		c-1.402,0.272-2.979,1.864-4.418,1.075c-0.813-1.795-3.844-9.201-4.88-10.32c-1.826-0.535-3.289,2.457-5.616,2.445
		c-1.009-0.764-1.94-1.812-2.735-2.782c1.03-0.961,1.538-2.431,1.045-3.788l-1.045-0.955c0.038-0.719,0.233-1.531,0.5-2.205
		c-0.068-0.502-0.638-1.782-0.994-2.09c-1.455-1.224-2.985-2.42-4.379-3.7c-0.34-0.311-0.57-0.806-0.896-1.13
		c-0.612-0.621-1.523-1.273-2.335-1.613L1.5,40l0.545-1.069l2.191-1.786l0.75-1.193l0.021-0.678h0.017
		c-0.16-0.675,0.728-2.13,1.152-2.604l1.237-0.065c1.743,0.472,2.356,2.826,3.789,3.761c0.69,0.453,1.599,0.74,2.335,1.135
		c0.666,0.357,1.395,1.047,2.234,0.955c0.296-0.037,0.447-0.117,0.729-0.204l1.462-0.394c0.575-0.25,1.432-1.07,2.289-1.433
		c1.197-0.5,2.493-0.813,3.576-1.556c0.365-1.021,0.13-2.221,0.154-3.281c0.014-0.705,0.03-1.625,0.15-2.326
		c0.061-0.342,0.357-0.725,0.448-1.068l1.31-4.964c0.197-0.03,2.335-0.341,2.396-0.362c0.72-0.305,2.553-1.842,2.916-2.654
		l1.343-0.1l3.963,6.171c0.872-0.646,1.721-2.06,2.125-3.04c-0.344-0.9-0.63-1.887-0.781-2.843c0.771-0.421,1.804-1.644,1.945-2.539
		l-0.037-1.432l-0.016-0.712c0.839-1.258,2.29-1.012,3.432-1.911l0.45-0.954l0.856-0.56c1.477-0.948,2.297,0.106,3.712,0.56
		c0.556,0.178,2.979,0.182,3.585,0.182c1.182-1.105,3.371-0.611,4.773-0.303c0.706,0.591,2.115,2.123,2.138,3.1
		c0.022,1.154-0.265,2.374-0.296,3.523c-0.037,1.152,0.062,2.365,0.099,3.525c0.895,1.545,2.237,1.932,2.002,3.955l-0.169,1.47
		c0.379,1.198,1.495,2.011,2.093,3.106c0.517,3.337-4.956,7.586-1.985,10.741l2.235-0.298c1.519-1.644,2.675-1.225,4.625-1.674
		c1.561-0.355,3.273-1.195,4.478-2.265C73.379,39.267,74.242,42.389,74.5,44.361z"/>
</g>
<g id="Layer_1">
	
		<polygon fill="#00808D" stroke="#00808D" stroke-width="3" stroke-linecap="round" stroke-linejoin="round" stroke-miterlimit="10" points="
		74.5,33.677 74.5,44.361 58.766,45.119 	"/>
	
		<polygon fill="#00808D" stroke="#00808D" stroke-width="3" stroke-linecap="round" stroke-linejoin="round" stroke-miterlimit="10" points="
		1.5,29.318 1.5,41.199 18.63,43.124 	"/>
	
		<polygon fill="#00808D" stroke="#00808D" stroke-width="3" stroke-linecap="round" stroke-linejoin="round" stroke-miterlimit="10" points="
		62.417,20.73 62.417,20.879 62.417,33.453 53.388,24.996 	"/>
</g>
<g id="Layer_2">
	
		<path fill="#00A6AF" stroke="#00FFFF" stroke-width="2" stroke-linecap="round" stroke-linejoin="round" stroke-miterlimit="10" d="
		M74.5,33.677l-0.842,0.953c-1.871,0.44-4.206,1.106-5.223,2.926c-0.166,0.311-0.188,0.759-0.35,1.076
		c-0.361,0.729-0.838,1.448-1.248,2.159l0.287,1.607l2.805,0.586v1.076c-0.674,0.582-2.242,2.174-2.432,3.106l-1.199,0.832
		l-1.189-0.294l-0.803,1.075l0.848,1.019l-3.182,2.855c-0.955,0.1-1.804-0.256-2.283-0.236c-0.704,0.023-1.537,0.242-2.242,0.357
		c-0.577,1.053-2.349,2.887-3.229,3.578c-0.842,0.658-2.615,1.546-3.676,1.963l-1.038-0.659c-0.136-0.841-0.706-2.403-1.402-2.972
		v-3.099c-1.198-0.212-1.812,0.604-2.29,0.65c-1.069,0.111-2.439-0.083-3.531-0.121c-1.766,1.339-3.806,1.901-5.722,2.926
		c-0.371,0.205-0.674,0.688-1.047,0.895c-0.931,0.538-2.378,0.454-3.327,0l-2.344,0.538l-2.287-0.895
		c-1.402,0.273-2.979,1.863-4.418,1.076c-0.813-1.795-3.844-9.201-4.88-10.32c-1.826-0.539-3.289,2.453-5.616,2.444
		c-1.009-0.764-1.94-1.814-2.735-2.78c1.03-0.963,1.538-2.434,1.045-3.79l-1.045-0.954c0.038-0.721,0.233-1.53,0.5-2.207
		c-0.068-0.499-0.638-1.779-0.994-2.09c-1.455-1.223-2.985-2.418-4.379-3.697c-0.34-0.313-0.57-0.807-0.896-1.131
		C3.523,31.51,2.612,30.854,1.8,30.518l-0.3-1.199l0.545-1.068l2.191-1.787l0.75-1.197l0.021-0.676h0.017
		c-0.16-0.675,0.728-2.131,1.152-2.605l1.237-0.061c1.743,0.469,2.356,2.826,3.789,3.758c0.69,0.455,1.599,0.742,2.335,1.137
		c0.666,0.355,1.395,1.042,2.234,0.956c0.296-0.038,0.447-0.122,0.729-0.206l1.462-0.395c0.575-0.25,1.432-1.068,2.289-1.433
		c1.197-0.5,2.493-0.811,3.576-1.554c0.365-1.023,0.13-2.221,0.154-3.281c0.014-0.709,0.03-1.629,0.15-2.326
		c0.061-0.344,0.357-0.728,0.448-1.068l1.31-4.964c0.197-0.03,2.335-0.343,2.396-0.363c0.72-0.304,2.553-1.843,2.916-2.655
		l1.343-0.099l3.963,6.168c0.872-0.643,1.721-2.058,2.125-3.038c-0.344-0.899-0.63-1.885-0.781-2.844
		c0.771-0.42,1.804-1.643,1.945-2.536l-0.037-1.432l-0.016-0.713c0.839-1.257,2.29-1.015,3.432-1.911l0.45-0.953l0.856-0.561
		c1.477-0.949,2.297,0.105,3.712,0.561c0.556,0.174,2.979,0.182,3.585,0.182c1.182-1.107,3.371-0.613,4.773-0.304
		c0.706,0.591,2.115,2.122,2.138,3.099c0.022,1.154-0.265,2.374-0.296,3.524c-0.037,1.151,0.062,2.363,0.099,3.524
		c0.895,1.545,2.237,1.932,2.002,3.956l-0.169,1.471c0.379,1.198,1.495,2.009,2.093,3.106c0.517,3.335-4.956,7.586-1.985,10.741
		l2.235-0.298c1.519-1.643,2.675-1.228,4.625-1.674c1.561-0.357,3.273-1.197,4.478-2.265C73.379,28.585,74.242,31.704,74.5,33.677z"
		/>
</g>
<g id="Layer_5">
	<g opacity="0.35">
		<path fill="#FFFFFF" d="M57.652,6c0.025-0.285,0.041-0.563,0.036-0.831C57.684,4.945,57.409,4.485,57.029,4H43.658
			c-0.58,0.419-1.18,0.625-1.715,0.8c-0.57,0.187-0.93,0.313-1.193,0.577L40.766,6H57.652z"/>
		<path fill="#FFFFFF" d="M57.393,8.641C57.398,8.427,57.418,8.213,57.437,8H40.586c-0.299,0.729-0.859,1.463-1.451,2h18.264
			C57.384,9.546,57.378,9.091,57.393,8.641z"/>
		<path fill="#FFFFFF" d="M33.005,12h-2.707c-0.607,0.512-1.224,0.937-1.625,1.105c-0.178,0.063-0.196,0.07-1.985,0.335L26.54,14
			h7.75L33.005,12z"/>
		<path fill="#FFFFFF" d="M57.626,12.698c-0.083-0.144-0.129-0.304-0.134-0.47c-0.003-0.075-0.007-0.153-0.01-0.229H39.495
			c0.024,0.068,0.043,0.136,0.069,0.204c0.092,0.238,0.088,0.502-0.009,0.737c-0.116,0.284-0.297,0.658-0.52,1.059h19.567
			C58.286,13.644,57.939,13.24,57.626,12.698z"/>
		<path fill="#FFFFFF" d="M59.371,17.926c-0.043-0.135-0.056-0.275-0.04-0.416l0.169-1.471c0.002-0.015-0.001-0.024,0-0.039H37.568
			c-0.151,0.147-0.307,0.285-0.468,0.404c-0.223,0.163-0.504,0.229-0.774,0.178c-0.272-0.051-0.511-0.211-0.66-0.443L35.576,16
			h-9.564l-0.466,1.767c-0.022,0.083-0.054,0.157-0.084,0.233h33.939C59.393,17.974,59.379,17.952,59.371,17.926z"/>
		<path fill="#FFFFFF" d="M25.011,22H61.33c0.088-0.335,0.136-0.656,0.117-0.949c-0.195-0.315-0.454-0.626-0.725-0.951
			c-0.026-0.032-0.055-0.067-0.081-0.1H25.007c-0.012,0.3-0.02,0.601-0.025,0.874c-0.008,0.35,0.008,0.655,0.022,0.966
			C25.007,21.892,25.008,21.947,25.011,22z"/>
		<path fill="#FFFFFF" d="M60.131,24.711c0.124-0.236,0.247-0.474,0.368-0.711H24.905c-0.037,0.175-0.075,0.351-0.137,0.523
			c-0.071,0.198-0.202,0.369-0.376,0.488c-0.636,0.436-1.311,0.732-1.983,0.988h37.066C59.688,25.556,59.914,25.124,60.131,24.711z"
			/>
		<path fill="#FFFFFF" d="M8.849,24.548C8.716,24.359,8.585,24.176,8.454,24H6.125c-0.069,0.171-0.122,0.325-0.121,0.412
			c0.038,0.158,0.034,0.314-0.006,0.461l-0.013,0.424c-0.005,0.178-0.058,0.35-0.152,0.5L5.706,26h4.316
			C9.574,25.564,9.205,25.053,8.849,24.548z"/>
		<path fill="#FFFFFF" d="M71.672,28.59c-0.792,0.569-1.711,1.046-2.658,1.41h3.452C72.232,29.47,71.968,28.983,71.672,28.59z"/>
		<path fill="#FFFFFF" d="M58.722,28H18.523c-0.054,0.027-0.109,0.067-0.163,0.09c-0.044,0.02-0.091,0.036-0.138,0.049l-1.63,0.452
			c-0.173,0.061-0.389,0.137-0.696,0.176c-0.107,0.011-0.189,0.015-0.271,0.015c-0.845,0-1.523-0.428-2.073-0.781h-9.62L2.84,28.892
			l-0.279,0.548l0.094,0.374C2.762,29.869,2.872,29.937,2.981,30h55.623C58.495,29.337,58.556,28.666,58.722,28z"/>
		<path fill="#FFFFFF" d="M73.152,32h-9.943c-0.125,0.082-0.26,0.146-0.41,0.166l-2.236,0.297c-0.318,0.045-0.639-0.071-0.859-0.306
			c-0.049-0.052-0.086-0.105-0.132-0.157H5.307c0.023,0.034,0.05,0.069,0.073,0.102c0.114,0.164,0.232,0.334,0.329,0.424
			c0.543,0.499,1.118,0.99,1.697,1.475h64.722c0.327-0.096,0.657-0.187,0.99-0.269l0.325-0.368
			C73.37,32.922,73.271,32.461,73.152,32z"/>
		<path fill="#FFFFFF" d="M67.251,38c0.012-0.046,0.024-0.094,0.034-0.135c0.055-0.228,0.125-0.512,0.27-0.783
			c0.23-0.412,0.518-0.763,0.833-1.082H9.821c0.077,0.064,0.156,0.129,0.233,0.193c0.398,0.347,0.812,1.122,1.075,1.807H67.251z"/>
		<path fill="#FFFFFF" d="M11.89,41.869c0.016,0.043,0.024,0.088,0.038,0.131h54.11l-0.185-1.033c-0.041-0.232,0-0.471,0.117-0.675
			c0.057-0.097,0.116-0.194,0.174-0.292H11.144c-0.083,0.287-0.153,0.577-0.194,0.855l0.675,0.615
			C11.744,41.58,11.835,41.717,11.89,41.869z"/>
		<path fill="#FFFFFF" d="M11.232,46h4.569c0.609-0.41,1.258-0.729,2.008-0.729c0.246,0,0.491,0.036,0.729,0.106
			c0.173,0.051,0.329,0.146,0.451,0.279c0.081,0.088,0.171,0.208,0.266,0.344h47.671c0.434-0.737,1.101-1.48,1.616-2H12.079
			C11.962,44.704,11.675,45.39,11.232,46z"/>
		<path fill="#FFFFFF" d="M63.506,48.182L63.642,48H20.373c0.293,0.594,0.61,1.266,0.943,2h42.118l0.336-0.302l-0.231-0.278
			C63.242,49.064,63.229,48.553,63.506,48.182z"/>
		<path fill="#FFFFFF" d="M23.074,54h13.339c0.633-0.321,1.263-0.605,1.875-0.871c0.817-0.356,1.598-0.706,2.337-1.129H22.207
			C22.49,52.646,22.78,53.316,23.074,54z"/>
		<path fill="#FFFFFF" d="M49.103,54h6.126c0.57-0.618,1.101-1.266,1.342-1.706c0.065-0.118,0.159-0.212,0.263-0.294h-7.73V54z"/>
		<path fill="#FFFFFF" d="M50.395,57.037l0.244,0.156c0.743-0.324,1.643-0.781,2.318-1.193h-2.901
			C50.198,56.372,50.319,56.735,50.395,57.037z"/>
	</g>
</g>
</svg>
