<?xml version="1.0" encoding="utf-8"?>
<!-- Generator: Adobe Illustrator 16.0.0, SVG Export Plug-In . SVG Version: 6.00 Build 0)  -->
<!DOCTYPE svg PUBLIC "-//W3C//DTD SVG 1.1//EN" "http://www.w3.org/Graphics/SVG/1.1/DTD/svg11.dtd">
<svg version="1.1" xmlns="http://www.w3.org/2000/svg" xmlns:xlink="http://www.w3.org/1999/xlink" x="0px" y="0px" width="96px"
	 height="91px" viewBox="0 0 96 91" enable-background="new 0 0 96 91" xml:space="preserve">
<g id="Layer_1">
	<g>
		
			<path fill="#00808E" stroke="#00808E" stroke-width="3" stroke-linecap="round" stroke-linejoin="round" stroke-miterlimit="10" d="
			M93.971,26.984l-5.431-4.037l-0.696-5.256l-2.105-3.341l-4.174,0.083l-4.908,0.925l-2.734-1.364h-0.008l-3.271,6.499l-1.978,0.554
			l-5.476-2.622l-1.804,1.523l0.699,1.847l-1.018,4.029l-2.787,2.613l0.038,2.871l-4.636,0.748l-2.408,2.479l-2.545-1.016
			l-3.619,4.212c0,0-4.25,0.212-4.744,0.5c-0.491,0.288-0.227,1.94-0.227,1.94l-2.878,6.747l-3.173,1.115l-4.553,0.886l-2.158-0.614
			l-2.795,2.281l-3.537-0.841l-2.984,1.31l-3.197,2.667l1.704,3.915L16.29,62.1l-1.816,1.097l-1.712-2.134l-2.38,0.74
			c0,0-1.824,1.826-2.543,1.826c-0.727,0-3.387-0.765-3.387-0.765l-2.763,0.142l0.379,1.924l2.492,3.371l3.718,1.227l1.007,3.765
			L6.246,74.3l0.212,2.794c0.461-0.09,8.135-0.598,8.483-0.568c2.036-1.402,1.657-4.506,4.149-5.415L18.72,71.49l0.681-0.5
			l0.742,0.818c0.106,2.053-1.121,4.265,1.364,5.354c0.332-0.099,0.681-0.158,0.993-0.317c1.227-0.606,1.909-2.508,2.887-3.461
			c1.894-1.842,3.484-4.084,5.044-6.24l1.205,0.317l0.521,0.878c-0.091,1.318-1.507,4.439-1.204,5.424
			c0.447,1.469,1.288,2.728,1.152,4.339c-0.144,1.765-1.424,3.249-1.416,5.045c0.007,0.735,0.454,1.364,0.583,2.075
			c0.212,1.257-0.477,2.545,0,3.779l1.099,0.499c0.25-0.803,0.621-1.574,1.106-2.264l1.045-0.439
			c0.523,0.516,1.183,0.916,1.894,1.129c0.356-2.16-0.271-4.446,0.523-6.546l0.947-0.568c2.757,0.591,1.583,1.946,2.621,3.083
			c1.242-1.546,0.977-3.65,1.681-5.416c0.5-1.257,4.408-6.968,5.461-7.81h1.204l0.946,0.758c0.092,0.735,0.288,1.454,0.576,2.135
			c1.463,0.607,3.696-1.182,5.461,1.386c0.855,0.183,1.744,0.258,2.621,0.189c1.227-0.907,2.4-2.415,1.787-4.028
			c-1.795-1.273-3.582-2.204-2.416-4.726c1.909-0.485,2.803-2.061,4.249-3.272c2.249,0.607,3.794,2.113,6.302,1.515
			c3.537-0.849,4.561-4.983,6.141-6.43c1.137-1.037,2.645-1.023,3.676-2.204c1.029-1.188,0.332-2.159,0.469-3.461
			c0.229-2.067,4.242-2.053,4.463-6.611c-0.887-1.674-1.977-1.484-1.834-3.779c0.758-0.599,2.295-0.896,2.78-1.696
			c1.954-3.258,0.585-7.144,2.151-8.695c0.332-0.333,3.204-2.241,3.621-2.393c1.082-0.401,2.279-0.297,3.361-0.696
			c0.311-0.388,0.645-0.932,0.993-1.538L93.971,26.984z"/>
		
			<path fill="#00808E" stroke="#00808E" stroke-width="3" stroke-linecap="round" stroke-linejoin="round" stroke-miterlimit="10" d="
			M54.258,82.641c-0.211-0.448-0.309-1.114-0.576-1.516c-0.387-0.583-0.909-1.037-1.204-1.695c-0.439-0.97-0.5-2.166-1.468-2.833
			c-0.5-0.349-1.684-0.477-2.258-0.379c-0.521,0.402-1.295,0.758-1.946,0.879l-0.735,0.947l-0.099,1.067
			c0.409,0.529,0.727,1.296,1.152,1.764c0.241,0.267,0.65,0.432,0.895,0.697c0.242,0.259,0.408,0.659,0.629,0.938
			c1.008,1.305,2.021,2.075,3.46,2.833c0.749,0.401,1.463,0.879,2.362,0.636c0.418-0.666,0.568-1.711,0.32-2.461
			C54.689,83.232,54.395,82.921,54.258,82.641z"/>
	</g>
</g>
<g id="Layer_3">
	
		<polygon fill="#00808E" stroke="#00808E" stroke-width="3" stroke-linecap="round" stroke-linejoin="round" stroke-miterlimit="10" points="
		1.688,50.006 1.688,63.187 11.13,69.784 14.755,53.347 	"/>
	
		<polygon fill="#00808E" stroke="#00808E" stroke-width="3" stroke-linecap="round" stroke-linejoin="round" stroke-miterlimit="10" points="
		60.389,59.337 60.389,71.669 54.911,63.972 	"/>
	
		<polyline fill="#00808E" stroke="#00808E" stroke-width="3" stroke-linecap="round" stroke-linejoin="round" stroke-miterlimit="10" points="
		94.2,14.121 94.2,14.284 94.2,27.121 82.317,17.784 	"/>
</g>
<g id="Layer_2">
	<g>
		
			<path fill="#00A6AF" stroke="#00FFFF" stroke-width="2" stroke-linecap="round" stroke-linejoin="round" stroke-miterlimit="10" d="
			M93.971,13.984L88.54,9.947l-0.696-5.256L85.738,1.35l-4.174,0.083l-4.908,0.925l-2.734-1.364h-0.008l-3.271,6.499l-1.978,0.554
			L63.19,5.424l-1.804,1.523l0.699,1.847l-1.018,4.029l-2.787,2.613l0.038,2.871l-4.636,0.748l-2.408,2.479l-2.545-1.016
			l-3.619,4.212c0,0-4.25,0.212-4.744,0.5c-0.491,0.288-0.227,1.94-0.227,1.94l-2.878,6.747l-3.173,1.115l-4.553,0.886l-2.158-0.614
			l-2.795,2.281l-3.537-0.841l-2.984,1.31l-3.197,2.667l1.704,3.915L16.29,49.1l-1.816,1.097l-1.712-2.134l-2.38,0.74
			c0,0-1.824,1.826-2.543,1.826c-0.727,0-3.387-0.765-3.387-0.765l-2.763,0.142l0.379,1.924l2.492,3.371l3.718,1.227l1.007,3.765
			L6.246,61.3l0.212,2.794c0.461-0.09,8.135-0.598,8.483-0.568c2.036-1.402,1.657-4.506,4.149-5.415L18.72,58.49l0.681-0.5
			l0.742,0.818c0.106,2.053-1.121,4.265,1.364,5.354c0.332-0.099,0.681-0.158,0.993-0.317c1.227-0.606,1.909-2.508,2.887-3.461
			c1.894-1.842,3.484-4.084,5.044-6.24l1.205,0.317l0.521,0.878c-0.091,1.318-1.507,4.439-1.204,5.424
			c0.447,1.469,1.288,2.728,1.152,4.339c-0.144,1.765-1.424,3.249-1.416,5.045c0.007,0.735,0.454,1.364,0.583,2.075
			c0.212,1.257-0.477,2.545,0,3.779l1.099,0.499c0.25-0.803,0.621-1.574,1.106-2.264l1.045-0.439
			c0.523,0.516,1.183,0.916,1.894,1.129c0.356-2.16-0.271-4.446,0.523-6.546l0.947-0.568c2.757,0.591,1.583,1.946,2.621,3.083
			c1.242-1.546,0.977-3.65,1.681-5.416c0.5-1.257,4.408-6.968,5.461-7.81h1.204l0.946,0.758c0.092,0.735,0.288,1.454,0.576,2.135
			c1.463,0.607,3.696-1.182,5.461,1.386c0.855,0.183,1.744,0.258,2.621,0.189c1.227-0.907,2.4-2.415,1.787-4.028
			c-1.795-1.273-3.582-2.204-2.416-4.726c1.909-0.485,2.803-2.061,4.249-3.272c2.249,0.607,3.794,2.113,6.302,1.515
			c3.537-0.849,4.561-4.983,6.141-6.43c1.137-1.037,2.645-1.023,3.676-2.204c1.029-1.188,0.332-2.159,0.469-3.461
			c0.229-2.067,4.242-2.053,4.463-6.611c-0.887-1.674-1.977-1.484-1.834-3.779c0.758-0.599,2.295-0.896,2.78-1.696
			c1.954-3.258,0.585-7.144,2.151-8.695c0.332-0.333,3.204-2.241,3.621-2.393c1.082-0.401,2.279-0.297,3.361-0.696
			c0.311-0.388,0.645-0.932,0.993-1.538L93.971,13.984z"/>
		
			<path fill="#00A6AF" stroke="#00FFFF" stroke-width="2" stroke-linecap="round" stroke-linejoin="round" stroke-miterlimit="10" d="
			M54.258,69.641c-0.211-0.448-0.309-1.114-0.576-1.516c-0.387-0.583-0.909-1.037-1.204-1.695c-0.439-0.97-0.5-2.166-1.468-2.833
			c-0.5-0.349-1.684-0.477-2.258-0.379c-0.521,0.402-1.295,0.758-1.946,0.879l-0.735,0.947l-0.099,1.067
			c0.409,0.529,0.727,1.296,1.152,1.764c0.241,0.267,0.65,0.432,0.895,0.697c0.242,0.259,0.408,0.659,0.629,0.938
			c1.008,1.305,2.021,2.075,3.46,2.833c0.749,0.401,1.463,0.879,2.362,0.636c0.418-0.666,0.568-1.711,0.32-2.461
			C54.689,70.232,54.395,69.921,54.258,69.641z"/>
	</g>
</g>
<g id="Layer_5">
	<g opacity="0.35">
		<polygon fill="#FFFFFF" points="86.881,5.039 86.227,4 73.521,4 72.515,6 87.008,6 		"/>
		<path fill="#FFFFFF" d="M62.813,10h24.726l-0.265-2H71.491c-0.132,0.218-0.332,0.387-0.578,0.456l-1.978,0.554
			c-0.232,0.066-0.482,0.043-0.701-0.061L66.254,8h-3.399l0.167,0.44c0.072,0.191,0.084,0.4,0.034,0.599L62.813,10z"/>
		<path fill="#FFFFFF" d="M89.626,12H62.308l-0.27,1.068c-0.047,0.186-0.146,0.354-0.286,0.485L61.275,14h31.041L89.626,12z"/>
		<path fill="#FFFFFF" d="M59.315,18h26.247c0.359-0.329,1.828-1.337,2.895-2H59.289L59.315,18z"/>
		<path fill="#FFFFFF" d="M52.217,22H84.32c0.044-0.699,0.096-1.376,0.228-2H54.161L52.217,22z"/>
		<path fill="#FFFFFF" d="M45.87,25.383c-0.178,0.208-0.435,0.333-0.708,0.347c-1.228,0.062-2.632,0.167-3.53,0.271H83.66
			c0.252-0.652,0.402-1.328,0.492-2H47.058L45.87,25.383z"/>
		<path fill="#FFFFFF" d="M80.295,29.077c0.018-0.284,0.155-0.546,0.378-0.723c0.171-0.135,0.366-0.247,0.563-0.354H40.875l-0.853,2
			h40.287C80.283,29.724,80.273,29.426,80.295,29.077z"/>
		<path fill="#FFFFFF" d="M81.146,32H39.168l-0.853,2h43.637c0.07-0.26,0.127-0.536,0.156-0.849
			c-0.21-0.338-0.432-0.572-0.663-0.816C81.341,32.224,81.241,32.113,81.146,32z"/>
		<path fill="#FFFFFF" d="M34.28,36.015l-4.553,0.886c-0.154,0.03-0.313,0.024-0.465-0.02l-1.656-0.472L25.658,38h52.637
			c0.38-0.457,0.879-0.821,1.373-1.176c0.357-0.257,0.716-0.521,1.048-0.824h-46.38C34.317,36.005,34.299,36.012,34.28,36.015z"/>
		<path fill="#FFFFFF" d="M77.657,40H17.292l-1.211,1.01L16.512,42h61.152c0.139-0.291,0.118-0.591,0.053-1.144
			C77.687,40.597,77.664,40.307,77.657,40z"/>
		<path fill="#FFFFFF" d="M17.486,44.238c0.063,0.145,0.091,0.303,0.081,0.461L17.486,46h55.16c0.375-0.596,0.757-1.138,1.198-1.543
			c0.195-0.178,0.396-0.324,0.601-0.457H17.383L17.486,44.238z"/>
		<path fill="#FFFFFF" d="M17.288,49.163c-0.021,0.328-0.2,0.624-0.481,0.793L16.734,50H60.72c0.225-0.222,0.46-0.442,0.716-0.657
			c0.25-0.209,0.588-0.284,0.902-0.199c0.803,0.217,1.494,0.524,2.164,0.822c0.026,0.012,0.051,0.022,0.077,0.034h4.983
			c0.737-0.516,1.326-1.234,1.84-2H17.36L17.288,49.163z"/>
		<path fill="#FFFFFF" d="M12.407,49.22l-1.497,0.465c-0.114,0.112-0.224,0.212-0.333,0.314h2.456L12.407,49.22z"/>
		<path fill="#FFFFFF" d="M32.497,53.951L32.526,54h24.033c0.075-0.325,0.191-0.669,0.361-1.038c0.127-0.273,0.37-0.475,0.662-0.549
			c0.346-0.088,0.646-0.239,0.933-0.413H3.361l1.479,2H29.3c0.027-0.037,0.055-0.075,0.082-0.112l0.239-0.331
			c0.191-0.264,0.494-0.414,0.81-0.414c0.084,0,0.17,0.011,0.255,0.033l1.205,0.317C32.145,53.561,32.362,53.725,32.497,53.951z"/>
		<path fill="#FFFFFF" d="M47.648,56.668h1.204c0.228,0,0.448,0.078,0.625,0.219l0.946,0.758c0.119,0.095,0.204,0.22,0.268,0.354
			h7.678c-0.689-0.53-1.35-1.169-1.685-2H33.067c-0.116,0.576-0.326,1.253-0.547,1.961c-0.004,0.012-0.008,0.026-0.012,0.039h13.49
			c0.421-0.519,0.783-0.919,1.024-1.113C47.201,56.746,47.421,56.668,47.648,56.668z"/>
		<path fill="#FFFFFF" d="M9.242,56.27L9.705,58h7.682c0.365-0.334,0.802-0.625,1.361-0.829c0.046-0.017,0.093-0.03,0.14-0.04
			c0.406-0.242,0.932-0.17,1.254,0.187L20.761,58h5.467c0.55-0.645,1.08-1.315,1.597-2H9.12C9.172,56.083,9.216,56.172,9.242,56.27z
			"/>
		<path fill="#FFFFFF" d="M31.914,60.489c0.121,0.395,0.281,0.789,0.438,1.18c0.043,0.107,0.085,0.222,0.129,0.332h10.624
			c0.439-0.66,0.913-1.346,1.382-2h-12.53C31.916,60.213,31.896,60.388,31.914,60.489z"/>
		<path fill="#FFFFFF" d="M56.406,61.039c0.572,0.098,1.133,0.141,1.682,0.117c0.305-0.251,0.731-0.663,1.018-1.156h-3.931
			C55.627,60.25,56.041,60.584,56.406,61.039z"/>
		<path fill="#FFFFFF" d="M21.031,60.592C20.959,61.19,20.917,61.64,20.943,62h2.042c0.164-0.23,0.326-0.472,0.485-0.718
			c0.289-0.446,0.598-0.886,0.937-1.282h-3.314C21.073,60.199,21.055,60.398,21.031,60.592z"/>
		<path fill="#FFFFFF" d="M10.249,60.034c0.137,0.511-0.148,1.041-0.651,1.208L7.312,62h7.733c0.286-0.416,0.51-0.91,0.748-1.457
			c0.078-0.179,0.158-0.36,0.242-0.543H10.24L10.249,60.034z"/>
		<path fill="#FFFFFF" d="M51.201,65.832c-0.223-0.705-0.379-1.149-0.759-1.412c-0.149-0.103-0.778-0.25-1.326-0.233
			c-0.513,0.345-1.144,0.636-1.736,0.801l-0.34,0.438l-0.038,0.412c0.035,0.053,0.064,0.108,0.097,0.162h4.162
			C51.243,65.942,51.219,65.89,51.201,65.832z"/>
		<path fill="#FFFFFF" d="M33.102,65.185c-0.023,0.282-0.073,0.552-0.134,0.815h8.008c0.078-0.298,0.166-0.597,0.283-0.893
			c0.1-0.25,0.308-0.64,0.583-1.107h-8.789C33.106,64.378,33.137,64.768,33.102,65.185z"/>
		<path fill="#FFFFFF" d="M31.703,70h3.869c0.062-0.656,0.182-1.315,0.431-1.975c0.003-0.009,0.011-0.016,0.015-0.025h-3.754
			C31.979,68.688,31.733,69.345,31.703,70z"/>
		<path fill="#FFFFFF" d="M52.85,68.68c-0.129-0.195-0.275-0.37-0.42-0.546c-0.034-0.041-0.069-0.091-0.104-0.134h-3.488
			c0.16,0.192,0.29,0.397,0.401,0.584c0.063,0.108,0.123,0.217,0.195,0.307c0.33,0.427,0.666,0.78,1.022,1.109h2.875
			c-0.098-0.221-0.181-0.46-0.256-0.708C53.008,69.068,52.924,68.791,52.85,68.68z"/>
		<path fill="#FFFFFF" d="M35.521,72h-3.276c0.003,0.015,0.008,0.028,0.011,0.043c0.119,0.706,0.027,1.37-0.057,1.957h0.249
			c0.071-0.112,0.134-0.23,0.211-0.339c0.108-0.154,0.257-0.274,0.43-0.347l1.045-0.439c0.371-0.158,0.802-0.075,1.09,0.21
			c0.098,0.096,0.202,0.188,0.311,0.273c0.004-0.359-0.003-0.727-0.011-1.104C35.521,72.169,35.522,72.084,35.521,72z"/>
	</g>
</g>
</svg>
