<?xml version="1.0" encoding="utf-8"?>
<!-- Generator: Adobe Illustrator 16.0.0, SVG Export Plug-In . SVG Version: 6.00 Build 0)  -->
<!DOCTYPE svg PUBLIC "-//W3C//DTD SVG 1.1//EN" "http://www.w3.org/Graphics/SVG/1.1/DTD/svg11.dtd">
<svg version="1.1" xmlns="http://www.w3.org/2000/svg" xmlns:xlink="http://www.w3.org/1999/xlink" x="0px" y="0px" width="113px"
	 height="177px" viewBox="0 0 113 177" enable-background="new 0 0 113 177" xml:space="preserve">
<style type="text/css">
	.st0{fill:#00808E;stroke:#00808E;stroke-width:3;stroke-linecap:round;stroke-linejoin:round;stroke-miterlimit:10;}
	.st1{fill:#00808E;}
	.st2{fill:#00A6AF;stroke:#00FFFF;stroke-width:2;stroke-linecap:round;stroke-linejoin:round;stroke-miterlimit:10;}
	.st3{opacity:0.35;}
	.st4{fill:#FFFFFF;}
</style>

<g id="Layer_2">
	<path class="st0" d="M79.72,117.47l-5.33,3.61l-1.88-0.24l-2.18,4.9l-2.54,7.8l-3.23,2.9c0,0,2.15,3.83,2.15,7.19
		c0,3.36-1.19,5.51-1.19,5.51l-5.24,2.45l-3.01,2.56l-2.96,0.35l-2.25-0.44l-0.52-7.01l-3.97,0.75l-2.71-0.67l-9.07,5.2l0.54,4.96
		l-1.5,2.44l-3.16,1.8l-0.27,3.08l0.56,3.92c0,0-0.81,0.52-2.53,1.2c-1.72,0.68-6.48,0.09-6.48,0.09s-3.08-0.2-4.2,0.96
		c-1.12,1.16-4.35,3.89-4.35,3.89l-2.91,0.62l-2.84,0.05l-0.23,0.12c0.43-0.59,1.33-1.96,1.09-2.37c-0.31-0.54,1.23-1.93,1.38-3
		c0.15-1.08-0.61-2.15-1.89-3.19c-1.28-1.04-2.26-1.24-4.73-4.2c-2.49-2.96-2.87-6.38-2.37-7.86c0.5-1.49,1.66-0.95,3.14-0.15
		c1.48,0.79,10.2,2.03,10.2,2.03s1.16-0.39,1.91-1.61c0.75-1.23-0.14-3.82-0.11-5.36c0.02-1.54-2.63-2.12-5.99-3.6
		c-3.36-1.48-2.6-5.56-1.13-6.81c1.47-1.26,2.04-4.87,3.03-6.34c1-1.46,2.68-2.06,3.61-2.06c0.92,0,5.65,0.15,7.92-0.01
		c2.26-0.15,1.72-3.47,1.72-3.47l-5.35-4.62c0,0-4.15-0.47-5.38-0.62c-1.23-0.15-2.91,0-5.65-1.38c-2.75-1.38-0.92-3.98-0.54-5.41
		c0.38-1.42,1.93-2.43,1.93-2.43l4.77-9.59l5.68-3l4.35,1.93c0,0-1.22,3.66-2.13,5.2c-0.9,1.53,0.44,3.51,1.57,3.43
		c1.12-0.07,2.93-0.15,2.93-0.15l2.26,1.89l7.04-19.85l2.24,2.92l1.71-2.23l1.91-1.21l2.82,0.35l3.22-1.85l6.12-5.35l3.01-0.11
		l8.58-1.09l4.15,0.43l2.22,5.65l3.28,3.37l-2.05,9.41c0,0,0.67,1.45,2.82,2.98c2.14,1.53,1.38,3.07,1.38,3.81
		C79.11,110.72,79.72,117.47,79.72,117.47z"/>
</g>
<g id="레이어_6">
	<path class="st0" d="M104.66,49.39l0.13-0.7l-0.76-0.76l-0.05-1.29l-1.37-0.6c0,0-0.22-0.92-0.24-0.96
		c-0.03-0.03-0.33-0.49-0.33-0.52c0-0.03,0.33-0.65,0.33-0.65l-0.04-1.27l-1.43,0.03l-0.63-1.28l-0.76-0.29l-1.36-0.34l-1.04-0.79
		l-0.89-0.59l-1.33-0.49l-1.41,0.5l-0.6-0.51l-0.49-0.39l-1.17,0.18l-0.92,0.67l-1.39,0.91l-1.22,0.04l0.24,0.74l-0.7,0.27
		l0.47,0.72l-0.85,1.59l-0.37,1.02l-0.6,0.19l-2.48-0.76l-1.2-0.29l-0.71,0.58c0,0-0.65-0.44-0.75-0.55
		c-0.09-0.12-0.44-0.71-0.44-0.71s-0.71-0.22-0.72-0.24c-0.01-0.03-0.45-0.6-0.45-0.6h-0.9l-0.29,0.64v0.44l-0.42,0.46l-0.6,0.24
		l-0.29-0.27l-0.56-0.58l-0.86-0.39c0,0-0.77,0.27-0.84,0.24c-0.07-0.03-0.86-0.2-0.86-0.2l-0.6,0.26l-1.03,0.29l-0.1-0.43
		l-0.52-0.02l-1.77,0.42l-0.2-0.26l-1.34-0.31l-0.27-0.34l0.29-0.77l0.29-0.79l-0.92-1.09l-0.55,0.39l-0.46-0.03l-0.68-0.51
		l-0.9,0.03l-1.02,0.33l-0.37,0.87l-0.18,0.39l-0.71-0.55l-0.06-0.58l-0.4-0.85l-0.6-0.65l-0.49-0.34l-0.74,0.26v0.25l-0.46,0.32
		l-0.32,0.07l-0.41-0.1l-0.31,0.23L58,39.83l-0.43,0.81L57,41.38l-0.6-0.19l-0.03-0.34l-0.39-0.92l-0.24-0.56l0.42-0.49l0.2-1.07
		l-0.46-0.25l-0.06-0.19l0.76-0.44l-0.05-0.44l-0.31-0.03l-0.19-0.34l0.41-0.36l-0.34-0.71l-0.22-0.69l1-0.55l-0.01-0.39l0.33-0.67
		l-0.3-0.49l-0.13-0.8l0.37-0.39l0.02-0.7l-0.06-0.39l-0.49-0.38l-0.58-0.53l-0.81-0.07l-0.28-0.41l-0.74-0.54l-0.6-0.22l-0.36-0.15
		c0,0-0.54,0.13-0.56,0.12c-0.03-0.01-0.49-0.38-0.49-0.38l-0.68-0.38l-0.76-0.04l-0.81,0.26l-0.82-0.22l-0.14-0.45l-0.33-0.9
		l-0.35-0.04l-2.81-0.55l-0.59,0.1l-0.6,1.01l-0.86,0.21l-0.67-0.33l-0.65,0.05l-0.65,0.31l-0.77-0.07l-0.03-0.42l-0.32-0.6
		l-0.03-0.68l-0.35-1.2l-0.54-0.76l-0.56-0.66l-0.53-0.18l-0.39-0.01l-0.56-0.22l-0.5,0.25l-0.6,0.14l-0.44-0.91l-0.33-0.48
		l-0.7-0.01l-0.44-0.27l-0.46-0.22l-0.5,0.25l-0.57,0.13l-0.33-0.68l-0.36,0.11l-1.02-0.12l-0.78,0.16l-0.61-0.25l-0.49-0.03
		l-0.03-0.19l-0.4-0.55l-0.41-0.08L27.87,19l-0.54-0.44l-0.52-0.28L25.93,18l0.03-1.2l-0.89-0.91l-2.38-0.74l-0.08-0.49h-0.85
		l-0.08,0.49l-0.59,0.36l-1.03,1.67l-0.65,0.43l0.14,0.19l-0.09,1.88l-0.24,0.23l-0.41-0.3l-0.57,0.28l-0.36,0.73l-0.79,0.54
		l-0.8,0.07l-0.79-0.07l-0.7,1.12l0.13,0.63l-0.52,1.07l0.26,0.34L15,24.95h0.39l0.76,0.53l0.85,0.6l0.33,0.83l-0.76,0.95
		l-0.15,0.81l0.06,0.94l-0.58,0.8l-0.39,0.24l0.55,0.48l0.25,0.67l-0.34,0.27l-0.18,1.17l1.2,1l-0.1,0.37l0.06,0.9l1.1-0.08
		l0.78,0.52l0.22,0.96l0.59,0.81v0.89l0.67,1.02l0.5-0.67h0.98l0.55-0.41l0.21-0.36l0.78-0.42h0.66l0.99-0.95l0.5,0.3l0.86-0.36
		l0.18-0.34l0.63-0.72l1.09,0.17l0.34,0.56l-0.91,1.1l-0.31,0.38l0.26,0.28l0.52-0.2l1.02,0.96l-0.31,1.2l0.6,0.41l0.23,0.44
		l0.37,0.74l-0.08,1.69l0.47,1.05l0.6,0.02l0.14,0.4l0.21,0.57l0.23,0.45l0.08,1.11l0.89-0.05l0.77-1.25l0.44-0.38l0.18-0.89
		l0.38-0.86l1.07-0.27l0.6,0.2l0.36,0.58h0.52l1.42,0.82l0.15,0.57l0.56,0.76l0.18,0.61l0.33,0.2l0.2,0.43l0.34,0.29l0.4,0.64h1.2
		l0.23,0.28l-0.51,1.02l-0.02,1.26l-0.41,0.59l-0.69,0.08l-0.63-0.4l-0.81,1.1l0.44,1.57l0.79,0.17l0.66,0.77l-0.13,0.55l0.11,0.49
		l-0.28,0.61l0.11,0.61h0.35l0.42,0.21l-0.23,0.6l-0.45,0.75l-0.09,0.49l0.76,0.65v0.6l0.34,0.77l0.76,0.58l0.29-0.08l0.73,0.75
		l-0.07,0.56l-0.14,0.69l0.49,0.34l-0.02,1.19l-0.24,0.73l-0.23,0.52l0.89,0.7l0.36,1.59l-0.34,1.62l0.16,0.5l-0.39,0.69l0.03,0.58
		l-0.43,0.81l0.67,1.04l0.3,0.75l-0.03,0.65l0.15,0.51l0.79-0.89l0.52-0.26l0.67-0.77l0.57-0.44l0.68,0.98l1.43,0.23l0.63-0.94
		l-0.12-0.49v-1.17l0.2-0.23l1.75-0.2l1.44-0.49l0.52,0.19l0.86-0.23l0.34-0.58l0.44,0.04l0.76,0.74l0.06,0.35l-0.53,0.82
		l-0.13,0.56l0.92,0.52l-0.34,1.64l-0.4,0.12l0.15,1.63l-0.32,1.1l0.15,0.43l-0.32,0.44l-0.24,0.77l-0.42,0.58l-0.22,0.76v0.8
		l0.09,1.45l0.87,0.71l1.98,0.94v0.38l0.03,0.05l-1.69,0.06l-6.12,5.35l-3.22,1.85l-2.82-0.35l-1.91,1.21l-1.71,2.23l-2.24-2.92
		l-7.04,19.85l-2.26-1.89c0,0-1.81,0.08-2.93,0.15c-1.12,0.07-2.46-1.9-1.57-3.43c0.91-1.53,2.13-5.2,2.13-5.2l-4.35-1.93l-5.68,3
		L11.22,113c0,0-1.54,1.01-1.93,2.43c-0.39,1.43-2.21,4.03,0.54,5.41c2.74,1.38,4.42,1.23,5.65,1.38c1.23,0.15,5.38,0.62,5.38,0.62
		l5.35,4.62c0,0,0.54,3.32-1.72,3.47c-2.27,0.16-7.01,0.01-7.92,0.01c-0.92,0-2.61,0.59-3.61,2.06c-0.99,1.47-1.57,5.08-3.03,6.34
		c-1.47,1.25-2.23,5.33,1.13,6.81c3.36,1.48,6.01,2.06,5.99,3.6c-0.02,1.54,0.87,4.13,0.11,5.36c-0.75,1.22-1.91,1.61-1.91,1.61
		s-8.71-1.23-10.2-2.03c-1.48-0.8-2.64-1.34-3.14,0.15c-0.5,1.49-0.12,4.91,2.37,7.86c2.48,2.96,3.45,3.16,4.73,4.2
		c1.28,1.04,2.04,2.12,1.89,3.19c-0.15,1.07-1.69,2.46-1.38,3c0.24,0.41-0.67,1.78-1.09,2.37l0.23-0.12l2.84-0.05l2.91-0.62
		c0,0,3.23-2.74,4.35-3.89c1.12-1.16,4.2-0.96,4.2-0.96s4.76,0.59,6.48-0.09c1.72-0.67,2.53-1.2,2.53-1.2l-0.56-3.92l0.27-3.08
		l3.16-1.8l1.5-2.44l-0.54-4.96l9.07-5.2l2.71,0.67l3.97-0.75l0.52,7.01l2.25,0.44l2.96-0.35l3.01-2.56l5.24-2.45
		c0,0,1.19-2.15,1.19-5.51c0-3.36-2.15-7.19-2.15-7.19l3.23-2.9l2.54-7.8l2.18-4.9l1.88,0.24l5.33-3.61c0,0-0.61-6.75-0.61-7.5
		c0-0.75,0.76-2.28-1.38-3.81c-2.15-1.53-2.82-2.98-2.82-2.98l2.05-9.41l-3.28-3.37l-2.22-5.65l-3.19-0.33l0.5-1.02l0.29-0.91
		l-0.6-1.63l0.09-0.31l0.87-1.35l0.37-1.26l-0.29-1.48l0.25-1.17l1.12-1.73l0.8-2.12l1.53,0.49c0,0,0.35-0.32,0.35-0.34
		c0-0.03,0.5-1,0.5-1s0.21-0.65,0.17-0.78c-0.04-0.13-0.09-0.87-0.09-0.87l-0.48-0.14l-0.46-0.77l0.38-0.52l0.41,0.05l0.58-0.04
		l0.95-0.9l-0.08-0.34l0.13-0.34l0.49,0.01l0.61-0.34l0.33-0.81l0.17-1.17l1.17,1.22l-0.02,0.62l0.24,0.5l0.02,0.65l-0.36,0.79
		l0.55,0.44l0.47-0.44l0.34-0.86l1.13-0.94l0.48-0.01l0.29,0.47l0.49,0.4l1.12,0.19l1.75,1.01l0.38,0.67l0.23,0.35l1.05-0.26
		l0.74,0.42l0.32,0.01l0.7-0.53l1.02-0.12l0.39-0.6l0.53-0.21l0.7-0.52l-0.05-0.7l0.61-0.63l0.83-0.43l0.64-0.26l0.65,0.1l0.55-1.26
		l0.05-0.64l0.18-0.7l0.32,0.04l0.8-0.15l0.13-0.53l1.04-0.43l0.25-0.86l-0.16-0.67l0.47-0.76l-0.53-1.27l-0.07-0.91l0.65-0.51
		l0.9-1.38l0.88,0.18l0.65-0.18l0.86,0.34l0.86,0.2l1.29-0.03l1.09,0.01l0.37-0.17l-0.08-0.71l0.09-0.86l0.06-1.08l0.65-1.01
		l0.68-0.87L104.66,49.39z"/>
</g>
<g id="Layer_3">
	<polygon class="st0" points="1.72,143.27 1.72,156.27 17.93,155.33 	"/>
	<polygon class="st0" points="8.7,129.88 8.7,145.16 28.01,132.66 	"/>
	<polygon class="st0" points="8.35,105.75 8.35,118.5 27.43,125.5 	"/>
	<polygon class="st0" points="26.02,89.34 26.02,103.16 18.35,94.83 	"/>
	<polygon class="st1" points="106.52,37.7 106.52,51.74 99.26,48.74 100.26,39.7 	"/>
	<polygon class="st1" points="37.81,39.26 37.81,52.04 40.89,51.19 44.3,44.67 	"/>
	<polygon class="st1" points="13.39,11.17 13.39,24.17 22.44,19.83 22,12.56 	"/>
	<polygon class="st1" points="41.96,72.78 41.96,58.41 47.07,59.56 49.26,66.52 45.33,69.37 	"/>
</g>
<g id="Layer_1">
	<path class="st2" d="M104.66,36.39l0.13-0.7l-0.76-0.76l-0.05-1.29l-1.37-0.6c0,0-0.22-0.92-0.24-0.96
		c-0.03-0.03-0.33-0.49-0.33-0.52c0-0.03,0.33-0.65,0.33-0.65l-0.04-1.27l-1.43,0.03l-0.63-1.28l-0.76-0.29l-1.36-0.34l-1.04-0.79
		l-0.89-0.59l-1.33-0.49l-1.41,0.5l-0.6-0.51l-0.49-0.39l-1.17,0.18l-0.92,0.67l-1.39,0.91l-1.22,0.04l0.24,0.74l-0.7,0.27
		l0.47,0.72l-0.85,1.59l-0.37,1.02l-0.6,0.19l-2.48-0.76l-1.2-0.29l-0.71,0.58c0,0-0.65-0.44-0.75-0.55
		c-0.09-0.12-0.44-0.71-0.44-0.71s-0.71-0.22-0.72-0.24c-0.01-0.03-0.45-0.6-0.45-0.6h-0.9l-0.29,0.64v0.44l-0.42,0.46l-0.6,0.24
		l-0.29-0.27l-0.56-0.58l-0.86-0.39c0,0-0.77,0.27-0.84,0.24c-0.07-0.03-0.86-0.2-0.86-0.2l-0.6,0.26l-1.03,0.29l-0.1-0.43
		l-0.52-0.02l-1.77,0.42l-0.2-0.26l-1.34-0.31l-0.27-0.34l0.29-0.77l0.29-0.79l-0.92-1.09l-0.55,0.39l-0.46-0.03l-0.68-0.51
		l-0.9,0.03l-1.02,0.33l-0.37,0.87l-0.18,0.39l-0.71-0.55l-0.06-0.58l-0.4-0.85l-0.6-0.65l-0.49-0.34l-0.74,0.26v0.25l-0.46,0.32
		l-0.32,0.07l-0.41-0.1l-0.31,0.23L58,26.83l-0.43,0.81L57,28.38l-0.6-0.19l-0.03-0.34l-0.39-0.92l-0.24-0.56l0.42-0.49l0.2-1.07
		l-0.46-0.25l-0.06-0.19l0.76-0.44l-0.05-0.44l-0.31-0.03l-0.19-0.34l0.41-0.36l-0.34-0.71l-0.22-0.69l1-0.55l-0.01-0.39l0.33-0.67
		l-0.3-0.49l-0.13-0.8l0.37-0.39l0.02-0.7l-0.06-0.39l-0.49-0.38l-0.58-0.53l-0.81-0.07l-0.28-0.41l-0.74-0.54l-0.6-0.22l-0.36-0.15
		c0,0-0.54,0.13-0.56,0.12c-0.03-0.01-0.49-0.38-0.49-0.38l-0.68-0.38l-0.76-0.04l-0.81,0.26l-0.82-0.22l-0.14-0.45l-0.33-0.9
		l-0.35-0.04l-2.81-0.55l-0.59,0.1l-0.6,1.01l-0.86,0.21l-0.67-0.33l-0.65,0.05l-0.65,0.31l-0.77-0.07l-0.03-0.42l-0.32-0.6
		l-0.03-0.68l-0.35-1.2l-0.54-0.76l-0.56-0.66l-0.53-0.18l-0.39-0.01l-0.56-0.22l-0.5,0.25l-0.6,0.14l-0.44-0.91L35.5,7.66
		l-0.7-0.01l-0.44-0.27L33.9,7.17l-0.5,0.25l-0.57,0.13L32.5,6.86l-0.36,0.11l-1.02-0.12l-0.78,0.16l-0.61-0.25l-0.49-0.03
		L29.2,6.55l-0.4-0.55l-0.41-0.08L27.87,6l-0.54-0.44l-0.52-0.28L25.93,5l0.03-1.2l-0.89-0.91l-2.38-0.74l-0.08-0.49h-0.85
		l-0.08,0.49L21.1,2.52l-1.03,1.67l-0.65,0.43l0.14,0.19l-0.09,1.88l-0.24,0.23l-0.41-0.3l-0.57,0.28l-0.36,0.73L17.1,8.16
		l-0.8,0.07l-0.79-0.07l-0.7,1.12l0.13,0.63l-0.52,1.07l0.26,0.34L15,11.95h0.39l0.76,0.53l0.85,0.6l0.33,0.83l-0.76,0.95
		l-0.15,0.81l0.06,0.94l-0.58,0.8l-0.39,0.24l0.55,0.48l0.25,0.67l-0.34,0.27l-0.18,1.17l1.2,1l-0.1,0.37l0.06,0.9l1.1-0.08
		l0.78,0.52l0.22,0.96l0.59,0.81v0.89l0.67,1.02l0.5-0.67h0.98l0.55-0.41l0.21-0.36l0.78-0.42h0.66l0.99-0.95l0.5,0.3l0.86-0.36
		l0.18-0.34l0.63-0.72l1.09,0.17l0.34,0.56l-0.91,1.1l-0.31,0.38l0.26,0.28l0.52-0.2l1.02,0.96l-0.31,1.2l0.6,0.41l0.23,0.44
		l0.37,0.74l-0.08,1.69l0.47,1.05l0.6,0.02l0.14,0.4l0.21,0.57l0.23,0.45l0.08,1.11l0.89-0.05l0.77-1.25l0.44-0.38l0.18-0.89
		l0.38-0.86l1.07-0.27l0.6,0.2l0.36,0.58h0.52l1.42,0.82l0.15,0.57l0.56,0.76l0.18,0.61l0.33,0.2l0.2,0.43l0.34,0.29l0.4,0.64h1.2
		l0.23,0.28l-0.51,1.02l-0.02,1.26l-0.41,0.59l-0.69,0.08l-0.63-0.4l-0.81,1.1l0.44,1.57l0.79,0.17l0.66,0.77l-0.13,0.55l0.11,0.49
		l-0.28,0.61l0.11,0.61h0.35l0.42,0.21l-0.23,0.6l-0.45,0.75l-0.09,0.49l0.76,0.65v0.6l0.34,0.77l0.76,0.58l0.29-0.08l0.73,0.75
		l-0.07,0.56l-0.14,0.69l0.49,0.34l-0.02,1.19l-0.24,0.73l-0.23,0.52l0.89,0.7l0.36,1.59l-0.34,1.62l0.16,0.5l-0.39,0.69l0.03,0.58
		l-0.43,0.81l0.67,1.04l0.3,0.75l-0.03,0.65l0.15,0.51l0.79-0.89l0.52-0.26l0.67-0.77l0.57-0.44l0.68,0.98l1.43,0.23l0.63-0.94
		l-0.12-0.49v-1.17l0.2-0.23l1.75-0.2l1.44-0.49l0.52,0.19l0.86-0.23l0.34-0.58l0.44,0.04l0.76,0.74l0.06,0.35l-0.53,0.82
		l-0.13,0.56l0.92,0.52l-0.34,1.64l-0.4,0.12l0.15,1.63l-0.32,1.1l0.15,0.43l-0.32,0.44l-0.24,0.77l-0.42,0.58l-0.22,0.76v0.8
		l0.09,1.45l0.87,0.71l1.98,0.94v0.38l0.03,0.05l-1.69,0.06l-6.12,5.35l-3.22,1.85l-2.82-0.35l-1.91,1.21l-1.71,2.23l-2.24-2.92
		l-7.04,19.85l-2.26-1.89c0,0-1.81,0.08-2.93,0.15c-1.12,0.07-2.46-1.9-1.57-3.43c0.91-1.53,2.13-5.2,2.13-5.2l-4.35-1.93l-5.68,3
		L11.22,100c0,0-1.54,1.01-1.93,2.43c-0.39,1.43-2.21,4.03,0.54,5.41c2.74,1.38,4.42,1.23,5.65,1.38c1.23,0.15,5.38,0.62,5.38,0.62
		l5.35,4.62c0,0,0.54,3.32-1.72,3.47c-2.27,0.16-7.01,0.01-7.92,0.01c-0.92,0-2.61,0.59-3.61,2.06c-0.99,1.47-1.57,5.08-3.03,6.34
		c-1.47,1.25-2.23,5.33,1.13,6.81c3.36,1.48,6.01,2.06,5.99,3.6c-0.02,1.54,0.87,4.13,0.11,5.36c-0.75,1.22-1.91,1.61-1.91,1.61
		s-8.71-1.23-10.2-2.03c-1.48-0.8-2.64-1.34-3.14,0.15c-0.5,1.49-0.12,4.91,2.37,7.86c2.48,2.96,3.45,3.16,4.73,4.2
		c1.28,1.04,2.04,2.12,1.89,3.19c-0.15,1.07-1.69,2.46-1.38,3c0.24,0.41-0.67,1.78-1.09,2.37l0.23-0.12l2.84-0.05l2.91-0.62
		c0,0,3.23-2.74,4.35-3.89c1.12-1.16,4.2-0.96,4.2-0.96s4.76,0.59,6.48-0.09c1.72-0.67,2.53-1.2,2.53-1.2l-0.56-3.92l0.27-3.08
		l3.16-1.8l1.5-2.44l-0.54-4.96l9.07-5.2l2.71,0.67l3.97-0.75l0.52,7.01l2.25,0.44l2.96-0.35l3.01-2.56l5.24-2.45
		c0,0,1.19-2.15,1.19-5.51c0-3.36-2.15-7.19-2.15-7.19l3.23-2.9l2.54-7.8l2.18-4.9l1.88,0.24l5.33-3.61c0,0-0.61-6.75-0.61-7.5
		c0-0.75,0.76-2.28-1.38-3.81c-2.15-1.53-2.82-2.98-2.82-2.98l2.05-9.41l-3.28-3.37l-2.22-5.65l-3.19-0.33l0.5-1.02l0.29-0.91
		l-0.6-1.63l0.09-0.31l0.87-1.35l0.37-1.26l-0.29-1.48l0.25-1.17l1.12-1.73l0.8-2.12l1.53,0.49c0,0,0.35-0.32,0.35-0.34
		c0-0.03,0.5-1,0.5-1s0.21-0.65,0.17-0.78c-0.04-0.13-0.09-0.87-0.09-0.87l-0.48-0.14l-0.46-0.77l0.38-0.52l0.41,0.05l0.58-0.04
		l0.95-0.9l-0.08-0.34l0.13-0.34l0.49,0.01l0.61-0.34l0.33-0.81l0.17-1.17l1.17,1.22l-0.02,0.62l0.24,0.5l0.02,0.65l-0.36,0.79
		l0.55,0.44l0.47-0.44l0.34-0.86l1.13-0.94l0.48-0.01l0.29,0.47l0.49,0.4l1.12,0.19l1.75,1.01l0.38,0.67l0.23,0.35l1.05-0.26
		l0.74,0.42l0.32,0.01l0.7-0.53l1.02-0.12l0.39-0.6l0.53-0.21l0.7-0.52l-0.05-0.7l0.61-0.63l0.83-0.43l0.64-0.26l0.65,0.1l0.55-1.26
		l0.05-0.64l0.18-0.7l0.32,0.04l0.8-0.15l0.13-0.53l1.04-0.43l0.25-0.86l-0.16-0.67l0.47-0.76l-0.53-1.27l-0.07-0.91l0.65-0.51
		l0.9-1.38l0.88,0.18l0.65-0.18l0.86,0.34l0.86,0.2l1.29-0.03l1.09,0.01l0.37-0.17l-0.08-0.71l0.09-0.86l0.06-1.08l0.65-1.01
		l0.68-0.87L104.66,36.39z"/>
</g>
<g id="레이어_5">
	<g class="st3">
		<polygon class="st4" points="71.27,74 55.52,74 53.23,76 72.05,76 		"/>
		<path class="st4" d="M72.96,78.09c-0.03-0.03-0.04-0.06-0.06-0.09H50.94l-0.69,0.61c-0.05,0.04-0.1,0.08-0.16,0.11L47.86,80h26.95
			L72.96,78.09z"/>
		<path class="st4" d="M75.66,82H41.79l-1.07,1.39c-0.19,0.25-0.48,0.39-0.79,0.39c-0.31,0-0.6-0.15-0.79-0.39L38.07,82h-0.08
			l-0.71,2h37.94L75.66,82z"/>
		<polygon class="st4" points="74.79,86 36.58,86 35.87,88 74.36,88 		"/>
		<path class="st4" d="M24.74,90H18.9l-2.16,1.14L16.31,92h7.67C24.27,91.28,24.54,90.56,24.74,90z"/>
		<path class="st4" d="M74,90.6c-0.09-0.19-0.11-0.39-0.07-0.6H35.16l-0.71,2h40.52C74.32,91.25,74.04,90.69,74,90.6z"/>
		<path class="st4" d="M77.18,94H33.74l-0.71,2h45.19C78.29,95.37,78.21,94.75,77.18,94z"/>
		<path class="st4" d="M23.03,94.03c0.01-0.01,0.01-0.02,0.02-0.03h-7.73l-0.99,2h8.3C22.55,95.31,22.68,94.63,23.03,94.03z"/>
		<path class="st4" d="M78.17,98H32.32l-0.71,2h46.72C78.26,99.25,78.21,98.55,78.17,98z"/>
		<path class="st4" d="M28.05,98.84c-0.59,0.03-1.73,0.08-2.53,0.13c-0.02,0-0.1,0-0.12,0c-0.68,0-1.36-0.37-1.89-0.97H13.33
			l-0.99,2h17.1L28.05,98.84z"/>
		<path class="st4" d="M78.5,102h-67.9c-0.15,0.22-0.27,0.45-0.34,0.69c-0.08,0.31-0.22,0.66-0.38,1.05
			c-0.04,0.1-0.07,0.18-0.1,0.27h68.84l0.04-0.03C78.63,103.49,78.56,102.78,78.5,102z"/>
		<path class="st4" d="M10.28,106.94c1.25,0.63,2.25,0.91,3.09,1.06h57.97l0.25-0.57c0.18-0.4,0.61-0.64,1.04-0.59l1.51,0.19
			l1.54-1.04H9.39C9.49,106.39,9.76,106.68,10.28,106.94z"/>
		<polygon class="st4" points="24.9,112 69.56,112 70.45,110 22.58,110 		"/>
		<path class="st4" d="M27.2,114.29c0.02,0.13,0.12,0.86,0.02,1.71h41l0.65-2H27.09C27.14,114.09,27.18,114.19,27.2,114.29z"/>
		<path class="st4" d="M24.55,118.92c-0.72,0.05-1.73,0.08-3.06,0.08c-1.38,0-2.81-0.03-3.81-0.05c-0.52-0.01-0.92-0.02-1.12-0.02
			c-0.45,0-1.49,0.28-2.3,1.07h52.64l0.03-0.03l0.64-1.97H26.43C25.96,118.55,25.32,118.87,24.55,118.92z"/>
		<path class="st4" d="M64.67,122H13.12c-0.1,0.28-0.21,0.57-0.31,0.86c-0.13,0.38-0.27,0.76-0.41,1.14h51.34
			c-0.02-0.04-0.04-0.08-0.04-0.08c-0.23-0.41-0.14-0.92,0.2-1.23L64.67,122z"/>
		<path class="st4" d="M10.57,127.09c-0.23,0.19-0.44,0.52-0.6,0.91h55.36c-0.19-0.72-0.43-1.4-0.67-2h-53.2
			C11.2,126.42,10.91,126.79,10.57,127.09z"/>
		<path class="st4" d="M9.71,130c0.13,0.88,0.6,1.55,1.37,2h54.56c0.05-0.43,0.08-0.89,0.08-1.38c0-0.2-0.01-0.41-0.03-0.62H9.71z"
			/>
		<path class="st4" d="M17.92,136h21.66l3.49-2H15.7C16.81,134.54,17.63,135.14,17.92,136z"/>
		<path class="st4" d="M52.71,136h10.74l1.34-0.63c0.12-0.27,0.3-0.75,0.48-1.37h-12.7L52.71,136z"/>
		<path class="st4" d="M18.23,138.44c0.08,0.52,0.16,1.04,0.2,1.56h16.44l-0.06-0.57c-0.04-0.39,0.15-0.78,0.5-0.98l0.79-0.45H18.16
			C18.18,138.14,18.2,138.29,18.23,138.44z"/>
		<polygon class="st4" points="53,140 57.07,140 59.43,138 52.85,138 		"/>
		<path class="st4" d="M4.58,142.56c-0.3-0.16-0.78-0.42-1.17-0.56H2.91c-0.02,0.04-0.04,0.08-0.06,0.15
			c-0.14,0.43-0.18,1.08-0.09,1.85h7.88C8.16,143.57,5.45,143.03,4.58,142.56z"/>
		<path class="st4" d="M18.28,142c-0.07,0.21-0.15,0.42-0.27,0.62c-0.38,0.63-0.85,1.07-1.27,1.38H35.3l-0.22-2H18.28z"/>
		<path class="st4" d="M4.27,148h26.55c0.09-0.15,0.21-0.27,0.36-0.36l2.89-1.64H3.26C3.5,146.65,3.84,147.33,4.27,148z"/>
		<path class="st4" d="M30.42,151.74c-0.01-0.08-0.01-0.15-0.01-0.23l0.13-1.51H5.88c0.94,1.03,1.61,1.58,2.21,2h22.37L30.42,151.74
			z"/>
		<path class="st4" d="M10.6,154c0.63,0.67,1.03,1.34,1.21,2h8.43c0.75-0.16,1.53-0.21,2.2-0.21c0.36,0,0.59,0.01,0.59,0.01
			c0.06,0.01,1.13,0.14,2.4,0.2h2.37c0.73-0.05,1.11-0.15,1.28-0.22c0.82-0.32,1.42-0.61,1.81-0.81L30.74,154H10.6z"/>
		<path class="st4" d="M10.92,159.26c-0.13,0.19-0.3,0.45-0.39,0.62c0.01,0.03,0.01,0.08,0.02,0.12h4.26c0.67-0.58,1.54-1.34,2.26-2
			h-5.42C11.45,158.45,11.18,158.87,10.92,159.26z"/>
	</g>
</g>
<g id="레이어_8" class="st3">
	<g>
		<path class="st4" d="M77.09,32H76.7C76.83,32.03,76.96,32.02,77.09,32z"/>
		<path class="st4" d="M30.44,8H30.2C30.28,8.01,30.36,8.01,30.44,8z"/>
		<path class="st4" d="M28.4,21.87l-1.09-0.17c-0.32-0.05-0.64,0.06-0.86,0.29h2.28C28.62,21.94,28.51,21.89,28.4,21.87z"/>
		<path class="st4" d="M36.49,10.02L36.57,10h-0.56C36.17,10.04,36.33,10.06,36.49,10.02z"/>
		<path class="st4" d="M32.44,32.31l0.07-0.11c0.05-0.07,0.1-0.14,0.17-0.2h-0.36L32.44,32.31z"/>
		<path class="st4" d="M55.92,70.23l1.87,0.88c0.35,0.16,0.56,0.51,0.57,0.89h9.09c-0.02-0.03-0.05-0.06-0.07-0.1
			c-0.16-0.29-0.17-0.63-0.02-0.93l0.47-0.95L67.84,70h-12.2L55.92,70.23z"/>
		<path class="st4" d="M56.44,66.16l-0.22,0.3l-0.19,0.62c-0.03,0.1-0.08,0.2-0.15,0.29l-0.32,0.44L55.5,68h11.97
			c-0.02-0.14-0.02-0.28,0.02-0.42l0.09-0.31c0.03-0.09,0.07-0.18,0.12-0.26L68.36,66H56.53C56.51,66.06,56.48,66.11,56.44,66.16z"
			/>
		<path class="st4" d="M57.03,62.5c-0.04,0.22-0.16,0.41-0.32,0.55l0.08,0.9c0,0.02-0.01,0.03,0,0.05h11.79l-0.07-0.35
			c-0.03-0.13-0.02-0.27,0-0.4l0.25-1.17c0.01-0.03,0.02-0.05,0.03-0.08H57.14L57.03,62.5z"/>
		<path class="st4" d="M57.05,58.23l0.06,0.35c0.04,0.25-0.01,0.5-0.15,0.71l-0.25,0.4l0.17,0.1c0.1,0.06,0.19,0.13,0.26,0.21H70
			l0.72-1.92c0.01-0.03,0.04-0.05,0.05-0.08h-13.8C57,58.08,57.03,58.15,57.05,58.23z"/>
		<path class="st4" d="M48.99,58.51l0.2-0.23c0.11-0.13,0.26-0.21,0.41-0.27h-4.34c-0.01,0.14-0.06,0.27-0.13,0.39l-0.25,0.43
			l0.02,0.28c0.01,0.18-0.03,0.36-0.12,0.53l-0.15,0.29L44.7,60h1.51l0.31-0.24c0.22-0.17,0.49-0.24,0.77-0.2
			c0.27,0.04,0.51,0.19,0.67,0.42L47.96,60h0.79v-0.84C48.75,58.92,48.84,58.69,48.99,58.51z"/>
		<path class="st4" d="M85.69,54.19l0.21,0.37l0.34-0.08c0.25-0.06,0.51-0.03,0.74,0.1l0.35,0.2l0.3-0.23
			c0.14-0.11,0.31-0.18,0.49-0.2l0.56-0.06l0.14-0.21c0.02-0.03,0.05-0.05,0.07-0.07h-3.33C85.61,54.06,85.66,54.12,85.69,54.19z"/>
		<path class="st4" d="M72.37,54.42L72.68,54h-27.6l0.35,1.55c0.03,0.14,0.03,0.28,0,0.42l0,0.02H72.6l-0.28-0.48
			C72.11,55.18,72.13,54.75,72.37,54.42z"/>
		<path class="st4" d="M75.57,51.93l0.22,0l0.07-0.04l0.15-0.37l0.15-1.05c0.03-0.18,0.1-0.34,0.21-0.48H44.35l-0.03,0.26
			c0.25,0.19,0.39,0.49,0.38,0.8L44.68,52h30.53C75.33,51.96,75.45,51.93,75.57,51.93z"/>
		<path class="st4" d="M79.04,51.16c0.18,0.19,0.28,0.45,0.28,0.72l0,0.12h0.55l0.19-0.16c0.17-0.15,0.39-0.23,0.62-0.23l0.48-0.01
			c0.31,0,0.61,0.15,0.8,0.4h8.65l0.12-0.13c0.08-0.08,0.16-0.14,0.26-0.19l0.83-0.43l0.72-0.3c0.13-0.05,0.28-0.08,0.42-0.07
			l0.17-0.4l0.04-0.47c0,0,0,0,0-0.01H77.94L79.04,51.16z"/>
		<path class="st4" d="M41.94,46.07c0.22,0.19,0.35,0.47,0.35,0.76v0.4l0.15,0.34l0.18,0.14c0.27-0.01,0.55,0.09,0.75,0.29h51.58
			c0.08-0.07,0.15-0.13,0.25-0.17l0.6-0.25l0.04-0.14l-0.1-0.41c-0.06-0.26-0.02-0.53,0.12-0.76L96.05,46H41.86L41.94,46.07z"/>
		<path class="st4" d="M41.7,42.09l-0.08,0.33l0.06,0.27c0.05,0.21,0.02,0.43-0.07,0.63l-0.02,0.05l0.16,0.08
			c0.24,0.12,0.4,0.32,0.49,0.55h53.37l0-0.06c-0.02-0.33,0.12-0.65,0.38-0.86l0.52-0.41L96.94,42H41.71
			C41.71,42.03,41.71,42.06,41.7,42.09z"/>
		<path class="st4" d="M42.2,38.55l-0.41,0.59c-0.16,0.23-0.42,0.38-0.7,0.42l-0.69,0.08c-0.16,0.02-0.31,0-0.46-0.05L40.06,40
			h63.14l0.02-0.38c0.01-0.17,0.06-0.34,0.16-0.49l0.77-1.13H42.38C42.38,38.2,42.31,38.39,42.2,38.55z"/>
		<path class="st4" d="M40.73,34.03c0.08,0.07,0.14,0.14,0.2,0.23l0.11,0.17h0.65c0.3,0,0.58,0.13,0.77,0.37l0.23,0.28
			c0.21,0.26,0.27,0.61,0.17,0.93h60.84l-0.37-0.37c-0.18-0.18-0.28-0.42-0.29-0.67L103,34.29L102.34,34H40.69L40.73,34.03z"/>
		<path class="st4" d="M32.88,31.81l0.11-0.55c0.01-0.07,0.04-0.14,0.07-0.21l0.38-0.86c0.03-0.08,0.1-0.13,0.15-0.19h-2.59
			l-0.01,0.23l0.11,0.26c0.4,0.02,0.76,0.28,0.89,0.66L32.32,32h0.36c0.01-0.01,0.02-0.03,0.03-0.04L32.88,31.81z"/>
		<path class="st4" d="M76.23,31.76l-0.77-0.75l-0.33-0.15c-0.6,0.19-0.83,0.22-1.14,0.1c-0.04-0.01-0.23-0.05-0.4-0.09L73.29,31
			c-0.04,0.02-0.09,0.03-0.13,0.05l-1.03,0.29c-0.26,0.07-0.54,0.03-0.78-0.1c-0.11-0.06-0.2-0.14-0.27-0.24l-1.38,0.33
			c-0.37,0.09-0.76-0.04-1-0.34l-1-0.23c-0.22-0.05-0.42-0.18-0.56-0.36l-0.27-0.34c-0.01-0.01-0.02-0.03-0.03-0.05H36.87
			c0,0,0,0,0,0l0.07,0.11c0.16,0.01,0.32,0.05,0.47,0.13l1.42,0.82c0.23,0.13,0.4,0.35,0.47,0.61L39.37,32H76.7
			C76.53,31.96,76.36,31.89,76.23,31.76z"/>
		<path class="st4" d="M87.75,31.01l-0.34,0.96c0,0.01-0.02,0.02-0.02,0.03h13.76c-0.1-0.23-0.11-0.36-0.11-0.45
			c0-0.24,0.04-0.34,0.32-0.88l0-0.02l-0.44,0.01c-0.4,0.01-0.74-0.21-0.92-0.56L99.95,30H88.29L87.75,31.01z"/>
		<path class="st4" d="M95.76,27.28l-0.88-0.32l-1.07,0.38c-0.33,0.12-0.71,0.05-0.98-0.18l-0.73-0.61l-0.5,0.08l-0.73,0.53
			L89.57,28h7.24l-0.31-0.24L95.76,27.28z"/>
		<path class="st4" d="M61.44,27.79l-0.04-0.41l-0.26-0.55l-0.3-0.33c-0.04,0.04-0.08,0.07-0.12,0.1l-0.46,0.32
			c-0.11,0.08-0.23,0.13-0.36,0.16l-0.32,0.07c-0.13,0.03-0.26,0.03-0.4,0l-0.38,0.33L58.51,28h3
			C61.49,27.93,61.45,27.86,61.44,27.79z"/>
		<path class="st4" d="M65.7,27.94l-0.4-0.3l-0.41,0.01l-0.45,0.14L64.35,28h1.46C65.77,27.98,65.73,27.97,65.7,27.94z"/>
		<path class="st4" d="M30.13,26.19L30,26.72l0.02,0.01c0.13,0.09,0.24,0.21,0.31,0.35L30.81,28h24.55l-0.53-1.24
			c-0.11-0.25-0.1-0.52-0.01-0.76H30.16C30.15,26.06,30.15,26.13,30.13,26.19z"/>
		<path class="st4" d="M23.32,23.76h0.26l0.7-0.67c0.32-0.31,0.82-0.37,1.21-0.14L25.56,23l0.09-0.06c0.03-0.06,0.08-0.12,0.12-0.18
			l0.63-0.72c0.01-0.01,0.03-0.02,0.04-0.04h-7.22l0.16,0.11c0.21,0.14,0.36,0.36,0.42,0.61l0.17,0.77L20.34,24h2.27l0.23-0.12
			C22.99,23.8,23.15,23.76,23.32,23.76z"/>
		<path class="st4" d="M29.1,22.34l0.34,0.56c0.21,0.34,0.18,0.77-0.05,1.1h25.51c0.06-0.15,0.14-0.3,0.27-0.41
			c-0.2-0.35-0.17-0.78,0.06-1.09l-0.03-0.05c-0.02-0.04-0.03-0.08-0.05-0.12L55.06,22H28.72C28.87,22.08,29,22.19,29.1,22.34z"/>
		<path class="st4" d="M17.23,18.44c0.15,0.4,0.03,0.86-0.31,1.13l-0.03,0.02l-0.03,0.23L17.06,20h38.92c0-0.01,0.01-0.02,0.01-0.03
			l0.09-0.18l-0.01-0.02c-0.07-0.11-0.12-0.23-0.14-0.36l-0.13-0.8c-0.04-0.22,0.02-0.43,0.12-0.62H17.07L17.23,18.44z"/>
		<path class="st4" d="M18.1,14.54l-0.61,0.75l-0.08,0.44L17.43,16h36.38l-0.07-0.05l-0.58-0.21c-0.39,0.09-0.55,0.1-0.79,0.02
			c-0.19-0.06-0.27-0.12-0.74-0.5l-0.41-0.23l-0.35-0.02l-0.64,0.2c-0.18,0.06-0.38,0.06-0.56,0.01l-0.82-0.22
			c-0.33-0.09-0.59-0.34-0.7-0.67L48.05,14h-3.14c-0.11,0.09-0.24,0.15-0.37,0.19l-0.86,0.21c-0.23,0.06-0.46,0.03-0.67-0.07
			l-0.43-0.21l-0.2,0.02l-0.49,0.23c-0.16,0.08-0.34,0.11-0.51,0.09l-0.77-0.07c-0.28-0.02-0.52-0.18-0.69-0.39h-21.6
			C18.29,14.19,18.23,14.38,18.1,14.54z"/>
		<path class="st4" d="M15.84,10.35l-0.26,0.53l0.05,0.1c0.12,0.03,0.23,0.08,0.33,0.15L17.2,12h22.12l-0.01-0.14l-0.27-0.93
			L38.33,10h-1.76l-0.08,0.02c-0.16,0.04-0.33,0.02-0.48-0.02H15.94C15.93,10.12,15.9,10.24,15.84,10.35z"/>
		<path class="st4" d="M20.48,6.74C20.46,7,20.35,7.24,20.16,7.42l-0.24,0.23c-0.28,0.26-0.68,0.33-1.02,0.21L18.82,8H30.2
			c-0.08-0.01-0.16-0.03-0.24-0.06l-0.45-0.19l-0.32-0.02c-0.45-0.02-0.83-0.35-0.93-0.79l0,0l-0.21,0.04
			c-0.29,0.05-0.59-0.03-0.81-0.21l-0.46-0.38L26.42,6.2L25.77,6h-5.26L20.48,6.74z"/>
		<path class="st4" d="M22.39,3.1c-0.07-0.02-0.13-0.05-0.2-0.08l-0.37,0.23L21.36,4h3.4l-0.23-0.23L22.39,3.1z"/>
	</g>
</g>
</svg>
