<?xml version="1.0" encoding="utf-8"?>
<!-- Generator: Adobe Illustrator 16.0.0, SVG Export Plug-In . SVG Version: 6.00 Build 0)  -->
<!DOCTYPE svg PUBLIC "-//W3C//DTD SVG 1.1//EN" "http://www.w3.org/Graphics/SVG/1.1/DTD/svg11.dtd">
<svg version="1.1" xmlns="http://www.w3.org/2000/svg" xmlns:xlink="http://www.w3.org/1999/xlink" x="0px" y="0px" width="116px"
	 height="115px" viewBox="0 0 116 115" enable-background="new 0 0 116 115" xml:space="preserve">
<g id="Layer_1">
	<g>
		
			<path fill="#00808E" stroke="#00808E" stroke-width="3" stroke-linecap="round" stroke-linejoin="round" stroke-miterlimit="10" d="
			M110.899,65.155l-3.928,1.39l-0.831-2.514l-4.343-0.554l-2.965-3.329l-4.059-3.824l-6.24-2.813l-2.863,2.247l-1.824,4.354
			l-2.389-0.603l-2.776,2.758l0.041,0.212c0.287-0.057,0.555-0.132,0.822-0.196l0.844,0.878c0.44,3.996,2.981,2.988,5.867,4.533
			l0.45,1.083l-0.276,1.219l-0.905,0.814l-0.285,1.223c0.594,0.525,1.113,1.145,1.522,1.821l-0.333,1.283
			c0.226,0.735,0.59,1.437,1.064,2.033c-0.185,1.798-1.855,3.191-1.635,5.071c0.188,1.587,3.335,3.688,3.896,7.037
			c-0.243,0.229-0.469,0.483-0.738,0.675c-1.509,1.14-7.422-1.488-8.628-0.127c-0.276,0.31-0.487,0.672-0.729,1.005
			c0.269,3.287,3.301,5.191,4.733,7.854c2.123,3.93-0.258,6.452,2.71,9.2c2.627,2.424,6.8,1.068,8.281,2.37
			c0.594,0.508,0.709,1.379,1.303,1.895c2.254,1.954,5.877,0.144,6.764,0.47h0.008l2.88-5.399l0.853-2.304l1.124-0.839l1.226-0.38
			l0.694-1.219l-0.106-1.215l-0.425-1.026l0.051-1.285l1.438-1.538l-0.055-2.301l-0.739-1.287l-1.125-0.122l-2.401-1.538
			l-2.455-2.696l0.047-2.302l-0.527-3.464l0.051-1.275l1.473-4.006l4.4-7.532l0.586-1.146l2.352-1.919l0.807-1.288l0.022-0.724
			L110.899,65.155z"/>
		
			<path fill="#00808E" stroke="#00808E" stroke-width="3" stroke-linecap="round" stroke-linejoin="round" stroke-miterlimit="10" d="
			M70.806,84.341c-1.011-0.97-1.986-1.703-3.492-1.417c-0.943,0.178-0.969,0.708-2.309,0.406c-1.532-0.341-3.761-2.626-5.25-2.644
			l-1.18,0.48l-0.625,1.145l0.681,0.946c0.148,0.764,0.049,1.863-0.284,2.572c-1.571,0.869-1.446,3.691-1.863,5.213
			c-0.121,0.447-0.341,0.911-0.504,1.351c-0.618,1.691-1.146,3.265-2.987,3.995l-0.617,1.212l0.391,1.083l1.407-0.065
			c1.14-0.579,1.147-1.824,2.423-2.775c1.62-1.197,3.744-1.594,5.524-2.435c0.849-0.406,2.344-1.423,3.271-1.488
			c0.489-0.042,2.28,0.312,2.882,0.408l0.731-0.953l-0.229-1.21l0.731-1.016h1.351c0.633-0.432,1.296-1.116,1.692-1.761
			c-0.162-0.438-0.691-1.927-0.904-2.237C71.611,85.087,70.912,84.436,70.806,84.341z"/>
		
			<path fill="#00808E" stroke="#00808E" stroke-width="3" stroke-linecap="round" stroke-linejoin="round" stroke-miterlimit="10" d="
			M54.792,64.382l1.133,0.227c0.935,0.185,2.075-0.057,2.927-0.496c1.091-1.287,0.565-2.858,1.134-4.264
			c0.634-1.563,2.782-1.594,3.831-2.774l-0.227-1.22c-3.157-2.847-0.936-3.377-1.465-5.884c-2.579-2.139-0.95-6.206-1.351-9.064
			l-0.114-0.811c-0.047-0.133-0.633-0.765-0.731-0.947c-0.311-0.575-1.042-2.749-1.065-3.385c-0.06-1.311,0.39-1.682,0.674-2.772
			c0.413-1.612,0.107-6.289-0.674-7.781c-0.253-0.469-0.546-0.895-0.977-1.194c-0.864-0.593-1.637-1.555-2.578-1.986
			c-0.905-0.413-1.996-0.568-2.932-0.951c-1.275-0.504-5.501-3.222-6.315-4.256c-0.194-0.235-0.221-0.625-0.455-0.886
			c-0.251-0.269-0.701-0.58-0.901-0.879c-0.19-0.284-0.205-0.791-0.395-1.083c-0.219-0.325-1.551-1.367-1.918-1.488l-1.519-0.205
			c-0.238,0.009-3.604,0.61-3.776,0.687c-0.049,0.015-0.601,0.478-0.677,0.533c-0.292,1.035-1.667,3.696-2.423,4.404
			c-0.644,0.595-2.31,1.496-3.165,1.685c-0.064,0.39-0.212,0.902-0.22,1.284c-0.015,0.798,0.341,1.595,0.447,2.367
			c0.114,0.863,0.042,1.782,0.057,2.646c0.034,1.309,0.219,2.685,0.171,3.986c-0.123,2.953-1.596,4.782-0.979,7.942
			c0.034,0.147,0.02,0.243,0.075,0.383c0.47,1.196,2.401,2.888,3.613,3.245c0.821,1.725,2.237,1.499,1.968,4.198
			c0.481,0.619,0.822,1.369,1.303,1.962c0.234,0.292,0.602,0.52,0.844,0.814c0.262,0.319,1.5,2.693,1.573,3.041
			c0.163,0.75-0.14,2.117-0.503,2.776c-0.603,0.358-1.394,0.984-2.026,1.219c-1.246,0.439-3.403,0.375-4.907,1.083l-0.617,0.742
			c0.015,3.669,5.653,7.762,9.012,7.913c0.799,0.042,1.719-0.484,2.483-0.47c0.909,0.018,2.204,0.447,3.215,0.538
			c0.626-0.359,1.375-0.877,1.863-1.416c0.269-0.303,0.456-0.715,0.73-1.018c0.495-0.525,1.295-1.049,1.919-1.424
			C52.631,61.99,53.441,63.844,54.792,64.382z"/>
		
			<path fill="#00808E" stroke="#00808E" stroke-width="3" stroke-linecap="round" stroke-linejoin="round" stroke-miterlimit="10" d="
			M32.467,49.702l0.382-0.814c0.693-1.503,0.83-2.84-0.325-4.124c-2.401-2.685-5.461-2.195-7.104-3.789
			c-0.235-0.231-0.48-0.678-0.674-0.954c-0.659-0.921-1.344-1.879-1.693-2.977c-0.416-1.294-0.253-1.222-1.018-2.37
			c0.197-0.787,0.678-1.771,1.246-2.366l-0.284-1.212c-1.855-0.821-3.036,1.325-5.868,0.674l-0.731,0.946
			c0.042,0.894,0.015,1.83,0.113,2.708c0.041,0.368,0.221,0.791,0.228,1.148c0.018,0.855-0.269,2.003-0.618,2.775
			c-0.66,0.46-1.333,0.893-2.033,1.282c0.61,0.969,1.253,1.988,2.147,2.71c0.725,0.588,1.515,0.895,2.31,1.353
			c0.353,0.201,0.659,0.477,1.018,0.674c0.807,0.462,1.734,0.708,2.53,1.155c0.352,0.197,0.686,0.511,1.019,0.742
			c1.348,0.917,1.61,1.155,2.537,2.503c0.447,0.659,0.897,1.23,1.075,2.026c0.796,0.163,2.091,0.219,2.871-0.064
			c0.068-0.023,0.84-0.538,0.962-0.61C31.172,50.736,32.036,50.297,32.467,49.702z"/>
		
			<path fill="#00808E" stroke="#00808E" stroke-width="3" stroke-linecap="round" stroke-linejoin="round" stroke-miterlimit="10" d="
			M17.961,27.556l0.974,0.09c1.555-0.162,5.891-3.718,6.6-5.077c0.617-1.171,0.529-2.693,0.113-3.923
			c-0.757-0.886-2.864-0.927-3.946-0.814c-0.901,0.091-1.708,0.383-2.65,0.345c-1.026-0.049-2.166-0.303-3.158-0.545
			c-0.432-0.496-0.814-0.954-1.431-1.204l-0.822-0.353c-0.678-0.454-0.995-1.128-1.922-1.553c-1.936-0.903-4.548-0.454-6.256,0.807
			c0.017,0.943-0.576,1.397-0.844,2.163c-0.458,1.325-0.238,2.945-0.393,4.339C3.346,23.489,1.907,23.3,1.63,26.017l0.844,0.879
			c2.117,0.678,3.404,0.221,5.354-0.537c0.36-0.135,0.765-0.383,1.132-0.469c0.304-0.084,2.329-0.228,2.644-0.204
			c2.083,0.14,2.506,0.941,4.177,1.488C16.432,27.377,17.276,27.492,17.961,27.556z"/>
	</g>
</g>
<g id="Layer_3">
	
		<polygon fill="#00808E" stroke="#00808E" stroke-width="3" stroke-linecap="round" stroke-linejoin="round" stroke-miterlimit="10" points="
		113.608,55.536 113.608,66.536 100.337,61.036 	"/>
	
		<polygon fill="#00808E" stroke="#00808E" stroke-width="3" stroke-linecap="round" stroke-linejoin="round" stroke-miterlimit="10" points="
		78.681,51.267 78.681,62.267 93.025,59.37 	"/>
	
		<polygon fill="#00808E" stroke="#00808E" stroke-width="3" stroke-linecap="round" stroke-linejoin="round" stroke-miterlimit="10" points="
		79.659,79.83 79.659,91.75 89.65,87.058 	"/>
	
		<polygon fill="#00808E" stroke="#00808E" stroke-width="3" stroke-linecap="round" stroke-linejoin="round" stroke-miterlimit="10" points="
		111.179,85.79 111.179,97.413 103.837,90.87 	"/>
	
		<polygon fill="#00808E" stroke="#00808E" stroke-width="3" stroke-linecap="round" stroke-linejoin="round" stroke-miterlimit="10" points="
		52.375,86.995 52.375,97.982 72.551,87.389 72.551,75.933 	"/>
	
		<polygon fill="#00808E" stroke="#00808E" stroke-width="3" stroke-linecap="round" stroke-linejoin="round" stroke-miterlimit="10" points="
		63.767,45.809 63.767,56.767 55.275,47.12 	"/>
	
		<polygon fill="#00808E" stroke="#00808E" stroke-width="3" stroke-linecap="round" stroke-linejoin="round" stroke-miterlimit="10" points="
		31.645,46.562 31.645,58.472 45.775,56.245 40.712,37.558 29.587,37.245 	"/>
	
		<polygon fill="#00808E" stroke="#00808E" stroke-width="3" stroke-linecap="round" stroke-linejoin="round" stroke-miterlimit="10" points="
		1.667,14.748 1.667,26.299 8.123,19.843 	"/>
	
		<polygon fill="#00808E" stroke="#00808E" stroke-width="3" stroke-linecap="round" stroke-linejoin="round" stroke-miterlimit="10" points="
		25.979,8.995 25.979,20.523 15.4,12.745 	"/>
	
		<polygon fill="#00808E" stroke="#00808E" stroke-width="3" stroke-linecap="round" stroke-linejoin="round" stroke-miterlimit="10" points="
		14.088,29.995 14.088,40.482 24.087,33.808 	"/>
</g>
<g id="Layer_2">
	<g>
		
			<path fill="#00A6AF" stroke="#00FFFF" stroke-width="2" stroke-linecap="round" stroke-linejoin="round" stroke-miterlimit="10" d="
			M110.899,54.155l-3.928,1.39l-0.831-2.514l-4.343-0.554l-2.965-3.329l-4.059-3.824l-6.24-2.813l-2.863,2.247l-1.824,4.354
			l-2.389-0.603l-2.776,2.758l0.041,0.212c0.287-0.057,0.555-0.132,0.822-0.196l0.844,0.878c0.44,3.996,2.981,2.988,5.867,4.533
			l0.45,1.083l-0.276,1.219l-0.905,0.814l-0.285,1.223c0.594,0.525,1.113,1.145,1.522,1.821l-0.333,1.283
			c0.226,0.735,0.59,1.437,1.064,2.033c-0.185,1.798-1.855,3.191-1.635,5.071c0.188,1.587,3.335,3.688,3.896,7.037
			c-0.243,0.229-0.469,0.483-0.738,0.675c-1.509,1.14-7.422-1.488-8.628-0.127c-0.276,0.31-0.487,0.672-0.729,1.005
			c0.269,3.287,3.301,5.191,4.733,7.854c2.123,3.93-0.258,6.452,2.71,9.2c2.627,2.424,6.8,1.068,8.281,2.37
			c0.594,0.508,0.709,1.379,1.303,1.895c2.254,1.954,5.877,0.144,6.764,0.47h0.008l2.88-5.399l0.853-2.304l1.124-0.839l1.226-0.38
			l0.694-1.219l-0.106-1.215l-0.425-1.026l0.051-1.285l1.438-1.538l-0.055-2.301l-0.739-1.287l-1.125-0.122l-2.401-1.538
			l-2.455-2.696l0.047-2.302l-0.527-3.464l0.051-1.275l1.473-4.006l4.4-7.532l0.586-1.146l2.352-1.919l0.807-1.288l0.022-0.724
			L110.899,54.155z"/>
		
			<path fill="#00A6AF" stroke="#00FFFF" stroke-width="2" stroke-linecap="round" stroke-linejoin="round" stroke-miterlimit="10" d="
			M70.806,73.341c-1.011-0.97-1.986-1.703-3.492-1.417c-0.943,0.178-0.969,0.708-2.309,0.406c-1.532-0.341-3.761-2.626-5.25-2.644
			l-1.18,0.48l-0.625,1.145l0.681,0.946c0.148,0.764,0.049,1.863-0.284,2.572c-1.571,0.869-1.446,3.691-1.863,5.213
			c-0.121,0.447-0.341,0.911-0.504,1.351c-0.618,1.691-1.146,3.265-2.987,3.995l-0.617,1.212l0.391,1.083l1.407-0.065
			c1.14-0.579,1.147-1.824,2.423-2.775c1.62-1.197,3.744-1.594,5.524-2.435c0.849-0.406,2.344-1.423,3.271-1.488
			c0.489-0.042,2.28,0.312,2.882,0.408l0.731-0.953l-0.229-1.21l0.731-1.016h1.351c0.633-0.432,1.296-1.116,1.692-1.761
			c-0.162-0.438-0.691-1.927-0.904-2.237C71.611,74.087,70.912,73.436,70.806,73.341z"/>
		
			<path fill="#00A6AF" stroke="#00FFFF" stroke-width="2" stroke-linecap="round" stroke-linejoin="round" stroke-miterlimit="10" d="
			M54.792,53.382l1.133,0.227c0.935,0.185,2.075-0.057,2.927-0.496c1.091-1.287,0.565-2.858,1.134-4.264
			c0.634-1.563,2.782-1.594,3.831-2.774l-0.227-1.22c-3.157-2.847-0.936-3.377-1.465-5.884c-2.579-2.139-0.95-6.206-1.351-9.064
			l-0.114-0.811c-0.047-0.133-0.633-0.765-0.731-0.947c-0.311-0.575-1.042-2.749-1.065-3.385c-0.06-1.311,0.39-1.682,0.674-2.772
			c0.413-1.612,0.107-6.289-0.674-7.781c-0.253-0.469-0.546-0.895-0.977-1.194c-0.864-0.593-1.637-1.555-2.578-1.986
			c-0.905-0.413-1.996-0.568-2.932-0.951c-1.275-0.504-5.501-3.222-6.315-4.256C45.868,5.59,45.841,5.2,45.607,4.939
			c-0.251-0.269-0.701-0.58-0.901-0.879c-0.19-0.284-0.205-0.791-0.395-1.083c-0.219-0.325-1.551-1.367-1.918-1.488l-1.519-0.205
			c-0.238,0.009-3.604,0.61-3.776,0.687c-0.049,0.015-0.601,0.478-0.677,0.533C36.13,3.539,34.754,6.2,33.999,6.908
			c-0.644,0.595-2.31,1.496-3.165,1.685c-0.064,0.39-0.212,0.902-0.22,1.284c-0.015,0.798,0.341,1.595,0.447,2.367
			c0.114,0.863,0.042,1.782,0.057,2.646c0.034,1.309,0.219,2.685,0.171,3.986c-0.123,2.953-1.596,4.782-0.979,7.942
			c0.034,0.147,0.02,0.243,0.075,0.383c0.47,1.196,2.401,2.888,3.613,3.245c0.821,1.725,2.237,1.499,1.968,4.198
			c0.481,0.619,0.822,1.369,1.303,1.962c0.234,0.292,0.602,0.52,0.844,0.814c0.262,0.319,1.5,2.693,1.573,3.041
			c0.163,0.75-0.14,2.117-0.503,2.776c-0.603,0.358-1.394,0.984-2.026,1.219c-1.246,0.439-3.403,0.375-4.907,1.083l-0.617,0.742
			c0.015,3.669,5.653,7.762,9.012,7.913c0.799,0.042,1.719-0.484,2.483-0.47c0.909,0.018,2.204,0.447,3.215,0.538
			c0.626-0.359,1.375-0.877,1.863-1.416c0.269-0.303,0.456-0.715,0.73-1.018c0.495-0.525,1.295-1.049,1.919-1.424
			C52.631,50.99,53.441,52.844,54.792,53.382z"/>
		
			<path fill="#00A6AF" stroke="#00FFFF" stroke-width="2" stroke-linecap="round" stroke-linejoin="round" stroke-miterlimit="10" d="
			M32.467,38.702l0.382-0.814c0.693-1.503,0.83-2.84-0.325-4.124c-2.401-2.685-5.461-2.195-7.104-3.789
			c-0.235-0.231-0.48-0.678-0.674-0.954c-0.659-0.921-1.344-1.879-1.693-2.977c-0.416-1.294-0.253-1.222-1.018-2.37
			c0.197-0.787,0.678-1.771,1.246-2.366l-0.284-1.212c-1.855-0.821-3.036,1.325-5.868,0.674l-0.731,0.946
			c0.042,0.894,0.015,1.83,0.113,2.708c0.041,0.368,0.221,0.791,0.228,1.148c0.018,0.855-0.269,2.003-0.618,2.775
			c-0.66,0.46-1.333,0.893-2.033,1.282c0.61,0.969,1.253,1.988,2.147,2.71c0.725,0.588,1.515,0.895,2.31,1.353
			c0.353,0.201,0.659,0.477,1.018,0.674c0.807,0.462,1.734,0.708,2.53,1.155c0.352,0.197,0.686,0.511,1.019,0.742
			c1.348,0.917,1.61,1.155,2.537,2.503c0.447,0.659,0.897,1.23,1.075,2.026c0.796,0.163,2.091,0.219,2.871-0.064
			c0.068-0.023,0.84-0.538,0.962-0.61C31.172,39.736,32.036,39.297,32.467,38.702z"/>
		
			<path fill="#00A6AF" stroke="#00FFFF" stroke-width="2" stroke-linecap="round" stroke-linejoin="round" stroke-miterlimit="10" d="
			M17.961,16.556l0.974,0.09c1.555-0.162,5.891-3.718,6.6-5.077c0.617-1.171,0.529-2.693,0.113-3.923
			c-0.757-0.886-2.864-0.927-3.946-0.814c-0.901,0.091-1.708,0.383-2.65,0.345c-1.026-0.049-2.166-0.303-3.158-0.545
			c-0.432-0.496-0.814-0.954-1.431-1.204l-0.822-0.353c-0.678-0.454-0.995-1.128-1.922-1.553C9.783,2.619,7.17,3.068,5.462,4.329
			c0.017,0.943-0.576,1.397-0.844,2.163C4.16,7.817,4.38,9.437,4.225,10.831C3.346,12.489,1.907,12.3,1.63,15.017l0.844,0.879
			c2.117,0.678,3.404,0.221,5.354-0.537c0.36-0.135,0.765-0.383,1.132-0.469c0.304-0.084,2.329-0.228,2.644-0.204
			c2.083,0.14,2.506,0.941,4.177,1.488C16.432,16.377,17.276,16.492,17.961,16.556z"/>
	</g>
</g>
<g id="Layer_5">
	<g opacity="0.35">
		<path fill="#FFFFFF" d="M44.924,5.773c-0.023-0.062-0.041-0.129-0.077-0.186c-0.048-0.048-0.15-0.134-0.253-0.224
			c-0.245-0.213-0.522-0.454-0.719-0.748C43.738,4.412,43.666,4.2,43.607,4h-6.701c-0.288,0.637-0.655,1.35-1.04,2h9.151
			C44.984,5.921,44.949,5.84,44.924,5.773z"/>
		<path fill="#FFFFFF" d="M13.247,5.994C13.19,5.97,13.135,5.94,13.084,5.906c-0.358-0.24-0.627-0.514-0.864-0.755
			c-0.297-0.303-0.532-0.542-0.918-0.719c-1.371-0.64-3.438-0.42-4.884,0.459C6.34,5.338,6.171,5.694,6,6h7.26L13.247,5.994z"/>
		<path fill="#FFFFFF" d="M24.773,8.198C24.668,8.127,24.498,8.061,24.3,8h-3.547c-0.477,0.092-0.97,0.18-1.531,0.18l-0.211-0.004
			C18.524,8.152,18.025,8.085,17.526,8H5.342c-0.033,0.409-0.04,0.843-0.046,1.29C5.292,9.524,5.287,9.762,5.279,10h19.664
			C25,9.437,24.953,8.817,24.773,8.198z"/>
		<path fill="#FFFFFF" d="M50.11,10c-0.97-0.579-2.094-1.31-3.035-2H34.23c-0.703,0.514-1.717,1.061-2.534,1.369
			c-0.042,0.2-0.081,0.402-0.083,0.529c0,0.032,0.01,0.069,0.011,0.102H50.11z"/>
		<path fill="#FFFFFF" d="M23.933,12H4.643c-0.299,0.379-0.611,0.668-0.882,0.909C3.381,13.249,3.083,13.519,2.88,14h5.597
			c0.084-0.029,0.166-0.063,0.254-0.083c0.416-0.116,2.343-0.233,2.777-0.233c0.025,0,0.146,0.003,0.17,0.005
			c0.694,0.046,1.231,0.162,1.689,0.312h8.258C22.48,13.35,23.336,12.616,23.933,12z"/>
		<path fill="#FFFFFF" d="M32.051,12.108c0.085,0.643,0.078,1.277,0.069,1.892h25.385c-0.062-0.061-0.124-0.116-0.189-0.162
			c-0.391-0.269-0.75-0.59-1.099-0.901c-0.422-0.377-0.823-0.729-1.219-0.938H32.031C32.036,12.036,32.046,12.072,32.051,12.108z"/>
		<path fill="#FFFFFF" d="M32.201,16.376c0.037,0.533,0.065,1.078,0.08,1.624h26.364c-0.06-0.71-0.15-1.406-0.268-2H32.18
			C32.188,16.127,32.192,16.249,32.201,16.376z"/>
		<path fill="#FFFFFF" d="M31.755,22h26.733c0.027-0.084,0.056-0.164,0.081-0.26c0.1-0.391,0.148-1.018,0.154-1.74H32.182
			C32.08,20.716,31.922,21.369,31.755,22z"/>
		<path fill="#FFFFFF" d="M22.16,20.906c-0.362-0.01-0.778,0.158-1.271,0.356c-0.834,0.335-1.974,0.758-3.336,0.595L17.442,22h4.174
			c0.173-0.34,0.366-0.666,0.577-0.949L22.16,20.906z"/>
		<path fill="#FFFFFF" d="M21.993,26c-0.048-0.161-0.091-0.306-0.125-0.426c-0.151-0.528-0.174-0.609-0.665-1.345
			c-0.046-0.07-0.064-0.151-0.091-0.229h-3.63c0.008,0.104,0.011,0.211,0.022,0.312c0.013,0.119,0.05,0.245,0.083,0.371
			c0.068,0.259,0.145,0.553,0.151,0.87c0.003,0.144-0.017,0.297-0.026,0.447H21.993z"/>
		<path fill="#FFFFFF" d="M58.103,26c-0.132-0.481-0.229-0.921-0.239-1.198c-0.014-0.302,0-0.562,0.026-0.802H31.278
			c-0.11,0.633-0.158,1.279-0.082,2H58.103z"/>
		<path fill="#FFFFFF" d="M34.279,29.486c0.267,0.079,0.485,0.267,0.608,0.514h24.889l-0.075-0.53
			c-0.052-0.064-0.116-0.139-0.179-0.215c-0.243-0.291-0.384-0.463-0.475-0.63c-0.074-0.137-0.171-0.363-0.276-0.625H32.164
			C32.815,28.668,33.685,29.311,34.279,29.486z"/>
		<path fill="#FFFFFF" d="M24.097,29.854c-0.06-0.094-0.116-0.183-0.169-0.258c-0.352-0.491-0.727-1.022-1.064-1.595H17.32
			c-0.091,0.278-0.188,0.538-0.288,0.759c-0.074,0.164-0.191,0.305-0.339,0.409c-0.416,0.29-0.814,0.553-1.202,0.795
			C15.5,29.976,15.51,29.987,15.519,30h8.675C24.162,29.951,24.127,29.901,24.097,29.854z"/>
		<path fill="#FFFFFF" d="M36.992,34h22.671c0.021-0.38,0.048-0.759,0.077-1.128c0.023-0.297,0.044-0.586,0.063-0.872H36.49
			C36.799,32.497,36.989,33.114,36.992,34z"/>
		<path fill="#FFFFFF" d="M27.846,32.243c-0.25-0.078-0.501-0.158-0.751-0.243h-9.586c0.235,0.138,0.481,0.266,0.735,0.397
			c0.265,0.136,0.532,0.274,0.8,0.429c0.195,0.111,0.384,0.244,0.571,0.379c0.139,0.1,0.277,0.202,0.428,0.285
			c0.345,0.198,0.719,0.352,1.111,0.511h10.197C30.261,33,29.036,32.614,27.846,32.243z"/>
		<path fill="#FFFFFF" d="M38.072,36c0.082,0.094,0.178,0.176,0.274,0.258c0.193,0.167,0.384,0.337,0.539,0.525
			c0.129,0.158,0.417,0.649,0.725,1.217h20.553c-0.28-0.63-0.416-1.307-0.48-2H38.072z"/>
		<path fill="#FFFFFF" d="M26.331,38h5.361l0.252-0.537c0.263-0.57,0.402-1.042,0.429-1.463h-7.899
			C25.222,36.554,25.63,36.997,26.331,38z"/>
		<path fill="#FFFFFF" d="M40.664,40.254c0.107,0.494,0.076,1.127-0.037,1.746H60.87c0.011-0.389,0.078-0.77,0.174-1.164
			c0.068-0.283,0.116-0.554,0.14-0.836H40.58C40.618,40.101,40.651,40.193,40.664,40.254z"/>
		<path fill="#FFFFFF" d="M39.692,44.095c-0.186,0.111-0.391,0.25-0.604,0.393c-0.517,0.347-1.051,0.707-1.584,0.904
			c-0.636,0.225-1.375,0.327-2.158,0.436c-0.373,0.052-0.748,0.106-1.113,0.172h27.975c0.189-0.094,0.368-0.192,0.522-0.298
			l-0.063-0.337c-0.525-0.498-0.905-0.947-1.181-1.364H39.813C39.773,44.033,39.736,44.069,39.692,44.095z"/>
		<polygon fill="#FFFFFF" points="89.404,44 88.256,44 86.492,45.384 86.234,46 93.84,46 		"/>
		<path fill="#FFFFFF" d="M59.059,48.474c0.07-0.172,0.153-0.328,0.244-0.474H33.125c0.362,0.688,0.894,1.369,1.538,2h14.958
			c0.221-0.148,0.458-0.299,0.718-0.455c0.25-0.151,0.553-0.184,0.83-0.092c0.414,0.137,0.766,0.333,1.095,0.547h6.443
			C58.761,49.512,58.849,48.993,59.059,48.474z"/>
		<polygon fill="#FFFFFF" points="81.761,49.617 81.375,50 83.28,50 		"/>
		<path fill="#FFFFFF" d="M98.086,49.813L96.159,48H85.396l-0.627,1.498c-0.095,0.225-0.265,0.398-0.469,0.502h13.953L98.086,49.813
			z"/>
		<path fill="#FFFFFF" d="M40.688,53.193c0.002,0,0.004,0,0.006,0c0.292,0,0.637-0.101,0.971-0.199
			c0.457-0.134,0.929-0.272,1.433-0.272c0.638,0.012,1.305,0.156,1.951,0.295c0.365,0.079,0.74,0.159,1.075,0.209
			c0.556-0.344,1.045-0.727,1.342-1.054c0.042-0.048,0.08-0.113,0.119-0.171H37.321C38.526,52.695,39.747,53.151,40.688,53.193z"/>
		<path fill="#FFFFFF" d="M58.371,52h-3.877c0.203,0.181,0.401,0.33,0.597,0.422l1.03,0.207c0.625,0.124,1.417-0.016,2.083-0.314
			C58.273,52.214,58.323,52.108,58.371,52z"/>
		<path fill="#FFFFFF" d="M82.112,54h23.296l-0.019-0.057l-3.718-0.474c-0.239-0.031-0.46-0.147-0.62-0.327L100.034,52H81.368
			c0.003,0.018,0.012,0.033,0.014,0.051C81.494,53.065,81.72,53.629,82.112,54z"/>
		<path fill="#FFFFFF" d="M108.684,56l-1.378,0.488c-0.252,0.088-0.531,0.074-0.773-0.045c-0.192-0.094-0.331-0.256-0.429-0.443
			H86.968c0.087,0.09,0.162,0.192,0.21,0.31l0.45,1.083c0.08,0.191,0.098,0.403,0.052,0.604L87.679,58h22.112
			c0.011-0.009,0.015-0.023,0.026-0.032l2.225-1.815L112.138,56H108.684z"/>
		<path fill="#FFFFFF" d="M108.641,60H86.807l-0.379,0.342L86.344,60.7c0.392,0.397,0.733,0.837,1.043,1.3h20.085L108.641,60z"/>
		<path fill="#FFFFFF" d="M106.304,64H87.498l-0.026,0.1c0.192,0.527,0.467,1.023,0.804,1.447c0.105,0.132,0.159,0.29,0.187,0.453
			h16.673L106.304,64z"/>
		<path fill="#FFFFFF" d="M87.974,68c-0.135,0.296-0.277,0.583-0.417,0.853c-0.209,0.404-0.404,0.78-0.538,1.147h16.431l0.735-2
			H87.974z"/>
		<path fill="#FFFFFF" d="M59.584,72c0.007,0.024,0.024,0.043,0.029,0.067c0.115,0.593,0.099,1.283-0.007,1.933h10.439
			c-0.92-0.869-1.578-1.275-2.545-1.093c-0.202,0.038-0.328,0.099-0.501,0.184c-0.416,0.204-1.099,0.468-2.215,0.215
			c-0.821-0.183-1.663-0.721-2.548-1.306H59.584z"/>
		<path fill="#FFFFFF" d="M87.315,72c0.211,0.298,0.462,0.621,0.704,0.926c0.265,0.336,0.546,0.693,0.825,1.074h14.281l-0.175-1.146
			c-0.009-0.063-0.013-0.126-0.01-0.19L102.967,72H87.315z"/>
		<path fill="#FFFFFF" d="M58.514,76c-0.35,0.451-0.535,1.224-0.664,2h10.534l0.313-0.435c0.188-0.261,0.49-0.416,0.812-0.416h1.023
			c0.324-0.256,0.646-0.581,0.902-0.906C71.4,76.154,71.373,76.082,71.342,76H58.514z"/>
		<path fill="#FFFFFF" d="M103.429,78l0.037-1.767L103.43,76H90.06c0.29,0.612,0.523,1.275,0.656,2H103.429z"/>
		<path fill="#FFFFFF" d="M57.448,80.308c-0.088,0.328-0.224,0.669-0.361,1.004c-0.059,0.144-0.117,0.288-0.169,0.428l-0.049,0.135
			c-0.015,0.041-0.033,0.083-0.047,0.125h3.66c0.42-0.156,0.83-0.314,1.213-0.496c0.218-0.104,0.489-0.257,0.782-0.422
			c0.787-0.441,1.659-0.913,2.454-1.083h-7.416C57.492,80.102,57.475,80.211,57.448,80.308z"/>
		<path fill="#FFFFFF" d="M106.135,81.839L104.46,80H89.176c-0.375,0.16-0.841,0.246-1.412,0.246c-0.66,0-1.424-0.109-2.205-0.246
			h-4.802c-0.01,0.015-0.021,0.03-0.031,0.045c-0.01,0.015-0.02,0.029-0.029,0.044c0.108,0.687,0.373,1.313,0.722,1.911h24.906
			C106.255,81.954,106.19,81.9,106.135,81.839z"/>
		<path fill="#FFFFFF" d="M54.387,86c0.038-0.062,0.076-0.122,0.118-0.192c0.044-0.073,0.09-0.148,0.138-0.226
			c-0.19,0.152-0.405,0.289-0.632,0.417H54.387z"/>
		<path fill="#FFFFFF" d="M109.921,84h-27.03c0.093,0.112,0.187,0.224,0.282,0.336c0.451,0.535,0.906,1.085,1.325,1.664h25.686
			l-0.039-1.61L109.921,84z"/>
		<path fill="#FFFFFF" d="M108.706,89.197L108.753,88H85.652c0.301,0.707,0.482,1.375,0.59,2h22.697l-0.158-0.381
			C108.726,89.485,108.7,89.341,108.706,89.197z"/>
		<path fill="#FFFFFF" d="M86.421,92.312c0.014,0.635,0.03,1.182,0.123,1.688h19.55l0.16-0.432c0.067-0.181,0.185-0.339,0.34-0.454
			l1.124-0.839c0.091-0.068,0.193-0.12,0.302-0.154L108.41,92H86.413C86.416,92.104,86.419,92.211,86.421,92.312z"/>
		<path fill="#FFFFFF" d="M87.782,96.15c1.258,1.16,3.072,1.285,4.672,1.394c1,0.069,1.958,0.139,2.746,0.456h9.056l1.067-2H87.637
			C87.687,96.05,87.727,96.099,87.782,96.15z"/>
		<path fill="#FFFFFF" d="M97.342,100.394c0.525,0.455,1.226,0.677,2.141,0.677c0.779,0,1.565-0.155,2.259-0.292
			c0.421-0.083,0.798-0.157,1.131-0.187l0.316-0.592h-6.124C97.154,100.163,97.243,100.307,97.342,100.394z"/>
	</g>
</g>
</svg>
