<?xml version="1.0" encoding="utf-8"?>
<!-- Generator: Adobe Illustrator 16.0.0, SVG Export Plug-In . SVG Version: 6.00 Build 0)  -->
<!DOCTYPE svg PUBLIC "-//W3C//DTD SVG 1.1//EN" "http://www.w3.org/Graphics/SVG/1.1/DTD/svg11.dtd">
<svg version="1.1" xmlns="http://www.w3.org/2000/svg" xmlns:xlink="http://www.w3.org/1999/xlink" x="0px" y="0px" width="70px"
	 height="59px" viewBox="0 0 70 59" enable-background="new 0 0 70 59" xml:space="preserve">
<g id="Layer_1">
	
		<path fill="#00808E" stroke="#00808E" stroke-width="3" stroke-linecap="round" stroke-linejoin="round" stroke-miterlimit="10" d="
		M66.555,29.734c0.994,0.735,2.402,1.924,1.129,3.128c-1.272,1.205-2.265,3.151-1.863,5.022c0.402,1.863,0.128,3.886,0.128,3.886
		s-1.159,1.326-2.621,3.25c-1.461,1.924-2.825,3.645-2.825,3.645s-3.021-0.22-3.576,1.491c-0.552,1.713-3.696,3.849-5.34,1.266
		c-1.651-2.583-2.514-2.757-2.514-2.757l-4.188,2.644l-1.568-0.607l-2.386,1.515L38.577,51.2l-2.795,2.479
		c0,0-2.545,0.052-3.378,1.295c-0.833,1.248-3.673,2.294-3.764,1.295c-0.099-0.993-2.182-1.03-2.75-0.818
		c-0.568,0.205-1.751,0.871-2.772,0.728c-1.015-0.144-0.962-1.183-0.962-1.183l-1.773-0.03c0,0-2.242-1.924-0.167-1.939
		c2.076-0.022,2.113-0.212,1.81-1.916c-0.302-1.704-3.643-5.696-3.643-5.696l-1.954-1.197l-5.893-0.878l-2.067,1.144L5.582,44.61
		l-1.356-1.386c0,0-3.227,0.266-2.521-2.174s0.28-4.854,0.28-4.854l0.273-4.264l1.977-0.357l1.218-1.726l-2.886-4.129L6.513,25.6
		l1.847-4.438l2.342,1.402c0,0,3.446-1.184,4.204-3.455c0.757-2.272,1.78-4.651,3.446-5.545c1.667-0.893,4.355-2.604,3.954-0.704
		c-0.394,1.894-3.25,3.977-1.068,4.643c2.19,0.659,3.439,1.901,5.083,2.416c1.653,0.516,3.333,1.029,3.333,1.029l3.802-2.849
		l2.553,0.236l3.188-1.886l2.394-1.516l1.394-0.56c0,0,1.396,1.227,2.759-0.143c1.355-1.372,2.188-1.592,3.764-1.099
		c1.568,0.485,2.742,1.015,2.742,1.015l3.643,5.697c0,0-1.127,1.046,0.152,2.332c1.28,1.288,1.931,2.363,1.931,2.363l-0.417,1.545
		l0.743,2.539c0,0,3.946-1.183,5.083-0.804C64.519,28.199,65.563,29,66.555,29.734z"/>
</g>
<g id="Layer_3">
	
		<polygon fill="#00808E" stroke="#00808E" stroke-width="3" stroke-linecap="round" stroke-linejoin="round" stroke-miterlimit="10" points="
		68.191,20.752 68.191,32.314 56.227,26.533 	"/>
</g>
<g id="Layer_2">
	
		<path fill="#00A6AF" stroke="#00FFFF" stroke-width="2" stroke-linecap="round" stroke-linejoin="round" stroke-miterlimit="10" d="
		M66.555,18.734c0.994,0.735,2.402,1.924,1.129,3.128c-1.272,1.205-2.265,3.151-1.863,5.022c0.402,1.863,0.128,3.886,0.128,3.886
		s-1.159,1.326-2.621,3.25c-1.461,1.924-2.825,3.645-2.825,3.645s-3.021-0.22-3.576,1.491c-0.552,1.713-3.696,3.849-5.34,1.266
		c-1.651-2.583-2.514-2.757-2.514-2.757l-4.188,2.644l-1.568-0.607l-2.386,1.515L38.577,40.2l-2.795,2.479
		c0,0-2.545,0.052-3.378,1.295c-0.833,1.248-3.673,2.294-3.764,1.295c-0.099-0.993-2.182-1.03-2.75-0.818
		c-0.568,0.205-1.751,0.871-2.772,0.728c-1.015-0.144-0.962-1.183-0.962-1.183l-1.773-0.03c0,0-2.242-1.924-0.167-1.939
		c2.076-0.022,2.113-0.212,1.81-1.916c-0.302-1.704-3.643-5.696-3.643-5.696l-1.954-1.197l-5.893-0.878l-2.067,1.144L5.582,33.61
		l-1.356-1.386c0,0-3.227,0.266-2.521-2.174s0.28-4.854,0.28-4.854l0.273-4.264l1.977-0.357l1.218-1.726l-2.886-4.129L6.513,14.6
		l1.847-4.438l2.342,1.402c0,0,3.446-1.184,4.204-3.455c0.757-2.272,1.78-4.651,3.446-5.545c1.667-0.893,4.355-2.604,3.954-0.704
		c-0.394,1.894-3.25,3.977-1.068,4.643c2.19,0.659,3.439,1.901,5.083,2.416c1.653,0.516,3.333,1.029,3.333,1.029L33.455,7.1
		l2.553,0.236l3.188-1.886l2.394-1.516l1.394-0.56c0,0,1.396,1.227,2.759-0.143c1.355-1.372,2.188-1.592,3.764-1.099
		c1.568,0.485,2.742,1.015,2.742,1.015l3.643,5.697c0,0-1.127,1.046,0.152,2.332c1.28,1.288,1.931,2.363,1.931,2.363l-0.417,1.545
		l0.743,2.539c0,0,3.946-1.183,5.083-0.804C64.519,17.199,65.563,18,66.555,18.734z"/>
</g>
<g id="Layer_5">
	<g opacity="0.35">
		<path fill="#FFFFFF" d="M20.027,4h-1.901c-0.511,0.516-0.947,1.227-1.316,2h2.651C19.335,5.327,19.629,4.657,20.027,4z"/>
		<path fill="#FFFFFF" d="M51.605,4h-5.229c-0.601,0.572-1.304,0.88-2.046,0.88c-0.595,0-1.101-0.192-1.457-0.384l-0.826,0.332
			L40.197,6h12.687L51.605,4z"/>
		<path fill="#FFFFFF" d="M26.022,9.874c-0.861-0.27-1.582-0.688-2.345-1.13C23.241,8.49,22.793,8.234,22.309,8h-6.307
			c-0.05,0.143-0.102,0.289-0.147,0.425C15.656,9.019,15.323,9.541,14.925,10h11.503C26.293,9.958,26.158,9.916,26.022,9.874z"/>
		<path fill="#FFFFFF" d="M54.433,9.867c0.008-0.409,0.122-0.76,0.261-1.038L54.164,8H36.85l-0.333,0.197
			c-0.181,0.107-0.393,0.154-0.602,0.135l-2.169-0.201L31.251,10h23.184C54.434,9.955,54.432,9.909,54.433,9.867z"/>
		<path fill="#FFFFFF" d="M56.89,13.72c-0.261-0.37-0.752-1.007-1.446-1.72H12.221c-0.597,0.296-1.063,0.465-1.194,0.51
			c-0.277,0.095-0.586,0.064-0.838-0.088L9.483,12H8.678l-0.832,2h48.968L56.89,13.72z"/>
		<path fill="#FFFFFF" d="M57.39,18c-0.014-0.033-0.039-0.06-0.049-0.094L56.783,16H4.681l1.398,2H57.39z"/>
		<path fill="#FFFFFF" d="M63.067,17.77c-0.003,0-0.082-0.023-0.298-0.023c-0.484,0-1.169,0.111-1.858,0.253h2.697
			C63.427,17.915,63.248,17.83,63.067,17.77z"/>
		<path fill="#FFFFFF" d="M66.538,20H5.864l-0.813,1.152C4.9,21.366,4.67,21.513,4.412,21.559l-1.207,0.218L3.191,22h63.041
			c0.248-0.321,0.505-0.618,0.765-0.864c0.047-0.045,0.2-0.197,0.194-0.294C67.183,20.723,67.073,20.469,66.538,20z"/>
		<path fill="#FFFFFF" d="M2.989,25.15c0.023,0.157,0.06,0.459,0.087,0.85h61.667c0.004-0.698,0.146-1.371,0.377-2H3.063
			L2.989,25.15z"/>
		<path fill="#FFFFFF" d="M3.068,28c-0.047,0.626-0.148,1.306-0.324,2h62.269c0.03-0.498,0.047-1.228-0.032-2H3.068z"/>
		<path fill="#FFFFFF" d="M16.576,32.227c0.133,0.02,0.26,0.066,0.375,0.137l1.954,1.197c0.092,0.057,0.175,0.127,0.245,0.211
			c0.047,0.056,0.114,0.137,0.189,0.229h42.748c0.147-0.192,0.295-0.387,0.446-0.584c0.396-0.522,0.768-0.996,1.103-1.416h-48.58
			L16.576,32.227z"/>
		<polygon fill="#FFFFFF" points="5.984,32.591 8.19,32.493 9.081,32 5.405,32 		"/>
		<path fill="#FFFFFF" d="M22.19,38H46.67l1.871-1.181c0.217-0.137,0.479-0.186,0.731-0.135c0.324,0.065,0.915,0.353,1.766,1.315
			h5.412c0.691-0.837,1.935-1.316,3.576-1.343c0.134-0.171,0.311-0.396,0.515-0.657H20.882C21.34,36.636,21.807,37.331,22.19,38z"/>
		<path fill="#FFFFFF" d="M53.59,40.623c0.493,0,1.041-0.263,1.493-0.623h-2.558C52.917,40.536,53.316,40.623,53.59,40.623z"/>
		<path fill="#FFFFFF" d="M22.994,42h10.772c0.63-0.186,1.232-0.269,1.613-0.3l1.917-1.7H23.022
			C23.157,40.76,23.262,41.435,22.994,42z"/>
		<path fill="#FFFFFF" d="M23.154,44.045c0.001,0.027,0.021,0.107,0.039,0.131c0.116,0.019,0.169,0.021,0.222,0.021
			c0.286,0,0.609-0.087,0.924-0.198h-1.192C23.147,44.016,23.155,44.03,23.154,44.045z"/>
		<path fill="#FFFFFF" d="M29.496,44.641c0.412-0.081,0.984-0.334,1.441-0.641h-1.953C29.207,44.182,29.385,44.394,29.496,44.641z"
			/>
	</g>
</g>
</svg>
