<?xml version="1.0" encoding="utf-8"?>
<!-- Generator: Adobe Illustrator 16.0.0, SVG Export Plug-In . SVG Version: 6.00 Build 0)  -->
<!DOCTYPE svg PUBLIC "-//W3C//DTD SVG 1.1//EN" "http://www.w3.org/Graphics/SVG/1.1/DTD/svg11.dtd">
<svg version="1.1" xmlns="http://www.w3.org/2000/svg" xmlns:xlink="http://www.w3.org/1999/xlink" x="0px" y="0px" width="67px"
	 height="90px" viewBox="0 0 67 90" enable-background="new 0 0 67 90" xml:space="preserve">
<g id="Layer_1">
	
		<path fill="#00808E" stroke="#00808E" stroke-width="3" stroke-linecap="round" stroke-linejoin="round" stroke-miterlimit="10" d="
		M63.872,34.72l0.876,2.335l-0.683,0.634c-1.088-0.11-3.577,0.211-4.53,0.641c-0.052,0.017-1.063,0.963-1.165,1.063
		c-0.506,1.224-0.034,2.499-0.219,3.721c-0.194,1.257-1.072,2.44-0.885,3.787l-1.571,2.304l-1.105,0.136l-0.16,1.063l-1.054,1.198
		c0.252,1.806,0.059,3.519-1.274,4.853c-0.168,0.911-0.279,2.783,0.167,3.653l-0.833,1.129c-0.027,1.284,0.927,2.211,0.886,3.52
		c-0.75,0.573-1.24,1.476-1.384,2.395c-0.059,0.373,0.033,0.828-0.059,1.19c-0.043,0.185-0.498,1.096-0.498,1.197
		c0,0.077,0.37,3.435,0.387,3.52c0.077,0.33,0.954,1.604,1.165,2.447l0.016,0.009c-1.679,0.632-3.434,1.687-4.832,2.783
		l-0.721,2.373c-0.664,0.438-2.8,1.687-3.187,2.109c-0.296,0.313,0.023,0.979,0.193,1.299l-2.724,1.467
		c-0.195-0.211-2.128-2.363-2.21-2.42c-0.76-0.548-2.441-1.147-3.341-1.569c-0.76-1.653-2.549-4.953-4.177-5.695
		c-1.307-3.063-1.004-3.131-0.338-6.278c0.753-3.526-6.285-3.021-6.064-0.54c0.067,0.826,0.9,3.552,0.825,3.914l-0.979,4.523
		l0.868,1.747c-1.755,2.632-3.788,1.13-3.611,5.854L18.8,87.773l-2.453-7.037c-0.338-0.953-2.659-4.345-3.461-2.153l-2.007-0.684
		c-0.675-0.995-2.953-5.863-2.801-6.967c0.093-0.735,1.881-1.934,2.513-2.339c-1.309-0.48-3.72-1.045-4.464-2.234
		c-1.162-0.565-3.206-1.706-4-2.667c-1.974-2.38,4.33-11.804,5.536-14.402c0.489-1.037,0.616-4.362,0.727-5.669
		c0.261-3.105,0.961-6.288,0.961-9.391c0-1.148,0.489-1.932,1.324-2.667c0.768-0.684,1.925-2.321,3.098-1.848
		c1.03,0.405,2.06,0.71,3.14,0.91c1.24-0.598,2.539-1.289,3.854-1.662c0.565-0.158,0.719-2.943,1.966-3.551
		c1.358-0.659,2.271-1.695,1.992-3.309c-0.195-1.114-0.557-1.51,0.312-2.36c0.743-0.734,0.716-0.423,0.716-1.563
		c0-1.333-0.202-2.7-0.371-4.025h0.01c0.58,0.119,1.146,0.278,1.72,0.415c0.634,0.149,1.932-1.563,2.066-2.13
		c0.161-0.675,1.544-0.504,1.798,0.034c0.33,0.686,1.635,1.58,2.21,2.195c0.978,1.063,1.02,1.241,0.853,2.617
		c-0.169,1.417-0.373,2.833-0.542,4.251c-0.335,2.776,5.585,1.046,6.97,1.046c0.606,0,1.392,0.962,1.73,1.435l1.847,0.142
		c1.585-0.776,1.829-1.001,2.059-2.731c0.049-0.421,0.48-1.91,0.735-2.203c0.293-0.33,0.555-0.682,0.79-1.064l2.06-0.211
		l0.734,0.634l-0.786,3.424l0.474,0.897c1.146,0.125,2.479,0.243,3.635,0.117c0.111,2.498-0.151,2.025-2.107,3.367L50.955,28.5
		c1.197,1.443,2.268,4.219,2.843,5.958l1.687,0.684l1.055-4.271l1.586-0.312l1.636,1.055l2.473-0.269l0.37,2.377L63.872,34.72z"/>
</g>
<g id="Layer_3">
	
		<polygon fill="#00808E" stroke="#00808E" stroke-width="3" stroke-linecap="round" stroke-linejoin="round" stroke-miterlimit="10" points="
		1.748,51.601 1.748,62.226 11.273,53.976 	"/>
	
		<polygon fill="#00808E" stroke="#00808E" stroke-width="3" stroke-linecap="round" stroke-linejoin="round" stroke-miterlimit="10" points="
		64.749,26.055 64.749,37.055 53.106,27.601 	"/>
	
		<polygon fill="#00808E" stroke="#00808E" stroke-width="3" stroke-linecap="round" stroke-linejoin="round" stroke-miterlimit="10" points="
		54.023,13.247 54.023,23.309 47.585,16.028 	"/>
</g>
<g id="Layer_2">
	
		<path fill="#00A6AF" stroke="#00FFFF" stroke-width="2" stroke-linecap="round" stroke-linejoin="round" stroke-miterlimit="10" d="
		M63.872,23.72l0.876,2.335l-0.683,0.634c-1.088-0.11-3.577,0.211-4.53,0.641c-0.052,0.017-1.063,0.963-1.165,1.063
		c-0.506,1.224-0.034,2.499-0.219,3.721c-0.194,1.257-1.072,2.44-0.885,3.787l-1.571,2.304l-1.105,0.136l-0.16,1.063l-1.054,1.198
		c0.252,1.806,0.059,3.519-1.274,4.853c-0.168,0.911-0.279,2.783,0.167,3.653l-0.833,1.129c-0.027,1.284,0.927,2.211,0.886,3.52
		c-0.75,0.573-1.24,1.476-1.384,2.395c-0.059,0.373,0.033,0.828-0.059,1.19c-0.043,0.185-0.498,1.096-0.498,1.197
		c0,0.077,0.37,3.435,0.387,3.52c0.077,0.33,0.954,1.604,1.165,2.447l0.016,0.009c-1.679,0.632-3.434,1.687-4.832,2.783
		l-0.721,2.373c-0.664,0.438-2.8,1.687-3.187,2.109c-0.296,0.313,0.023,0.979,0.193,1.299l-2.724,1.467
		c-0.195-0.211-2.128-2.363-2.21-2.42c-0.76-0.548-2.441-1.147-3.341-1.569c-0.76-1.653-2.549-4.953-4.177-5.695
		c-1.307-3.063-1.004-3.131-0.338-6.278c0.753-3.526-6.285-3.021-6.064-0.54c0.067,0.826,0.9,3.552,0.825,3.914l-0.979,4.523
		l0.868,1.747c-1.755,2.632-3.788,1.13-3.611,5.854L18.8,76.773l-2.453-7.037c-0.338-0.953-2.659-4.345-3.461-2.153l-2.007-0.684
		c-0.675-0.995-2.953-5.863-2.801-6.967c0.093-0.735,1.881-1.934,2.513-2.339c-1.309-0.48-3.72-1.045-4.464-2.234
		c-1.162-0.565-3.206-1.706-4-2.667c-1.974-2.38,4.33-11.804,5.536-14.402c0.489-1.037,0.616-4.362,0.727-5.669
		c0.261-3.105,0.961-6.288,0.961-9.391c0-1.148,0.489-1.932,1.324-2.667c0.768-0.684,1.925-2.321,3.098-1.848
		c1.03,0.405,2.06,0.71,3.14,0.91c1.24-0.598,2.539-1.289,3.854-1.662c0.565-0.158,0.719-2.943,1.966-3.551
		c1.358-0.659,2.271-1.695,1.992-3.309c-0.195-1.114-0.557-1.51,0.312-2.36c0.743-0.734,0.716-0.423,0.716-1.563
		c0-1.333-0.202-2.7-0.371-4.025h0.01c0.58,0.119,1.146,0.278,1.72,0.415c0.634,0.149,1.932-1.563,2.066-2.13
		c0.161-0.675,1.544-0.504,1.798,0.034c0.33,0.686,1.635,1.58,2.21,2.195c0.978,1.063,1.02,1.241,0.853,2.617
		c-0.169,1.417-0.373,2.833-0.542,4.251c-0.335,2.776,5.585,1.046,6.97,1.046c0.606,0,1.392,0.962,1.73,1.435l1.847,0.142
		c1.585-0.776,1.829-1.001,2.059-2.731c0.049-0.421,0.48-1.91,0.735-2.203c0.293-0.33,0.555-0.682,0.79-1.064l2.06-0.211
		l0.734,0.634l-0.786,3.424l0.474,0.897c1.146,0.125,2.479,0.243,3.635,0.117c0.111,2.498-0.151,2.025-2.107,3.367L50.955,17.5
		c1.197,1.443,2.268,4.219,2.843,5.958l1.687,0.684l1.055-4.271l1.586-0.312l1.636,1.055l2.473-0.269l0.37,2.377L63.872,23.72z"/>
</g>
<g id="Layer_5">
	<g opacity="0.35">
		<path fill="#FFFFFF" d="M33.067,6c0.102-0.86,0.062-0.916-0.615-1.653C32.353,4.242,32.224,4.124,32.083,4h-3.575
			c-0.415,0.343-0.869,0.581-1.313,0.581c-0.077,0-0.236-0.018-0.311-0.036l-0.327-0.081c0.062,0.508,0.11,1.021,0.146,1.536H33.067
			z"/>
		<path fill="#FFFFFF" d="M49.302,8h-0.028l-1.07,0.109c-0.19,0.273-0.397,0.535-0.617,0.782C47.513,9.023,47.343,9.56,47.223,10
			h1.62L49.302,8z"/>
		<path fill="#FFFFFF" d="M32.559,10c0.071-0.573,0.144-1.147,0.219-1.721C32.791,8.186,32.802,8.093,32.814,8h-6.089
			c-0.052,0.45-0.205,0.747-0.661,1.153c-0.084,0.075-0.19,0.169-0.324,0.301C25.511,9.679,25.463,9.736,25.511,10H32.559z"/>
		<path fill="#FFFFFF" d="M52.092,13.917c0.479-0.291,0.638-0.387,0.673-0.838c-0.955,0-1.932-0.086-2.762-0.177
			c-0.33-0.036-0.62-0.233-0.775-0.527L49.029,12h-2.257c-0.343,0.937-0.946,1.392-2.171,2h7.355
			C52,13.974,52.051,13.941,52.092,13.917z"/>
		<path fill="#FFFFFF" d="M41.386,13.601c-0.44-0.615-0.859-0.977-1.004-1.027c-0.141,0.011-0.696,0.1-1.232,0.186
			c-0.99,0.159-2.222,0.357-3.332,0.357c-1.34,0-2.26-0.302-2.81-0.923C32.96,12.14,32.912,12.068,32.864,12h-7.119
			c-0.066,0.741-0.336,1.418-0.823,2h17.146C41.796,13.963,41.547,13.826,41.386,13.601z"/>
		<path fill="#FFFFFF" d="M50.004,17.191L50.39,16H22.699c-0.157,0.361-0.293,0.781-0.386,1.073
			c-0.108,0.339-0.219,0.648-0.348,0.927h28.132C49.956,17.756,49.915,17.464,50.004,17.191z"/>
		<path fill="#FFFFFF" d="M61.394,21.442l-1.524,0.166c-0.229,0.026-0.457-0.03-0.65-0.154l-1.297-0.836l-0.565,0.111L57.044,22
			h4.437L61.394,21.442z"/>
		<path fill="#FFFFFF" d="M51.325,20H18.426c-0.154,0.075-0.308,0.149-0.46,0.224l-0.619,0.302
			c-0.191,0.092-0.408,0.121-0.617,0.083c-0.769-0.143-1.527-0.358-2.289-0.609h-1.746c-0.292,0.236-0.584,0.538-0.782,0.742
			c-0.207,0.214-0.399,0.413-0.574,0.568c-0.27,0.237-0.458,0.462-0.612,0.69H52.21C51.92,21.261,51.622,20.592,51.325,20z"/>
		<path fill="#FFFFFF" d="M63.034,24.333L62.612,24H56.55l-0.094,0.381c-0.069,0.282-0.258,0.519-0.516,0.651
			c-0.259,0.132-0.561,0.145-0.831,0.036l-1.687-0.684c-0.188-0.076-0.327-0.219-0.438-0.384H10.327
			c-0.022,0.667-0.064,1.334-0.129,2H60.54c0.983-0.206,2.14-0.33,2.995-0.333L63.034,24.333z"/>
		<path fill="#FFFFFF" d="M9.811,29.158C9.772,29.436,9.736,29.719,9.699,30h47.434c-0.016-0.627,0.029-1.3,0.314-1.988
			c0.002-0.004,0.006-0.007,0.008-0.012H9.966C9.915,28.388,9.863,28.775,9.811,29.158z"/>
		<path fill="#FFFFFF" d="M9.387,32.704c-0.021,0.243-0.042,0.556-0.066,0.912C9.312,33.746,9.303,33.872,9.294,34h47.215
			c0.086-0.275,0.18-0.542,0.275-0.795c0.159-0.427,0.307-0.83,0.371-1.205H9.462C9.438,32.234,9.406,32.473,9.387,32.704z"/>
		<path fill="#FFFFFF" d="M8.807,38h44.857c0.127-0.346,0.427-0.604,0.804-0.651l0.656-0.081L55.989,36H9.129
			C9.048,36.781,8.945,37.458,8.807,38z"/>
		<path fill="#FFFFFF" d="M7.896,40c-0.227,0.409-0.483,0.861-0.772,1.37C7.017,41.557,6.895,41.772,6.766,42h45.705
			c0.007-0.386-0.021-0.805-0.085-1.26c-0.038-0.266,0.045-0.528,0.207-0.74H7.896z"/>
		<path fill="#FFFFFF" d="M4.623,46h46.398c0.045-0.43,0.096-0.719,0.098-0.728c0.037-0.199,0.133-0.382,0.276-0.525
			c0.23-0.23,0.42-0.478,0.576-0.748H5.66C5.317,44.637,4.963,45.315,4.623,46z"/>
		<path fill="#FFFFFF" d="M50.631,49.643l0.515-0.698c-0.081-0.299-0.125-0.621-0.154-0.945H3.687c-0.31,0.72-0.563,1.398-0.738,2
			h47.525C50.505,49.873,50.553,49.75,50.631,49.643z"/>
		<path fill="#FFFFFF" d="M50.812,52H2.872c0.011,0.016,0.014,0.04,0.026,0.054C3.364,52.618,4.539,53.379,5.679,54h45.068
			c0.163-0.238,0.34-0.465,0.542-0.667c-0.06-0.313-0.191-0.631-0.336-0.982C50.906,52.238,50.859,52.119,50.812,52z"/>
		<path fill="#FFFFFF" d="M10.053,56.355c0.323,0.105,0.623,0.204,0.882,0.299c0.356,0.131,0.608,0.452,0.65,0.83
			c0.02,0.18-0.013,0.357-0.084,0.517h12.052c-0.02-0.595,0.187-1.161,0.621-1.635c0.123-0.135,0.262-0.254,0.408-0.365H9.014
			C9.377,56.132,9.739,56.252,10.053,56.355z"/>
		<path fill="#FFFFFF" d="M30.684,56c0.138,0.116,0.283,0.227,0.393,0.363c0.282,0.348,0.573,0.889,0.592,1.637h17.844
			c0.051-0.125,0.113-0.267,0.203-0.466c0.084-0.186,0.171-0.374,0.206-0.471c0.007-0.034,0.003-0.217,0-0.352
			c-0.005-0.245-0.004-0.489,0.03-0.711H30.684z"/>
		<path fill="#FFFFFF" d="M23.941,60H9.149c-0.047,0.058-0.084,0.109-0.1,0.145C9.048,60.41,9.291,61.132,9.638,62h14.704
			l0.031-0.145c-0.038-0.277-0.227-1.033-0.355-1.546C23.989,60.197,23.967,60.104,23.941,60z"/>
		<path fill="#FFFFFF" d="M49.53,60H31.325c-0.204,0.909-0.314,1.449-0.268,2H49.76C49.709,61.576,49.613,60.747,49.53,60z"/>
		<path fill="#FFFFFF" d="M23.908,64H10.5c0.364,0.792,0.727,1.523,1,2h1.522c0.257-0.108,0.494-0.142,0.641-0.142
			c0.233,0,0.464,0.053,0.69,0.142h9.122L23.908,64z"/>
		<path fill="#FFFFFF" d="M31.735,64.149c0.666,0.411,1.306,1.09,1.885,1.851h13.572c1.09-0.783,2.266-1.479,3.401-2H31.675
			C31.697,64.053,31.712,64.094,31.735,64.149z"/>
		<path fill="#FFFFFF" d="M35.875,69.795c0.149,0.064,0.318,0.135,0.486,0.205h7.625c0.299-0.19,0.644-0.405,1.048-0.655
			c0.189-0.117,0.365-0.226,0.514-0.319L45.859,68H34.929C35.328,68.694,35.658,69.34,35.875,69.795z"/>
		<path fill="#FFFFFF" d="M16.517,68c0.4,0.588,0.68,1.137,0.773,1.402L17.499,70h4.182c0.332-0.355,0.724-0.632,1.163-0.9
			c0.432-0.264,0.844-0.517,1.249-0.981L24.034,68H16.517z"/>
		<path fill="#FFFFFF" d="M18.893,74h1.388l0.362-0.341c-0.005-0.656,0.043-1.191,0.125-1.659h-2.572L18.893,74z"/>
		<path fill="#FFFFFF" d="M42.104,72h-2.382c0.259,0.284,0.622,0.683,1.172,1.293l1.257-0.677C42.1,72.395,42.092,72.192,42.104,72z
			"/>
	</g>
</g>
</svg>
