<?xml version="1.0" encoding="utf-8"?>
<!-- Generator: Adobe Illustrator 16.0.0, SVG Export Plug-In . SVG Version: 6.00 Build 0)  -->
<!DOCTYPE svg PUBLIC "-//W3C//DTD SVG 1.1//EN" "http://www.w3.org/Graphics/SVG/1.1/DTD/svg11.dtd">
<svg version="1.1" xmlns="http://www.w3.org/2000/svg" xmlns:xlink="http://www.w3.org/1999/xlink" x="0px" y="0px" width="91px"
	 height="103px" viewBox="0 0 91 103" enable-background="new 0 0 91 103" xml:space="preserve">
<g id="Layer_1">
	
		<path fill="#00808E" stroke="#00808E" stroke-width="3" stroke-linecap="round" stroke-linejoin="round" stroke-miterlimit="10" d="
		M88.631,40.452c1.184,2.795-0.37,5.318-0.734,7.56c-0.273,1.665,0.159,3.37-0.158,5.036c-0.493,2.59-2.334,4.627-3.258,7.059
		c-0.825,2.195-0.676,3.734-1.204,5.414c-0.242,0.775-0.773,1.258-0.736,2.137c-0.992,0.463-2.22,0.34-3.099,1.074l-1.363-0.127
		c-0.326-0.645-0.878-1.152-1.152-1.826c-1.294-3.15,0.939-6.703-2.787-9.445c-1.029-0.766-1.87-1.545-3.141-1.895l-0.947,0.568
		c0.029,1.279-0.879,2.379-0.789,3.652c0.676,0.582,2.872,1.414,3.203,1.893c0.728,1.037,1.613,6.869,1.31,7.869
		c-0.968,3.16-3.408,2.297-5.929,2.713c-1.41,3.303,2.898,4.816,2.727,9.135c-0.143,3.736-2.932,5.545-2.834,6.863
		c0.152,2.016,2.699,2.682,2.78,4.537c0.022,0.5-0.778,1.939-1.204,2.203c-1.272,0.797-2.824,0.537-4.15,1.447
		c-1.023,0.703-2.062,2.719-2.992,4.316l-0.227-0.137l-5.431-4.037l-0.698-5.256l-2.104-3.34l-4.174,0.082l-4.908,0.926
		l-2.734-1.365l2.454-5.764l-2.03-2.303l-0.25-2.066l-1.363-1.387l-2.583,1.318l-4.902-1.643l-5.052-4.305l-4.028-7.504
		l-6.029-2.434l-2.78-2.324c0,0-1.047,0.721-1.531,0.5c-0.477-0.211-8.822-2.869-8.822-2.869l-0.121-3.689l-2.174-0.037L1.563,49.29
		l3.675-1.591l2.703-2.372l-0.529-6.868l-1.395-0.932l3.907-3.817l2.552,0.432l2.038-3.461l4.491,2.015l1.213-1.728l-2.303-2.953
		l0.749-4.407l1.947-3.508l2.977-1.303l4.348-0.705l3.015-3.052l2.128-0.675l1.197,1.894l2.568,0.235l1.795-1.515l4.144,0.068
		c0,0,3.339,1.909,3.895,2.787c0.545,0.871,2.135,1.434,2.135,1.434l2.953,0.598l0.758,1.371l-1.266,5.681
		c0,0,0.455,1.788,0.735,2.272c0.272,0.478,3.925,1.228,3.925,1.228l1.945,1.007l3.211-3.052l1.963,0.228l5.673-3.688l3.037,0.129
		l7.074,2.749l8.354,2.604l0.236,0.113c-0.439,1.151-0.742,2.363-0.827,3.71C86.321,38.422,87.391,37.505,88.631,40.452z"/>
</g>
<g id="Layer_3">
	
		<polygon fill="#00808E" stroke="#00808E" stroke-width="3" stroke-linecap="round" stroke-linejoin="round" stroke-miterlimit="10" points="
		1.563,36.29 1.563,49.29 18.097,43.197 	"/>
	
		<polygon fill="#00808E" stroke="#00808E" stroke-width="3" stroke-linecap="round" stroke-linejoin="round" stroke-miterlimit="10" points="
		52.523,8.237 52.523,23.03 45.315,15.114 	"/>
	
		<polyline fill="#00808E" stroke="#00808E" stroke-width="3" stroke-linecap="round" stroke-linejoin="round" stroke-miterlimit="10" points="
		41.896,74.508 41.896,87.508 54.264,79.363 42.097,74.697 	"/>
	
		<polygon fill="#00808E" stroke="#00808E" stroke-width="3" stroke-linecap="round" stroke-linejoin="round" stroke-miterlimit="10" points="
		70.519,79.668 70.519,92.668 63.014,80.613 	"/>
	
		<polygon fill="#00808E" stroke="#00808E" stroke-width="3" stroke-linecap="round" stroke-linejoin="round" stroke-miterlimit="10" points="
		89.068,28.947 89.068,42.79 81.347,37.864 	"/>
	
		<polygon fill="#00808E" stroke="#00808E" stroke-width="3" stroke-linecap="round" stroke-linejoin="round" stroke-miterlimit="10" points="
		73.774,56.42 73.774,67.607 57.347,55.113 	"/>
</g>
<g id="Layer_2">
	
		<path fill="#00A6AF" stroke="#00FFFF" stroke-width="2" stroke-linecap="round" stroke-linejoin="round" stroke-miterlimit="10" d="
		M88.631,27.452c1.184,2.795-0.37,5.318-0.734,7.56c-0.273,1.665,0.159,3.369-0.158,5.035c-0.493,2.591-2.334,4.628-3.258,7.06
		c-0.825,2.195-0.676,3.734-1.204,5.414c-0.242,0.775-0.773,1.258-0.736,2.137c-0.992,0.463-2.22,0.34-3.099,1.074l-1.363-0.127
		c-0.326-0.645-0.878-1.152-1.152-1.826c-1.294-3.151,0.939-6.704-2.787-9.445c-1.029-0.766-1.87-1.546-3.141-1.895l-0.947,0.568
		c0.029,1.279-0.879,2.379-0.789,3.651c0.676,0.583,2.872,1.415,3.203,1.894c0.728,1.036,1.613,6.869,1.31,7.869
		c-0.968,3.16-3.408,2.297-5.929,2.713c-1.41,3.303,2.898,4.816,2.727,9.135c-0.143,3.736-2.932,5.545-2.834,6.863
		c0.152,2.016,2.699,2.682,2.78,4.537c0.022,0.5-0.778,1.939-1.204,2.203c-1.272,0.797-2.824,0.537-4.15,1.447
		c-1.023,0.703-2.062,2.719-2.992,4.316l-0.227-0.137l-5.431-4.037l-0.698-5.256l-2.104-3.34l-4.174,0.082l-4.908,0.926
		l-2.734-1.365l2.454-5.764l-2.03-2.303l-0.25-2.066l-1.363-1.387l-2.583,1.318l-4.902-1.643l-5.052-4.305l-4.028-7.504
		l-6.029-2.433l-2.78-2.324c0,0-1.047,0.72-1.531,0.5c-0.477-0.212-8.822-2.87-8.822-2.87l-0.121-3.689l-2.174-0.037L1.563,36.29
		l3.675-1.591l2.703-2.372l-0.529-6.868l-1.395-0.932l3.907-3.817l2.552,0.432l2.038-3.461l4.491,2.015l1.213-1.728l-2.303-2.953
		l0.749-4.407l1.947-3.508l2.977-1.303l4.348-0.705l3.015-3.052l2.128-0.675l1.197,1.894l2.568,0.235l1.795-1.515l4.144,0.068
		c0,0,3.339,1.909,3.895,2.787c0.545,0.871,2.135,1.434,2.135,1.434l2.953,0.598l0.758,1.371l-1.266,5.681
		c0,0,0.455,1.788,0.735,2.272c0.272,0.478,3.925,1.228,3.925,1.228l1.945,1.007l3.211-3.052l1.963,0.228l5.673-3.688l3.037,0.129
		l7.074,2.749l8.354,2.604l0.236,0.113c-0.439,1.151-0.742,2.363-0.827,3.71C86.321,25.422,87.391,24.505,88.631,27.452z"/>
</g>
<g id="Layer_5">
	<g opacity="0.35">
		<path fill="#FFFFFF" d="M45.83,5.365C45.665,5.117,44.936,4.577,44.055,4h-6.26l-0.306,0.258
			c-0.205,0.172-0.466,0.255-0.736,0.231l-2.568-0.235C33.977,4.235,33.797,4.133,33.642,4H30.42l-1.772,1.794
			C28.559,5.885,28.45,5.949,28.334,6h18.047C46.172,5.809,45.978,5.6,45.83,5.365z"/>
		<polygon fill="#FFFFFF" points="51.465,8.389 51.25,8 21.256,8 20.146,10 51.106,10 		"/>
		<polygon fill="#FFFFFF" points="71.54,13.034 68.987,12.925 67.333,14 74.028,14 		"/>
		<path fill="#FFFFFF" d="M50.282,13.7l0.379-1.7H19.443l-0.339,2h31.183C50.278,13.899,50.26,13.799,50.282,13.7z"/>
		<path fill="#FFFFFF" d="M51.125,16.686c-0.094-0.162-0.194-0.41-0.292-0.686H19.954l1.055,1.353
			c0.148,0.189,0.211,0.419,0.204,0.647h32.757C51.529,17.38,51.279,16.957,51.125,16.686z"/>
		<path fill="#FFFFFF" d="M79.341,16H64.257l-0.675,0.438c-0.194,0.127-0.424,0.184-0.66,0.155l-1.498-0.173L59.761,18h25.995
			L79.341,16z"/>
		<path fill="#FFFFFF" d="M85.587,21.156c0.024-0.388,0.083-0.772,0.142-1.156H20.014l-0.189,0.27
			c-0.276,0.393-0.791,0.533-1.228,0.338L17.243,20H14.31l-0.971,1.648C13.25,21.801,13.12,21.915,12.975,22h72.579
			C85.559,21.736,85.567,21.464,85.587,21.156z"/>
		<path fill="#FFFFFF" d="M8.409,25.382L8.457,26h78.19c-0.45-0.617-0.781-1.145-0.958-2H7.988l-0.389,0.38l0.369,0.247
			C8.223,24.797,8.386,25.076,8.409,25.382z"/>
		<path fill="#FFFFFF" d="M87.764,28H8.611l0.154,2H88.05C88.093,29.34,88.022,28.677,87.764,28z"/>
		<path fill="#FFFFFF" d="M8.938,32.25c0.024,0.314-0.101,0.621-0.337,0.828L7.55,34h79.547c0.105-0.416,0.222-0.83,0.345-1.237
			c0.077-0.256,0.152-0.51,0.224-0.763H8.919L8.938,32.25z"/>
		<path fill="#FFFFFF" d="M86.81,36H4.749l-1.972,0.854L3.124,38H86.85c-0.005-0.167-0.012-0.336-0.019-0.507
			C86.812,37.005,86.796,36.506,86.81,36z"/>
		<path fill="#FFFFFF" d="M5.857,40.006L5.923,42h63.861l0.699-0.419c0.235-0.14,0.517-0.18,0.779-0.107
			c0.474,0.13,0.883,0.318,1.27,0.526H86c0.316-0.65,0.57-1.31,0.718-2H5.856C5.856,40.002,5.857,40.004,5.857,40.006z"/>
		<path fill="#FFFFFF" d="M76.83,46h7.058c0.317-0.692,0.665-1.36,1.03-2h-9.606C76.03,44.639,76.511,45.312,76.83,46z"/>
		<path fill="#FFFFFF" d="M68.71,44.448c0.055-0.152,0.106-0.301,0.154-0.448H9.11c2.121,0.682,4.338,1.403,4.958,1.63
			c0.152-0.042,0.471-0.201,0.7-0.357c0.368-0.251,0.862-0.229,1.206,0.058l0.8,0.669h51.518
			C68.363,45.434,68.542,44.917,68.71,44.448z"/>
		<path fill="#FFFFFF" d="M71.646,49.125c-0.109-0.087-0.784-0.428-1.231-0.653c-0.319-0.161-0.625-0.317-0.908-0.473H19.738
			l4.778,1.928c0.043,0.017,0.076,0.049,0.116,0.072h47.343C71.861,49.589,71.749,49.278,71.646,49.125z"/>
		<path fill="#FFFFFF" d="M77.458,50h5.3c0.09-0.609,0.204-1.27,0.396-2h-5.779C77.457,48.678,77.461,49.351,77.458,50z"/>
		<path fill="#FFFFFF" d="M72.405,52H25.891l1.074,2h45.74C72.628,53.366,72.524,52.67,72.405,52z"/>
		<path fill="#FFFFFF" d="M77.851,53.398c0.08,0.195,0.215,0.396,0.362,0.602h3.05c0.117-0.025,0.237-0.049,0.347-0.077
			c0.099-0.44,0.284-0.796,0.442-1.103c0.112-0.216,0.208-0.402,0.27-0.599c0.023-0.073,0.034-0.148,0.054-0.222h-4.853
			C77.576,52.484,77.668,52.953,77.851,53.398z"/>
		<path fill="#FFFFFF" d="M28.962,57.721L29.29,58H69.25c0.104-0.005,0.213-0.013,0.316-0.018c1.935-0.086,2.741-0.188,3.251-1.855
			c0.007-0.032,0.01-0.082,0.015-0.127H28.038L28.962,57.721z"/>
		<path fill="#FFFFFF" d="M66.603,60H31.637l2.086,1.777L34.387,62h32.497C66.646,61.388,66.523,60.726,66.603,60z"/>
		<path fill="#FFFFFF" d="M69.155,66c-0.293-0.689-0.705-1.314-1.13-1.957c-0.009-0.014-0.019-0.029-0.028-0.043H42.988
			c0.034,0.082,0.064,0.166,0.075,0.256L43.274,66H69.155z"/>
		<path fill="#FFFFFF" d="M45.025,68l0.074,0.084c0.255,0.289,0.321,0.697,0.17,1.053L44.902,70h24.346
			c0.175-0.534,0.3-1.116,0.325-1.77c0.003-0.08-0.004-0.153-0.004-0.23H45.025z"/>
		<path fill="#FFFFFF" d="M67.794,72.705c0.152-0.222,0.311-0.459,0.469-0.705H44.05l-0.852,2h5.968l0.187-0.035
			c0.054-0.01,0.11-0.016,0.165-0.018l4.174-0.082c0.193,0.003,0.367,0.05,0.518,0.135h12.794
			C67.201,73.579,67.484,73.158,67.794,72.705z"/>
		<path fill="#FFFFFF" d="M66.905,76H55.609l1.053,1.672c0.063,0.101,0.094,0.214,0.118,0.328h11.498
			C67.749,77.475,67.182,76.846,66.905,76z"/>
		<path fill="#FFFFFF" d="M57.329,82h8.227c0.549-0.217,1.093-0.342,1.594-0.445c0.632-0.131,1.178-0.244,1.634-0.531
			c0.14-0.127,0.441-0.639,0.613-1.023H57.063L57.329,82z"/>
		<path fill="#FFFFFF" d="M61.604,86h0.353c0.401-0.7,0.811-1.395,1.238-2h-4.28L61.604,86z"/>
	</g>
</g>
</svg>
