<?xml version="1.0" encoding="utf-8"?>
<!-- Generator: Adobe Illustrator 16.0.0, SVG Export Plug-In . SVG Version: 6.00 Build 0)  -->
<!DOCTYPE svg PUBLIC "-//W3C//DTD SVG 1.1//EN" "http://www.w3.org/Graphics/SVG/1.1/DTD/svg11.dtd">
<svg version="1.1" xmlns="http://www.w3.org/2000/svg" xmlns:xlink="http://www.w3.org/1999/xlink" x="0px" y="0px" width="248px"
	 height="328px" viewBox="0 0 248 328" enable-background="new 0 0 248 328" xml:space="preserve">
<g id="Layer_1">
	
		<path fill="#00808E" stroke="#00808E" stroke-width="3" stroke-linecap="round" stroke-linejoin="round" stroke-miterlimit="10" d="
		M243.752,177.963l-2.465,0.063c-1.316-0.297-2.051-1.949-2.881-2.842c-0.697-0.742-1.518-0.923-1.744-2.15l-1.072-0.555
		c-0.658,0.469-1.572,0.891-2.371,1.047l-5.486-2.465c-2.143,0.516-3.85-0.008-5.859,0.117c-0.744,0.055-1.355,0.689-2.457,0.556
		l-1.135-0.735c-0.164-1.174-1.432-2.535-2.365-3.209c-0.721-0.517-1.627-0.915-2.309-1.479c-0.711-0.58-1.4-1.424-2.051-2.09
		c-0.689,0.078-1.666-0.134-2.26-0.494l-1.434-2.275c-1.236-0.157-2.34-0.979-3.443-1.48c-0.805-0.367-1.668-0.617-2.465-0.994
		c-0.773-0.352-1.314-0.861-2.205-0.987c-0.393,0.642-1.48,1.464-2.264,1.48l-1.791,2.104c-0.854-0.016-2.715,0.289-3.342,0.979
		c-1.598-0.791-3.17-1.808-4.162-3.326l0.055-1.048l1.078-0.734l0.463-1.112l1.283-0.925c-0.063-0.188-0.768-2.159-0.775-2.214
		c-0.154-1.409,0.9-4.459,1.238-5.86c0.092-0.392,0.063-0.831,0.156-1.229c0.234-1.072,0.547-2.145,0.822-3.2l-1.033-2.286
		c-0.83,0.319-1.738,0.969-2.357,1.604c-1.213,0.085-1.484-0.642-2.307-0.923c-0.533-0.18-1.369-0.212-1.934-0.307
		c0.023-0.454,0.523-1.541,0.801-1.854c0.482-0.563,1.188-0.993,1.688-1.542c0.988-1.064,2.41-2.949,2.475-4.499l-0.18-0.775
		c-0.033-0.147,0-0.258-0.088-0.383c-0.242-0.375-0.445-0.532-0.734-0.868c-0.963-1.135-1.957-2.27-2.699-3.577
		c0.053-0.885,0.311-1.901,0.672-2.715c-0.273-0.681-0.508-1.432-0.83-2.089c-0.352-0.751-0.836-1.049-0.822-2.037
		c1.057-2.456,3.311-4.249,5.924-4.734c0.229-0.68,0.463-1.744,0.805-2.347c0.082-0.141,0.965-0.813,1.082-0.994
		c0.422-0.604,0.586-1.502,1.025-2.088c0.531-0.712,1.463-1.457,2.105-2.098l3.646-0.495l1.08-0.923
		c0.203-0.688,0.445-1.393,0.617-2.097c0.041-0.181,0.104-0.996,0.148-1.104c0.432-1.08,1.371-1.948,1.229-3.208
		c-0.281-2.598-0.955-2.824,0-5.603c-0.539-0.775-1.135-1.55-1.637-2.34c-0.422-0.666-0.75-1.706-1.439-2.159
		c-0.9-0.596-3.482-1.481-4.672-1.542c-0.383-0.023-0.799,0.093-1.18,0.061c-0.926-0.077-2.639-0.883-3.445-1.29
		c-0.047-0.11-0.453-0.995-0.461-1.047c-0.018-0.117,0.109-0.925,0.102-1.114c-0.031-1.243-0.705-3.654-1.691-4.437
		c-2.301-0.852-5.086-0.72-7.496-0.859c-1.049-0.064-1.877-0.917-2.809-1.253c-0.832-0.305-1.291-0.236-2.074-0.414
		c-1.143-0.266-2.496-1.425-2.818-2.592c-0.195-0.689-0.188-1.454-0.359-2.152c-0.424-1.644-1.049-2.658-0.932-4.5l-1.182-1.047
		c-0.203-2.763,0.119-5.62,0.258-8.382c0.104-1.987-1.361-4.475-3.545-4.5c-0.744,0.447-1.58,1.269-1.994,2.038l-1.293,0.062
		c-0.367-0.8-1.063-1.659-1.736-2.215l-2.361-0.125l-1.285-0.923l-1.182,0.369l-0.932,2.221c-1.291-0.25-3.404,0.142-4.508,0.862
		c-0.477,0.649-0.846,1.565-1.033,2.339c-0.634-0.281-2.817-1.337-3.287-1.845c-0.414-0.454-0.829-2.011-0.994-2.553
		c-0.186-0.602-0.461-1.345-0.906-1.823c-0.744-0.038-1.854,0.391-2.411,0.861l-2.364-1.11l-0.258-1.167l-1.182-0.681l-0.258-2.096
		c0.424-1.299,1.574-2.137,1.902-3.451l-0.305-1.103l0.719-1.114l-0.212-1.11c0.509-0.455,0.9-1.542,0.83-2.216l-1.291-0.743
		l-3.436,0.367c-0.477,0.478-0.908,1.489-0.922,2.161c-0.619,0.651-1.401,1.701-2.106,2.216c-1.784,1.321-3.919,2.458-5.805,3.637
		l-1.081-0.062l-0.563-2.216l-1.184-0.928c-0.688,0.126-1.658,0.083-2.306-0.181c-0.721-1.124-0.503-3.269-0.674-4.561l-0.328-1.535
		c-0.07-0.299-0.048-0.485-0.172-0.767l-1.354-2.161l-0.672-1.08c0.618-0.428,1.032-1.916,1.094-2.589l-1.651-1.033
		c0.017-1.121,0.188-2.512,0.063-3.605c0-0.043-0.557-1.114-0.61-1.217l-1.854-1.039c-1.001,0.884-2.864,1.808-4.21,1.94
		l-2.49-1.049c-0.235-1.535-0.28-3.438-0.094-4.972c0.022-0.146,0.415-0.954,0.415-1.038l-0.728-6.035L109.424,14
		c-1.33,0.86-2.458,1.667-2.701,1.871c-0.625,0.523-1.016,1.516-1.642,2.027c-0.416,0.337-2.849,1.164-2.905,1.212
		c-1.064,0.956-2.191,2.152-3.342,2.982c-0.665,0.485-1.65,0.697-2.355,1.133l-1.072,0.917c-1.298,1.101-2.581,2.122-4.131,2.863
		l-0.885,2.161c-0.445,1.072-4.35,3.788-5.328,5.705L83.7,35.377c-2.012,2.203-2.239,5.565-2.637,8.343
		c-0.14,0.963,1.285,2.647,1.848,3.477c0,0-0.541,1.447-0.813,1.647c-0.792,0.597-5.361,2.663-5.361,2.663
		c-1.261,0.875-2.379,2.081-3.602,3.02c-1.072,0.822-4.438,2.832-4.836,3.138c-1.322,1.01-2.637,2.544-3.326,4.055
		c-0.408,0.907-0.667,2.065-0.97,3.021c-0.213,0.656-0.76,3.833-1.035,4.686c-0.132,0.408-0.492,0.97-0.67,1.339
		c-2.224,4.453-6.496,7.026-9.845,10.565c-0.822,0.86-1.747,1.871-2.466,2.817c-0.891,1.173-1.478,2.815-2.8,3.615
		c-1.464,0.587-2.871-0.031-4.337-0.048c-0.062,0-2.354,0.259-2.417,0.275c-2.262,0.532-4.187,2.34-6.52,2.526
		c-0.546-0.17-1.228-0.47-1.792-0.57c-0.398-0.062-1.993,0.291-1.993,0.291l-0.541,1.564c1.064,2.441,1.675,4.977,2.299,7.55
		c0.125,0.525-0.883,2.372-0.963,2.914c-0.21,1.454,0.197,3.708,0.19,5.242c-0.007,0.656-0.344,3.45-0.344,3.45
		c-0.501,1.707-1.44,4.437-2.074,6.104c0.893-0.399,2.058-0.727,3.044-0.609c0.689,1.635-0.963,5.023-1.573,6.635
		c0.994,3.842-0.807,5.79-0.541,8.13c0.102,0.925,1.731,3.099,2.489,3.647c1.988,4.438-4.288,12.364-2.542,15.816
		c0.359,0.72,4.561,4.046,5.422,4.484c2.279,1.174,7.075,3.075,7.098,6.118l-0.705,0.916l-1.132-0.071
		c-2.883-3.082-13.352-4.984-15.027-9.046c-1.206-2.91-0.054-5.055,0.813-7.74c0.258-0.791,0.799-4.891,0.761-5.728
		c-0.049-1.167-0.602-2.2-0.872-3.318c-0.459-1.94-1.154-3.834-3.3-4.492c-0.863,1.886-5.879,2.864-7.755,2.668
		c-1.246-0.125-2.42-0.618-3.585-1.041c-1.472,0.689-3.834-0.665-5.313-1.041c-1.345-0.343-2.754-0.259-4.118-0.063
		c0.36,1.441,0.471,6.19,0.213,7.679c-0.155,0.899-0.508,1.8-0.322,2.73c0.15,0.767,0.613,1.423,0.871,2.153
		c0.633,1.823,1.353,5.54,0.596,7.347c1.75,1.824,0.663,4.672,1.783,6.77c0.538,0.994,1.516,1.619,2.229,2.473
		c0.673,0.806,1.105,1.814,1.951,2.473l0.219,1.174l0.539,0.453c1.109-0.374,2.09-1.063,3.201-1.432l1.087,0.455
		c0.023,0.773-0.296,1.799-0.867,2.339c1.167,0.907,2.699,0.806,4.084,0.517l-0.038-0.204l2.667-2.653l2.301,0.579l1.751-4.187
		l2.755-2.16l6.004,2.707l3.902,3.678l2.85,3.201l4.179,0.533l0.798,2.418l3.781-1.338l2.622,0.633h0.016
		c-0.164-0.695,0.75-2.198,1.19-2.691l1.277-0.062c1.799,0.485,2.431,2.917,3.912,3.882c0.711,0.469,1.648,0.766,2.411,1.174
		c0.688,0.367,1.439,1.08,2.307,0.984c0.306-0.037,0.462-0.125,0.751-0.21l1.511-0.408c0.594-0.258,1.479-1.103,2.364-1.479
		c1.235-0.517,2.575-0.838,3.693-1.604c0.375-1.057,0.134-2.293,0.157-3.389c0.017-0.729,0.032-1.683,0.157-2.402
		c0.062-0.353,0.369-0.752,0.46-1.104l1.355-5.125c0.204-0.031,2.41-0.353,2.474-0.377c0.743-0.312,2.637-1.901,3.012-2.738
		l1.384-0.102l4.094,6.371c0.899-0.667,1.776-2.13,2.189-3.14c-0.352-0.931-0.648-1.948-0.806-2.935
		c0.799-0.438,1.864-1.697,2.011-2.621l-0.039-1.479l-0.016-0.736c0.867-1.299,2.365-1.049,3.544-1.973l0.463-0.986l0.884-0.579
		c1.525-0.978,2.371,0.11,3.833,0.579c0.572,0.18,3.077,0.188,3.702,0.188c1.22-1.143,3.481-0.634,4.93-0.313
		c0.728,0.61,2.184,2.193,2.205,3.202c0.023,1.189-0.272,2.45-0.304,3.638c-0.04,1.19,0.062,2.441,0.101,3.639
		c0.924,1.596,2.309,1.995,2.067,4.085l-0.174,1.519c0.392,1.234,1.543,2.072,2.161,3.207c0.533,3.444-5.118,7.835-2.05,11.09
		l2.309-0.306c1.565-1.696,2.761-1.268,4.773-1.729c1.611-0.368,3.381-1.235,4.624-2.34c1.659,1.395,2.552,4.617,2.817,6.652
		l-0.868,0.984c-1.934,0.455-4.344,1.143-5.393,3.021c-0.172,0.32-0.195,0.783-0.359,1.112c-0.376,0.751-0.869,1.495-1.292,2.229
		l0.299,1.658l2.894,0.605v1.11c-0.696,0.603-2.316,2.245-2.512,3.209l-1.235,0.861l-1.229-0.307l-0.83,1.112l0.876,1.048
		l-3.287,2.951c-0.986,0.102-1.862-0.267-2.355-0.241c-0.728,0.021-1.59,0.248-2.317,0.366c-0.594,1.088-2.425,2.982-3.333,3.694
		c-0.869,0.68-2.7,1.597-3.797,2.026l-1.071-0.681c-0.142-0.867-0.728-2.481-1.448-3.068v-3.201
		c-1.236-0.219-1.869,0.627-2.363,0.674c-1.104,0.116-2.52-0.086-3.646-0.125c-1.824,1.385-3.93,1.963-5.91,3.021
		c-0.383,0.211-0.697,0.71-1.081,0.924c-0.962,0.555-2.457,0.468-3.436,0l-2.418,0.555l-2.365-0.924
		c-1.447,0.281-3.075,1.926-4.561,1.111c-0.836-1.854-3.965-9.501-5.038-10.658c-1.886-0.556-3.398,2.536-5.799,2.527
		c-1.042-0.792-2.004-1.871-2.826-2.873c1.063-0.994,1.589-2.512,1.08-3.912l-1.08-0.986c0.041-0.743,0.243-1.58,0.518-2.277
		c-0.071-0.517-0.659-1.84-1.026-2.16c-1.503-1.26-3.084-2.496-4.523-3.816c-0.353-0.322-0.587-0.832-0.924-1.168
		c-0.633-0.642-1.573-1.314-2.409-1.666l-0.314-1.238l-4.232,7.247l-1.417,3.85l-0.045,1.229l0.507,3.333l-0.047,2.215l2.362,2.593
		l2.311,1.479l1.08,0.117l0.712,1.234l0.053,2.215l-1.383,1.48l-0.049,1.236l0.409,0.986l0.1,1.166l-0.664,1.174l-1.183,0.367
		l-1.081,0.808l-0.822,2.214l-2.77,5.195c1.933,0.713,1.11,4.704,0.429,5.986c-0.545,1.028-1.581,1.677-2.387,2.474
		c-1.75,0.218-4.146,0.76-5.586,1.823l-0.486,1.36c1.567,2.545,6.474,0.759,8.626,0.658c0.493-0.03,0.978,0.116,1.463,0.187
		l0.813,0.783l0.266,1.175c0.603,0.415,1.058,1.174,1.197,1.887l-0.595,1.104l0.815,0.781c1.018-0.009,2.684,0.454,3.686,0.782
		c0.781,0.259,1.352,0.993,2.114,1.237c2.503,0.805,5.031-3.186,7.645-2.801l0.814,0.852l0.219,1.104
		c-0.51,0.546-0.908,1.228-1.089,1.956l0.384,1.039c1.574,0.628,3.451,2.553,3.85,4.227c-0.266,0.578-1.143,1.329-1.791,1.369
		c-2.819,0.163-3.811-3.278-5.808-4.297l-0.969,0.587l-0.604,1.166c-4.796,1.816-1.236,11.794-7.372,13.014
		c-3.255-1.617-1.269-5.281-1.299-6.955c-0.008-0.399-0.178-0.792-0.273-1.175l-1.081-0.392c-1.071,1.063-2.223,2.199-3.742,2.536
		c-1.407-0.729-1.299-1.628-2.228-2.536c-0.471-0.461-4.266-1.204-5.581-2.277c-2.526,0.354-2.121,2.23-3.584,2.669
		c-0.799-0.25-1.573-0.634-2.223-1.173l-1.133,0.327l-0.549,1.175c0.405,1.767,1.603,2.433,3.035,3.318
		c0.461,1.289,0.056,2.815-0.266,4.099l0.375,1.04l1.09,0.392c1.479-0.666,2.715-1.164,4.124-2.019
		c1.572,0.05,2.175,0.673,2.653,2.019c-1.33,4.117-4.913,2.756-7.589,4.813c-1.128,0.869-1.81,2.701-2.333,3.991
		c-0.375,0.932-1.023,1.864-0.704,2.902l0.978,0.66c0.697-0.339,1.474-0.465,2.171-0.783c1.322-0.618,2.572-2.036,4.171-1.565
		l0.602,0.916l0.053,1.298c-2.315,2.02-6.175,4.829-1.792,7.09l1.064-0.219c1.175-0.297,2.387-0.461,3.38-1.213
		c1.613-1.205,2.326-3.193,3.686-4.618c0.806-0.836,1.784-1.471,2.554-2.338c0.938-1.063,1.29-2.591,2.761-3.099
		c0.72-0.25,0.837-0.056,1.542,0.102c2.026,0.462,2.942-1.285,4.265-2.411l0.538,0.393c-0.117,1.876-0.398,3.207,0.165,5.077
		c1.392,0.307,2.839,0.021,4.233,0.321c3.608-1.315,3.733-3.583,8.076-4.162l0.11,0.978l-0.705,0.979
		c-0.047,2.48,1.252,3.695-0.109,5.985c-3.121,1.417-4.553-0.626-6.614,0.126c-1.508,0.555-2.198,2.41-3.475,2.933
		c-2.863,1.159-7.121-1.578-7.261,3.384c-0.023,0.813,0.306,1.588,0.268,2.409c-0.055,1.399-0.783,2.685-0.814,4.101l1.032,0.71
		c0.813-0.193,1.659-0.265,2.495-0.258l0.269,1.174l-1.465,1.887c-1.705,0.391-3.373,1.963-4.983,2.731l-0.219,1.235l0.595,0.908
		c1.353,0.57,2.864,0.524,4.232,1.041c1.989,0.751,2.333,1.908,4.744,2.035c4.295,0.228,3.372-4.359,5.72-5.744l0.595,0.916
		c-0.463,1.292-0.243,2.69-0.266,4.03l0.868,0.523c2.652,0.021,2.754-2.998,3.576-4.819c0.406-0.901,0.799-1.677,0.977-2.662
		c0.409-2.261-0.83-7.662,2.762-7.614l0.813,0.775c0.447,1.776-1.148,3.686-0.977,5.469c0.415,4.094,0.83,4.328,1.957,7.938
		c1.222,0.617,2.738,0.617,3.795,1.564c0.212,0.805,0.291,1.643,0.275,2.472l-0.494,0.783c-1.714,0.305-4.194-1.879-7.051-1.175
		l-0.429,1.112c0.696,0.344,1.336,0.829,1.838,1.432v1.299c-0.868,0.275-1.77,0.101-2.654,0.063
		c-0.875-0.039-1.643,0.195-2.495,0.259c-1.338,0.102-4.705-0.838-6.183-1.167l-1.088,0.391c0.08,0.87,0.587,2.53,1.252,3.124
		c1.465,1.315,6.019,4.414,6.886,5.915c0.784,1.371,1.137,2.605,2.443,3.718c1.025,0.862,3.788,2.355,5.203,3.32
		c0.438,1.821,2.253,3.739,4.28,3.315c0.769-0.163,1.315-0.789,2.068-0.978c0.891-0.227,1.808,0.109,2.707-0.064
		c0.76-0.146,1.37-0.663,2.113-0.844c2.52-0.618,2.787-0.688,4.344-2.865c-0.227-0.711-0.688-1.307-1.032-1.954
		c-0.886-1.667-1.323-4.461-0.22-6.12c0.423-0.627,1.095-1.049,1.628-1.558c0.86-0.18,1.729-0.265,2.606-0.258
		c1.751,2.411,5.032,0.251,6.126-1.627l1.244-0.195l0.979,0.648c0.211,3.889-5.877,5.813-8.78,4.298l-0.978,0.587
		c0.5,0.639,1.212,0.946,1.791,1.492c1.393,1.34-0.784,3.905,0.266,7.312l0.071-0.024l1.626-1.315
		c0.987,0.085,2.568,1.063,3.342,1.605c0.925,0.062,1.409-0.37,2.208-0.62c0.735-0.227,1.651-0.267,2.355-0.546l0.79-0.58
		c1.183-0.86,1.549-0.774,3.014-0.734l0.775,0.015l1.072-0.984c0.681-0.181,1.628-0.242,2.316-0.064l0.869-1.166
		c-0.369-0.493-0.72-1.539-0.565-2.16c0.751-0.916,2.402-1.846,3.443-2.337c0.924-0.096,2.559,0.617,3.334,1.049
		c1.088-0.47,2.489-0.629,3.646-0.744l1.026,1.174c0.681,0.038,1.644,0.329,2.214,0.672c0.399,0.251,0.729,0.68,1.126,0.931
		c1.747,1.097,3.146,0.017,5.652,2.772l-0.055,0.983l0.617,1.111l-0.204,1.049c0.579,0.345,1.471,0.643,2.152,0.61
		c1.057,0.996,2.45,1.308,3.444,2.349c0.712,0.196,1.925-0.219,2.465-0.682l0.344,0.353c1.33,1.362,1.659,0.79,2.997,1.558
		c0.4,0.234,1.479,1.635,1.746,2.098c0.18,0.321,0.288,0.822,0.508,1.11c0.258,0.337,0.774,0.712,1.094,1.011h0.009
		c0.915-0.822,1.564-2.06,2.237-3.068c0.273-0.424,0.478-0.643,0.711-1.087c0.071-0.133,0.032-0.228,0.055-0.368
		c0.25-1.863-0.532-1.888-0.876-3.084c-0.008-0.039,0-0.947,0-1.048c0.619,0.296,1.745,0.248,2.364,0l1.08-1.052l1.229-0.06
		c1.196-1.152,2.598-1.145,3.7-2.341l0.307-1.173c0.666-0.069,1.721,0.28,2.207,0.744l2.363-0.252l1.182-0.861
		c-0.039-0.648,0.492-1.627,0.979-2.034c0.65-0.338,1.637-0.494,2.363-0.431l0.361-1.111c-0.369-0.808-1.463-2.551-2.365-2.888
		c-0.186-1.213,0.961-2.583,1.744-3.396c0.666-0.093,1.59,0.018,2.207,0.313c0.766-0.048,1.871-0.743,2.309-1.353
		c0.525,0.344,1.605,0.531,2.207,0.305c0.461-0.801,1.158-1.613,1.846-2.225l1.191-0.242l0.203-1.11l2.152-1.604
		c-0.047-0.688-0.07-1.408-0.156-2.091c-0.047-0.398-0.236-0.844-0.25-1.234c-0.039-0.845,0.383-1.606,0.922-2.216
		c1.246-1.418,2.803-1.667,4.572-1.11c0.752,0.242,1.549,0.688,2.314,0.86c1.121,0.258,1.588-0.524,2.457-0.86
		c0.064-0.023,2.146-0.549,2.217-0.557c1-0.125,3.646,1.095,4.508,1.542c0.797,0.407,1.26,1.063,2.215,1.292l1.182-0.558
		c0.313-0.829-0.047-2.486-0.361-3.263c0.635-1.119,1.668-2.175,2.568-3.082c0.844-0.322,2.84,0.524,3.543,0.929l1.285-0.68
		l0.047-1.111l-1.025-0.734l-0.102-1.174l2.355,0.313c1.369-1.581,3.076-3.059,4.758-4.288c0.063-0.994,0.234-2.145,0.195-3.131
		c-0.031-0.713-0.367-1.479-0.43-2.199c-0.063-0.774,0.17-1.698,0.055-2.464c-0.166-1.079-1.088-2.16-0.721-3.325
		c1.064,0.703,2.379,0.267,3.332,1.109c0.283,0.243,0.463,0.712,0.723,0.987c1.596,1.698,2.621,1.815,4.842,1.934
		c0.604,0.03,1.434,0,1.988-0.33c0.367-0.673,0.619-1.644,0.611-2.409l1.752-2.091c0-0.577,0.289-1.751,0.611-2.223
		c0.25-0.359,0.727-0.626,0.979-0.984c0.109-0.15,0.365-0.932,0.461-1.049c0.383-0.455,1.9-1.386,2.465-1.66
		c0.016-1.768,1.111-4.359,2.137-5.752c0.451-0.884,1.008-1.995,1.15-2.995l-0.822-1.23c0.047-2.731,0.432-2.841,1.541-5.243
		c0.393-0.854,0.549-1.597,1.338-2.223c0.783-0.618,1.322-0.484,2.051-1.659l0.156-0.986c-2.465-3.318,0.016-5.343-0.563-8.936
		c-0.143-0.846-0.525-1.494-0.775-2.277c-0.25-0.83-0.102-1.525-0.148-2.341c-0.078-1.214-0.674-5.986,0-6.901l2.457-0.313
		c1.049-1.275,0.916-3.888,1.441-5.422c0.117-0.345,1.346-1.339,1.541-2.216c0.25-1.142-0.031-2.402,0.664-3.451
		c0.494-0.736,1.184-1.072,1.441-2.035c-0.375-1.542-0.461-3.067-0.721-4.616c-0.115-0.666-0.398-1.37-0.461-2.034
		c-0.055-0.533,0.352-1.762,0.609-2.225l-0.203-0.984c-0.729,0.029-1.84-0.337-2.41-0.799l-0.768-2.161
		c-1.023-0.993-2.4-0.681-3.59-1.29l-0.057-1.05l0.775-1.111l1.172-0.241c0.801-1.018,1.998-1.854,3.242-2.225
		c0.564-0.962,1.158-2.276,1.838-3.137c0.393-0.485,1.449-0.463,1.855-1.729c2.02-0.08,4.516-0.086,6.314-1.168
		c0.375-0.594,0.729-1.4,0.822-2.098C245.301,179.363,244.504,178.463,243.752,177.963z"/>
</g>
<g id="Layer_3">
	
		<polygon fill="#00808E" stroke="#00808E" stroke-width="3" stroke-linecap="round" stroke-linejoin="round" stroke-miterlimit="10" points="
		245.631,167.515 245.631,180.994 228.689,170.686 	"/>
	
		<polygon fill="#00808E" stroke="#00808E" stroke-width="3" stroke-linecap="round" stroke-linejoin="round" stroke-miterlimit="10" points="
		53.811,288.441 53.811,301.43 68.397,307.727 74.147,295.394 	"/>
	
		<polygon fill="#00808E" stroke="#00808E" stroke-width="3" stroke-linecap="round" stroke-linejoin="round" stroke-miterlimit="10" points="
		53.147,286.811 42.532,290.715 42.532,277.715 	"/>
	
		<polygon fill="#00808E" stroke="#00808E" stroke-width="3" stroke-linecap="round" stroke-linejoin="round" stroke-miterlimit="10" points="
		25.481,253.117 25.481,266.311 38.397,260.811 	"/>
	
		<polygon fill="#00808E" stroke="#00808E" stroke-width="3" stroke-linecap="round" stroke-linejoin="round" stroke-miterlimit="10" points="
		25.172,233.338 25.172,246.81 40.647,243.56 	"/>
	
		<polygon fill="#00808E" stroke="#00808E" stroke-width="3" stroke-linecap="round" stroke-linejoin="round" stroke-miterlimit="10" points="
		53.564,244.894 43.564,247.727 39.231,254.477 52.564,254.894 	"/>
	
		<polygon fill="#00808E" stroke="#00808E" stroke-width="3" stroke-linecap="round" stroke-linejoin="round" stroke-miterlimit="10" points="
		33.352,213.906 33.352,227.548 53.981,216.143 	"/>
	
		<polygon fill="#00808E" stroke="#00808E" stroke-width="3" stroke-linecap="round" stroke-linejoin="round" stroke-miterlimit="10" points="
		41.727,174.06 41.727,189.939 53.647,183.643 	"/>
	
		<polygon fill="#00808E" stroke="#00808E" stroke-width="3" stroke-linecap="round" stroke-linejoin="round" stroke-miterlimit="10" points="
		107.424,163.303 107.424,176.639 131.814,166.977 	"/>
	
		<polygon fill="#00808E" stroke="#00808E" stroke-width="3" stroke-linecap="round" stroke-linejoin="round" stroke-miterlimit="10" points="
		29.587,78.801 29.587,116.693 46.397,101.31 	"/>
	
		<polygon fill="#00808E" stroke="#00808E" stroke-width="3" stroke-linecap="round" stroke-linejoin="round" stroke-miterlimit="10" points="
		142.393,27.612 142.393,48.394 137.064,36.894 	"/>
	
		<polygon fill="#00808E" stroke="#00808E" stroke-width="3" stroke-linecap="round" stroke-linejoin="round" stroke-miterlimit="10" points="
		202.67,82.431 202.67,103.477 189.48,86.894 	"/>
	
		<polygon fill="#00808E" stroke="#00808E" stroke-width="3" stroke-linecap="round" stroke-linejoin="round" stroke-miterlimit="10" points="
		192.512,129.904 192.512,142.581 184.564,134.706 	"/>
	
		<polygon fill="#00808E" stroke="#00808E" stroke-width="3" stroke-linecap="round" stroke-linejoin="round" stroke-miterlimit="10" points="
		189.844,120.097 189.844,129.904 181.314,122.769 	"/>
</g>
<g id="Layer_2">
	
		<path fill="#00A6AF" stroke="#00FFFF" stroke-width="2" stroke-linecap="round" stroke-linejoin="round" stroke-miterlimit="10" d="
		M243.752,164.963l-2.465,0.063c-1.316-0.297-2.051-1.949-2.881-2.842c-0.697-0.742-1.518-0.923-1.744-2.15l-1.072-0.555
		c-0.658,0.469-1.572,0.891-2.371,1.047l-5.486-2.465c-2.143,0.516-3.85-0.008-5.859,0.117c-0.744,0.055-1.355,0.689-2.457,0.556
		l-1.135-0.735c-0.164-1.174-1.432-2.535-2.365-3.209c-0.721-0.517-1.627-0.915-2.309-1.479c-0.711-0.58-1.4-1.424-2.051-2.09
		c-0.689,0.078-1.666-0.134-2.26-0.494l-1.434-2.275c-1.236-0.158-2.34-0.979-3.443-1.48c-0.805-0.368-1.668-0.618-2.465-0.994
		c-0.773-0.352-1.314-0.862-2.205-0.988c-0.393,0.642-1.48,1.464-2.264,1.48l-1.791,2.104c-0.854-0.016-2.715,0.29-3.342,0.978
		c-1.598-0.79-3.17-1.807-4.162-3.326l0.055-1.047l1.078-0.734l0.463-1.112l1.283-0.925c-0.063-0.188-0.768-2.159-0.775-2.214
		c-0.154-1.409,0.9-4.459,1.238-5.86c0.092-0.392,0.063-0.831,0.156-1.229c0.234-1.072,0.547-2.145,0.822-3.2l-1.033-2.286
		c-0.83,0.319-1.738,0.969-2.357,1.604c-1.213,0.085-1.484-0.642-2.307-0.923c-0.533-0.18-1.369-0.212-1.934-0.307
		c0.023-0.454,0.523-1.541,0.801-1.854c0.482-0.563,1.188-0.993,1.688-1.542c0.988-1.064,2.41-2.949,2.475-4.499l-0.18-0.775
		c-0.033-0.147,0-0.258-0.088-0.383c-0.242-0.375-0.445-0.532-0.734-0.868c-0.963-1.135-1.957-2.27-2.699-3.577
		c0.053-0.885,0.311-1.901,0.672-2.715c-0.273-0.681-0.508-1.432-0.83-2.089c-0.352-0.751-0.836-1.049-0.822-2.037
		c1.057-2.456,3.311-4.249,5.924-4.734c0.229-0.68,0.463-1.744,0.805-2.347c0.082-0.141,0.965-0.813,1.082-0.994
		c0.422-0.604,0.586-1.502,1.025-2.088c0.531-0.712,1.463-1.457,2.105-2.098l3.646-0.495l1.08-0.923
		c0.203-0.688,0.445-1.393,0.617-2.097c0.041-0.181,0.104-0.996,0.148-1.104c0.432-1.08,1.371-1.948,1.229-3.208
		c-0.281-2.598-0.955-2.824,0-5.603c-0.539-0.775-1.135-1.55-1.637-2.34c-0.422-0.666-0.75-1.706-1.439-2.159
		c-0.9-0.596-3.482-1.481-4.672-1.542c-0.383-0.023-0.799,0.093-1.18,0.061c-0.926-0.077-2.639-0.883-3.445-1.29
		c-0.047-0.11-0.453-0.995-0.461-1.047c-0.018-0.117,0.109-0.925,0.102-1.114c-0.031-1.243-0.705-3.654-1.691-4.437
		c-2.301-0.852-5.086-0.72-7.496-0.859c-1.049-0.064-1.877-0.917-2.809-1.253c-0.832-0.305-1.291-0.236-2.074-0.414
		c-1.143-0.266-2.496-1.425-2.818-2.592c-0.195-0.689-0.188-1.454-0.359-2.152c-0.424-1.644-1.049-2.658-0.932-4.5l-1.182-1.047
		c-0.203-2.763,0.119-5.62,0.258-8.382c0.104-1.987-1.361-4.475-3.545-4.5c-0.744,0.447-1.58,1.269-1.994,2.038l-1.293,0.062
		c-0.367-0.8-1.063-1.659-1.736-2.215l-2.361-0.125l-1.285-0.923l-1.182,0.369l-0.932,2.221c-1.291-0.25-3.404,0.142-4.508,0.862
		c-0.477,0.649-0.846,1.565-1.033,2.339c-0.634-0.281-2.817-1.337-3.287-1.845c-0.414-0.454-0.829-2.011-0.994-2.553
		c-0.186-0.602-0.461-1.345-0.906-1.823c-0.744-0.038-1.854,0.391-2.411,0.861l-2.364-1.11l-0.258-1.167l-1.182-0.681l-0.258-2.096
		c0.424-1.299,1.574-2.137,1.902-3.451l-0.305-1.103l0.719-1.114l-0.212-1.11c0.509-0.455,0.9-1.542,0.83-2.216l-1.291-0.743
		l-3.436,0.367c-0.477,0.478-0.908,1.489-0.922,2.161c-0.619,0.651-1.401,1.701-2.106,2.216c-1.784,1.321-3.919,2.458-5.805,3.637
		l-1.081-0.062l-0.563-2.216l-1.184-0.928c-0.688,0.126-1.658,0.083-2.306-0.181c-0.721-1.124-0.503-3.269-0.674-4.561l-0.328-1.535
		c-0.07-0.299-0.048-0.485-0.172-0.767l-1.354-2.161l-0.672-1.08c0.618-0.428,1.032-1.916,1.094-2.589l-1.651-1.033
		c0.017-1.121,0.188-2.512,0.063-3.605c0-0.043-0.557-1.114-0.61-1.217l-1.854-1.039c-1.001,0.884-2.864,1.808-4.21,1.94
		l-2.49-1.049c-0.235-1.535-0.28-3.438-0.094-4.972c0.022-0.146,0.415-0.954,0.415-1.038l-0.728-6.035L109.424,1
		c-1.33,0.86-2.458,1.667-2.701,1.871c-0.625,0.523-1.016,1.516-1.642,2.027c-0.416,0.337-2.849,1.164-2.905,1.212
		c-1.064,0.956-2.191,2.152-3.342,2.982c-0.665,0.485-1.65,0.697-2.355,1.133l-1.072,0.917c-1.298,1.101-2.581,2.122-4.131,2.863
		l-0.885,2.161c-0.445,1.072-4.35,3.788-5.328,5.705L83.7,22.377c-2.012,2.203-2.239,5.565-2.637,8.343
		c-0.14,0.963,1.285,2.647,1.848,3.477c0,0-0.541,1.447-0.813,1.647c-0.792,0.597-5.361,2.663-5.361,2.663
		c-1.261,0.875-2.379,2.081-3.602,3.02c-1.072,0.822-4.438,2.832-4.836,3.138c-1.322,1.01-2.637,2.544-3.326,4.055
		c-0.408,0.907-0.667,2.065-0.97,3.021c-0.213,0.656-0.76,3.833-1.035,4.686c-0.132,0.408-0.492,0.97-0.67,1.339
		c-2.224,4.453-6.496,7.026-9.845,10.565c-0.822,0.86-1.747,1.871-2.466,2.817c-0.891,1.173-1.478,2.815-2.8,3.615
		c-1.464,0.587-2.871-0.031-4.337-0.048c-0.062,0-2.354,0.259-2.417,0.275c-2.262,0.532-4.187,2.34-6.52,2.526
		c-0.546-0.17-1.228-0.47-1.792-0.57c-0.398-0.062-1.993,0.291-1.993,0.291l-0.541,1.564c1.064,2.441,1.675,4.977,2.299,7.55
		c0.125,0.525-0.883,2.372-0.963,2.914c-0.21,1.454,0.197,3.708,0.19,5.242c-0.007,0.656-0.344,3.45-0.344,3.45
		c-0.501,1.707-1.44,4.437-2.074,6.104c0.893-0.399,2.058-0.727,3.044-0.609c0.689,1.635-0.963,5.023-1.573,6.635
		c0.994,3.842-0.807,5.79-0.541,8.13c0.102,0.925,1.731,3.099,2.489,3.647c1.988,4.438-4.288,12.364-2.542,15.816
		c0.359,0.72,4.561,4.046,5.422,4.484c2.279,1.174,7.075,3.075,7.098,6.118l-0.705,0.916l-1.132-0.071
		c-2.883-3.082-13.352-4.985-15.027-9.046c-1.206-2.91-0.054-5.055,0.813-7.74c0.258-0.791,0.799-4.891,0.761-5.728
		c-0.049-1.167-0.602-2.2-0.872-3.318c-0.459-1.94-1.154-3.834-3.3-4.492c-0.863,1.886-5.879,2.864-7.755,2.668
		c-1.246-0.125-2.42-0.618-3.585-1.041c-1.472,0.689-3.834-0.665-5.313-1.041c-1.345-0.343-2.754-0.259-4.118-0.063
		c0.36,1.441,0.471,6.19,0.213,7.679c-0.155,0.899-0.508,1.8-0.322,2.73c0.15,0.767,0.613,1.423,0.871,2.153
		c0.633,1.823,1.353,5.54,0.596,7.348c1.75,1.824,0.663,4.671,1.783,6.77c0.538,0.993,1.516,1.619,2.229,2.472
		c0.673,0.806,1.105,1.815,1.951,2.473l0.219,1.174l0.539,0.453c1.109-0.374,2.09-1.063,3.201-1.432l1.087,0.455
		c0.023,0.773-0.296,1.799-0.867,2.339c1.167,0.907,2.699,0.806,4.084,0.517l-0.038-0.204l2.667-2.653l2.301,0.579l1.751-4.187
		l2.755-2.16l6.004,2.707l3.902,3.678l2.85,3.201l4.179,0.533l0.798,2.418l3.781-1.338l2.622,0.633h0.016
		c-0.164-0.695,0.75-2.198,1.19-2.691l1.277-0.062c1.799,0.485,2.431,2.917,3.912,3.882c0.711,0.469,1.648,0.766,2.411,1.174
		c0.688,0.367,1.439,1.08,2.307,0.984c0.306-0.037,0.462-0.125,0.751-0.21l1.511-0.408c0.594-0.258,1.479-1.103,2.364-1.479
		c1.235-0.517,2.575-0.838,3.693-1.604c0.375-1.057,0.134-2.293,0.157-3.389c0.017-0.729,0.032-1.683,0.157-2.402
		c0.062-0.353,0.369-0.752,0.46-1.103l1.355-5.125c0.204-0.032,2.41-0.353,2.474-0.377c0.743-0.312,2.637-1.901,3.012-2.739
		l1.384-0.101l4.094,6.371c0.899-0.667,1.776-2.13,2.189-3.14c-0.352-0.93-0.648-1.948-0.806-2.934
		c0.799-0.438,1.864-1.698,2.011-2.622l-0.039-1.479l-0.016-0.736c0.867-1.299,2.365-1.049,3.544-1.973l0.463-0.986l0.884-0.579
		c1.525-0.978,2.371,0.11,3.833,0.579c0.572,0.18,3.077,0.188,3.702,0.188c1.22-1.143,3.481-0.634,4.93-0.313
		c0.728,0.61,2.184,2.193,2.205,3.202c0.023,1.189-0.272,2.45-0.304,3.638c-0.04,1.19,0.062,2.441,0.101,3.638
		c0.924,1.597,2.309,1.996,2.067,4.085l-0.174,1.519c0.392,1.234,1.543,2.072,2.161,3.207c0.533,3.444-5.118,7.835-2.05,11.09
		l2.309-0.306c1.565-1.696,2.761-1.268,4.773-1.729c1.611-0.368,3.381-1.235,4.624-2.34c1.659,1.395,2.552,4.617,2.817,6.652
		l-0.868,0.984c-1.934,0.455-4.344,1.143-5.393,3.021c-0.172,0.32-0.195,0.783-0.359,1.112c-0.376,0.751-0.869,1.495-1.292,2.229
		l0.299,1.658l2.894,0.605v1.11c-0.696,0.603-2.316,2.245-2.512,3.209l-1.235,0.861l-1.229-0.307l-0.83,1.112l0.876,1.048
		l-3.287,2.951c-0.986,0.102-1.862-0.267-2.355-0.241c-0.728,0.021-1.59,0.248-2.317,0.366c-0.594,1.088-2.425,2.982-3.333,3.694
		c-0.869,0.68-2.7,1.597-3.797,2.026l-1.071-0.681c-0.142-0.867-0.728-2.481-1.448-3.068v-3.201
		c-1.236-0.219-1.869,0.627-2.363,0.674c-1.104,0.116-2.52-0.086-3.646-0.125c-1.824,1.385-3.93,1.963-5.91,3.021
		c-0.383,0.211-0.697,0.71-1.081,0.924c-0.962,0.555-2.457,0.468-3.436,0l-2.418,0.555l-2.365-0.924
		c-1.447,0.281-3.075,1.926-4.561,1.111c-0.836-1.854-3.965-9.501-5.038-10.658c-1.886-0.556-3.398,2.536-5.799,2.527
		c-1.042-0.792-2.004-1.871-2.826-2.873c1.063-0.994,1.589-2.512,1.08-3.912l-1.08-0.986c0.041-0.743,0.243-1.58,0.518-2.277
		c-0.071-0.517-0.659-1.84-1.026-2.16c-1.503-1.26-3.084-2.496-4.523-3.816c-0.353-0.322-0.587-0.832-0.924-1.168
		c-0.633-0.642-1.573-1.314-2.409-1.666l-0.314-1.238l-4.232,7.247l-1.417,3.85l-0.045,1.229l0.507,3.333l-0.047,2.215l2.362,2.593
		l2.311,1.479l1.08,0.117l0.712,1.234l0.053,2.215l-1.383,1.48l-0.049,1.236l0.409,0.986l0.1,1.166l-0.664,1.174l-1.183,0.367
		l-1.081,0.808l-0.822,2.214l-2.77,5.195c1.933,0.713,1.11,4.704,0.429,5.986c-0.545,1.028-1.581,1.677-2.387,2.474
		c-1.75,0.218-4.146,0.76-5.586,1.823l-0.486,1.36c1.567,2.545,6.474,0.759,8.626,0.658c0.493-0.03,0.978,0.116,1.463,0.187
		l0.813,0.783l0.266,1.175c0.603,0.415,1.058,1.174,1.197,1.887l-0.595,1.104l0.815,0.781c1.018-0.009,2.684,0.454,3.686,0.782
		c0.781,0.259,1.352,0.993,2.114,1.237c2.503,0.805,5.031-3.186,7.645-2.801l0.814,0.852l0.219,1.104
		c-0.51,0.546-0.908,1.228-1.089,1.956l0.384,1.039c1.574,0.628,3.451,2.553,3.85,4.227c-0.266,0.578-1.143,1.329-1.791,1.369
		c-2.819,0.163-3.811-3.278-5.808-4.297l-0.969,0.587l-0.604,1.166c-4.796,1.816-1.236,11.794-7.372,13.014
		c-3.255-1.617-1.269-5.281-1.299-6.955c-0.008-0.399-0.178-0.792-0.273-1.175l-1.081-0.392c-1.071,1.063-2.223,2.199-3.742,2.536
		c-1.407-0.729-1.299-1.628-2.228-2.536c-0.471-0.461-4.266-1.204-5.581-2.277c-2.526,0.354-2.121,2.23-3.584,2.669
		c-0.799-0.25-1.573-0.634-2.223-1.173l-1.133,0.327l-0.549,1.175c0.405,1.767,1.603,2.433,3.035,3.318
		c0.461,1.289,0.056,2.815-0.266,4.099l0.375,1.04l1.09,0.392c1.479-0.666,2.715-1.164,4.124-2.019
		c1.572,0.05,2.175,0.673,2.653,2.019c-1.33,4.117-4.913,2.756-7.589,4.813c-1.128,0.869-1.81,2.701-2.333,3.991
		c-0.375,0.932-1.023,1.864-0.704,2.902l0.978,0.66c0.697-0.339,1.474-0.465,2.171-0.783c1.322-0.618,2.572-2.036,4.171-1.565
		l0.602,0.916l0.053,1.298c-2.315,2.02-6.175,4.829-1.792,7.09l1.064-0.219c1.175-0.297,2.387-0.461,3.38-1.213
		c1.613-1.205,2.326-3.193,3.686-4.618c0.806-0.836,1.784-1.471,2.554-2.338c0.938-1.063,1.29-2.591,2.761-3.099
		c0.72-0.25,0.837-0.056,1.542,0.102c2.026,0.462,2.942-1.285,4.265-2.411l0.538,0.393c-0.117,1.876-0.398,3.207,0.165,5.077
		c1.392,0.307,2.839,0.021,4.233,0.321c3.608-1.315,3.733-3.583,8.076-4.162l0.11,0.978l-0.705,0.979
		c-0.047,2.48,1.252,3.695-0.109,5.985c-3.121,1.417-4.553-0.626-6.614,0.126c-1.508,0.555-2.198,2.41-3.475,2.933
		c-2.863,1.159-7.121-1.578-7.261,3.384c-0.023,0.813,0.306,1.588,0.268,2.409c-0.055,1.399-0.783,2.685-0.814,4.101l1.032,0.71
		c0.813-0.193,1.659-0.265,2.495-0.258l0.269,1.174l-1.465,1.887c-1.705,0.391-3.373,1.963-4.983,2.731l-0.219,1.235l0.595,0.908
		c1.353,0.57,2.864,0.524,4.232,1.041c1.989,0.751,2.333,1.908,4.744,2.035c4.295,0.228,3.372-4.359,5.72-5.744l0.595,0.916
		c-0.463,1.292-0.243,2.69-0.266,4.03l0.868,0.523c2.652,0.021,2.754-2.998,3.576-4.819c0.406-0.901,0.799-1.677,0.977-2.662
		c0.409-2.261-0.83-7.662,2.762-7.614l0.813,0.775c0.447,1.776-1.148,3.686-0.977,5.469c0.415,4.094,0.83,4.328,1.957,7.938
		c1.222,0.617,2.738,0.617,3.795,1.564c0.212,0.805,0.291,1.643,0.275,2.472l-0.494,0.783c-1.714,0.305-4.194-1.879-7.051-1.175
		l-0.429,1.112c0.696,0.344,1.336,0.829,1.838,1.432v1.299c-0.868,0.275-1.77,0.101-2.654,0.063
		c-0.875-0.039-1.643,0.195-2.495,0.259c-1.338,0.102-4.705-0.838-6.183-1.167l-1.088,0.391c0.08,0.87,0.587,2.53,1.252,3.124
		c1.465,1.315,6.019,4.414,6.886,5.915c0.784,1.371,1.137,2.605,2.443,3.718c1.025,0.862,3.788,2.355,5.203,3.32
		c0.438,1.821,2.253,3.739,4.28,3.315c0.769-0.163,1.315-0.789,2.068-0.978c0.891-0.227,1.808,0.109,2.707-0.064
		c0.76-0.146,1.37-0.663,2.113-0.844c2.52-0.618,2.787-0.688,4.344-2.865c-0.227-0.711-0.688-1.307-1.032-1.954
		c-0.886-1.667-1.323-4.461-0.22-6.12c0.423-0.627,1.095-1.049,1.628-1.558c0.86-0.18,1.729-0.265,2.606-0.258
		c1.751,2.411,5.032,0.251,6.126-1.627l1.244-0.195l0.979,0.648c0.211,3.889-5.877,5.813-8.78,4.298l-0.978,0.587
		c0.5,0.639,1.212,0.946,1.791,1.492c1.393,1.34-0.784,3.905,0.266,7.312l0.071-0.024l1.626-1.315
		c0.987,0.085,2.568,1.063,3.342,1.605c0.925,0.062,1.409-0.37,2.208-0.62c0.735-0.227,1.651-0.267,2.355-0.546l0.79-0.58
		c1.183-0.86,1.549-0.774,3.014-0.734l0.775,0.015l1.072-0.984c0.681-0.181,1.628-0.242,2.316-0.064l0.869-1.166
		c-0.369-0.493-0.72-1.539-0.565-2.16c0.751-0.916,2.402-1.846,3.443-2.337c0.924-0.096,2.559,0.617,3.334,1.049
		c1.088-0.47,2.489-0.629,3.646-0.744l1.026,1.174c0.681,0.038,1.644,0.329,2.214,0.672c0.399,0.251,0.729,0.68,1.126,0.931
		c1.747,1.097,3.146,0.017,5.652,2.772l-0.055,0.983l0.617,1.111l-0.204,1.049c0.579,0.345,1.471,0.643,2.152,0.61
		c1.057,0.996,2.45,1.308,3.444,2.349c0.712,0.196,1.925-0.219,2.465-0.682l0.344,0.353c1.33,1.362,1.659,0.79,2.997,1.558
		c0.4,0.234,1.479,1.635,1.746,2.098c0.18,0.321,0.288,0.822,0.508,1.11c0.258,0.337,0.774,0.712,1.094,1.011h0.009
		c0.915-0.822,1.564-2.06,2.237-3.068c0.273-0.424,0.478-0.643,0.711-1.087c0.071-0.133,0.032-0.228,0.055-0.368
		c0.25-1.863-0.532-1.888-0.876-3.084c-0.008-0.039,0-0.947,0-1.048c0.619,0.296,1.745,0.248,2.364,0l1.08-1.052l1.229-0.06
		c1.196-1.152,2.598-1.145,3.7-2.341l0.307-1.173c0.666-0.069,1.721,0.28,2.207,0.744l2.363-0.252l1.182-0.861
		c-0.039-0.648,0.492-1.627,0.979-2.034c0.65-0.338,1.637-0.494,2.363-0.431l0.361-1.111c-0.369-0.808-1.463-2.551-2.365-2.888
		c-0.186-1.213,0.961-2.583,1.744-3.396c0.666-0.093,1.59,0.018,2.207,0.313c0.766-0.048,1.871-0.743,2.309-1.353
		c0.525,0.344,1.605,0.531,2.207,0.305c0.461-0.801,1.158-1.613,1.846-2.225l1.191-0.242l0.203-1.11l2.152-1.604
		c-0.047-0.688-0.07-1.408-0.156-2.091c-0.047-0.398-0.236-0.844-0.25-1.234c-0.039-0.845,0.383-1.606,0.922-2.216
		c1.246-1.418,2.803-1.667,4.572-1.11c0.752,0.242,1.549,0.688,2.314,0.86c1.121,0.258,1.588-0.524,2.457-0.86
		c0.064-0.023,2.146-0.549,2.217-0.557c1-0.125,3.646,1.095,4.508,1.542c0.797,0.407,1.26,1.063,2.215,1.292l1.182-0.558
		c0.313-0.829-0.047-2.486-0.361-3.263c0.635-1.119,1.668-2.175,2.568-3.082c0.844-0.322,2.84,0.524,3.543,0.929l1.285-0.68
		l0.047-1.111l-1.025-0.734l-0.102-1.174l2.355,0.313c1.369-1.581,3.076-3.059,4.758-4.288c0.063-0.994,0.234-2.145,0.195-3.131
		c-0.031-0.713-0.367-1.479-0.43-2.199c-0.063-0.774,0.17-1.698,0.055-2.464c-0.166-1.079-1.088-2.16-0.721-3.325
		c1.064,0.703,2.379,0.267,3.332,1.109c0.283,0.243,0.463,0.712,0.723,0.987c1.596,1.698,2.621,1.815,4.842,1.934
		c0.604,0.03,1.434,0,1.988-0.33c0.367-0.673,0.619-1.644,0.611-2.409l1.752-2.091c0-0.577,0.289-1.751,0.611-2.223
		c0.25-0.359,0.727-0.626,0.979-0.984c0.109-0.15,0.365-0.932,0.461-1.049c0.383-0.455,1.9-1.386,2.465-1.66
		c0.016-1.768,1.111-4.359,2.137-5.752c0.451-0.884,1.008-1.995,1.15-2.995l-0.822-1.23c0.047-2.731,0.432-2.841,1.541-5.243
		c0.393-0.854,0.549-1.597,1.338-2.223c0.783-0.618,1.322-0.484,2.051-1.659l0.156-0.986c-2.465-3.318,0.016-5.343-0.563-8.936
		c-0.143-0.846-0.525-1.494-0.775-2.277c-0.25-0.83-0.102-1.525-0.148-2.341c-0.078-1.214-0.674-5.986,0-6.901l2.457-0.313
		c1.049-1.275,0.916-3.888,1.441-5.422c0.117-0.345,1.346-1.339,1.541-2.216c0.25-1.142-0.031-2.402,0.664-3.451
		c0.494-0.736,1.184-1.072,1.441-2.035c-0.375-1.542-0.461-3.067-0.721-4.616c-0.115-0.666-0.398-1.37-0.461-2.034
		c-0.055-0.533,0.352-1.762,0.609-2.225l-0.203-0.984c-0.729,0.029-1.84-0.337-2.41-0.799l-0.768-2.161
		c-1.023-0.993-2.4-0.681-3.59-1.29l-0.057-1.05l0.775-1.111l1.172-0.241c0.801-1.018,1.998-1.854,3.242-2.225
		c0.564-0.962,1.158-2.276,1.838-3.137c0.393-0.485,1.449-0.463,1.855-1.729c2.02-0.08,4.516-0.086,6.314-1.168
		c0.375-0.594,0.729-1.4,0.822-2.098C245.301,166.363,244.504,165.463,243.752,164.963z"/>
</g>
<g id="Layer_5">
	<g opacity="0.35">
		<path fill="#FFFFFF" d="M109.774,4h-2.73c-0.102,0.137-0.205,0.289-0.305,0.438c-0.278,0.414-0.594,0.883-1.024,1.233
			c-0.126,0.102-0.311,0.209-0.556,0.328h4.856L109.774,4z"/>
		<path fill="#FFFFFF" d="M109.754,8.076c0.004-0.026,0.011-0.051,0.016-0.076h-8.148c-0.708,0.672-1.438,1.352-2.201,1.903
			C99.368,9.941,99.309,9.965,99.254,10h10.39C109.653,9.328,109.682,8.669,109.754,8.076z"/>
		<path fill="#FFFFFF" d="M109.853,13.319c-0.064-0.421-0.114-0.865-0.15-1.319H95.939c-0.81,0.685-1.669,1.378-2.63,2h16.99
			C110.063,13.846,109.896,13.604,109.853,13.319z"/>
		<path fill="#FFFFFF" d="M117.634,13.476c-0.249,0.178-0.526,0.354-0.819,0.524h1.756L117.634,13.476z"/>
		<path fill="#FFFFFF" d="M118.995,16.892c0.017-0.298,0.031-0.597,0.041-0.892H91.54l-0.223,0.545
			c-0.175,0.421-0.573,0.878-1.166,1.455h28.796C118.956,17.646,118.973,17.276,118.995,16.892z"/>
		<path fill="#FFFFFF" d="M119.929,20.938c0.138-0.112,0.318-0.504,0.459-0.938H87.995c-0.732,0.687-1.439,1.401-1.844,2h33.389
			C119.441,21.607,119.579,21.181,119.929,20.938z"/>
		<path fill="#FFFFFF" d="M121.719,25.977c-0.029-0.123-0.047-0.245-0.064-0.362c-0.012-0.088-0.019-0.131-0.028-0.164L120.719,24
			H83.748c-0.361,0.608-0.627,1.287-0.835,2h38.812L121.719,25.977z"/>
		<path fill="#FFFFFF" d="M122.11,28.684c-0.008-0.237-0.016-0.466-0.028-0.684h-39.62c-0.107,0.634-0.193,1.27-0.275,1.884
			L82.171,30h40.019C122.15,29.557,122.125,29.111,122.11,28.684z"/>
		<path fill="#FFFFFF" d="M140.896,29.083c0.176-0.157,0.361-0.56,0.451-0.918L141.062,28h-1.126l-1.749,0.187
			c-0.23,0.361-0.436,0.908-0.442,1.231c-0.005,0.214-0.089,0.413-0.219,0.582h3.054C140.521,29.66,140.639,29.313,140.896,29.083z"
			/>
		<path fill="#FFFFFF" d="M140.319,33.141l-0.228-0.822c-0.029-0.105-0.024-0.212-0.019-0.319h-4.35
			c-0.164,0.154-0.329,0.299-0.496,0.421c-0.75,0.556-1.56,1.076-2.38,1.579h6.991C140.035,33.711,140.212,33.43,140.319,33.141z"/>
		<path fill="#FFFFFF" d="M83.33,33.064c0.157,0.215,0.298,0.409,0.409,0.571c0.076,0.111,0.121,0.236,0.146,0.364h42.533
			l-0.115-0.451l-0.585-0.459c-0.839,0.074-1.756-0.039-2.396-0.301c-0.191-0.078-0.353-0.212-0.464-0.386
			c-0.079-0.123-0.125-0.269-0.187-0.403H82.589C82.857,32.417,83.16,32.833,83.33,33.064z"/>
		<path fill="#FFFFFF" d="M138.466,36.729c-0.018-0.146-0.003-0.293,0.042-0.433c0.034-0.104,0.078-0.198,0.118-0.296h-9.101
			c-0.053,0.033-0.11,0.065-0.163,0.098c-0.175,0.11-0.384,0.16-0.587,0.151l-1.081-0.062c-0.191-0.011-0.364-0.083-0.513-0.188
			H83.206c-0.251,0.45-0.416,0.577-0.515,0.65c-0.382,0.288-1.421,0.822-2.508,1.35h58.44L138.466,36.729z"/>
		<path fill="#FFFFFF" d="M140.732,41.455c-0.281-0.132-0.484-0.386-0.552-0.689l-0.163-0.737L139.967,40H76.445
			c-0.353,0.294-0.707,0.604-1.07,0.93c-0.4,0.359-0.815,0.722-1.24,1.07h67.758L140.732,41.455z"/>
		<path fill="#FFFFFF" d="M147.098,45.854c-0.337-0.369-0.601-0.979-0.885-1.854h-75c-0.32,0.201-0.639,0.4-0.939,0.588
			c-0.583,0.364-1.244,0.777-1.368,0.871c-0.215,0.164-0.418,0.355-0.625,0.541h78.969C147.194,45.95,147.142,45.9,147.098,45.854z"
			/>
		<path fill="#FFFFFF" d="M168.979,44.146c-0.045-0.048-0.1-0.097-0.153-0.146h-1.791c-0.292,0.295-0.549,0.613-0.706,0.905
			c-0.166,0.309-0.48,0.508-0.832,0.524l-1.291,0.062c-0.406,0.018-0.787-0.211-0.957-0.582c-0.134-0.291-0.334-0.606-0.565-0.91
			h-5.015l-0.086,0.206c-0.182,0.437-0.643,0.69-1.111,0.595c-0.945-0.184-2.723,0.126-3.617,0.625
			c-0.11,0.168-0.214,0.367-0.313,0.574h17.366C169.765,45.318,169.438,44.635,168.979,44.146z"/>
		<path fill="#FFFFFF" d="M169.861,48.933c0.021-0.313,0.038-0.622,0.058-0.933h-18.696c-0.062,0.006-0.118,0.005-0.18,0H66.537
			c-0.255,0.38-0.483,0.761-0.654,1.135c-0.117,0.26-0.222,0.555-0.322,0.865h104.232C169.815,49.644,169.838,49.286,169.861,48.933
			z"/>
		<path fill="#FFFFFF" d="M169.691,52H64.969c-0.004,0.014-0.008,0.029-0.013,0.043C64.873,52.3,64.692,53.197,64.531,54h105.148
			C169.665,53.333,169.669,52.667,169.691,52z"/>
		<path fill="#FFFFFF" d="M170.898,56.76l-0.83-0.736c-0.008-0.007-0.011-0.017-0.019-0.024H64.11
			c-0.068,0.293-0.133,0.556-0.19,0.733c-0.116,0.36-0.327,0.741-0.513,1.077c-0.039,0.069-0.067,0.126-0.102,0.19h107.708
			C170.948,57.616,170.898,57.214,170.898,56.76z"/>
		<path fill="#FFFFFF" d="M172.014,61.952c-0.035-0.301-0.07-0.602-0.141-0.89c-0.099-0.38-0.212-0.724-0.323-1.062H62.128
			c-0.481,0.708-1.006,1.372-1.564,2h111.457C172.019,61.984,172.016,61.968,172.014,61.952z"/>
		<path fill="#FFFFFF" d="M172.565,64H58.606c-0.668,0.627-1.351,1.233-2.028,1.832c-0.062,0.055-0.125,0.113-0.188,0.168h118.13
			C173.706,65.51,172.993,64.783,172.565,64z"/>
		<path fill="#FFFFFF" d="M187.879,68.97c-1.604-0.55-3.514-0.611-5.361-0.669c-0.57-0.018-1.129-0.036-1.67-0.067
			c-0.366-0.022-0.693-0.116-1.003-0.233H54.219c-0.351,0.337-0.708,0.669-1.039,1.018c-0.334,0.349-0.632,0.671-0.914,0.982
			h136.212C188.295,69.563,188.088,69.187,187.879,68.97z"/>
		<path fill="#FFFFFF" d="M189,73.791c-0.025-0.183-0.008-0.348,0.045-0.799c0.021-0.175,0.045-0.354,0.047-0.449
			c-0.004-0.164-0.025-0.349-0.053-0.542H50.614c-0.189,0.275-0.374,0.571-0.565,0.891c-0.217,0.362-0.456,0.74-0.715,1.109h139.72
			C189.021,73.91,189.011,73.858,189,73.791z"/>
		<path fill="#FFFFFF" d="M195.025,76.919c-0.176,0.005-0.293,0.014-0.412,0.027c-0.271,0.031-0.539,0.054-0.801,0.032
			c-0.815-0.068-2.004-0.542-2.951-0.979H40.519c-0.79,0.202-1.616,0.626-2.489,1.08c-0.629,0.326-1.269,0.657-1.942,0.92H198.63
			C197.611,77.528,195.866,76.962,195.025,76.919z"/>
		<path fill="#FFFFFF" d="M201.624,82c-0.063-0.089-0.127-0.177-0.19-0.266c-0.377-0.521-0.752-1.045-1.09-1.575
			c-0.029-0.047-0.058-0.109-0.087-0.159H31.123c0.24,0.664,0.46,1.33,0.658,2H201.624z"/>
		<path fill="#FFFFFF" d="M201.553,86c-0.002-0.006-0.003-0.012-0.004-0.018c-0.146-0.708-0.244-1.288-0.204-1.982H32.333
			c0.172,0.67,0.337,1.338,0.498,2H201.553z"/>
		<path fill="#FFFFFF" d="M32.248,88.56c-0.123,0.291-0.309,0.731-0.338,0.864c-0.025,0.173-0.037,0.369-0.043,0.576h168.99
			c0.128-0.257,0.265-0.505,0.404-0.742c0.302-0.513,0.506-0.886,0.559-1.258H32.478C32.405,88.179,32.334,88.356,32.248,88.56z"/>
		<path fill="#FFFFFF" d="M198.927,94l0.396-0.054l0.637-0.543l0.117-0.385c0.105-0.337,0.201-0.677,0.296-1.018H31.958
			c0.011,0.127,0.021,0.254,0.031,0.38c0.049,0.573,0.086,1.109,0.106,1.62H198.927z"/>
		<path fill="#FFFFFF" d="M192.617,98c0.15-0.369,0.318-0.761,0.58-1.109c0.229-0.307,0.506-0.602,0.8-0.891H31.995
			c-0.086,0.846-0.191,1.729-0.223,2H192.617z"/>
		<path fill="#FFFFFF" d="M190.336,101.944c0.182-0.629,0.389-1.341,0.686-1.865c0.016-0.028,0.036-0.053,0.054-0.079H31.177
			c-0.215,0.659-0.444,1.336-0.675,2H190.32C190.325,101.981,190.331,101.963,190.336,101.944z"/>
		<path fill="#FFFFFF" d="M186.648,104H32.87c0.057,0.619-0.019,1.299-0.181,2h152.239C185.405,105.254,185.981,104.576,186.648,104
			z"/>
		<path fill="#FFFFFF" d="M31.457,109.558c-0.065,0.158-0.123,0.3-0.18,0.442h153.741c-0.074-0.137-0.149-0.259-0.221-0.369
			c-0.25-0.388-0.537-0.876-0.605-1.631H32.074C31.871,108.546,31.655,109.074,31.457,109.558z"/>
		<path fill="#FFFFFF" d="M31.331,114h153.858c0.077-0.656,0.241-1.351,0.47-2H31.456C31.484,112.732,31.429,113.396,31.331,114z"/>
		<path fill="#FFFFFF" d="M30.617,118h156.855c-0.538-0.638-1.072-1.294-1.56-2H30.882C30.702,116.72,30.566,117.368,30.617,118z"/>
		<path fill="#FFFFFF" d="M188.834,120.177L188.793,120H31.732c0.352,0.461,0.715,0.869,0.969,1.053
			c0.142,0.103,0.255,0.242,0.327,0.402c0.08,0.178,0.147,0.36,0.207,0.545h154.863C188.487,121.363,188.777,120.72,188.834,120.177
			z"/>
		<path fill="#FFFFFF" d="M12.719,122c-0.431-0.14-0.854-0.292-1.27-0.446l-0.159-0.058c-1.256,0.359-2.923-0.192-4.28-0.701
			c-0.475-0.178-0.924-0.346-1.277-0.436c-0.782-0.2-1.643-0.252-2.718-0.16c0.061,0.529,0.107,1.149,0.14,1.801H12.719z"/>
		<path fill="#FFFFFF" d="M22.981,120.032c-0.913,0.963-2.491,1.587-4.018,1.968h5.523
			C24.144,121.119,23.697,120.438,22.981,120.032z"/>
		<path fill="#FFFFFF" d="M184.932,125.477c0.301-0.35,0.652-0.64,0.994-0.921c0.231-0.191,0.445-0.373,0.625-0.556H33.508
			c-0.007,0.647-0.09,1.316-0.23,2H184.58C184.705,125.781,184.828,125.594,184.932,125.477z"/>
		<path fill="#FFFFFF" d="M3.17,126h22.539c-0.085-0.387-0.215-0.78-0.354-1.188c-0.092-0.269-0.18-0.54-0.261-0.813H3.211
			C3.216,124.729,3.201,125.415,3.17,126z"/>
		<path fill="#FFFFFF" d="M32.053,130H187.77c-0.323-0.139-0.578-0.315-0.789-0.465c-0.184-0.131-0.33-0.234-0.49-0.289
			c-0.248-0.084-0.689-0.133-1.08-0.177c-0.248-0.027-0.488-0.055-0.695-0.089c-0.479-0.08-0.821-0.497-0.826-0.979H32.744
			C32.534,128.664,32.298,129.333,32.053,130z"/>
		<path fill="#FFFFFF" d="M25.708,128H2.886c-0.133,0.579-0.244,1.082-0.153,1.541c0.029,0.149,0.085,0.303,0.147,0.459h22.576
			C25.552,129.331,25.643,128.611,25.708,128z"/>
		<path fill="#FFFFFF" d="M24.691,133.208c0.133-0.382,0.27-0.772,0.4-1.174c0.003-0.009,0.006-0.023,0.009-0.033H3.706
			c0.18,0.579,0.355,1.259,0.5,2h20.213C24.507,133.734,24.6,133.47,24.691,133.208z"/>
		<path fill="#FFFFFF" d="M98.957,133.703c0.659-0.469,1.518-0.707,2.558-0.707c1.051,0,2.128,0.238,2.915,0.413
			c0.157,0.035,0.329,0.112,0.452,0.216c0.006,0.005,0.169,0.144,0.41,0.375h85.28c0.019-0.115,0.032-0.232,0.041-0.353
			c0.02-0.262,0.043-0.524,0.104-0.773c0.063-0.289,0.136-0.581,0.209-0.874H31.314c-0.25,0.688-0.477,1.361-0.661,2h59.39
			c0.077-0.126,0.174-0.24,0.298-0.321l0.884-0.579c0.589-0.378,1.156-0.559,1.743-0.559c0.767,0,1.382,0.306,1.978,0.601
			c0.324,0.161,0.63,0.313,0.965,0.42C96.14,133.625,97.19,133.694,98.957,133.703z"/>
		<path fill="#FFFFFF" d="M23.741,138c-0.04-0.694,0.014-1.358,0.137-2H4.486c0.058,0.69,0.068,1.37,0.012,2H23.741z"/>
		<path fill="#FFFFFF" d="M31.24,138h54.654l-0.012-0.504c-0.004-0.205,0.055-0.406,0.168-0.576c0.268-0.401,0.58-0.694,0.908-0.919
			H30.269c-0.022,0.481,0.031,0.901,0.197,1.228C30.563,137.373,30.852,137.653,31.24,138z"/>
		<path fill="#FFFFFF" d="M189.528,138c0.14-0.662,0.323-1.349,0.506-2h-83.115c0.298,0.512,0.514,1.053,0.525,1.571
			c0.003,0.144-0.013,0.286-0.017,0.429H189.528z"/>
		<path fill="#FFFFFF" d="M189.866,142c-0.541-1.529-0.542-1.533-0.562-1.667c-0.012-0.104-0.011-0.22-0.014-0.333H107.25
			c-0.053,0.436-0.1,0.857-0.11,1.257c-0.008,0.242-0.001,0.494,0.001,0.743H189.866z"/>
		<path fill="#FFFFFF" d="M24.305,140.462c-0.065-0.158-0.104-0.308-0.157-0.462H4.869c0.259,0.652,0.373,1.333,0.437,2h20.025
			C24.887,141.524,24.533,141.016,24.305,140.462z"/>
		<path fill="#FFFFFF" d="M77.151,141.706c0.15-0.335,0.473-0.562,0.84-0.588l1.384-0.102c0.365-0.016,0.716,0.149,0.914,0.457
			L80.627,142h3.359c0.078-0.234,0.231-0.442,0.458-0.566c0.456-0.25,1.028-0.898,1.32-1.434h-52.1
			c0.792,0.615,1.496,1.126,1.784,1.273c0.286,0.147,0.605,0.303,0.951,0.471c0.169,0.083,0.344,0.168,0.523,0.256h40.03
			C77.042,141.888,77.115,141.785,77.151,141.706z"/>
		<path fill="#FFFFFF" d="M107.971,145.489c0.146,0.163,0.293,0.333,0.438,0.511H187.2l0.046-0.874
			c0.018-0.312,0.178-0.599,0.438-0.774L188.2,144h-80.995c0.009,0.19,0.018,0.381,0.025,0.569
			C107.454,144.91,107.707,145.192,107.971,145.489z"/>
		<path fill="#FFFFFF" d="M71.611,144.975c0.102-0.384,0.42-0.672,0.813-0.733l0.463-0.069c0.33-0.049,0.78-0.115,1.169-0.173
			H40.379c0.795,0.583,1.501,1.244,1.994,2H71.34L71.611,144.975z"/>
		<path fill="#FFFFFF" d="M27.292,144.92l2.396,1.08h2.465c-1.47-0.627-2.912-1.276-4.169-2H5.47
			c0.067,0.563,0.176,1.088,0.415,1.535c0.087,0.162,0.201,0.314,0.325,0.465h18.836l1.219-0.956
			C26.556,144.815,26.952,144.768,27.292,144.92z"/>
		<path fill="#FFFFFF" d="M84.231,146c0.158-0.265,0.302-0.534,0.422-0.79c-0.144-0.407-0.263-0.811-0.372-1.21h-2.369l1.285,2
			H84.231z"/>
		<path fill="#FFFFFF" d="M109.195,150h81.862c-0.876-0.486-1.855-1.131-2.708-2H109.3c0.039,0.321,0.048,0.669,0.002,1.069
			L109.195,150z"/>
		<path fill="#FFFFFF" d="M196.457,149.223c-0.195,0.228-0.482,0.343-0.781,0.352c0,0,0,0-0.002,0c-0.72,0-1.665,0.198-2.204,0.426
			h14.187l-0.406-0.646c-0.85-0.201-1.615-0.616-2.303-0.989c-0.239-0.129-0.475-0.249-0.711-0.366h-6.738L196.457,149.223z"/>
		<path fill="#FFFFFF" d="M8.742,148.87c0.282,0.425,0.554,0.824,0.876,1.13h12.583l0.836-2H8.123
			C8.349,148.288,8.551,148.583,8.742,148.87z"/>
		<path fill="#FFFFFF" d="M39.786,150c-0.095-0.051-0.186-0.109-0.26-0.189c-0.58-0.62-1.6-1.222-2.805-1.811h-2.949l2.122,2H39.786
			z"/>
		<path fill="#FFFFFF" d="M70.812,148H43.07c0.007,0.092,0.022,0.181,0.023,0.275c0.001,0.223-0.071,0.44-0.208,0.617l-0.705,0.916
			c-0.058,0.075-0.127,0.137-0.201,0.192h28.302L70.812,148z"/>
		<path fill="#FFFFFF" d="M111.174,153.203c0.055,0.101,0.092,0.211,0.11,0.324c0.024,0.157,0.028,0.315,0.034,0.473H212.88
			c-0.5-0.424-0.972-0.931-1.429-1.428c-0.104-0.113-0.207-0.227-0.309-0.337c-0.454-0.012-0.935-0.1-1.383-0.235h-99.432
			C110.63,152.37,110.93,152.753,111.174,153.203z"/>
		<path fill="#FFFFFF" d="M69.688,152h-31.76l1.784,2h12.361c0.035-0.006,0.066-0.023,0.101-0.025l1.277-0.063
			c0.104-0.004,0.208,0.006,0.309,0.033c0.054,0.015,0.102,0.038,0.155,0.055h15.694c0-0.052-0.005-0.107-0.004-0.158l0.003-0.113
			C69.62,153.201,69.636,152.584,69.688,152z"/>
		<path fill="#FFFFFF" d="M14.811,153.557c0.503,0.131,1.098,0.139,1.853,0.026c0.012-0.014,0.024-0.026,0.037-0.039L18.253,152
			h-3.041C15.172,152.489,15.043,153.042,14.811,153.557z"/>
		<path fill="#FFFFFF" d="M110.116,158h107.14c-0.154-0.612-0.776-1.404-1.438-2H110.991
			C110.766,156.671,110.454,157.339,110.116,158z"/>
		<path fill="#FFFFFF" d="M69.644,156H56.322c0.11,0.15,0.218,0.302,0.322,0.449c0.434,0.617,0.844,1.199,1.314,1.505
			c0.025,0.017,0.057,0.03,0.083,0.046h8.201c0.042-0.02,0.08-0.048,0.123-0.066c0.4-0.166,0.805-0.313,1.21-0.459
			c0.723-0.261,1.412-0.509,2.015-0.863C69.628,156.422,69.636,156.211,69.644,156z"/>
		<path fill="#FFFFFF" d="M50.407,156h-5.522l0.358,1.086l2.818-0.998c0.182-0.064,0.38-0.075,0.568-0.029l1.592,0.385
			C50.276,156.293,50.34,156.145,50.407,156z"/>
		<path fill="#FFFFFF" d="M108.39,162h5.19c0.042-0.005,0.083-0.011,0.125-0.016c0.44-0.054,0.896-0.109,1.399-0.225
			c1.307-0.299,2.671-0.961,3.721-1.76h-9.727C108.741,160.75,108.488,161.41,108.39,162z"/>
		<path fill="#FFFFFF" d="M122.33,162h114.332c-0.332-0.306-0.655-0.691-0.855-1.283l-0.162-0.085
			c-0.707,0.413-1.52,0.735-2.232,0.875c-0.205,0.038-0.414,0.015-0.602-0.069l-3.2-1.438H120.962
			C121.491,160.548,121.951,161.229,122.33,162z"/>
		<path fill="#FFFFFF" d="M47.294,164.696L46.533,166h2.701c-0.567-0.531-1.305-1.036-1.916-1.293
			C47.31,164.703,47.302,164.699,47.294,164.696z"/>
		<path fill="#FFFFFF" d="M123.614,166h117.449c-1.153-0.262-1.916-1.171-2.525-2H123.116
			C123.328,164.677,123.493,165.356,123.614,166z"/>
		<path fill="#FFFFFF" d="M123.262,168l-0.61,0.692c-0.137,0.155-0.319,0.265-0.521,0.313c-1.066,0.251-2.115,0.553-2.988,0.994
			h118.533c0.16-0.325,0.477-0.549,0.848-0.564l0.477-0.018c1.752-0.063,3.727-0.135,5.156-0.891c0.097-0.171,0.18-0.35,0.257-0.527
			H123.262z"/>
		<path fill="#FFFFFF" d="M53.466,170c-0.789-0.646-1.587-1.316-2.368-2h-5.733l-1.168,2H53.466z"/>
		<path fill="#FFFFFF" d="M117.045,172.611c-0.239,0.478-0.515,0.938-0.788,1.389h118.188c0.034-0.063,0.067-0.123,0.102-0.188
			c0.329-0.619,0.67-1.253,1.048-1.813H117.256C117.208,172.195,117.149,172.401,117.045,172.611z"/>
		<path fill="#FFFFFF" d="M42.735,173.84L42.729,174h12.453c0.083-0.491,0.195-0.99,0.364-1.471
			c-0.048-0.15-0.125-0.339-0.209-0.529H43.413L42.735,173.84z"/>
		<path fill="#FFFFFF" d="M119,178h110.073l0.562-0.805c0.146-0.211,0.367-0.356,0.619-0.408l0.828-0.171
			c0.19-0.217,0.397-0.421,0.613-0.616H118.796c0.157,0.178,0.254,0.406,0.254,0.658v1.11C119.05,177.85,119.019,177.923,119,178z"
			/>
		<path fill="#FFFFFF" d="M56.105,178c0.224-0.518,0.301-1.068,0.171-1.584L55.821,176H42.879l0.304,2H56.105z"/>
		<path fill="#FFFFFF" d="M62.557,182h2.134c-0.204-0.391-0.387-0.72-0.536-0.944C63.722,181.107,63.131,181.56,62.557,182z"/>
		<path fill="#FFFFFF" d="M56.702,182c-0.528-0.549-1.003-1.104-1.404-1.594c-0.1-0.122-0.156-0.262-0.19-0.406H43.166l-0.001,0.043
			L44.948,182H56.702z"/>
		<path fill="#FFFFFF" d="M116.519,181.177c-0.051,0.252-0.197,0.474-0.408,0.621L115.82,182h116.723l-0.07-0.197
			c-0.34-0.25-0.77-0.339-1.393-0.452c-0.553-0.101-1.18-0.215-1.801-0.532c-0.311-0.159-0.514-0.47-0.539-0.818H117.273
			C116.873,180.482,116.569,180.93,116.519,181.177z"/>
		<path fill="#FFFFFF" d="M48.775,184.109l0.712,1.235c0.083,0.146,0.129,0.309,0.133,0.476l0.004,0.18h16.944
			c-0.299-0.674-0.606-1.355-0.905-2H48.671C48.703,184.04,48.749,184.064,48.775,184.109z"/>
		<path fill="#FFFFFF" d="M233.465,184.155c-0.057-0.045-0.102-0.1-0.146-0.155H114.055c-0.053,0.161-0.131,0.315-0.267,0.437
			L112.047,186h123.274c0.095-0.326,0.203-0.645,0.312-0.902C234.84,184.944,234,184.59,233.465,184.155z"/>
		<path fill="#FFFFFF" d="M68.031,189.363c-0.164-0.381-0.364-0.849-0.587-1.363H49.672l0.001,0.035
			c0.006,0.262-0.09,0.516-0.269,0.706l-1.129,1.209L48.272,190h20.032C68.218,189.8,68.128,189.59,68.031,189.363z"/>
		<path fill="#FFFFFF" d="M94.88,189.515c-0.233-0.19-0.368-0.475-0.368-0.774V188h-6.195c-0.707,0.37-1.421,0.689-2.124,0.996
			c-0.741,0.322-1.441,0.627-2.129,0.995c-0.002,0.001-0.008,0.007-0.01,0.009h11.197C95.127,189.787,95,189.612,94.88,189.515z"/>
		<path fill="#FFFFFF" d="M235.572,189.586c-0.043-0.246-0.115-0.505-0.188-0.766c-0.072-0.266-0.14-0.54-0.196-0.82H105.545
			c-0.479,0.651-1.119,1.372-1.739,2h131.825C235.609,189.861,235.596,189.725,235.572,189.586z"/>
		<path fill="#FFFFFF" d="M101.301,192c-1,0.582-2.186,1.14-2.905,1.42c-0.297,0.116-0.632,0.084-0.901-0.087l-1.071-0.681
			c-0.231-0.147-0.385-0.385-0.438-0.652H70.617H48.674l0.072,0.843c0.017,0.2-0.027,0.401-0.126,0.577L48.292,194h187.939
			c0.002-0.005,0.007-0.009,0.009-0.014c-0.149-0.673-0.246-1.334-0.333-1.986H101.301z"/>
		<path fill="#FFFFFF" d="M44.938,197.838c-0.016,0.042-0.034,0.082-0.055,0.122L44.862,198h189.46c0.038-0.637,0.121-1.322,0.435-2
			H45.621L44.938,197.838z"/>
		<path fill="#FFFFFF" d="M42.729,202h189.809c0.047-0.196,0.085-0.401,0.147-0.584c0.107-0.317,0.342-0.578,0.666-0.939
			c0.112-0.125,0.265-0.299,0.409-0.477H43.796L42.729,202z"/>
		<path fill="#FFFFFF" d="M43.383,206h188.322c0.23-0.551,0.367-1.278,0.474-2H43.31C43.441,204.634,43.449,205.322,43.383,206z"/>
		<path fill="#FFFFFF" d="M42.989,208c-0.143,0.47-0.301,0.869-0.445,1.141c-0.17,0.32-0.38,0.598-0.602,0.859h186.48
			c-0.02-0.819,0.015-1.474,0.104-2H42.989z"/>
		<path fill="#FFFFFF" d="M228.531,212H39.774c-0.117,0.068-0.242,0.121-0.377,0.138c-2.024,0.252-3.814,0.796-4.877,1.472
			L34.38,214h7.292c0.033-0.002,0.075-0.01,0.107-0.012c0.051-0.003,0.117-0.005,0.182-0.005c0.077,0,0.147,0.012,0.222,0.017
			h186.518c-0.012-0.135-0.024-0.279-0.039-0.443C228.61,212.996,228.568,212.486,228.531,212z"/>
		<path fill="#FFFFFF" d="M228.93,217.021c-0.11-0.366-0.161-0.704-0.183-1.021H45.138l0.129,0.568
			c0.426,0.38,0.771,0.884,1.009,1.432h183.023c-0.012-0.028-0.02-0.053-0.031-0.081
			C229.148,217.628,229.029,217.334,228.93,217.021z"/>
		<path fill="#FFFFFF" d="M54.954,220.753c0.386-0.258,0.779-0.517,1.181-0.753h-9.285c1.135,0.175,2.358,0.548,2.932,0.735
			c0.544,0.18,0.969,0.492,1.345,0.768c0.276,0.203,0.538,0.396,0.764,0.468c0.057,0.018,0.118,0.021,0.177,0.029h0.45
			C53.25,221.886,54.105,221.319,54.954,220.753z"/>
		<path fill="#FFFFFF" d="M229.744,220H60.498l0.27,0.282c0.131,0.138,0.221,0.311,0.258,0.497l0.219,1.104
			c0.008,0.039,0.006,0.077,0.009,0.116h168.271C229.655,221.348,229.76,220.701,229.744,220z"/>
		<path fill="#FFFFFF" d="M60.228,224L60.228,224l0.124,0.337c0.729,0.369,1.498,0.962,2.176,1.663h166.711
			c-0.147-0.704-0.146-1.368-0.074-2H60.228z"/>
		<path fill="#FFFFFF" d="M63.972,228c0.175,0.354,0.324,0.711,0.409,1.068c0.052,0.218,0.029,0.446-0.064,0.649
			c-0.042,0.093-0.098,0.188-0.158,0.282h164.015c0.074-0.069,0.134-0.143,0.219-0.21c0.344-0.271,0.65-0.429,0.895-0.556
			c0.342-0.177,0.545-0.282,0.824-0.686l0.059-0.377c-0.039-0.059-0.063-0.114-0.1-0.172H63.972z"/>
		<path fill="#FFFFFF" d="M57.058,228.918c-0.27-0.328-0.533-0.642-0.796-0.918h-0.834l-0.303,0.585
			c-0.113,0.219-0.304,0.388-0.534,0.476c-0.494,0.188-0.864,0.519-1.165,0.939h4.58C57.662,229.643,57.348,229.27,57.058,228.918z"
			/>
		<path fill="#FFFFFF" d="M36.1,232.862c-0.816-0.257-1.681-0.538-2.458-0.862h-2.179c-0.118,0.142-0.229,0.296-0.347,0.475
			c-0.354,0.536-0.793,1.205-1.752,1.492c-0.076,0.022-0.154,0.029-0.232,0.033h8.908c-0.131-0.221-0.262-0.427-0.451-0.622
			C37.362,233.261,36.637,233.032,36.1,232.862z"/>
		<path fill="#FFFFFF" d="M52.206,234H225.98c0.068-0.14,0.138-0.282,0.215-0.437c0.164-0.331,0.354-0.713,0.572-1.187
			c0.059-0.128,0.109-0.253,0.161-0.377H52.596C52.443,232.615,52.322,233.29,52.206,234z"/>
		<path fill="#FFFFFF" d="M29.015,234c-0.08-0.005-0.159-0.013-0.236-0.037c-0.794-0.248-1.508-0.593-2.129-1.027l-0.214,0.063
			l-0.201,0.43c0.071,0.215,0.169,0.397,0.278,0.572H29.015z"/>
		<path fill="#FFFFFF" d="M29.149,236.319c0.197,0.55,0.269,1.116,0.266,1.681h14.584c0.008-0.709,0.126-1.398,0.25-2h-3.1
			c-0.151,0.048-0.303,0.095-0.462,0.13c-0.229,0.051-0.469,0.02-0.676-0.089c-0.026-0.014-0.046-0.027-0.071-0.041H28.954
			C29.037,236.095,29.106,236.2,29.149,236.319z"/>
		<path fill="#FFFFFF" d="M51.357,238h173.779c0.015-0.852,0.067-1.479,0.157-2H51.863C51.732,236.673,51.574,237.351,51.357,238z"
			/>
		<path fill="#FFFFFF" d="M47.52,242h177.259c0.058-0.086,0.115-0.18,0.173-0.26c0.248-0.486,0.565-1.121,0.784-1.74H50.376
			C49.731,240.917,48.824,241.637,47.52,242z"/>
		<path fill="#FFFFFF" d="M37.151,242h9.209c-1.038-0.531-1.646-1.232-1.984-2h-8.384c0.564,0.497,0.888,1.161,1.133,1.853
			C37.142,241.9,37.142,241.951,37.151,242z"/>
		<path fill="#FFFFFF" d="M34.063,246h188.919c0.18-0.672,0.43-1.352,0.715-2H36.447C35.798,245.035,34.956,245.616,34.063,246z"/>
		<path fill="#FFFFFF" d="M46.569,249.047c0.104,0.031,0.223,0.067,0.375,0.101c0.938,0.213,1.463-0.258,2.325-1.147h-20.29
			c-0.482,0.482-0.886,1.241-1.223,2h15.67c0.373-0.381,0.83-0.715,1.432-0.923C45.602,248.817,46.152,248.922,46.569,249.047z"/>
		<path fill="#FFFFFF" d="M52.527,248.168c-0.023,0.364-0.052,0.709-0.08,1.041c-0.023,0.274-0.044,0.536-0.061,0.791h7.163
			c1.004-0.725,2.238-1.371,4.322-1.649c0.268-0.037,0.536,0.038,0.748,0.203s0.348,0.409,0.378,0.676L65.084,250h154.897
			c0.021-0.056,0.044-0.117,0.069-0.182c0.156-0.399,0.238-0.599,0.377-0.77c0.263-0.313,0.782-0.699,1.312-1.049H52.516
			C52.522,248.056,52.53,248.111,52.527,248.168z"/>
		<path fill="#FFFFFF" d="M34.313,252.572c0.1,0.151,0.156,0.327,0.164,0.508l0.038,0.92h5.458c0.145-0.125,0.291-0.252,0.435-0.372
			c0.462-0.389,0.899-0.756,1.268-1.171c0.122-0.138,0.234-0.293,0.344-0.457h-8.082L34.313,252.572z"/>
		<path fill="#FFFFFF" d="M26.904,252.005c-0.256,0.551-0.428,0.952-0.433,1.3l0.174,0.118c0.247-0.091,0.49-0.166,0.729-0.239
			c0.33-0.102,0.641-0.197,0.915-0.322c0.307-0.144,0.642-0.361,0.996-0.593c0.137-0.089,0.277-0.179,0.42-0.269h-2.799
			C26.906,252.002,26.905,252.003,26.904,252.005z"/>
		<path fill="#FFFFFF" d="M64.67,253.377c0.044,0.206,0.086,0.413,0.125,0.623h140.45c0.096-0.086,0.2-0.165,0.324-0.209
			c0.295-0.106,0.623-0.065,0.887,0.107c0.072,0.048,0.167,0.067,0.249,0.102h11.088l0.384-0.458
			c0.052-0.47,0.188-1.038,0.366-1.542H64.45C64.496,252.486,64.577,252.942,64.67,253.377z"/>
		<path fill="#FFFFFF" d="M55.836,252.469c0.366-0.146,0.681-0.305,0.976-0.469h-4.356c0.016,0.1,0.022,0.195,0.044,0.298
			c0.424,0.042,0.868,0.045,1.33,0.048C54.479,252.35,55.148,252.354,55.836,252.469z"/>
		<path fill="#FFFFFF" d="M31.24,258h5.552c0.26-0.351,0.509-0.721,0.761-1.104c0.195-0.297,0.398-0.598,0.607-0.896h-4.934
			C32.527,256.605,31.739,257.324,31.24,258z"/>
		<path fill="#FFFFFF" d="M205.318,257.255c-0.153-0.376-0.324-0.797-0.421-1.255H64.852c-0.097,0.55-0.304,1.14-0.693,1.794
			c-0.046,0.077-0.105,0.145-0.169,0.206h141.59C205.519,257.771,205.428,257.523,205.318,257.255z"/>
		<path fill="#FFFFFF" d="M210.689,256.146c1.324,1.409,2.006,1.505,4.166,1.619c0.092,0.005,0.193,0.008,0.299,0.008
			c0.432,0,0.717-0.051,0.896-0.104c0.215-0.505,0.355-1.146,0.352-1.633c0-0.012,0.006-0.023,0.006-0.035h-5.824
			C210.624,256.062,210.662,256.117,210.689,256.146z"/>
		<path fill="#FFFFFF" d="M31.896,260.455l0.706-0.145c0.176-0.046,0.396-0.097,0.617-0.147c0.23-0.053,0.456-0.106,0.677-0.163
			h-2.639C31.45,260.167,31.669,260.323,31.896,260.455z"/>
		<path fill="#FFFFFF" d="M49.996,261.629c-0.339-0.017-0.673-0.032-0.994-0.032c-0.694,0-1.218,0.042-1.566,0.403H205.86
			c-0.017-0.063-0.029-0.121-0.046-0.186c-0.1-0.384-0.203-0.782-0.238-1.205c-0.018-0.205-0.016-0.408-0.009-0.609H55.214
			c-0.458,0.511-0.957,0.994-1.625,1.268c-0.88,0.356-1.811,0.397-2.434,0.397C50.769,261.665,50.379,261.646,49.996,261.629z"/>
		<path fill="#FFFFFF" d="M47.067,264.717c0.072,0.385,0.141,0.819,0.141,1.283h17.023c0.557-0.437,1.241-0.671,2.057-0.671
			c0.257,0,0.551,0.099,0.737,0.276L67.439,266h137.539c0.284-0.228,0.568-0.456,0.865-0.679c0.016-0.19,0.033-0.384,0.053-0.579
			c0.023-0.247,0.043-0.495,0.063-0.742H46.966C46.983,264.227,47.02,264.463,47.067,264.717z"/>
		<path fill="#FFFFFF" d="M67.765,270h130.94l-0.008-0.085c-0.027-0.303,0.086-0.601,0.305-0.81s0.521-0.309,0.822-0.269l1.83,0.242
			c0.327-0.359,0.682-0.72,1.051-1.079H68.216C68.177,268.697,67.98,269.37,67.765,270z"/>
		<path fill="#FFFFFF" d="M62.984,268H46.89c-0.038,0.139-0.077,0.276-0.116,0.413c-0.131,0.459-0.258,0.899-0.324,1.329
			l0.198,0.136c0.675-0.127,1.404-0.19,2.173-0.19h0.117c0.275,0.002,0.519,0.125,0.7,0.313h13.063
			C62.737,269.307,62.813,268.624,62.984,268z"/>
		<path fill="#FFFFFF" d="M67.167,272.478c0.06,0.591,0.119,1.079,0.18,1.522h125.979c0.592-0.756,1.25-1.44,1.806-2H67.178
			C67.158,272.166,67.153,272.325,67.167,272.478z"/>
		<path fill="#FFFFFF" d="M48.804,274h13.729c0.018-0.078,0.041-0.153,0.056-0.234c0.078-0.434,0.084-1.075,0.083-1.766H50.175
			c-0.024,0.171-0.079,0.335-0.187,0.475L48.804,274z"/>
		<path fill="#FFFFFF" d="M68.346,277.982c0.002,0.006,0.004,0.012,0.006,0.018h104.925c0.084-0.109,0.154-0.222,0.249-0.329
			c0.849-0.967,1.874-1.521,3.04-1.671H67.725C67.89,276.646,68.087,277.229,68.346,277.982z"/>
		<path fill="#FFFFFF" d="M179.146,276.27c0.344,0.111,0.691,0.257,1.041,0.405c0.428,0.182,0.83,0.353,1.191,0.434
			c0.354,0.082,0.506-0.024,0.936-0.304c0.264-0.172,0.563-0.366,0.943-0.514c0.053-0.021,0.562-0.153,1.104-0.291h-6.515
			C178.267,276.048,178.697,276.128,179.146,276.27z"/>
		<path fill="#FFFFFF" d="M56.292,276H45.465c-0.087,0.058-0.175,0.113-0.262,0.171c-0.507,0.335-1.026,0.68-1.554,0.97
			l-0.063,0.358l0.201,0.307c0.23,0.08,0.472,0.139,0.719,0.194h10.708C55.493,277.321,55.808,276.606,56.292,276z"/>
		<path fill="#FFFFFF" d="M192.442,276h-4.767c1.499,0.483,3.104,1.31,3.127,1.321c0.379,0.193,0.688,0.427,0.961,0.633
			c0.022,0.017,0.041,0.029,0.063,0.046h1.022c-0.02-0.578-0.169-1.374-0.398-1.945C192.444,276.037,192.448,276.018,192.442,276z"
			/>
		<path fill="#FFFFFF" d="M172.514,281.486c-0.07-0.269-0.15-0.573-0.162-0.9c-0.009-0.194,0.014-0.391,0.039-0.586H69.66
			c0.094,0.027,0.177,0.059,0.273,0.085c0.864,0.242,1.844,0.516,2.658,1.246c0.146,0.13,0.25,0.301,0.3,0.489
			c0.015,0.058,0.019,0.121,0.033,0.18h99.692c-0.003-0.03-0.003-0.062-0.007-0.092
			C172.592,281.769,172.553,281.628,172.514,281.486z"/>
		<path fill="#FFFFFF" d="M52.155,280.7c0.989,0.056,1.571-0.19,2.015-0.7h-4.172C50.586,280.38,51.122,280.646,52.155,280.7z"/>
		<path fill="#FFFFFF" d="M73.199,284.565c-0.003,0.183-0.057,0.36-0.154,0.515l-0.494,0.783c-0.035,0.055-0.089,0.09-0.132,0.137
			h97.255c0.104-0.068,0.216-0.123,0.339-0.147l0.529-0.107l0.08-0.445c0.047-0.249,0.184-0.471,0.387-0.622l0.909-0.678H73.173
			C73.179,284.189,73.202,284.371,73.199,284.565z"/>
		<path fill="#FFFFFF" d="M66.365,288.951c-0.692,0.219-1.544,0.216-2.417,0.147c-0.194-0.016-0.389-0.03-0.583-0.039l-0.155-0.003
			c-0.382,0-0.768,0.061-1.175,0.125c-0.343,0.055-0.688,0.108-1.047,0.135c-1.154,0.088-3.495-0.466-5.32-0.913
			c-0.321-0.078-0.617-0.15-0.875-0.211l-0.014,0.005c0.189,0.724,0.522,1.492,0.782,1.724c0.026,0.023,0.064,0.055,0.093,0.079
			h37.683c0.15-0.16,0.334-0.285,0.556-0.32l1.244-0.195c0.249-0.037,0.5,0.018,0.708,0.154L96.389,290h63.75
			c0.232-0.294,0.487-0.593,0.785-0.902c0.154-0.161,0.359-0.267,0.582-0.297c0.766-0.106,1.742,0.001,2.469,0.271
			c0.449-0.124,1.119-0.554,1.371-0.903c0.05-0.069,0.117-0.116,0.18-0.169H67.063C67.062,288.435,66.78,288.819,66.365,288.951z"/>
		<path fill="#FFFFFF" d="M60.684,294h21.938c0.075-0.149,0.139-0.306,0.231-0.443c0.368-0.545,0.845-0.94,1.265-1.289
			c0.106-0.088,0.207-0.179,0.309-0.268H58.19C59.145,292.737,59.987,293.402,60.684,294z"/>
		<path fill="#FFFFFF" d="M97.223,292c-0.11,0.713-0.413,1.384-0.86,2h62.956c-0.216-0.154-0.365-0.391-0.408-0.66
			c-0.065-0.429-0.023-0.875,0.112-1.34H97.223z"/>
		<path fill="#FFFFFF" d="M91.19,292h-2.203c0.267,0.247,0.574,0.364,0.942,0.364C90.329,292.364,90.765,292.221,91.19,292z"/>
		<path fill="#FFFFFF" d="M89.904,296.937c-0.27,0-0.534-0.013-0.791-0.04c0.311,0.34,0.482,0.713,0.577,1.104h15.782
			c0-0.003,0-0.005,0.001-0.008c0.036-0.144,0.103-0.277,0.197-0.392c0.489-0.596,1.237-1.15,1.953-1.601H93.896
			C92.694,296.59,91.287,296.937,89.904,296.937z"/>
		<path fill="#FFFFFF" d="M82.075,296H62.591c0.017,0.026,0.041,0.056,0.056,0.082c0.218,0.381,0.402,0.747,0.582,1.104
			c0.146,0.29,0.285,0.557,0.428,0.813H82.15C82.045,297.336,82.017,296.657,82.075,296z"/>
		<path fill="#FFFFFF" d="M118.019,296l0.371,0.425c0.765,0.116,1.645,0.412,2.233,0.766c0.298,0.188,0.529,0.403,0.733,0.594
			c0.084,0.078,0.164,0.151,0.24,0.216h36.423c0.248-0.466,0.561-0.882,0.878-1.148c0.055-0.047,0.117-0.088,0.182-0.122
			c0.572-0.297,1.334-0.493,2.098-0.544l0.01-0.031c-0.027-0.051-0.059-0.103-0.088-0.154H118.019z"/>
		<path fill="#FFFFFF" d="M83.024,300.7c-0.116-0.219-0.221-0.456-0.32-0.7H65.503c0.626,0.424,1.479,0.938,2.263,1.408
			c0.338,0.203,0.665,0.4,0.979,0.592h15.029c-0.106-0.204-0.228-0.411-0.358-0.625C83.28,301.152,83.146,300.929,83.024,300.7z"/>
		<path fill="#FFFFFF" d="M127.625,301.078c0.181,0.198,0.273,0.461,0.259,0.729L127.873,302h21.338
			c0.342-0.196,0.68-0.355,0.996-0.5c0.53-0.242,0.997-0.455,1.396-0.821l0.178-0.679h-25.302
			C126.843,300.29,127.223,300.636,127.625,301.078z"/>
		<path fill="#FFFFFF" d="M89.654,300c-0.032,0.18-0.065,0.359-0.1,0.538c-0.089,0.462-0.179,0.951-0.232,1.462h9.885
			c0.587-0.309,1.113-0.429,1.84-0.429c0.191,0,0.402,0.007,0.644,0.015l0.68,0.016l0.777-0.713c0.119-0.109,0.263-0.188,0.42-0.23
			c0.656-0.175,1.459-0.242,2.133-0.182l0.12-0.161c-0.044-0.098-0.081-0.209-0.121-0.315H89.654z"/>
		<path fill="#FFFFFF" d="M143.168,305.97c-0.044-0.197-0.046-0.205-0.04-1.168l0.001-0.156c0-0.241,0.091-0.467,0.243-0.646H128.43
			c-0.002,0.012,0.002,0.024,0,0.036l-0.055,0.283c0.348,0.122,0.702,0.191,0.966,0.187c0.26,0,0.555,0.096,0.741,0.271
			c0.413,0.389,0.922,0.669,1.461,0.965c0.153,0.084,0.308,0.17,0.462,0.258h11.173C143.176,305.989,143.172,305.98,143.168,305.97z
			"/>
		<path fill="#FFFFFF" d="M73.503,305.957c0.224-0.048,0.468-0.197,0.75-0.371c0.359-0.22,0.765-0.47,1.28-0.598
			c0.5-0.128,1.119-0.122,1.735-0.074c0.343,0.026,0.686,0.063,1.024-0.002c0.265-0.052,0.539-0.188,0.857-0.348
			c0.35-0.175,0.747-0.374,1.209-0.486c0.117-0.029,0.208-0.052,0.314-0.078H70.621C71.153,305.167,72.336,306.204,73.503,305.957z"
			/>
		<path fill="#FFFFFF" d="M139.143,308.215c0.475,0.278,1.177,1.143,1.648,1.785h2.411c0.068-0.107,0.137-0.22,0.206-0.322
			c0.102-0.158,0.202-0.299,0.296-0.432c0.102-0.144,0.197-0.274,0.296-0.446c0.003-0.062,0.009-0.122,0.02-0.187
			c0.034-0.259,0.043-0.451,0.033-0.613h-5.324C138.858,308.062,138.995,308.13,139.143,308.215z"/>
	</g>
</g>
</svg>
