<?xml version="1.0" encoding="utf-8"?>
<!-- Generator: Adobe Illustrator 16.0.0, SVG Export Plug-In . SVG Version: 6.00 Build 0)  -->
<!DOCTYPE svg PUBLIC "-//W3C//DTD SVG 1.1//EN" "http://www.w3.org/Graphics/SVG/1.1/DTD/svg11.dtd">
<svg version="1.1" xmlns="http://www.w3.org/2000/svg" xmlns:xlink="http://www.w3.org/1999/xlink" x="0px" y="0px" width="414px"
	 height="364px" viewBox="0 0 414 364" enable-background="new 0 0 414 364" xml:space="preserve">
<g id="Layer_1">
	
		<path fill="#00808E" stroke="#00808E" stroke-width="3" stroke-linecap="round" stroke-linejoin="round" stroke-miterlimit="10" d="
		M283.618,354.928c-0.633-0.334-1.268-0.721-1.923-1.021c-0.702-0.326-1.623-0.525-2.278-0.912
		c-0.508-0.303-1.396-1.543-1.575-2.127l-1.265-0.363c-0.604,0.469-1.474,0.932-2.232,1.094l-1.067-0.428
		c-3.536,1.584-4.708-1.426-6.785-1.826c-0.634,0.35-1.606,0.561-2.333,0.486c-1.227-0.553-2.416-1.455-3.137-2.605l-1.109-0.365
		l-1.175,0.365c-0.802-0.857-0.64-1.502-1.056-2.26c-0.828-1.453-2.527-2.461-4.108-2.795c-1.175,0.629-1.212,1.236-1.932,1.885
		c-1.39,1.258-3.921,0.805-5.572,0.547l-1.216,0.734l-1.109-0.371l-1.167,0.486l-1.412-0.666v-1.094
		c-0.463-1.059-3.304-2.732-4.262-3.219l0.812-2.195c-0.426-1.684-2.24-2.924-3.846-3.342c-1.02,0.463-2.434,0.615-3.453,0.063
		l-1.164,0.672c-0.48-0.529-1.646-1.113-2.379-0.977c-0.749,0.387-1.553,0.891-2.333,1.213c-0.164,0.068-0.927,0.119-1.065,0.188
		c-0.883,0.41-1.174,1.143-2.431,1.088c-0.66,0.436-1.483,1.33-1.776,2.072l-1.159,0.061l-0.914-1.16l-2.378-0.545
		c-0.686-0.924-1.495-2.061-1.876-3.158c0.35-0.992,1.16-2.516,2.023-3.158l2.281,0.059l1.218-0.855
		c-0.116-0.742,0.455-1.908,1.012-2.371l1.064-0.18c0.641-0.623,1.368-1.486,2.075-2.01c0.023-0.021,1.06-0.332,1.159-0.369
		l0.764-1.092c-0.14-0.635-0.007-1.666,0.303-2.25c-0.926-0.434-1.624-1.236-2.278-1.576c-1.151-0.598-2.663,0.168-3.397,1.092
		c-0.477-0.078-1.726-0.061-2.176,0.121c-0.354,0.158-0.693,0.598-1.058,0.734c-0.688,0.258-1.605,0.371-2.334,0.537
		c-1.071-0.35-3.063-3.113-3.644-4.006l-3.449,0.066c-1.198-0.643-1.206-1.703-1.624-2.076c-0.934-0.832-2.301-1.59-3.344-2.303
		c-0.123,0.023-1.227,0.213-1.265,0.236c-1.144,0.621-3.567,2.219-4.409,3.281c-0.045,1.498-0.928,3.332-2.533,3.656
		c-1.33-0.045-3.754-2.148-4.402-3.287l-2.438-0.061c-0.077,0.621,0.037,1.426,0.244,2c-0.146,0.961-2.771,3.273-3.688,3.713
		c-0.704,0.332-1.523,0.484-2.232,0.789c-0.771,0.348-1.537,0.93-2.332,1.219c-0.713,0.258-1.592,0.273-2.334,0.494
		c-0.424,0.119-0.834,0.406-1.258,0.545c-0.842,0.264-2.711,0.854-3.553,0.361c-0.731-0.658-1.705-2.113-1.567-3.166
		c0.087-0.635,0.495-1.311,0.556-1.947l-0.17-0.771c-0.402-1.82-1.443-2.092-2.508-3.416c-0.766-0.963-0.439-2.137-0.818-3.23
		l-2.377-1.275c-0.773,0.301-2.697-0.502-3.346-0.852c-1.258,0.258-2.307,0.979-3.496,1.402c-1.076,0.379-2.534,0.432-3.5,1.098
		c-0.386,0.266-0.67,0.818-1.057,1.084c-0.316,0.227-0.855,0.266-1.166,0.49c-0.596,0.426-1.128,1.381-1.318,2.068
		c-0.42,1.518,0.545,2.926,0.909,4.379c0.208,0.826-0.186,1.486-0.201,2.244c-0.016,0.811,0.587,1.471,0.765,2.195v1.031
		c-0.125,0.432-1.282,3-1.629,3.348c-0.03,0.029-1.05,0.6-1.158,0.66l-1.122-0.365l-1.163,0.615l-1.015,2.061l-1.057,0.121
		c-1.175-1.357-2.765-2.07-4.564-1.879c-0.47,0.598-1.39,1.342-2.129,1.582l-1.113-0.613l-1.011,1.098
		c-1.25,0.656-2.323-0.068-3.553,0.305c-1.743,0.529-2.462,1.166-4.553,1.342c-0.974,0.076-2.08-0.281-3.004,0.18
		c-0.966-0.682-1.992-1.34-2.927-2.066c-1.129-0.871-3.004-4.363-3.391-5.6c-0.275-0.887-0.349-1.408-0.572-2.316l-1.125-4.629
		c0.447-0.871,0.997-1.971,1.133-2.955l-0.811-1.215c0.046-2.693,0.424-2.807,1.522-5.17c0.387-0.85,0.542-1.576,1.319-2.197
		c0.773-0.607,1.306-0.477,2.025-1.637l0.151-0.971c-2.43-3.279,0.017-5.279-0.553-8.816c-0.139-0.842-0.519-1.477-0.765-2.25
		c-0.25-0.818-0.102-1.508-0.146-2.309c-0.077-1.199-0.663-5.91,0-6.811l2.423-0.313c1.034-1.256,0.905-3.832,1.42-5.346
		c0.118-0.342,1.33-1.32,1.523-2.184c0.245-1.129-0.031-2.371,0.655-3.408c0.488-0.727,1.166-1.061,1.42-2.008
		c-0.37-1.523-0.454-3.023-0.708-4.553c-0.116-0.658-0.395-1.355-0.458-2.008c-0.053-0.529,0.348-1.74,0.602-2.195l-0.201-0.971
		c-0.717,0.029-1.814-0.334-2.378-0.789l-0.753-2.135c-1.013-0.979-2.372-0.666-3.545-1.273l-0.054-1.031l0.763-1.098l1.157-0.242
		c0.788-1,1.97-1.826,3.197-2.189c0.557-0.949,1.145-2.25,1.815-3.1c0.387-0.477,1.428-0.453,1.83-1.703
		c1.991-0.076,4.457-0.084,6.234-1.152c0.368-0.584,0.715-1.379,0.81-2.068c-0.395-0.803-1.181-1.689-1.923-2.188l-2.433,0.066
		c-1.298-0.295-2.022-1.924-2.84-2.803c-0.69-0.734-1.5-0.918-1.724-2.127l-1.056-0.547c-0.648,0.463-1.553,0.879-2.342,1.031
		l-5.412-2.434c-2.116,0.516-3.799-0.006-5.784,0.121c-0.731,0.055-1.333,0.676-2.423,0.547l-1.12-0.729
		c-0.161-1.158-1.414-2.498-2.331-3.164c-0.712-0.51-1.607-0.902-2.279-1.455c-0.703-0.576-1.38-1.41-2.024-2.063
		c-0.678,0.076-1.644-0.137-2.23-0.49l-1.413-2.246c-1.22-0.152-2.308-0.963-3.399-1.459c-0.795-0.364-1.644-0.611-2.43-0.982
		c-0.765-0.345-1.297-0.85-2.178-0.973c-0.387,0.635-1.459,1.445-2.232,1.461l-1.767,2.074c-0.842-0.014-2.68,0.287-3.298,0.965
		c-1.575-0.779-3.128-1.782-4.108-3.281l0.052-1.035l1.068-0.723l0.454-1.098l1.267-0.91c-0.062-0.186-0.755-2.133-0.762-2.186
		c-0.156-1.389,0.887-4.399,1.219-5.781c0.091-0.387,0.061-0.82,0.152-1.213c0.234-1.061,0.541-2.117,0.813-3.158l-1.022-2.256
		c-0.817,0.315-1.711,0.957-2.321,1.584c-1.197,0.082-1.468-0.636-2.28-0.912c-0.523-0.178-1.35-0.209-1.906-0.301
		c0.023-0.45,0.516-1.521,0.789-1.832c0.477-0.553,1.174-0.978,1.666-1.52c0.974-1.051,2.379-2.912,2.44-4.439l-0.177-0.765
		c-0.031-0.146,0-0.254-0.083-0.379c-0.239-0.37-0.44-0.526-0.727-0.854c-0.947-1.122-1.928-2.242-2.662-3.531
		c0.052-0.871,0.309-1.875,0.662-2.678c-0.27-0.674-0.499-1.413-0.818-2.064c-0.345-0.738-0.826-1.033-0.811-2.008
		c1.042-2.424,3.268-4.192,5.844-4.67c0.227-0.671,0.458-1.723,0.796-2.318c0.079-0.137,0.949-0.803,1.067-0.977
		c0.417-0.596,0.58-1.484,1.012-2.064c0.522-0.701,1.443-1.436,2.074-2.068l3.599-0.489l1.064-0.909
		c0.204-0.678,0.444-1.375,0.613-2.068c0.039-0.178,0.099-0.981,0.145-1.09c0.424-1.064,1.352-1.921,1.21-3.166
		c-0.275-2.562-0.939-2.788,0-5.527c-0.529-0.766-1.117-1.53-1.613-2.311c-0.417-0.654-0.739-1.681-1.42-2.128
		c-0.887-0.589-3.435-1.464-4.61-1.524c-0.377-0.021-0.788,0.092-1.166,0.061c-0.91-0.074-2.602-0.871-3.397-1.271
		c-0.047-0.11-0.447-0.981-0.455-1.033c-0.016-0.118,0.11-0.914,0.103-1.1c-0.034-1.228-0.697-3.605-1.67-4.379
		c-2.27-0.841-5.019-0.708-7.398-0.848c-1.034-0.061-1.852-0.901-2.772-1.234c-0.819-0.304-1.273-0.233-2.046-0.409
		c-1.125-0.261-2.461-1.406-2.78-2.558c-0.193-0.678-0.186-1.434-0.352-2.121c-0.42-1.625-1.038-2.627-0.921-4.443l-1.167-1.034
		c-0.2-2.722,0.118-5.544,0.254-8.269c0.102-1.962-1.342-4.416-3.497-4.439c-0.734,0.439-1.561,1.25-1.969,2.008l-1.273,0.061
		c-0.364-0.789-1.05-1.636-1.716-2.186l-2.331-0.122l-1.268-0.914l-1.167,0.365l-0.917,2.192c-1.275-0.25-3.359,0.137-4.447,0.849
		c-0.472,0.64-0.837,1.545-1.02,2.308c-0.627-0.278-2.779-1.319-3.244-1.823c-0.41-0.447-0.82-1.983-0.982-2.515
		c-0.185-0.595-0.455-1.33-0.894-1.799c-0.734-0.039-1.83,0.386-2.379,0.849l-2.333-1.094l-0.254-1.152l-1.167-0.673l-0.254-2.069
		c0.417-1.281,1.552-2.107,1.874-3.406l-0.299-1.087l0.709-1.099l-0.21-1.094c0.503-0.447,0.89-1.523,0.82-2.186l-1.273-0.735
		l-3.389,0.364c-0.471,0.47-0.895,1.466-0.911,2.133c-0.61,0.641-1.382,1.674-2.078,2.186c-1.76,1.302-3.869,2.424-5.727,3.587
		l-1.068-0.062l-0.554-2.185l-1.166-0.916c-0.682,0.122-1.638,0.082-2.28-0.178c-0.709-1.112-0.493-3.227-0.662-4.503l-0.326-1.512
		c-0.07-0.295-0.047-0.481-0.168-0.756l-1.336-2.134l-0.663-1.064c0.61-0.424,1.019-1.889,1.08-2.556l-1.628-1.019
		c0.015-1.103,0.185-2.478,0.061-3.56c0-0.039-0.549-1.095-0.602-1.198l-1.83-1.026c-0.989,0.875-2.825,1.785-4.155,1.917
		l-2.455-1.034c-0.231-1.515-0.277-3.391-0.093-4.906c0.024-0.146,0.411-0.942,0.411-1.026l-0.719-5.954l-0.997-0.12
		c1.682-1.099,3.674-2.296,4.509-2.459c0.918-0.173,2.132,0.803,2.972,1.021c0,0,1.939,0.225,2.224,0.184
		c0.866-0.122,5.791-1.792,7.159-2.338c1.605-0.64,3.211-1.863,4.673-2.78c0.299-0.193,0.754-0.325,1.088-0.463
		c1.104,0.209,2.254,0.5,3.366,0.633c1.125,0.128,3.041,0.224,3.22,0.322c1.018,0.618,1.783,2.03,3.087,2.178
		c0.935,0.109,2.14-0.85,2.897-0.742c1.151,0.17,2,0.827,3.264,0.532c0.47-0.532,1.484-1.511,2.201-1.719
		c0.788,0.269,3.983,0.215,4.834-0.266c0.882-0.492,1.901-1.211,2.826-1.59c0.249-0.099,1.983-0.37,1.983-0.37
		c1.562-0.182,4.526,0.852,5.761,1.685c0.848,0.572,2.238,2.207,3.297,2.237c0.703-0.132,1.476-0.292,2.146-0.57
		c1.352,0.424,3.034,0.874,4.279,1.536c0.812,0.433,3.659,2.263,4.285,2.581c1.367,0.269,2.965-1.701,3.932-2.348
		c0.284-0.193,8.007-4.371,10.609-5.035l1.356-0.34c0.794,0.007,1.992,0.408,2.786,0.571l2.242,2.045
		c2.392,0.401,4.996-0.023,7.304-0.746c0.038,0.03,2.735,0.67,3.883,0.932c1.908,0.438,1.753,0.394,3.36-0.79
		c0.572-0.416,1.144-0.848,1.677-1.318c0.717,0.167,1.683,0.5,2.409,0.553c0.152,0.009,1.341-0.261,1.606-0.275
		c1.049-0.068,6.091,0.424,7.156,0.254c1.522-0.254,2.464-1.147,3.446-2.208l1.452-0.336l1.189,0.655l1.382,3.273
		c1.14,0.594,2.2,1.651,2.997,2.64c0.478,0.587,0.772,1.477,1.496,1.821l0.742,0.086c0.85-0.439,2.531-1.507,3.375-1.761
		c1.027-0.313,2.409-0.098,3.474-0.347l1.575-0.834c0.508-0.856,1.019-1.955,1.622-2.74c0.016-0.025,1.717-0.488,1.77-0.472
		c1.174,0.34,7.087,1.845,7.961,2.216c0.478,0.201,0.963,0.659,1.444,0.818c0.045,0.016,1.783,0.288,1.844,0.288
		c0.996,0,2.795-0.818,3.436-0.796c1.405,0.038,2.832,1.003,4.022,1.182c0.712,0.106,1.663-0.163,2.401-0.14
		c0.65,0.021,1.397,0.2,2.048,0.302c0.046,0.007,1.845,0.894,2.538,1.11c0.047,0.015,1.375,0.17,1.43,0.17
		c0.787-0.031,5.052-0.596,5.722-0.841c0.061-0.023,2.045-1.046,2.068-1.061c1.276-0.979,2.489-2.3,3.678-3.391
		c0.023-0.021,1.042-0.36,1.132-0.391c1.301,0.561,2.728,0.084,3.955,0.577c1.429-0.346,1.674-1.397,2.602-2.184
		c0.61-0.51,1.482-0.793,2.092-1.305c0.519-0.433,1.969-1.954,2.317-2.602c2.117-0.534,2.687-1.087,4.069-2.625
		c0.023-0.022,2.78-1.374,2.896-1.458c0.053-0.042,0.855-1.167,1.08-1.507c0.556-0.864,1.234-1.955,1.9-2.719
		c0.693-0.804,2.655-1.49,3.406-2.1c0.765-0.625,6.932-6.208,7.271-6.727l0.834-1.735c0.965-2,1.915-4.006,2.874-6.015
		c0.098-0.193,0.331-0.451,0.463-0.631l-0.295-1.754c-0.384-2.302,0.896-3.522,1.699-5.507c0.387-0.946-0.068-3.935-0.123-4.625
		c-0.039-0.492-0.664-4.37-0.748-5.761c-0.146-2.394,0.24-4.786,0.023-7.219c0.453-1.481,2.73-2.172,3.882-2.925
		c0.477-0.311,0.87-0.81,1.343-1.144c0.887-0.617,3.289-2.075,4.238-2.601c0.403,0.408,3.599,7.195,4.037,8.199
		c0.75,1.705,2.216,2.975,3.049,4.625c0.666,1.322,0.682,3.012,1.391,4.239c0.387,0.658,0.666,1.284,1.018,1.924
		c0.365,0.655,1.029,1.079,1.392,1.739c1.09,1.958,1.052,4.352,2.031,6.351c0.979,1.992,2.056,3.923,2.996,5.909
		c0.479,0.989,1.507,1.697,1.824,2.765c0.67,2.237,0.566,4.446,1.657,6.609c1.035,2.061,2.309,3.644,3.747,5.398
		c0.009,0.007,3.228,5.303,3.371,5.578c0.95,1.825,0.751,3.747,1.446,5.522c0.641,1.659,1.883,3.219,2.996,4.564
		c0.709,0.863,1.096,1.954,1.815,2.826c0.454,0.549,1.005,1.026,1.333,1.667c0.78,1.462,1.444,4.857,1.82,6.548
		c0.773,3.436,3.346,6.75,4.82,9.891c0.471,1.004,1.328,1.768,1.816,2.756c0.747,1.515,0.417,2.053,0.375,3.538
		c-0.061,2.231,1.833,4.401,3.584,5.519c0.825,4.371,0.022,7.083,2.249,11.366c1.944,3.746,5.913,5.591,8.398,8.727
		c1.112,1.405,0.972,3.614,2.191,5.072c1.207,1.436,2.21,2.951,3.323,4.432c1.078,1.442,2.833,2.48,3.963,3.984
		c0.222,0.31,0.394,0.663,0.639,0.966c0.224,0.27,0.557,0.455,0.75,0.764c0.781,1.258,1.02,2.579,2.193,3.852
		c2.138,2.333,4.324,5.159,5.72,8.031c1.269,2.579,2.03,5.598,3.909,7.828c1.652,1.955,4.207,3.345,5.353,5.784
		c0.739,1.56,3.442,7.874,4.337,8.794c1.291,1.322,3.291,1.005,4.55,2.504c0.935,1.117,1.464,2.508,2.354,3.658
		c0.68,0.895,1.638,1.512,2.346,2.379c1.447,1.75,3.275,4.724,4.711,6.158c1.846,1.849,5.012,4.459,6.425,6.487
		c1.515,2.179,3.673,3.66,5.241,5.776c1.979,2.67,4.273,5.111,6.102,7.897c0.85,1.292,2.346,1.961,3.312,3.149
		c0.208,0.254,2.349,3.653,2.355,3.723c0.327,1.774-0.879,5.623-0.533,6.619l1.13,3.078c0.17,0.473,1.048,1.275,1.39,1.73
		c2.147,2.902,8.632,8.484,9.791,10.729c0.571,1.105,0.456,2.266,0.589,3.461c0.082,0.758,0.406,1.455,0.588,2.188
		c0.57,2.26,0.135,4.707,1.18,6.865c2.083,4.311,6.321,6.244,8.988,10.021c1.781,2.516,1.527,5.689,2.887,8.35
		c1.567,3.053,4.238,6.439,6.849,8.658c0.579,0.5,1.234,0.893,1.716,1.484c4.036,4.998,2.447,14.203,9.574,15.924
		c0.91,1.582,1.459,3.348,2.461,4.879c2.625,3.982,5.125,6.316,6.314,11.234c1.422,5.916-3.627,8.354,0.965,17.211
		c0.217,0.424,0.481,0.818,0.759,1.205c-1.338,0.809-3.497,2.105-4.833,2.832c-0.713,0.387-1.556,0.605-2.28,0.977
		c-2.331,1.178-4.447,2.682-6.686,4.014c-0.325,0.184-0.749,0.275-1.064,0.486c-1.137,0.742-1.405,1.758-1.777,2.061
		c-0.67,0.555-1.658,0.879-2.37,1.395c-0.928,0.682-2.5,1.992-2.95,3.107c-0.522,1.32-0.817,2.969-0.863,4.379
		c-0.009,0.346,0.154,0.742,0.154,1.098c0,0.711-0.209,1.59-0.302,2.309l-0.865,0.973c-0.646,0.135-1.574,0.453-2.223,0.484
		c-1.02,0.037-3.916-0.145-4.92-0.607c-0.588-0.727-1.212-1.66-1.876-2.311c-0.124-0.121-0.974-0.477-1.112-0.609
		c-0.662-0.617-1.174-1.625-1.875-2.186c-0.542-0.439-1.516-0.658-2.125-1.037c-0.747-0.469-1.383-1.176-2.121-1.645
		c-0.364-0.219-0.897-0.273-1.277-0.484c-0.908-0.494-1.146-1.266-1.773-1.758c-1.052-0.826-2.703-0.213-4.611-1.887
		c-1.42-0.09-3.534,1.439-4.609,2.182c-0.843,1.342-0.888,3.416-2.176,4.379l-1.066,0.311c-1.534-0.461-3.104-1.016-4.656-1.402
		c-2.594-0.643-5.344-0.859-7.852-1.824c-0.82,0.205-1.707,0.486-2.541,0.613c-0.856,0.121-1.375-0.195-2.326,0.297
		c-1.613-0.152-2.36-2.705-4.053-3.219c-1.004,0.119-2.216,0.301-3.14,0.732c-0.974,0.826-0.867,2.252-1.425,3.346
		c-0.609,1.207-1.504,2.504-2.374,3.525l0.275,3.107h-1.198l-0.794-1.273l-1.429-0.629l-0.447,1.977
		c-0.643,0.221-1.537-0.566-2.094-0.787c-0.842-0.314-2.008-0.221-2.826-0.674l-1.382-1.295c-0.618-1.123-1.126-2.879-1.614-4.107
		c-0.068-0.037-0.787-0.408-0.811-0.408c-1.104-0.068-2.387,0.092-3.504,0.137l-1.405-2c-1.405-0.1-2.881-0.402-4.24-0.75
		c-0.099,2.438-1.815,3.061-2.649,4.998l-1.271-0.121c-1.136,1.506-0.865,2.523-0.117,4.131l1.083,2.311l-0.966,1.029l-1.26,0.189
		c-1.559-0.559-2.732-2.07-4.314-2.492c-1.524-0.408-3.02,0.969-4.514,0.424c-1.063-0.816-2.127-1.742-3.232-2.496
		c-0.307-0.209-0.789-0.291-1.109-0.488c-0.349-0.188-0.666-0.561-1.019-0.723c-1.175-0.549-2.479-0.988-3.692-1.465
		C283.626,354.936,283.618,354.936,283.618,354.928z"/>
</g>
<g id="Layer_3">
	
		<polygon fill="#00808E" stroke="#00808E" stroke-width="3" stroke-linecap="round" stroke-linejoin="round" stroke-miterlimit="10" points="
		410.661,306.412 410.661,334.611 399.872,319.973 405.81,307.223 	"/>
	
		<polygon fill="#00808E" stroke="#00808E" stroke-width="3" stroke-linecap="round" stroke-linejoin="round" stroke-miterlimit="10" points="
		412.125,322.807 412.125,335.807 402.577,323.645 	"/>
	
		<polygon fill="#00808E" stroke="#00808E" stroke-width="3" stroke-linecap="round" stroke-linejoin="round" stroke-miterlimit="10" points="
		303.732,347.951 303.732,360.951 295.914,350.973 	"/>
	
		<polygon fill="#00808E" stroke="#00808E" stroke-width="3" stroke-linecap="round" stroke-linejoin="round" stroke-miterlimit="10" points="
		213.092,321.061 213.092,334.451 226.664,330.973 	"/>
	
		<polygon fill="#00808E" stroke="#00808E" stroke-width="3" stroke-linecap="round" stroke-linejoin="round" stroke-miterlimit="10" points="
		169.818,312.26 169.818,325.223 176.83,322.973 	"/>
	
		<polygon fill="#00808E" stroke="#00808E" stroke-width="3" stroke-linecap="round" stroke-linejoin="round" stroke-miterlimit="10" points="
		152.043,316.096 152.043,329.336 146.164,316.473 	"/>
	
		<polygon fill="#00808E" stroke="#00808E" stroke-width="3" stroke-linecap="round" stroke-linejoin="round" stroke-miterlimit="10" points="
		116.958,309.938 116.958,323.473 128.331,315.473 	"/>
	
		<polygon fill="#00808E" stroke="#00808E" stroke-width="3" stroke-linecap="round" stroke-linejoin="round" stroke-miterlimit="10" points="
		120.529,278.135 120.529,291.057 131.414,284.596 	"/>
	
		<polygon fill="#00808E" stroke="#00808E" stroke-width="3" stroke-linecap="round" stroke-linejoin="round" stroke-miterlimit="10" points="
		120.781,247.395 120.781,260.395 133.081,258.557 128.414,247.395 	"/>
	
		<polygon fill="#00808E" stroke="#00808E" stroke-width="3" stroke-linecap="round" stroke-linejoin="round" stroke-miterlimit="10" points="
		79.842,215.168 79.842,228.168 96.914,217.557 	"/>
	
		<polygon fill="#00808E" stroke="#00808E" stroke-width="3" stroke-linecap="round" stroke-linejoin="round" stroke-miterlimit="10" points="
		76.632,196.888 76.632,210.18 90.664,200.473 	"/>
	
		<polygon fill="#00808E" stroke="#00808E" stroke-width="3" stroke-linecap="round" stroke-linejoin="round" stroke-miterlimit="10" points="
		76.854,177.109 76.854,190.109 91.997,183.609 	"/>
	
		<polygon fill="#00808E" stroke="#00808E" stroke-width="3" stroke-linecap="round" stroke-linejoin="round" stroke-miterlimit="10" points="
		31.817,107.474 31.817,120.973 45.497,113.389 	"/>
	
		<polygon fill="#00808E" stroke="#00808E" stroke-width="3" stroke-linecap="round" stroke-linejoin="round" stroke-miterlimit="10" points="
		1.747,71.723 1.747,85.139 15.081,81.973 	"/>
</g>
<g id="Layer_2">
	
		<path fill="#00A6AF" stroke="#00FFFF" stroke-width="2" stroke-linecap="round" stroke-linejoin="round" stroke-miterlimit="10" d="
		M283.618,341.928c-0.633-0.334-1.268-0.721-1.923-1.021c-0.702-0.326-1.623-0.525-2.278-0.912
		c-0.508-0.303-1.396-1.543-1.575-2.127l-1.265-0.363c-0.604,0.469-1.474,0.932-2.232,1.094l-1.067-0.428
		c-3.536,1.584-4.708-1.426-6.785-1.826c-0.634,0.35-1.606,0.561-2.333,0.486c-1.227-0.553-2.416-1.455-3.137-2.605l-1.109-0.365
		l-1.175,0.365c-0.802-0.857-0.64-1.502-1.056-2.26c-0.828-1.453-2.527-2.461-4.108-2.795c-1.175,0.629-1.212,1.236-1.932,1.885
		c-1.39,1.258-3.921,0.805-5.572,0.547l-1.216,0.734l-1.109-0.371l-1.167,0.486l-1.412-0.666v-1.094
		c-0.463-1.059-3.304-2.732-4.262-3.219l0.812-2.195c-0.426-1.684-2.24-2.924-3.846-3.342c-1.02,0.463-2.434,0.615-3.453,0.063
		l-1.164,0.672c-0.48-0.529-1.646-1.113-2.379-0.977c-0.749,0.387-1.553,0.891-2.333,1.213c-0.164,0.068-0.927,0.119-1.065,0.188
		c-0.883,0.41-1.174,1.143-2.431,1.088c-0.66,0.436-1.483,1.33-1.776,2.072l-1.159,0.061l-0.914-1.16l-2.378-0.545
		c-0.686-0.924-1.495-2.061-1.876-3.158c0.35-0.992,1.16-2.516,2.023-3.158l2.281,0.059l1.218-0.855
		c-0.116-0.742,0.455-1.908,1.012-2.371l1.064-0.18c0.641-0.623,1.368-1.486,2.075-2.01c0.023-0.021,1.06-0.332,1.159-0.369
		l0.764-1.092c-0.14-0.635-0.007-1.666,0.303-2.25c-0.926-0.434-1.624-1.236-2.278-1.576c-1.151-0.598-2.663,0.168-3.397,1.092
		c-0.477-0.078-1.726-0.061-2.176,0.121c-0.354,0.158-0.693,0.598-1.058,0.734c-0.688,0.258-1.605,0.371-2.334,0.537
		c-1.071-0.35-3.063-3.113-3.644-4.006l-3.449,0.066c-1.198-0.643-1.206-1.703-1.624-2.076c-0.934-0.832-2.301-1.59-3.344-2.303
		c-0.123,0.023-1.227,0.213-1.265,0.236c-1.144,0.621-3.567,2.219-4.409,3.281c-0.045,1.498-0.928,3.332-2.533,3.656
		c-1.33-0.045-3.754-2.148-4.402-3.287l-2.438-0.061c-0.077,0.621,0.037,1.426,0.244,2c-0.146,0.961-2.771,3.273-3.688,3.713
		c-0.704,0.332-1.523,0.484-2.232,0.789c-0.771,0.348-1.537,0.93-2.332,1.219c-0.713,0.258-1.592,0.273-2.334,0.494
		c-0.424,0.119-0.834,0.406-1.258,0.545c-0.842,0.264-2.711,0.854-3.553,0.361c-0.731-0.658-1.705-2.113-1.567-3.166
		c0.087-0.635,0.495-1.311,0.556-1.947l-0.17-0.771c-0.402-1.82-1.443-2.092-2.508-3.416c-0.766-0.963-0.439-2.137-0.818-3.23
		l-2.377-1.275c-0.773,0.301-2.697-0.502-3.346-0.852c-1.258,0.258-2.307,0.979-3.496,1.402c-1.076,0.379-2.534,0.432-3.5,1.098
		c-0.386,0.266-0.67,0.818-1.057,1.084c-0.316,0.227-0.855,0.266-1.166,0.49c-0.596,0.426-1.128,1.381-1.318,2.068
		c-0.42,1.518,0.545,2.926,0.909,4.379c0.208,0.826-0.186,1.486-0.201,2.244c-0.016,0.811,0.587,1.471,0.765,2.195v1.031
		c-0.125,0.432-1.282,3-1.629,3.348c-0.03,0.029-1.05,0.6-1.158,0.66l-1.122-0.365l-1.163,0.615l-1.015,2.061l-1.057,0.121
		c-1.175-1.357-2.765-2.07-4.564-1.879c-0.47,0.598-1.39,1.342-2.129,1.582l-1.113-0.613l-1.011,1.098
		c-1.25,0.656-2.323-0.068-3.553,0.305c-1.743,0.529-2.462,1.166-4.553,1.342c-0.974,0.076-2.08-0.281-3.004,0.18
		c-0.966-0.682-1.992-1.34-2.927-2.066c-1.129-0.871-3.004-4.363-3.391-5.6c-0.275-0.887-0.349-1.408-0.572-2.316l-1.125-4.629
		c0.447-0.871,0.997-1.971,1.133-2.955l-0.811-1.215c0.046-2.693,0.424-2.807,1.522-5.17c0.387-0.85,0.542-1.576,1.319-2.197
		c0.773-0.607,1.306-0.477,2.025-1.637l0.151-0.971c-2.43-3.279,0.017-5.279-0.553-8.816c-0.139-0.842-0.519-1.477-0.765-2.25
		c-0.25-0.818-0.102-1.508-0.146-2.309c-0.077-1.199-0.663-5.91,0-6.811l2.423-0.313c1.034-1.256,0.905-3.832,1.42-5.346
		c0.118-0.342,1.33-1.32,1.523-2.184c0.245-1.129-0.031-2.371,0.655-3.408c0.488-0.727,1.166-1.061,1.42-2.008
		c-0.37-1.523-0.454-3.023-0.708-4.553c-0.116-0.658-0.395-1.355-0.458-2.008c-0.053-0.529,0.348-1.74,0.602-2.195l-0.201-0.971
		c-0.717,0.029-1.814-0.334-2.378-0.789l-0.753-2.135c-1.013-0.979-2.372-0.666-3.545-1.273l-0.054-1.031l0.763-1.098l1.157-0.242
		c0.788-1,1.97-1.826,3.197-2.189c0.557-0.949,1.145-2.25,1.815-3.1c0.387-0.477,1.428-0.453,1.83-1.703
		c1.991-0.076,4.457-0.084,6.234-1.152c0.368-0.584,0.715-1.379,0.81-2.068c-0.395-0.803-1.181-1.689-1.923-2.188l-2.433,0.066
		c-1.298-0.295-2.022-1.924-2.84-2.803c-0.69-0.734-1.5-0.918-1.724-2.127l-1.056-0.547c-0.648,0.463-1.553,0.879-2.342,1.031
		l-5.412-2.434c-2.116,0.516-3.799-0.006-5.784,0.121c-0.731,0.055-1.333,0.676-2.423,0.547l-1.12-0.729
		c-0.161-1.158-1.414-2.498-2.331-3.164c-0.712-0.51-1.607-0.902-2.279-1.455c-0.703-0.576-1.38-1.41-2.024-2.063
		c-0.678,0.076-1.644-0.137-2.23-0.49l-1.413-2.246c-1.22-0.152-2.308-0.963-3.399-1.459c-0.795-0.364-1.644-0.611-2.43-0.982
		c-0.765-0.345-1.297-0.85-2.178-0.973c-0.387,0.635-1.459,1.445-2.232,1.461l-1.767,2.074c-0.842-0.014-2.68,0.287-3.298,0.965
		c-1.575-0.779-3.128-1.782-4.108-3.281l0.052-1.035l1.068-0.723l0.454-1.098l1.267-0.91c-0.062-0.186-0.755-2.133-0.762-2.186
		c-0.156-1.389,0.887-4.399,1.219-5.781c0.091-0.387,0.061-0.82,0.152-1.213c0.234-1.061,0.541-2.117,0.813-3.158l-1.022-2.256
		c-0.817,0.315-1.711,0.957-2.321,1.584c-1.197,0.082-1.468-0.636-2.28-0.912c-0.523-0.178-1.35-0.209-1.906-0.301
		c0.023-0.45,0.516-1.521,0.789-1.832c0.477-0.553,1.174-0.978,1.666-1.52c0.974-1.051,2.379-2.912,2.44-4.439l-0.177-0.765
		c-0.031-0.146,0-0.254-0.083-0.379c-0.239-0.37-0.44-0.526-0.727-0.854c-0.947-1.122-1.928-2.242-2.662-3.531
		c0.052-0.871,0.309-1.875,0.662-2.678c-0.27-0.674-0.499-1.413-0.818-2.064c-0.345-0.738-0.826-1.033-0.811-2.008
		c1.042-2.424,3.268-4.192,5.844-4.67c0.227-0.671,0.458-1.723,0.796-2.318c0.079-0.137,0.949-0.803,1.067-0.977
		c0.417-0.596,0.58-1.484,1.012-2.064c0.522-0.701,1.443-1.436,2.074-2.068l3.599-0.489l1.064-0.909
		c0.204-0.678,0.444-1.375,0.613-2.068c0.039-0.178,0.099-0.981,0.145-1.09c0.424-1.064,1.352-1.921,1.21-3.166
		c-0.275-2.562-0.939-2.788,0-5.527c-0.529-0.765-1.117-1.53-1.613-2.31c-0.417-0.655-0.739-1.681-1.42-2.128
		c-0.887-0.589-3.435-1.463-4.61-1.524c-0.377-0.021-0.788,0.091-1.166,0.061c-0.91-0.075-2.602-0.871-3.397-1.271
		c-0.047-0.111-0.447-0.982-0.455-1.034c-0.016-0.118,0.11-0.914,0.103-1.1c-0.034-1.227-0.697-3.605-1.67-4.378
		c-2.27-0.841-5.019-0.708-7.398-0.849c-1.034-0.061-1.852-0.901-2.772-1.234c-0.819-0.304-1.273-0.233-2.046-0.409
		c-1.125-0.261-2.461-1.406-2.78-2.558c-0.193-0.678-0.186-1.434-0.352-2.121c-0.42-1.625-1.038-2.627-0.921-4.443l-1.167-1.034
		c-0.2-2.722,0.118-5.544,0.254-8.269c0.102-1.962-1.342-4.416-3.497-4.439c-0.734,0.439-1.561,1.25-1.969,2.008l-1.273,0.061
		c-0.364-0.789-1.05-1.636-1.716-2.186l-2.331-0.122l-1.268-0.914l-1.167,0.365l-0.917,2.192c-1.275-0.25-3.359,0.137-4.447,0.849
		c-0.472,0.64-0.837,1.545-1.02,2.308c-0.627-0.278-2.779-1.319-3.244-1.823c-0.41-0.447-0.82-1.983-0.982-2.515
		c-0.185-0.595-0.455-1.33-0.894-1.799c-0.734-0.039-1.83,0.386-2.379,0.849l-2.333-1.094l-0.254-1.152l-1.167-0.673l-0.254-2.069
		c0.417-1.281,1.552-2.107,1.874-3.406l-0.299-1.087l0.709-1.099l-0.21-1.094c0.503-0.447,0.89-1.523,0.82-2.186l-1.273-0.735
		l-3.389,0.364c-0.471,0.47-0.895,1.466-0.911,2.133c-0.61,0.641-1.382,1.674-2.078,2.186c-1.76,1.302-3.869,2.424-5.727,3.587
		l-1.068-0.062l-0.554-2.185l-1.166-0.916c-0.682,0.122-1.638,0.082-2.28-0.178c-0.709-1.112-0.493-3.227-0.662-4.503l-0.326-1.512
		c-0.07-0.295-0.047-0.481-0.168-0.756l-1.336-2.134l-0.663-1.064c0.61-0.424,1.019-1.889,1.08-2.556l-1.628-1.019
		c0.015-1.103,0.185-2.478,0.061-3.56c0-0.039-0.549-1.095-0.602-1.198l-1.83-1.026c-0.989,0.875-2.825,1.785-4.155,1.917
		l-2.455-1.034c-0.231-1.515-0.277-3.391-0.093-4.906c0.024-0.146,0.411-0.942,0.411-1.026l-0.719-5.954l-0.997-0.12
		c1.682-1.099,3.674-2.296,4.509-2.459c0.918-0.173,2.132,0.803,2.972,1.021c0,0,1.939,0.225,2.224,0.184
		c0.866-0.122,5.791-1.792,7.159-2.338c1.605-0.64,3.211-1.863,4.673-2.78c0.299-0.193,0.754-0.325,1.088-0.463
		c1.104,0.209,2.254,0.5,3.366,0.633c1.125,0.128,3.041,0.224,3.22,0.322c1.018,0.618,1.783,2.03,3.087,2.178
		c0.935,0.109,2.14-0.85,2.897-0.742c1.151,0.17,2,0.827,3.264,0.532c0.47-0.532,1.484-1.511,2.201-1.719
		c0.788,0.269,3.983,0.215,4.834-0.266c0.882-0.492,1.901-1.211,2.826-1.59c0.249-0.099,1.983-0.37,1.983-0.37
		c1.562-0.182,4.526,0.852,5.761,1.685c0.848,0.572,2.238,2.207,3.297,2.237c0.703-0.132,1.476-0.292,2.146-0.57
		c1.352,0.424,3.034,0.874,4.279,1.536c0.812,0.433,3.659,2.263,4.285,2.581c1.367,0.269,2.965-1.701,3.932-2.348
		c0.284-0.193,8.007-4.371,10.609-5.035l1.356-0.34c0.794,0.007,1.992,0.408,2.786,0.571l2.242,2.045
		c2.392,0.401,4.996-0.023,7.304-0.746c0.038,0.03,2.735,0.67,3.883,0.932c1.908,0.438,1.753,0.394,3.36-0.79
		c0.572-0.416,1.144-0.848,1.677-1.318c0.717,0.167,1.683,0.5,2.409,0.553c0.152,0.009,1.341-0.261,1.606-0.275
		c1.049-0.068,6.091,0.424,7.156,0.254c1.522-0.254,2.464-1.147,3.446-2.208l1.452-0.336l1.189,0.655l1.382,3.273
		c1.14,0.594,2.2,1.651,2.997,2.64c0.478,0.587,0.772,1.477,1.496,1.821l0.742,0.086c0.85-0.439,2.531-1.507,3.375-1.761
		c1.027-0.313,2.409-0.098,3.474-0.347l1.575-0.834c0.508-0.856,1.019-1.955,1.622-2.74c0.016-0.025,1.717-0.488,1.77-0.472
		c1.174,0.34,7.087,1.845,7.961,2.216c0.478,0.201,0.963,0.659,1.444,0.818c0.045,0.016,1.783,0.288,1.844,0.288
		c0.996,0,2.795-0.818,3.436-0.796c1.405,0.038,2.832,1.003,4.022,1.182c0.712,0.106,1.663-0.163,2.401-0.14
		c0.65,0.021,1.397,0.2,2.048,0.302c0.046,0.007,1.845,0.894,2.538,1.11c0.047,0.015,1.375,0.17,1.43,0.17
		c0.787-0.031,5.052-0.596,5.722-0.841c0.061-0.023,2.045-1.046,2.068-1.061c1.276-0.979,2.489-2.3,3.678-3.391
		c0.023-0.021,1.042-0.36,1.132-0.391c1.301,0.561,2.728,0.084,3.955,0.577c1.429-0.346,1.674-1.397,2.602-2.184
		c0.61-0.51,1.482-0.793,2.092-1.305c0.519-0.433,1.969-1.954,2.317-2.602c2.117-0.534,2.687-1.087,4.069-2.625
		c0.023-0.022,2.78-1.374,2.896-1.458c0.053-0.042,0.855-1.167,1.08-1.507c0.556-0.864,1.234-1.955,1.9-2.719
		c0.693-0.804,2.655-1.49,3.406-2.1c0.765-0.625,6.932-6.208,7.271-6.727l0.834-1.735c0.965-2,1.915-4.006,2.874-6.015
		c0.098-0.193,0.331-0.451,0.463-0.631l-0.295-1.754c-0.384-2.302,0.896-3.522,1.699-5.507c0.387-0.946-0.068-3.935-0.123-4.625
		c-0.039-0.492-0.664-4.37-0.748-5.761c-0.146-2.394,0.24-4.786,0.023-7.219c0.453-1.481,2.73-2.172,3.882-2.925
		c0.477-0.311,0.87-0.81,1.343-1.144c0.887-0.617,3.289-2.075,4.238-2.601c0.403,0.408,3.599,7.195,4.037,8.199
		c0.75,1.705,2.216,2.975,3.049,4.625c0.666,1.322,0.682,3.012,1.391,4.239c0.387,0.658,0.666,1.284,1.018,1.924
		c0.365,0.655,1.029,1.079,1.392,1.739c1.09,1.958,1.052,4.352,2.031,6.351c0.979,1.992,2.056,3.923,2.996,5.909
		c0.479,0.989,1.507,1.697,1.824,2.765c0.67,2.237,0.566,4.446,1.657,6.609c1.035,2.061,2.309,3.644,3.747,5.398
		c0.009,0.007,3.228,5.303,3.371,5.578c0.95,1.825,0.751,3.747,1.446,5.522c0.641,1.659,1.883,3.219,2.996,4.564
		c0.709,0.863,1.096,1.954,1.815,2.826c0.454,0.549,1.005,1.026,1.333,1.667c0.78,1.462,1.444,4.857,1.82,6.548
		c0.773,3.436,3.346,6.75,4.82,9.891c0.471,1.004,1.328,1.768,1.816,2.756c0.747,1.515,0.417,2.053,0.375,3.538
		c-0.061,2.231,1.833,4.401,3.584,5.519c0.825,4.371,0.022,7.083,2.249,11.366c1.944,3.746,5.913,5.591,8.398,8.727
		c1.112,1.405,0.972,3.614,2.191,5.072c1.207,1.436,2.21,2.951,3.323,4.432c1.078,1.442,2.833,2.48,3.963,3.984
		c0.222,0.31,0.394,0.663,0.639,0.966c0.224,0.27,0.557,0.455,0.75,0.764c0.781,1.258,1.02,2.579,2.193,3.852
		c2.138,2.334,4.324,5.159,5.72,8.031c1.269,2.579,2.03,5.598,3.909,7.828c1.652,1.955,4.207,3.345,5.353,5.784
		c0.739,1.56,3.442,7.874,4.337,8.794c1.291,1.322,3.291,1.005,4.55,2.504c0.935,1.117,1.464,2.508,2.354,3.658
		c0.68,0.895,1.638,1.512,2.346,2.379c1.447,1.75,3.275,4.724,4.711,6.158c1.846,1.849,5.012,4.459,6.425,6.487
		c1.515,2.179,3.673,3.66,5.241,5.776c1.979,2.67,4.273,5.111,6.102,7.897c0.85,1.292,2.346,1.961,3.312,3.149
		c0.208,0.254,2.349,3.653,2.355,3.723c0.327,1.774-0.879,5.623-0.533,6.619l1.13,3.078c0.17,0.473,1.048,1.275,1.39,1.73
		c2.147,2.902,8.632,8.484,9.791,10.729c0.571,1.105,0.456,2.266,0.589,3.461c0.082,0.758,0.406,1.455,0.588,2.188
		c0.57,2.26,0.135,4.707,1.18,6.865c2.083,4.311,6.321,6.244,8.988,10.021c1.781,2.516,1.527,5.689,2.887,8.35
		c1.567,3.053,4.238,6.439,6.849,8.658c0.579,0.5,1.234,0.893,1.716,1.484c4.036,4.998,2.447,14.203,9.574,15.924
		c0.91,1.582,1.459,3.348,2.461,4.879c2.625,3.982,5.125,6.316,6.314,11.234c1.422,5.916-3.627,8.354,0.965,17.211
		c0.217,0.424,0.481,0.818,0.759,1.205c-1.338,0.809-3.497,2.105-4.833,2.832c-0.713,0.387-1.556,0.605-2.28,0.977
		c-2.331,1.178-4.447,2.682-6.686,4.014c-0.325,0.184-0.749,0.275-1.064,0.486c-1.137,0.742-1.405,1.758-1.777,2.061
		c-0.67,0.555-1.658,0.879-2.37,1.395c-0.928,0.682-2.5,1.992-2.95,3.107c-0.522,1.32-0.817,2.969-0.863,4.379
		c-0.009,0.346,0.154,0.742,0.154,1.098c0,0.711-0.209,1.59-0.302,2.309l-0.865,0.973c-0.646,0.135-1.574,0.453-2.223,0.484
		c-1.02,0.037-3.916-0.145-4.92-0.607c-0.588-0.727-1.212-1.66-1.876-2.311c-0.124-0.121-0.974-0.477-1.112-0.609
		c-0.662-0.617-1.174-1.625-1.875-2.186c-0.542-0.439-1.516-0.658-2.125-1.037c-0.747-0.469-1.383-1.176-2.121-1.645
		c-0.364-0.219-0.897-0.273-1.277-0.484c-0.908-0.494-1.146-1.266-1.773-1.758c-1.052-0.826-2.703-0.213-4.611-1.887
		c-1.42-0.09-3.534,1.439-4.609,2.182c-0.843,1.342-0.888,3.416-2.176,4.379l-1.066,0.311c-1.534-0.461-3.104-1.016-4.656-1.402
		c-2.594-0.643-5.344-0.859-7.852-1.824c-0.82,0.205-1.707,0.486-2.541,0.613c-0.856,0.121-1.375-0.195-2.326,0.297
		c-1.613-0.152-2.36-2.705-4.053-3.219c-1.004,0.119-2.216,0.301-3.14,0.732c-0.974,0.826-0.867,2.252-1.425,3.346
		c-0.609,1.207-1.504,2.504-2.374,3.525l0.275,3.107h-1.198l-0.794-1.273l-1.429-0.629l-0.447,1.977
		c-0.643,0.221-1.537-0.566-2.094-0.787c-0.842-0.314-2.008-0.221-2.826-0.674l-1.382-1.295c-0.618-1.123-1.126-2.879-1.614-4.107
		c-0.068-0.037-0.787-0.408-0.811-0.408c-1.104-0.068-2.387,0.092-3.504,0.137l-1.405-2c-1.405-0.1-2.881-0.402-4.24-0.75
		c-0.099,2.438-1.815,3.061-2.649,4.998l-1.271-0.121c-1.136,1.506-0.865,2.523-0.117,4.131l1.083,2.311l-0.966,1.029l-1.26,0.189
		c-1.559-0.559-2.732-2.07-4.314-2.492c-1.524-0.408-3.02,0.969-4.514,0.424c-1.063-0.816-2.127-1.742-3.232-2.496
		c-0.307-0.209-0.789-0.291-1.109-0.488c-0.349-0.188-0.666-0.561-1.019-0.723c-1.175-0.549-2.479-0.988-3.692-1.465
		C283.626,341.936,283.618,341.936,283.618,341.928z"/>
</g>
<g id="Layer_5">
	<g opacity="0.35">
		<path fill="#FFFFFF" d="M230.671,4h-2.093c-0.698,0.431-1.349,0.844-1.707,1.094c-0.179,0.126-0.348,0.291-0.519,0.453
			c-0.154,0.147-0.329,0.302-0.515,0.454h5.813C231.307,5.289,230.968,4.596,230.671,4z"/>
		<path fill="#FFFFFF" d="M233.537,10c-0.199-0.44-0.536-1.163-0.932-2h-10.104c-0.18,0.157-0.325,0.319-0.412,0.49
			c0.038,0.508,0.039,1.01,0.039,1.51H233.537z"/>
		<path fill="#FFFFFF" d="M235.382,12.952c-0.237-0.31-0.475-0.627-0.706-0.952h-12.589c-0.003,0.078-0.005,0.159-0.008,0.237
			c-0.026,0.603-0.048,1.187-0.056,1.763h14.131C235.915,13.652,235.654,13.307,235.382,12.952z"/>
		<path fill="#FFFFFF" d="M222.343,18h15.283c-0.126-0.403-0.224-0.812-0.318-1.214c-0.064-0.272-0.131-0.531-0.2-0.786h-15.015
			C222.148,16.548,222.242,17.269,222.343,18z"/>
		<path fill="#FFFFFF" d="M222.796,21.242c0.01,0.117,0.031,0.306,0.059,0.542c0.009,0.075,0.016,0.142,0.023,0.215h16.931
			c-0.228-0.246-0.461-0.515-0.649-0.855c-0.154-0.281-0.294-0.555-0.434-0.83c-0.053-0.104-0.114-0.21-0.168-0.314h-15.929
			C222.718,20.616,222.784,21.089,222.796,21.242z"/>
		<path fill="#FFFFFF" d="M222.951,26h18.605c-0.004-0.018-0.009-0.035-0.013-0.053c-0.154-0.68-0.312-1.332-0.52-1.947h-17.969
			C223.099,24.833,223.074,25.501,222.951,26z"/>
		<path fill="#FFFFFF" d="M242.558,29.19c-0.191-0.39-0.338-0.789-0.47-1.19h-20.051c-0.385,0.724-0.698,1.328-0.823,2h21.757
			C242.834,29.729,242.691,29.463,242.558,29.19z"/>
		<path fill="#FFFFFF" d="M243.993,32h-22.664l0.176,1.042c0.045,0.266-0.02,0.538-0.179,0.755c-0.044,0.061-0.1,0.131-0.158,0.203
			h23.845C244.676,33.326,244.335,32.657,243.993,32z"/>
		<path fill="#FFFFFF" d="M247.317,37.709c-0.121-0.408-0.451-0.806-0.8-1.227c-0.124-0.15-0.255-0.316-0.383-0.483h-26.002
			c-0.317,0.668-0.639,1.333-0.957,2h28.212C247.362,37.903,247.347,37.806,247.317,37.709z"/>
		<path fill="#FFFFFF" d="M247.837,40.189c-0.011-0.064-0.022-0.125-0.033-0.189h-29.585c-0.046,0.096-0.092,0.192-0.138,0.289
			L217.26,42h30.922C248.043,41.39,247.936,40.785,247.837,40.189z"/>
		<path fill="#FFFFFF" d="M249.04,44.48c-0.081-0.161-0.136-0.32-0.205-0.48h-33.506c-0.659,0.62-1.421,1.319-2.169,2h36.729
			C249.593,45.518,249.31,45.018,249.04,44.48z"/>
		<path fill="#FFFFFF" d="M251.276,48h-40.334c-0.672,0.601-1.147,1.02-1.234,1.091c-0.392,0.318-0.951,0.605-1.545,0.909h44.692
			C252.277,49.295,251.764,48.645,251.276,48z"/>
		<path fill="#FFFFFF" d="M254.074,52h-48.358c-0.32,0.456-0.636,0.943-0.929,1.399l-0.178,0.277
			c-0.004,0.006-0.094,0.14-0.22,0.324h50.896C254.913,53.385,254.478,52.665,254.074,52z"/>
		<path fill="#FFFFFF" d="M256.395,56h-54.161c-0.272,0.136-0.61,0.305-1.061,0.528c-0.323,0.16-0.605,0.3-0.767,0.381
			c-0.38,0.423-0.714,0.777-1.051,1.09h57.534C256.773,57.305,256.642,56.638,256.395,56z"/>
		<path fill="#FFFFFF" d="M257.563,60.89c-0.116-0.297-0.204-0.594-0.282-0.89h-61.24c-0.607,0.753-1.456,1.618-1.887,2h63.932
			C257.894,61.637,257.71,61.27,257.563,60.89z"/>
		<path fill="#FFFFFF" d="M125.896,64h-1.713c-0.922,0.93-1.952,1.721-3.502,1.979c-0.056,0.009-0.131,0.014-0.201,0.021h6.261
			L125.896,64z"/>
		<path fill="#FFFFFF" d="M52.545,65.014c-0.689,0.109-1.589,0.266-1.768,0.32c-0.365,0.151-0.799,0.399-1.243,0.666h7.095
			C55.344,65.42,53.542,64.905,52.545,65.014z"/>
		<path fill="#FFFFFF" d="M260.72,65.729c-0.46-0.556-0.916-1.135-1.354-1.729h-67.962c-0.029,0.036-0.059,0.07-0.088,0.107
			c-0.485,0.611-1.09,1.371-2.369,1.681c-0.203,0.049-0.414,0.034-0.607-0.044c-0.422-0.169-0.935-0.179-1.527-0.189
			c-0.638-0.012-1.348-0.025-2.07-0.255c-0.204,0.068-0.431,0.145-0.58,0.197c-0.174,0.161-0.35,0.335-0.524,0.504h77.272
			C260.847,65.91,260.788,65.812,260.72,65.729z"/>
		<path fill="#FFFFFF" d="M90.403,65.256c-0.193-0.045-0.402-0.099-0.618-0.155c-0.547-0.142-1.162-0.3-1.585-0.33l-1.218,0.306
			c-0.568,0.145-1.431,0.487-2.416,0.923h6.652L90.403,65.256z"/>
		<path fill="#FFFFFF" d="M130.206,69.647c-0.527-0.655-1.077-1.204-1.617-1.647H80.412c-1.913,0.973-3.513,1.841-3.74,1.981
			c-0.006,0.004-0.017,0.014-0.023,0.019h53.792C130.364,69.878,130.292,69.752,130.206,69.647z"/>
		<path fill="#FFFFFF" d="M263.001,69.08c-0.157-0.171-0.314-0.344-0.463-0.522c-0.149-0.182-0.271-0.37-0.396-0.558h-80.628
			c-0.315,0.28-0.63,0.563-0.957,0.814c-0.029,0.022-0.061,0.043-0.092,0.063c-0.014,0.008-1.925,1.004-2.196,1.123h85.451
			C263.544,69.682,263.283,69.388,263.001,69.08z"/>
		<path fill="#FFFFFF" d="M67.442,69.792c-0.938-0.499-2.222-0.889-3.355-1.233l-0.417-0.128c-0.667,0.235-1.372,0.378-1.997,0.496
			c-0.07,0.013-0.14,0.018-0.214,0.017c-0.732-0.021-1.43-0.434-2.082-0.943H41.958c-0.214,0.197-0.43,0.408-0.624,0.628
			c-0.138,0.156-0.32,0.265-0.523,0.312c-0.979,0.229-1.937-0.02-2.672-0.259c-0.332-0.108-0.646-0.21-0.965-0.257
			c-0.122,0.002-0.524,0.169-0.79,0.28c-0.62,0.257-1.356,0.549-2.078,0.466C33.374,69.063,32.674,68.533,32.1,68H21.66
			c-0.748,0.467-1.511,0.9-2.3,1.215c-0.422,0.168-1.229,0.461-2.164,0.785h50.612C67.66,69.913,67.533,69.84,67.442,69.792z"/>
		<path fill="#FFFFFF" d="M168.121,69.71c-0.088-0.042-0.162-0.077-0.217-0.103c-0.161-0.027-0.326-0.057-0.494-0.088
			c-0.451-0.083-0.918-0.168-1.301-0.181c-0.283,0.007-0.602,0.038-0.889,0.073c-0.536,0.066-1.123,0.13-1.627,0.056
			c-0.627-0.094-1.258-0.347-1.868-0.591c-0.694-0.277-1.411-0.564-2.034-0.581c-0.166,0.006-0.728,0.18-1.099,0.295
			c-0.796,0.247-1.618,0.501-2.31,0.501c-0.123,0-1.98-0.274-2.182-0.346c-0.363-0.121-0.699-0.343-0.996-0.54
			c-0.114-0.076-0.225-0.146-0.329-0.207h-9.998c-0.092,0.166-0.185,0.339-0.276,0.493c-0.094,0.158-0.229,0.287-0.392,0.373
			l-1.575,0.834c-0.076,0.04-0.157,0.07-0.24,0.09c-0.597,0.14-1.226,0.156-1.834,0.172c-0.3,0.008-0.592,0.016-0.861,0.038h31.142
			C168.534,69.904,168.324,69.806,168.121,69.71z"/>
		<path fill="#FFFFFF" d="M264.967,74c-0.153-0.663-0.323-1.357-0.506-2H74.097c-0.663,0.381-1.373,0.611-2.092,0.471
			c-0.09-0.018-0.178-0.048-0.26-0.09c-0.144-0.073-0.374-0.206-0.666-0.381H4.129l0.242,2H264.967z"/>
		<path fill="#FFFFFF" d="M4.833,77.832c0.005,0.04,0.007,0.08,0.007,0.12c0,0.017-0.003,0.032-0.004,0.048H265.98
			c-0.198-0.542-0.368-1.091-0.493-1.646L265.409,76H4.612L4.833,77.832z"/>
		<path fill="#FFFFFF" d="M266.848,80H4.348c-0.037,0.643-0.037,1.324-0.003,2h263.574C267.546,81.341,267.182,80.675,266.848,80z"
			/>
		<path fill="#FFFFFF" d="M13.593,86h256.551c-0.325-0.651-0.688-1.319-1.079-2H13.073c0.45,0.872,0.488,0.969,0.491,1.168
			C13.592,85.436,13.59,85.719,13.593,86z"/>
		<path fill="#FFFFFF" d="M15.128,89.895c-0.002,0.027-0.008,0.069-0.013,0.105h257.38c-0.058-0.225-0.14-0.464-0.293-0.776
			c-0.195-0.395-0.483-0.773-0.788-1.175c-0.012-0.016-0.023-0.033-0.035-0.049H13.535c-0.004,0.081-0.009,0.164-0.013,0.243
			l1.141,0.714C14.982,89.157,15.162,89.52,15.128,89.895z"/>
		<path fill="#FFFFFF" d="M272.474,92.292c0.003-0.105,0.01-0.195,0.015-0.292H14.529c-0.074,0.155-0.152,0.308-0.243,0.451
			L15.256,94h257.473C272.555,93.443,272.458,92.871,272.474,92.292z"/>
		<path fill="#FFFFFF" d="M33.881,96.535l1.273,0.735c0.267,0.154,0.441,0.426,0.484,0.73h239.956c-0.688-0.563-1.331-1.243-1.857-2
			H16.179c0.005,0.028,0.007,0.053,0.014,0.084l0.33,1.532c0.018,0.13,0.025,0.256,0.037,0.384h12.069
			c0.19-0.363,0.411-0.697,0.656-0.942c0.161-0.161,0.373-0.262,0.6-0.287l3.389-0.364C33.486,96.385,33.697,96.43,33.881,96.535z"
			/>
		<path fill="#FFFFFF" d="M34.907,100.603l0.12,0.625c0.049,0.253-0.002,0.515-0.142,0.731L34.858,102h241.667
			c-0.001-0.023-0.003-0.046-0.005-0.069c-0.044-0.624-0.098-1.267-0.167-1.931H35.252C35.151,100.216,35.035,100.42,34.907,100.603
			z"/>
		<path fill="#FFFFFF" d="M16.911,101.5c0.413,0.087,0.989,0.098,1.401,0.024c0.279-0.051,0.569,0.022,0.793,0.198L19.459,102h5.912
			c0.357-0.236,0.707-0.475,1.038-0.72c0.372-0.273,0.833-0.802,1.245-1.28H16.671C16.706,100.554,16.767,101.103,16.911,101.5z"/>
		<path fill="#FFFFFF" d="M33.492,105.97c-0.007,0.01-0.014,0.02-0.021,0.03h243.578c-0.16-0.685-0.27-1.348-0.346-2H34.552
			C34.321,104.787,33.886,105.416,33.492,105.97z"/>
		<path fill="#FFFFFF" d="M278.419,109.665c-0.303-0.582-0.539-1.13-0.747-1.665H32.89l0.056,0.46l0.734,0.423
			c0.244,0.14,0.417,0.376,0.477,0.651L34.26,110h244.353C278.549,109.887,278.479,109.781,278.419,109.665z"/>
		<path fill="#FFFFFF" d="M280.016,112H60.732c0.582,0.227,1.126,0.581,1.602,1.088c0.259,0.275,0.489,0.583,0.688,0.912h218.992
			C281.315,113.379,280.636,112.724,280.016,112z"/>
		<path fill="#FFFFFF" d="M39.995,112.648l0.079,0.266c0.13,0.443,0.243,0.794,0.345,1.086h3.56
			c1.072-0.606,2.731-0.993,4.118-0.945L48.538,112h-8.77C39.854,112.224,39.932,112.445,39.995,112.648z"/>
		<path fill="#FFFFFF" d="M56.711,113.762l0.124-0.006c0.467-0.659,1.14-1.304,1.823-1.755h-3.423
			C55.796,112.5,56.324,113.126,56.711,113.762z"/>
		<path fill="#FFFFFF" d="M63.867,117.212c-0.013,0.26-0.032,0.526-0.048,0.788H286.44c-0.63-0.704-1.33-1.356-2.081-2H63.78
			C63.854,116.405,63.888,116.813,63.867,117.212z"/>
		<path fill="#FFFFFF" d="M63.586,122h224.625c-0.176-0.462-0.313-0.927-0.437-1.365c-0.061-0.217-0.122-0.428-0.186-0.635H63.695
			C63.652,120.664,63.613,121.332,63.586,122z"/>
		<path fill="#FFFFFF" d="M289.411,124H63.562c0.005,0.319,0.007,0.639,0.024,0.954l0.858,0.76c0.09,0.08,0.148,0.183,0.203,0.286
			h226.285C290.437,125.314,289.938,124.649,289.411,124z"/>
		<path fill="#FFFFFF" d="M292.419,128.033c-0.008-0.011-0.016-0.022-0.024-0.033H64.883c0.091,0.435,0.228,0.851,0.38,1.315
			c0.073,0.221,0.147,0.449,0.22,0.685h228.863C293.665,129.4,292.974,128.775,292.419,128.033z"/>
		<path fill="#FFFFFF" d="M297.722,133.676c-0.029-0.048-0.137-0.142-0.232-0.224c-0.156-0.136-0.309-0.274-0.438-0.429
			c-0.176-0.218-0.318-0.444-0.457-0.67c-0.072-0.12-0.145-0.239-0.225-0.351c0,0-0.001-0.001-0.001-0.001H65.881
			c0.034,0.27,0.071,0.528,0.134,0.752c0.116,0.417,0.482,0.881,0.924,1.248h230.96
			C297.841,133.892,297.787,133.781,297.722,133.676z"/>
		<path fill="#FFFFFF" d="M80.671,137.293c0.233,0.185,0.438,0.435,0.63,0.707h219.016c-0.098-0.108-0.19-0.216-0.289-0.324
			c-0.517-0.56-0.867-1.127-1.154-1.676H72.009c0.245,0.125,0.48,0.217,0.701,0.229c0.523,0.031,1.065,0.048,1.615,0.066
			c2.044,0.066,4.157,0.134,6.072,0.844C80.496,137.176,80.589,137.228,80.671,137.293z"/>
		<path fill="#FFFFFF" d="M82.685,142h220.828c-0.459-0.659-0.958-1.326-1.497-2H82.25C82.481,140.731,82.626,141.447,82.685,142z"
			/>
		<path fill="#FFFFFF" d="M85.552,144.863c0.176,0,0.292-0.013,0.411-0.026c0.192-0.021,0.385-0.041,0.571-0.041l0.158,0.004
			c1.079,0.056,2.925,0.634,4.175,1.199h214.96c-0.081-0.175-0.155-0.356-0.24-0.527c-0.233-0.479-0.504-0.973-0.795-1.473H83.159
			C84.214,144.494,85.122,144.828,85.552,144.863z"/>
		<path fill="#FFFFFF" d="M93.193,148.33c0.105,0.209,0.206,0.412,0.316,0.584c0.233,0.365,0.494,0.725,0.751,1.085h213.276
			c-0.3-0.664-0.583-1.333-0.854-1.998c0,0-0.001-0.001-0.001-0.002H93.021C93.08,148.112,93.14,148.225,93.193,148.33z"/>
		<path fill="#FFFFFF" d="M95.225,152.087c-0.302,0.881-0.416,1.433-0.427,1.913h215.305c-0.157-0.165-0.326-0.32-0.474-0.494
			c-0.4-0.476-0.741-0.984-1.058-1.506H95.233C95.227,152.029,95.235,152.059,95.225,152.087z"/>
		<path fill="#FFFFFF" d="M95.273,157.182c0.033,0.289,0.025,0.561-0.012,0.818h218.917c-0.538-0.717-1.217-1.358-1.942-2H95.101
			C95.163,156.34,95.225,156.724,95.273,157.182z"/>
		<path fill="#FFFFFF" d="M94.026,160.758c-0.016,0.104-0.032,0.268-0.049,0.423c-0.026,0.248-0.056,0.482-0.076,0.576
			c-0.021,0.084-0.049,0.16-0.07,0.243H316.17c-0.194-0.428-0.394-0.868-0.605-1.34c-0.107-0.238-0.204-0.455-0.297-0.66H94.432
			C94.277,160.263,94.13,160.514,94.026,160.758z"/>
		<path fill="#FFFFFF" d="M92.96,164.373l-1.064,0.91c-0.146,0.124-0.324,0.204-0.515,0.23l-3.273,0.445
			c-0.014,0.014-0.03,0.027-0.044,0.041h230c-0.287-0.563-0.61-1.23-0.972-2H93.222C93.162,164.142,93.078,164.272,92.96,164.373z"
			/>
		<path fill="#FFFFFF" d="M85.978,168.508c-0.154,0.387-0.329,0.824-0.598,1.209c-0.06,0.088-0.136,0.173-0.253,0.283h237.984
			c-0.351-0.186-0.743-0.323-1.174-0.467c-0.837-0.277-1.785-0.594-2.569-1.396c-0.034-0.035-0.074-0.094-0.11-0.137H86.195
			C86.122,168.154,86.05,168.325,85.978,168.508z"/>
		<path fill="#FFFFFF" d="M83.871,172.018c-0.078,0.269-0.152,0.523-0.226,0.742c-0.116,0.344-0.409,0.597-0.765,0.663
			c-0.602,0.111-1.18,0.313-1.725,0.577h244.896c-0.388-0.531-0.718-1.088-1.029-1.633c-0.072-0.127-0.145-0.243-0.216-0.367H83.876
			C83.875,172.006,83.873,172.012,83.871,172.018z"/>
		<path fill="#FFFFFF" d="M78.175,178h251.444c-0.369-0.508-0.726-0.982-1.058-1.385c-0.175-0.215-0.376-0.416-0.586-0.615H78.673
			c-0.316,0.404-0.593,0.841-0.812,1.309c0.026,0.244,0.121,0.391,0.302,0.672C78.167,177.986,78.171,177.994,78.175,178z"/>
		<path fill="#FFFFFF" d="M79.153,180.126c0.085,0.231,0.169,0.462,0.259,0.685c0.1,0.25,0.095,0.529-0.013,0.774
			c-0.057,0.128-0.095,0.277-0.145,0.415h253.324c-0.496-0.596-1.01-1.286-1.523-2H79.106
			C79.121,180.042,79.138,180.084,79.153,180.126z"/>
		<path fill="#FFFFFF" d="M80.619,186h256.069c-0.449-0.426-0.904-0.848-1.344-1.255c-0.277-0.256-0.54-0.501-0.801-0.745H79.09
			C79.544,184.688,80.064,185.34,80.619,186z"/>
		<path fill="#FFFFFF" d="M82.274,188.412l0.171,0.752c0.021,0.086,0.029,0.176,0.025,0.266c-0.007,0.189-0.044,0.38-0.08,0.57
			h257.868c-0.211-0.259-0.417-0.524-0.611-0.805c-0.261-0.374-0.597-0.777-0.975-1.195H82.193
			C82.252,188.172,82.268,188.324,82.274,188.412z"/>
		<path fill="#FFFFFF" d="M80.21,194h263.852c-0.495-0.55-1.015-1.085-1.567-1.627c-0.125-0.123-0.251-0.249-0.377-0.373h-260.5
			C81.175,192.787,80.646,193.487,80.21,194z"/>
		<path fill="#FFFFFF" d="M78.123,196c-0.052,0.064-0.125,0.189-0.2,0.34c0.307,0.043,0.613,0.103,0.883,0.195
			c0.43,0.146,0.742,0.366,0.992,0.543c0.237,0.168,0.375,0.266,0.572,0.303c0.628-0.572,1.379-1.065,2.081-1.381H78.123z"/>
		<path fill="#FFFFFF" d="M83.994,196.396L84.721,198h262.559c-0.533-0.652-1.067-1.321-1.598-2H83.643
			C83.788,196.1,83.917,196.225,83.994,196.396z"/>
		<path fill="#FFFFFF" d="M84.823,200.254c-0.156,0.578-0.303,1.162-0.442,1.746h266.01c-0.479-0.679-0.983-1.345-1.501-2H84.891
			L84.823,200.254z"/>
		<path fill="#FFFFFF" d="M83.749,205.002c-0.086,0.304-0.184,0.645-0.28,0.998h270.802c-0.354-0.414-0.81-0.784-1.298-1.17
			c-0.333-0.263-0.671-0.533-0.993-0.83H84.026C83.947,204.3,83.855,204.629,83.749,205.002z"/>
		<path fill="#FFFFFF" d="M82.908,209.021c0.061,0.181,0.201,0.58,0.342,0.979h273.275c0.003-0.178,0.007-0.359-0.009-0.503
			c-0.158-0.265-0.534-0.868-0.931-1.497H83.002C82.934,208.397,82.893,208.756,82.908,209.021z"/>
		<path fill="#FFFFFF" d="M356.187,212.799c0.043-0.256,0.087-0.526,0.13-0.799H83.481c-0.06,0.08-0.13,0.153-0.214,0.214
			l-1.036,0.745l-0.345,0.834c-0.031,0.075-0.076,0.143-0.124,0.207h8.054c0.235-0.175,0.458-0.378,0.576-0.572
			c0.208-0.34,0.599-0.525,0.994-0.469c0.778,0.109,1.334,0.432,1.826,0.717c0.192,0.112,0.388,0.225,0.605,0.324h262.18
			C356.048,213.644,356.111,213.248,356.187,212.799z"/>
		<path fill="#FFFFFF" d="M83.854,217.275c0.903-0.518,2.163-0.717,2.917-0.773L87.198,216h-5.259
			C82.466,216.443,83.091,216.866,83.854,217.275z"/>
		<path fill="#FFFFFF" d="M356.007,216.133c-0.015-0.042-0.023-0.089-0.035-0.133H98.23c0.389,0.182,0.77,0.324,1.146,0.371
			c0.298,0.036,0.563,0.205,0.724,0.459l0.735,1.17h255.856L356.007,216.133z"/>
		<path fill="#FFFFFF" d="M358.661,221.193c-0.1-0.133-0.262-0.307-0.434-0.494c-0.24-0.261-0.439-0.486-0.609-0.699H104.175
			c0.04,0.043,0.078,0.082,0.118,0.125c0.418,0.455,0.85,0.926,1.262,1.264c0.261,0.215,0.586,0.411,0.927,0.611H359.31
			C359.07,221.717,358.847,221.443,358.661,221.193z"/>
		<path fill="#FFFFFF" d="M119.268,225.93l0.156,0.07h243.686c-0.674-0.674-1.343-1.349-1.971-2H109.092
			c0.522,0.576,1.004,1.268,1.261,2h2.479c0.059-0.009,0.108-0.029,0.169-0.033c0.767-0.051,1.454-0.013,2.147,0.033h2.73
			c0.256-0.03,0.505-0.071,0.743-0.129C118.837,225.817,119.065,225.84,119.268,225.93z"/>
		<path fill="#FFFFFF" d="M128.651,228.609c0.087,0.471,0.284,0.625,0.716,0.962c0.157,0.123,0.331,0.268,0.507,0.429H366.99
			c-0.551-0.615-1.205-1.299-1.893-2H128.241C128.446,228.149,128.604,228.355,128.651,228.609z"/>
		<path fill="#FFFFFF" d="M132.354,232.717l2.282-0.063c0.214,0.006,0.414,0.055,0.586,0.17c0.45,0.303,0.904,0.718,1.304,1.176
			h232.257c-0.002-0.03-0.005-0.062-0.007-0.092c-0.041-0.713-0.089-1.339-0.322-1.908H131.49
			C131.768,232.334,132.054,232.611,132.354,232.717z"/>
		<path fill="#FFFFFF" d="M136.873,238h232.725c-0.041-0.262-0.071-0.526-0.136-0.779c-0.063-0.256-0.143-0.502-0.223-0.748
			c-0.05-0.153-0.097-0.314-0.145-0.473H137.573C137.485,236.617,137.229,237.334,136.873,238z"/>
		<path fill="#FFFFFF" d="M130.194,240.039c-0.436,0.725-1.054,1.033-1.458,1.236c-0.099,0.049-0.233,0.117-0.273,0.148
			c-0.126,0.161-0.256,0.362-0.387,0.576h241.944c-0.111-0.67-0.164-1.339-0.211-2H131.1
			C130.791,240.016,130.486,240.028,130.194,240.039z"/>
		<path fill="#FFFFFF" d="M126.76,244.371c-0.128,0.219-0.335,0.381-0.579,0.453c-0.728,0.215-1.449,0.638-2.05,1.176h247.591
			c-0.369-0.536-0.711-1.104-1.011-1.725c-0.044-0.091-0.067-0.184-0.106-0.275H126.969
			C126.899,244.127,126.829,244.254,126.76,244.371z"/>
		<path fill="#FFFFFF" d="M125.075,248.979c0.111,0.109,0.197,0.24,0.248,0.387l0.224,0.635h249.902
			c-0.709-0.637-1.414-1.292-2.085-2H123.137C123.771,248.146,124.465,248.392,125.075,248.979z"/>
		<path fill="#FFFFFF" d="M128.49,252.42l0.201,0.971c0.043,0.206,0.008,0.418-0.079,0.609h250.827
			c-0.552-0.716-1.158-1.374-1.808-2h-249.38C128.364,252.121,128.457,252.258,128.49,252.42z"/>
		<path fill="#FFFFFF" d="M128.324,256.67c0.088,0.32,0.174,0.641,0.229,0.953c0.021,0.128,0.034,0.25,0.053,0.377h252.57
			c-0.162-0.694-0.351-1.363-0.595-2H128.161C128.204,256.211,128.259,256.433,128.324,256.67z"/>
		<path fill="#FFFFFF" d="M129.226,262h253.076c-0.275-0.66-0.483-1.33-0.653-2H128.883C128.972,260.677,129.072,261.34,129.226,262
			z"/>
		<path fill="#FFFFFF" d="M128.151,264.369c-0.181,0.191-0.337,0.355-0.465,0.545c-0.199,0.301-0.273,0.671-0.313,1.086h257.273
			c-0.469-0.664-0.909-1.334-1.306-2H128.486C128.372,264.133,128.258,264.257,128.151,264.369z"/>
		<path fill="#FFFFFF" d="M125.907,270h262.055c-0.61-0.627-1.208-1.298-1.786-2H127.17
			C126.984,268.789,126.371,269.484,125.907,270z"/>
		<path fill="#FFFFFF" d="M125.268,272.094c-0.09,0.62-0.188,1.277-0.349,1.906h267.048c-0.213-0.357-0.438-0.703-0.693-1.02
			c-0.245-0.301-0.589-0.564-0.954-0.844c-0.058-0.045-0.113-0.092-0.171-0.137H125.281
			C125.277,272.031,125.272,272.062,125.268,272.094z"/>
		<path fill="#FFFFFF" d="M123.385,276.287l-1.824,0.234c-0.042,0.314-0.054,0.816-0.036,1.479h272.08
			c-0.205-0.681-0.426-1.354-0.677-2H123.945C123.791,276.15,123.6,276.259,123.385,276.287z"/>
		<path fill="#FFFFFF" d="M121.753,281.424c0.02,0.219,0.037,0.408,0.051,0.576h272.972c-0.213-0.659-0.406-1.33-0.596-2H121.635
			C121.668,280.441,121.706,280.909,121.753,281.424z"/>
		<path fill="#FFFFFF" d="M121.937,284.434c0.079,0.248,0.179,0.49,0.278,0.732c0.104,0.255,0.212,0.534,0.31,0.834h274.09
			c-0.427-0.618-0.783-1.292-1.093-2H121.863C121.879,284.145,121.892,284.288,121.937,284.434z"/>
		<path fill="#FFFFFF" d="M122.639,290H401.37c-0.136-0.289-0.266-0.591-0.413-0.867c-0.925-0.27-1.705-0.658-2.38-1.133H122.83
			C122.839,288.726,122.752,289.387,122.639,290z"/>
		<path fill="#FFFFFF" d="M122.432,294h281.022c-0.068-0.102-0.134-0.191-0.202-0.295c-0.362-0.554-0.664-1.129-0.941-1.705H122.256
			C122.164,292.68,122.175,293.314,122.432,294z"/>
		<path fill="#FFFFFF" d="M123.135,296.918c-0.021,0.131-0.068,0.258-0.138,0.373c-0.181,0.292-0.359,0.52-0.534,0.709h283.824
			c-0.344-0.492-0.697-0.984-1.065-1.49c-0.12-0.166-0.245-0.342-0.367-0.51H123.278L123.135,296.918z"/>
		<path fill="#FFFFFF" d="M119.953,300.447c-0.075,0.182-0.152,0.371-0.241,0.564c-0.18,0.388-0.335,0.702-0.477,0.988h34.056
			c0.082-0.075,0.158-0.154,0.254-0.221c0.778-0.537,1.736-0.742,2.58-0.924c0.424-0.092,0.825-0.178,1.154-0.293
			c0.415-0.148,0.824-0.344,1.258-0.549c0.01-0.005,0.02-0.009,0.029-0.014h-38.421
			C120.083,300.136,120.021,300.281,119.953,300.447z"/>
		<path fill="#FFFFFF" d="M407.571,300H164.649c0.096,0.021,0.196,0.03,0.276,0.074l2.377,1.275
			c0.222,0.119,0.391,0.316,0.473,0.555c0.012,0.032,0.013,0.063,0.023,0.096h30.627c0.545-0.352,1.039-0.648,1.369-0.828
			c0.145-0.09,0.167-0.094,1.342-0.301l0.215-0.039c0.262-0.049,0.531,0.006,0.75,0.158c0.32,0.219,0.673,0.441,1.033,0.67
			c0.177,0.112,0.354,0.226,0.531,0.34h204.899C408.268,301.29,407.935,300.629,407.571,300z"/>
		<path fill="#FFFFFF" d="M168.431,304.838c0.298,0.369,0.607,0.658,0.907,0.938c0.08,0.074,0.16,0.148,0.239,0.225h15.891
			c0.001-0.167,0.011-0.329,0.029-0.48c0.063-0.512,0.501-0.875,1.017-0.879l2.439,0.061c0.35,0.008,0.67,0.199,0.844,0.504
			c0.132,0.232,0.354,0.509,0.625,0.795h4.342c0.055-0.234,0.093-0.47,0.1-0.697c0.007-0.215,0.082-0.422,0.216-0.592
			c0.18-0.227,0.422-0.468,0.687-0.711H168.12C168.173,304.344,168.251,304.612,168.431,304.838z"/>
		<path fill="#FFFFFF" d="M118.287,305.475l0.351,0.525h30.965c0.001-0.007,0.002-0.013,0.004-0.02
			c0.167-0.603,0.543-1.37,1.047-1.98h-32.232C118.345,304.381,118.305,304.83,118.287,305.475z"/>
		<path fill="#FFFFFF" d="M409.429,304.623c-0.053-0.218-0.116-0.416-0.174-0.623H205.998c0.049,0.097,0.103,0.194,0.145,0.287
			c0.158,0.348,0.298,0.656,0.636,0.9l3.157-0.061c0.336,0,0.67,0.166,0.857,0.455c0.088,0.136,0.185,0.276,0.282,0.418H409.64
			C409.609,305.562,409.545,305.107,409.429,304.623z"/>
		<path fill="#FFFFFF" d="M150.104,309.67c-0.198-0.522-0.407-1.08-0.53-1.67h-30.696c-0.203,0.675-0.506,1.348-0.833,2h32.18
			C150.185,309.891,150.147,309.783,150.104,309.67z"/>
		<path fill="#FFFFFF" d="M409.545,308H224.736c0.173,0.119,0.348,0.233,0.528,0.318c0.248,0.115,0.438,0.328,0.524,0.588
			s0.063,0.545-0.064,0.787c-0.044,0.082-0.081,0.19-0.114,0.307h183.505C409.286,309.315,409.442,308.66,409.545,308z"/>
		<path fill="#FFFFFF" d="M215.58,308.658c0.044-0.021,0.178-0.135,0.266-0.209c0.183-0.152,0.396-0.319,0.648-0.449h-3.872
			c0.432,0.496,0.829,0.898,1.103,1.084c0.143-0.029,0.289-0.057,0.438-0.084C214.67,308.902,215.195,308.803,215.58,308.658z"/>
		<path fill="#FFFFFF" d="M171.133,308.662l0.17,0.771c0.023,0.102,0.029,0.207,0.02,0.311c-0.009,0.089-0.036,0.17-0.052,0.256
			h12.023c0.7-0.539,1.609-1.391,2.107-2H170.94C171.013,308.204,171.079,308.419,171.133,308.662z"/>
		<path fill="#FFFFFF" d="M225.379,312c-0.009,0.016-0.01,0.034-0.021,0.049l-0.764,1.092c-0.119,0.168-0.286,0.297-0.48,0.367
			c-0.042,0.016-0.23,0.074-0.451,0.143c-0.196,0.061-0.424,0.131-0.565,0.176c-0.063,0.049-0.129,0.118-0.192,0.174H408.41
			c0.035-0.708,0.126-1.371,0.246-2H225.379z"/>
		<path fill="#FFFFFF" d="M171.902,313.92c0.057,0.014,0.16,0.031,0.33,0.031c0.749,0,1.791-0.326,2.352-0.504
			c0.15-0.049,0.301-0.127,0.453-0.203c0.246-0.123,0.524-0.262,0.838-0.352c0.393-0.117,0.801-0.18,1.196-0.242
			c0.399-0.063,0.775-0.123,1.071-0.229c0.267-0.098,0.553-0.254,0.848-0.422h-8.215
			C170.872,312.573,171.393,313.414,171.902,313.92z"/>
		<path fill="#FFFFFF" d="M150.278,312.85c0.007-0.314,0.06-0.592,0.115-0.85h-31.905l0.486,2h31.53
			C150.373,313.658,150.27,313.279,150.278,312.85z"/>
		<path fill="#FFFFFF" d="M119.609,316.586c0.106,0.341,0.332,0.85,0.615,1.414h29.886c0.326-0.66,0.735-1.563,0.905-2h-31.57
			C119.494,316.184,119.542,316.368,119.609,316.586z"/>
		<path fill="#FFFFFF" d="M219.96,316.057c-0.284,0.359-0.553,1.002-0.508,1.285c0.036,0.232-0.02,0.462-0.136,0.658h189.543
			c-0.189-0.709-0.313-1.373-0.384-2H220.299L219.96,316.057z"/>
		<path fill="#FFFFFF" d="M409.528,320H214.79c-0.298,0.449-0.578,0.969-0.776,1.447c0.079,0.183,0.174,0.368,0.273,0.553h9.651
			c0.116-0.015,0.229-0.028,0.301-0.045c0.382-0.164,0.883-0.443,1.368-0.713c0.274-0.152,0.544-0.301,0.809-0.438
			c0.087-0.045,0.18-0.078,0.276-0.096c0.817-0.15,1.9,0.229,2.663,0.748l0.561-0.324c0.302-0.176,0.671-0.182,0.978-0.014
			c0.619,0.334,1.725,0.287,2.564-0.094c0.207-0.094,0.44-0.115,0.664-0.057c0.752,0.195,1.541,0.549,2.256,1.031h174.071
			C410.087,321.299,409.782,320.633,409.528,320z"/>
		<path fill="#FFFFFF" d="M145.287,321.484l0.015-0.002l0.73-1.482h-3.037C143.833,320.312,144.608,320.812,145.287,321.484z"/>
		<path fill="#FFFFFF" d="M122.656,321.689c0.135,0.105,0.281,0.207,0.421,0.311h9.482c0.515-0.098,1.08-0.088,1.64-0.033
			c0.16,0.017,0.318,0.027,0.474,0.033h0.274c0.193-0.009,0.375-0.034,0.531-0.098l0.879-0.955c0.312-0.338,0.815-0.418,1.219-0.199
			l0.68,0.375c0.449-0.25,0.983-0.689,1.293-1.084c0.013-0.016,0.032-0.023,0.046-0.039h-18.245
			C121.836,320.772,122.319,321.43,122.656,321.689z"/>
		<path fill="#FFFFFF" d="M217.42,324.18c0.222,0.051,0.42,0.178,0.561,0.355l0.594,0.754l0.067-0.004
			c0.284-0.469,0.667-0.91,1.06-1.285h-3.064L217.42,324.18z"/>
		<path fill="#FFFFFF" d="M238.685,325.033c0.05,0.195,0.039,0.402-0.031,0.592L238.515,326h165.548
			c0.169-0.09,0.328-0.191,0.498-0.277c0.388-0.197,0.79-0.352,1.181-0.502c0.389-0.148,0.758-0.289,1.073-0.461
			c0.359-0.195,0.819-0.457,1.343-0.76H238.258C238.438,324.326,238.592,324.665,238.685,325.033z"/>
		<path fill="#FFFFFF" d="M241.911,330h9.35c0.062-0.077,0.121-0.155,0.184-0.24c0.319-0.432,0.716-0.967,1.658-1.471
			c0.207-0.111,0.445-0.146,0.678-0.098c1.118,0.235,2.474,0.826,3.563,1.809H397.26c0.078-0.032,0.159-0.067,0.233-0.096
			c0.119-0.047,0.238-0.088,0.343-0.146c0.755-0.449,1.517-0.932,2.276-1.414c0.181-0.114,0.37-0.229,0.552-0.344H239.73
			C240.609,328.601,241.479,329.316,241.911,330z"/>
		<path fill="#FFFFFF" d="M258.952,332.523c0.057,0.201,0.103,0.369,0.178,0.531l0.486-0.15c0.199-0.063,0.412-0.061,0.61,0.004
			l1.108,0.365c0.223,0.074,0.412,0.223,0.535,0.42c0.065,0.105,0.154,0.204,0.231,0.307h99.959c0.804-0.382,1.634-0.65,2.376-0.602
			c0.221,0.014,0.432,0.1,0.598,0.246c0.157,0.139,0.313,0.252,0.465,0.355h26.711c0.108-0.083,0.217-0.166,0.313-0.236
			c0.395-0.285,0.818-0.502,1.23-0.711c0.419-0.215,0.814-0.416,1.094-0.646c0.041-0.051,0.098-0.158,0.172-0.279
			c0.023-0.038,0.056-0.086,0.081-0.127H258.788C258.856,332.187,258.908,332.361,258.952,332.523z"/>
		<path fill="#FFFFFF" d="M310.999,336.387c0.299,0.02,0.574,0.176,0.747,0.422l0.837,1.191h17.479c0.174-0.674,0.397-1.396,0.941-2
			h-22.609C309.352,336.199,310.218,336.33,310.999,336.387z"/>
		<path fill="#FFFFFF" d="M337.847,336.75c0.422,0.508,0.822,0.99,1.195,1.15c0.727-0.289,1.205-0.246,1.662-0.225
			c0.195,0.008,0.393,0.021,0.629-0.012c0.519-0.078,1.105-0.238,1.673-0.391c0.26-0.07,0.517-0.141,0.769-0.203
			c0.197-0.049,0.408-0.035,0.6,0.037c1.046,0.403,2.139,0.664,3.272,0.893h10.445c0.216-0.664,0.443-1.346,0.825-1.953
			c0.012-0.019,0.032-0.029,0.045-0.047h-21.776C337.419,336.248,337.641,336.502,337.847,336.75z"/>
		<path fill="#FFFFFF" d="M370.417,336.371c0.26,0.334,0.464,0.598,0.82,0.791c0.098,0.055,0.268,0.105,0.432,0.154
			c0.275,0.082,0.587,0.174,0.884,0.354c0.165,0.104,0.313,0.218,0.461,0.33h15.987c0.075-0.234,0.147-0.476,0.232-0.691
			c0.179-0.441,0.482-0.884,0.835-1.309h-19.953C370.224,336.126,370.325,336.252,370.417,336.371z"/>
		<path fill="#FFFFFF" d="M269.021,336.57c0.777,0.566,1.448,1.057,2.348,1.057c0.455,0,0.945-0.121,1.5-0.369
			c0.248-0.109,0.529-0.117,0.781-0.016l0.759,0.305c0.503-0.162,1.096-0.477,1.555-0.832c0.251-0.197,0.582-0.262,0.89-0.172
			l1.266,0.363c0.324,0.092,0.581,0.344,0.68,0.668c0.031,0.103,0.113,0.256,0.217,0.426h26.308c0.21-0.394,0.343-0.83,0.366-1.408
			c0.009-0.225,0.113-0.423,0.257-0.592h-37.76C268.474,336.181,268.751,336.374,269.021,336.57z"/>
		<path fill="#FFFFFF" d="M318.089,340.684c0.156,0.443,0.315,0.894,0.478,1.316h9.379c0.498-0.648,0.958-1.337,1.34-2h-11.439
			C317.926,340.222,318.007,340.45,318.089,340.684z"/>
		<path fill="#FFFFFF" d="M283.447,340.693c0.194,0.109,0.388,0.217,0.581,0.32c0.362,0.141,0.732,0.279,1.105,0.42
			c0.484,0.182,0.977,0.369,1.466,0.566h14.734c0.152-0.351,0.347-0.711,0.635-1.092c0.208-0.277,0.544-0.428,0.894-0.393
			l0.593,0.055c0.121-0.208,0.252-0.389,0.382-0.57H282.12C282.568,340.207,283.01,340.452,283.447,340.693z"/>
		<path fill="#FFFFFF" d="M376.912,340.432c0.476,0.379,0.843,0.873,1.2,1.352c0.057,0.076,0.11,0.144,0.166,0.217h10.025
			c0.022-0.656,0.104-1.333,0.216-2h-12.303C376.463,340.12,376.699,340.259,376.912,340.432z"/>
		<path fill="#FFFFFF" d="M290.312,344c0.648,0.461,1.281,0.96,1.893,1.451c0.23,0.185,0.462,0.367,0.692,0.549h1.682
			c0.045-0.014,0.089-0.025,0.135-0.039c0.56-0.17,1.194-0.359,1.874-0.359c0.298,0,0.589,0.037,0.864,0.111
			c0.275,0.073,0.533,0.173,0.782,0.287h3.482c-0.312-0.672-0.565-1.326-0.663-2H290.312z"/>
		<path fill="#FFFFFF" d="M381.37,344.967c0.132,0.176,0.262,0.348,0.391,0.512c0.804,0.256,2.709,0.445,4.011,0.445l0.257-0.004
			c0.313-0.014,0.822-0.15,1.271-0.27c0.156-0.041,0.309-0.082,0.453-0.117l0.453-0.512c0.024-0.154,0.051-0.313,0.078-0.475
			c0.031-0.184,0.06-0.366,0.087-0.547h-7.762C380.871,344.315,381.124,344.642,381.37,344.967z"/>
	</g>
</g>
</svg>
