<?xml version="1.0" encoding="utf-8"?>
<!-- Generator: Adobe Illustrator 16.0.0, SVG Export Plug-In . SVG Version: 6.00 Build 0)  -->
<!DOCTYPE svg PUBLIC "-//W3C//DTD SVG 1.1//EN" "http://www.w3.org/Graphics/SVG/1.1/DTD/svg11.dtd">
<svg version="1.1" xmlns="http://www.w3.org/2000/svg" xmlns:xlink="http://www.w3.org/1999/xlink" x="0px" y="0px" width="938px"
	 height="80px" viewBox="0 0 938 80" enable-background="new 0 0 938 80" xml:space="preserve">
<g id="BG">
	<g>
		<linearGradient id="SVGID_1_" gradientUnits="userSpaceOnUse" x1="0.5" y1="40" x2="937.5" y2="40">
			<stop  offset="0" style="stop-color:#424242"/>
			<stop  offset="0.5" style="stop-color:#808080"/>
			<stop  offset="1" style="stop-color:#424242"/>
		</linearGradient>
		<rect x="0.5" y="0.5" fill="url(#SVGID_1_)" width="937" height="79"/>
		<path fill="#141414" d="M937,1v78H1V1H937 M938,0H0v80h938V0L938,0z"/>
	</g>
	<rect x="7.725" y="5" opacity="0.7" fill="#121212" stroke="#E6E6E6" stroke-miterlimit="10" width="922.92" height="70"/>
	<rect x="302" y="40" opacity="0.3" width="625" height="31.5"/>
	<g>
		<path fill="#949495" d="M326.5,28.75c-2.481,0-4.5-2.019-4.5-4.5s2.019-4.5,4.5-4.5s4.5,2.019,4.5,4.5S328.981,28.75,326.5,28.75z
			 M326.5,20.75c-1.93,0-3.5,1.57-3.5,3.5s1.57,3.5,3.5,3.5s3.5-1.57,3.5-3.5S328.43,20.75,326.5,20.75z"/>
	</g>
	<g>
		<path fill="#949495" d="M326.5,60.25c-2.481,0-4.5-2.018-4.5-4.5c0-2.48,2.019-4.5,4.5-4.5s4.5,2.02,4.5,4.5
			C331,58.232,328.981,60.25,326.5,60.25z M326.5,52.25c-1.93,0-3.5,1.57-3.5,3.5s1.57,3.5,3.5,3.5s3.5-1.57,3.5-3.5
			S328.43,52.25,326.5,52.25z"/>
	</g>
</g>
<g id="TitleBg">
	<g>
		<g>
			<linearGradient id="SVGID_2_" gradientUnits="userSpaceOnUse" x1="155.3496" y1="71.5" x2="155.3496" y2="8.5005">
				<stop  offset="0" style="stop-color:#6A6A6A"/>
				<stop  offset="0.0446" style="stop-color:#7F7F7F"/>
				<stop  offset="0.1374" style="stop-color:#A4A4A4"/>
				<stop  offset="0.2303" style="stop-color:#C1C1C1"/>
				<stop  offset="0.3223" style="stop-color:#D5D5D5"/>
				<stop  offset="0.4127" style="stop-color:#E2E2E2"/>
				<stop  offset="0.5" style="stop-color:#E6E6E6"/>
				<stop  offset="0.5873" style="stop-color:#E2E2E2"/>
				<stop  offset="0.6777" style="stop-color:#D5D5D5"/>
				<stop  offset="0.7697" style="stop-color:#C1C1C1"/>
				<stop  offset="0.8626" style="stop-color:#A4A4A4"/>
				<stop  offset="0.9554" style="stop-color:#7F7F7F"/>
				<stop  offset="1" style="stop-color:#6A6A6A"/>
			</linearGradient>
			<rect x="19.26" y="8.5" fill="url(#SVGID_2_)" width="272.18" height="63"/>
		</g>
		<linearGradient id="SVGID_3_" gradientUnits="userSpaceOnUse" x1="14.5693" y1="71.5" x2="14.5693" y2="8.5005">
			<stop  offset="0" style="stop-color:#6A6A6A"/>
			<stop  offset="0.0612" style="stop-color:#7D7D7D"/>
			<stop  offset="0.1731" style="stop-color:#9A9A9A"/>
			<stop  offset="0.2845" style="stop-color:#AFAFAF"/>
			<stop  offset="0.3942" style="stop-color:#BBBBBB"/>
			<stop  offset="0.5" style="stop-color:#BFBFBF"/>
			<stop  offset="0.606" style="stop-color:#BBBBBB"/>
			<stop  offset="0.7158" style="stop-color:#AEAEAE"/>
			<stop  offset="0.8274" style="stop-color:#9A9A9A"/>
			<stop  offset="0.9395" style="stop-color:#7D7D7D"/>
			<stop  offset="1" style="stop-color:#6A6A6A"/>
		</linearGradient>
		<rect x="11" y="8.5" fill="url(#SVGID_3_)" width="7.139" height="63"/>
		<linearGradient id="SVGID_4_" gradientUnits="userSpaceOnUse" x1="295.6924" y1="71.5" x2="295.6924" y2="8.5005">
			<stop  offset="0" style="stop-color:#6A6A6A"/>
			<stop  offset="0.0605" style="stop-color:#7D7D7D"/>
			<stop  offset="0.1726" style="stop-color:#9A9A9A"/>
			<stop  offset="0.2842" style="stop-color:#AEAEAE"/>
			<stop  offset="0.394" style="stop-color:#BBBBBB"/>
			<stop  offset="0.5" style="stop-color:#BFBFBF"/>
			<stop  offset="0.606" style="stop-color:#BBBBBB"/>
			<stop  offset="0.7158" style="stop-color:#AEAEAE"/>
			<stop  offset="0.8274" style="stop-color:#9A9A9A"/>
			<stop  offset="0.9395" style="stop-color:#7D7D7D"/>
			<stop  offset="1" style="stop-color:#6A6A6A"/>
		</linearGradient>
		<rect x="292.125" y="8.5" fill="url(#SVGID_4_)" width="7.135" height="63"/>
	</g>
	<rect x="21.498" y="11" fill="#0F3551" width="267.27" height="58"/>
	<linearGradient id="SVGID_5_" gradientUnits="userSpaceOnUse" x1="155.1328" y1="69" x2="155.1328" y2="11.0005">
		<stop  offset="0.4" style="stop-color:#000000;stop-opacity:0"/>
		<stop  offset="1" style="stop-color:#000000;stop-opacity:0.3"/>
	</linearGradient>
	<rect x="21.498" y="11" fill="url(#SVGID_5_)" width="267.27" height="58"/>
</g>
</svg>
