<?xml version="1.0" encoding="utf-8"?>
<!-- Generator: Adobe Illustrator 16.0.0, SVG Export Plug-In . SVG Version: 6.00 Build 0)  -->
<!DOCTYPE svg PUBLIC "-//W3C//DTD SVG 1.1//EN" "http://www.w3.org/Graphics/SVG/1.1/DTD/svg11.dtd">
<svg version="1.1" xmlns="http://www.w3.org/2000/svg" xmlns:xlink="http://www.w3.org/1999/xlink" x="0px" y="0px" width="541px"
	 height="195px" viewBox="0 0 541 195" enable-background="new 0 0 541 195" xml:space="preserve">
<g id="Bg">
	<g id="Line" display="none">
		<rect x="21.5" y="110.001" opacity="0.15" fill="#FFFFFF" enable-background="new    " width="498" height="2"/>
		<rect x="21.5" y="112.716" opacity="0.15" fill="#FFFFFF" enable-background="new    " width="498" height="2"/>
		<rect x="21.5" y="107.085" opacity="0.15" fill="#FFFFFF" enable-background="new    " width="498" height="2"/>
		<rect x="21.5" y="104.169" opacity="0.15" fill="#FFFFFF" enable-background="new    " width="498" height="2"/>
		<rect x="21.5" y="101.253" opacity="0.13" fill="#FFFFFF" enable-background="new    " width="498" height="2"/>
		<rect x="21.5" y="98.337" opacity="0.13" fill="#FFFFFF" enable-background="new    " width="498" height="2"/>
		<rect x="21.5" y="95.421" opacity="0.13" fill="#FFFFFF" enable-background="new    " width="498" height="2"/>
		<rect x="21.5" y="92.505" opacity="0.13" fill="#FFFFFF" enable-background="new    " width="498" height="2"/>
		<rect x="21.5" y="89.589" opacity="0.13" fill="#FFFFFF" enable-background="new    " width="498" height="2"/>
		<rect x="21.5" y="86.673" opacity="0.1" fill="#FFFFFF" enable-background="new    " width="498" height="2"/>
		<rect x="21.5" y="83.757" opacity="0.1" fill="#FFFFFF" enable-background="new    " width="498" height="2"/>
		<rect x="21.5" y="80.841" opacity="0.1" fill="#FFFFFF" enable-background="new    " width="498" height="2"/>
		<rect x="21.5" y="77.925" opacity="0.1" fill="#FFFFFF" enable-background="new    " width="498" height="2"/>
		<rect x="21.5" y="75.009" opacity="0.1" fill="#FFFFFF" enable-background="new    " width="498" height="2"/>
		<rect x="21.5" y="72.093" opacity="0.08" fill="#FFFFFF" enable-background="new    " width="498" height="2"/>
		<rect x="21.5" y="69.177" opacity="0.08" fill="#FFFFFF" enable-background="new    " width="498" height="2"/>
		<rect x="21.5" y="66.261" opacity="0.08" fill="#FFFFFF" enable-background="new    " width="498" height="2"/>
		<rect x="21.5" y="63.345" opacity="0.08" fill="#FFFFFF" enable-background="new    " width="498" height="2"/>
		<rect x="21.5" y="60.429" opacity="0.08" fill="#FFFFFF" enable-background="new    " width="498" height="2"/>
		<rect x="21.5" y="57.513" opacity="0.05" fill="#FFFFFF" enable-background="new    " width="498" height="2"/>
		<rect x="21.5" y="54.597" opacity="0.05" fill="#FFFFFF" enable-background="new    " width="498" height="2"/>
		<rect x="21.5" y="51.681" opacity="0.05" fill="#FFFFFF" enable-background="new    " width="498" height="2"/>
		<rect x="21.5" y="48.765" opacity="0.05" fill="#FFFFFF" enable-background="new    " width="498" height="2"/>
		<rect x="21.5" y="45.849" opacity="0.05" fill="#FFFFFF" enable-background="new    " width="498" height="2"/>
		<rect x="21.5" y="42.933" opacity="0.03" fill="#FFFFFF" enable-background="new    " width="498" height="2"/>
		<rect x="21.5" y="40.017" opacity="0.03" fill="#FFFFFF" enable-background="new    " width="498" height="2"/>
		<rect x="21.5" y="37.101" opacity="0.03" fill="#FFFFFF" enable-background="new    " width="498" height="2"/>
		<rect x="21.5" y="34.185" opacity="0.03" fill="#FFFFFF" enable-background="new    " width="498" height="2"/>
		<rect x="21.5" y="31.269" opacity="0.03" fill="#FFFFFF" enable-background="new    " width="498" height="2"/>
		<rect x="21.5" y="28.353" opacity="0.01" fill="#FFFFFF" enable-background="new    " width="498" height="2"/>
		<rect x="21.5" y="25.437" opacity="0.01" fill="#FFFFFF" enable-background="new    " width="498" height="2"/>
		<rect x="21.5" y="22.521" opacity="0.01" fill="#FFFFFF" enable-background="new    " width="498" height="2"/>
		<rect x="21.5" y="19.604" opacity="0.01" fill="#FFFFFF" enable-background="new    " width="498" height="2"/>
		<rect x="21.5" y="16.688" opacity="0.01" fill="#FFFFFF" enable-background="new    " width="498" height="2"/>
		<rect x="21.5" y="13.772" opacity="0.01" fill="#FFFFFF" enable-background="new    " width="498" height="2"/>
	</g>
	<g id="LineBG">
	<linearGradient id="SVGID_1_" gradientUnits="userSpaceOnUse" x1="626.3398" y1="-79.5996" x2="626.3398" y2="-179.6001" gradientTransform="matrix(1 0 0 -1 -355.8398 -65.5996)">
		<stop  offset="0" style="stop-color:#FFFFFF;stop-opacity:0"/>
		<stop  offset="1" style="stop-color:#707070;stop-opacity:0.1"/>
	</linearGradient>
	<rect x="21.5" y="14" fill="url(#SVGID_1_)" width="498" height="100"/>
    </g>
	<g id="panel">
		
			<linearGradient id="SVGID_1_" gradientUnits="userSpaceOnUse" x1="515.5999" y1="-277.5562" x2="515.5999" y2="-307.5562" gradientTransform="matrix(1 0 0 -1 -245.0996 -162.8398)">
			<stop  offset="0" style="stop-color:#3B3B3B;stop-opacity:0.35"/>
			<stop  offset="1" style="stop-color:#808181"/>
		</linearGradient>
		<polygon fill="url(#SVGID_1_)" points="539.5,144.716 1.5,144.716 23.122,114.716 517.879,114.716 		"/>
		
			<linearGradient id="SVGID_2_" gradientUnits="userSpaceOnUse" x1="515.6008" y1="-324.5552" x2="515.6008" y2="-307.5552" gradientTransform="matrix(1 0 0 -1 -245.0996 -162.8398)">
			<stop  offset="0" style="stop-color:#808080"/>
			<stop  offset="1" style="stop-color:#3B3B3B"/>
		</linearGradient>
		<rect x="1.5" y="144.716" fill="url(#SVGID_2_)" width="538" height="17"/>
		
			<linearGradient id="SVGID_3_" gradientUnits="userSpaceOnUse" x1="246.6003" y1="-308.5557" x2="784.5999" y2="-308.5557" gradientTransform="matrix(1 0 0 -1 -245.0996 -162.8398)">
			<stop  offset="0" style="stop-color:#FFFFFF;stop-opacity:0"/>
			<stop  offset="0.5" style="stop-color:#FFFFFF"/>
			<stop  offset="1" style="stop-color:#FFFFFF;stop-opacity:0"/>
		</linearGradient>
		<rect x="1.5" y="144.716" fill="url(#SVGID_3_)" width="538" height="2"/>
		<g opacity="0.2">
			<rect x="1.5" y="159.675" fill="#FFFFFF" width="538" height="1"/>
			<rect x="1.5" y="157.631" fill="#FFFFFF" width="538" height="1"/>
			<rect x="1.5" y="155.631" fill="#FFFFFF" width="538" height="1"/>
			<rect x="1.5" y="153.631" fill="#FFFFFF" width="538" height="1"/>
		</g>
		<g opacity="0.2">
			<rect x="1.5" y="151.716" fill="#FFFFFF" width="538" height="1"/>
			<rect x="1.5" y="149.672" fill="#FFFFFF" width="538" height="1"/>
			<rect x="1.5" y="147.672" fill="#FFFFFF" width="538" height="1"/>
			<rect x="1.5" y="145.672" fill="#FFFFFF" width="538" height="1"/>
		</g>
		<polygon opacity="0.05" fill="#FFFFFF" enable-background="new    " points="23.087,118.716 1.5,144.716 309.075,144.716 
			220.522,118.716 		"/>
	</g>
	<g id="titBar">
		
			<linearGradient id="SVGID_4_" gradientUnits="userSpaceOnUse" x1="515.5999" y1="-307.3403" x2="515.5999" y2="-357.3403" gradientTransform="matrix(1 0 0 -1 -245.0996 -162.8398)">
			<stop  offset="0" style="stop-color:#0089C0"/>
			<stop  offset="1" style="stop-color:#002D3F"/>
		</linearGradient>
		<path fill="url(#SVGID_4_)" d="M540.5,192.5c0,1.104-0.896,2-2,2H2.5c-1.104,0-2-0.896-2-2v-46c0-1.104,0.896-2,2-2h536
			c1.104,0,2,0.896,2,2V192.5z"/>
		<g opacity="0.6">
			<path fill="#FFFFFF" d="M538.5,144.5H2.5c-1.104,0-2,0.896-2,2v2c0-1.104,0.896-2,2-2h536c1.104,0,2,0.896,2,2v-2
				C540.5,145.396,539.604,144.5,538.5,144.5z"/>
		</g>
		<g>
			
				<linearGradient id="SVGID_5_" gradientUnits="userSpaceOnUse" x1="245.1003" y1="-332.3398" x2="786.0999" y2="-332.3398" gradientTransform="matrix(1 0 0 -1 -245.0996 -162.8398)">
				<stop  offset="0" style="stop-color:#003D7F"/>
				<stop  offset="0.5" style="stop-color:#008AD4"/>
				<stop  offset="1" style="stop-color:#003D7F"/>
			</linearGradient>
			<path fill="url(#SVGID_5_)" d="M538.5,195H2.5c-1.378,0-2.5-1.121-2.5-2.5v-46c0-1.379,1.122-2.5,2.5-2.5h536
				c1.379,0,2.5,1.121,2.5,2.5v46C541,193.879,539.879,195,538.5,195z M2.5,145c-0.827,0-1.5,0.673-1.5,1.5v46
				c0,0.827,0.673,1.5,1.5,1.5h536c0.826,0,1.5-0.673,1.5-1.5v-46c0-0.827-0.674-1.5-1.5-1.5H2.5z"/>
		</g>
	</g>
	<g id="arrow" opacity="0.1">
		<g>
			<path fill="none" d="M452.268,145.083h-6.823c-0.096,0.339-0.221,0.674-0.407,0.992L431.27,169.5l13.768,23.426
				c0.206,0.35,0.336,0.721,0.433,1.096h6.858L437.919,169.5L452.268,145.083z"/>
			<path fill="none" d="M435.809,145.083h-6.824c-0.097,0.339-0.221,0.674-0.408,0.992L414.811,169.5l13.766,23.426
				c0.206,0.35,0.336,0.721,0.433,1.096h6.86L421.46,169.5L435.809,145.083z"/>
			<polygon fill="none" points="419.349,145.083 121.65,145.083 136,169.5 121.59,194.021 419.407,194.021 404.998,169.5 			"/>
			<path fill="none" d="M468.728,145.083h-6.823c-0.097,0.339-0.221,0.674-0.408,0.992L447.729,169.5l13.767,23.426
				c0.206,0.35,0.336,0.721,0.433,1.096h6.859L454.379,169.5L468.728,145.083z"/>
			<path fill="none" d="M109.729,169.5l-13.767-23.425c-0.188-0.318-0.313-0.653-0.408-0.992h-6.823l14.35,24.417l-14.41,24.521
				h6.859c0.097-0.375,0.227-0.746,0.433-1.096L109.729,169.5z"/>
			<path fill="none" d="M93.27,169.5l-13.767-23.425c-0.188-0.318-0.313-0.653-0.408-0.992h-6.823l14.35,24.417l-14.409,24.521
				h6.858c0.097-0.375,0.227-0.746,0.433-1.096L93.27,169.5z"/>
			<path fill="none" d="M485.188,145.083h-6.824c-0.097,0.339-0.221,0.674-0.408,0.992L464.189,169.5l13.766,23.426
				c0.206,0.35,0.336,0.721,0.433,1.096h6.86L470.838,169.5L485.188,145.083z"/>
			<path fill="none" d="M126.188,169.5l-13.766-23.425c-0.188-0.318-0.313-0.653-0.408-0.992h-6.824L119.54,169.5l-14.41,24.521
				h6.86c0.096-0.375,0.227-0.746,0.432-1.096L126.188,169.5z"/>
			<path fill="none" d="M76.81,169.5l-13.766-23.425c-0.188-0.318-0.313-0.653-0.408-0.992h-6.824L70.162,169.5l-14.41,24.521h6.859
				c0.097-0.375,0.228-0.746,0.433-1.096L76.81,169.5z"/>
			<path fill="#FFFFFF" d="M70.161,169.5l-14.351-24.417h-9.636c0.096,0.339,0.221,0.674,0.408,0.992L60.35,169.5l-13.767,23.426
				c-0.206,0.35-0.336,0.721-0.433,1.096h9.601L70.161,169.5z"/>
			<path fill="#FFFFFF" d="M72.271,145.083h-9.636c0.096,0.339,0.221,0.674,0.408,0.992L76.81,169.5l-13.766,23.426
				c-0.206,0.35-0.336,0.721-0.433,1.096h9.601L86.621,169.5L72.271,145.083z"/>
			<path fill="#FFFFFF" d="M88.731,145.083h-9.637c0.097,0.339,0.221,0.674,0.408,0.992L93.27,169.5l-13.767,23.426
				c-0.206,0.35-0.336,0.721-0.433,1.096h9.601l14.41-24.521L88.731,145.083z"/>
			<path fill="#FFFFFF" d="M105.19,145.083h-9.636c0.096,0.339,0.221,0.674,0.408,0.992l13.767,23.425l-13.767,23.426
				c-0.206,0.35-0.335,0.721-0.433,1.096h9.601l14.41-24.521L105.19,145.083z"/>
			<path fill="#FFFFFF" d="M121.65,145.083h-9.636c0.096,0.339,0.221,0.674,0.408,0.992l13.766,23.425l-13.766,23.426
				c-0.206,0.35-0.336,0.721-0.433,1.096h9.601L136,169.5L121.65,145.083z"/>
			<path fill="#FFFFFF" d="M470.838,169.5l14.409,24.521h9.601c-0.096-0.375-0.227-0.746-0.432-1.096L480.648,169.5l13.769-23.425
				c0.188-0.318,0.312-0.653,0.407-0.992h-9.637L470.838,169.5z"/>
			<path fill="#FFFFFF" d="M464.189,169.5l13.766-23.425c0.188-0.318,0.313-0.653,0.408-0.992h-9.636L454.379,169.5l14.408,24.521
				h9.6c-0.097-0.375-0.227-0.746-0.433-1.096L464.189,169.5z"/>
			<path fill="#FFFFFF" d="M447.729,169.5l13.767-23.425c0.188-0.318,0.313-0.653,0.408-0.992h-9.637L437.916,169.5l14.41,24.521
				h9.601c-0.097-0.375-0.227-0.746-0.433-1.096L447.729,169.5z"/>
			<path fill="#FFFFFF" d="M431.27,169.5l13.768-23.425c0.188-0.318,0.313-0.653,0.407-0.992h-9.636l-14.35,24.417l14.409,24.521
				h9.601c-0.097-0.375-0.227-0.746-0.433-1.096L431.27,169.5z"/>
			<path fill="#FFFFFF" d="M414.811,169.5l13.766-23.425c0.188-0.318,0.313-0.653,0.408-0.992h-9.636L404.998,169.5l14.409,24.521
				h9.601c-0.097-0.375-0.227-0.746-0.433-1.096L414.811,169.5z"/>
		</g>
	</g>
</g>
<g id="Num">
	
		<linearGradient id="SVGID_6_" gradientUnits="userSpaceOnUse" x1="340.6311" y1="-290.8394" x2="340.6311" y2="-162.8398" gradientTransform="matrix(1 0 0 -1 -245.0996 -162.8398)">
		<stop  offset="0.0376" style="stop-color:#1D2736"/>
		<stop  offset="0.0843" style="stop-color:#1E2C42"/>
		<stop  offset="0.1595" style="stop-color:#1E304F"/>
		<stop  offset="0.261" style="stop-color:#1F3356"/>
		<stop  offset="0.5" style="stop-color:#1F3458"/>
		<stop  offset="0.51" style="stop-color:#2D426B"/>
		<stop  offset="1" style="stop-color:#456B8C"/>
	</linearGradient>
	<path fill="url(#SVGID_6_)" d="M133.531,115.968c0,6.642-5.4,12.032-12.063,12.032H69.594c-6.662,0-12.063-5.393-12.063-12.032
		V12.031C57.531,5.383,62.932,0,69.594,0h51.873c6.662,0,12.063,5.383,12.063,12.031L133.531,115.968L133.531,115.968z"/>
	
		<linearGradient id="SVGID_7_" gradientUnits="userSpaceOnUse" x1="421.7151" y1="-290.8394" x2="421.7151" y2="-162.8398" gradientTransform="matrix(1 0 0 -1 -245.0996 -162.8398)">
		<stop  offset="0.0376" style="stop-color:#1D2736"/>
		<stop  offset="0.0843" style="stop-color:#1E2C42"/>
		<stop  offset="0.1595" style="stop-color:#1E304F"/>
		<stop  offset="0.261" style="stop-color:#1F3356"/>
		<stop  offset="0.5" style="stop-color:#1F3458"/>
		<stop  offset="0.51" style="stop-color:#2D426B"/>
		<stop  offset="1" style="stop-color:#456B8C"/>
	</linearGradient>
	<path fill="url(#SVGID_7_)" d="M214.614,115.968c0,6.642-5.4,12.032-12.063,12.032h-51.873c-6.662,0-12.063-5.393-12.063-12.032
		V12.031C138.614,5.383,144.016,0,150.678,0h51.873c6.662,0,12.063,5.383,12.063,12.031V115.968z"/>
	
		<linearGradient id="SVGID_8_" gradientUnits="userSpaceOnUse" x1="526.8079" y1="-290.8394" x2="526.8079" y2="-162.8398" gradientTransform="matrix(1 0 0 -1 -245.0996 -162.8398)">
		<stop  offset="0.0376" style="stop-color:#1D2736"/>
		<stop  offset="0.0843" style="stop-color:#1E2C42"/>
		<stop  offset="0.1595" style="stop-color:#1E304F"/>
		<stop  offset="0.261" style="stop-color:#1F3356"/>
		<stop  offset="0.5" style="stop-color:#1F3458"/>
		<stop  offset="0.51" style="stop-color:#2D426B"/>
		<stop  offset="1" style="stop-color:#456B8C"/>
	</linearGradient>
	<path fill="url(#SVGID_8_)" d="M319.706,115.973c0,6.643-5.4,12.027-12.063,12.027h-51.873c-6.662,0-12.063-5.386-12.063-12.027
		V12.028C243.707,5.387,249.108,0,255.771,0h51.873c6.662,0,12.063,5.387,12.063,12.028V115.973L319.706,115.973z"/>
	
		<linearGradient id="SVGID_9_" gradientUnits="userSpaceOnUse" x1="608.6897" y1="-290.8394" x2="608.6897" y2="-162.8398" gradientTransform="matrix(1 0 0 -1 -245.0996 -162.8398)">
		<stop  offset="0.0376" style="stop-color:#1D2736"/>
		<stop  offset="0.0843" style="stop-color:#1E2C42"/>
		<stop  offset="0.1595" style="stop-color:#1E304F"/>
		<stop  offset="0.261" style="stop-color:#1F3356"/>
		<stop  offset="0.5" style="stop-color:#1F3458"/>
		<stop  offset="0.51" style="stop-color:#2D426B"/>
		<stop  offset="1" style="stop-color:#456B8C"/>
	</linearGradient>
	<path fill="url(#SVGID_9_)" d="M401.588,115.968c0,6.64-5.401,12.032-12.063,12.032h-51.873c-6.662,0-12.063-5.393-12.063-12.032
		V12.03c0-6.646,5.4-12.03,12.063-12.03h51.873c6.662,0,12.063,5.384,12.063,12.03V115.968z"/>
	
		<linearGradient id="SVGID_10_" gradientUnits="userSpaceOnUse" x1="690.5706" y1="-290.8394" x2="690.5706" y2="-162.8398" gradientTransform="matrix(1 0 0 -1 -245.0996 -162.8398)">
		<stop  offset="0.0376" style="stop-color:#1D2736"/>
		<stop  offset="0.0843" style="stop-color:#1E2C42"/>
		<stop  offset="0.1595" style="stop-color:#1E304F"/>
		<stop  offset="0.261" style="stop-color:#1F3356"/>
		<stop  offset="0.5" style="stop-color:#1F3458"/>
		<stop  offset="0.51" style="stop-color:#2D426B"/>
		<stop  offset="1" style="stop-color:#456B8C"/>
	</linearGradient>
	<path fill="url(#SVGID_10_)" d="M483.469,115.968c0,6.64-5.401,12.032-12.063,12.032h-51.873c-6.662,0-12.063-5.393-12.063-12.032
		V12.03c0-6.646,5.4-12.03,12.063-12.03h51.873c6.662,0,12.063,5.384,12.063,12.03V115.968z"/>
	<g>
		<path fill="#8AF246" d="M223.509,98.313h13.721v9.814c0,3.971-0.342,7.104-1.024,9.398c-0.684,2.295-1.979,4.354-3.883,6.178
			c-1.903,1.822-4.32,3.255-7.251,4.297l-2.686-5.664c2.767-0.912,4.736-2.165,5.908-3.76c1.172-1.596,1.79-3.776,1.854-6.543
			h-6.641L223.509,98.313L223.509,98.313z"/>
	</g>
</g>
</svg>
