<?xml version="1.0" encoding="utf-8"?>
<!-- Generator: Adobe Illustrator 16.0.0, SVG Export Plug-In . SVG Version: 6.00 Build 0)  -->
<!DOCTYPE svg PUBLIC "-//W3C//DTD SVG 1.1//EN" "http://www.w3.org/Graphics/SVG/1.1/DTD/svg11.dtd">
<svg version="1.1" xmlns="http://www.w3.org/2000/svg" xmlns:xlink="http://www.w3.org/1999/xlink" x="0px" y="0px" width="930px"
	 height="875px" viewBox="0 0 930 875" enable-background="new 0 0 930 875" xml:space="preserve">
<g id="BackObj1" display="none">
	<rect display="inline" width="930" height="875"/>
</g>
<g id="BackObj2">
	<path opacity="0.1" fill="#FFFFFF" d="M793.62,135.956C705.808,48.145,589.047-0.216,464.849-0.216s-240.957,48.361-328.77,136.172
		C48.267,223.769-0.094,340.528-0.094,464.727c0,83.058,22.174,164.577,64.125,235.744c40.716,69.07,98.915,126.8,168.309,166.945
		l12.738,7.367l92.242-159.757l-12.699-7.359c-86.613-50.213-140.42-143.3-140.42-242.94c0-154.76,125.898-280.666,280.648-280.666
		s280.648,125.906,280.648,280.666c0,99.641-53.809,192.729-140.422,242.94l-12.699,7.359l92.243,159.757l12.739-7.367
		c69.392-40.144,127.593-97.871,168.309-166.943c41.95-71.166,64.125-152.688,64.125-235.746
		C929.792,340.528,881.431,223.769,793.62,135.956z"/>
</g>
<g id="BackObj3">
	<path fill="#FFFFFF" d="M799.823,464.727c0-185.007-149.977-334.982-334.975-334.982S129.87,279.72,129.87,464.727
		c0,185,149.98,334.958,334.979,334.958S799.823,649.727,799.823,464.727z"/>
	<path fill="none" stroke="#FFFFFF" stroke-miterlimit="10" d="M724.185,464.727c0-143.224-116.11-259.335-259.336-259.335
		S205.513,321.503,205.513,464.727c0,143.207,116.11,259.317,259.336,259.317S724.185,607.934,724.185,464.727z"/>
	<g opacity="0.6">
		<radialGradient id="SVGID_1_" cx="462.5176" cy="203.0273" r="522.6178" gradientUnits="userSpaceOnUse">
			<stop  offset="0" style="stop-color:#FFFFFF"/>
			<stop  offset="0.7312" style="stop-color:#B5B5B5"/>
			<stop  offset="1" style="stop-color:#FFFFFF"/>
		</radialGradient>
		<path fill="url(#SVGID_1_)" d="M464.849,726.662c-69.966,0-135.743-27.246-185.216-76.719
			c-49.472-49.473-76.718-115.251-76.718-185.217c0-69.968,27.246-135.749,76.718-185.226
			c49.473-49.478,115.251-76.726,185.216-76.726c69.964,0,135.741,27.249,185.215,76.726
			c49.473,49.477,76.719,115.258,76.719,185.226c0,69.966-27.246,135.743-76.719,185.217
			C600.591,699.416,534.813,726.662,464.849,726.662z"/>
		<path fill="#CCCCCC" d="M464.849,203.774c35.227,0,69.398,6.899,101.566,20.507c31.071,13.144,58.977,31.96,82.941,55.926
			c23.964,23.966,42.779,51.874,55.921,82.948c13.606,32.17,20.505,66.343,20.505,101.571c0,35.228-6.898,69.399-20.505,101.567
			c-13.142,31.072-31.957,58.978-55.921,82.942c-23.965,23.964-51.87,42.779-82.941,55.921
			c-32.168,13.606-66.34,20.505-101.566,20.505c-35.227,0-69.399-6.898-101.567-20.505c-31.071-13.142-58.977-31.957-82.941-55.921
			c-23.964-23.965-42.779-51.87-55.921-82.942c-13.605-32.168-20.504-66.34-20.504-101.567c0-35.228,6.899-69.401,20.504-101.571
			c13.142-31.074,31.957-58.981,55.921-82.948s51.87-42.783,82.941-55.926C395.45,210.674,429.622,203.774,464.849,203.774
			 M464.849,201.774c-145.216,0-262.934,117.733-262.934,262.952c0,145.216,117.718,262.936,262.934,262.936
			c145.214,0,262.934-117.72,262.934-262.936C727.782,319.508,610.063,201.774,464.849,201.774L464.849,201.774z"/>
	</g>
</g>
<g id="BackObj4">
	<g opacity="0.6">
		<linearGradient id="SVGID_2_" gradientUnits="userSpaceOnUse" x1="464.8486" y1="673.1357" x2="464.8486" y2="250.1548">
			<stop  offset="0" style="stop-color:#B3B3B3"/>
			<stop  offset="1" style="stop-color:#4F4F4F"/>
		</linearGradient>
		<path fill="url(#SVGID_2_)" d="M464.849,673.136c-114.918,0-208.412-93.493-208.412-208.411
			c0-114.917,93.493-208.41,208.412-208.41c114.918,0,208.411,93.492,208.411,208.41
			C673.26,579.643,579.767,673.136,464.849,673.136z"/>
		<path fill="#575757" d="M464.849,256.815c28.068,0,55.296,5.497,80.928,16.338c24.758,10.472,46.993,25.463,66.088,44.557
			c19.094,19.094,34.086,41.329,44.558,66.086c10.841,25.632,16.338,52.86,16.338,80.928c0,28.064-5.497,55.29-16.338,80.921
			c-10.473,24.758-25.464,46.992-44.558,66.088c-19.096,19.097-41.33,34.089-66.088,44.562
			c-25.632,10.843-52.86,16.341-80.928,16.341c-28.068,0-55.297-5.498-80.93-16.341c-24.757-10.473-46.992-25.465-66.087-44.562
			c-19.094-19.095-34.085-41.33-44.557-66.088c-10.841-25.631-16.338-52.856-16.338-80.921c0-28.068,5.497-55.296,16.338-80.928
			c10.471-24.757,25.462-46.992,44.557-66.086c19.095-19.094,41.33-34.085,66.087-44.557
			C409.551,262.312,436.779,256.815,464.849,256.815 M464.849,255.815c-115.382,0-208.912,93.531-208.912,208.91
			c0,115.361,93.53,208.911,208.912,208.911c115.378,0,208.911-93.55,208.911-208.911
			C673.76,349.346,580.227,255.815,464.849,255.815L464.849,255.815z"/>
	</g>
	<g opacity="0.6">
		<path fill="#FFFFFF" d="M464.849,262.22c27.337,0,53.856,5.354,78.821,15.913c24.114,10.199,45.771,24.8,64.369,43.398
			c18.599,18.598,33.2,40.255,43.4,64.369c10.56,24.965,15.914,51.486,15.914,78.825c0,27.337-5.354,53.855-15.914,78.819
			c-10.2,24.112-24.802,45.767-43.4,64.363c-18.599,18.596-40.255,33.196-64.369,43.395c-24.965,10.558-51.484,15.911-78.821,15.911
			c-27.338,0-53.858-5.354-78.823-15.911c-24.114-10.198-45.771-24.799-64.369-43.395c-18.598-18.596-33.2-40.251-43.399-64.363
			c-10.56-24.963-15.914-51.482-15.914-78.819c0-27.339,5.354-53.86,15.914-78.825c10.199-24.114,24.801-45.771,43.399-64.369
			c18.598-18.598,40.254-33.199,64.369-43.398C410.99,267.574,437.51,262.22,464.849,262.22 M464.849,261.22
			c-112.392,0-203.504,91.108-203.504,203.504c0,112.389,91.113,203.488,203.504,203.488c112.387,0,203.505-91.1,203.505-203.488
			C668.354,352.328,577.235,261.22,464.849,261.22L464.849,261.22z"/>
	</g>
	<linearGradient id="SVGID_3_" gradientUnits="userSpaceOnUse" x1="464.8491" y1="641.1973" x2="464.8491" y2="288.2319">
		<stop  offset="0" style="stop-color:#F2F2F2"/>
		<stop  offset="1" style="stop-color:#A3A3A3"/>
	</linearGradient>
	<path fill="url(#SVGID_3_)" d="M288.355,464.729c0,97.296,79.173,176.469,176.495,176.469c97.3,0,176.491-79.173,176.491-176.469
		c0-97.324-79.191-176.497-176.491-176.497C367.528,288.231,288.355,367.404,288.355,464.729z"/>
	
		<radialGradient id="SVGID_4_" cx="473.3291" cy="433.9082" r="204.0578" gradientTransform="matrix(-4.295081e-008 -1.3516 0.7699 -4.629379e-008 132.9844 1112.891)" gradientUnits="userSpaceOnUse">
		<stop  offset="0.4194" style="stop-color:#FFFFFF;stop-opacity:0"/>
		<stop  offset="1" style="stop-color:#FFFFFF;stop-opacity:0.75"/>
	</radialGradient>
	<path fill="url(#SVGID_4_)" d="M327.795,426.759c0,76.384,61.482,138.527,137.056,138.527c75.559,0,137.05-62.144,137.05-138.527
		c0-76.396-61.491-138.527-137.05-138.527C389.277,288.231,327.795,350.363,327.795,426.759z"/>
	
		<radialGradient id="SVGID_5_" cx="472.2842" cy="666.4824" r="408.9433" gradientTransform="matrix(0.9826 0 0 0.9826 1.9744 6.2064)" gradientUnits="userSpaceOnUse">
		<stop  offset="0" style="stop-color:#FFFFFF;stop-opacity:0.7"/>
		<stop  offset="0.5806" style="stop-color:#FFFFFF;stop-opacity:0"/>
	</radialGradient>
	<path fill="url(#SVGID_5_)" d="M304.503,500.743c0,89.371,71.928,162.079,160.348,162.079c88.394,0,160.344-72.708,160.344-162.079
		c0-89.384-71.95-162.089-160.344-162.089C376.431,338.654,304.503,411.359,304.503,500.743z"/>
	
		<radialGradient id="SVGID_6_" cx="472.6094" cy="424.644" r="138.6523" gradientTransform="matrix(-4.295081e-008 -0.9826 1.5997 -6.992563e-008 -212.9478 887.8475)" gradientUnits="userSpaceOnUse">
		<stop  offset="0.4194" style="stop-color:#FFFFFF;stop-opacity:0"/>
		<stop  offset="1" style="stop-color:#FFFFFF;stop-opacity:0.75"/>
	</radialGradient>
	<path fill="url(#SVGID_6_)" d="M371.728,356.665c0,37.734,41.771,68.429,93.123,68.429c51.339,0,93.124-30.695,93.124-68.429
		c0-37.742-41.785-68.433-93.124-68.433C413.499,288.231,371.728,318.922,371.728,356.665z"/>
	
		<radialGradient id="SVGID_7_" cx="475.7734" cy="316.3389" r="49.7908" gradientTransform="matrix(0.9826 0 0 0.9826 1.9744 6.2064)" gradientUnits="userSpaceOnUse">
		<stop  offset="0" style="stop-color:#FFFFFF"/>
		<stop  offset="1" style="stop-color:#FFFFFF;stop-opacity:0"/>
	</radialGradient>
	<path fill="url(#SVGID_7_)" d="M518.395,317.046c0-27.035-21.901-48.929-48.92-48.929c-27.018,0-48.932,21.894-48.932,48.929
		c0,27.023,21.914,48.917,48.932,48.917C496.493,365.964,518.395,344.07,518.395,317.046z"/>
	
		<radialGradient id="SVGID_8_" cx="291.4502" cy="489.4082" r="40.0144" gradientTransform="matrix(0.9826 0 0 0.9826 1.9744 6.2064)" gradientUnits="userSpaceOnUse">
		<stop  offset="0" style="stop-color:#FFFFFF"/>
		<stop  offset="1" style="stop-color:#FFFFFF;stop-opacity:0"/>
	</radialGradient>
	<path fill="url(#SVGID_8_)" d="M327.67,487.1c0-21.715-17.6-39.318-39.314-39.318c-21.717,0-39.319,17.604-39.319,39.318
		s17.602,39.319,39.319,39.319C310.07,526.419,327.67,508.814,327.67,487.1z"/>
	
		<radialGradient id="SVGID_9_" cx="601.2705" cy="557.1309" r="27.7104" gradientTransform="matrix(0.9826 0 0 0.9826 1.9744 6.2064)" gradientUnits="userSpaceOnUse">
		<stop  offset="0" style="stop-color:#FFFFFF"/>
		<stop  offset="1" style="stop-color:#FFFFFF;stop-opacity:0"/>
	</radialGradient>
	<path fill="url(#SVGID_9_)" d="M620.013,553.655c0-15.052-12.192-27.236-27.232-27.236c-15.032,0-27.229,12.185-27.229,27.236
		c0,15.027,12.196,27.214,27.229,27.214C607.82,580.869,620.013,568.683,620.013,553.655z"/>
	
		<radialGradient id="SVGID_10_" cx="486.3145" cy="692.2158" r="384.8619" gradientTransform="matrix(0.9448 0 0 0.9448 6.4549 22.4384)" gradientUnits="userSpaceOnUse">
		<stop  offset="0" style="stop-color:#FFFFFF;stop-opacity:0.7"/>
		<stop  offset="0.5806" style="stop-color:#FFFFFF;stop-opacity:0.3"/>
	</radialGradient>
	<path opacity="0.4" fill="url(#SVGID_10_)" d="M319.75,531.35c0,80.873,65.089,146.66,145.101,146.66
		c79.995,0,145.095-65.787,145.095-146.66c0-80.884-65.1-146.666-145.095-146.666C384.839,384.684,319.75,450.466,319.75,531.35z"/>
</g>
<g id="StepOff1">
	<path fill="#47CFC7" d="M169.497,464.727v-0.002l-154.887-0.002v0.004c0,166.635,90.537,312.119,225.092,389.961l77.544-134.301
		C229.016,669.238,169.497,573.836,169.497,464.727z"/>
	<text transform="matrix(1 0 0 1 54.5186 662.2012)" fill="#FFFFFF" font-family="'MalgunGothicBold'" font-size="73.5175">정상</text>
</g>
<g id="StepOff2">
	<path fill="#5091BA" d="M169.497,464.725H14.609c0-166.647,90.538-312.138,225.094-389.982l77.547,134.323
		C229.021,260.196,169.497,355.61,169.497,464.725z"/>
	<text transform="matrix(1 0 0 1 67.1211 306.251)" fill="#FFFFFF" font-family="'MalgunGothicBold'" font-size="73.5175">관심</text>
</g>
<g id="StepOff3">
	<path fill="#FFC500" d="M464.849,169.357c53.749,0,104.141,14.509,147.599,39.708l77.547-134.323
		c-66.219-38.312-143.121-60.255-225.146-60.255S305.925,36.431,239.703,74.741l77.547,134.321
		C360.71,183.866,411.104,169.357,464.849,169.357z"/>
	<text transform="matrix(1 0 0 1 391.3291 123.5068)" fill="#FFFFFF" font-family="'MalgunGothicBold'" font-size="73.5175">주의</text>
</g>
<g id="StepOff4">
	<path fill="#EE7C37" d="M760.201,464.725h154.887c0-166.647-90.539-312.138-225.094-389.982l-77.547,134.323
		C700.677,260.196,760.201,355.61,760.201,464.725z"/>
	<text transform="matrix(1 0 0 1 707.666 306.251)" fill="#FFFFFF" font-family="'MalgunGothicBold'" font-size="73.5175">경계</text>
</g>
<g id="StepOff5">
	<path fill="#EB2549" d="M760.201,464.725v0.002c0,109.109-59.52,204.512-147.754,255.66l77.549,134.301
		c134.553-77.838,225.092-223.326,225.092-389.961v-0.002H760.201z"/>
	<text transform="matrix(1 0 0 1 724.4697 662.2012)" fill="#FFFFFF" font-family="'MalgunGothicBold'" font-size="73.5175">심각</text>
</g>
<g id="StepOn1">
	<g>
		<path fill="#47CFC7" d="M374.839,620.608L239.703,854.704C105.149,776.858,14.609,631.37,14.609,464.723l270.148-0.002
			C284.757,531.256,321.049,589.426,374.839,620.608z"/>
	</g>
	<g>
		<path fill="#FF0000" d="M270.616,479.424c4.498,58.675,35.71,112.67,84.428,146.064L234.452,834.391
			c-59.464-37.146-109.431-88.353-145.087-148.843c-36.809-62.446-57.36-133.415-59.805-206.122L270.616,479.424 M284.757,464.721
			l-270.148,0.002c0,166.647,90.54,312.136,225.094,389.981l135.136-234.096C321.049,589.426,284.757,531.256,284.757,464.721
			L284.757,464.721z"/>
	</g>
	<text transform="matrix(1 0 0 1 117.5332 641.1963)" fill="#FFFFFF" font-family="'MalgunGothicBold'" font-size="73.5175">정상</text>
</g>
<g id="StepOn2">
	<g>
		<path fill="#5091BA" d="M374.839,308.836L239.703,74.742C105.149,152.587,14.609,298.074,14.609,464.723l270.148,0.002
			C284.757,398.189,321.049,340.019,374.839,308.836z"/>
	</g>
	<path fill="#FF0000" d="M234.452,95.056l120.592,208.9c-48.718,33.394-79.93,87.391-84.428,146.065L29.56,450.019
		c2.445-72.707,22.996-143.675,59.805-206.122C125.021,183.408,174.988,132.202,234.452,95.056 M239.703,74.742
		C105.149,152.587,14.609,298.074,14.609,464.723l270.148,0.002c0-66.535,36.292-124.706,90.082-155.888L239.703,74.742
		L239.703,74.742z"/>
	<text transform="matrix(1 0 0 1 117.5332 337.7578)" fill="#FFFFFF" font-family="'MalgunGothicBold'" font-size="73.5175">관심</text>
</g>
<g id="StepOn3">
	<g>
		<path fill="#FFC500" d="M554.836,308.828L690.002,74.751C555.308-2.856,384.043-8.522,239.72,74.803l135.072,233.956
			C432.414,275.493,500.937,277.833,554.836,308.828z"/>
	</g>
	<text transform="matrix(1 0 0 1 391.3291 186.5225)" fill="#FFFFFF" font-family="'MalgunGothicBold'" font-size="73.5175">주의</text>
	<g>
		<path fill="#FF0000" d="M464.387,14.409l0.021,14.704c71.592,0.003,142.28,17.683,205.378,51.247L549.166,289.244
			c-26.377-12.635-55.378-19.259-84.703-19.259c-29.064,0-57.827,6.595-84.01,19.172L259.929,80.399
			c62.995-33.593,133.367-51.287,204.458-51.287V14.409 M464.41,14.409c-76.388-0.004-153.78,19.453-224.69,60.394l135.072,233.956
			c28.269-16.32,59.169-24.07,89.671-24.071c31.672-0.002,62.917,8.352,90.373,24.141L690.002,74.751
			C621.488,35.275,543.488,14.413,464.41,14.409L464.41,14.409z"/>
	</g>
</g>
<g id="StepOn4">
	<g>
		<path fill="#EE7C37" d="M554.858,308.836L689.994,74.742c134.555,77.845,225.094,223.332,225.094,389.98l-270.148,0.002
			C644.939,398.189,608.648,340.019,554.858,308.836z"/>
	</g>
	<text transform="matrix(1 0 0 1 661.4551 337.7578)" fill="#FFFFFF" font-family="'MalgunGothicBold'" font-size="73.5175">경계</text>
	<g>
		<path fill="#FF0000" d="M695.245,95.056c59.465,37.146,109.432,88.352,145.087,148.841
			c36.81,62.447,57.361,133.415,59.807,206.122l-241.058,0.003c-4.498-58.675-35.71-112.671-84.428-146.065L695.245,95.056
			 M689.994,74.742L554.858,308.836c53.79,31.182,90.081,89.353,90.081,155.888l270.148-0.002
			C915.088,298.074,824.549,152.587,689.994,74.742L689.994,74.742z"/>
	</g>
</g>
<g id="StepOn5">
	<g>
		<path fill="#EB2549" d="M554.858,620.611l135.136,234.093c134.555-77.844,225.094-223.33,225.094-389.979H644.939
			C644.939,531.258,608.648,589.43,554.858,620.611z"/>
	</g>
	<text transform="matrix(1 0 0 1 661.4551 641.1963)" fill="#FFFFFF" font-family="'MalgunGothicBold'" font-size="73.5175">심각</text>
	<g>
		<path fill="#FF0000" d="M900.139,479.428c-2.445,72.708-22.997,143.676-59.807,206.122
			c-35.655,60.49-85.622,111.694-145.087,148.841L574.653,625.491c48.718-33.394,79.93-87.389,84.428-146.063H900.139
			 M915.088,464.725H644.939c0,66.533-36.291,124.705-90.081,155.887l135.136,234.093
			C824.549,776.86,915.088,631.374,915.088,464.725L915.088,464.725z"/>
	</g>
</g>
<g id="Bevel">
	<radialGradient id="SVGID_11_" cx="464.8486" cy="434.5874" r="435.4305" gradientUnits="userSpaceOnUse">
		<stop  offset="0.9" style="stop-color:#FFFFFF;stop-opacity:0"/>
		<stop  offset="1" style="stop-color:#FFFFFF;stop-opacity:0.3"/>
	</radialGradient>
	<path fill="url(#SVGID_11_)" d="M689.994,74.742c-66.219-38.312-143.121-60.255-225.146-60.255S305.925,36.431,239.703,74.741
		l0,0.001C105.147,152.587,14.61,298.076,14.609,464.723v0.004c0,166.635,90.537,312.119,225.092,389.961l77.544-134.301
		c-88.229-51.148-147.749-146.551-147.749-255.66v-0.002c0-109.114,59.524-204.528,147.753-255.659l-0.002-0.003l0.002,0
		c43.46-25.197,93.854-39.706,147.599-39.706c53.749,0,104.141,14.509,147.599,39.708
		c88.229,51.131,147.754,146.545,147.754,255.659v0.002c0,109.109-59.52,204.512-147.754,255.66l77.549,134.301
		c134.553-77.838,225.092-223.326,225.092-389.961v-0.002C915.088,298.077,824.549,152.587,689.994,74.742z"/>
</g>
<g id="TextCenter">
	<text transform="matrix(1 0 0 1 394.7549 502.377)" fill="#47CFC7" font-family="'Arial-BoldMT'" font-size="252.0601">1</text>
	<text transform="matrix(1 0 0 1 359.8213 611.5205)" fill="#47CFC7" font-family="'MalgunGothicBold'" font-size="105.025">정상</text>
</g>
</svg>
