<?xml version="1.0" encoding="utf-8"?>
<!-- Generator: Adobe Illustrator 16.0.0, SVG Export Plug-In . SVG Version: 6.00 Build 0)  -->
<!DOCTYPE svg PUBLIC "-//W3C//DTD SVG 1.1//EN" "http://www.w3.org/Graphics/SVG/1.1/DTD/svg11.dtd">
<svg version="1.1" xmlns="http://www.w3.org/2000/svg" xmlns:xlink="http://www.w3.org/1999/xlink" x="0px" y="0px" width="1540px"
	 height="113px" viewBox="0 0 1540 113" enable-background="new 0 0 1540 113" xml:space="preserve">
<g id="BackObj">
	<rect width="1540" height="113"/>
	<g>
		<g>
			<g>
				<linearGradient id="SVGID_1_" gradientUnits="userSpaceOnUse" x1="770.5425" y1="110.5" x2="770.5425" y2="2.5005">
					<stop  offset="0" style="stop-color:#6A6A6A"/>
					<stop  offset="0.0446" style="stop-color:#7F7F7F"/>
					<stop  offset="0.1374" style="stop-color:#A4A4A4"/>
					<stop  offset="0.2303" style="stop-color:#C1C1C1"/>
					<stop  offset="0.3223" style="stop-color:#D5D5D5"/>
					<stop  offset="0.4127" style="stop-color:#E2E2E2"/>
					<stop  offset="0.5" style="stop-color:#E6E6E6"/>
					<stop  offset="0.5873" style="stop-color:#E2E2E2"/>
					<stop  offset="0.6777" style="stop-color:#D5D5D5"/>
					<stop  offset="0.7697" style="stop-color:#C1C1C1"/>
					<stop  offset="0.8626" style="stop-color:#A4A4A4"/>
					<stop  offset="0.9554" style="stop-color:#7F7F7F"/>
					<stop  offset="1" style="stop-color:#6A6A6A"/>
				</linearGradient>
				<rect x="23.148" y="2.5" fill="url(#SVGID_1_)" width="1494.788" height="108"/>
			</g>
			<linearGradient id="SVGID_2_" gradientUnits="userSpaceOnUse" x1="11.4229" y1="110.5" x2="11.4228" y2="2.5005">
				<stop  offset="0" style="stop-color:#6A6A6A"/>
				<stop  offset="0.0612" style="stop-color:#7D7D7D"/>
				<stop  offset="0.1731" style="stop-color:#9A9A9A"/>
				<stop  offset="0.2845" style="stop-color:#AFAFAF"/>
				<stop  offset="0.3942" style="stop-color:#BBBBBB"/>
				<stop  offset="0.5" style="stop-color:#BFBFBF"/>
				<stop  offset="0.606" style="stop-color:#BBBBBB"/>
				<stop  offset="0.7158" style="stop-color:#AEAEAE"/>
				<stop  offset="0.8274" style="stop-color:#9A9A9A"/>
				<stop  offset="0.9395" style="stop-color:#7D7D7D"/>
				<stop  offset="1" style="stop-color:#6A6A6A"/>
			</linearGradient>
			<rect x="2.5" y="2.5" fill="url(#SVGID_2_)" width="17.846" height="108"/>
			<linearGradient id="SVGID_3_" gradientUnits="userSpaceOnUse" x1="1528.5762" y1="110.5" x2="1528.5762" y2="2.5005">
				<stop  offset="0" style="stop-color:#6A6A6A"/>
				<stop  offset="0.0605" style="stop-color:#7D7D7D"/>
				<stop  offset="0.1726" style="stop-color:#9A9A9A"/>
				<stop  offset="0.2842" style="stop-color:#AEAEAE"/>
				<stop  offset="0.394" style="stop-color:#BBBBBB"/>
				<stop  offset="0.5" style="stop-color:#BFBFBF"/>
				<stop  offset="0.606" style="stop-color:#BBBBBB"/>
				<stop  offset="0.7158" style="stop-color:#AEAEAE"/>
				<stop  offset="0.8274" style="stop-color:#9A9A9A"/>
				<stop  offset="0.9395" style="stop-color:#7D7D7D"/>
				<stop  offset="1" style="stop-color:#6A6A6A"/>
			</linearGradient>
			<rect x="1519.65" y="2.5" fill="url(#SVGID_3_)" width="17.852" height="108"/>
		</g>
		<rect x="28.75" y="8.75" fill="#0F3551" width="1482.502" height="95.5"/>
		<rect x="28.75" y="8.75" stroke="#E6E6E6" stroke-miterlimit="10" width="1482.502" height="95.5"/>
		<rect x="770.543" y="12.5" opacity="0.25" fill="#FFFFFF" width="738.209" height="88"/>
	</g>
</g>
<g id="Arrow">
	<g>
		<g opacity="0.35">
			<path fill="#FFFFFF" d="M354.205,99.254c-1.416,0-2.812-0.437-4.032-1.364c-2.826-2.23-3.257-6.321-1.058-9.137l25.442-32.243
				l-25.442-32.248c-2.199-2.811-1.769-6.901,1.058-9.147c2.822-2.194,6.907-1.694,9.134,1.115l31.79,40.28l-31.79,40.303
				C358.008,98.404,356.13,99.254,354.205,99.254z"/>
		</g>
		<g opacity="0.35">
			<path fill="#FFFFFF" d="M383.005,99.254c-1.387,0-2.803-0.437-3.997-1.364c-2.798-2.23-3.327-6.321-1.098-9.137l25.48-32.243
				l-25.48-32.248c-2.229-2.811-1.7-6.901,1.098-9.147c2.812-2.194,6.9-1.694,9.138,1.115l31.814,40.28l-31.814,40.303
				C386.856,98.404,384.928,99.254,383.005,99.254z"/>
		</g>
		<g opacity="0.35">
			<path fill="#FFFFFF" d="M410.826,99.254c-1.44,0-2.829-0.437-4.048-1.364c-2.813-2.23-3.273-6.321-1.061-9.137l25.424-32.243
				l-25.424-32.248c-2.213-2.811-1.752-6.901,1.061-9.147c2.818-2.194,6.885-1.694,9.129,1.115l31.812,40.28l-31.812,40.303
				C414.61,98.404,412.728,99.254,410.826,99.254z"/>
		</g>
	</g>
</g>
<g id="TextDay">
	<text transform="matrix(1 0 0 1 891.166 92.5908)" fill="#FFFFFF" font-family="'MyriadPro-Regular'" font-size="110">2018.09.03</text>
</g>
<g id="TextHistory">
	<text transform="matrix(1 0 0 1 150.3545 92.5908)" fill="#47CFC7" font-family="'MalgunGothicBold'" font-size="90">정상</text>
	<text transform="matrix(1 0 0 1 465.355 92.5908)" fill="#5091BA" font-family="'MalgunGothicBold'" font-size="90">관심</text>
</g>
</svg>
