<?xml version="1.0" encoding="utf-8"?>
<!-- Generator: Adobe Illustrator 16.0.0, SVG Export Plug-In . SVG Version: 6.00 Build 0)  -->
<!DOCTYPE svg PUBLIC "-//W3C//DTD SVG 1.1//EN" "http://www.w3.org/Graphics/SVG/1.1/DTD/svg11.dtd">
<svg version="1.1" xmlns="http://www.w3.org/2000/svg" xmlns:xlink="http://www.w3.org/1999/xlink" x="0px" y="0px" width="618px"
	 height="492.2px" viewBox="0 0 618 492.2" enable-background="new 0 0 618 492.2" xml:space="preserve">
<g id="KProGridBG">
	<rect x="1.5" y="52.563" fill="#163136" width="615" height="439.631"/>
	<rect x="94.176" y="116.059" fill="#1F464E" width="522.324" height="376.135"/>
	<rect x="1.5" y="178.276" opacity="0.05" fill="#FFFFFF" width="615" height="62.693"/>
	<rect x="1.5" y="304.264" opacity="0.05" fill="#FFFFFF" width="615" height="62.693"/>
	<rect x="1.5" y="430.247" opacity="0.05" fill="#FFFFFF" width="615" height="61.781"/>
	<g opacity="0.45">
		<line fill="none" stroke="#000000" stroke-miterlimit="10" x1="616.501" y1="115.419" x2="1.734" y2="115.419"/>
		<line fill="none" stroke="#000000" stroke-miterlimit="10" x1="616.501" y1="178.276" x2="1.734" y2="178.276"/>
		<line fill="none" stroke="#000000" stroke-miterlimit="10" x1="616.501" y1="241.133" x2="1.734" y2="241.133"/>
		<line fill="none" stroke="#000000" stroke-miterlimit="10" x1="616.501" y1="303.99" x2="1.734" y2="303.99"/>
		<line fill="none" stroke="#000000" stroke-miterlimit="10" x1="616.501" y1="366.848" x2="1.734" y2="366.848"/>
		<line fill="none" stroke="#000000" stroke-miterlimit="10" x1="616.501" y1="429.705" x2="1.734" y2="429.705"/>
		<line fill="none" stroke="#000000" stroke-miterlimit="10" x1="259.06" y1="52.193" x2="259.06" y2="492.193"/>
		<line fill="none" stroke="#000000" stroke-miterlimit="10" x1="341.501" y1="52.193" x2="341.501" y2="492.193"/>
		<line fill="none" stroke="#000000" stroke-miterlimit="10" x1="94.176" y1="492.193" x2="94.176" y2="52.563"/>
		<line fill="none" stroke="#000000" stroke-miterlimit="10" x1="176.618" y1="492.038" x2="176.618" y2="52.409"/>
	</g>
	<g opacity="0.8">
		<linearGradient id="SVGID_1_" gradientUnits="userSpaceOnUse" x1="309" y1="89.6353" x2="309" y2="52.2183">
			<stop  offset="0.9086" style="stop-color:#2B3990;stop-opacity:0"/>
			<stop  offset="1" style="stop-color:#262262"/>
		</linearGradient>
		<path fill="url(#SVGID_1_)" d="M616.5,87.63c0,1.107-0.9,2.005-2.011,2.005H3.51c-1.11,0-2.01-0.897-2.01-2.005V54.223
			c0-1.107,0.899-2.005,2.01-2.005h610.979c1.11,0,2.011,0.897,2.011,2.005V87.63z"/>
		<linearGradient id="SVGID_2_" gradientUnits="userSpaceOnUse" x1="308.8589" y1="52.562" x2="308.8589" y2="0">
			<stop  offset="0" style="stop-color:#25347A;stop-opacity:0.992"/>
			<stop  offset="0.086" style="stop-color:#5CC7FF"/>
			<stop  offset="0.2673" style="stop-color:#48BCF3;stop-opacity:0.8017"/>
			<stop  offset="0.4944" style="stop-color:#35B2E9;stop-opacity:0.5531"/>
			<stop  offset="0.7331" style="stop-color:#2BACE3;stop-opacity:0.292"/>
			<stop  offset="1" style="stop-color:#27AAE1;stop-opacity:0"/>
		</linearGradient>
		<polygon opacity="0.7" fill="url(#SVGID_2_)" points="587.223,0 30.828,0 1.734,52.562 615.983,52.562 		"/>
		<g>
			<linearGradient id="SVGID_3_" gradientUnits="userSpaceOnUse" x1="309" y1="91.1353" x2="309" y2="50.7183">
				<stop  offset="0.4731" style="stop-color:#13817D;stop-opacity:0"/>
				<stop  offset="1" style="stop-color:#00AEEF"/>
			</linearGradient>
			<path fill="url(#SVGID_3_)" d="M614.489,91.135H3.51C1.575,91.135,0,89.563,0,87.63V54.223c0-1.933,1.575-3.505,3.51-3.505
				h610.979c1.936,0,3.511,1.572,3.511,3.505V87.63C618,89.563,616.425,91.135,614.489,91.135z M3.51,53.718
				c-0.281,0-0.51,0.227-0.51,0.505V87.63c0,0.278,0.229,0.505,0.51,0.505h610.979c0.281,0,0.511-0.227,0.511-0.505V54.223
				c0-0.278-0.229-0.505-0.511-0.505H3.51z"/>
		</g>
		<linearGradient id="SVGID_4_" gradientUnits="userSpaceOnUse" x1="49.4619" y1="52.1929" x2="568.9932" y2="52.1929">
			<stop  offset="0" style="stop-color:#FFFFFF;stop-opacity:0"/>
			<stop  offset="0.5323" style="stop-color:#FFFFFF"/>
			<stop  offset="1" style="stop-color:#FFFFFF;stop-opacity:0"/>
		</linearGradient>
		
			<line fill="none" stroke="url(#SVGID_4_)" stroke-width="3" stroke-miterlimit="10" x1="49.462" y1="52.193" x2="568.993" y2="52.193"/>
	</g>
</g>
<g id="KProGridTxt">
</g>
</svg>
