<?xml version="1.0" encoding="utf-8"?>
<!-- Generator: Adobe Illustrator 16.0.0, SVG Export Plug-In . SVG Version: 6.00 Build 0)  -->
<!DOCTYPE svg PUBLIC "-//W3C//DTD SVG 1.1//EN" "http://www.w3.org/Graphics/SVG/1.1/DTD/svg11.dtd">
<svg version="1.1" id="MCyaGridTit" xmlns="http://www.w3.org/2000/svg" xmlns:xlink="http://www.w3.org/1999/xlink" x="0px"
	 y="0px" width="380px" height="40px" viewBox="0 0 380 40" enable-background="new 0 0 380 40" xml:space="preserve">
<g>
	<g>
		<path fill="#22639D" d="M0,0c1.189,0.01,10.488,0.308,16.714,7.268C23.028,14.323,28.966,40,52.239,40H327.76
			c23.277,0,29.214-25.677,35.523-32.732C369.512,0.308,378.807,0.01,380,0H0z"/>
	</g>
	<defs>
		<filter id="Adobe_OpacityMaskFilter" filterUnits="userSpaceOnUse" x="0" y="0" width="380" height="40">
			
				<feColorMatrix  type="matrix" values="-1 0 0 0 1  0 -1 0 0 1  0 0 -1 0 1  0 0 0 1 0" color-interpolation-filters="sRGB" result="source"/>
		</filter>
	</defs>
	<mask maskUnits="userSpaceOnUse" x="0" y="0" width="380" height="40" id="SVGID_1_">
		<g filter="url(#Adobe_OpacityMaskFilter)">
			<image overflow="visible" width="1600" height="184" xlink:href="1C27747B.jpg"  transform="matrix(0.24 0 0 0.24 -2 -2)">
			</image>
		</g>
	</mask>
	<g opacity="0.7" mask="url(#SVGID_1_)">
		<path fill="#47ACE5" d="M0,0c1.189,0.01,10.488,0.308,16.714,7.268C23.028,14.323,28.966,40,52.239,40H327.76
			c23.277,0,29.214-25.677,35.523-32.732C369.512,0.308,378.807,0.01,380,0H0z"/>
	</g>
</g>
</svg>
