<?xml version="1.0" encoding="utf-8"?>
<!-- Generator: Adobe Illustrator 16.0.0, SVG Export Plug-In . SVG Version: 6.00 Build 0)  -->
<!DOCTYPE svg PUBLIC "-//W3C//DTD SVG 1.1//EN" "http://www.w3.org/Graphics/SVG/1.1/DTD/svg11.dtd">
<svg version="1.1" id="Layer_1" xmlns="http://www.w3.org/2000/svg" xmlns:xlink="http://www.w3.org/1999/xlink" x="0px" y="0px"
	 width="470px" height="272px" viewBox="0 0 470 272" enable-background="new 0 0 470 272" xml:space="preserve">
<g id="KExtTop5Grid">
	<rect y="43.867" fill="#353535" width="470" height="225.626"/>
	<rect x="91.65" y="43.867" opacity="0.4" fill="#064668" width="263.2" height="43.867"/>
	<rect x="354.85" y="43.867" opacity="0.4" fill="#064668" width="115.15" height="43.867"/>
	<rect y="43.867" opacity="0.4" fill="#064668" width="90.867" height="43.867"/>
	<line fill="none" stroke="#4D4D4D" stroke-width="2" stroke-miterlimit="10" x1="91.65" y1="43.867" x2="91.65" y2="269.493"/>
	<line fill="none" stroke="#4D4D4D" stroke-width="2" stroke-miterlimit="10" x1="354.85" y1="43.867" x2="354.85" y2="269.493"/>
	<line fill="none" stroke="#4D4D4D" stroke-width="2" stroke-miterlimit="10" x1="0" y1="87.733" x2="470" y2="87.733"/>
	<path opacity="0.3" fill="none" stroke="#000000" stroke-width="2" stroke-miterlimit="10" d="M350.934,269.493"/>
	<path opacity="0.3" fill="none" stroke="#000000" stroke-width="2" stroke-miterlimit="10" d="M350.934,43.867"/>
	<polygon opacity="0.5" points="468.696,272 1.303,272 0,269.493 470,269.493 	"/>
	<g>
		<linearGradient id="SVGID_1_" gradientUnits="userSpaceOnUse" x1="235.0005" y1="43.8667" x2="235.0005" y2="0">
			<stop  offset="0" style="stop-color:#383838"/>
			<stop  offset="1" style="stop-color:#484848"/>
		</linearGradient>
		<rect fill="url(#SVGID_1_)" width="470" height="43.867"/>
		<g opacity="0.45">
			<linearGradient id="SVGID_2_" gradientUnits="userSpaceOnUse" x1="0" y1="0.3652" x2="470" y2="0.3652">
				<stop  offset="0" style="stop-color:#0D0D0D"/>
				<stop  offset="1" style="stop-color:#1A1A1A"/>
			</linearGradient>
			<rect fill="url(#SVGID_2_)" width="470" height="0.731"/>
			<linearGradient id="SVGID_3_" gradientUnits="userSpaceOnUse" x1="0" y1="22.2988" x2="0.6548" y2="22.2988">
				<stop  offset="0" style="stop-color:#0D0D0D"/>
				<stop  offset="1" style="stop-color:#1A1A1A"/>
			</linearGradient>
			<rect y="0.731" fill="url(#SVGID_3_)" width="0.655" height="43.136"/>
		</g>
		<g opacity="0.45">
			<linearGradient id="SVGID_4_" gradientUnits="userSpaceOnUse" x1="0" y1="43.501" x2="470" y2="43.501">
				<stop  offset="0" style="stop-color:#0D0D0D"/>
				<stop  offset="1" style="stop-color:#1A1A1A"/>
			</linearGradient>
			<rect y="43.136" fill="url(#SVGID_4_)" width="470" height="0.731"/>
			<linearGradient id="SVGID_5_" gradientUnits="userSpaceOnUse" x1="469.3486" y1="21.5679" x2="470" y2="21.5679">
				<stop  offset="0" style="stop-color:#0D0D0D"/>
				<stop  offset="1" style="stop-color:#1A1A1A"/>
			</linearGradient>
			<rect x="469.349" fill="url(#SVGID_5_)" width="0.651" height="43.136"/>
		</g>
	</g>
</g>
<g id="KExtTitTxt">
	<text transform="matrix(1 0 0 1 147.521 32.6665)" fill="#FFFFFF" font-family="맑은 고딕" font-weight="bold" font-size="30">공격자 TOP5</text>
	<text transform="matrix(1 0 0 1 17.834 76.334)" fill="#FFFFFF" font-family="맑은 고딕" font-size="28">순위</text>
	<text transform="matrix(1 0 0 1 192.021 76.334)" fill="#FFFFFF" font-family="맑은 고딕" font-size="28">국가</text>
	<text transform="matrix(1 0 0 1 383.6875 76.334)" fill="#FFFFFF" font-family="맑은 고딕" font-size="28">건수</text>
</g>
<g id="KExtTop5Grp01">
	<text transform="matrix(1 0 0 1 37.7754 117.5005)" fill="#FFFFFF" font-family="맑은 고딕" font-size="25"></text>
	<text transform="matrix(1 0 0 1 107.6875 117.5005)" fill="#FFFFFF" font-family="맑은 고딕" font-size="25"></text>
	<text transform="matrix(1 0 0 1 383.6875 117.5005)" fill="#FFFFFF" font-family="맑은 고딕" font-size="25"></text>
</g>
<g id="KExtTop5Grp02">
	<g>
		<text transform="matrix(1 0 0 1 37.7754 151.5)" fill="#FFFFFF" font-family="맑은 고딕" font-size="25"></text>
		<text transform="matrix(1 0 0 1 107.6875 151.5)" fill="#FFFFFF" font-family="맑은 고딕" font-size="25"></text>
		<text transform="matrix(1 0 0 1 383.6875 151.5)" fill="#FFFFFF" font-family="맑은 고딕" font-size="25"></text>
	</g>
</g>
<g id="KExtTop5Grp03">
	<g>
		<text transform="matrix(1 0 0 1 37.7754 185.5)" fill="#FFFFFF" font-family="맑은 고딕" font-size="25"></text>
		<text transform="matrix(1 0 0 1 107.6875 185.5)" fill="#FFFFFF" font-family="맑은 고딕" font-size="25"></text>
		<text transform="matrix(1 0 0 1 393.0332 185.5)" fill="#FFFFFF" font-family="맑은 고딕" font-size="25"></text>
	</g>
</g>
<g id="KExtTop5Grp04">
	<g>
		<text transform="matrix(1 0 0 1 37.7754 222.5)" fill="#FFFFFF" font-family="맑은 고딕" font-size="25"></text>
		<text transform="matrix(1 0 0 1 107.6875 222.5)" fill="#FFFFFF" font-family="맑은 고딕" font-size="25"></text>
		<text transform="matrix(1 0 0 1 393.0332 222.5)" fill="#FFFFFF" font-family="맑은 고딕" font-size="25"></text>
	</g>
</g>
<g id="KExtTop5Grp05">
	<text transform="matrix(1 0 0 1 37.7754 259.5)" fill="#FFFFFF" font-family="맑은 고딕" font-size="25"></text>
	<text transform="matrix(1 0 0 1 107.6875 259.5)" fill="#FFFFFF" font-family="맑은 고딕" font-size="25"></text>
	<text transform="matrix(1 0 0 1 393.0332 259.5)" fill="#FFFFFF" font-family="맑은 고딕" font-size="25"></text>
</g>
</svg>
