<?xml version="1.0" encoding="utf-8"?>
<!-- Generator: Adobe Illustrator 16.0.0, SVG Export Plug-In . SVG Version: 6.00 Build 0)  -->
<!DOCTYPE svg PUBLIC "-//W3C//DTD SVG 1.1//EN" "http://www.w3.org/Graphics/SVG/1.1/DTD/svg11.dtd">
<svg version="1.1" xmlns="http://www.w3.org/2000/svg" xmlns:xlink="http://www.w3.org/1999/xlink" x="0px" y="0px" width="305px"
	 height="49px" viewBox="0 0 305 49" enable-background="new 0 0 305 49" xml:space="preserve">
<g id="BMgrCodeGroup">
	<rect opacity="0.1" fill="#2FD39C" width="85" height="49"/>
	<g id="Green">
		<rect x="3.666" y="6.002" opacity="0.2" fill="#2FD39C" width="36.846" height="36.995"/>
		<rect x="44.517" y="6.002" opacity="0.2" fill="#2FD39C" width="36.848" height="36.995"/>
		<g>
			<path fill="#80EB46" d="M75.156,11.487H50.721c-1.123,0-2.035,0.92-2.035,2.045v21.933c0,1.125,0.912,2.044,2.035,2.044h24.436
				c1.122,0,2.037-0.919,2.037-2.044V13.532C77.193,12.407,76.278,11.487,75.156,11.487z M55.303,13.026
				c0.563,0,1.021,0.454,1.021,1.024c0,0.563-0.457,1.015-1.021,1.015c-0.564,0-1.02-0.452-1.02-1.015
				C54.283,13.48,54.738,13.026,55.303,13.026z M52.248,13.026c0.562,0,1.019,0.454,1.019,1.024c0,0.563-0.457,1.015-1.019,1.015
				c-0.563,0-1.019-0.452-1.019-1.015C51.229,13.48,51.686,13.026,52.248,13.026z M74.442,34.749H51.435V17.342h23.008V34.749z"/>
			<polyline fill="none" stroke="#80EB46" stroke-linecap="round" stroke-linejoin="round" stroke-miterlimit="10" points="
				53.599,27.126 57.885,27.126 59.333,24.681 61.076,28.828 63.317,20.683 65.812,31.982 67.009,26.925 72.447,26.925 			"/>
		</g>
		<g>
			<path fill="#80EB46" d="M33.749,11.487H10.427c-1.428,0-2.593,1.174-2.593,2.603v15.615c0,1.43,1.165,2.601,2.593,2.601h9.069
				l-2.594,3.902v1.301h10.37v-1.301l-2.593-3.902h9.069c1.426,0,2.594-1.171,2.594-2.601V14.09
				C36.343,12.661,35.175,11.487,33.749,11.487z M22.089,30.89c-0.405,0-0.732-0.328-0.732-0.731c0-0.406,0.327-0.735,0.732-0.735
				c0.402,0,0.731,0.329,0.731,0.735C22.82,30.562,22.491,30.89,22.089,30.89z M33.749,28.372H10.427V14.09h23.322V28.372z"/>
			<path fill="#80EB46" d="M26.373,22.875l1.773-1.779l-1.773-1.781V16.79h-2.512l-1.772-1.776l-1.774,1.776h-2.511v2.524
				l-1.774,1.781l1.774,1.779v2.523h2.511l1.774,1.78l1.772-1.78h2.512V22.875z M22.089,24.321V17.87
				c1.772,0,3.213,1.444,3.213,3.226C25.302,22.875,23.861,24.321,22.089,24.321z"/>
		</g>
	</g>
	<g id="Red" display="none">
		<rect x="3.666" y="6.002" display="inline" opacity="0.3" fill="#FF868A" width="36.846" height="36.995"/>
		<rect x="44.517" y="6.002" display="inline" opacity="0.3" fill="#FF868A" width="36.848" height="36.995"/>
		<g display="inline">
			<path fill="#FF5943" d="M75.156,11.487H50.721c-1.123,0-2.035,0.92-2.035,2.045v21.933c0,1.125,0.912,2.044,2.035,2.044h24.436
				c1.122,0,2.037-0.919,2.037-2.044V13.532C77.193,12.407,76.278,11.487,75.156,11.487z M55.303,13.026
				c0.563,0,1.021,0.454,1.021,1.024c0,0.563-0.457,1.015-1.021,1.015c-0.564,0-1.02-0.452-1.02-1.015
				C54.283,13.48,54.738,13.026,55.303,13.026z M52.248,13.026c0.562,0,1.019,0.454,1.019,1.024c0,0.563-0.457,1.015-1.019,1.015
				c-0.563,0-1.019-0.452-1.019-1.015C51.229,13.48,51.686,13.026,52.248,13.026z M74.442,34.749H51.435V17.342h23.008V34.749z"/>
			<polyline fill="none" stroke="#FF5943" stroke-linecap="round" stroke-linejoin="round" stroke-miterlimit="10" points="
				53.599,27.126 57.885,27.126 59.333,24.681 61.076,28.828 63.317,20.683 65.812,31.982 67.009,26.925 72.447,26.925 			"/>
		</g>
		<g display="inline">
			<path fill="#FF5943" d="M33.749,11.487H10.427c-1.428,0-2.593,1.174-2.593,2.603v15.615c0,1.43,1.165,2.601,2.593,2.601h9.069
				l-2.594,3.902v1.301h10.37v-1.301l-2.593-3.902h9.069c1.426,0,2.594-1.171,2.594-2.601V14.09
				C36.343,12.661,35.175,11.487,33.749,11.487z M22.089,30.89c-0.405,0-0.732-0.328-0.732-0.731c0-0.406,0.327-0.735,0.732-0.735
				c0.402,0,0.731,0.329,0.731,0.735C22.82,30.562,22.491,30.89,22.089,30.89z M33.749,28.372H10.427V14.09h23.322V28.372z"/>
			<path fill="#FF5943" d="M26.373,22.875l1.773-1.779l-1.773-1.781V16.79h-2.512l-1.772-1.776l-1.774,1.776h-2.511v2.524
				l-1.774,1.781l1.774,1.779v2.523h2.511l1.774,1.78l1.772-1.78h2.512V22.875z M22.089,24.321V17.87
				c1.772,0,3.213,1.444,3.213,3.226C25.302,22.875,23.861,24.321,22.089,24.321z"/>
		</g>
	</g>
</g>
<g id="BMgrMapTxtBG">
	<rect x="85" opacity="0.8" fill="#282828" width="220" height="49"/>
	<g>
		<g>
			<rect x="85" y="0.014" fill="#B3B3B3" width="220" height="1.34"/>
		</g>
		<rect x="85" y="47.984" fill="#B3B3B3" width="220" height="1"/>
	</g>
</g>
<g id="BMgrMapTxt_1_">
	<rect x="88.333" y="10.335" fill="none" width="214" height="34.332"/>
	<text transform="matrix(1 0 0 1 120.333 37.0684)" fill="#FFFFFF" font-family="맑은 고딕" font-weight="bold" font-size="30">서울특별시</text>
</g>
</svg>
