<?xml version="1.0" encoding="utf-8"?>
<!-- Generator: Adobe Illustrator 16.0.0, SVG Export Plug-In . SVG Version: 6.00 Build 0)  -->
<!DOCTYPE svg PUBLIC "-//W3C//DTD SVG 1.1//EN" "http://www.w3.org/Graphics/SVG/1.1/DTD/svg11.dtd">
<svg version="1.1" xmlns="http://www.w3.org/2000/svg" xmlns:xlink="http://www.w3.org/1999/xlink" x="0px" y="0px" width="408px"
	 height="128px" viewBox="0 0 408 128" enable-background="new 0 0 408 128" xml:space="preserve">
<g id="MCya1">
	<path fill="#141414" d="M404,4v120H4V4H404 M404,0H4C1.791,0,0,1.791,0,4v120c0,2.209,1.791,4,4,4h400c2.209,0,4-1.791,4-4V4
		C408,1.791,406.209,0,404,0L404,0z"/>
</g>
<g id="MCya2">
	<g>
		<linearGradient id="SVGID_1_" gradientUnits="userSpaceOnUse" x1="4" y1="64" x2="404" y2="64">
			<stop  offset="0" style="stop-color:#707070"/>
			<stop  offset="0.2796" style="stop-color:#D0D0D0"/>
			<stop  offset="0.6075" style="stop-color:#A5A5A5"/>
			<stop  offset="1" style="stop-color:#707070"/>
		</linearGradient>
		<path fill="url(#SVGID_1_)" d="M400,8v112H8V8H400 M404,4H4v120h400V4L404,4z"/>
	</g>
</g>
<g id="blueTopCon">
	<linearGradient id="SVGID_2_" gradientUnits="userSpaceOnUse" x1="8.0449" y1="34.2646" x2="400.0293" y2="34.2646">
		<stop  offset="0" style="stop-color:#072F4D"/>
		<stop  offset="0.5" style="stop-color:#07407A"/>
		<stop  offset="1" style="stop-color:#072F4D"/>
	</linearGradient>
	<rect x="8.045" y="7.479" fill="url(#SVGID_2_)" width="391.984" height="53.572"/>
</g>
<g id="BlackBottomCon">
	<linearGradient id="SVGID_3_" gradientUnits="userSpaceOnUse" x1="204.0371" y1="119.999" x2="204.0371" y2="65.0508">
		<stop  offset="0" style="stop-color:#404040"/>
		<stop  offset="0.6882" style="stop-color:#050505"/>
		<stop  offset="0.9839" style="stop-color:#252525"/>
	</linearGradient>
	<rect x="8.045" y="65.051" fill="url(#SVGID_3_)" width="391.984" height="54.948"/>
</g>
<g id="MCya3">
	<g>
		<rect x="136" y="65.027" fill="#606060" width="4" height="54.875"/>
	</g>
	<g>
		<rect x="268" y="65.027" fill="#606060" width="4" height="54.875"/>
	</g>
</g>
<g id="MCya4">
	<linearGradient id="SVGID_4_" gradientUnits="userSpaceOnUse" x1="8.0449" y1="63.0508" x2="400.0293" y2="63.0508">
		<stop  offset="0" style="stop-color:#606060"/>
		<stop  offset="0.2796" style="stop-color:#B9B9B9"/>
		<stop  offset="0.6075" style="stop-color:#909090"/>
		<stop  offset="1" style="stop-color:#606060"/>
	</linearGradient>
	<rect x="8.045" y="61.051" fill="url(#SVGID_4_)" width="391.984" height="4"/>
</g>
<g id="MCya5">
	<text transform="matrix(1 0 0 1 161.0005 48.667)" fill="#FFFFFF" font-family="맑은 고딕" font-weight="bold" font-size="35">범 례</text>
</g>
<g id="MCya6">
	<text transform="matrix(1 0 0 1 12.0449 105.167)" fill="#A9DDD6" font-family="맑은 고딕" font-weight="bold" font-size="30">사고접수</text>
</g>
<g id="MCya7">
	<text transform="matrix(1 0 0 1 159.0449 105.167)" fill="#6CD8D0" font-family="맑은 고딕" font-weight="bold" font-size="30">처리중</text>
</g>
<g id="MCya8">
	<text transform="matrix(1 0 0 1 275.0449 105.167)" fill="#15F9CC" font-family="맑은 고딕" font-weight="bold" font-size="30">처리완료</text>
</g>
</svg>
