<?xml version="1.0" encoding="utf-8"?>
<!-- Generator: Adobe Illustrator 16.0.0, SVG Export Plug-In . SVG Version: 6.00 Build 0)  -->
<!DOCTYPE svg PUBLIC "-//W3C//DTD SVG 1.1//EN" "http://www.w3.org/Graphics/SVG/1.1/DTD/svg11.dtd">
<svg version="1.1" id="TopBG" xmlns="http://www.w3.org/2000/svg" xmlns:xlink="http://www.w3.org/1999/xlink" x="0px" y="0px"
	 width="649px" height="158px" viewBox="0 32 649 158" enable-background="new 0 32 649 158" xml:space="preserve">
<linearGradient id="SVGID_1_" gradientUnits="userSpaceOnUse" x1="420.8398" y1="-221.5991" x2="420.8398" y2="-113.1968" gradientTransform="matrix(1 0 0 -1 -96.3398 -31.5996)">
	<stop  offset="0.9086" style="stop-color:#656565;stop-opacity:0"/>
	<stop  offset="1" style="stop-color:#404040;stop-opacity:0.2"/>
</linearGradient>
<path fill="url(#SVGID_1_)" d="M649,184.191c0,3.209-2.59,5.809-5.783,5.809H5.784C2.589,190,0,187.4,0,184.191V87.404
	c0-3.207,2.589-5.807,5.784-5.807h637.433c3.193,0,5.783,2.6,5.783,5.807V184.191z"/>
<linearGradient id="SVGID_2_" gradientUnits="userSpaceOnUse" x1="420.9365" y1="-114.1938" x2="420.9365" y2="-64.1938" gradientTransform="matrix(1 0 0 -1 -96.3398 -31.5996)">
	<stop  offset="0" style="stop-color:#505050;stop-opacity:0.992"/>
	<stop  offset="0.057" style="stop-color:#666666;stop-opacity:0.854"/>
	<stop  offset="0.1506" style="stop-color:#848484;stop-opacity:0.6273"/>
	<stop  offset="0.2032" style="stop-color:#909090;stop-opacity:0.5"/>
	<stop  offset="0.673" style="stop-color:#909090;stop-opacity:0.1"/>
	<stop  offset="1" style="stop-color:#909090;stop-opacity:0"/>
</linearGradient>
<polygon opacity="0.7" fill="url(#SVGID_2_)" enable-background="new    " points="564.581,32.594 85.562,32.594 2.096,82.594 
	647.096,82.594 "/>
<g>
	
		<linearGradient id="SVGID_3_" gradientUnits="userSpaceOnUse" x1="420.8398" y1="-222.5991" x2="420.8398" y2="-112.1968" gradientTransform="matrix(1 0 0 -1 -96.3398 -31.5996)">
		<stop  offset="0.4731" style="stop-color:#656565;stop-opacity:0"/>
		<stop  offset="1" style="stop-color:#909090"/>
	</linearGradient>
	<path fill="url(#SVGID_3_)" d="M642.219,191H6.782C3.042,191,0,187.945,0,184.191V87.404c0-3.753,3.042-6.807,6.782-6.807h635.437
		c3.739,0,6.781,3.054,6.781,6.807v96.788C649,187.945,645.958,191,642.219,191z M6.782,82.598c-2.639,0-4.785,2.156-4.785,4.807
		v96.789c0,2.65,2.146,4.808,4.785,4.808h635.437c2.64,0,4.784-2.155,4.784-4.808v-96.79c0-2.65-2.146-4.807-4.784-4.807
		L6.782,82.598L6.782,82.598z"/>
</g>
<linearGradient id="SVGID_4_" gradientUnits="userSpaceOnUse" x1="234.332" y1="-113.1226" x2="609.6602" y2="-113.1226" gradientTransform="matrix(1 0 0 -1 -96.3398 -31.5996)">
	<stop  offset="0" style="stop-color:#FFFFFF;stop-opacity:0"/>
	<stop  offset="0.5323" style="stop-color:#FFFFFF"/>
	<stop  offset="1" style="stop-color:#FFFFFF;stop-opacity:0"/>
</linearGradient>
<line fill="none" stroke="url(#SVGID_4_)" stroke-width="3" stroke-miterlimit="10" x1="137.992" y1="81.523" x2="513.32" y2="81.523"/>
</svg>
