<?xml version="1.0" encoding="utf-8"?>
<!-- Generator: Adobe Illustrator 16.0.0, SVG Export Plug-In . SVG Version: 6.00 Build 0)  -->
<!DOCTYPE svg PUBLIC "-//W3C//DTD SVG 1.1//EN" "http://www.w3.org/Graphics/SVG/1.1/DTD/svg11.dtd">
<svg version="1.1" xmlns="http://www.w3.org/2000/svg" xmlns:xlink="http://www.w3.org/1999/xlink" x="0px" y="0px" width="650px"
	 height="519px" viewBox="0 0 650 519" enable-background="new 0 0 650 519" xml:space="preserve">
<g id="BG" display="none">
	<g display="inline">
		<linearGradient id="SVGID_1_" gradientUnits="userSpaceOnUse" x1="1" y1="284.2402" x2="650" y2="284.2402">
			<stop  offset="0" style="stop-color:#000000;stop-opacity:0.3"/>
			<stop  offset="1" style="stop-color:#000000;stop-opacity:0.5"/>
		</linearGradient>
		<path fill="url(#SVGID_1_)" d="M650,513.985c0,2.765-2.238,5.005-5,5.005H6c-2.762,0-5-2.24-5-5.005V54.496
			c0-2.765,2.238-5.005,5-5.005h639c2.762,0,5,2.241,5,5.005V513.985z"/>
		<g>
			<path fill="#8A8A8A" d="M644,51.49c1.654,0,3,1.348,3,3.005v459.49c0,1.657-1.346,3.005-3,3.005H5c-1.654,0-3-1.348-3-3.005
				V54.496c0-1.657,1.346-3.005,3-3.005H644 M644,49.49H5c-2.762,0-5,2.241-5,5.005v459.49c0,2.765,2.238,5.005,5,5.005h639
				c2.762,0,5-2.24,5-5.005V54.496C649,51.731,646.762,49.49,644,49.49L644,49.49z"/>
		</g>
		
			<linearGradient id="SVGID_2_" gradientUnits="userSpaceOnUse" x1="421.3398" y1="77.9941" x2="421.3398" y2="186.3965" gradientTransform="matrix(1 0 0 -1 -96.3398 235.4004)">
			<stop  offset="0.9086" style="stop-color:#656565;stop-opacity:0"/>
			<stop  offset="1" style="stop-color:#404040;stop-opacity:0.2"/>
		</linearGradient>
		<path fill="url(#SVGID_2_)" d="M650,151.598c0,3.209-2.59,5.809-5.783,5.809H5.784c-3.195,0-5.784-2.6-5.784-5.809V54.811
			c0-3.207,2.589-5.807,5.784-5.807h638.433c3.193,0,5.783,2.6,5.783,5.807V151.598z"/>
		
			<linearGradient id="SVGID_3_" gradientUnits="userSpaceOnUse" x1="421.4365" y1="185.4004" x2="421.4365" y2="235.4009" gradientTransform="matrix(1 0 0 -1 -96.3398 235.4004)">
			<stop  offset="0" style="stop-color:#505050;stop-opacity:0.992"/>
			<stop  offset="0.057" style="stop-color:#666666;stop-opacity:0.854"/>
			<stop  offset="0.1506" style="stop-color:#848484;stop-opacity:0.6273"/>
			<stop  offset="0.2032" style="stop-color:#909090;stop-opacity:0.5"/>
			<stop  offset="0.673" style="stop-color:#909090;stop-opacity:0.1"/>
			<stop  offset="1" style="stop-color:#909090;stop-opacity:0"/>
		</linearGradient>
		<polygon opacity="0.7" fill="url(#SVGID_3_)" enable-background="new    " points="565.581,0 85.562,0 2.096,50 648.096,50 		"/>
		<g>
			
				<linearGradient id="SVGID_4_" gradientUnits="userSpaceOnUse" x1="421.3398" y1="76.9941" x2="421.3398" y2="187.3965" gradientTransform="matrix(1 0 0 -1 -96.3398 235.4004)">
				<stop  offset="0.4731" style="stop-color:#656565;stop-opacity:0"/>
				<stop  offset="1" style="stop-color:#909090"/>
			</linearGradient>
			<path fill="url(#SVGID_4_)" d="M643.219,158.406H6.782c-3.74,0-6.782-3.055-6.782-6.809V54.811c0-3.754,3.042-6.807,6.782-6.807
				h636.437c3.739,0,6.781,3.053,6.781,6.807v96.787C650,155.352,646.958,158.406,643.219,158.406z M6.782,50.004
				c-2.639,0-4.785,2.156-4.785,4.807V151.6c0,2.65,2.146,4.808,4.785,4.808h636.437c2.64,0,4.784-2.155,4.784-4.808V54.811
				c0-2.65-2.146-4.807-4.784-4.807H6.782L6.782,50.004z"/>
		</g>
		
			<linearGradient id="SVGID_5_" gradientUnits="userSpaceOnUse" x1="234.332" y1="186.4707" x2="610.6602" y2="186.4707" gradientTransform="matrix(1 0 0 -1 -96.3398 235.4004)">
			<stop  offset="0" style="stop-color:#FFFFFF;stop-opacity:0"/>
			<stop  offset="0.5323" style="stop-color:#FFFFFF"/>
			<stop  offset="1" style="stop-color:#FFFFFF;stop-opacity:0"/>
		</linearGradient>
		
			<line fill="none" stroke="url(#SVGID_5_)" stroke-width="3" stroke-miterlimit="10" x1="137.992" y1="48.93" x2="514.32" y2="48.93"/>
	</g>
	<g display="inline">
		<linearGradient id="SVGID_6_" gradientUnits="userSpaceOnUse" x1="324.9995" y1="478.6387" x2="324.9995" y2="507.0703">
			<stop  offset="0" style="stop-color:#3B3B3B;stop-opacity:0.35"/>
			<stop  offset="1" style="stop-color:#808181"/>
		</linearGradient>
		<polygon fill="url(#SVGID_6_)" points="625.5,507.07 24.5,507.07 46.202,478.639 603.799,478.639 		"/>
		<linearGradient id="SVGID_7_" gradientUnits="userSpaceOnUse" x1="325.0005" y1="517.0703" x2="325.0005" y2="507.0703">
			<stop  offset="0" style="stop-color:#808080"/>
			<stop  offset="1" style="stop-color:#3B3B3B"/>
		</linearGradient>
		<rect x="24.5" y="507.07" fill="url(#SVGID_7_)" width="601" height="10"/>
		<linearGradient id="SVGID_8_" gradientUnits="userSpaceOnUse" x1="24.5" y1="508.0703" x2="625.5" y2="508.0703">
			<stop  offset="0" style="stop-color:#FFFFFF;stop-opacity:0"/>
			<stop  offset="0.5" style="stop-color:#FFFFFF"/>
			<stop  offset="1" style="stop-color:#FFFFFF;stop-opacity:0"/>
		</linearGradient>
		<rect x="24.5" y="507.07" fill="url(#SVGID_8_)" width="601" height="2"/>
		<g opacity="0.2">
			<rect x="24.5" y="515.986" fill="#FFFFFF" width="601" height="1"/>
		</g>
		<g opacity="0.2">
			<rect x="24.5" y="514.07" fill="#FFFFFF" width="601" height="1"/>
			<rect x="24.5" y="512.027" fill="#FFFFFF" width="601" height="1"/>
			<rect x="24.5" y="510.027" fill="#FFFFFF" width="601" height="1"/>
			<rect x="24.5" y="508.027" fill="#FFFFFF" width="601" height="1"/>
		</g>
		<polygon opacity="0.05" fill="#FFFFFF" points="46.167,478.639 24.5,507.07 383.219,507.07 294.336,478.639 		"/>
	</g>
</g>
<g id="Layer_7" display="none">
	<rect display="inline" width="650" height="519"/>
</g>
<g id="arrow" opacity="0.15">
	<g>
		<path fill="#303232" d="M82.153,266.285c-1.24,0-2.464-0.334-3.54-0.966c-3.327-1.957-4.443-6.256-2.488-9.582l22.161-37.71
			l-22.161-37.708c-1.956-3.328-0.839-7.627,2.488-9.582c1.076-0.632,2.3-0.967,3.54-0.967c2.475,0,4.79,1.324,6.041,3.455
			l26.331,44.802l-26.331,44.804C86.943,264.962,84.627,266.285,82.153,266.285z"/>
		<path d="M82.154,170.771L82.154,170.771c2.122,0,4.106,1.135,5.179,2.961l26.032,44.295l-26.032,44.297
			c-1.074,1.826-3.059,2.961-5.18,2.961c-1.062,0-2.111-0.286-3.032-0.827c-2.852-1.678-3.81-5.362-2.133-8.214l21.863-37.204
			l0.596-1.013l-0.596-1.013l-21.863-37.201c-1.676-2.853-0.72-6.538,2.132-8.214C80.042,171.057,81.092,170.771,82.154,170.771
			 M82.154,168.771c-1.377,0-2.773,0.356-4.047,1.104c-3.809,2.238-5.083,7.141-2.844,10.951l21.863,37.201L75.263,255.23
			c-2.239,3.809-0.965,8.711,2.844,10.951c1.273,0.748,2.668,1.104,4.046,1.104c2.743,0,5.414-1.412,6.904-3.947l26.628-45.311
			l-26.628-45.309C87.567,170.182,84.896,168.771,82.154,168.771L82.154,168.771z"/>
	</g>
	<g>
		<path fill="#333B3D" d="M109.579,266.285c-1.24,0-2.464-0.334-3.54-0.966c-3.327-1.957-4.443-6.256-2.488-9.582l22.16-37.71
			l-22.16-37.708c-1.956-3.328-0.839-7.627,2.488-9.582c1.075-0.632,2.299-0.966,3.539-0.966c2.475,0,4.791,1.324,6.042,3.455
			l26.33,44.802l-26.33,44.804C114.369,264.962,112.053,266.285,109.579,266.285z"/>
		<path d="M109.579,170.771L109.579,170.771c2.122,0,4.106,1.135,5.18,2.961l26.032,44.295l-26.032,44.297
			c-1.074,1.826-3.059,2.961-5.18,2.961c-1.062,0-2.111-0.286-3.032-0.827c-2.852-1.678-3.81-5.362-2.133-8.214l21.863-37.204
			l0.596-1.013l-0.596-1.013l-21.862-37.201c-1.676-2.853-0.72-6.538,2.132-8.214C107.468,171.058,108.517,170.771,109.579,170.771
			 M109.578,168.771c-1.377,0-2.772,0.356-4.045,1.104c-3.809,2.238-5.083,7.141-2.844,10.951l21.863,37.201l-21.863,37.203
			c-2.239,3.809-0.965,8.711,2.844,10.951c1.273,0.748,2.668,1.104,4.046,1.104c2.743,0,5.414-1.412,6.904-3.947l26.627-45.311
			l-26.627-45.309C114.993,170.183,112.322,168.771,109.578,168.771L109.578,168.771z"/>
	</g>
	<g>
		<path fill="#38484E" d="M137.004,266.285c-1.24,0-2.464-0.334-3.54-0.966c-3.327-1.957-4.443-6.256-2.488-9.582l22.161-37.71
			l-22.161-37.708c-1.956-3.328-0.839-7.627,2.488-9.582c1.076-0.632,2.299-0.967,3.539-0.967c2.475,0,4.79,1.324,6.042,3.455
			l26.331,44.802l-26.331,44.804C141.794,264.962,139.479,266.285,137.004,266.285z"/>
		<path d="M137.004,170.771L137.004,170.771c2.122,0,4.106,1.135,5.18,2.961l26.032,44.295l-26.032,44.297
			c-1.074,1.826-3.059,2.961-5.18,2.961c-1.062,0-2.111-0.286-3.032-0.827c-2.853-1.678-3.81-5.362-2.133-8.214l21.863-37.204
			l0.596-1.013l-0.596-1.013l-21.863-37.201c-1.676-2.853-0.72-6.538,2.133-8.214C134.894,171.057,135.942,170.771,137.004,170.771
			 M137.004,168.771c-1.377,0-2.773,0.356-4.046,1.104c-3.809,2.238-5.083,7.141-2.844,10.951l21.863,37.201l-21.863,37.203
			c-2.239,3.809-0.965,8.711,2.844,10.951c1.273,0.748,2.668,1.104,4.046,1.104c2.743,0,5.414-1.412,6.904-3.947l26.628-45.311
			l-26.628-45.309C142.418,170.182,139.747,168.771,137.004,168.771L137.004,168.771z"/>
	</g>
	<g>
		<path fill="#38484E" d="M164.43,266.285c-1.24,0-2.464-0.334-3.54-0.966c-3.327-1.957-4.443-6.256-2.488-9.582l22.16-37.71
			l-22.16-37.708c-1.956-3.328-0.839-7.627,2.488-9.582c1.075-0.632,2.298-0.966,3.538-0.966c2.475,0,4.791,1.324,6.043,3.455
			l26.33,44.802l-26.33,44.804C169.22,264.962,166.904,266.285,164.43,266.285z"/>
		<path d="M164.43,170.771L164.43,170.771c2.122,0,4.106,1.135,5.18,2.961l26.032,44.295l-26.032,44.297
			c-1.074,1.826-3.059,2.961-5.18,2.961c-1.062,0-2.111-0.286-3.032-0.827c-2.852-1.678-3.81-5.362-2.133-8.214l21.863-37.204
			l0.596-1.013l-0.596-1.013l-21.862-37.201c-1.676-2.853-0.72-6.538,2.133-8.214C162.319,171.058,163.367,170.771,164.43,170.771
			 M164.429,168.771c-1.377,0-2.772,0.356-4.045,1.104c-3.809,2.238-5.083,7.141-2.844,10.951l21.863,37.201L157.54,255.23
			c-2.239,3.809-0.965,8.711,2.844,10.951c1.273,0.748,2.668,1.104,4.046,1.104c2.743,0,5.414-1.412,6.904-3.947l26.627-45.311
			l-26.627-45.309C169.843,170.183,167.172,168.771,164.429,168.771L164.429,168.771z"/>
	</g>
	<g>
		<path fill="#40616E" d="M191.855,266.285c-1.24,0-2.464-0.334-3.54-0.966c-3.327-1.957-4.443-6.256-2.488-9.582l22.16-37.71
			l-22.16-37.708c-1.956-3.328-0.839-7.627,2.488-9.582c1.075-0.632,2.299-0.966,3.538-0.966c2.475,0,4.791,1.324,6.043,3.455
			l26.33,44.802l-26.33,44.804C196.646,264.962,194.33,266.285,191.855,266.285z"/>
		<path d="M191.855,170.771L191.855,170.771c2.122,0,4.106,1.135,5.18,2.961l26.032,44.295l-26.032,44.297
			c-1.074,1.826-3.059,2.961-5.18,2.961c-1.062,0-2.111-0.286-3.032-0.827c-2.852-1.678-3.81-5.362-2.133-8.214l21.863-37.204
			l0.596-1.013l-0.596-1.013l-21.862-37.201c-1.676-2.853-0.72-6.538,2.132-8.214C189.745,171.058,190.793,170.771,191.855,170.771
			 M191.854,168.771c-1.376,0-2.772,0.356-4.045,1.104c-3.809,2.238-5.083,7.141-2.844,10.951l21.863,37.201l-21.863,37.203
			c-2.239,3.809-0.965,8.711,2.844,10.951c1.273,0.748,2.668,1.104,4.046,1.104c2.743,0,5.414-1.412,6.904-3.947l26.627-45.311
			l-26.627-45.309C197.269,170.183,194.598,168.771,191.854,168.771L191.854,168.771z"/>
	</g>
	<g>
		<path fill="#40616E" d="M219.281,266.285c-1.24,0-2.464-0.334-3.54-0.966c-3.327-1.957-4.443-6.256-2.488-9.582l22.16-37.71
			l-22.16-37.708c-1.956-3.328-0.839-7.627,2.488-9.582c1.075-0.632,2.299-0.966,3.539-0.966c2.475,0,4.791,1.324,6.042,3.455
			l26.33,44.802l-26.33,44.804C224.071,264.962,221.755,266.285,219.281,266.285z"/>
		<path d="M219.281,170.771L219.281,170.771c2.122,0,4.106,1.135,5.18,2.961l26.032,44.295l-26.032,44.297
			c-1.074,1.826-3.059,2.961-5.18,2.961c-1.062,0-2.111-0.286-3.032-0.827c-2.852-1.678-3.81-5.362-2.133-8.214l21.863-37.204
			l0.596-1.013l-0.596-1.013l-21.862-37.201c-1.676-2.853-0.72-6.538,2.132-8.214C217.17,171.058,218.219,170.771,219.281,170.771
			 M219.28,168.771c-1.377,0-2.772,0.356-4.045,1.104c-3.809,2.238-5.083,7.141-2.844,10.951l21.863,37.201l-21.863,37.203
			c-2.239,3.809-0.965,8.711,2.844,10.951c1.273,0.748,2.668,1.104,4.046,1.104c2.743,0,5.414-1.412,6.904-3.947l26.627-45.311
			l-26.627-45.309C224.695,170.183,222.024,168.771,219.28,168.771L219.28,168.771z"/>
	</g>
	<g>
		<path fill="#457F90" d="M246.706,266.285c-1.24,0-2.464-0.334-3.54-0.966c-3.327-1.957-4.443-6.256-2.488-9.582l22.161-37.71
			l-22.161-37.708c-1.956-3.328-0.839-7.627,2.488-9.582c1.076-0.632,2.299-0.967,3.54-0.967c2.475,0,4.79,1.324,6.042,3.455
			l26.331,44.802l-26.331,44.804C251.496,264.962,249.181,266.285,246.706,266.285z"/>
		<path d="M246.707,170.771L246.707,170.771c2.122,0,4.106,1.135,5.179,2.961l26.032,44.295l-26.032,44.297
			c-1.074,1.826-3.059,2.961-5.18,2.961c-1.062,0-2.111-0.286-3.032-0.827c-2.853-1.678-3.81-5.362-2.133-8.214l21.863-37.204
			l0.596-1.013l-0.596-1.013l-21.863-37.201c-1.676-2.853-0.72-6.538,2.133-8.214C244.596,171.057,245.645,170.771,246.707,170.771
			 M246.707,168.771c-1.377,0-2.773,0.356-4.046,1.104c-3.809,2.238-5.083,7.141-2.844,10.951l21.863,37.201l-21.863,37.203
			c-2.239,3.809-0.965,8.711,2.844,10.951c1.273,0.748,2.668,1.104,4.046,1.104c2.743,0,5.414-1.412,6.904-3.947l26.628-45.311
			l-26.628-45.309C252.121,170.182,249.45,168.771,246.707,168.771L246.707,168.771z"/>
	</g>
	<g>
		<path fill="#457F91" d="M274.132,266.285c-1.24,0-2.464-0.334-3.54-0.966c-3.327-1.957-4.443-6.256-2.488-9.582l22.161-37.71
			l-22.161-37.708c-1.956-3.328-0.839-7.627,2.488-9.582c1.076-0.632,2.299-0.967,3.54-0.967c2.475,0,4.79,1.324,6.042,3.455
			l26.331,44.802l-26.331,44.804C278.922,264.962,276.606,266.285,274.132,266.285z"/>
		<path d="M274.133,170.771L274.133,170.771c2.122,0,4.106,1.135,5.179,2.961l26.032,44.295l-26.032,44.297
			c-1.074,1.826-3.059,2.961-5.18,2.961c-1.062,0-2.111-0.286-3.032-0.827c-2.853-1.678-3.81-5.362-2.133-8.214l21.863-37.204
			l0.596-1.013l-0.596-1.013l-21.863-37.201c-1.676-2.853-0.72-6.538,2.133-8.214C272.021,171.057,273.07,170.771,274.133,170.771
			 M274.132,168.771c-1.377,0-2.773,0.356-4.046,1.104c-3.809,2.238-5.083,7.141-2.844,10.951l21.863,37.201l-21.863,37.203
			c-2.239,3.809-0.965,8.711,2.844,10.951c1.273,0.748,2.668,1.104,4.046,1.104c2.743,0,5.414-1.412,6.904-3.947l26.628-45.311
			l-26.628-45.309C279.546,170.182,276.875,168.771,274.132,168.771L274.132,168.771z"/>
	</g>
	<g>
		<path fill="#4498A9" d="M301.558,266.285c-1.24,0-2.464-0.334-3.54-0.966c-3.327-1.957-4.443-6.256-2.488-9.582l22.16-37.71
			l-22.16-37.708c-1.956-3.328-0.839-7.627,2.488-9.582c1.075-0.632,2.299-0.966,3.539-0.966c2.475,0,4.791,1.324,6.042,3.454
			l26.33,44.802l-26.33,44.804C306.348,264.962,304.032,266.285,301.558,266.285z"/>
		<path d="M301.558,170.771L301.558,170.771c2.122,0,4.107,1.135,5.18,2.961l26.033,44.295l-26.033,44.297
			c-1.074,1.826-3.059,2.961-5.18,2.961c-1.062,0-2.111-0.286-3.032-0.827c-2.853-1.678-3.81-5.362-2.133-8.214l21.863-37.204
			l0.596-1.013l-0.596-1.013l-21.862-37.201c-1.676-2.853-0.72-6.538,2.132-8.214C299.447,171.058,300.496,170.771,301.558,170.771
			 M301.557,168.771c-1.377,0-2.773,0.356-4.045,1.104c-3.809,2.238-5.083,7.141-2.844,10.951l21.863,37.201l-21.863,37.203
			c-2.239,3.809-0.965,8.711,2.844,10.951c1.273,0.748,2.668,1.104,4.046,1.104c2.743,0,5.414-1.412,6.904-3.947l26.628-45.311
			l-26.628-45.309C306.972,170.183,304.301,168.771,301.557,168.771L301.557,168.771z"/>
	</g>
	<g>
		<path fill="#40A3B3" d="M328.983,266.285c-1.24,0-2.464-0.334-3.54-0.966c-3.327-1.957-4.443-6.256-2.488-9.582l22.161-37.71
			l-22.161-37.708c-1.956-3.328-0.839-7.627,2.488-9.582c1.075-0.632,2.299-0.966,3.539-0.966c2.476,0,4.791,1.324,6.043,3.455
			l26.329,44.802l-26.329,44.804C333.774,264.962,331.459,266.285,328.983,266.285z"/>
		<path d="M328.983,170.771L328.983,170.771c2.122,0,4.107,1.135,5.181,2.961l26.032,44.295l-26.032,44.297
			c-1.073,1.826-3.059,2.961-5.181,2.961c-1.062,0-2.11-0.286-3.032-0.827c-2.853-1.678-3.81-5.362-2.133-8.214l21.864-37.204
			l0.595-1.013l-0.595-1.013l-21.863-37.201c-1.676-2.853-0.72-6.538,2.132-8.214C326.873,171.058,327.921,170.771,328.983,170.771
			 M328.983,168.771c-1.378,0-2.773,0.356-4.046,1.104c-3.809,2.238-5.083,7.141-2.844,10.951l21.863,37.201l-21.863,37.203
			c-2.239,3.809-0.965,8.711,2.844,10.951c1.273,0.748,2.668,1.104,4.046,1.104c2.743,0,5.415-1.412,6.905-3.947l26.627-45.311
			l-26.627-45.309C334.398,170.183,331.727,168.771,328.983,168.771L328.983,168.771z"/>
	</g>
	<g>
		<path fill="#3CAEBB" d="M356.41,266.285c-1.24,0-2.465-0.334-3.54-0.966c-3.327-1.957-4.443-6.256-2.488-9.582l22.161-37.71
			l-22.161-37.708c-1.955-3.328-0.839-7.627,2.488-9.582c1.075-0.632,2.299-0.966,3.539-0.966c2.476,0,4.791,1.324,6.043,3.455
			l26.329,44.802l-26.329,44.804C361.2,264.962,358.885,266.285,356.41,266.285z"/>
		<path d="M356.409,170.771L356.409,170.771c2.122,0,4.107,1.135,5.181,2.961l26.032,44.295l-26.032,44.297
			c-1.073,1.826-3.058,2.961-5.18,2.961c-1.063,0-2.111-0.286-3.033-0.827c-2.852-1.678-3.809-5.362-2.133-8.214l21.863-37.204
			l0.595-1.013l-0.595-1.013l-21.863-37.201c-1.676-2.853-0.72-6.538,2.133-8.214C354.299,171.058,355.347,170.771,356.409,170.771
			 M356.409,168.771c-1.378,0-2.773,0.356-4.046,1.104c-3.809,2.238-5.082,7.141-2.844,10.951l21.863,37.201L349.52,255.23
			c-2.238,3.809-0.965,8.711,2.844,10.951c1.273,0.748,2.668,1.104,4.047,1.104c2.742,0,5.414-1.412,6.904-3.947l26.627-45.311
			l-26.627-45.309C361.824,170.183,359.152,168.771,356.409,168.771L356.409,168.771z"/>
	</g>
	<g>
		<path fill="#30C6CC" d="M383.834,266.285c-1.239,0-2.463-0.334-3.538-0.966c-1.613-0.948-2.76-2.467-3.229-4.276
			c-0.471-1.81-0.207-3.694,0.741-5.306l22.161-37.71l-22.161-37.708c-0.948-1.613-1.212-3.497-0.741-5.307
			c0.47-1.81,1.616-3.328,3.229-4.275c1.075-0.632,2.299-0.967,3.538-0.967c2.476,0,4.79,1.324,6.042,3.455l26.331,44.802
			l-26.331,44.804C388.624,264.962,386.309,266.285,383.834,266.285z"/>
		<path d="M383.835,170.771L383.835,170.771c2.121,0,4.106,1.135,5.179,2.961l26.033,44.295l-26.033,44.297
			c-1.073,1.826-3.058,2.961-5.18,2.961c-1.062,0-2.109-0.286-3.031-0.827c-1.383-0.813-2.366-2.115-2.769-3.667
			c-0.403-1.551-0.178-3.165,0.636-4.547l21.863-37.204l0.595-1.013l-0.595-1.013l-21.863-37.202
			c-0.813-1.382-1.039-2.998-0.636-4.549c0.402-1.551,1.386-2.852,2.769-3.665C381.725,171.057,382.772,170.771,383.835,170.771
			 M383.834,168.771c-1.377,0-2.772,0.356-4.045,1.104c-3.811,2.238-5.084,7.141-2.844,10.951l21.863,37.201l-21.863,37.203
			c-2.24,3.809-0.967,8.711,2.844,10.951c1.273,0.748,2.668,1.104,4.045,1.104c2.742,0,5.414-1.412,6.904-3.947l26.629-45.311
			l-26.629-45.309C389.248,170.182,386.577,168.771,383.834,168.771L383.834,168.771z"/>
	</g>
	<g>
		<path fill="#30C6CC" d="M411.26,266.285c-1.239,0-2.463-0.334-3.538-0.966c-1.613-0.948-2.76-2.467-3.229-4.276
			c-0.471-1.81-0.207-3.694,0.741-5.306l22.161-37.71l-22.161-37.708c-0.948-1.613-1.212-3.497-0.741-5.307
			c0.47-1.81,1.616-3.328,3.229-4.275c1.075-0.632,2.3-0.967,3.539-0.967c2.475,0,4.789,1.324,6.041,3.455l26.331,44.802
			l-26.331,44.804C416.05,264.962,413.734,266.285,411.26,266.285z"/>
		<path d="M411.262,170.771L411.262,170.771c2.121,0,4.105,1.135,5.178,2.961l26.033,44.295l-26.033,44.297
			c-1.073,1.826-3.058,2.961-5.18,2.961c-1.062,0-2.109-0.286-3.031-0.827c-1.383-0.813-2.366-2.115-2.769-3.667
			c-0.403-1.551-0.178-3.165,0.636-4.547l21.863-37.204l0.595-1.013l-0.595-1.013l-21.863-37.202
			c-0.813-1.382-1.039-2.998-0.636-4.549c0.402-1.551,1.386-2.852,2.769-3.665C409.15,171.057,410.199,170.771,411.262,170.771
			 M411.261,168.771c-1.377,0-2.772,0.356-4.046,1.104c-3.811,2.238-5.084,7.141-2.844,10.951l21.863,37.201l-21.863,37.203
			c-2.24,3.809-0.967,8.711,2.844,10.951c1.273,0.748,2.668,1.104,4.045,1.104c2.742,0,5.414-1.412,6.904-3.947l26.629-45.311
			l-26.629-45.309C416.674,170.182,414.004,168.771,411.261,168.771L411.261,168.771z"/>
	</g>
	<g>
		<path fill="#30C6CC" d="M438.686,266.285c-1.239,0-2.463-0.334-3.538-0.966c-1.613-0.948-2.76-2.467-3.229-4.276
			c-0.471-1.81-0.207-3.694,0.741-5.306l22.161-37.71l-22.161-37.708c-0.948-1.613-1.212-3.497-0.741-5.307
			c0.47-1.81,1.616-3.328,3.229-4.275c1.075-0.632,2.3-0.967,3.539-0.967c2.475,0,4.789,1.324,6.041,3.455l26.329,44.802
			l-26.329,44.804C443.476,264.962,441.16,266.285,438.686,266.285z"/>
		<path d="M438.688,170.771L438.688,170.771c2.121,0,4.105,1.135,5.178,2.961l26.032,44.295l-26.032,44.297
			c-1.073,1.826-3.058,2.961-5.18,2.961c-1.062,0-2.109-0.286-3.031-0.827c-1.383-0.813-2.366-2.115-2.769-3.667
			c-0.403-1.551-0.178-3.165,0.636-4.547l21.863-37.204l0.595-1.013l-0.595-1.013l-21.863-37.202
			c-0.813-1.382-1.039-2.998-0.636-4.549c0.402-1.551,1.386-2.852,2.769-3.665C436.576,171.057,437.625,170.771,438.688,170.771
			 M438.687,168.771c-1.377,0-2.772,0.356-4.046,1.104c-3.811,2.238-5.084,7.141-2.844,10.951l21.863,37.201l-21.863,37.203
			c-2.24,3.809-0.967,8.711,2.844,10.951c1.273,0.748,2.668,1.104,4.045,1.104c2.742,0,5.414-1.412,6.904-3.947l26.627-45.311
			l-26.627-45.309C444.1,170.182,441.43,168.771,438.687,168.771L438.687,168.771z"/>
	</g>
	<g>
		<path fill="#15F5EA" d="M466.111,266.285c-1.24,0-2.465-0.334-3.54-0.966c-3.327-1.957-4.443-6.256-2.488-9.582l22.161-37.71
			l-22.161-37.708c-1.955-3.328-0.839-7.627,2.488-9.582c1.075-0.632,2.299-0.966,3.539-0.966c2.476,0,4.791,1.324,6.043,3.455
			l26.329,44.802l-26.329,44.804C470.901,264.962,468.586,266.285,466.111,266.285z"/>
		<path d="M466.11,170.771L466.11,170.771c2.122,0,4.107,1.135,5.181,2.961l26.032,44.295l-26.032,44.297
			c-1.073,1.826-3.058,2.961-5.18,2.961c-1.063,0-2.111-0.286-3.033-0.827c-2.852-1.678-3.809-5.362-2.133-8.214l21.863-37.204
			l0.595-1.013l-0.595-1.013l-21.863-37.201c-1.676-2.853-0.72-6.538,2.133-8.214C464,171.058,465.048,170.771,466.11,170.771
			 M466.11,168.771c-1.378,0-2.773,0.356-4.046,1.104c-3.809,2.238-5.082,7.141-2.844,10.951l21.863,37.201l-21.863,37.203
			c-2.238,3.809-0.965,8.711,2.844,10.951c1.273,0.748,2.67,1.104,4.047,1.104c2.742,0,5.414-1.412,6.904-3.947l26.627-45.311
			l-26.627-45.309C471.525,170.183,468.854,168.771,466.11,168.771L466.11,168.771z"/>
	</g>
	<g>
		<path fill="#15F5EA" d="M493.537,266.285c-1.24,0-2.465-0.334-3.54-0.966c-3.327-1.957-4.443-6.256-2.488-9.582l22.161-37.71
			l-22.161-37.708c-1.955-3.328-0.839-7.627,2.488-9.582c1.075-0.632,2.3-0.966,3.539-0.966c2.476,0,4.791,1.324,6.043,3.455
			l26.329,44.802l-26.329,44.804C498.327,264.962,496.012,266.285,493.537,266.285z"/>
		<path d="M493.537,170.771L493.537,170.771c2.122,0,4.106,1.135,5.18,2.961l26.031,44.295l-26.031,44.297
			c-1.073,1.826-3.058,2.961-5.18,2.961c-1.063,0-2.111-0.286-3.033-0.827c-2.852-1.678-3.809-5.362-2.133-8.214l21.863-37.204
			l0.595-1.013l-0.595-1.013l-21.863-37.201c-1.676-2.853-0.72-6.538,2.132-8.213C491.426,171.058,492.475,170.771,493.537,170.771
			 M493.536,168.771c-1.377,0-2.772,0.356-4.046,1.104c-3.809,2.238-5.082,7.141-2.844,10.951l21.863,37.201l-21.863,37.203
			c-2.238,3.809-0.965,8.711,2.844,10.951c1.273,0.748,2.67,1.104,4.047,1.104c2.742,0,5.414-1.412,6.904-3.947l26.627-45.311
			l-26.627-45.309C498.951,170.183,496.28,168.771,493.536,168.771L493.536,168.771z"/>
	</g>
	<g>
		<path fill="#15F5EA" d="M520.961,266.285c-1.239,0-2.463-0.334-3.538-0.966c-3.327-1.957-4.443-6.256-2.488-9.582l22.161-37.71
			l-22.161-37.708c-1.955-3.328-0.839-7.627,2.488-9.582c1.075-0.632,2.3-0.967,3.54-0.967c2.475,0,4.789,1.324,6.04,3.455
			l26.331,44.802l-26.331,44.804C525.751,264.962,523.436,266.285,520.961,266.285z"/>
		<path d="M520.963,170.771L520.963,170.771c2.122,0,4.105,1.135,5.178,2.961l26.033,44.295l-26.033,44.297
			c-1.073,1.826-3.058,2.961-5.18,2.961c-1.062,0-2.109-0.286-3.031-0.827c-2.852-1.678-3.809-5.362-2.133-8.214l21.863-37.204
			l0.596-1.013l-0.596-1.013l-21.863-37.201c-1.676-2.853-0.72-6.538,2.133-8.214C518.852,171.057,519.9,170.771,520.963,170.771
			 M520.963,168.771c-1.378,0-2.773,0.356-4.047,1.104c-3.809,2.238-5.082,7.141-2.844,10.951l21.863,37.201l-21.863,37.203
			c-2.238,3.809-0.965,8.711,2.844,10.951c1.273,0.748,2.668,1.104,4.045,1.104c2.744,0,5.414-1.412,6.904-3.947l26.629-45.311
			l-26.629-45.309C526.377,170.182,523.706,168.771,520.963,168.771L520.963,168.771z"/>
	</g>
	<g>
		<path fill="#15F5EA" d="M548.387,266.285c-1.239,0-2.463-0.334-3.538-0.966c-3.327-1.957-4.443-6.256-2.488-9.582l22.161-37.71
			l-22.161-37.708c-1.955-3.328-0.839-7.627,2.488-9.582c1.075-0.632,2.3-0.967,3.539-0.967c2.475,0,4.789,1.324,6.041,3.455
			l26.331,44.802l-26.331,44.804C553.177,264.962,550.861,266.285,548.387,266.285z"/>
		<path d="M548.389,170.771L548.389,170.771c2.121,0,4.105,1.135,5.178,2.961l26.033,44.295l-26.033,44.297
			c-1.073,1.826-3.058,2.961-5.18,2.961c-1.062,0-2.109-0.286-3.031-0.827c-2.852-1.678-3.809-5.362-2.133-8.214l21.863-37.204
			l0.596-1.013l-0.596-1.013l-21.863-37.201c-1.676-2.853-0.72-6.538,2.133-8.214C546.277,171.057,547.326,170.771,548.389,170.771
			 M548.388,168.771c-1.377,0-2.772,0.356-4.046,1.104c-3.809,2.238-5.082,7.141-2.844,10.951l21.863,37.201l-21.863,37.203
			c-2.238,3.809-0.965,8.711,2.844,10.951c1.273,0.748,2.668,1.104,4.045,1.104c2.744,0,5.414-1.412,6.904-3.947l26.629-45.311
			l-26.629-45.309C553.801,170.182,551.131,168.771,548.388,168.771L548.388,168.771z"/>
	</g>
	<g>
		<path fill="#303232" d="M69.344,241.752c-0.087,0-0.176-0.012-0.265-0.036c-0.432-0.117-0.735-0.514-0.735-0.964v-45.447
			c0-0.45,0.303-0.847,0.737-0.964c0.088-0.024,0.176-0.036,0.265-0.036c0.352,0,0.682,0.189,0.86,0.493l13.354,22.723
			c0.184,0.313,0.184,0.702,0,1.014l-13.355,22.725C70.027,241.563,69.697,241.752,69.344,241.752z"/>
		<path d="M69.348,195.311l13.351,22.717l-13.354,22.724L69.348,195.311 M69.346,193.304c-0.175,0-0.352,0.023-0.526,0.071
			c-0.871,0.236-1.475,1.027-1.475,1.93v45.447c0,0.902,0.604,1.693,1.475,1.93c0.174,0.047,0.351,0.07,0.525,0.07
			c0.696,0,1.359-0.365,1.724-0.986l13.354-22.725c0.368-0.625,0.368-1.4,0-2.027l-13.354-22.723
			C70.704,193.67,70.042,193.304,69.346,193.304L69.346,193.304z"/>
	</g>
</g>
<g id="line" opacity="0.35" display="none">
	<g id="Line_1_">
		<rect x="46.213" y="472.47" opacity="0.15" fill="#FFFFFF" width="557.586" height="2"/>
		<rect x="46.213" y="469.657" opacity="0.15" fill="#FFFFFF" width="557.586" height="2"/>
		<rect x="46.213" y="466.845" opacity="0.15" fill="#FFFFFF" width="557.586" height="2"/>
		<rect x="46.213" y="464.032" opacity="0.15" fill="#FFFFFF" width="557.586" height="2"/>
		<rect x="46.213" y="461.22" opacity="0.15" fill="#FFFFFF" width="557.586" height="2"/>
		<rect x="46.213" y="458.407" opacity="0.13" fill="#FFFFFF" width="557.586" height="2"/>
		<rect x="46.213" y="455.595" opacity="0.13" fill="#FFFFFF" width="557.586" height="2"/>
		<rect x="46.213" y="452.782" opacity="0.13" fill="#FFFFFF" width="557.586" height="2"/>
		<rect x="46.213" y="449.97" opacity="0.13" fill="#FFFFFF" width="557.586" height="2"/>
		<rect x="46.213" y="447.157" opacity="0.13" fill="#FFFFFF" width="557.586" height="2"/>
		<rect x="46.213" y="444.345" opacity="0.13" fill="#FFFFFF" width="557.586" height="2"/>
		<rect x="46.213" y="441.532" opacity="0.13" fill="#FFFFFF" width="557.586" height="2"/>
		<rect x="46.213" y="438.72" opacity="0.13" fill="#FFFFFF" width="557.586" height="2"/>
		<rect x="46.213" y="435.907" opacity="0.13" fill="#FFFFFF" width="557.586" height="2"/>
		<rect x="46.213" y="433.095" opacity="0.13" fill="#FFFFFF" width="557.586" height="2"/>
		<rect x="46.213" y="430.282" opacity="0.13" fill="#FFFFFF" width="557.586" height="2"/>
		<rect x="46.213" y="427.47" opacity="0.13" fill="#FFFFFF" width="557.586" height="2"/>
		<rect x="46.213" y="424.657" opacity="0.13" fill="#FFFFFF" width="557.586" height="2"/>
		<rect x="46.213" y="421.845" opacity="0.13" fill="#FFFFFF" width="557.586" height="2"/>
		<rect x="46.213" y="419.032" opacity="0.13" fill="#FFFFFF" width="557.586" height="2"/>
		<rect x="46.213" y="416.22" opacity="0.11" fill="#FFFFFF" width="557.586" height="2"/>
		<rect x="46.213" y="413.407" opacity="0.11" fill="#FFFFFF" width="557.586" height="2"/>
		<rect x="46.213" y="410.595" opacity="0.11" fill="#FFFFFF" width="557.586" height="2"/>
		<rect x="46.213" y="407.782" opacity="0.11" fill="#FFFFFF" width="557.586" height="2"/>
		<rect x="46.213" y="404.97" opacity="0.11" fill="#FFFFFF" width="557.586" height="2"/>
		<rect x="46.213" y="402.157" opacity="0.11" fill="#FFFFFF" width="557.586" height="2"/>
		<rect x="46.213" y="399.345" opacity="0.11" fill="#FFFFFF" width="557.586" height="2"/>
		<rect x="46.213" y="396.532" opacity="0.11" fill="#FFFFFF" width="557.586" height="2"/>
		<rect x="46.213" y="393.72" opacity="0.11" fill="#FFFFFF" width="557.586" height="2"/>
		<rect x="46.213" y="390.907" opacity="0.11" fill="#FFFFFF" width="557.586" height="2"/>
		<rect x="46.213" y="388.095" opacity="0.11" fill="#FFFFFF" width="557.586" height="2"/>
		<rect x="46.213" y="385.282" opacity="0.11" fill="#FFFFFF" width="557.586" height="2"/>
		<rect x="46.213" y="382.47" opacity="0.11" fill="#FFFFFF" width="557.586" height="2"/>
		<rect x="46.213" y="379.657" opacity="0.11" fill="#FFFFFF" width="557.586" height="2"/>
		<rect x="46.213" y="376.845" opacity="0.11" fill="#FFFFFF" width="557.586" height="2"/>
		<rect x="46.213" y="374.032" opacity="0.11" fill="#FFFFFF" width="557.586" height="2"/>
		<rect x="46.213" y="371.22" opacity="0.09" fill="#FFFFFF" width="557.586" height="2"/>
		<rect x="46.213" y="368.407" opacity="0.09" fill="#FFFFFF" width="557.586" height="2"/>
		<rect x="46.213" y="365.595" opacity="0.09" fill="#FFFFFF" width="557.586" height="2"/>
		<rect x="46.213" y="362.782" opacity="0.09" fill="#FFFFFF" width="557.586" height="2"/>
		<rect x="46.213" y="359.97" opacity="0.09" fill="#FFFFFF" width="557.586" height="2"/>
		<rect x="46.213" y="357.157" opacity="0.09" fill="#FFFFFF" width="557.586" height="2"/>
		<rect x="46.213" y="354.345" opacity="0.09" fill="#FFFFFF" width="557.586" height="2"/>
		<rect x="46.213" y="351.532" opacity="0.09" fill="#FFFFFF" width="557.586" height="2"/>
		<rect x="46.213" y="348.72" opacity="0.09" fill="#FFFFFF" width="557.586" height="2"/>
		<rect x="46.213" y="345.907" opacity="0.09" fill="#FFFFFF" width="557.586" height="2"/>
		<rect x="46.213" y="343.095" opacity="0.09" fill="#FFFFFF" width="557.586" height="2"/>
		<rect x="46.213" y="340.282" opacity="0.09" fill="#FFFFFF" width="557.586" height="2"/>
		<rect x="46.213" y="337.47" opacity="0.09" fill="#FFFFFF" width="557.586" height="2"/>
		<rect x="46.213" y="334.657" opacity="0.09" fill="#FFFFFF" width="557.586" height="2"/>
		<rect x="46.213" y="331.845" opacity="0.09" fill="#FFFFFF" width="557.586" height="2"/>
		<rect x="46.213" y="329.032" opacity="0.09" fill="#FFFFFF" width="557.586" height="2"/>
		<rect x="46.213" y="326.22" opacity="0.09" fill="#FFFFFF" width="557.586" height="2"/>
		<rect x="46.213" y="323.407" opacity="0.09" fill="#FFFFFF" width="557.586" height="2"/>
		<rect x="46.213" y="320.595" opacity="0.07" fill="#FFFFFF" width="557.586" height="2"/>
		<rect x="46.213" y="317.782" opacity="0.07" fill="#FFFFFF" width="557.586" height="2"/>
		<rect x="46.213" y="314.97" opacity="0.07" fill="#FFFFFF" width="557.586" height="2"/>
		<rect x="46.213" y="312.157" opacity="0.07" fill="#FFFFFF" width="557.586" height="2"/>
		<rect x="46.213" y="309.345" opacity="0.07" fill="#FFFFFF" width="557.586" height="2"/>
		<rect x="46.213" y="306.532" opacity="0.07" fill="#FFFFFF" width="557.586" height="2"/>
		<rect x="46.213" y="303.72" opacity="0.07" fill="#FFFFFF" width="557.586" height="2"/>
		<rect x="46.213" y="300.907" opacity="0.07" fill="#FFFFFF" width="557.586" height="2"/>
		<rect x="46.213" y="298.095" opacity="0.07" fill="#FFFFFF" width="557.586" height="2"/>
		<rect x="46.213" y="295.282" opacity="0.07" fill="#FFFFFF" width="557.586" height="2"/>
		<rect x="46.213" y="292.47" opacity="0.07" fill="#FFFFFF" width="557.586" height="2"/>
		<rect x="46.213" y="289.657" opacity="0.07" fill="#FFFFFF" width="557.586" height="2"/>
		<rect x="46.213" y="286.845" opacity="0.07" fill="#FFFFFF" width="557.586" height="2"/>
		<rect x="46.213" y="284.032" opacity="0.07" fill="#FFFFFF" width="557.586" height="2"/>
		<rect x="46.213" y="281.22" opacity="0.07" fill="#FFFFFF" width="557.586" height="2"/>
		<rect x="46.213" y="278.407" opacity="0.07" fill="#FFFFFF" width="557.586" height="2"/>
		<rect x="46.213" y="275.595" opacity="0.07" fill="#FFFFFF" width="557.586" height="2"/>
		<rect x="46.213" y="272.782" opacity="0.07" fill="#FFFFFF" width="557.586" height="2"/>
		<rect x="46.213" y="269.97" opacity="0.07" fill="#FFFFFF" width="557.586" height="2"/>
		<rect x="46.213" y="267.157" opacity="0.07" fill="#FFFFFF" width="557.586" height="2"/>
		<rect x="46.213" y="264.345" opacity="0.07" fill="#FFFFFF" width="557.586" height="2"/>
		<rect x="46.213" y="261.532" opacity="0.07" fill="#FFFFFF" width="557.586" height="2"/>
		<rect x="46.213" y="258.72" opacity="0.07" fill="#FFFFFF" width="557.586" height="2"/>
		<rect x="46.213" y="255.907" opacity="0.07" fill="#FFFFFF" width="557.586" height="2"/>
		<rect x="46.213" y="253.095" opacity="0.07" fill="#FFFFFF" width="557.586" height="2"/>
		<rect x="46.213" y="250.282" opacity="0.07" fill="#FFFFFF" width="557.586" height="2"/>
		<rect x="46.213" y="247.47" opacity="0.07" fill="#FFFFFF" width="557.586" height="2"/>
		<rect x="46.213" y="244.657" opacity="0.07" fill="#FFFFFF" width="557.586" height="2"/>
		<rect x="46.213" y="241.845" opacity="0.07" fill="#FFFFFF" width="557.586" height="2"/>
		<rect x="46.213" y="239.032" opacity="0.07" fill="#FFFFFF" width="557.586" height="2"/>
		<rect x="46.213" y="236.22" opacity="0.07" fill="#FFFFFF" width="557.586" height="2"/>
		<rect x="46.213" y="233.407" opacity="0.07" fill="#FFFFFF" width="557.586" height="2"/>
		<rect x="46.213" y="230.595" opacity="0.07" fill="#FFFFFF" width="557.586" height="2"/>
		<rect x="46.213" y="227.782" opacity="0.05" fill="#FFFFFF" width="557.586" height="2"/>
		<rect x="46.213" y="224.97" opacity="0.05" fill="#FFFFFF" width="557.586" height="2"/>
		<rect x="46.213" y="222.157" opacity="0.05" fill="#FFFFFF" width="557.586" height="2"/>
		<rect x="46.213" y="219.345" opacity="0.05" fill="#FFFFFF" width="557.586" height="2"/>
		<rect x="46.213" y="216.532" opacity="0.05" fill="#FFFFFF" width="557.586" height="2"/>
		<rect x="46.213" y="213.72" opacity="0.05" fill="#FFFFFF" width="557.586" height="2"/>
		<rect x="46.213" y="210.907" opacity="0.05" fill="#FFFFFF" width="557.586" height="2"/>
		<rect x="46.213" y="208.095" opacity="0.05" fill="#FFFFFF" width="557.586" height="2"/>
		<rect x="46.213" y="205.282" opacity="0.05" fill="#FFFFFF" width="557.586" height="2"/>
		<rect x="46.213" y="202.47" opacity="0.05" fill="#FFFFFF" width="557.586" height="2"/>
		<rect x="46.213" y="199.657" opacity="0.05" fill="#FFFFFF" width="557.586" height="2"/>
		<rect x="46.213" y="196.845" opacity="0.05" fill="#FFFFFF" width="557.586" height="2"/>
		<rect x="46.213" y="194.032" opacity="0.05" fill="#FFFFFF" width="557.586" height="2"/>
		<rect x="46.213" y="191.22" opacity="0.05" fill="#FFFFFF" width="557.586" height="2"/>
		<rect x="46.213" y="188.407" opacity="0.04" fill="#FFFFFF" width="557.586" height="2"/>
		<rect x="46.213" y="185.595" opacity="0.04" fill="#FFFFFF" width="557.586" height="2"/>
		<rect x="46.213" y="182.782" opacity="0.04" fill="#FFFFFF" width="557.586" height="2"/>
		<rect x="46.213" y="179.97" opacity="0.04" fill="#FFFFFF" width="557.586" height="2"/>
		<rect x="46.213" y="177.157" opacity="0.04" fill="#FFFFFF" width="557.586" height="2"/>
		<rect x="46.213" y="174.345" opacity="0.04" fill="#FFFFFF" width="557.586" height="2"/>
		<rect x="46.213" y="171.532" opacity="0.04" fill="#FFFFFF" width="557.586" height="2"/>
		<rect x="46.213" y="168.72" opacity="0.04" fill="#FFFFFF" width="557.586" height="2"/>
		<rect x="46.213" y="165.907" opacity="0.04" fill="#FFFFFF" width="557.586" height="2"/>
		<rect x="46.213" y="163.095" opacity="0.04" fill="#FFFFFF" width="557.586" height="2"/>
		<rect x="46.213" y="160.282" opacity="0.02" fill="#FFFFFF" width="557.586" height="2"/>
		<rect x="46.213" y="157.47" opacity="0.02" fill="#FFFFFF" width="557.586" height="2"/>
		<rect x="46.213" y="154.657" opacity="0.02" fill="#FFFFFF" width="557.586" height="2"/>
		<rect x="46.213" y="151.845" opacity="0.02" fill="#FFFFFF" width="557.586" height="2"/>
		<rect x="46.213" y="149.032" opacity="0.02" fill="#FFFFFF" width="557.586" height="2"/>
		<rect x="46.213" y="146.22" opacity="0.02" fill="#FFFFFF" width="557.586" height="2"/>
		<rect x="46.213" y="143.407" opacity="0.02" fill="#FFFFFF" width="557.586" height="2"/>
		<rect x="46.213" y="140.595" opacity="0.02" fill="#FFFFFF" width="557.586" height="2"/>
		<rect x="46.213" y="137.782" opacity="0.02" fill="#FFFFFF" width="557.586" height="2"/>
		<rect x="46.213" y="134.97" opacity="0.02" fill="#FFFFFF" width="557.586" height="2"/>
		<rect x="46.213" y="132.157" opacity="0.01" fill="#FFFFFF" width="557.586" height="2"/>
		<rect x="46.213" y="129.345" opacity="0.01" fill="#FFFFFF" width="557.586" height="2"/>
		<rect x="46.213" y="126.532" opacity="0.01" fill="#FFFFFF" width="557.586" height="2"/>
		<rect x="46.213" y="123.72" opacity="0.01" fill="#FFFFFF" width="557.586" height="2"/>
		<rect x="46.213" y="120.907" opacity="0.01" fill="#FFFFFF" width="557.586" height="2"/>
		<rect x="46.213" y="118.095" opacity="0.01" fill="#FFFFFF" width="557.586" height="2"/>
		<rect x="46.213" y="115.282" opacity="0.01" fill="#FFFFFF" width="557.586" height="2"/>
		<rect x="46.213" y="112.47" opacity="0.01" fill="#FFFFFF" width="557.586" height="2"/>
		<rect x="46.213" y="109.657" opacity="0.01" fill="#FFFFFF" width="557.586" height="2"/>
		<rect x="46.213" y="106.845" opacity="0.01" fill="#FFFFFF" width="557.586" height="2"/>
		<rect x="46.213" y="104.032" opacity="0.01" fill="#FFFFFF" width="557.586" height="2"/>
		<rect x="46.213" y="101.22" opacity="0.01" fill="#FFFFFF" width="557.586" height="2"/>
	</g>
</g>

<g id="LineBG">
		<linearGradient id="SVGID_9_" gradientUnits="userSpaceOnUse" x1="680.8398" y1="159.2424" x2="680.8398" y2="-213.7571" gradientTransform="matrix(1 0 0 -1 -355.8398 262.4009)">
		<stop  offset="0" style="stop-color:#FFFFFF;stop-opacity:0"/>
		<stop  offset="1" style="stop-color:#707070;stop-opacity:0.1"/>
	</linearGradient>
	<rect x="46.5" y="103.158" fill="url(#SVGID_9_)" width="557" height="372.999"/>
</g>

<g id="circle">
	<g>
		<g opacity="0.1">
			<path fill="#FFFFFF" d="M113.685,317.599c-55.14,0-100-44.859-100-100c0-55.14,44.86-100,100-100s100,44.86,100,100
				C213.685,272.739,168.825,317.599,113.685,317.599z M113.685,141.198c-42.127,0-76.401,34.273-76.401,76.4
				s34.274,76.402,76.401,76.402s76.4-34.275,76.4-76.402S155.812,141.198,113.685,141.198z"/>
		</g>
		<g>
			<path opacity="0.55" fill="#357066" d="M113.685,308.728c-50.249,0-91.129-40.879-91.129-91.129
				c0-50.248,40.88-91.129,91.129-91.129s91.129,40.881,91.129,91.129C204.814,267.849,163.934,308.728,113.685,308.728z
				 M113.685,147.976c-38.391,0-69.624,31.233-69.624,69.623c0,38.391,31.233,69.625,69.624,69.625s69.624-31.234,69.624-69.625
				C183.309,179.209,152.076,147.976,113.685,147.976z"/>
		</g>
		<path opacity="0.45" fill="#262626" d="M113.685,141.523c-42.016,0-76.075,34.062-76.075,76.075s34.06,76.076,76.075,76.076
			s76.075-34.063,76.075-76.076S155.701,141.523,113.685,141.523z M113.685,287.224c-38.452,0-69.624-31.174-69.624-69.625
			c0-38.45,31.171-69.623,69.624-69.623s69.624,31.173,69.624,69.623C183.309,256.05,152.137,287.224,113.685,287.224z"/>
		
			<circle opacity="0.07" fill="none" stroke="#FFFFFF" stroke-width="15" stroke-miterlimit="10" stroke-dasharray="3,2" cx="113.685" cy="217.599" r="80.377"/>
		<g opacity="0.45">
			<path opacity="0.3" fill="#5D776E" d="M113.685,293.675c42.016,0,76.075-34.063,76.075-76.076H37.61
				C37.61,259.612,71.669,293.675,113.685,293.675z"/>
		</g>
	</g>
	<g>
		<g opacity="0.1">
			<path fill="#FFFFFF" d="M324.208,317.599c-55.14,0-100-44.859-100-100s44.86-100,100-100s100,44.859,100,100
				S379.348,317.599,324.208,317.599z M324.208,141.197c-42.127,0-76.401,34.274-76.401,76.401s34.274,76.4,76.401,76.4
				s76.4-34.273,76.4-76.4S366.335,141.197,324.208,141.197z"/>
		</g>
		<g>
			<path fill="#2E877C" d="M324.208,308.728c-50.249,0-91.129-40.881-91.129-91.129c0-50.25,40.88-91.129,91.129-91.129
				s91.129,40.879,91.129,91.129C415.337,267.847,374.457,308.728,324.208,308.728z M324.208,147.975
				c-38.391,0-69.624,31.233-69.624,69.624s31.233,69.623,69.624,69.623s69.623-31.232,69.623-69.623
				S362.599,147.975,324.208,147.975z"/>
		</g>
		<path opacity="0.45" fill="#262626" d="M324.208,141.522c-42.016,0-76.075,34.063-76.075,76.076s34.06,76.076,76.075,76.076
			s76.075-34.063,76.075-76.076S366.224,141.522,324.208,141.522z M324.208,287.222c-38.452,0-69.624-31.172-69.624-69.623
			s31.172-69.624,69.624-69.624s69.623,31.173,69.623,69.624S362.66,287.222,324.208,287.222z"/>
		
			<circle opacity="0.07" fill="none" stroke="#FFFFFF" stroke-width="15" stroke-miterlimit="10" stroke-dasharray="3,2" cx="324.208" cy="217.599" r="80.377"/>
		<g opacity="0.4">
			<path opacity="0.3" fill="#64877D" d="M324.208,293.675c42.016,0,76.075-34.063,76.075-76.076h-152.15
				C248.133,259.612,282.192,293.675,324.208,293.675z"/>
		</g>
	</g>
	<g>
		<g opacity="0.1">
			<path fill="#FFFFFF" d="M534.731,317.599c-55.14,0-100-44.859-100-100c0-55.14,44.86-100,100-100c55.141,0,100,44.86,100,100
				C634.731,272.739,589.872,317.599,534.731,317.599z M534.731,141.198c-42.126,0-76.4,34.273-76.4,76.4
				c0,42.128,34.274,76.402,76.4,76.402c42.128,0,76.401-34.274,76.401-76.402C611.133,175.472,576.859,141.198,534.731,141.198z"/>
		</g>
		<g>
			<path fill="#0A9E81" d="M534.731,308.729c-50.249,0-91.129-40.88-91.129-91.13c0-50.248,40.88-91.129,91.129-91.129
				s91.129,40.881,91.129,91.129C625.86,267.849,584.98,308.729,534.731,308.729z M534.731,147.976
				c-38.39,0-69.623,31.233-69.623,69.623c0,38.391,31.233,69.625,69.623,69.625c38.392,0,69.624-31.234,69.624-69.625
				C604.355,179.209,573.123,147.976,534.731,147.976z"/>
		</g>
		<path opacity="0.45" fill="#262626" d="M534.731,141.523c-42.016,0-76.075,34.062-76.075,76.075
			c0,42.015,34.06,76.076,76.075,76.076s76.075-34.062,76.075-76.076C610.807,175.585,576.747,141.523,534.731,141.523z
			 M534.731,287.224c-38.452,0-69.623-31.174-69.623-69.625c0-38.45,31.171-69.623,69.623-69.623s69.624,31.173,69.624,69.623
			C604.355,256.05,573.184,287.224,534.731,287.224z"/>
		<g opacity="0.4">
			<path opacity="0.3" fill="#88BAAB" d="M534.732,293.675c42.016,0,76.075-34.062,76.075-76.076H458.656
				C458.656,259.613,492.717,293.675,534.732,293.675z"/>
		</g>
		
			<circle opacity="0.07" fill="none" stroke="#FFFFFF" stroke-width="15" stroke-miterlimit="10" stroke-dasharray="3,2" cx="534.732" cy="217.599" r="80.376"/>
	</g>
</g>
<g id="txtBox">
	<g>
		<linearGradient id="SVGID_9_" gradientUnits="userSpaceOnUse" x1="111.3257" y1="365" x2="111.3257" y2="349">
			<stop  offset="0" style="stop-color:#303030;stop-opacity:0.8"/>
			<stop  offset="0.0467" style="stop-color:#484848;stop-opacity:0.7569"/>
			<stop  offset="0.1595" style="stop-color:#7C7C7C;stop-opacity:0.6529"/>
			<stop  offset="0.2705" style="stop-color:#A7A7A7;stop-opacity:0.5505"/>
			<stop  offset="0.3771" style="stop-color:#C8C8C8;stop-opacity:0.4522"/>
			<stop  offset="0.4784" style="stop-color:#E0E0E0;stop-opacity:0.3588"/>
			<stop  offset="0.572" style="stop-color:#EFEFEF;stop-opacity:0.2725"/>
			<stop  offset="0.6505" style="stop-color:#F4F4F4;stop-opacity:0.2"/>
			<stop  offset="1" style="stop-color:#F5F5F5;stop-opacity:0"/>
		</linearGradient>
		<polygon opacity="0.5" fill="url(#SVGID_9_)" points="187.918,365 34.733,365 54.101,349 168.55,349 		"/>
		<path opacity="0.5" fill="#303A38" d="M190,438.762c0,3.313-2.434,6.238-5.738,6.238H36.728c-3.304,0-6.728-2.925-6.728-6.238v-68
			c0-3.313,3.423-5.762,6.728-5.762h147.535c3.304,0,5.738,2.448,5.738,5.762V438.762z"/>
		<linearGradient id="SVGID_10_" gradientUnits="userSpaceOnUse" x1="110.5" y1="364" x2="110.5" y2="447">
			<stop  offset="0.0591" style="stop-color:#909090"/>
			<stop  offset="0.9946" style="stop-color:#6A6A6A;stop-opacity:0.4"/>
		</linearGradient>
		<path fill="none" stroke="url(#SVGID_10_)" stroke-width="3" stroke-miterlimit="10" d="M190.5,439.262
			c0,3.313-2.435,6.238-5.739,6.238H37.226c-3.304,0-6.726-2.925-6.726-6.238v-68c0-3.313,3.422-5.762,6.726-5.762h147.535
			c3.304,0,5.739,2.448,5.739,5.762V439.262z"/>
		<linearGradient id="SVGID_11_" gradientUnits="userSpaceOnUse" x1="42" y1="365.5" x2="181" y2="365.5">
			<stop  offset="0" style="stop-color:#6A6A6A;stop-opacity:0.1"/>
			<stop  offset="0.0706" style="stop-color:#8E8E8E;stop-opacity:0.227"/>
			<stop  offset="0.1581" style="stop-color:#B3B3B3;stop-opacity:0.3845"/>
			<stop  offset="0.2457" style="stop-color:#D0D0D0;stop-opacity:0.5423"/>
			<stop  offset="0.3324" style="stop-color:#E4E4E4;stop-opacity:0.6983"/>
			<stop  offset="0.4177" style="stop-color:#F1F1F1;stop-opacity:0.8519"/>
			<stop  offset="0.5" style="stop-color:#F5F5F5"/>
			<stop  offset="0.5814" style="stop-color:#F1F1F1;stop-opacity:0.8519"/>
			<stop  offset="0.6658" style="stop-color:#E4E4E4;stop-opacity:0.6983"/>
			<stop  offset="0.7516" style="stop-color:#D0D0D0;stop-opacity:0.5423"/>
			<stop  offset="0.8383" style="stop-color:#B3B3B3;stop-opacity:0.3845"/>
			<stop  offset="0.9248" style="stop-color:#8E8E8E;stop-opacity:0.227"/>
			<stop  offset="0.9946" style="stop-color:#6A6A6A;stop-opacity:0.1"/>
		</linearGradient>
		<line fill="none" stroke="url(#SVGID_11_)" stroke-width="3" stroke-miterlimit="10" x1="42" y1="365.5" x2="181" y2="365.5"/>
		<linearGradient id="SVGID_12_" gradientUnits="userSpaceOnUse" x1="111.4917" y1="438" x2="111.4917" y2="409">
			<stop  offset="0.0591" style="stop-color:#303030;stop-opacity:0.5"/>
			<stop  offset="0.1002" style="stop-color:#525252;stop-opacity:0.4782"/>
			<stop  offset="0.1546" style="stop-color:#787878;stop-opacity:0.4493"/>
			<stop  offset="0.2151" style="stop-color:#9A9A9A;stop-opacity:0.4171"/>
			<stop  offset="0.2813" style="stop-color:#B7B7B7;stop-opacity:0.382"/>
			<stop  offset="0.3549" style="stop-color:#CECECE;stop-opacity:0.3428"/>
			<stop  offset="0.4392" style="stop-color:#DFDFDF;stop-opacity:0.298"/>
			<stop  offset="0.541" style="stop-color:#ECECEC;stop-opacity:0.2439"/>
			<stop  offset="0.6779" style="stop-color:#F3F3F3;stop-opacity:0.1712"/>
			<stop  offset="1" style="stop-color:#F5F5F5;stop-opacity:0"/>
		</linearGradient>
		<polygon opacity="0.6" fill="url(#SVGID_12_)" points="185.259,438 37.725,438 51.686,409 171.298,409 		"/>
		<linearGradient id="SVGID_13_" gradientUnits="userSpaceOnUse" x1="111" y1="445" x2="111" y2="438">
			<stop  offset="0" style="stop-color:#303030;stop-opacity:0.8"/>
			<stop  offset="1" style="stop-color:#909090;stop-opacity:0.8"/>
		</linearGradient>
		<rect x="37" y="438" opacity="0.5" fill="url(#SVGID_13_)" width="148" height="7"/>
	</g>
	<g>
		<linearGradient id="SVGID_14_" gradientUnits="userSpaceOnUse" x1="323.3257" y1="365" x2="323.3257" y2="349">
			<stop  offset="0" style="stop-color:#303030;stop-opacity:0.8"/>
			<stop  offset="0.0467" style="stop-color:#484848;stop-opacity:0.7569"/>
			<stop  offset="0.1595" style="stop-color:#7C7C7C;stop-opacity:0.6529"/>
			<stop  offset="0.2705" style="stop-color:#A7A7A7;stop-opacity:0.5505"/>
			<stop  offset="0.3771" style="stop-color:#C8C8C8;stop-opacity:0.4522"/>
			<stop  offset="0.4784" style="stop-color:#E0E0E0;stop-opacity:0.3588"/>
			<stop  offset="0.572" style="stop-color:#EFEFEF;stop-opacity:0.2725"/>
			<stop  offset="0.6505" style="stop-color:#F4F4F4;stop-opacity:0.2"/>
			<stop  offset="1" style="stop-color:#F5F5F5;stop-opacity:0"/>
		</linearGradient>
		<polygon opacity="0.5" fill="url(#SVGID_14_)" points="399.918,365 246.733,365 266.101,349 380.551,349 		"/>
		<path opacity="0.4" fill="#285651" d="M402,438.762c0,3.313-2.434,6.238-5.738,6.238H248.728c-3.304,0-6.728-2.925-6.728-6.238
			v-68c0-3.313,3.423-5.762,6.728-5.762h147.534c3.305,0,5.738,2.448,5.738,5.762V438.762z"/>
		<linearGradient id="SVGID_15_" gradientUnits="userSpaceOnUse" x1="322.4995" y1="364" x2="322.4995" y2="447">
			<stop  offset="0.0591" style="stop-color:#909090"/>
			<stop  offset="0.9946" style="stop-color:#6A6A6A;stop-opacity:0.4"/>
		</linearGradient>
		<path fill="none" stroke="url(#SVGID_15_)" stroke-width="3" stroke-miterlimit="10" d="M402.5,439.262
			c0,3.313-2.436,6.238-5.739,6.238H249.226c-3.304,0-6.726-2.925-6.726-6.238v-68c0-3.313,3.422-5.762,6.726-5.762h147.535
			c3.304,0,5.739,2.448,5.739,5.762V439.262z"/>
		<linearGradient id="SVGID_16_" gradientUnits="userSpaceOnUse" x1="254" y1="365.5" x2="393" y2="365.5">
			<stop  offset="0" style="stop-color:#6A6A6A;stop-opacity:0.1"/>
			<stop  offset="0.0706" style="stop-color:#8E8E8E;stop-opacity:0.227"/>
			<stop  offset="0.1581" style="stop-color:#B3B3B3;stop-opacity:0.3845"/>
			<stop  offset="0.2457" style="stop-color:#D0D0D0;stop-opacity:0.5423"/>
			<stop  offset="0.3324" style="stop-color:#E4E4E4;stop-opacity:0.6983"/>
			<stop  offset="0.4177" style="stop-color:#F1F1F1;stop-opacity:0.8519"/>
			<stop  offset="0.5" style="stop-color:#F5F5F5"/>
			<stop  offset="0.5814" style="stop-color:#F1F1F1;stop-opacity:0.8519"/>
			<stop  offset="0.6658" style="stop-color:#E4E4E4;stop-opacity:0.6983"/>
			<stop  offset="0.7516" style="stop-color:#D0D0D0;stop-opacity:0.5423"/>
			<stop  offset="0.8383" style="stop-color:#B3B3B3;stop-opacity:0.3845"/>
			<stop  offset="0.9248" style="stop-color:#8E8E8E;stop-opacity:0.227"/>
			<stop  offset="0.9946" style="stop-color:#6A6A6A;stop-opacity:0.1"/>
		</linearGradient>
		<line fill="none" stroke="url(#SVGID_16_)" stroke-width="3" stroke-miterlimit="10" x1="254" y1="365.5" x2="393" y2="365.5"/>
		<linearGradient id="SVGID_17_" gradientUnits="userSpaceOnUse" x1="323.4927" y1="438" x2="323.4927" y2="409">
			<stop  offset="0.0591" style="stop-color:#303030;stop-opacity:0.5"/>
			<stop  offset="0.1002" style="stop-color:#525252;stop-opacity:0.4782"/>
			<stop  offset="0.1546" style="stop-color:#787878;stop-opacity:0.4493"/>
			<stop  offset="0.2151" style="stop-color:#9A9A9A;stop-opacity:0.4171"/>
			<stop  offset="0.2813" style="stop-color:#B7B7B7;stop-opacity:0.382"/>
			<stop  offset="0.3549" style="stop-color:#CECECE;stop-opacity:0.3428"/>
			<stop  offset="0.4392" style="stop-color:#DFDFDF;stop-opacity:0.298"/>
			<stop  offset="0.541" style="stop-color:#ECECEC;stop-opacity:0.2439"/>
			<stop  offset="0.6779" style="stop-color:#F3F3F3;stop-opacity:0.1712"/>
			<stop  offset="1" style="stop-color:#F5F5F5;stop-opacity:0"/>
		</linearGradient>
		<polygon opacity="0.6" fill="url(#SVGID_17_)" points="397.26,438 249.725,438 263.686,409 383.299,409 		"/>
		<linearGradient id="SVGID_18_" gradientUnits="userSpaceOnUse" x1="323.0005" y1="445" x2="323.0005" y2="438">
			<stop  offset="0" style="stop-color:#303030;stop-opacity:0.8"/>
			<stop  offset="1" style="stop-color:#909090;stop-opacity:0.8"/>
		</linearGradient>
		<rect x="249" y="438" opacity="0.5" fill="url(#SVGID_18_)" width="148" height="7"/>
	</g>
	<g>
		<linearGradient id="SVGID_19_" gradientUnits="userSpaceOnUse" x1="535.3252" y1="365" x2="535.3252" y2="349">
			<stop  offset="0" style="stop-color:#303030;stop-opacity:0.8"/>
			<stop  offset="0.0467" style="stop-color:#484848;stop-opacity:0.7569"/>
			<stop  offset="0.1595" style="stop-color:#7C7C7C;stop-opacity:0.6529"/>
			<stop  offset="0.2705" style="stop-color:#A7A7A7;stop-opacity:0.5505"/>
			<stop  offset="0.3771" style="stop-color:#C8C8C8;stop-opacity:0.4522"/>
			<stop  offset="0.4784" style="stop-color:#E0E0E0;stop-opacity:0.3588"/>
			<stop  offset="0.572" style="stop-color:#EFEFEF;stop-opacity:0.2725"/>
			<stop  offset="0.6505" style="stop-color:#F4F4F4;stop-opacity:0.2"/>
			<stop  offset="1" style="stop-color:#F5F5F5;stop-opacity:0"/>
		</linearGradient>
		<polygon opacity="0.5" fill="url(#SVGID_19_)" points="611.918,365 458.732,365 478.102,349 592.551,349 		"/>
		<path opacity="0.35" fill="#00846E" d="M614,438.762c0,3.313-2.434,6.238-5.738,6.238H460.728c-3.304,0-6.728-2.925-6.728-6.238
			v-68c0-3.313,3.424-5.762,6.728-5.762h147.534c3.305,0,5.738,2.448,5.738,5.762V438.762z"/>
		<linearGradient id="SVGID_20_" gradientUnits="userSpaceOnUse" x1="534.5" y1="364" x2="534.5" y2="447">
			<stop  offset="0.0591" style="stop-color:#909090"/>
			<stop  offset="0.9946" style="stop-color:#6A6A6A;stop-opacity:0.4"/>
		</linearGradient>
		<path fill="none" stroke="url(#SVGID_20_)" stroke-width="3" stroke-miterlimit="10" d="M614.5,439.262
			c0,3.313-2.436,6.238-5.739,6.238H461.227c-3.305,0-6.727-2.925-6.727-6.238v-68c0-3.313,3.422-5.762,6.727-5.762h147.534
			c3.304,0,5.739,2.448,5.739,5.762V439.262z"/>
		<linearGradient id="SVGID_21_" gradientUnits="userSpaceOnUse" x1="466" y1="365.5" x2="605" y2="365.5">
			<stop  offset="0" style="stop-color:#6A6A6A;stop-opacity:0.1"/>
			<stop  offset="0.0706" style="stop-color:#8E8E8E;stop-opacity:0.227"/>
			<stop  offset="0.1581" style="stop-color:#B3B3B3;stop-opacity:0.3845"/>
			<stop  offset="0.2457" style="stop-color:#D0D0D0;stop-opacity:0.5423"/>
			<stop  offset="0.3324" style="stop-color:#E4E4E4;stop-opacity:0.6983"/>
			<stop  offset="0.4177" style="stop-color:#F1F1F1;stop-opacity:0.8519"/>
			<stop  offset="0.5" style="stop-color:#F5F5F5"/>
			<stop  offset="0.5814" style="stop-color:#F1F1F1;stop-opacity:0.8519"/>
			<stop  offset="0.6658" style="stop-color:#E4E4E4;stop-opacity:0.6983"/>
			<stop  offset="0.7516" style="stop-color:#D0D0D0;stop-opacity:0.5423"/>
			<stop  offset="0.8383" style="stop-color:#B3B3B3;stop-opacity:0.3845"/>
			<stop  offset="0.9248" style="stop-color:#8E8E8E;stop-opacity:0.227"/>
			<stop  offset="0.9946" style="stop-color:#6A6A6A;stop-opacity:0.1"/>
		</linearGradient>
		<line fill="none" stroke="url(#SVGID_21_)" stroke-width="3" stroke-miterlimit="10" x1="466" y1="365.5" x2="605" y2="365.5"/>
		<linearGradient id="SVGID_22_" gradientUnits="userSpaceOnUse" x1="535.4922" y1="438" x2="535.4922" y2="409">
			<stop  offset="0.0591" style="stop-color:#303030;stop-opacity:0.5"/>
			<stop  offset="0.1002" style="stop-color:#525252;stop-opacity:0.4782"/>
			<stop  offset="0.1546" style="stop-color:#787878;stop-opacity:0.4493"/>
			<stop  offset="0.2151" style="stop-color:#9A9A9A;stop-opacity:0.4171"/>
			<stop  offset="0.2813" style="stop-color:#B7B7B7;stop-opacity:0.382"/>
			<stop  offset="0.3549" style="stop-color:#CECECE;stop-opacity:0.3428"/>
			<stop  offset="0.4392" style="stop-color:#DFDFDF;stop-opacity:0.298"/>
			<stop  offset="0.541" style="stop-color:#ECECEC;stop-opacity:0.2439"/>
			<stop  offset="0.6779" style="stop-color:#F3F3F3;stop-opacity:0.1712"/>
			<stop  offset="1" style="stop-color:#F5F5F5;stop-opacity:0"/>
		</linearGradient>
		<polygon opacity="0.6" fill="url(#SVGID_22_)" points="609.26,438 461.725,438 475.686,409 595.299,409 		"/>
		<linearGradient id="SVGID_23_" gradientUnits="userSpaceOnUse" x1="535" y1="445" x2="535" y2="438">
			<stop  offset="0" style="stop-color:#303030;stop-opacity:0.8"/>
			<stop  offset="1" style="stop-color:#909090;stop-opacity:0.8"/>
		</linearGradient>
		<rect x="461" y="438" opacity="0.5" fill="url(#SVGID_23_)" width="148" height="7"/>
	</g>
</g>
<g id="step1">
	<text transform="matrix(1 0 0 1 50.4941 413.7285)" fill="#FFFFFF" font-family="'MalgunGothicBold'" font-size="30"></text>
</g>
<g id="step2">
	<text transform="matrix(1 0 0 1 275.9897 413.7285)" fill="#FFFFFF" font-family="'MalgunGothicBold'" font-size="30"></text>
</g>
<g id="step3">
	<text transform="matrix(1 0 0 1 473.7314 413.7285)" fill="#FFFFFF" font-family="'MalgunGothicBold'" font-size="30"></text>
</g>
<g id="cnt1">
	<rect x="46.213" y="191.979" fill="none" width="132.043" height="51.695"/>
	<text transform="matrix(1 0 0 1 98.4648 235.875)" fill="#A9DDD6" font-family="'MalgunGothic'" font-size="50">0</text>
</g>
<g id="cnt2">
	<rect x="258.186" y="191.979" fill="none" width="132.043" height="51.695"/>
	<text transform="matrix(1 0 0 1 310.438 235.875)" fill="#6CD8D0" font-family="'MalgunGothic'" font-size="50">0</text>
</g>
<g id="cnt3">
	<rect x="468.473" y="191.979" fill="none" width="132.043" height="51.695"/>
	<text transform="matrix(1 0 0 1 493.1855 235.875)" fill="#15F9CC" font-family="'MalgunGothic'" font-size="50">954</text>
</g>
</svg>
