<?xml version="1.0" encoding="utf-8"?>
<!-- Generator: Adobe Illustrator 16.0.0, SVG Export Plug-In . SVG Version: 6.00 Build 0)  -->
<!DOCTYPE svg PUBLIC "-//W3C//DTD SVG 1.1//EN" "http://www.w3.org/Graphics/SVG/1.1/DTD/svg11.dtd">
<svg version="1.1" id="Layer_1" xmlns="http://www.w3.org/2000/svg" xmlns:xlink="http://www.w3.org/1999/xlink" x="0px" y="0px"
	 width="16px" height="16px" viewBox="0 0 16 16" enable-background="new 0 0 16 16" xml:space="preserve">
<g>
	<path fill="#FFFFFF" d="M16,11.156c0-0.506-0.375-0.916-0.841-0.916c-0.462,0.002-0.842,0.41-0.842,0.916v1.895l-3.396-3.51
		c-0.328-0.34-0.859-0.34-1.188,0c-0.329,0.34-0.329,0.891,0,1.229l3.377,3.492h-1.824c-0.496,0-0.896,0.389-0.896,0.869
		S10.791,16,11.287,16h3.815c0.495,0,0.896-0.387,0.897-0.869c-0.001-0.014-0.003-0.023-0.004-0.035
		C15.997,15.078,16,15.063,16,15.045V11.156z"/>
	<path fill="#FFFFFF" d="M5.078,9.541l-3.393,3.51v-1.895c0-0.506-0.379-0.914-0.843-0.916c-0.465,0-0.841,0.41-0.841,0.916
		L0,15.045c0,0.018,0.005,0.033,0.006,0.051c-0.001,0.012-0.004,0.021-0.005,0.035C0.002,15.613,0.402,16,0.899,16h3.814
		c0.497,0,0.897-0.389,0.897-0.869s-0.401-0.869-0.897-0.869H2.889l3.379-3.492c0.328-0.338,0.328-0.889,0-1.229
		C5.938,9.201,5.406,9.201,5.078,9.541z"/>
	<path fill="#FFFFFF" d="M10.922,6.458l3.396-3.508v1.895c0,0.504,0.38,0.913,0.842,0.914c0.466,0,0.841-0.41,0.841-0.914v-3.89
		c0-0.017-0.003-0.034-0.004-0.05C15.997,0.894,15.999,0.881,16,0.87C15.999,0.388,15.598,0,15.103,0h-3.815
		c-0.496,0-0.896,0.388-0.896,0.87c0,0.479,0.4,0.868,0.896,0.869h1.824L9.734,5.229c-0.329,0.339-0.329,0.889,0,1.229
		C10.063,6.798,10.594,6.798,10.922,6.458z"/>
	<path fill="#FFFFFF" d="M2.889,1.738h1.824c0.497,0,0.897-0.39,0.897-0.869C5.611,0.388,5.21,0,4.713,0H0.899
		C0.402,0,0.002,0.388,0.001,0.87c0.001,0.011,0.004,0.024,0.005,0.035C0.005,0.921,0,0.938,0,0.955l0.001,3.89
		c0,0.504,0.376,0.914,0.841,0.914c0.463-0.001,0.843-0.41,0.843-0.914V2.95l3.393,3.508c0.329,0.34,0.861,0.34,1.19,0
		c0.328-0.339,0.328-0.889,0-1.229L2.889,1.738z"/>
</g>
</svg>
