<?xml version="1.0" encoding="utf-8"?>
<!-- Generator: Adobe Illustrator 16.0.0, SVG Export Plug-In . SVG Version: 6.00 Build 0)  -->
<!DOCTYPE svg PUBLIC "-//W3C//DTD SVG 1.1//EN" "http://www.w3.org/Graphics/SVG/1.1/DTD/svg11.dtd">
<svg version="1.1" xmlns="http://www.w3.org/2000/svg" xmlns:xlink="http://www.w3.org/1999/xlink" x="0px" y="0px" width="290px"
	 height="94px" viewBox="0 0 290 94" enable-background="new 0 0 290 94" xml:space="preserve">
<g id="KPro01">
	<g opacity="0.9">
		<rect x="1" y="17" fill="#1A1A1A" width="288" height="76"/>
		<path fill="#474747" d="M288,18v74H2V18H288 M290,16H0v78h290V16L290,16z"/>
	</g>
</g>
<g id="KPro_x0A_02">
	<g>
		<g>
			<polygon fill="#404040" points="215.459,34.714 74.052,34.714 69.603,18.076 74.052,1.438 215.459,1.438 219.908,18.076 			"/>
			<rect x="74.052" opacity="0.75" fill="#ACACAC" width="141.407" height="1.438"/>
			<polygon opacity="0.1" fill="#FFFFFF" points="215.459,1.438 74.052,1.438 77.645,18.076 211.865,18.076 			"/>
		</g>
		<text transform="matrix(1 0 0 1 118.8862 24.2861)" fill="#FFFFFF" font-family="맑은 고딕" font-size="22">범 례</text>
	</g>
</g>
<g id="KPro_x0A_03">
	<g>
		<g>
			<text transform="matrix(1 0 0 1 179.1895 67.8721)" fill="#FFFFFF" font-family="맑은 고딕" font-size="22">헬스체크</text>
			<g>
				<path fill="#80EB46" d="M171.558,49.393h-19.894c-0.915,0-1.657,0.744-1.657,1.656v17.787c0,0.91,0.742,1.658,1.657,1.658
					h19.894c0.913,0,1.659-0.748,1.659-1.658V51.049C173.217,50.137,172.471,49.393,171.558,49.393z M155.395,50.639
					c0.459,0,0.829,0.367,0.829,0.83c0,0.457-0.37,0.824-0.829,0.824c-0.46,0-0.832-0.367-0.832-0.824
					C154.563,51.006,154.935,50.639,155.395,50.639z M152.907,50.639c0.457,0,0.828,0.367,0.828,0.83
					c0,0.457-0.371,0.824-0.828,0.824c-0.459,0-0.829-0.367-0.829-0.824C152.078,51.006,152.448,50.639,152.907,50.639z
					 M170.978,68.256h-18.733V54.139h18.733V68.256z"/>
				<g>
					<path fill="#80EB46" d="M163.95,66.717c-0.002,0-0.005,0-0.006,0c-0.33-0.002-0.613-0.23-0.686-0.553l-1.415-6.389
						l-1.069,3.867c-0.08,0.291-0.334,0.498-0.636,0.518c-0.297,0.029-0.58-0.154-0.697-0.432l-0.874-2.072l-0.463,0.777
						c-0.127,0.215-0.357,0.346-0.607,0.346h-3.49c-0.392,0-0.708-0.316-0.708-0.707s0.316-0.707,0.708-0.707h3.088l0.971-1.635
						c0.136-0.23,0.392-0.367,0.656-0.346c0.267,0.018,0.5,0.186,0.604,0.432l0.629,1.488l1.284-4.645
						c0.086-0.313,0.355-0.494,0.699-0.518c0.324,0.008,0.602,0.236,0.673,0.553l1.364,6.156l0.263-1.105
						c0.075-0.318,0.36-0.543,0.688-0.543h4.426c0.391,0,0.707,0.316,0.707,0.707s-0.316,0.707-0.707,0.707h-3.866l-0.847,3.557
						C164.562,66.492,164.277,66.717,163.95,66.717z"/>
				</g>
			</g>
		</g>
		<g>
			<text transform="matrix(1 0 0 1 53.0034 67.873)" fill="#FFFFFF" font-family="맑은 고딕" font-size="22">위변조</text>
			<g>
				<path fill="#80EB46" d="M44.42,49.393H25.43c-1.162,0-2.109,0.951-2.109,2.109v12.662c0,1.16,0.947,2.109,2.109,2.109h7.385
					l-2.11,3.164v1.057h8.44v-1.057l-2.109-3.164h7.385c1.16,0,2.11-0.949,2.11-2.109V51.502
					C46.53,50.344,45.58,49.393,44.42,49.393z M34.925,65.125c-0.329,0-0.597-0.266-0.597-0.592c0-0.33,0.268-0.598,0.597-0.598
					s0.595,0.268,0.595,0.598C35.52,64.859,35.254,65.125,34.925,65.125z M44.42,63.084H25.43V51.502h18.99V63.084z"/>
				<path fill="#80EB46" d="M38.414,58.625l1.443-1.441l-1.443-1.443v-2.047h-2.046l-1.443-1.441l-1.443,1.441h-2.046v2.047
					l-1.442,1.443l1.442,1.441v2.047h2.046l1.443,1.443l1.443-1.443h2.046V58.625z M34.925,59.799v-5.232
					c1.443,0,2.615,1.174,2.615,2.617C37.54,58.625,36.368,59.799,34.925,59.799z"/>
			</g>
		</g>
	</g>
</g>
</svg>
