<?xml version="1.0" encoding="utf-8"?>
<!-- Generator: Adobe Illustrator 16.0.0, SVG Export Plug-In . SVG Version: 6.00 Build 0)  -->
<!DOCTYPE svg PUBLIC "-//W3C//DTD SVG 1.1//EN" "http://www.w3.org/Graphics/SVG/1.1/DTD/svg11.dtd">
<svg version="1.1" id="Layer_1" xmlns="http://www.w3.org/2000/svg" xmlns:xlink="http://www.w3.org/1999/xlink" x="0px" y="0px"
	 width="105px" height="124px" viewBox="0 0 105 124" enable-background="new 0 0 105 124" xml:space="preserve">
<g>
	<path fill="#141414" d="M52.279,124c-29.154,0-52.055-10.552-52.138-24.021c-0.013-2.26,0.641-4.503,1.945-6.679
		c-0.083-0.563-0.126-1.082-0.129-1.578c-0.02-3.407,1.404-6.679,4.233-9.728c0.531-0.571,1.118-1.136,1.784-1.716V11.756
		c0-0.311,0.144-0.604,0.388-0.795L22.177,0.211C22.354,0.073,22.57,0,22.793,0h59.53c0.222,0,0.437,0.072,0.611,0.208
		l13.981,10.749c0.248,0.19,0.394,0.486,0.394,0.799v68.246c3.916,3.396,5.994,7.287,6.018,11.278
		c0.003,0.544-0.038,1.11-0.128,1.72c1.277,2.121,1.93,4.313,1.942,6.524c0.023,3.597-1.572,7.049-4.741,10.263
		c-8.432,8.547-27.122,14.125-47.614,14.212L52.279,124z M9.984,12.249v68.495c0,0.295-0.131,0.577-0.357,0.77
		c-0.745,0.627-1.405,1.252-1.966,1.855c-2.468,2.659-3.711,5.465-3.693,8.342c0.003,0.492,0.056,1.025,0.16,1.627
		c0.042,0.247-0.007,0.501-0.142,0.713c-1.229,1.944-1.847,3.936-1.834,5.917c0.073,12.14,22.56,22.017,50.128,22.017l0.499-0.001
		c19.985-0.083,38.119-5.427,46.193-13.613c2.781-2.818,4.182-5.79,4.162-8.833c-0.011-1.94-0.629-3.887-1.832-5.784
		c-0.135-0.212-0.185-0.467-0.143-0.712c0.109-0.641,0.162-1.213,0.159-1.749c-0.021-3.499-1.977-6.974-5.655-10.049
		c-0.229-0.192-0.362-0.475-0.362-0.773V12.252L81.983,2.015H23.137L9.984,12.249z"/>
</g>
<g>
	<path fill="#0B1F28" d="M104.138,99.53c-0.075-12.824-23.204-23.126-51.635-23.005C24.067,76.646,1.069,87.146,1.147,99.974
		c0.077,12.841,23.205,23.14,51.635,23.018C81.222,122.871,104.221,112.371,104.138,99.53"/>
	
		<linearGradient id="SVGID_1_" gradientUnits="userSpaceOnUse" x1="3.063" y1="96.6436" x2="100.237" y2="96.6436" gradientTransform="matrix(-1 0 0 1 104 0)">
		<stop  offset="0.0061" style="stop-color:#000000"/>
		<stop  offset="0.5" style="stop-color:#2F86CC"/>
		<stop  offset="1" style="stop-color:#000000"/>
	</linearGradient>
	<path fill="url(#SVGID_1_)" stroke="#FFFFFF" stroke-width="0.0687" d="M3.455,96.862c0.074,12.251,22.165,22.089,49.322,21.973
		c27.158-0.113,49.133-10.146,49.055-22.4c-0.071-12.262-22.165-22.1-49.321-21.982C25.345,74.568,3.38,84.599,3.455,96.862"/>
	
		<linearGradient id="SVGID_2_" gradientUnits="userSpaceOnUse" x1="-257.8643" y1="480.4189" x2="-257.8688" y2="479.1123" gradientTransform="matrix(50.1215 -0.2571 -0.1741 -33.9522 13060.8125 16314.2813)">
		<stop  offset="0" style="stop-color:#265F9F"/>
		<stop  offset="1" style="stop-color:#62D5EF"/>
	</linearGradient>
	<path opacity="0.75" fill="url(#SVGID_2_)" d="M101.831,91.29C101.76,79.038,79.666,69.199,52.51,69.316
		C25.348,69.43,3.38,79.46,3.455,91.713c0.074,12.266,22.165,22.104,49.322,21.986C79.94,113.584,101.909,103.554,101.831,91.29"/>
	
		<linearGradient id="SVGID_3_" gradientUnits="userSpaceOnUse" x1="1.6768" y1="91.5078" x2="101.0371" y2="91.5078" gradientTransform="matrix(-1 0 0 1 104 0)">
		<stop  offset="0" style="stop-color:#112557"/>
		<stop  offset="0.5" style="stop-color:#FFFFFF;stop-opacity:0.75"/>
		<stop  offset="1" style="stop-color:#00689F"/>
	</linearGradient>
	<path fill="url(#SVGID_3_)" d="M17.609,107.762C8.201,103.53,3,97.83,2.962,91.716c-0.019-3.142,1.316-6.181,3.964-9.034
		c7.764-8.354,25.655-13.806,45.582-13.89l0.48-0.001c13.1,0,25.418,2.296,34.688,6.462c9.408,4.229,14.611,9.922,14.647,16.033
		c0.02,3.146-1.313,6.188-3.965,9.043c-7.762,8.355-25.651,13.809-45.58,13.893l-0.484,0.002
		C39.194,114.224,26.876,111.93,17.609,107.762z M52.512,69.839C32.833,69.923,15.215,75.253,7.626,83.42
		c-2.459,2.646-3.698,5.436-3.679,8.291c0.071,11.835,21.76,21.465,48.347,21.465l0.48-0.001
		c19.681-0.084,37.299-5.413,44.883-13.581c2.462-2.65,3.699-5.442,3.682-8.302c-0.07-11.83-21.759-21.453-48.351-21.453H52.512z"/>
</g>
<linearGradient id="SVGID_4_" gradientUnits="userSpaceOnUse" x1="52.6006" y1="92.3359" x2="52.6006" y2="11.7563">
	<stop  offset="0" style="stop-color:#404040"/>
	<stop  offset="0.6882" style="stop-color:#050505"/>
	<stop  offset="0.9839" style="stop-color:#252525"/>
</linearGradient>
<rect x="8.979" y="11.756" fill="url(#SVGID_4_)" width="87.243" height="80.58"/>
<g>
	<linearGradient id="SVGID_5_" gradientUnits="userSpaceOnUse" x1="52.6421" y1="11.7559" x2="52.6421" y2="1.0073">
		<stop  offset="0" style="stop-color:#353535"/>
		<stop  offset="0.2472" style="stop-color:#474747"/>
		<stop  offset="0.7277" style="stop-color:#656565"/>
		<stop  offset="1" style="stop-color:#707070"/>
	</linearGradient>
	<polygon fill="url(#SVGID_5_)" points="96.305,11.756 8.979,11.756 22.876,1.007 82.407,1.007 	"/>
</g>
<linearGradient id="SVGID_6_" gradientUnits="userSpaceOnUse" x1="52.6226" y1="92.3359" x2="52.6226" y2="44.9961">
	<stop  offset="0" style="stop-color:#404040"/>
	<stop  offset="0.6882" style="stop-color:#050505"/>
	<stop  offset="0.9839" style="stop-color:#252525"/>
</linearGradient>
<rect x="10.988" y="44.996" fill="url(#SVGID_6_)" width="83.268" height="47.34"/>
<linearGradient id="SVGID_7_" gradientUnits="userSpaceOnUse" x1="10.979" y1="27.8647" x2="94.2559" y2="27.8647">
	<stop  offset="0" style="stop-color:#C0C0C0"/>
	<stop  offset="0.5" style="stop-color:#F8F8F8"/>
	<stop  offset="1" style="stop-color:#C0C0C0"/>
</linearGradient>
<rect x="10.979" y="13.756" fill="url(#SVGID_7_)" width="83.277" height="28.218"/>
<linearGradient id="SVGID_8_" gradientUnits="userSpaceOnUse" x1="8.979" y1="53.0532" x2="96.3047" y2="53.0532">
	<stop  offset="0" style="stop-color:#606060"/>
	<stop  offset="0.2796" style="stop-color:#B9B9B9"/>
	<stop  offset="0.6075" style="stop-color:#909090"/>
	<stop  offset="1" style="stop-color:#606060"/>
</linearGradient>
<path fill="url(#SVGID_8_)" d="M94.305,13.756v78.595H10.979V13.756H94.305 M96.305,11.756H8.979v82.595h87.326V11.756
	L96.305,11.756z"/>
<linearGradient id="SVGID_9_" gradientUnits="userSpaceOnUse" x1="8.979" y1="43.4844" x2="96.3047" y2="43.4844">
	<stop  offset="0" style="stop-color:#606060"/>
	<stop  offset="0.2796" style="stop-color:#B9B9B9"/>
	<stop  offset="0.6075" style="stop-color:#909090"/>
	<stop  offset="1" style="stop-color:#606060"/>
</linearGradient>
<rect x="8.979" y="41.974" fill="url(#SVGID_9_)" width="87.326" height="3.022"/>
<linearGradient id="SVGID_10_" gradientUnits="userSpaceOnUse" x1="8.979" y1="12.7637" x2="96.3047" y2="12.7637">
	<stop  offset="0" style="stop-color:#606060;stop-opacity:0"/>
	<stop  offset="0.2796" style="stop-color:#D5D5D5"/>
	<stop  offset="0.7204" style="stop-color:#D5D5D5"/>
	<stop  offset="1" style="stop-color:#606060;stop-opacity:0"/>
</linearGradient>
<rect x="8.979" y="11.756" fill="url(#SVGID_10_)" width="87.326" height="2.015"/>
</svg>
