<?xml version="1.0" encoding="utf-8"?>
<!-- Generator: Adobe Illustrator 16.0.0, SVG Export Plug-In . SVG Version: 6.00 Build 0)  -->
<!DOCTYPE svg PUBLIC "-//W3C//DTD SVG 1.1//EN" "http://www.w3.org/Graphics/SVG/1.1/DTD/svg11.dtd">
<svg version="1.1" xmlns="http://www.w3.org/2000/svg" xmlns:xlink="http://www.w3.org/1999/xlink" x="0px" y="0px" width="162px"
	 height="85px" viewBox="0 0 162 85" enable-background="new 0 0 162 85" xml:space="preserve">
<g id="Layer_1">
	<g>
		<rect x="1.021" y="35" opacity="0.3" width="159.958" height="48.001"/>
		<g>
			<linearGradient id="SVGID_1_" gradientUnits="userSpaceOnUse" x1="0" y1="42.5" x2="162" y2="42.5">
				<stop  offset="0" style="stop-color:#606060"/>
				<stop  offset="0.2796" style="stop-color:#B9B9B9"/>
				<stop  offset="0.6075" style="stop-color:#909090"/>
				<stop  offset="1" style="stop-color:#606060"/>
			</linearGradient>
			<path fill="url(#SVGID_1_)" d="M160,2v81H2V2H160 M162,0H0v85h162V0L162,0z"/>
		</g>
		<linearGradient id="SVGID_2_" gradientUnits="userSpaceOnUse" x1="2" y1="18.5" x2="160" y2="18.5">
			<stop  offset="0" style="stop-color:#072F4D"/>
			<stop  offset="0.5" style="stop-color:#07407A"/>
			<stop  offset="1" style="stop-color:#072F4D"/>
		</linearGradient>
		<rect x="2" y="2" fill="url(#SVGID_2_)" width="158" height="33"/>
		<linearGradient id="SVGID_3_" gradientUnits="userSpaceOnUse" x1="1" y1="35" x2="161" y2="35">
			<stop  offset="0" style="stop-color:#606060"/>
			<stop  offset="0.2796" style="stop-color:#B9B9B9"/>
			<stop  offset="0.6075" style="stop-color:#909090"/>
			<stop  offset="1" style="stop-color:#606060"/>
		</linearGradient>
		<rect x="1" y="34" fill="url(#SVGID_3_)" width="160" height="2"/>
	</g>
</g>
<g id="Icon" display="none">
	<g display="inline">
		<path fill="#80EB45" d="M93.667,45.333H68.332c-1.55,0-2.814,1.269-2.814,2.815V65.04c0,1.548,1.264,2.814,2.814,2.814h9.852
			l-2.815,4.221v1.409h11.26v-1.409l-2.813-4.221h9.852c1.548,0,2.815-1.267,2.815-2.814V48.148
			C96.482,46.602,95.215,45.333,93.667,45.333z M81,66.322c-0.439,0-0.796-0.354-0.796-0.79c0-0.44,0.357-0.796,0.796-0.796
			c0.438,0,0.793,0.355,0.793,0.796C81.793,65.968,81.438,66.322,81,66.322z M93.667,63.599H68.332v-15.45h25.335V63.599z"/>
		<g>
			<circle fill="#80EB45" cx="72.707" cy="58.619" r="2.137"/>
			<circle fill="#80EB45" cx="77.896" cy="53.124" r="1.526"/>
			<circle fill="#80EB45" cx="83.195" cy="58.619" r="1.832"/>
			<circle fill="#80EB45" cx="89.404" cy="53.124" r="1.984"/>
			<g>
				<polygon fill="#80EB45" points="83.181,59.254 77.957,53.787 73.038,58.936 72.376,58.303 77.957,52.461 83.234,57.983 
					89.101,52.781 89.708,53.467 				"/>
			</g>
		</g>
	</g>
</g>
</svg>
