<?xml version="1.0" encoding="utf-8"?>
<!-- Generator: Adobe Illustrator 16.0.0, SVG Export Plug-In . SVG Version: 6.00 Build 0)  -->
<!DOCTYPE svg PUBLIC "-//W3C//DTD SVG 1.1//EN" "http://www.w3.org/Graphics/SVG/1.1/DTD/svg11.dtd">
<svg version="1.1" id="Layer_1" xmlns="http://www.w3.org/2000/svg" xmlns:xlink="http://www.w3.org/1999/xlink" x="0px" y="0px"
	 width="10px" height="10px" viewBox="0 0 10 10" enable-background="new 0 0 10 10" xml:space="preserve">
<g>
	<path fill="#FFFFFF" d="M4.95,1.234c1.394,0,2.583,0.865,3.065,2.086l0.022,0.06H7.225l1.389,1.388L10,3.38H9.291L9.28,3.327
		C8.761,1.41,7.01,0,4.928,0C2.438,0,0.42,2.017,0.42,4.507c0.544,0,1.235,0.022,1.235,0.022C1.656,2.71,3.13,1.234,4.95,1.234z"/>
	<path fill="#FFFFFF" d="M5.05,8.766c-1.394,0-2.584-0.865-3.065-2.086L1.961,6.619h0.813L1.387,5.232L0,6.619h0.708L0.72,6.674
		C1.239,8.59,2.99,10,5.072,10C7.561,10,9.58,7.982,9.58,5.492c-0.547,0-1.236-0.022-1.236-0.022
		C8.344,7.291,6.869,8.766,5.05,8.766z"/>
</g>
</svg>
