<?xml version="1.0" encoding="utf-8"?>
<!-- Generator: Adobe Illustrator 16.0.0, SVG Export Plug-In . SVG Version: 6.00 Build 0)  -->
<!DOCTYPE svg PUBLIC "-//W3C//DTD SVG 1.1//EN" "http://www.w3.org/Graphics/SVG/1.1/DTD/svg11.dtd">
<svg version="1.1" id="Layer_1" xmlns="http://www.w3.org/2000/svg" xmlns:xlink="http://www.w3.org/1999/xlink" x="0px" y="0px"
	 width="16px" height="16px" viewBox="0 0 16 16" enable-background="new 0 0 16 16" xml:space="preserve">
<g id="_x3C_Group_x3E__15_">
	<path fill="#FFFFFF" d="M13.8,6.165l-0.403-0.979c0,0,0.939-2.167,0.856-2.25l-1.243-1.24C12.925,1.61,10.802,2.6,10.802,2.6
		L9.825,2.195C9.825,2.195,8.96,0,8.841,0H7.086C6.963,0,6.164,2.2,6.164,2.2L5.187,2.604c0,0-2.166-0.94-2.249-0.855L1.696,2.991
		C1.61,3.076,2.6,5.197,2.6,5.197L2.195,6.177c0,0-2.195,0.864-2.195,0.981v1.757c0,0.123,2.2,0.923,2.2,0.923l0.404,0.977
		c0,0-0.938,2.165-0.857,2.248l1.244,1.244C3.076,14.39,5.197,13.4,5.197,13.4l0.979,0.405c0,0,0.864,2.194,0.984,2.194h1.755
		c0.122,0,0.922-2.2,0.922-2.2l0.98-0.404c0,0,2.16,0.94,2.245,0.857l1.242-1.242c0.088-0.087-0.903-2.208-0.903-2.208l0.402-0.979
		c0,0,2.196-0.865,2.196-0.982V7.085C16,6.964,13.8,6.165,13.8,6.165z M10.565,8c0,1.413-1.151,2.564-2.565,2.564
		c-1.413,0-2.564-1.151-2.564-2.564S6.587,5.438,8,5.438C9.414,5.438,10.565,6.587,10.565,8z"/>
</g>
</svg>
