<?xml version="1.0" encoding="utf-8"?>
<!-- Generator: Adobe Illustrator 16.0.0, SVG Export Plug-In . SVG Version: 6.00 Build 0)  -->
<!DOCTYPE svg PUBLIC "-//W3C//DTD SVG 1.1//EN" "http://www.w3.org/Graphics/SVG/1.1/DTD/svg11.dtd">
<svg version="1.1" xmlns="http://www.w3.org/2000/svg" xmlns:xlink="http://www.w3.org/1999/xlink" x="0px" y="0px" width="616px"
	 height="337px" viewBox="0 0 616 337" enable-background="new 0 0 616 337" xml:space="preserve">
<g id="KMgrGridBG">
	<rect x="1.5" y="52.563" fill="#163136" width="613" height="283"/>
	<rect x="103.862" y="52.193" fill="#1F464E" width="102.128" height="283.311"/>
	<rect x="308.117" y="109.151" fill="#1F464E" width="306.383" height="226.353"/>
	<g opacity="0.45">
		<line fill="none" stroke="#000000" stroke-miterlimit="10" x1="614.5" y1="109.151" x2="1.5" y2="109.151"/>
		<line fill="none" stroke="#000000" stroke-miterlimit="10" x1="614.5" y1="165.739" x2="1.5" y2="165.739"/>
		<line fill="none" stroke="#000000" stroke-miterlimit="10" x1="614.5" y1="222.327" x2="1.5" y2="222.327"/>
		<line fill="none" stroke="#000000" stroke-miterlimit="10" x1="614.5" y1="278.916" x2="1.5" y2="278.916"/>
		<line fill="none" stroke="#000000" stroke-miterlimit="10" x1="308.117" y1="52.193" x2="308.117" y2="335.604"/>
		<line fill="none" stroke="#000000" stroke-miterlimit="10" x1="410.245" y1="52.193" x2="410.245" y2="335.604"/>
		<line fill="none" stroke="#000000" stroke-miterlimit="10" x1="512.372" y1="52.193" x2="512.372" y2="335.604"/>
		<line fill="none" stroke="#000000" stroke-miterlimit="10" x1="103.862" y1="335.604" x2="103.862" y2="52.431"/>
		<line fill="none" stroke="#000000" stroke-miterlimit="10" x1="205.99" y1="335.504" x2="205.99" y2="52.332"/>
	</g>
	<g opacity="0.8">
		<linearGradient id="SVGID_1_" gradientUnits="userSpaceOnUse" x1="309" y1="89.6353" x2="309" y2="52.2183">
			<stop  offset="0.9086" style="stop-color:#2B3990;stop-opacity:0"/>
			<stop  offset="1" style="stop-color:#262262"/>
		</linearGradient>
		<path fill="url(#SVGID_1_)" d="M616.5,87.63c0,1.107-0.9,2.005-2.011,2.005H3.51c-1.11,0-2.01-0.897-2.01-2.005V54.223
			c0-1.107,0.899-2.005,2.01-2.005h610.979c1.11,0,2.011,0.897,2.011,2.005V87.63z"/>
		<linearGradient id="SVGID_2_" gradientUnits="userSpaceOnUse" x1="308.8589" y1="52.562" x2="308.8589" y2="0">
			<stop  offset="0" style="stop-color:#25347A;stop-opacity:0.992"/>
			<stop  offset="0.086" style="stop-color:#5CC7FF"/>
			<stop  offset="0.2673" style="stop-color:#48BCF3;stop-opacity:0.8017"/>
			<stop  offset="0.4944" style="stop-color:#35B2E9;stop-opacity:0.5531"/>
			<stop  offset="0.7331" style="stop-color:#2BACE3;stop-opacity:0.292"/>
			<stop  offset="1" style="stop-color:#27AAE1;stop-opacity:0"/>
		</linearGradient>
		<polygon opacity="0.7" fill="url(#SVGID_2_)" points="587.223,0 30.828,0 1.734,52.562 615.983,52.562 		"/>
		<g>
			<linearGradient id="SVGID_3_" gradientUnits="userSpaceOnUse" x1="308.0005" y1="91.0044" x2="308.0005" y2="50.7183">
				<stop  offset="0.4731" style="stop-color:#13817D;stop-opacity:0"/>
				<stop  offset="1" style="stop-color:#00AEEF"/>
			</linearGradient>
			<path fill="url(#SVGID_3_)" d="M612.501,91.004H3.498C1.57,91.004,0,89.437,0,87.511v-33.3c0-1.926,1.57-3.493,3.498-3.493
				h609.003c1.93,0,3.499,1.567,3.499,3.493v33.3C616,89.437,614.431,91.004,612.501,91.004z M3.498,53.708
				c-0.28,0-0.508,0.226-0.508,0.503v33.3c0,0.277,0.228,0.503,0.508,0.503h609.003c0.279,0,0.509-0.226,0.509-0.503v-33.3
				c0-0.277-0.229-0.503-0.509-0.503H3.498z"/>
		</g>
		<linearGradient id="SVGID_4_" gradientUnits="userSpaceOnUse" x1="49.4619" y1="52.1929" x2="568.9932" y2="52.1929">
			<stop  offset="0" style="stop-color:#FFFFFF;stop-opacity:0"/>
			<stop  offset="0.5323" style="stop-color:#FFFFFF"/>
			<stop  offset="1" style="stop-color:#FFFFFF;stop-opacity:0"/>
		</linearGradient>
		
			<line fill="none" stroke="url(#SVGID_4_)" stroke-width="3" stroke-miterlimit="10" x1="49.462" y1="52.193" x2="568.993" y2="52.193"/>
	</g>
</g>
<g id="KMgrGridTxt" display="none">
	<text transform="matrix(1 0 0 1 541.5 91)" display="inline" fill="#FFFFFF" font-family="맑은 고딕" font-size="22">진행</text>
	<text transform="matrix(1 0 0 1 439.3086 91)" display="inline" fill="#FFFFFF" font-family="맑은 고딕" font-size="22">완료</text>
	<text transform="matrix(1 0 0 1 348.3086 91)" display="inline" fill="#FFFFFF" font-family="맑은 고딕" font-size="22">계</text>
	<text transform="matrix(1 0 0 1 19.4619 91)" display="inline" fill="#FFFFFF" font-family="맑은 고딕" font-size="22">웹해킹</text>
	<text transform="matrix(1 0 0 1 8.4619 146.667)" display="inline" fill="#FFFFFF" font-family="맑은 고딕" font-size="22">악성코드</text>
	<text transform="matrix(1 0 0 1 8.4619 314.667)" display="inline" fill="#FFFFFF" font-family="맑은 고딕" font-size="22">정보수집</text>
	<text transform="matrix(1 0 0 1 19.4619 189)" display="inline"><tspan x="0" y="0" fill="#FFFFFF" font-family="맑은 고딕" font-size="22">비인가</tspan><tspan x="11" y="26.4" fill="#FFFFFF" font-family="맑은 고딕" font-size="22">접근</tspan></text>
	<text transform="matrix(1 0 0 1 19.4619 245.667)" display="inline"><tspan x="0" y="0" fill="#FFFFFF" font-family="맑은 고딕" font-size="22">서비스</tspan><tspan x="11" y="26.399" fill="#FFFFFF" font-family="맑은 고딕" font-size="22">거부</tspan></text>
	<text transform="matrix(1 0 0 1 235.9756 91)" display="inline"><tspan x="0" y="0" fill="#FFFFFF" font-family="맑은 고딕" font-size="22">구분</tspan><tspan x="11" y="56" fill="#FFFFFF" font-family="맑은 고딕" font-size="22">계</tspan><tspan x="-11" y="112" fill="#FFFFFF" font-family="맑은 고딕" font-size="22">개발원</tspan><tspan x="-11" y="168" fill="#FFFFFF" font-family="맑은 고딕" font-size="22">국정원</tspan><tspan x="-11" y="224" fill="#FFFFFF" font-family="맑은 고딕" font-size="22">관리원</tspan></text>
</g>
</svg>
