<?xml version="1.0" encoding="utf-8"?>
<!-- Generator: Adobe Illustrator 16.0.0, SVG Export Plug-In . SVG Version: 6.00 Build 0)  -->
<!DOCTYPE svg PUBLIC "-//W3C//DTD SVG 1.1//EN" "http://www.w3.org/Graphics/SVG/1.1/DTD/svg11.dtd">
<svg version="1.1" id="Layer_1" xmlns="http://www.w3.org/2000/svg" xmlns:xlink="http://www.w3.org/1999/xlink" x="0px" y="0px"
	 width="16px" height="14px" viewBox="0 0 16 14" enable-background="new 0 0 16 14" xml:space="preserve">
<g>
	<path fill="#FFFFFF" d="M2.677,4.075H0v5.887h2.677l5.06,3.705c0,0,0.929,0.767,0.929-0.025c0-0.795,0-12.638,0-13.361
		c0-0.623-0.818-0.015-0.818-0.015L2.677,4.075z"/>
	<path fill="#FFFFFF" d="M11.548,2.926c-0.267-0.263-0.697-0.263-0.962,0c-0.268,0.263-0.268,0.689,0,0.95
		c0.875,0.867,1.309,1.992,1.311,3.125c-0.002,1.136-0.436,2.268-1.311,3.131c-0.268,0.262-0.268,0.689,0,0.953
		c0.133,0.132,0.307,0.195,0.482,0.195c0.174,0,0.347-0.063,0.479-0.195c1.142-1.127,1.712-2.609,1.711-4.084
		C13.26,5.527,12.688,4.05,11.548,2.926z"/>
	<path fill="#FFFFFF" d="M13.396,0.809c-0.27-0.264-0.699-0.264-0.967,0c-0.263,0.264-0.263,0.688,0,0.953
		c1.47,1.452,2.206,3.344,2.207,5.246c-0.001,1.909-0.732,3.813-2.207,5.271c-0.265,0.264-0.263,0.688,0,0.953
		c0.134,0.129,0.309,0.195,0.483,0.195s0.35-0.066,0.483-0.195C15.131,11.511,16,9.257,16,7.008C16,4.765,15.125,2.519,13.396,0.809
		z"/>
</g>
</svg>
