<?xml version="1.0" encoding="utf-8"?>
<!-- Generator: Adobe Illustrator 16.0.0, SVG Export Plug-In . SVG Version: 6.00 Build 0)  -->
<!DOCTYPE svg PUBLIC "-//W3C//DTD SVG 1.1//EN" "http://www.w3.org/Graphics/SVG/1.1/DTD/svg11.dtd">
<svg version="1.1" id="zoneLogoBusan" xmlns="http://www.w3.org/2000/svg" xmlns:xlink="http://www.w3.org/1999/xlink" x="0px"
	 y="0px" width="330px" height="80px" viewBox="0 0 330 80" enable-background="new 0 0 330 80" xml:space="preserve">
<g>
	<g>
		<path fill="#034EA2" d="M109.689,37.64L97.58,26.015c-1.996,2.429-3.945,4.97-3.945,4.97c-2.533,3.699-5.174,4.436-5.174,4.436
			c-4.963,1.056-9.085,0-9.085,0c2.976-0.573,11.792-11.958,13.378-14.036l-6.829-6.56c0,0-1.374-1.688-3.274,0.213L71.242,25.285
			c0,0,3.274-0.107,4.542,0.42c0,0,2.044,0.634,3.169,2.215c0,0,1.585,3.063,2.853,3.063c0,0,0.844,1.798-3.381,1.901
			c0,0-2.641-0.208-3.589-3.27c0,0-0.74-3.383-4.329-3.697L58.358,37.854c0,0-0.947,0.804-0.314,1.369h30.731
			c0,0,0.846-3.485,2.854-1.056c0,0,1.054-1.9,2.323-0.212c0,0,0.738-3.59,3.275-0.954c0,0,1.478-3.904,3.378-2.002
			c0,0,1.163,0.42,1.585,2.742c0,0,1.795-2.53,2.745,1.481c0,0-22.813,0.425-39.184,8.345l6.125,6.023
			c0,0,21.547-10.667,34.75-13.102c0,0-16.478,6.237-29.151,18.377l4.754,4.652c0,0,1.689,2.002,4.011-0.213L110.004,40.6
			C110.004,40.6,111.272,38.595,109.689,37.64z"/>
	</g>
	<path fill="#034EA2" d="M93.077,21.061c5.384-6.231,15.275-2.742,15.275-2.742c-2.007,0.106-6.761,3.482-6.761,3.482
		s-2.218,1.966-3.906,4.187l-4.899-4.582L93.077,21.061z"/>
</g>
<g>
	<path fill="#FFFFFF" d="M214.773,27.735v1.776h-5.947c-1.272-1.421-3.226-2.332-5.419-2.332c-3.835,0-6.945,2.78-6.945,6.212
		c0,3.427,3.11,6.211,6.945,6.211c2.22,0,4.189-0.937,5.462-2.385h5.904v3.603H200.23v3.107h14.543v6.01h3.575V27.735H214.773z
		 M203.407,36.655c-1.913,0-3.469-1.459-3.469-3.264c0-1.806,1.556-3.27,3.469-3.27c1.915,0,3.47,1.464,3.47,3.27
		C206.877,35.195,205.322,36.655,203.407,36.655z M210.32,33.965c0.021-0.188,0.034-0.379,0.034-0.574
		c0-0.213-0.013-0.421-0.036-0.626h4.455v1.2H210.32z"/>
	<path fill="#FFFFFF" d="M191.018,32.012v-4.304h-3.605v9.685h-2.502l0.022-7.908c-0.022-1.077-1.225-0.976-1.225-0.976
		l-12.114-0.052v3.004h9.711v5.932h-3.504v-4.609h-3.651v4.609h-3.604v3.227h5.558c-0.796,1.086-1.262,2.385-1.262,3.782
		c0,3.811,3.455,6.901,7.715,6.901c4.265,0,7.719-3.091,7.719-6.901c0-1.396-0.469-2.695-1.265-3.782h2.008v-2.099v-1.127V35.09
		h2.885v-3.078H191.018z M182.556,48.437c-2.364,0-4.282-1.807-4.282-4.035c0-1.733,1.164-3.21,2.794-3.782h2.979
		c1.63,0.572,2.795,2.048,2.795,3.782C186.841,46.63,184.923,48.437,182.556,48.437z"/>
	<path fill="#FFFFFF" d="M136.006,27.757v3.009H125.05v-2.884h-3.605l-0.011,10.639c0,1.049,1.021,1.035,1.021,1.035h17.012V27.757
		H136.006z M136.151,36.532H125.05v-2.741h11.101V36.532z"/>
	<polygon fill="#FFFFFF" points="141.308,41.828 119.73,41.828 119.73,44.881 128.941,44.881 128.941,50.369 132.547,50.369 
		132.547,44.881 141.308,44.881 	"/>
	<path fill="#FFFFFF" d="M167.694,31.965h-2.885v-4.309h-3.779v18.966h-10.495v-4.944h-3.722v6.153
		c0.1,1.648,1.151,1.802,1.151,1.802l16.845,0.017V34.948h2.885V31.965z"/>
	<rect x="238.975" y="27.507" fill="#FFFFFF" width="3.852" height="22.292"/>
	<path fill="#FFFFFF" d="M143.66,37.27l7.358-9.211c0,0,0.7-0.8,1.251,0.101l7.159,9.205l-2.754,2.057l-5.056-6.259l-5.207,6.207
		L143.66,37.27z"/>
	<path fill="#FFFFFF" d="M221.054,38.817l7.661-10.96c0,0,0.498-0.652,1.101,0.05l7.559,10.963l-2.768,1.985l-5.478-8.072
		l-5.191,8.072L221.054,38.817z"/>
</g>
</svg>
