<?xml version="1.0" encoding="utf-8"?>
<!-- Generator: Adobe Illustrator 16.0.0, SVG Export Plug-In . SVG Version: 6.00 Build 0)  -->
<!DOCTYPE svg PUBLIC "-//W3C//DTD SVG 1.1//EN" "http://www.w3.org/Graphics/SVG/1.1/DTD/svg11.dtd">
<svg version="1.1" id="zoneLogoChungnam" xmlns="http://www.w3.org/2000/svg" xmlns:xlink="http://www.w3.org/1999/xlink" x="0px"
	 y="0px" width="330px" height="80px" viewBox="0 0 330 80" enable-background="new 0 0 330 80" xml:space="preserve">
<g>
	<g>
		<path fill-rule="evenodd" clip-rule="evenodd" fill="#72BF44" d="M109.313,32.959c-4.067-3.84-9.989,1.587-6.582,6.657
			c1.741,2.593,6.223,4.28,12.654,3.941c0.918-0.047,1.217-0.252,0.303-0.665C110.061,40.331,112.312,35.791,109.313,32.959z"/>
		<path fill-rule="evenodd" clip-rule="evenodd" fill="#F7941E" d="M96.167,44.796c0.419-0.794,0.532-0.994-0.547-0.492
			c-6.102,2.834-7.298-1.737-11.353-1.129c-2.248,0.339-3.976,2.502-3.585,4.877c0.465,2.836,3.755,3.912,6.37,3.645
			C92.438,51.146,95.475,46.114,96.167,44.796z"/>
		<path fill-rule="evenodd" clip-rule="evenodd" fill="#0097D6" d="M91.504,42.863c0.216,0.182,0.496,0.534-0.288,0.413
			c-9.758-1.471-11.529-7.242-8.994-10.079c1.345-1.505,4.225-1.7,5.602-0.182C90.431,35.891,87.623,39.584,91.504,42.863z"/>
		<path fill-rule="evenodd" clip-rule="evenodd" fill="#F7941E" d="M126.68,19.748c0.951,0.034,1.194,0.226,0.232,0.611
			c-2.295,0.916-4.609,2.623-4.701,6.483c-0.131,5.566-8.186,4.092-7.279-1.729C115.959,18.529,125.578,19.706,126.68,19.748z"/>
		<path fill-rule="evenodd" clip-rule="evenodd" fill="#B369AB" d="M98.212,48.063c1.655,4.948,8.61,3.222,8.035-1.532
			c-0.496-4.095-5.39-2.784-5.39-7.287c0-0.55-0.046-0.999-0.596-0.16C98.726,41.428,97.392,45.611,98.212,48.063z"/>
		<path fill-rule="evenodd" clip-rule="evenodd" fill="#72BF44" d="M128.173,45.373c-4.279,3.026-5.845-0.634-8.926-0.807
			c-3.547-0.197-4.576,5.563-0.013,6.624c2.116,0.502,7.336-0.519,9.482-5.716C128.83,45.203,128.713,44.892,128.173,45.373z"/>
		<path fill-rule="evenodd" clip-rule="evenodd" fill="#F7941E" d="M126.932,41.586c0.96-4.862-3.077-9.405-3.462-9.885
			c-0.1-0.128-0.923-1.121-0.566,0.337c1.066,4.349-1.183,5.582-1.864,8.683C120.055,45.184,126.096,45.826,126.932,41.586z"/>
		<path fill="#F26522" d="M102.166,31.705c-5.12,0.517-8.104,1.947-9.716,3.197c-2.374,1.843-2.092,4.777-0.672,6.204
			c1.49,1.496,4.348,1.961,6.2-0.319c2.234-2.751,0.049-6.104,4.424-8.642C103.043,31.773,102.642,31.656,102.166,31.705z"/>
		<path fill-rule="evenodd" clip-rule="evenodd" fill="#72BF44" d="M135.332,32.322c-0.964,0.417-1.717,1.186-2.257,2.074
			c-0.569,0.938-0.793,2.037-1.369,2.967c-0.5,0.806-1.139,1.577-1.89,2.141c-0.416,0.311-0.647,0.75,0.147,0.584
			c0.64-0.134,1.543-0.258,2.641-0.148c1.099,0.108,2.554,0.641,3.215,0.8c1.36,0.453,2.95,0.429,3.978-0.655
			c1.677-1.77,1.463-5.048-0.183-6.78C138.54,32.177,136.792,31.694,135.332,32.322z"/>
		<path fill-rule="evenodd" clip-rule="evenodd" fill="#0097D6" d="M139.3,42.423c-3.44-0.537-5.129,2.076-10.188-1.405
			c-0.449-0.311-0.827-0.567-0.496,0.453c0.544,1.664,2.957,8.352,7.633,9.539C143.098,52.746,144.912,43.458,139.3,42.423z"/>
		<path fill-rule="evenodd" clip-rule="evenodd" fill="#0097D6" d="M106.79,17.696c-0.742,3.803,2.198,5.604,1.476,11.195
			c-0.058,0.446,0.344,0.435,0.453,0.186c2.232-5.128,5.565-4.929,6.827-8.887C117.432,14.276,107.768,12.683,106.79,17.696z"/>
		<path fill-rule="evenodd" clip-rule="evenodd" fill="#B369AB" d="M92.227,32.358c4.536,0.354,4.771-2.987,12.829-2.534
			c0.657,0.038,0.577-0.393,0.154-0.521c-7.223-2.178-8.456-6.808-12.21-6.95C86.864,22.12,85.995,31.871,92.227,32.358z"/>
		<path fill-rule="evenodd" clip-rule="evenodd" fill="#F26522" d="M97.723,22.939c2.781,3.572,4.941,1.214,8.127,4.653
			c0.466,0.503,0.818,0.258,0.454-0.329c-2.221-3.599,0.277-6.854-1.589-9.234C101.198,13.544,94.453,18.736,97.723,22.939z"/>
		<path fill-rule="evenodd" clip-rule="evenodd" fill="#F26522" d="M123.724,26.638c0,3.788,4.167,5.544,4.434,12.609
			c0.016,0.466,0.447,0.48,0.536,0.019c1.378-7.037,5.235-8.397,5.568-12.442C134.776,20.575,123.724,19.442,123.724,26.638z"/>
		<path fill-rule="evenodd" clip-rule="evenodd" fill="#B369AB" d="M120.012,39.045c1.686-1.458,2.267-4.057,0.735-5.939
			c-2.807-3.22-5.825-0.014-8.693-5.39c-0.472-0.884-0.779-0.694-0.605,0.262c0.588,3.283-0.488,6.544,1.429,9.457
			C114.779,40.321,118.172,40.642,120.012,39.045z"/>
		<path fill-rule="evenodd" clip-rule="evenodd" fill="#9F9D88" d="M111.324,45.155c-2.05,0-3.713,1.661-3.713,3.714v9.979h7.426
			v-9.979C115.037,46.816,113.375,45.155,111.324,45.155z"/>
	</g>
	<g>
		<g>
			<path fill="#FFFFFF" d="M164.779,33.493c1.495,1.771,5.647,3.123,9.364,3.123h0.667V33.76h-0.667
				c-3.011,0-6.097-1.439-7.017-3.282h7.352v-2.863h-7.544c-0.248-1.552-0.76-2.05-0.76-2.05h-4.051c0,0,0.457,0.498,0.672,2.05
				h-7.719v2.863h7.351c-0.917,1.842-4.005,3.282-7.011,3.282h-0.666v2.855h0.666C159.131,36.615,163.276,35.263,164.779,33.493z"/>
			<path fill="#FFFFFF" d="M177.262,40.393V37.53h-24.966v2.863h10.531v1.097c-3.68,0.636-6.011,3.073-6.011,5.974
				c0,3.397,3.178,6.146,7.964,6.146c4.784,0,7.967-2.748,7.967-6.146c0-2.902-2.337-5.338-6.015-5.974v-1.097H177.262z
				 M168.879,47.463c0,1.806-1.842,3.258-4.1,3.258c-2.26,0-4.097-1.452-4.097-3.258c0-1.794,1.836-3.249,4.097-3.249
				C167.037,44.214,168.879,45.669,168.879,47.463z"/>
		</g>
		<g>
			<polygon fill="#FFFFFF" points="242.172,48.556 242.172,42.113 238.273,42.113 238.273,48.556 229.868,48.556 229.868,51.418 
				250.626,51.418 250.626,48.556 			"/>
			<path fill="#FFFFFF" d="M231.336,37.13c0,2.072,1.678,3.746,3.746,3.746l13.65,0.002V38.02h-12.4
				c-0.607,0-1.093-0.492-1.093-1.099v-3.406c0-2.444-0.524-3.46-0.719-3.752h14.212v-2.861h-18.185c0,0,0.788,0.851,0.788,3.843
				V37.13z"/>
		</g>
		<g>
			<path fill="#FFFFFF" d="M224.801,31.684v-4.462c0-0.609-0.495-1.097-1.098-1.097H220.9v9.636h-0.005
				c-0.539,0.255-1.327,0.617-3.526,0.617c-1.47,0-6.985,0-6.985,0c-0.604,0-1.094-0.49-1.094-1.095v-4.437
				c0-2.995-0.892-3.843-0.892-3.843h-3.794c0,0,0.786,0.848,0.786,3.843v4.649c0,2.063,1.674,3.74,3.735,3.74h6.814
				c2.063,0,3.645-0.181,4.955-0.708l0.005-0.003v1.592h3.9v-5.571h3.861v-2.86H224.801z"/>
			<path fill="#FFFFFF" d="M209.29,49.13c0,2.061,1.675,3.74,3.745,3.74h11.766V41.156H209.29V49.13z M213.188,44.02h7.712v5.992
				h-6.617c-0.599,0-1.095-0.492-1.095-1.1V44.02z"/>
		</g>
		<g>
			<path fill="#FFFFFF" d="M193.762,39.871c-4.365,0-7.904,3.079-7.904,6.868c0,3.796,3.539,6.87,7.904,6.87s7.902-3.074,7.902-6.87
				C201.664,42.949,198.127,39.871,193.762,39.871z M193.762,50.721c-2.233,0-4.039-1.789-4.039-3.995
				c0-2.208,1.806-3.999,4.039-3.999c2.23,0,4.038,1.791,4.038,3.999C197.8,48.932,195.992,50.721,193.762,50.721z"/>
			<path fill="#FFFFFF" d="M200.574,26.15h-2.804v6.14h-4.078v2.86h4.078v4.964h3.894V27.245
				C201.664,26.644,201.176,26.15,200.574,26.15z"/>
			<path fill="#FFFFFF" d="M186.97,35.784c1.155,1.785,4.532,3.571,7.232,3.571h0.263v-2.962c-2.341-0.281-5.288-1.754-5.543-5.332
				h5.15v-2.862h-5.161c-0.194-1.99-0.829-2.602-0.829-2.602h-3.855c0,0,0.56,0.612,0.731,2.602h-5.09v2.862h5.151
				c-0.254,3.578-3.202,5.051-5.543,5.332v2.962h0.262C182.439,39.355,185.817,37.569,186.97,35.784z"/>
		</g>
	</g>
</g>
</svg>
