<?xml version="1.0" encoding="utf-8"?>
<!-- Generator: Adobe Illustrator 16.0.0, SVG Export Plug-In . SVG Version: 6.00 Build 0)  -->
<!DOCTYPE svg PUBLIC "-//W3C//DTD SVG 1.1//EN" "http://www.w3.org/Graphics/SVG/1.1/DTD/svg11.dtd">
<svg version="1.1" id="zoneLogoChungbuk" xmlns="http://www.w3.org/2000/svg" xmlns:xlink="http://www.w3.org/1999/xlink" x="0px"
	 y="0px" width="330px" height="80px" viewBox="0 0 330 80" enable-background="new 0 0 330 80" xml:space="preserve">
<style type="text/css">
	.st0{fill:#724597;}
	.st1{fill:#00ADBA;}
	.st2{fill:#FFFFFF;}
</style>
<g>
	<g>
		<g>
			<polygon class="st0" points="138.73,17.68 133.81,14.85 126.85,18.86 126.85,10.83 121.94,8 117.02,10.83 117.02,18.86 
				110.06,14.85 105.15,17.68 105.15,23.35 112.11,27.37 105.15,31.38 105.15,37.05 110.06,39.88 121.94,33.03 133.81,39.88 
				138.73,37.05 138.73,31.38 131.76,27.37 138.73,23.35 			"/>
		</g>
		<g>
			<path class="st1" d="M114.97,48.74v-5.79l-4.91-2.83l-4.91,2.83v19.37L121.94,72l16.79-9.71V42.95l-4.91-2.83l-4.91,2.83v5.79
				l-6.96-4.03L114.97,48.74z M128.79,58.17l-6.86,3.96l-6.86-3.96l6.86-3.96L128.79,58.17z"/>
		</g>
	</g>
	<g>
		<g>
			<path class="st2" d="M216.88,45.76v-4.03h5.7v-2.54H211.2v-6.04h11.15v-2.54h-14.01l0.01,9.83c0,0.71,0.57,1.28,1.28,1.28h4.39
				v4.03h-7.98v2.54h18.81v-2.54H216.88z"/>
		</g>
		<g>
			<path class="st2" d="M190.42,38.69h12.39v-8.98h-2.86v2.22h-8.03v-2.22h-2.86v7.63C189.06,38.08,189.67,38.69,190.42,38.69z
				 M191.92,36.4v-2.19h8.03v2.19H191.92z"/>
		</g>
		<g>
			<polygon class="st2" points="205.34,42.64 205.34,40.35 186.53,40.35 186.53,42.64 194.5,42.64 194.5,44.34 188.65,44.34 
				188.65,46.63 200.36,46.63 200.36,50.81 203.22,50.81 203.22,44.34 197.36,44.34 197.36,42.64 			"/>
		</g>
		<g>
			<polygon class="st2" points="181.4,41.6 184.25,41.6 184.25,29.71 181.4,29.71 181.4,34.06 178.54,34.06 178.54,36.6 181.4,36.6 
							"/>
		</g>
		<g>
			<path class="st2" d="M184.62,46.77c0,2.5-3.25,4.52-7.45,4.52c-4.2,0-7.45-2.03-7.45-4.52c0-2.5,3.25-4.52,7.45-4.52
				C181.37,42.24,184.62,44.27,184.62,46.77z M177.17,44.74c-2.56,0-4.43,0.91-4.43,2.03c0,1.12,1.88,2.03,4.43,2.03
				s4.43-0.91,4.43-2.03C181.61,45.65,179.73,44.74,177.17,44.74z"/>
		</g>
		<g>
			<path class="st2" d="M173.35,37.52c0.29,0.45,0.81,1.05,1.73,1.69l2.89,1.96l1.38-2.12l-2.91-1.97
				c-1.05-0.69-1.68-1.86-1.68-3.11v-0.86h3.98v-2.53h-3.98v-1.87h-2.91v1.87h-3.93v2.53h3.93v0.86c0,1.25-0.36,2.25-1.63,3.11
				l-2.91,1.97l1.38,2.12l2.89-1.96C172.54,38.57,173.06,37.97,173.35,37.52"/>
		</g>
		<g>
			<path class="st2" d="M162.89,38.45"/>
		</g>
		<g>
			<g>
				<path class="st2" d="M165.81,41.35v-2.54H147v2.54h7.98v0.98c-3.48,0.4-6.02,2.24-6.02,4.44c0,2.5,3.25,4.52,7.45,4.52
					s7.45-2.03,7.45-4.52c0-2.21-2.54-4.04-6.02-4.44v-0.98H165.81z M160.84,46.77c0,1.12-1.88,2.03-4.43,2.03s-4.43-0.91-4.43-2.03
					c0-1.12,1.88-2.03,4.43-2.03S160.84,45.65,160.84,46.77z"/>
			</g>
			<g>
				<path class="st2" d="M152.49,35.06l-3.71,1.08l0.71,2.39l3.74-1.09l0.04-0.01c0.86-0.29,2.16-0.68,3.09-1.57
					c0.92,0.9,2.22,1.29,3.09,1.57l0.04,0.01l3.74,1.09l0.71-2.39l-3.71-1.08c-2.07-0.69-2.39-1.15-2.39-1.86v-0.09h5.57v-2.53
					h-5.57v-1.87h-2.95v1.87h-5.57v2.53h5.57v0.09C154.88,33.91,154.56,34.37,152.49,35.06z"/>
			</g>
		</g>
	</g>
</g>
</svg>
