<?xml version="1.0" encoding="utf-8"?>
<!-- Generator: Adobe Illustrator 26.3.1, SVG Export Plug-In . SVG Version: 6.00 Build 0)  -->
<svg version="1.1" id="zoneLogoDaegu" xmlns="http://www.w3.org/2000/svg" xmlns:xlink="http://www.w3.org/1999/xlink" x="0px"
	 y="0px" viewBox="0 0 330 80" style="enable-background:new 0 0 330 80;" xml:space="preserve">
<style type="text/css">
	.st0{fill:#FFFFFF;}
	.st1{fill:#E61E2B;}
</style>
<g>
	<path class="st0" d="M95.9,27.1l-1.7,2.5c-2-0.9-3.3-2.5-4.1-4.5c-0.8,2.2-2.1,4-4.2,5L84,27.5c3.3-1.5,4.4-4.9,4.4-7.8v-0.3h-3.6
		v-2.6H95v2.6h-3.4v0.3C91.6,22.4,92.7,25.6,95.9,27.1z M95.9,15.1h3.2v6.7h2.5v2.6h-2.5v9h-3.2V15.1z"/>
	<path class="st0" d="M118.7,27.7h-3.6v5.7h-3.2v-5.7h-3.1v5.7h-3.2v-5.7H102v-2.5h16.7V27.7z M110.3,15.7c4,0,6.8,1.7,6.8,4.2
		c0,2.5-2.8,4.1-6.8,4.1c-4,0-6.8-1.6-6.8-4.1C103.5,17.3,106.3,15.7,110.3,15.7z M110.3,21.5c2.2,0,3.5-0.5,3.5-1.6
		c0-1.2-1.3-1.7-3.5-1.7c-2.2,0-3.5,0.5-3.5,1.7C106.8,21,108.1,21.5,110.3,21.5z"/>
	<path class="st0" d="M130,20.8c0,2.2-1.5,3.8-3.5,4.4v2.1c1.3-0.1,2.5-0.2,3.7-0.3l0.2,2.3c-3.8,0.8-7.8,0.7-10.8,0.7l-0.4-2.5
		c1.2,0,2.6,0,4.1,0v-2.2c-2.1-0.5-3.6-2.2-3.6-4.4c0-2.7,2.2-4.6,5.1-4.6C127.7,16.2,130,18.1,130,20.8z M124.9,22.7
		c1.1,0,2-0.7,2-1.9c0-1.3-0.9-1.9-2-1.9c-1.2,0-2,0.6-2,1.9C122.9,22,123.8,22.7,124.9,22.7z M131.1,15.1h3.2v6.9h2.2v2.6h-2.2v8.7
		h-3.2V15.1z"/>
	<path class="st0" d="M145.3,23.7v-0.6c-1.9-0.3-3.1-1.1-3.1-2.3c0-1.5,1.8-2.3,4.6-2.3c2.8,0,4.6,0.9,4.6,2.3c0,1.2-1.1,2.1-3,2.3
		v0.5c1.4-0.1,2.7-0.2,4-0.3l0.2,1.9c-3.9,0.7-8,0.7-11.2,0.7l-0.3-2.1C142.4,23.7,143.8,23.7,145.3,23.7z M141.6,16.1h3.6V15h3.2
		v1.1h3.6v2.1h-10.4V16.1z M143.6,28.9h9.5v-0.4h-9.5v-2.1h12.7v4.4h-9.5v0.5h10v2.1h-13.2V28.9z M146.8,21.3c1,0,1.6-0.1,1.6-0.5
		c0-0.3-0.5-0.4-1.6-0.4c-1,0-1.6,0.1-1.6,0.4C145.2,21.1,145.8,21.2,146.8,21.3z M156.3,19.2h2.1v2.6h-2.1v4h-3.2V15.1h3.2V19.2z"
		/>
	<path class="st0" d="M167.8,22.2h-5v1.4c2.3,0,3.8-0.1,5.4-0.4l0.3,2.5c-2,0.4-4,0.4-7.4,0.4h-1.4v-6.2h5v-1.3h-5v-2.5h8.2V22.2z
		 M161.7,27.1h12.8v6.3h-3.2v-3.8h-9.6V27.1z M168.7,21.5h2.6v-1.5h-2.6v-2.5h2.6v-2.4h3.2v11.3h-3.2V24h-2.6V21.5z"/>
	<path class="st0" d="M181.9,16.3c2.8,0,4.9,2.6,4.9,6.6c0,4.1-2.1,6.7-4.9,6.6c-2.8,0-5-2.5-5-6.6C176.9,18.9,179,16.3,181.9,16.3z
		 M181.9,26.7c1.1,0,1.8-1.2,1.8-3.8c0-2.5-0.7-3.7-1.8-3.7c-1.2,0-1.9,1.2-1.9,3.7C180,25.5,180.7,26.7,181.9,26.7z M191.9,33.5
		h-3.2V15.1h3.2V33.5z"/>
	<path class="st0" d="M199.4,16h3.1v6.5c2,0,4.3-0.2,6.5-0.7l0.3,2.6c-2.9,0.6-5.8,0.7-8.4,0.7h-1.6V16z M214,33.2h-12.5v-7H214
		V33.2z M210.9,30.7v-2h-6.2v2H210.9z M206.7,18h4.1v-2.8h3.2v10.4h-3.2v-5h-4.1V18z"/>
	<path class="st0" d="M220.1,20.7v-0.2h-3.6V18h3.6v-2.4h3.2V18h3.5v2.5h-3.5v0.2c0,2.4,1.1,5.4,4.3,6.7l-1.7,2.4
		c-2-0.8-3.4-2.4-4.2-4.3c-0.8,2-2.2,3.7-4.3,4.5l-1.7-2.4C219,26.3,220.1,23.2,220.1,20.7z M231.3,33.4h-3.2V15.1h3.2V33.4z"/>
	<path class="st0" d="M233.4,23.8h16.7v2.5h-16.7V23.8z M235.2,27.6h3.2v3h10.1V33h-13.3V27.6z M248.3,22.2h-12.9v-6.5h3.2v4h9.8
		V22.2z"/>
	<path class="st1" d="M102,46.1h-2l-2.6,12h2L98,65H78.2l1.4-6.8h2l2.6-12h-2l1.4-6.8h19.7L102,46.1z M88.9,58.2h1.3l2.6-12h-1.3
		L88.9,58.2z M113.4,48.9l-1.5,6.8h-2.2l-1.9,9.2h-8.8l5.4-25.7h8.8l-2,9.6H113.4z"/>
	<path class="st1" d="M117.5,60.7h-6l1.5-6.8h20.5l-1.5,6.8h-5.7l-0.9,4.3h-8.8L117.5,60.7z M114.4,45.5c1-4.9,4.4-6.4,11.3-6.4
		c5.7,0,8.6,1,8.8,4.2h2.1l0.9-4h8.8L140.8,65H132l3.3-15.3h-2.4c-1.7,2.5-4.9,3.3-10.1,3.3c-6.9,0-9.6-1.5-8.6-6.4L114.4,45.5z
		 M126.3,45.8c0.4-1.9-0.3-2.2-1.6-2.2c-1.3,0-2.1,0.3-2.5,2.2l-0.1,0.5c-0.4,1.9,0.3,2.2,1.6,2.2c1.3,0,2.1-0.3,2.5-2.2L126.3,45.8
		z"/>
	<path class="st1" d="M175.8,52.2h-10.5l-0.2,1.1h9.9l-1.6,7.4h-18l-0.2,1h18l-0.7,3.4h-28.7l1.5-7.4h18l0.2-1h-18l0.7-3.4h9.9
		l0.2-1.1h-10.5l0.8-3.6h29.9L175.8,52.2z M149.3,39.3h28.7l-0.7,3.4h-3l-0.4,1.6h3l-0.7,3.4h-28.7l0.7-3.4h3l0.4-1.6h-3L149.3,39.3
		z M160,44.3h5l0.4-1.6h-5L160,44.3z"/>
	<path class="st1" d="M204.4,46.1h-7l-2.6,12h7l-1.4,6.8h-15.8l5.4-25.7h15.8L204.4,46.1z M215,65h-6.4l2.1-9.8h-0.9l-2.1,9.8h-6.4
		l5.4-25.7h6.4l-2,9.6h0.9l2-9.6h6.4L215,65z"/>
	<path class="st1" d="M248.7,57.7h-10.5l-1.5,7.3h-8.8l1.5-7.3h-10.5l1.3-6.4h18.9l2.2-5.2h-19.1l1.4-6.8h28.1l-1.2,5.8l-2.8,6.3
		h2.3L248.7,57.7z"/>
</g>
</svg>
