<?xml version="1.0" encoding="utf-8"?>
<!-- Generator: Adobe Illustrator 16.0.0, SVG Export Plug-In . SVG Version: 6.00 Build 0)  -->
<!DOCTYPE svg PUBLIC "-//W3C//DTD SVG 1.1//EN" "http://www.w3.org/Graphics/SVG/1.1/DTD/svg11.dtd">
<svg version="1.1" id="zoneLogoDaejeon" xmlns="http://www.w3.org/2000/svg" xmlns:xlink="http://www.w3.org/1999/xlink" x="0px"
	 y="0px" width="330px" height="80px" viewBox="0 0 330 80" enable-background="new 0 0 330 80" xml:space="preserve">
<g>
	<g>
		<path fill="#00AE4D" d="M86.125,38.829l-1.908-21.012c-3.453,1.196-5.935,4.483-5.935,8.344c0,0.938,0.155,1.831,0.423,2.679
			c-1.446-1.037-3.217-1.645-5.134-1.645c-2.982,0-5.623,1.478-7.223,3.746L86.125,38.829z"/>
		<path fill="#00AE4D" d="M85.571,40.772l-20.546-4.811c0.05,3.655,2.386,7.047,6.051,8.267c0.887,0.289,1.788,0.425,2.675,0.437
			c-1.441,1.05-2.577,2.534-3.182,4.354c-0.939,2.838-0.365,5.802,1.281,8.038L85.571,40.772z"/>
		<path fill="#00AE4D" d="M87.276,41.758l-10.84,18.11c3.498,1.061,7.438-0.133,9.715-3.255c0.548-0.754,0.956-1.57,1.236-2.404
			c0.558,1.685,1.629,3.22,3.175,4.345c2.414,1.759,5.419,2.115,8.045,1.229L87.276,41.758z"/>
		<path fill="#00AE4D" d="M88.218,38.829l19.416-8.271c-2.207-2.919-6.093-4.269-9.768-3.082c-0.89,0.287-1.699,0.708-2.422,1.221
			c0.542-1.691,0.581-3.564-0.007-5.389c-0.919-2.839-3.139-4.893-5.788-5.72L88.218,38.829z"/>
		<path fill="#00AE4D" d="M88.804,40.625l13.88,15.896c2.095-3.003,2.172-7.119-0.097-10.246c-0.546-0.755-1.195-1.395-1.911-1.918
			c1.779-0.013,3.567-0.557,5.12-1.678c2.417-1.753,3.684-4.506,3.645-7.278L88.804,40.625z"/>
	</g>
	<g>
		<polygon fill="#FFFFFF" points="120.227,27.14 132.074,27.14 132.074,30.57 124.254,30.57 124.254,43.416 134.644,43.416 
			134.644,26.602 138.904,26.602 138.904,34.425 140.95,34.425 140.95,26.602 145.211,26.602 145.211,51.821 140.95,51.821 
			140.95,37.928 138.904,37.928 138.904,51.821 134.644,51.821 134.644,46.979 120.227,46.979 		"/>
		<g>
			<polygon fill="#FFFFFF" points="149.455,26.602 149.455,30.104 157.806,30.104 149.455,38.526 152.388,41.125 158.46,34.876 
				164.477,41.125 167.451,38.526 159.454,30.104 167.451,30.104 167.451,26.602 			"/>
			<polygon fill="#FFFFFF" points="152.041,42.657 152.041,51.821 174.746,51.821 174.746,48.031 156.008,48.031 156.008,42.657 			
				"/>
			<polygon fill="#FFFFFF" points="166.11,31.919 166.11,35.137 170.487,35.137 170.487,44.78 174.746,44.78 174.746,26.018 
				170.487,26.018 170.487,31.919 			"/>
		</g>
		<g>
			<polygon fill="#FFFFFF" points="179.999,26.602 179.999,30.104 193.781,30.104 193.781,35.137 189.052,35.137 189.052,31.919 
				184.791,31.919 184.791,35.137 179.288,35.137 179.288,38.526 200.725,38.526 200.725,40.159 205.046,40.159 205.046,33.678 
				208.548,33.678 208.548,30.104 205.046,30.104 205.046,26.018 200.725,26.018 200.725,35.137 197.98,35.137 197.98,26.602 			"/>
			<path fill="#FFFFFF" d="M193.312,39.438c-6.477,0-11.724,2.774-11.724,6.189c0,3.424,5.247,6.198,11.724,6.198
				c6.476,0,11.723-2.774,11.723-6.198C205.034,42.213,199.787,39.438,193.312,39.438z M193.312,48.602
				c-3.968,0-7.182-1.328-7.182-2.974c0-1.637,3.214-2.965,7.182-2.965c3.97,0,7.18,1.328,7.18,2.965
				C200.491,47.273,197.281,48.602,193.312,48.602z"/>
		</g>
		<g>
			<path fill="#FFFFFF" d="M232.773,26.026v2.816h-6.225c-1.675-1.498-4.126-2.441-6.851-2.441c-5.061,0-9.163,3.249-9.163,7.262
				c0,4.012,4.103,7.265,9.163,7.265c2.919,0,5.521-1.083,7.195-2.77h5.88v2.702h3.974V26.026H232.773z M219.698,37.546
				c-2.735,0-4.957-1.74-4.957-3.883c0-2.144,2.222-3.879,4.957-3.879s4.957,1.736,4.957,3.879
				C224.655,35.806,222.434,37.546,219.698,37.546z M232.773,34.914h-4.047c0.083-0.406,0.135-0.824,0.135-1.251
				c0-0.537-0.07-1.063-0.218-1.569h4.13V34.914z"/>
			<polygon fill="#FFFFFF" points="213.043,42.36 213.043,45.689 232.773,45.689 232.773,51.775 236.747,51.775 236.747,42.36 			
				"/>
		</g>
		<g>
			<polygon fill="#FFFFFF" points="249.587,27.606 240.014,43.662 243.577,45.643 249.587,35.782 255.833,45.643 259.51,43.662 			
				"/>
			<rect x="261.053" y="26.548" fill="#FFFFFF" width="3.973" height="25.227"/>
		</g>
	</g>
</g>
</svg>
