<?xml version="1.0" encoding="utf-8"?>
<!-- Generator: Adobe Illustrator 27.6.1, SVG Export Plug-In . SVG Version: 6.00 Build 0)  -->
<!DOCTYPE svg PUBLIC "-//W3C//DTD SVG 1.1//EN" "http://www.w3.org/Graphics/SVG/1.1/DTD/svg11.dtd">
<svg version="1.1" id="zoneLogoGangwon" xmlns="http://www.w3.org/2000/svg" xmlns:xlink="http://www.w3.org/1999/xlink" x="0px"
	 y="0px" width="330px" height="80px" viewBox="0 0 330 80" style="enable-background:new 0 0 330 80;" xml:space="preserve">
<style type="text/css">
	.st0{fill:#FFFFFF;}
	.st1{fill:#EE2346;}
</style>
<g>
	<path class="st0" d="M113.4,46.9c0,0.1,0.1,0.2,0.2,0.2h8.5c0.1,0,0.2-0.1,0.2-0.2V25.5c0-0.1-0.1-0.2-0.2-0.2h-4
		c-0.1,0-0.2,0.1-0.2,0.2v17.8c0,0.1-0.1,0.1-0.1,0.1h-4.2c-0.1,0-0.2,0.1-0.2,0.2V46.9z"/>
	<path class="st0" d="M100.2,54.8h22.4c0.1,0,0.2-0.1,0.2-0.2v-3.5c0-0.1-0.1-0.2-0.2-0.2H104L100.2,54.8z"/>
	<path class="st0" d="M107.5,23.8c-4,0-7.3,2.9-7.3,6.8c0,3.9,3.3,6.8,7.3,6.8c4,0,7.3-2.9,7.3-6.8
		C114.8,26.7,111.5,23.8,107.5,23.8 M107.5,33.8c-1.7,0-3.1-1.3-3.1-3.1c0-1.8,1.4-3.1,3.1-3.1c1.7,0,3.1,1.3,3.1,3.1
		C110.6,32.5,109.2,33.8,107.5,33.8"/>
	<path class="st1" d="M99.1,42.7c0,0.1,0.1,0.2,0.2,0.2h6.8c0.1,0,0.2,0.1,0.1,0.2l-5.7,5.6c-0.2,0.2-0.2,0.4-0.2,0.6v5.5l15.5-15.5
		c0.2-0.2,0.1-0.5-0.2-0.5H99.3c-0.1,0-0.2,0.1-0.2,0.2V42.7z"/>
	<path class="st0" d="M84.6,38.3c-5.5,0-9.7,4.1-9.7,9.1c0,5,4.2,9.1,9.7,9.1c5.5,0,9.7-4.1,9.7-9.1C94.3,42.4,90.1,38.3,84.6,38.3
		 M84.6,52.6c-3.1,0-5.4-2.3-5.4-5.1c0-2.9,2.3-5.1,5.4-5.1c3.1,0,5.4,2.3,5.4,5.1C90,50.3,87.7,52.6,84.6,52.6"/>
	<path class="st1" d="M72.3,44.4L88.1,26c0.2-0.2,0-0.4-0.2-0.4H72.4c-0.1,0-0.2,0.1-0.2,0.2v3.7c0,0.1,0.1,0.2,0.2,0.2h6.9
		c0.1,0,0.2,0.1,0.1,0.2L72,38.3c-0.1,0.1-0.2,0.3-0.2,0.5v5.4C71.8,44.4,72.1,44.5,72.3,44.4"/>
	<path class="st0" d="M90.1,39h4c0.1,0,0.2-0.1,0.2-0.2v-9.1c0-0.1,0.1-0.1,0.1-0.1h2.8c0.1,0,0.2-0.1,0.2-0.2v-3.7
		c0-0.1-0.1-0.2-0.2-0.2h-7.1c-0.1,0-0.2,0.1-0.2,0.2v13C89.9,38.9,90,39,90.1,39"/>
	<path class="st0" d="M234.3,53.9c0,0.1,0.1,0.2,0.2,0.2H258c0.1,0,0.2-0.1,0.2-0.2v-3.7c0-0.1-0.1-0.2-0.2-0.2h-9.7
		c0,0-0.1-0.1,0-0.1l8.9-11.1c0.1-0.2,0-0.5-0.2-0.5h-17.3c-0.1,0-0.1-0.1-0.1-0.1V30c0-0.1,0.1-0.1,0.1-0.1h17.4
		c0.1,0,0.2-0.1,0.2-0.2v-3.6c0-0.1-0.1-0.2-0.2-0.2h-21.7c-0.1,0-0.2,0.1-0.2,0.2v16.1c0,0.1,0.1,0.2,0.2,0.2h13.5
		c0.1,0,0.2,0.1,0.1,0.2l-6,7.4c-0.1,0.1-0.2,0.1-0.2,0.1h-8.2c-0.1,0-0.2,0.1-0.2,0.2V53.9z M226.1,54.6c0,0.1,0.1,0.2,0.2,0.2h4
		c0.1,0,0.2-0.1,0.2-0.2V25.5c0-0.1-0.1-0.2-0.2-0.2h-4c-0.1,0-0.2,0.1-0.2,0.2V54.6z M207.1,54.4h4c0.1,0,0.1-0.1,0.2-0.1l3.1-11.1
		c0-0.1,0.1-0.1,0.1-0.1h2.3c0.1,0,0.1,0,0.1,0.1l3.1,11.1c0,0.1,0.1,0.1,0.2,0.1h4c0.1,0,0.2-0.1,0.1-0.2l-4.2-14.9
		c0-0.1-0.1-0.1-0.2-0.1h-4.4c-0.1,0-0.1-0.1-0.1-0.1l2.2-8c0-0.1,0.1-0.1,0.2-0.1h5.6c0.1,0,0.2-0.1,0.2-0.2v-3.7
		c0-0.1-0.1-0.2-0.2-0.2H218c-0.1,0-0.1-0.1-0.1-0.1v-3.2c0-0.1-0.1-0.2-0.2-0.2h-4c-0.1,0-0.2,0.1-0.2,0.2v3.2
		c0,0.1-0.1,0.1-0.1,0.1h-5.6c-0.1,0-0.2,0.1-0.2,0.2v3.7c0,0.1,0.1,0.2,0.2,0.2h5.6c0.1,0,0.1,0.1,0.1,0.1L207,54.2
		C207,54.3,207,54.4,207.1,54.4 M197.6,54.6c0,0.1,0.1,0.2,0.2,0.2h4c0.1,0,0.2-0.1,0.2-0.2V29.7c0-0.1,0.1-0.1,0.1-0.1h2.8
		c0.1,0,0.2-0.1,0.2-0.2v-3.7c0-0.1-0.1-0.2-0.2-0.2h-7.1c-0.1,0-0.2,0.1-0.2,0.2V54.6z M179.4,54.4h4c0.1,0,0.1-0.1,0.2-0.1
		l2.9-11.4c0-0.1,0.1-0.1,0.1-0.1h2.2c0.1,0,0.1,0,0.1,0.1l2.9,11.4c0,0.1,0.1,0.1,0.2,0.1h4c0.1,0,0.2-0.1,0.1-0.2l-4-15.3
		c0-0.1-0.1-0.1-0.2-0.1h-4.4c-0.1,0-0.1-0.1-0.1-0.1l2.3-9c0-0.1,0.1-0.1,0.2-0.1h5.4c0.1,0,0.2-0.1,0.2-0.2v-3.7
		c0-0.1-0.1-0.2-0.2-0.2h-15.4c-0.1,0-0.2,0.1-0.2,0.2v3.7c0,0.1,0.1,0.2,0.2,0.2h5.4c0.1,0,0.1,0.1,0.1,0.1l-6.3,24.6
		C179.2,54.3,179.3,54.4,179.4,54.4 M168.8,36c0,0.1,0.1,0.2,0.2,0.2h2.6c0.1,0,0.1,0.1,0.1,0.1V40c0,0.1,0.1,0.2,0.2,0.2h4
		c0.1,0,0.2-0.1,0.2-0.2V25.7c0-0.1-0.1-0.2-0.2-0.2H169c-0.1,0-0.2,0.1-0.2,0.2v3.6c0,0.1,0.1,0.2,0.2,0.2h2.6
		c0.1,0,0.1,0.1,0.1,0.1v2.5c0,0.1-0.1,0.1-0.1,0.1H169c-0.1,0-0.2,0.1-0.2,0.2V36z M157.5,35.6v-3.1c0-0.1,0.1-0.1,0.1-0.1h5.7
		c0.1,0,0.1,0.1,0.1,0.1v3.1c0,0.1-0.1,0.1-0.1,0.1h-5.7C157.6,35.7,157.5,35.7,157.5,35.6 M154.3,54.6c0,0.1,0.1,0.2,0.2,0.2h21.7
		c0.1,0,0.2-0.1,0.2-0.2v-3.2c0-0.1-0.1-0.2-0.2-0.2h-17.5c-0.1,0-0.1-0.1-0.1-0.1v-1.3c0-0.1,0.1-0.1,0.1-0.1h17.2
		c0.1,0,0.2-0.1,0.2-0.2v-8c0-0.1-0.1-0.2-0.2-0.2h-21.4c-0.1,0-0.2,0.1-0.2,0.2v3.2c0,0.1,0.1,0.2,0.2,0.2h17.2
		c0.1,0,0.1,0.1,0.1,0.1v1.2c0,0.1-0.1,0.1-0.1,0.1h-17.2c-0.1,0-0.2,0.1-0.2,0.2V54.6z M153.3,39.3c0,0.1,0.1,0.2,0.2,0.2h13.9
		c0.1,0,0.2-0.1,0.2-0.2V25.7c0-0.1-0.1-0.2-0.2-0.2h-3.8c-0.1,0-0.2,0.1-0.2,0.2v2.9c0,0.1-0.1,0.1-0.1,0.1h-5.7
		c-0.1,0-0.1-0.1-0.1-0.1v-2.9c0-0.1-0.1-0.2-0.2-0.2h-3.9c-0.1,0-0.2,0.1-0.2,0.2V39.3z M127.1,38.9c0,0.1,0.1,0.2,0.2,0.2H149
		c0.1,0,0.2-0.1,0.2-0.2v-3.2c0-0.1-0.1-0.2-0.2-0.2h-17.5c-0.1,0-0.1-0.1-0.1-0.1v-1.3c0-0.1,0.1-0.1,0.1-0.1h17.2
		c0.1,0,0.2-0.1,0.2-0.2v-3c0-0.1-0.1-0.2-0.2-0.2h-17.2c-0.1,0-0.1-0.1-0.1-0.1v-1.3c0-0.1,0.1-0.1,0.1-0.1H149
		c0.1,0,0.2-0.1,0.2-0.2v-3.2c0-0.1-0.1-0.2-0.2-0.2h-21.7c-0.1,0-0.2,0.1-0.2,0.2V38.9z M126.9,50c0,0.1,0.1,0.2,0.2,0.2h17.6
		c0.1,0,0.1,0.1,0.1,0.1v4.5c0,0.1,0.1,0.2,0.2,0.2h4c0.1,0,0.2-0.1,0.2-0.2v-8.2c0-0.1-0.1-0.2-0.2-0.2h-21.9
		c-0.1,0-0.2,0.1-0.2,0.2V50z M126.2,44.5c0,0.1,0.1,0.2,0.2,0.2h23.5c0.1,0,0.2-0.1,0.2-0.2v-3.5c0-0.1-0.1-0.2-0.2-0.2h-23.5
		c-0.1,0-0.2,0.1-0.2,0.2V44.5z"/>
</g>
</svg>
