<?xml version="1.0" encoding="utf-8"?>
<!-- Generator: Adobe Illustrator 16.0.0, SVG Export Plug-In . SVG Version: 6.00 Build 0)  -->
<!DOCTYPE svg PUBLIC "-//W3C//DTD SVG 1.1//EN" "http://www.w3.org/Graphics/SVG/1.1/DTD/svg11.dtd">
<svg version="1.1" id="zoneLogoGwangju" xmlns="http://www.w3.org/2000/svg" xmlns:xlink="http://www.w3.org/1999/xlink" x="0px"
	 y="0px" width="330px" height="80px" viewBox="0 0 330 80" enable-background="new 0 0 330 80" xml:space="preserve">
<g>
	<path fill="#EF4123" d="M90.942,41.865c10.643-2.074,16.593,3.844,19.693,9.075c1.625-3.128,2.548-6.68,2.548-10.447
		c0-1.514-0.149-2.993-0.434-4.425C89.161,32.01,81.719,49.884,79.391,60.447c3.253,1.777,6.987,2.788,10.959,2.788
		c6.335,0,12.068-2.57,16.203-6.722C101.904,42.169,90.942,41.865,90.942,41.865L90.942,41.865z"/>
	<path fill="#EF4123" d="M105.139,23.167c-4.11,7.127-9.868,10.464-9.868,10.464c3.202-3.847,4.792-9.294,5.571-13.341
		c-3.141-1.622-6.708-2.54-10.491-2.54c-8.049,0-15.125,4.15-19.191,10.417c3.311,2.809,10.778,7.474,22.931,6.248
		c0,0-13.043,2.283-25.45-0.97c-0.727,2.217-1.122,4.587-1.122,7.048c0,5.947,2.293,11.36,6.043,15.411
		c6.596-21.946,32.333-23.263,38.217-23.274C110.41,28.927,108.098,25.676,105.139,23.167L105.139,23.167z M89.618,33.128
		c-2.106,0-3.819-1.685-3.819-3.765c0-2.078,1.712-3.764,3.819-3.764c2.109,0,3.819,1.686,3.819,3.764
		C93.438,31.443,91.727,33.128,89.618,33.128L89.618,33.128z"/>
</g>
<g>
	<path fill="#FFFFFF" d="M231.384,33.318c0,2.271,0.629,4.214,1.883,5.823c1.255,1.609,3.73,2.438,5.351,2.731l-1.95,1.678
		c-1.301-0.103-3.627-0.519-4.91-1.491c-1.281-0.973-2.082-2.001-2.403-3.087c-0.284,1.086-1.074,2.11-2.365,3.073
		c-1.288,0.963-3.438,1.323-4.739,1.444l-1.975-1.679c1.637-0.292,3.935-1.065,5.182-2.685c1.245-1.616,1.868-3.553,1.868-5.809
		v-2.761c0-0.483,0.036-1.792-0.002-1.808h4.062c-0.018,0.016,0,1.324,0,1.808V33.318L231.384,33.318z M239.104,28.233h4.003
		c-0.034,0.018-0.034,23.719,0,23.754h-4.003C239.139,51.952,239.139,28.251,239.104,28.233L239.104,28.233z"/>
	<path fill="#FFFFFF" d="M155.749,31.021c0,0-7.034-0.018-7.05,0v-2.194h18.16v2.194c-0.018-0.018-7.051,0-7.051,0v0.155
		c0,1.721,0.948,3.24,2.846,4.558c1.896,1.316,3.857,1.982,5.889,2l-2.132,1.807c-1.693,0-3.213-0.537-5.039-1.354
		c-1.826-0.818-3.024-1.787-3.593-2.906c-0.552,1.136-1.742,2.109-3.566,2.919c-1.825,0.808-3.592,1.212-5.301,1.212l-1.895-1.678
		c2.046-0.018,4.014-0.679,5.9-1.988c1.889-1.309,2.833-2.831,2.833-4.57V31.021L155.749,31.021z M155.776,43.493h-9.482v-2.194
		c0.034,0.015,21.285,0,21.285,0c0.41,0,1.665,0.015,1.685,0v2.194h-9.482c0,0-0.036,8.202,0,8.237h-4.005
		C155.811,51.695,155.776,43.493,155.776,43.493L155.776,43.493z"/>
	<path fill="#FFFFFF" d="M207.516,39.865c0.88-0.373,1.635-0.865,2.258-1.486h5.1v2.763h4.007c0,0-0.036-12.892,0-12.909h-4.007
		c0.035,0.018,0,2.272,0,2.272h-4.888c-0.605-0.707-1.371-1.263-2.296-1.666c-0.928-0.405-1.923-0.606-2.99-0.606
		c-1.871,0-3.47,0.593-4.795,1.781c-1.328,1.188-1.989,2.624-1.989,4.311c0,1.671,0.661,3.103,1.989,4.298
		c1.325,1.198,2.924,1.795,4.795,1.795C205.694,40.419,206.635,40.234,207.516,39.865L207.516,39.865z M211.441,33.475
		c-0.045-0.275-0.11-0.542-0.2-0.801h3.632v3.537h-3.712c0.125-0.292,0.213-0.598,0.268-0.917c0.052-0.317,0.079-0.642,0.079-0.969
		C211.508,34.034,211.485,33.75,211.441,33.475L211.441,33.475z M202.749,37.077c-0.554-0.766-0.829-1.683-0.829-2.751
		c0-1.067,0.275-1.982,0.829-2.75c0.551-0.766,1.201-1.148,1.95-1.148c0.766,0,1.423,0.382,1.975,1.148
		c0.553,0.767,0.828,1.683,0.828,2.75c0,1.068-0.275,1.985-0.828,2.751c-0.552,0.766-1.209,1.146-1.975,1.146
		C203.95,38.223,203.3,37.842,202.749,37.077L202.749,37.077z"/>
	<path fill="#FFFFFF" d="M218.875,45.446c-0.045-1.384-1.219-2.496-2.666-2.496h-15.09v2.195c0.018-0.034,13.754-0.001,13.754-0.001
		s0.035,6.808,0,6.843h4.007C218.87,51.964,218.871,48.114,218.875,45.446L218.875,45.446z"/>
	<path fill="#FFFFFF" d="M181.524,30.944v2.918c0,0.689-0.034,1.368-0.104,2.039c-0.074,0.67-0.214,1.257-0.428,1.757h3.472
		c0.285-0.293,0.533-0.84,0.747-1.64s0.32-1.554,0.32-2.259v-2.428c0-1.426-1.197-2.582-2.671-2.582h-10.654v2.194
		C172.226,30.928,181.524,30.944,181.524,30.944L181.524,30.944z"/>
	<path fill="#FFFFFF" d="M191.569,32.957c0,0-0.037-4.706,0-4.723h-4.006c0.035,0.018,0,9.889,0,9.889
		c-0.501,0.171-1.129,0.318-1.885,0.438c-0.757,0.122-1.616,0.181-2.579,0.181h-4.299c0,0-0.018-5.173,0-5.19h-3.791
		c0.033,0.017-0.001,5.19-0.001,5.19s-3.703,0.018-3.739,0v2.195h11.672c0.89,0,1.743-0.091,2.563-0.272
		c0.818-0.18,1.504-0.399,2.059-0.658v2.144h4.006v-6.999c0,0,3.987-0.015,4.005,0.001v-2.197
		C195.557,32.976,191.569,32.957,191.569,32.957L191.569,32.957z"/>
	<path fill="#FFFFFF" d="M188.834,43.523c-1.413-1.061-3.12-1.592-5.122-1.592c-2.001,0-3.709,0.531-5.122,1.592
		c-1.411,1.061-2.117,2.359-2.117,3.895c0,1.517,0.706,2.809,2.117,3.88c1.413,1.066,3.121,1.603,5.122,1.603
		c2.002,0,3.709-0.536,5.122-1.603c1.416-1.071,2.12-2.363,2.12-3.88C190.954,45.883,190.25,44.584,188.834,43.523L188.834,43.523z
		 M186.043,49.687c-0.64,0.659-1.418,0.989-2.331,0.989c-0.915,0-1.692-0.33-2.331-0.989c-0.642-0.661-0.96-1.416-0.96-2.269
		c0-0.869,0.318-1.638,0.96-2.307c0.639-0.672,1.416-1.007,2.331-1.007c0.913,0,1.691,0.335,2.331,1.007
		c0.642,0.669,0.961,1.438,0.961,2.307C187.004,48.271,186.685,49.025,186.043,49.687L186.043,49.687z"/>
	<path fill="#FFFFFF" d="M132.708,30.737v2.917c0,0.689-0.034,1.369-0.105,2.04c-0.072,0.671-0.213,1.258-0.427,1.756h3.472
		c0.285-0.291,0.534-0.839,0.749-1.639c0.214-0.8,0.32-1.555,0.32-2.259v-2.427c0-1.426-1.196-2.583-2.672-2.583h-10.334v2.194
		C123.728,30.722,132.708,30.737,132.708,30.737L132.708,30.737z"/>
	<path fill="#FFFFFF" d="M142.753,32.751c0,0-0.038-4.708,0-4.725h-4.008c0.036,0.018,0,9.889,0,9.889
		c-0.5,0.172-1.127,0.32-1.883,0.438c-0.758,0.121-1.616,0.182-2.578,0.182h-4.3c0,0-0.018-5.173,0-5.19h-3.79
		c0.034,0.017-0.002,5.19-0.002,5.19s-3.383,0.018-3.417,0v2.195h11.349c0.892,0,1.745-0.091,2.563-0.272
		c0.82-0.181,1.505-0.4,2.058-0.659v2.145h4.008v-6.998c0,0,3.987-0.015,4.005,0.001v-2.196
		C146.74,32.769,142.753,32.751,142.753,32.751L142.753,32.751z"/>
	<path fill="#FFFFFF" d="M140.018,43.317c-1.412-1.061-3.121-1.593-5.122-1.593c-2,0-3.709,0.532-5.121,1.593
		c-1.413,1.06-2.117,2.358-2.117,3.894c0,1.518,0.705,2.811,2.117,3.881c1.412,1.067,3.121,1.603,5.121,1.603
		c2.001,0,3.71-0.535,5.122-1.603c1.415-1.07,2.121-2.363,2.121-3.881C142.138,45.676,141.433,44.377,140.018,43.317L140.018,43.317
		z M137.227,49.479c-0.64,0.659-1.417,0.989-2.331,0.989c-0.915,0-1.691-0.33-2.33-0.989c-0.642-0.661-0.961-1.417-0.961-2.269
		c0-0.869,0.32-1.639,0.961-2.308c0.639-0.671,1.415-1.005,2.33-1.005c0.914,0,1.691,0.334,2.331,1.005
		c0.641,0.669,0.96,1.438,0.96,2.308C138.187,48.063,137.867,48.818,137.227,49.479L137.227,49.479z"/>
</g>
</svg>
