<?xml version="1.0" encoding="utf-8"?>
<!-- Generator: Adobe Illustrator 16.0.0, SVG Export Plug-In . SVG Version: 6.00 Build 0)  -->
<!DOCTYPE svg PUBLIC "-//W3C//DTD SVG 1.1//EN" "http://www.w3.org/Graphics/SVG/1.1/DTD/svg11.dtd">
<svg version="1.1" id="zoneLogoGyeongnam" xmlns="http://www.w3.org/2000/svg" xmlns:xlink="http://www.w3.org/1999/xlink" x="0px"
	 y="0px" width="330px" height="80px" viewBox="0 0 330 80" enable-background="new 0 0 330 80" xml:space="preserve">
<g>
	<g>
		<g>
			<polygon fill="#FFFFFF" points="216.402,35.839 206.821,35.839 206.821,26.857 202.967,26.857 202.967,38.885 216.402,38.885 			
				"/>
			<polygon fill="#FFFFFF" points="163.276,40.735 167.155,40.735 167.155,26.478 163.276,26.478 163.276,29.223 159.127,29.223 
				159.127,32.268 163.276,32.268 163.276,34.261 159.127,34.261 159.127,37.311 163.276,37.311 			"/>
			<polygon fill="#FFFFFF" points="242.677,48.91 242.677,41.552 249.199,41.552 249.199,38.508 235.289,38.508 235.289,30.419 
				249.199,30.419 249.199,27.384 231.417,27.384 231.417,41.552 238.818,41.552 238.818,48.91 229.549,48.91 229.549,51.958 
				251.069,51.958 251.069,48.91 			"/>
			<polygon fill="#FFFFFF" points="222.554,26.478 218.682,26.478 218.682,40.312 222.554,40.312 222.554,33.874 225.922,33.874 
				225.922,30.826 222.554,30.826 			"/>
			<path fill="#FFFFFF" d="M207.286,42.016V53.15h15.268V42.016H207.286z M211.164,50.106v-5.042h7.518v5.042H211.164z"/>
			<path fill="#FFFFFF" d="M158.987,40.376c-4.28,0-7.762,3.149-7.762,7.035c0,3.884,3.482,7.029,7.762,7.029
				c4.282,0,7.766-3.146,7.766-7.029C166.753,43.525,163.269,40.376,158.987,40.376z M158.987,51.181
				c-2.076,0-3.753-1.688-3.753-3.77c0-2.08,1.677-3.771,3.753-3.771c2.075,0,3.752,1.691,3.752,3.771
				C162.74,49.492,161.063,51.181,158.987,51.181z"/>
			<path fill="#FFFFFF" d="M186.001,40.376c-4.295,0-7.759,3.149-7.759,7.035c0,3.884,3.464,7.029,7.759,7.029
				c4.279,0,7.761-3.146,7.761-7.029C193.762,43.525,190.28,40.376,186.001,40.376z M186.001,51.181
				c-2.074,0-3.751-1.688-3.751-3.77c0-2.08,1.677-3.771,3.751-3.771c2.072,0,3.749,1.691,3.749,3.771
				C189.75,49.492,188.073,51.181,186.001,51.181z"/>
			<path fill="#FFFFFF" d="M157.295,33.217c0,0,1.03-2.697,0.961-6.022h-12.737v3.114h8.085c0,0,0.289,6.203-8.602,7.507
				l1.543,2.678C149.362,40.25,155.036,38.823,157.295,33.217z"/>
		</g>
		<path fill="#FFFFFF" d="M186.548,39.69l1.567-2.594c-6.031-2.01-6.002-8.065-6.002-8.708c0-0.652,0-1.392,0-1.392h-4.729
			c0,0,0,0.865,0,1.429c0,0.552,0.227,7.093-5.938,9.41l1.655,2.499c0,0,4.304-1.228,6.78-5.485
			C182.021,38.607,186.548,39.69,186.548,39.69z"/>
		<polygon fill="#FFFFFF" points="194.29,26.478 190.434,26.478 190.434,40.733 194.29,40.733 194.29,33.873 197.656,33.873 
			197.656,30.826 194.29,30.826 		"/>
	</g>
</g>
<g>
	<g>
		<path fill="#F15A38" d="M107.538,13.423c-9.5-0.186-17.948,4.557-22.911,11.876c0.091,0.105,0.173,0.207,0.244,0.298
			c0.054,0.062,0.101,0.125,0.145,0.175c0.029,0.003,0.052,0.008,0.073,0.015c0.354,0.063,0.883,0.159,1.338,0.571
			c0.285,0.259,0.469,0.547,0.618,0.778c0.063,0.098,0.15,0.234,0.19,0.274c0.077,0.076,0.196,0.165,0.323,0.262
			c0.203,0.156,0.437,0.331,0.662,0.562c0.19,0.192,0.363,0.388,0.528,0.577c0.114,0.137,0.225,0.263,0.338,0.383
			c0.086,0.094,0.206,0.2,0.331,0.313c0.187,0.166,0.396,0.356,0.6,0.588c0.261,0.288,0.409,0.595,0.526,0.84
			c0.049,0.091,0.118,0.229,0.146,0.271v-0.003c0.183,0.215,0.357,0.438,0.526,0.651l0.264,0.332
			c0.047,0.057,0.159,0.155,0.262,0.239c0.2,0.172,0.45,0.383,0.669,0.673c0.168,0.219,0.304,0.431,0.435,0.639
			c0.1,0.15,0.19,0.29,0.28,0.415c0.211,0.29,0.341,0.585,0.449,0.827c0.057,0.13,0.113,0.268,0.163,0.333
			c0.046,0.065,0.145,0.168,0.249,0.275c0.175,0.178,0.388,0.4,0.579,0.683c0.2,0.296,0.316,0.6,0.411,0.843
			c0.036,0.096,0.076,0.194,0.108,0.265c0.035,0.025,0.081,0.055,0.119,0.083c0.246,0.166,0.623,0.419,0.886,0.85
			c0.147,0.242,0.247,0.482,0.327,0.688l0.518,0.351c0.843,0.568,1.198,0.273,0.789-0.657l-4.759-10.847
			c-0.407-0.931-0.241-1.029,0.373-0.218l7.096,9.387c0.614,0.811,1.043,0.646,0.957-0.367l-0.998-11.774
			c-0.085-1.013,0.108-1.051,0.428-0.088l3.432,11.114c0.325,0.966,0.75,0.939,0.949-0.057l1.92-11.462
			c0.199-1.001,0.397-0.984,0.442,0.031l0.489,11.723c0.044,1.017,0.491,1.125,1.001,0.248l5.857-10.144
			c0.508-0.88,0.689-0.804,0.398,0.172l-3.317,11.197c-0.289,0.974,0.104,1.224,0.871,0.558l8.788-7.626
			c0.766-0.668,0.915-0.533,0.324,0.294l-5.057,7.094c0.257-0.008,0.515-0.018,0.716-0.128c0.412-0.222,0.651-0.785,1.075-0.993
			c0.424-0.202,0.979-0.13,1.41-0.321c0.428-0.189,0.728-0.697,1.16-0.872c0.434-0.173,0.889-0.299,1.321-0.458
			c0.477-0.175,0.918-0.447,1.387-0.605c0.474-0.156,0.975-0.228,1.44-0.37c0.461-0.144,1.025,0.058,1.479-0.072
			c0.495-0.138,0.874-0.667,1.352-0.79c0.482-0.125,1.002-0.049,1.457-0.158c0.496-0.117,1.003-0.101,1.466-0.199
			c0.501-0.108,0.944-0.371,1.399-0.458c0.088-0.018,0.18-0.025,0.271-0.029C129.499,21.635,119.506,13.657,107.538,13.423z"/>
		<path fill="#00AC6C" d="M103.438,65.787c0.001-0.026,0.01-0.054,0.017-0.078c-0.018-0.036-0.041-0.077-0.063-0.111
			c-0.127-0.229-0.308-0.541-0.393-0.94c-0.032-0.152-0.082-0.326-0.139-0.51c-0.064-0.202-0.134-0.434-0.191-0.678
			c-0.07-0.317-0.079-0.614-0.092-0.852c-0.004-0.147-0.01-0.299-0.028-0.373c-0.061-0.255-0.097-0.492-0.128-0.709
			c-0.026-0.18-0.049-0.352-0.083-0.49c-0.03-0.118-0.09-0.265-0.153-0.425c-0.083-0.207-0.181-0.443-0.249-0.716l-0.071-0.259
			l-0.235-0.893c-0.04-0.142-0.101-0.304-0.165-0.473c-0.074-0.195-0.155-0.411-0.222-0.645c-0.121-0.411-0.107-0.797-0.095-1.072
			c0.004-0.083,0.007-0.183,0.004-0.232c-0.05-0.161-0.115-0.331-0.186-0.511c-0.073-0.189-0.148-0.384-0.215-0.597
			c-0.019-0.038-0.089-0.131-0.14-0.204c-0.157-0.216-0.371-0.51-0.501-0.895c-0.036-0.108-0.106-0.255-0.185-0.405
			c-0.101-0.201-0.22-0.431-0.311-0.694c-0.073-0.207-0.152-0.413-0.237-0.628l-0.185-0.486c-0.173-0.463-0.141-0.906-0.122-1.195
			c0.005-0.039,0.007-0.085,0.009-0.126c-0.046-0.1-0.106-0.213-0.177-0.335c-0.108-0.202-0.237-0.429-0.344-0.688
			c-0.027-0.07-0.115-0.195-0.193-0.315c-0.134-0.199-0.301-0.446-0.428-0.749c-0.105-0.252-0.181-0.491-0.247-0.703
			c-0.051-0.168-0.099-0.326-0.148-0.438c-0.087-0.199-0.162-0.393-0.236-0.579c-0.076-0.188-0.148-0.366-0.222-0.525l-0.224-0.492
			c-0.098-0.224-0.193-0.436-0.292-0.638c-0.035-0.075-0.13-0.197-0.222-0.315c-0.146-0.188-0.324-0.42-0.471-0.709
			c-0.162-0.316-0.239-0.625-0.303-0.869c-0.021-0.078-0.045-0.178-0.063-0.241c-0.038-0.033-0.085-0.07-0.125-0.105
			c-0.226-0.18-0.537-0.431-0.757-0.83c-0.218-0.387-0.281-0.777-0.329-1.057c-0.012-0.076-0.027-0.172-0.041-0.217
			c-0.144-0.254-0.24-0.503-0.32-0.706c-0.04-0.107-0.08-0.214-0.118-0.292c-0.038-0.027-0.084-0.059-0.123-0.086
			c-0.254-0.168-0.598-0.398-0.852-0.804c-0.188-0.288-0.298-0.575-0.388-0.809c-0.047-0.117-0.102-0.263-0.138-0.313
			c-0.052-0.081-0.157-0.186-0.268-0.3c-0.168-0.172-0.355-0.368-0.529-0.615c-0.196-0.284-0.321-0.566-0.422-0.792
			c-0.054-0.117-0.118-0.265-0.152-0.315c-0.143-0.194-0.264-0.383-0.372-0.553c-0.108-0.168-0.212-0.327-0.308-0.453
			c-0.05-0.063-0.169-0.165-0.284-0.262c-0.18-0.157-0.407-0.35-0.609-0.601l-0.279-0.35c-0.163-0.207-0.315-0.4-0.469-0.583
			c-0.245-0.289-0.391-0.583-0.503-0.823c-0.043-0.084-0.102-0.204-0.129-0.241c-0.106-0.118-0.241-0.239-0.383-0.367
			c-0.153-0.139-0.327-0.298-0.499-0.477c-0.146-0.158-0.276-0.307-0.406-0.456c-0.143-0.166-0.278-0.324-0.407-0.454
			c-0.094-0.096-0.235-0.197-0.379-0.312c-0.171-0.131-0.364-0.277-0.556-0.459c-0.271-0.263-0.449-0.543-0.594-0.766
			c-0.029-0.044-0.061-0.092-0.087-0.137c-0.029-0.005-0.056-0.009-0.08-0.016c-0.323-0.059-0.813-0.147-1.229-0.503
			c-0.078-0.068-0.15-0.136-0.219-0.202c-1.946,3.642-3.092,7.787-3.179,12.199c-0.269,13.894,9.987,25.536,23.444,27.324
			c-0.025-0.093-0.051-0.187-0.069-0.285C103.263,66.491,103.366,66.069,103.438,65.787z"/>
		<path fill="#005BAA" d="M101.059,48.547c0.045,0.11,0.121,0.246,0.202,0.396c0.122,0.217,0.262,0.464,0.377,0.755
			c0.18,0.471,0.147,0.915,0.126,1.214c-0.003,0.046-0.009,0.104-0.009,0.149l0.137,0.356c0.088,0.228,0.179,0.46,0.266,0.706
			c0.038,0.103,0.108,0.238,0.179,0.382c0.108,0.22,0.232,0.464,0.332,0.756c-0.009-0.018-0.013-0.027-0.013-0.027
			c0.022,0.034,0.092,0.134,0.14,0.205c0.165,0.226,0.387,0.532,0.517,0.938c0.047,0.147,0.11,0.306,0.173,0.479
			c0.089,0.228,0.178,0.461,0.256,0.719c0.128,0.417,0.112,0.809,0.104,1.098c-0.007,0.079-0.007,0.187-0.007,0.236
			c0.041,0.124,0.091,0.268,0.149,0.417c0.083,0.211,0.172,0.447,0.245,0.711l0.246,0.924l0.07,0.265
			c0.027,0.107,0.082,0.247,0.144,0.397c0.089,0.225,0.19,0.48,0.266,0.773c0.063,0.267,0.101,0.524,0.137,0.75
			c0.025,0.176,0.049,0.342,0.083,0.48c0.076,0.327,0.088,0.634,0.098,0.88c0.004,0.146,0.013,0.295,0.032,0.379
			c0.034,0.145,0.083,0.302,0.133,0.475c0.064,0.211,0.136,0.449,0.194,0.706c0.016,0.04,0.064,0.129,0.102,0.191
			c0.136,0.236,0.321,0.559,0.402,0.975c0.099,0.483-0.01,0.917-0.08,1.199c-0.013,0.041-0.022,0.089-0.032,0.133
			c0.025,0.084,0.055,0.191,0.092,0.303c0.064,0.186,0.126,0.394,0.176,0.622c0.068,0.002,0.127,0.008,0.19,0.008
			c7.996,0.156,15.244-3.175,20.296-8.59c-9.384-7.213-20.91-9.74-25.801-10.531C101.009,48.432,101.034,48.488,101.059,48.547z"/>
		<path fill="#FAA61A" d="M133.9,40.993c0.038-2.052-0.159-4.054-0.556-5.983c-0.167,0.028-0.338,0.055-0.503,0.085
			c-0.463,0.084-0.875,0.386-1.315,0.473c-0.453,0.093-0.884,0.231-1.319,0.331c-0.479,0.11-0.963,0.128-1.42,0.249
			c-0.465,0.116-0.962,0.077-1.408,0.204c-0.45,0.13-0.828,0.481-1.254,0.618c-0.472,0.151-0.967,0.188-1.41,0.346
			c-0.455,0.16-0.97,0.138-1.398,0.305c-0.434,0.173-0.789,0.521-1.196,0.697c-0.449,0.192-0.949,0.246-1.362,0.443
			c-0.458,0.217-0.795,0.633-1.209,0.853c-0.429,0.223-0.858,0.408-1.245,0.635c-0.425,0.249-0.888,0.401-1.265,0.645
			c-0.418,0.268-0.708,0.677-1.07,0.934c-0.417,0.299-0.73,0.679-1.078,0.956c-0.403,0.326-0.896,0.478-1.208,0.767
			c-0.318,0.288-0.663,0.487-0.931,0.7l-0.604,0.973c-0.126,0.457-0.126,0.793-0.32,0.512l-1.305,2.098
			c5.478,1.676,12.039,4.439,17.873,8.981C131.744,52.41,133.783,46.947,133.9,40.993z"/>
	</g>
</g>
</svg>
