<?xml version="1.0" encoding="utf-8"?>
<!-- Generator: Adobe Illustrator 16.0.0, SVG Export Plug-In . SVG Version: 6.00 Build 0)  -->
<!DOCTYPE svg PUBLIC "-//W3C//DTD SVG 1.1//EN" "http://www.w3.org/Graphics/SVG/1.1/DTD/svg11.dtd">
<svg version="1.1" id="zoneLogoGyeongbuk" xmlns="http://www.w3.org/2000/svg" xmlns:xlink="http://www.w3.org/1999/xlink" x="0px"
	 y="0px" width="330px" height="80px" viewBox="0 0 330 80" enable-background="new 0 0 330 80" xml:space="preserve">
<g>
	<path fill="#FFFFFF" d="M202.744,31.996c-0.009-0.017-0.015-0.037-0.025-0.054v-6.713h-3.641l-0.005,7.721
		c-0.002,0.059-0.014,0.113-0.014,0.167c0,1.17,0.894,2.124,1.996,2.124c0.03,0,0.06-0.012,0.091-0.012h1.572h3.307v-3.232H202.744z
		"/>
	<path fill="#FFFFFF" d="M193.572,27.331h-3.435v-2.307h-3.642v13.961c-1.875-1.225-4.415-1.986-7.211-1.986
		c-5.771,0-10.447,3.215-10.447,7.177c0,3.971,4.676,7.186,10.447,7.186c5.767,0,10.444-3.215,10.444-7.186
		c0-1.923-1.106-3.666-2.901-4.958h3.31v-8.653h3.435V27.331z M179.285,48.261c-3.819,0-6.916-1.826-6.916-4.084
		c0-2.249,3.097-4.075,6.916-4.075c3.818,0,6.911,1.826,6.911,4.075C186.196,46.435,183.104,48.261,179.285,48.261z"/>
	<path fill="#FFFFFF" d="M182.885,35.528v-3.232c0,0-7.711,0.807-7.861-7.161l-4.412,0.059c0,0,0.649,7.449-8.256,6.868v3.119
		c0,0,6.519,1.384,10.427-4.385C172.782,30.796,176.258,36.334,182.885,35.528z"/>
	<path fill="#FFFFFF" d="M158.568,24.911h-3.641v0.803h-5.171v3.239h5.171v1.614h-5.171v3.231h5.171v4.82
		c-1.909-1.421-4.638-2.307-7.667-2.307c-5.771,0-10.446,3.21-10.446,7.181c0,3.962,4.675,7.177,10.446,7.177
		c5.767,0,10.444-3.215,10.444-7.177c0-1.697-0.855-3.248-2.279-4.473h3.142V24.911z M147.261,47.566
		c-3.821,0-6.914-1.822-6.914-4.075s3.093-4.088,6.914-4.088c3.814,0,6.912,1.835,6.912,4.088S151.075,47.566,147.261,47.566z"/>
	<path fill="#FFFFFF" d="M147.474,28.255c0,0,1.307-3.001-2.495-3.344h-12.816v3.231h11.401c0,0-1.463,5.769-10.398,5.079h-0.243
		h-1.197v3.231h1.44C133.165,36.452,144.979,37.146,147.474,28.255z"/>
	<path fill="#FFFFFF" d="M197.464,40.527h12.387v2.042h-10.875v3.235h22.057c0.012,0.016,0.017,0.036,0.026,0.054v6.32l3.646,0.054
		c0.001-0.05,0.014-7.499,0.014-7.554c0-1.17-0.895-2.119-1.996-2.119c-0.03,0-0.061,0.01-0.091,0.01h-1.573h-7.569v-2.042h12.687
		v-3.231h-28.712V40.527z"/>
	<path fill="#FFFFFF" d="M246.944,47.04v-5.727h10.369v-3.252c0,0-20.794-0.017-20.805-0.033l0.128-7.801h20.667v-3.231h-20.694
		h-1.572c-0.03-0.004-0.059-0.009-0.089-0.009c-1.104,0-1.998,0.949-1.998,2.119c0,0.059,0.013,0.527,0.014,0.581l-0.094,1.137
		l-0.004,8.214c-0.002,0.059-0.015,0.113-0.015,0.163c0,1.17,0.897,2.119,1.996,2.119c0.031,0,0.063-0.008,0.092-0.008h1.569h6.796
		v5.727h-11.448v3.37h26.857v-3.37H246.944z"/>
	<path fill="#FFFFFF" d="M221.084,31.941c-0.01,0.017-0.016,0.038-0.025,0.054h-17.763v3.232h17.788h1.572
		c0.029,0,0.059,0.012,0.09,0.012c1.104,0,1.996-0.953,1.996-2.124c0-0.054-0.011-0.108-0.013-0.167l-0.006-7.67h-3.64v1.709
		h-18.976v3.227h18.976V31.941z"/>
</g>
<g>
	<path fill="#0071BB" d="M102.63,23.221l11.833,7.702c0,0,6.029,3.239,0.67,6.142c0,0-2.455,2.058-10.383,1.388
		c0,0-4.02-0.688-6.141-2.139c0,0-2.792-1.485-0.558-2.82c0,0,3.349-1.118-2.568-1.677c0,0-6.141-0.67-8.709-0.223
		c0,0-4.354,0.223-6.363,0.894l14.849-9.682C95.261,22.805,99.058,20.761,102.63,23.221z"/>
	<path fill="#0071BB" d="M75.052,35.5c0,0,3.127-2.341,10.159-2.453c0,0,4.356-0.223,6.811,0.556c0,0-4.13,4.909,2.793,8.704
		c0,0,4.242,3.019,13.062,3.578c0,0,5.472,0.556,7.927,0.22l-11.833,7.484c0,0-4.506,4.19-11.39-1.229L74.828,40.744
		C74.828,40.744,70.027,38.627,75.052,35.5z"/>
	<path fill="#0071BB" d="M96.713,38.847c0,0,8.262,4.354,18.867,1.118c0,0,4.242-0.667,6.811-4.018c0,0,4.915,2.233,1.452,4.689
		c0,0-0.222,1.338-8.708,2.457c0,0-5.917,0.335-8.598-0.45C106.537,42.643,98.832,41.303,96.713,38.847z"/>
	<path fill="#0071BB" d="M96.713,38.847"/>
</g>
</svg>
