<?xml version="1.0" encoding="utf-8"?>
<!-- Generator: Adobe Illustrator 16.0.0, SVG Export Plug-In . SVG Version: 6.00 Build 0)  -->
<!DOCTYPE svg PUBLIC "-//W3C//DTD SVG 1.1//EN" "http://www.w3.org/Graphics/SVG/1.1/DTD/svg11.dtd">
<svg version="1.1" id="zoneLogoGyeonggi" xmlns="http://www.w3.org/2000/svg" xmlns:xlink="http://www.w3.org/1999/xlink" x="0px"
	 y="0px" width="330px" height="80px" viewBox="0 0 330 80" enable-background="new 0 0 330 80" xml:space="preserve">
<g>
	<g>
		<path fill="#FFFFFF" d="M134.831,30.908c-0.729,0.248-1.509,0.535-3.145,0.535c-2.902,0-3.605-2.452-3.605-4.461
			c0-2.688,0.742-4.486,3.605-4.486c1.201,0,2.121,0.182,2.709,0.378l0.076,2.061h-0.37c-0.205-0.652-0.639-1.813-2.364-1.813
			c-1.931,0-2.147,2.1-2.147,3.821c0,2.282,0.549,3.874,2.671,3.874c0.396,0,0.793-0.104,1.164-0.209v-2.635
			c0-1.018-0.166-1.213-1.01-1.213v-0.326h3.426v0.326c-0.843,0-1.009,0.195-1.009,1.213V30.908z"/>
		<path fill="#FFFFFF" d="M136.058,31.025c0.753,0,0.958-0.234,0.958-1.135v-6c0-0.926-0.46-1.043-0.958-1.043v-0.287l2.25-0.313
			v7.643c0,0.9,0.217,1.135,0.958,1.135v0.288h-3.207V31.025z"/>
		<path fill="#FFFFFF" d="M141.233,28.313c0-1.383,0.231-2.687,1.342-2.687c1.112,0,1.343,1.304,1.343,2.687S143.688,31,142.575,31
			C141.464,31,141.233,29.695,141.233,28.313z M142.575,31.443c1.854,0,2.736-1.018,2.736-3.131c0-2.112-0.882-3.13-2.736-3.13
			c-1.853,0-2.734,1.018-2.734,3.13C139.841,30.426,140.722,31.443,142.575,31.443z"/>
		<path fill="#FFFFFF" d="M147.958,28.3c0-1.553,0.268-2.491,1.227-2.491c0.984,0,1.239,1.174,1.239,2.491
			c0,1.5-0.255,2.399-1.329,2.399C148.239,30.699,147.958,29.695,147.958,28.3z M146.667,31.313h0.396l0.818-0.731
			c0.293,0.313,0.779,0.861,1.636,0.861c1.763,0,2.3-1.461,2.3-3.144c0-1.5-0.435-3.117-2.263-3.117
			c-0.984,0-1.354,0.535-1.571,0.952h-0.026v-3.887l-2.25,0.313v0.287c0.499,0,0.959,0.117,0.959,1.043V31.313z"/>
		<path fill="#FFFFFF" d="M156.037,29.213c0,0.952-0.486,1.486-1.214,1.486c-0.538,0-0.806-0.417-0.806-0.926
			c0-1.227,1.534-1.304,2.02-1.317V29.213z M158.401,30.883c-0.166,0.052-0.333,0.117-0.499,0.117c-0.422,0-0.575-0.287-0.575-1.083
			v-2.596c0-1.486-0.511-2.139-2.122-2.139c-1.048,0-2.339,0.404-2.339,1.344c0,0.456,0.372,0.665,0.729,0.665
			c1.163,0,0.293-1.565,1.559-1.565c0.883,0,0.883,0.991,0.883,1.695v0.652c-0.793,0.039-3.413,0.156-3.413,1.982
			c0,0.849,0.792,1.487,1.673,1.487c0.947,0,1.497-0.601,1.752-0.887c0.089,0.431,0.243,0.887,1.01,0.887
			c0.536,0,0.907-0.092,1.342-0.235V30.883z"/>
		<path fill="#FFFFFF" d="M158.516,31.025c0.754,0,0.959-0.234,0.959-1.135v-6c0-0.926-0.46-1.043-0.959-1.043v-0.287l2.25-0.313
			v7.643c0,0.9,0.218,1.135,0.959,1.135v0.288h-3.208V31.025z"/>
		<path fill="#FFFFFF" d="M165.884,30.987c0.908,0,1.086-0.196,1.086-1.214v-5.608c0-1.018-0.179-1.213-1.086-1.213v-0.326h3.579
			v0.326c-0.895,0-1.086,0.195-1.086,1.213v5.608c0,1.018,0.191,1.214,1.086,1.214v0.326h-3.579V30.987z"/>
		<path fill="#FFFFFF" d="M169.898,31.025c0.74,0,0.959-0.234,0.959-1.135v-3.064c0-0.926-0.461-1.044-0.959-1.044v-0.287
			l2.249-0.313v1.539h0.025c0.294-0.535,0.883-1.539,2.098-1.539c1.303,0,1.546,0.743,1.546,1.735v2.973
			c0,0.9,0.217,1.135,0.959,1.135v0.288h-3.209v-0.288c0.741,0,0.959-0.234,0.959-1.135v-1.917c0-1.578-0.191-1.996-0.817-1.996
			c-0.742,0-1.561,1.357-1.561,2.166v1.747c0,0.9,0.217,1.135,0.959,1.135v0.288h-3.208V31.025z"/>
		<path fill="#FFFFFF" d="M180.775,26.943c-0.051-0.457-0.319-1.317-1.266-1.317c-0.549,0-0.945,0.378-0.945,0.848
			c0,0.848,1.471,1.174,2.263,1.8c0.384,0.3,0.678,0.757,0.678,1.396c0,1.069-0.831,1.773-2.302,1.773
			c-0.767,0-1.482-0.156-1.775-0.235l-0.077-1.747h0.37c0,0.743,0.499,1.539,1.445,1.539c0.563,0,1.162-0.326,1.162-0.992
			c0-0.847-1.252-1.095-2.02-1.63c-0.626-0.443-0.92-0.796-0.92-1.513c0-1.174,1.01-1.683,2.224-1.683
			c0.613,0,1.049,0.117,1.458,0.222l0.077,1.539H180.775z"/>
		<path fill="#FFFFFF" d="M184.215,28.273c0-1.461,0.37-2.348,1.213-2.348c1.139,0,1.317,1.239,1.317,2.348
			c0,1.5-0.127,2.544-1.317,2.544C184.495,30.817,184.215,29.865,184.215,28.273z M181.964,33.848h3.209v-0.287
			c-0.741,0-0.958-0.234-0.958-1.147v-1.896h0.025c0.294,0.392,0.574,0.927,1.623,0.927c1.828,0,2.275-1.656,2.275-3.17
			c0-1.538-0.524-3.091-2.122-3.091c-1.1,0-1.482,0.678-1.802,1.044v-1.044l-2.251,0.313v0.287c0.499,0,0.959,0.118,0.959,1.044
			v5.587c0,0.913-0.217,1.147-0.959,1.147V33.848z"/>
		<path fill="#FFFFFF" d="M188.765,31.025c0.755,0,0.959-0.234,0.959-1.135v-3.064c0-0.926-0.46-1.044-0.959-1.044v-0.287
			l2.25-0.313v4.708c0,0.9,0.204,1.135,0.959,1.135v0.288h-3.209V31.025z M189.596,23.305c0-0.457,0.346-0.809,0.793-0.809
			s0.806,0.352,0.806,0.809c0,0.469-0.358,0.821-0.806,0.821S189.596,23.773,189.596,23.305z"/>
		<path fill="#FFFFFF" d="M192.306,31.025c0.741,0,0.959-0.234,0.959-1.135v-3.064c0-0.926-0.461-1.044-0.959-1.044v-0.287
			l2.25-0.313v1.513h0.025c0.217-0.587,0.69-1.513,1.738-1.513c0.294,0,0.69,0.248,0.69,0.678c0,0.457-0.32,0.73-0.69,0.73
			c-0.46,0-0.37-0.3-0.792-0.3c-0.396,0-0.972,0.796-0.972,2.139v1.461c0,0.9,0.218,1.135,0.958,1.135v0.288h-3.208V31.025z"/>
		<path fill="#FFFFFF" d="M200.64,29.213c0,0.952-0.486,1.486-1.214,1.486c-0.536,0-0.806-0.417-0.806-0.926
			c0-1.227,1.533-1.304,2.02-1.317V29.213z M203.004,30.883c-0.165,0.052-0.331,0.117-0.498,0.117c-0.422,0-0.575-0.287-0.575-1.083
			v-2.596c0-1.486-0.511-2.139-2.121-2.139c-1.049,0-2.339,0.404-2.339,1.344c0,0.456,0.37,0.665,0.728,0.665
			c1.164,0,0.295-1.565,1.561-1.565c0.881,0,0.881,0.991,0.881,1.695v0.652c-0.793,0.039-3.412,0.156-3.412,1.982
			c0,0.849,0.791,1.487,1.674,1.487c0.945,0,1.495-0.601,1.751-0.887c0.09,0.431,0.243,0.887,1.011,0.887
			c0.536,0,0.907-0.092,1.341-0.235V30.883z"/>
		<path fill="#FFFFFF" d="M206.75,31.3c-0.23,0.091-0.486,0.144-0.729,0.144c-1.124,0-2.069-0.183-2.069-1.709v-3.887h-1.036v-0.365
			c1.509,0,1.893-1.344,1.956-2.335h0.37v2.165h1.662v0.535h-1.662v3.887c0,0.874,0.371,1.122,1.035,1.122
			c0.167,0,0.32-0.025,0.474-0.078V31.3z"/>
		<path fill="#FFFFFF" d="M207.439,31.025c0.755,0,0.959-0.234,0.959-1.135v-3.064c0-0.926-0.46-1.044-0.959-1.044v-0.287
			l2.25-0.313v4.708c0,0.9,0.204,1.135,0.959,1.135v0.288h-3.209V31.025z M208.271,23.305c0-0.457,0.345-0.809,0.792-0.809
			s0.806,0.352,0.806,0.809c0,0.469-0.358,0.821-0.806,0.821S208.271,23.773,208.271,23.305z"/>
		<path fill="#FFFFFF" d="M212.681,28.313c0-1.383,0.231-2.687,1.342-2.687c1.112,0,1.344,1.304,1.344,2.687S215.135,31,214.022,31
			C212.912,31,212.681,29.695,212.681,28.313z M214.022,31.443c1.854,0,2.736-1.018,2.736-3.131c0-2.112-0.882-3.13-2.736-3.13
			c-1.853,0-2.734,1.018-2.734,3.13C211.288,30.426,212.17,31.443,214.022,31.443z"/>
		<path fill="#FFFFFF" d="M217.296,31.025c0.741,0,0.958-0.234,0.958-1.135v-3.064c0-0.926-0.46-1.044-0.958-1.044v-0.287
			l2.25-0.313v1.539h0.024c0.295-0.535,0.883-1.539,2.097-1.539c1.304,0,1.547,0.743,1.547,1.735v2.973
			c0,0.9,0.218,1.135,0.959,1.135v0.288h-3.208v-0.288c0.74,0,0.958-0.234,0.958-1.135v-1.917c0-1.578-0.191-1.996-0.818-1.996
			c-0.741,0-1.559,1.357-1.559,2.166v1.747c0,0.9,0.217,1.135,0.959,1.135v0.288h-3.209V31.025z"/>
	</g>
	<g>
		<rect x="234.406" y="35.656" fill="#FFFFFF" width="3.348" height="21.718"/>
		<path fill="#FFFFFF" d="M213.865,39.231h-3.1c0.252-1.359,0.208-2.266,0.208-2.266H200.45V40h6.69
			c-0.23,1.148-1.625,4.989-7.803,7.198l2.078,2.437c4.888-1.725,7.281-4.788,8.45-7.463h3.999v1.696h-4.006v2.94h4.006v2.469
			c-0.876-0.505-1.892-0.793-2.975-0.793c-3.292,0-5.962,2.669-5.962,5.961c0,3.294,2.67,5.963,5.962,5.963
			c3.293,0,5.963-2.669,5.963-5.963c0-1.894-0.884-3.581-2.261-4.673h2.621V35.656h-3.349V39.231z M210.891,57.374
			c-1.491,0-2.701-1.311-2.701-2.929c0-1.616,1.21-2.927,2.701-2.927c1.492,0,2.701,1.311,2.701,2.927
			C213.592,56.063,212.383,57.374,210.891,57.374z"/>
		<polygon fill="#FFFFFF" points="252.957,52.167 252.957,48.131 258.653,48.131 258.653,45.097 247.263,45.097 247.263,40 
			258.653,40 258.653,36.966 243.819,36.966 243.819,48.131 249.515,48.131 249.515,52.167 240.829,52.167 240.829,55.202 
			261.644,55.202 261.644,52.167 		"/>
		<polygon fill="#FFFFFF" points="170.792,42.813 168.181,42.813 168.181,45.126 161.594,45.126 161.594,47.429 177.38,47.429 
			177.38,45.126 170.792,45.126 		"/>
		<path fill="#FFFFFF" d="M189.608,47.263c-0.727,0.065-3.051,0.256-5.665,0.256h-5.167v2.222h4.03l0,0
			c3.747-0.008,6.088-0.244,6.802-0.328v3.618h2.538V36.091h-2.538V47.263z"/>
		<path fill="#FFFFFF" d="M151.74,39.123h-1.551c0.047-0.663,0.061-1.356,0.043-2.079h-5.926v2.239h3.487
			c-0.096,1.484-0.612,4.886-4.673,7.456l1.672,1.728c2.817-1.743,4.419-4.055,5.082-7.105h1.866v2.239h-2.375v2.238h2.375v6.908
			h2.35V36.279h-2.35V39.123z"/>
		<rect x="155.11" y="36.091" fill="#FFFFFF" width="2.398" height="16.939"/>
		<polygon fill="#FFFFFF" points="163.706,51.224 172.517,51.224 172.517,55.202 175.057,55.202 175.057,48.922 163.706,48.922 		
			"/>
		<polygon fill="#FFFFFF" points="136.111,40.457 133.93,40.457 133.93,42.723 136.111,42.723 136.111,52.747 138.461,52.747 
			138.461,36.279 136.111,36.279 		"/>
		<rect x="139.481" y="36.091" fill="#FFFFFF" width="2.398" height="16.939"/>
		<path fill="#FFFFFF" d="M221.274,36.966V40h6.699c-0.218,1.623-1.022,6.357-7.868,9.318l2.298,2.374
			c10.019-4.162,9.394-14.727,9.394-14.727H221.274z"/>
		<path fill="#FFFFFF" d="M183.652,45.722c2.565,0,4.644-2.08,4.644-4.646c0-2.564-2.078-4.644-4.644-4.644
			s-4.645,2.079-4.645,4.644C179.008,43.642,181.087,45.722,183.652,45.722z M183.652,38.674c1.184,0,2.144,1.076,2.144,2.402
			c0,1.328-0.96,2.403-2.144,2.403c-1.185,0-2.145-1.075-2.145-2.403C181.508,39.75,182.468,38.674,183.652,38.674z"/>
		<path fill="#FFFFFF" d="M132.769,39.698v-2.915h-2.54v2.915c0,4.866-3.235,7.096-3.235,7.096l1.674,1.673
			c0,0,1.883-1.349,2.839-3.4c0.986,1.959,2.977,3.213,2.977,3.213l1.345-1.762C135.829,46.518,132.769,44.72,132.769,39.698z"/>
		<path fill="#FFFFFF" d="M169.486,39.807c1.872,2.646,5.26,3.853,5.26,3.853l1.282-1.929c0,0-5.188-1.946-5.188-5.488v-0.274
			h-2.706v0.274c0,3.542-5.188,5.488-5.188,5.488l1.282,1.929C164.228,43.659,167.615,42.452,169.486,39.807z"/>
	</g>
	<path fill="#F99D33" d="M117.222,59.545l-0.44-2.714c-5.802,2.223-11.731,4.107-17.754,5.646
		C105.137,61.764,111.208,60.785,117.222,59.545z"/>
	<path fill="#8DC63F" d="M72.701,63.89l-4.344-51.037l1.086,54.294c10.017-0.631,19.923-2.203,29.584-4.67
		C90.313,63.493,81.52,63.969,72.701,63.89z"/>
	<path fill="#0066B3" d="M99.027,62.477c6.023-1.538,11.952-3.423,17.754-5.646l-6.075-37.463
		c-14.271-1.154-28.426-3.336-42.35-6.516l4.344,51.037C81.52,63.969,90.313,63.493,99.027,62.477z"/>
	<g>
		
			<radialGradient id="SVGID_1_" cx="-2100.0918" cy="-3167.9219" r="3835.6238" gradientTransform="matrix(0.012 0 0 0.012 126.0582 67.1235)" gradientUnits="userSpaceOnUse">
			<stop  offset="0" style="stop-color:#00B9F2"/>
			<stop  offset="1" style="stop-color:#0072BC"/>
		</radialGradient>
		<path fill="url(#SVGID_1_)" d="M68.375,13.07l4.325,50.819c8.819,0.079,17.612-0.396,26.327-1.413
			c6.008-1.534,11.922-3.414,17.709-5.629C110.995,28.59,92.215,18.26,68.375,13.07z"/>
	</g>
	<path fill="#FFFFFF" d="M104.065,32.82c-0.09,0.063-0.136,0.17-0.141,0.307l0,0l0,0l0,0l-2.228-1.579l0,0l0,0l0,0
		c-0.082-0.488-0.432-1.135-0.995-1.768l0,0l0,0l0,0c-0.936-1.049-2.164-1.729-2.777-1.525l0,0l0,0l0,0
		c-0.447,0.151-0.461,0.728-0.091,1.458l0,0l0,0l0,0l-0.888-0.149l0,0l0,0l0,0l-2.282-3.439l0,0l0,0l0,0
		c0.05-0.002,0.099-0.006,0.144-0.016l0,0l0,0l0,0c0.509-0.113,0.374-0.814-0.275-1.556l0,0l0,0l0,0
		c-0.645-0.732-1.586-1.27-2.124-1.203l0,0l0,0l0,0c-0.213,0.025-0.333,0.141-0.363,0.318l0,0l0,0l0,0l-3.877-2.216l0,0l0,0l0,0
		c-0.052-0.342-0.27-0.764-0.652-1.214l0,0l0,0l0,0c-0.874-1.026-2.344-1.872-3.333-1.9l0,0l0,0l0,0
		c-1.041-0.03-1.188,0.848-0.264,1.976l0,0l0,0l0,0c0.942,1.15,2.566,2.037,3.556,1.961l0,0l0,0l0,0
		c0.005,0.001,0.011-0.001,0.016-0.004l0,0l0,0l0,0l2.07,2.268l0,0l0,0l0,0l-4.484-1.478l0,0l0,0l0,0
		c-0.017-0.028-0.038-0.056-0.06-0.082l0,0l0,0l0,0c-0.407-0.502-1.117-0.883-1.593-0.852l0,0l0,0l0,0
		c-0.025,0.003-0.049,0.005-0.072,0.011l0,0l0,0l0,0l-3.108-2.583l0,0l0,0l0,0c0.264-0.273,0.189-0.767-0.258-1.325l0,0l0,0l0,0
		c-0.668-0.835-1.957-1.548-2.916-1.605l0,0l0,0l0,0c-1.001-0.061-1.29,0.608-0.597,1.507l0,0l0,0l0,0
		c0.705,0.913,2.108,1.661,3.083,1.653l0,0l0,0l0,0c0.124-0.001,0.231-0.015,0.329-0.037l0,0l0,0l0,0l1.325,1.1l0,0l0,0l0,0
		l0.833,2.874l0,0l0,0l0,0c-0.153-0.023-0.301-0.029-0.439-0.016l0,0l0,0l0,0c-0.851,0.084-1.016,0.875-0.329,1.773l0,0l0,0l0,0
		c0.694,0.908,1.961,1.53,2.784,1.379l0,0l0,0l0,0c0.544-0.101,0.747-0.52,0.603-1.041l0,0l0,0l0,0l2.988,0.631l0,0l0,0l0,0
		l0.216,1.441l0,0l0,0l0,0c-0.173-0.049-0.339-0.063-0.479-0.03l0,0l0,0l0,0c-0.29,0.065-0.406,0.303-0.346,0.615l0,0l0,0l0,0
		l-5.87-1.063l0,0l0,0l0,0c-0.116-0.271-0.279-0.551-0.489-0.83l0,0l0,0l0,0c-1.121-1.488-3.275-2.548-4.929-2.386l0,0l0,0l0,0
		c-1.775,0.172-2.37,1.678-1.179,3.383l0,0l0,0l0,0c0.387,0.553,0.911,1.047,1.502,1.45l0,0l0,0l0,0l-0.834,1.251l0,0l0,0l0,0
		c-0.831-0.407-1.775-0.583-2.612-0.414l0,0l0,0l0,0c-1.607,0.323-2.216,1.799-1.244,3.307l0,0l0,0l0,0
		c0.994,1.539,3.164,2.382,4.723,1.877l0,0l0,0l0,0c1.465-0.473,1.81-1.966,0.864-3.325l0,0l0,0l0,0
		c-0.277-0.401-0.639-0.748-1.044-1.036l0,0l0,0l0,0c0.266-0.412,0.541-0.849,0.806-1.263l0,0l0,0l0,0
		c1.11,0.587,2.319,0.835,3.266,0.609l0,0l0,0l0,0c1.12-0.268,1.565-1.126,1.332-2.134l0,0l0,0l0,0
		c0.96,0.166,2.007,0.349,2.984,0.518l0,0l0,0l0,0l0.23,1.581l0,0l0,0l0,0c-0.26-0.045-0.511-0.042-0.735,0.016l0,0l0,0l0,0
		c-0.894,0.235-1.025,1.278-0.243,2.331l0,0l0,0l0,0c0.794,1.07,2.178,1.679,3.033,1.355l0,0l0,0l0,0
		c0.196-0.074,0.344-0.19,0.45-0.338l0,0l0,0l0,0l1.967,1.267l0,0l0,0l0,0c-0.078,0.656-0.283,2.382-0.4,3.366l0,0l0,0l0,0
		c-0.191-0.046-0.374-0.034-0.522,0.043l0,0l0,0l0,0c-0.151,0.076-0.246,0.21-0.284,0.376l0,0l0,0l0,0
		c-0.34-0.104-0.736-0.224-1.097-0.334l0,0l0,0l0,0c-0.047-0.128-0.116-0.258-0.211-0.384l0,0l0,0l0,0
		c-0.398-0.545-1.074-0.824-1.519-0.626l0,0l0,0l0,0c-0.454,0.206-0.5,0.834-0.09,1.406l0,0l0,0l0,0
		c0.414,0.573,1.118,0.854,1.565,0.62l0,0l0,0l0,0c0.162-0.082,0.266-0.224,0.311-0.398l0,0l0,0l0,0l1.109,0.332l0,0l0,0l0,0
		c0.052,0.13,0.12,0.261,0.214,0.388l0,0l0,0l0,0c0.349,0.475,0.878,0.733,1.27,0.66l0,0l0,0l0,0l2.362,2.553l0,0l0,0l0,0
		l-0.446,0.094l0,0l0,0l0,0c-0.006-0.009-0.011-0.015-0.017-0.023l0,0l0,0l0,0c-0.426-0.574-1.086-0.83-1.482-0.57l0,0l0,0l0,0
		c-0.364,0.239-0.387,0.83-0.077,1.388l0,0l0,0l0,0l-0.685,0.613l0,0l0,0l0,0c-0.609-0.585-1.406-0.788-1.946-0.436l0,0l0,0l0,0
		c-0.666,0.436-0.703,1.555-0.051,2.493l0,0l0,0l0,0c0.662,0.955,1.747,1.312,2.388,0.807l0,0l0,0l0,0
		c0.581-0.46,0.58-1.474,0.05-2.325l0,0l0,0l0,0c0.232-0.215,0.47-0.438,0.675-0.627l0,0l0,0l0,0
		c0.398,0.341,0.869,0.452,1.177,0.252l0,0l0,0l0,0l2.216,2.129l0,0l0,0l0,0c-0.497,1.336-0.082,3.45,1.223,5.261l0,0l0,0l0,0
		c1.711,2.37,4.073,3.061,5.134,1.588l0,0l0,0l0,0c0.676-0.939,0.624-2.519,0.027-4.038l0,0l0,0l0,0l3.579-0.777l0,0l0,0l0,0
		l1.055,4.183l0,0l0,0l0,0c-0.417-0.05-0.777,0.097-1.009,0.473l0,0l0,0l0,0c-0.605,0.983-0.113,3.159,1.151,4.834l0,0l0,0l0,0
		c1.292,1.709,2.788,2.104,3.282,0.908l0,0l0,0l0,0c0.465-1.128-0.153-3.241-1.334-4.74l0,0l0,0l0,0
		c-0.456-0.577-0.938-0.995-1.387-1.238l0,0l0,0l0,0l-1.19-4.539l0,0l0,0l0,0l2.929-0.637l0,0l0,0l0,0
		c0.188,0.294,0.399,0.59,0.631,0.868l0,0l0,0l0,0c1.437,1.746,3.004,2.333,3.437,1.334l0,0l0,0l0,0
		c0.409-0.94-0.36-2.928-1.66-4.449l0,0l0,0l0,0c-1.272-1.491-2.703-2.119-3.238-1.388l0,0l0,0l0,0
		c-0.097,0.132-0.158,0.3-0.188,0.497l0,0l0,0l0,0l-1.021-0.847l0,0l0,0l0,0l0.599-3.696l0,0l0,0l0,0
		c0.619,0.468,1.191,0.615,1.436,0.32l0,0l0,0l0,0c0.334-0.405-0.066-1.475-0.868-2.39l0,0l0,0l0,0
		c-0.398-0.455-0.828-0.794-1.207-0.983l0,0l0,0l0,0l-2.002-4.311l0,0l0,0l0,0c0.368,0.26,0.726,0.514,1.05,0.742l0,0l0,0l0,0
		c0.094,0.374,0.373,0.864,0.797,1.343l0,0l0,0l0,0c0.744,0.839,1.619,1.288,1.927,1.003l0,0l0,0l0,0
		c0.297-0.276-0.049-1.139-0.754-1.924l0,0l0,0l0,0C105.229,33.048,104.402,32.6,104.065,32.82z M79.196,19.324
		c-0.696-0.003-1.688-0.533-2.188-1.178l0,0l0,0l0,0c-0.495-0.639-0.301-1.121,0.408-1.085l0,0l0,0l0,0
		c0.689,0.035,1.622,0.551,2.103,1.155l0,0l0,0l0,0c0.302,0.378,0.365,0.711,0.213,0.911l0,0l0,0l0,0
		c-0.076,0.095-0.199,0.159-0.368,0.185l0,0l0,0l0,0C79.31,19.32,79.253,19.324,79.196,19.324z M76.252,31.91
		c0.679,0.986,0.41,2.052-0.652,2.378l0,0l0,0l0,0c-1.114,0.34-2.638-0.265-3.341-1.342l0,0l0,0l0,0
		c-0.694-1.063-0.29-2.124,0.849-2.371l0,0l0,0l0,0c0.559-0.121,1.205-0.019,1.782,0.236l0,0l0,0l0,0
		c0.249,0.11,0.485,0.248,0.699,0.412l0,0l0,0l0,0C75.845,31.419,76.073,31.649,76.252,31.91z M80.349,27.729
		c0.119,0.682-0.224,1.244-0.996,1.41l0,0l0,0l0,0c-0.643,0.14-1.44-0.022-2.181-0.397l0,0l0,0l0,0
		c-0.225-0.11-0.439-0.242-0.646-0.391l0,0l0,0l0,0c-0.37-0.267-0.699-0.584-0.95-0.937l0,0l0,0l0,0
		c-0.836-1.184-0.456-2.252,0.776-2.396l0,0l0,0l0,0c1.172-0.136,2.727,0.617,3.526,1.691l0,0l0,0l0,0
		c0.133,0.176,0.236,0.354,0.313,0.522l0,0l0,0l0,0C80.269,27.403,80.322,27.569,80.349,27.729z M86.207,38.751
		c-0.293,0.148-0.758-0.035-1.028-0.411l0,0l0,0l0,0c-0.271-0.375-0.243-0.79,0.056-0.927l0,0l0,0l0,0
		c0.292-0.135,0.742,0.052,1.005,0.413l0,0l0,0l0,0c0.036,0.044,0.064,0.093,0.088,0.136l0,0l0,0l0,0
		c0.12,0.228,0.133,0.457,0.049,0.62l0,0l0,0l0,0C86.338,38.653,86.282,38.712,86.207,38.751z M107.321,58.017
		c-0.361,0.825-1.419,0.535-2.329-0.662l0,0l0,0l0,0c-0.897-1.179-1.265-2.732-0.845-3.451l0,0l0,0l0,0
		c0.145-0.247,0.366-0.363,0.625-0.363l0,0l0,0l0,0c0.215,0,0.458,0.082,0.714,0.236l0,0l0,0l0,0
		c0.294,0.181,0.604,0.461,0.898,0.837l0,0l0,0l0,0C107.237,55.703,107.669,57.224,107.321,58.017z M98.348,29.799
		c-0.227-0.48-0.211-0.861,0.083-0.968l0,0l0,0l0,0c0.43-0.156,1.306,0.328,1.975,1.08l0,0l0,0l0,0
		c0.385,0.434,0.626,0.875,0.692,1.215l0,0l0,0l0,0c0.02,0.095,0.024,0.185,0.015,0.262l0,0l0,0l0,0
		c-0.02,0.129-0.079,0.229-0.186,0.284l0,0l0,0l0,0c-0.248,0.129-0.682,0.002-1.149-0.3l0,0l0,0l0,0
		c-0.126-0.081-0.25-0.174-0.378-0.28l0,0l0,0l0,0c-0.179-0.149-0.357-0.321-0.521-0.511l0,0l0,0l0,0
		c-0.085-0.098-0.163-0.192-0.233-0.288l0,0l0,0l0,0C98.521,30.121,98.424,29.955,98.348,29.799z M98.131,30.211
		c0.117,0.17,0.251,0.346,0.401,0.521l0,0l0,0l0,0c0.261,0.3,0.544,0.569,0.831,0.8l0,0l0,0l0,0
		c-0.064,0.78-0.144,1.726-0.203,2.438l0,0l0,0l0,0c-0.453-0.277-0.887-0.384-1.159-0.234l0,0l0,0l0,0
		c-0.183,0.1-0.266,0.3-0.255,0.561l0,0l0,0l0,0c-0.563-0.288-1.206-0.614-1.718-0.875l0,0l0,0l0,0
		c-0.067-0.192-0.191-0.405-0.364-0.613l0,0l0,0l0,0c-0.379-0.456-0.889-0.755-1.257-0.765l0,0l0,0l0,0
		c-0.369-0.477-0.786-1.02-1.013-1.315l0,0l0,0l0,0c0.094-0.119,0.189-0.237,0.283-0.352l0,0l0,0l0,0
		c0.656,0.506,1.36,0.757,1.782,0.588l0,0l0,0l0,0c0.379-0.151,0.426-0.606,0.194-1.148l0,0l0,0l0,0
		C96.41,29.936,97.345,30.086,98.131,30.211z M100.893,41.844c-0.046-0.051-0.092-0.104-0.138-0.16l0,0l0,0l0,0
		c-0.033-0.041-0.065-0.082-0.097-0.123l0,0l0,0l0,0c-0.137-0.183-0.251-0.367-0.342-0.55l0,0l0,0l0,0
		c-0.307-0.616-0.347-1.185-0.059-1.426l0,0l0,0l0,0c0.094-0.079,0.216-0.114,0.357-0.113l0,0l0,0l0,0
		c0.164,0.002,0.356,0.059,0.555,0.163l0,0l0,0l0,0c0.305,0.155,0.634,0.422,0.929,0.777l0,0l0,0l0,0
		c0.428,0.514,0.684,1.09,0.712,1.532l0,0l0,0l0,0c0.009,0.148-0.004,0.283-0.047,0.394l0,0l0,0l0,0
		c-0.026,0.063-0.062,0.117-0.103,0.164l0,0l0,0l0,0c-0.271,0.289-0.826,0.153-1.379-0.289l0,0l0,0l0,0
		C101.15,42.105,101.019,41.982,100.893,41.844z M99.793,39.022c-0.428,0.34-0.359,1.186,0.118,2.093l0,0l0,0l0,0l-0.729,0.188l0,0
		l0,0l0,0c-0.374-0.563-1.067-1.601-1.666-2.5l0,0l0,0l0,0c0.013-0.007,0.023-0.012,0.035-0.019l0,0l0,0l0,0
		c0.53-0.384,0.319-1.448-0.443-2.377l0,0l0,0l0,0c-0.132-0.161-0.276-0.311-0.42-0.442l0,0l0,0l0,0
		c0.167-0.648,0.354-1.364,0.423-1.628l0,0l0,0l0,0l0.711,0.359l0,0l0,0l0,0c0.106,0.332,0.317,0.714,0.625,1.083l0,0l0,0l0,0
		c0.354,0.424,0.767,0.753,1.149,0.942l0,0l0,0l0,0l0.799,2.159l0,0l0,0l0,0C100.157,38.854,99.951,38.896,99.793,39.022z
		 M93.516,36.764c0.117,0.148,0.186,0.305,0.205,0.441l0,0l0,0l0,0c0.021,0.147-0.017,0.271-0.12,0.332l0,0l0,0l0,0
		c-0.086,0.05-0.203,0.049-0.325,0.007l0,0l0,0l0,0c-0.167-0.055-0.351-0.185-0.491-0.365l0,0l0,0l0,0
		c-0.009-0.011-0.017-0.021-0.024-0.032l0,0l0,0l0,0c-0.044-0.058-0.079-0.12-0.108-0.18l0,0l0,0l0,0
		c-0.119-0.247-0.105-0.476,0.056-0.563l0,0l0,0l0,0c0.012-0.006,0.025-0.008,0.039-0.014l0,0l0,0l0,0
		c0.035-0.011,0.073-0.019,0.116-0.018l0,0l0,0l0,0c0.13,0.002,0.285,0.065,0.429,0.175l0,0l0,0l0,0
		c0.075,0.057,0.146,0.125,0.21,0.202l0,0l0,0l0,0C93.504,36.756,93.511,36.757,93.516,36.764z M93.249,36.252
		c-0.139-0.915-0.409-2.713-0.572-3.8l0,0l0,0l0,0c0.195,0.059,0.372,0.064,0.511,0.008l0,0l0,0l0,0
		c0.381-0.162,0.31-0.741-0.145-1.297l0,0l0,0l0,0c0.052-0.065,0.108-0.131,0.163-0.201l0,0l0,0l0,0l0.899,1.174l0,0l0,0l0,0
		c-0.26,0.209-0.159,0.747,0.272,1.274l0,0l0,0l0,0c0.478,0.585,1.162,0.912,1.513,0.729l0,0l0,0l0,0
		c0.12-0.062,0.185-0.174,0.198-0.32l0,0l0,0l0,0l0.555,0.28l0,0l0,0l0,0l-0.416,1.507l0,0l0,0l0,0
		c-0.554-0.364-1.123-0.502-1.492-0.303l0,0l0,0l0,0c-0.41,0.22-0.469,0.799-0.204,1.468l0,0l0,0l0,0
		c-0.275-0.005-0.545-0.012-0.767-0.016l0,0l0,0l0,0c-0.023-0.032-0.042-0.065-0.066-0.096l0,0l0,0l0,0
		C93.564,36.492,93.408,36.354,93.249,36.252z M91.85,31.601c-0.123-0.15-0.199-0.301-0.235-0.437l0,0l0,0l0,0
		c-0.037-0.146-0.024-0.268,0.043-0.351l0,0l0,0l0,0c0.029-0.037,0.067-0.068,0.118-0.086l0,0l0,0l0,0
		c0.144-0.05,0.346-0.004,0.548,0.108l0,0l0,0l0,0c0.174,0.094,0.346,0.233,0.487,0.405l0,0l0,0l0,0
		c0.029,0.036,0.055,0.074,0.081,0.108l0,0l0,0l0,0c0.232,0.342,0.25,0.671,0.016,0.768l0,0l0,0l0,0
		c-0.079,0.031-0.177,0.029-0.283,0.005l0,0l0,0l0,0c-0.125-0.025-0.262-0.088-0.394-0.175l0,0l0,0l0,0
		C92.095,31.855,91.962,31.738,91.85,31.601z M95.673,33.241c0.068,0.155,0.088,0.294,0.059,0.398l0,0l0,0l0,0
		c-0.019,0.071-0.059,0.126-0.123,0.159l0,0l0,0l0,0c-0.239,0.119-0.696-0.103-1.014-0.492l0,0l0,0l0,0
		c-0.267-0.324-0.347-0.656-0.22-0.818l0,0l0,0l0,0c0.025-0.029,0.052-0.057,0.091-0.074l0,0l0,0l0,0
		c0.059-0.026,0.13-0.032,0.209-0.02l0,0l0,0l0,0c0.24,0.032,0.55,0.225,0.787,0.508l0,0l0,0l0,0
		C95.556,33.018,95.625,33.133,95.673,33.241z M95.184,37.224c-0.096-0.151-0.167-0.299-0.222-0.441l0,0l0,0l0,0
		c-0.165-0.455-0.12-0.847,0.16-1.003l0,0l0,0l0,0c0.25-0.141,0.627-0.062,1.008,0.17l0,0l0,0l0,0
		c0.158,0.097,0.317,0.218,0.465,0.361l0,0l0,0l0,0c0.085,0.083,0.165,0.17,0.243,0.264l0,0l0,0l0,0
		c0.543,0.665,0.69,1.418,0.322,1.698l0,0l0,0l0,0c-0.003,0.003-0.01,0.008-0.014,0.012l0,0l0,0l0,0
		c-0.093,0.063-0.204,0.093-0.331,0.093l0,0l0,0l0,0c-0.426-0.002-1.002-0.337-1.443-0.886l0,0l0,0l0,0
		C95.303,37.402,95.24,37.313,95.184,37.224z M99.846,34.893c0.506,0.596,0.679,1.256,0.372,1.472l0,0l0,0l0,0
		c-0.07,0.049-0.161,0.069-0.261,0.065l0,0l0,0l0,0c-0.156-0.004-0.341-0.063-0.536-0.174l0,0l0,0l0,0
		c-0.249-0.14-0.507-0.356-0.734-0.629l0,0l0,0l0,0c-0.203-0.241-0.347-0.487-0.428-0.711l0,0l0,0l0,0
		c-0.054-0.148-0.083-0.284-0.08-0.4l0,0l0,0l0,0c0.001-0.163,0.059-0.291,0.177-0.357l0,0l0,0l0,0
		c0.185-0.104,0.473-0.045,0.777,0.128l0,0l0,0l0,0c0.139,0.078,0.279,0.182,0.419,0.303l0,0l0,0l0,0
		C99.651,34.679,99.751,34.783,99.846,34.893z M93.282,29.581c-0.469-0.563-0.586-1.109-0.328-1.33l0,0l0,0l0,0
		c0.042-0.035,0.091-0.064,0.151-0.079l0,0l0,0l0,0c0.017-0.006,0.032-0.008,0.05-0.011l0,0l0,0l0,0
		c0.437-0.08,1.167,0.316,1.673,0.914l0,0l0,0l0,0c0.044,0.052,0.082,0.102,0.121,0.153l0,0l0,0l0,0
		c0.134,0.181,0.232,0.36,0.292,0.522l0,0l0,0l0,0c0.13,0.355,0.079,0.645-0.18,0.744l0,0l0,0l0,0
		c-0.283,0.106-0.744-0.047-1.185-0.363l0,0l0,0l0,0c-0.191-0.138-0.372-0.3-0.538-0.487l0,0l0,0l0,0
		C93.321,29.623,93.301,29.604,93.282,29.581z M92.743,23.732c0.385-0.052,1.064,0.335,1.528,0.866l0,0l0,0l0,0
		c0.469,0.534,0.56,1.034,0.188,1.109l0,0l0,0l0,0c-0.02,0.005-0.042,0.008-0.064,0.01l0,0l0,0l0,0
		c-0.086,0.008-0.19-0.008-0.302-0.042l0,0l0,0l0,0c-0.379-0.113-0.854-0.432-1.207-0.842l0,0l0,0l0,0
		c-0.173-0.199-0.292-0.393-0.353-0.562l0,0l0,0l0,0c-0.052-0.137-0.061-0.255-0.035-0.347l0,0l0,0l0,0
		C92.529,23.822,92.609,23.751,92.743,23.732z M84.492,20.302c-0.651-0.787-0.563-1.412,0.161-1.401l0,0l0,0l0,0
		c0.698,0.01,1.752,0.61,2.375,1.347l0,0l0,0l0,0c0.251,0.3,0.399,0.577,0.447,0.811l0,0l0,0l0,0
		c0.025,0.125,0.022,0.24-0.014,0.335l0,0l0,0l0,0c-0.044,0.115-0.135,0.201-0.274,0.248l0,0l0,0l0,0
		c-0.062,0.021-0.129,0.035-0.209,0.04l0,0l0,0l0,0c-0.009,0.001-0.019,0-0.028,0l0,0l0,0l0,0
		C86.251,21.706,85.141,21.091,84.492,20.302z M88.16,21.791l3.917,2.224l0,0l0,0l0,0c0.074,0.252,0.247,0.554,0.518,0.871l0,0l0,0
		l0,0c0.519,0.603,1.225,1.066,1.768,1.198l0,0l0,0l0,0l2.258,3.426l0,0l0,0l0,0l-1.26-0.212l0,0l0,0l0,0
		c-0.073-0.104-0.155-0.212-0.244-0.317l0,0l0,0l0,0c-0.72-0.846-1.765-1.404-2.368-1.263l0,0l0,0l0,0l-5.026-5.491l0,0l0,0l0,0
		C87.964,22.151,88.11,21.999,88.16,21.791z M83.71,22.432c0.293-0.001,0.696,0.208,0.963,0.494l0,0l0,0l0,0
		c0.023,0.024,0.05,0.05,0.07,0.078l0,0l0,0l0,0c0.133,0.164,0.194,0.321,0.187,0.442l0,0l0,0l0,0
		c-0.008,0.129-0.094,0.219-0.256,0.236l0,0l0,0l0,0c-0.32,0.035-0.815-0.225-1.097-0.575l0,0l0,0l0,0
		c-0.137-0.17-0.193-0.328-0.183-0.449l0,0l0,0l0,0c0.013-0.13,0.104-0.218,0.273-0.229l0,0l0,0l0,0
		C83.681,22.429,83.695,22.432,83.71,22.432z M84.163,25.711c0.076,0.354-0.079,0.631-0.457,0.695l0,0l0,0l0,0
		c-0.59,0.101-1.492-0.345-1.988-0.99l0,0l0,0l0,0c-0.492-0.642-0.382-1.211,0.223-1.278l0,0l0,0l0,0
		c0.071-0.008,0.146-0.009,0.224-0.002l0,0l0,0l0,0c0.218,0.016,0.457,0.087,0.693,0.197l0,0l0,0l0,0
		c0.375,0.176,0.74,0.451,1.001,0.782l0,0l0,0l0,0c0.063,0.082,0.119,0.163,0.163,0.242l0,0l0,0l0,0
		C84.092,25.479,84.14,25.601,84.163,25.711z M84.517,25.466c-0.07-0.133-0.158-0.269-0.266-0.405l0,0l0,0l0,0
		c-0.391-0.494-0.955-0.902-1.519-1.14l0,0l0,0l0,0l-0.729-2.417l0,0l0,0l0,0l1.032,0.856l0,0l0,0l0,0
		c-0.073,0.188,0.004,0.467,0.246,0.771l0,0l0,0l0,0c0.423,0.53,1.164,0.918,1.643,0.861l0,0l0,0l0,0
		c0.268-0.029,0.395-0.195,0.374-0.428l0,0l0,0l0,0l2.023,0.649l0,0l0,0l0,0l0.284,1.914l0,0l0,0l0,0L84.517,25.466z M87.688,24.334
		l2.391,0.77l0,0l0,0l0,0l2.466,2.7l0,0l0,0l0,0c-0.413,0.279-0.267,1.067,0.413,1.884l0,0l0,0l0,0
		c0.056,0.067,0.114,0.135,0.173,0.198l0,0l0,0l0,0l-0.651,0.767l0,0l0,0l0,0c-0.351-0.233-0.722-0.345-0.978-0.26l0,0l0,0l0,0
		c-0.104,0.034-0.179,0.103-0.225,0.188l0,0l0,0l0,0l-1.914-1.173l0,0l0,0l0,0c-0.023-0.22-0.137-0.473-0.345-0.731l0,0l0,0l0,0
		c-0.208-0.259-0.476-0.473-0.747-0.623l0,0l0,0l0,0L87.688,24.334z M87.654,28.194c0.078-0.018,0.164-0.017,0.256,0.001l0,0l0,0
		l0,0c0.132,0.026,0.274,0.085,0.412,0.171l0,0l0,0l0,0c0.159,0.098,0.312,0.226,0.436,0.38l0,0l0,0l0,0
		c0.118,0.146,0.189,0.293,0.219,0.424l0,0l0,0l0,0c0.031,0.142,0.006,0.258-0.071,0.338l0,0l0,0l0,0
		c-0.036,0.036-0.079,0.067-0.137,0.083l0,0l0,0l0,0c-0.307,0.087-0.815-0.161-1.128-0.554l0,0l0,0l0,0
		c-0.01-0.015-0.019-0.029-0.03-0.045l0,0l0,0l0,0c-0.117-0.162-0.182-0.318-0.191-0.45l0,0l0,0l0,0
		C87.409,28.369,87.485,28.235,87.654,28.194z M86.203,33.172c-0.617,0.223-1.599-0.217-2.166-0.977l0,0l0,0l0,0
		c-0.56-0.749-0.477-1.5,0.157-1.677l0,0l0,0l0,0c0.132-0.034,0.274-0.044,0.425-0.028l0,0l0,0l0,0
		c0.245,0.023,0.508,0.107,0.763,0.242l0,0l0,0l0,0c0.331,0.176,0.651,0.437,0.895,0.753l0,0l0,0l0,0
		c0.258,0.338,0.389,0.683,0.391,0.975l0,0l0,0l0,0c0.004,0.213-0.059,0.398-0.186,0.537l0,0l0,0l0,0
		C86.408,33.069,86.315,33.13,86.203,33.172z M87.232,32.825c0.028-0.432-0.154-0.956-0.548-1.468l0,0l0,0l0,0
		c-0.375-0.484-0.874-0.872-1.382-1.115l0,0l0,0l0,0c-0.101-0.623-0.209-1.291-0.274-1.7l0,0l0,0l0,0
		c0.864,0.152,1.637,0.285,2.205,0.385l0,0l0,0l0,0c0.039,0.061,0.083,0.122,0.131,0.185l0,0l0,0l0,0
		c0.465,0.592,1.229,0.961,1.684,0.825l0,0l0,0l0,0c0.117-0.034,0.201-0.1,0.254-0.188l0,0l0,0l0,0
		c0.598,0.364,1.337,0.817,1.934,1.182l0,0l0,0l0,0c0.034,0.226,0.158,0.493,0.373,0.761l0,0l0,0l0,0
		c0.194,0.241,0.432,0.443,0.671,0.582l0,0l0,0l0,0l0.542,3.805l0,0l0,0l0,0c-0.127-0.021-0.247-0.015-0.339,0.035l0,0l0,0l0,0
		c-0.03,0.014-0.054,0.036-0.074,0.056l0,0l0,0l0,0C91.204,35.392,88.859,33.878,87.232,32.825z M88.345,39.28
		c-0.032-0.044-0.061-0.092-0.086-0.136l0,0l0,0l0,0c-0.124-0.225-0.146-0.455-0.071-0.614l0,0l0,0l0,0
		c0.037-0.067,0.086-0.122,0.155-0.16l0,0l0,0l0,0c0.071-0.037,0.152-0.048,0.238-0.046l0,0l0,0l0,0
		c0.2,0.014,0.425,0.129,0.608,0.315l0,0l0,0l0,0c0.035,0.038,0.07,0.077,0.101,0.121l0,0l0,0l0,0
		c0.128,0.17,0.194,0.35,0.206,0.509l0,0l0,0l0,0c0.009,0.174-0.05,0.324-0.183,0.4l0,0l0,0l0,0
		c-0.081,0.047-0.179,0.058-0.282,0.047l0,0l0,0l0,0C88.796,39.69,88.531,39.532,88.345,39.28z M89.824,39.627
		c0.058-0.286-0.041-0.657-0.297-0.997l0,0l0,0l0,0c-0.091-0.122-0.193-0.227-0.306-0.318l0,0l0,0l0,0l0.349-3.327l0,0l0,0l0,0
		l2.732,1.758l0,0l0,0l0,0c0.046,0.174,0.141,0.363,0.284,0.546l0,0l0,0l0,0c0.025,0.035,0.057,0.064,0.087,0.098l0,0l0,0l0,0
		l-0.482,1.322l0,0l0,0l0,0c-0.401-0.226-0.814-0.282-1.108-0.115l0,0l0,0l0,0c-0.502,0.291-0.461,1.146,0.112,1.907l0,0l0,0l0,0
		c0.541,0.718,1.34,1.068,1.838,0.841l0,0l0,0l0,0l0.291,0.335l0,0l0,0l0,0c-0.057,0.17-0.045,0.385,0.027,0.615l0,0l0,0l0,0
		l-0.895,0.188l0,0l0,0l0,0L89.824,39.627z M93.854,42.702c-0.118-0.153-0.188-0.317-0.219-0.471l0,0l0,0l0,0
		c-0.017-0.075-0.024-0.149-0.014-0.215l0,0l0,0l0,0c0.01-0.111,0.053-0.206,0.134-0.264l0,0l0,0l0,0
		c0.049-0.037,0.11-0.056,0.176-0.06l0,0l0,0l0,0c0.216-0.012,0.494,0.142,0.703,0.414l0,0l0,0l0,0
		c0.271,0.353,0.326,0.778,0.116,0.946l0,0l0,0l0,0c-0.2,0.158-0.561,0.031-0.833-0.279l0,0l0,0l0,0
		C93.895,42.751,93.872,42.728,93.854,42.702z M92.679,39.555c0.276,0.357,0.376,0.758,0.288,1.033l0,0l0,0l0,0
		c-0.032,0.102-0.089,0.188-0.176,0.246l0,0l0,0l0,0c-0.043,0.028-0.091,0.049-0.145,0.063l0,0l0,0l0,0
		c-0.333,0.085-0.815-0.147-1.15-0.59l0,0l0,0l0,0c-0.383-0.506-0.417-1.082-0.083-1.28l0,0l0,0l0,0
		c0.175-0.104,0.411-0.086,0.65,0.024l0,0l0,0l0,0c0.189,0.086,0.379,0.229,0.543,0.419l0,0l0,0l0,0
		C92.632,39.498,92.657,39.524,92.679,39.555z M90.375,43.822c-0.106-0.073-0.207-0.17-0.295-0.288l0,0l0,0l0,0
		c-0.055-0.075-0.098-0.153-0.133-0.234l0,0l0,0l0,0c-0.145-0.33-0.115-0.662,0.1-0.807l0,0l0,0l0,0
		c0.24-0.162,0.635-0.026,0.918,0.3l0,0l0,0l0,0c0.021,0.024,0.043,0.047,0.063,0.074l0,0l0,0l0,0
		c0.12,0.163,0.191,0.339,0.217,0.503l0,0l0,0l0,0c0.007,0.043,0.012,0.084,0.012,0.127l0,0l0,0l0,0
		c0.001,0.17-0.053,0.32-0.173,0.408l0,0l0,0l0,0c-0.036,0.027-0.074,0.046-0.115,0.058l0,0l0,0l0,0
		C90.795,44.021,90.579,43.964,90.375,43.822z M89.019,46.444c-0.43,0.329-1.151,0.086-1.59-0.542l0,0l0,0l0,0
		c-0.44-0.627-0.423-1.378,0.019-1.675l0,0l0,0l0,0c0.338-0.229,0.833-0.124,1.231,0.211l0,0l0,0l0,0
		c0.113,0.097,0.22,0.207,0.313,0.339l0,0l0,0l0,0c0.047,0.066,0.091,0.137,0.129,0.209l0,0l0,0l0,0
		C89.418,45.54,89.391,46.159,89.019,46.444z M91.603,43.827c0.024-0.16,0.01-0.341-0.043-0.527l0,0l0,0l0,0
		c0.627-0.14,1.472-0.329,2.072-0.463l0,0l0,0l0,0c0.004,0.008,0.007,0.018,0.013,0.026l0,0l0,0l0,0
		c0.424,0.556,1.037,0.793,1.361,0.528l0,0l0,0l0,0c0.317-0.26,0.232-0.901-0.178-1.437l0,0l0,0l0,0
		c-0.355-0.461-0.855-0.703-1.192-0.6l0,0l0,0l0,0c-0.093-0.109-0.191-0.219-0.287-0.33l0,0l0,0l0,0
		c0.198-0.41,0.054-1.067-0.394-1.646l0,0l0,0l0,0c-0.071-0.095-0.147-0.178-0.227-0.259l0,0l0,0l0,0
		c0.07-0.202,0.147-0.42,0.221-0.636l0,0l0,0l0,0l1.085,0.673l0,0l0,0l0,0c0.037,0.22,0.146,0.47,0.329,0.706l0,0l0,0l0,0
		c0.395,0.504,0.958,0.742,1.254,0.526l0,0l0,0l0,0c0.287-0.21,0.203-0.775-0.182-1.261l0,0l0,0l0,0
		c-0.379-0.482-0.928-0.719-1.225-0.53l0,0l0,0l0,0c-0.062,0.039-0.104,0.097-0.136,0.163l0,0l0,0l0,0l-1.004-0.625l0,0l0,0l0,0
		c0.042-0.122,0.083-0.24,0.121-0.35l0,0l0,0l0,0c0.244,0.118,0.481,0.146,0.645,0.046l0,0l0,0l0,0
		c0.182-0.109,0.224-0.351,0.151-0.625l0,0l0,0l0,0l0.766,0.01l0,0l0,0l0,0c0.091,0.155,0.196,0.31,0.318,0.463l0,0l0,0l0,0
		c0.646,0.808,1.505,1.289,2.101,1.234l0,0l0,0l0,0l1.646,2.483l0,0l0,0l0,0l-0.862,0.221l0,0l0,0l0,0
		c-0.011-0.014-0.021-0.031-0.033-0.045l0,0l0,0l0,0c-0.553-0.695-1.313-1.017-1.707-0.716l0,0l0,0l0,0
		c-0.405,0.312-0.281,1.164,0.294,1.902l0,0l0,0l0,0c0.122,0.16,0.258,0.3,0.397,0.417l0,0l0,0l0,0
		c-0.032,0.66-0.073,1.5-0.114,2.338l0,0l0,0l0,0c-0.997-0.521-1.995-0.56-2.679,0.034l0,0l0,0l0,0
		c-0.126,0.107-0.233,0.234-0.326,0.375l0,0l0,0l0,0C92.989,45.159,92.188,44.389,91.603,43.827z M94.352,39.354
		c-0.045-0.161-0.036-0.307,0.036-0.396l0,0l0,0l0,0c0.017-0.023,0.035-0.041,0.06-0.057l0,0l0,0l0,0
		c0.194-0.128,0.558,0.027,0.812,0.351l0,0l0,0l0,0c0.254,0.32,0.307,0.694,0.116,0.831l0,0l0,0l0,0
		c-0.194,0.138-0.565-0.018-0.824-0.35l0,0l0,0l0,0C94.455,39.608,94.386,39.478,94.352,39.354z M97.699,41.76
		c0.138,0.172,0.235,0.357,0.298,0.532l0,0l0,0l0,0c0.107,0.311,0.092,0.598-0.07,0.742l0,0l0,0l0,0
		c-0.113,0.099-0.275,0.112-0.457,0.061l0,0l0,0l0,0c-0.176-0.053-0.365-0.171-0.542-0.342l0,0l0,0l0,0
		c-0.061-0.06-0.123-0.124-0.176-0.195l0,0l0,0l0,0c-0.387-0.492-0.473-1.065-0.205-1.277l0,0l0,0l0,0
		c0.251-0.198,0.731-0.007,1.098,0.419l0,0l0,0l0,0C97.663,41.722,97.683,41.737,97.699,41.76z M99.119,49.408
		c0.359,1.033,0.354,2.069-0.118,2.681l0,0l0,0l0,0c-0.761,0.983-2.395,0.479-3.575-1.139l0,0l0,0l0,0
		c-0.882-1.211-1.205-2.635-0.925-3.589l0,0l0,0l0,0c0.056-0.193,0.139-0.367,0.244-0.514l0,0l0,0l0,0
		c0.055-0.078,0.112-0.148,0.18-0.214l0,0l0,0l0,0c0.458-0.424,1.133-0.428,1.816-0.104l0,0l0,0l0,0
		c0.197,0.094,0.394,0.217,0.59,0.361l0,0l0,0l0,0c0.328,0.244,0.648,0.561,0.944,0.946l0,0l0,0l0,0
		c0.143,0.188,0.272,0.383,0.388,0.582l0,0l0,0l0,0C98.853,48.74,99.004,49.074,99.119,49.408z M106.854,44.896
		c0.369-0.542,1.392-0.102,2.306,0.976l0,0l0,0l0,0c0.929,1.092,1.456,2.498,1.151,3.144l0,0l0,0l0,0
		c-0.318,0.675-1.41,0.256-2.405-0.948l0,0l0,0l0,0c-0.131-0.157-0.252-0.318-0.366-0.484l0,0l0,0l0,0
		c-0.179-0.266-0.333-0.533-0.457-0.8l0,0l0,0l0,0c-0.198-0.418-0.321-0.817-0.356-1.155l0,0l0,0l0,0
		c-0.018-0.157-0.012-0.299,0.01-0.427l0,0l0,0l0,0C106.762,45.084,106.796,44.977,106.854,44.896z M106.526,46.891l-7.074,1.374
		l0,0l0,0l0,0c-0.19-0.345-0.409-0.678-0.655-0.998l0,0l0,0l0,0c-0.446-0.58-0.935-1.047-1.43-1.398l0,0l0,0l0,0
		c0.031-0.878,0.062-1.72,0.086-2.349l0,0l0,0l0,0c0.323,0.134,0.623,0.127,0.816-0.053l0,0l0,0l0,0
		c0.263-0.242,0.257-0.741,0.034-1.259l0,0l0,0l0,0c0.566-0.156,1.319-0.362,1.952-0.537l0,0l0,0l0,0
		c0.067,0.095,0.136,0.191,0.214,0.284l0,0l0,0l0,0c0.086,0.109,0.176,0.208,0.27,0.307l0,0l0,0l0,0l-0.855,2.33l0,0l0,0l0,0
		c-0.308-0.211-0.618-0.26-0.795-0.083l0,0l0,0l0,0c-0.264,0.264-0.14,0.925,0.287,1.47l0,0l0,0l0,0
		c0.429,0.55,0.989,0.762,1.243,0.473l0,0l0,0l0,0c0.245-0.281,0.102-0.936-0.314-1.46l0,0l0,0l0,0l0.829-2.358l0,0l0,0l0,0
		c0.806,0.683,1.631,0.895,2.017,0.462l0,0l0,0l0,0c0.074-0.083,0.124-0.187,0.16-0.304l0,0l0,0l0,0
		c0.801,0.664,1.766,1.463,2.646,2.194l0,0l0,0l0,0C105.984,45.524,106.184,46.192,106.526,46.891z M100.15,45.15
		c0.025,0.031,0.046,0.063,0.067,0.094l0,0l0,0l0,0c0.221,0.328,0.286,0.703,0.137,0.87l0,0l0,0l0,0
		c-0.168,0.188-0.533,0.047-0.814-0.311l0,0l0,0l0,0c-0.28-0.357-0.367-0.793-0.192-0.969l0,0l0,0l0,0
		c0.1-0.102,0.268-0.092,0.443,0.003l0,0l0,0l0,0C99.913,44.905,100.036,45.009,100.15,45.15z M106.555,39.844
		c-0.169,0.192-0.54,0.107-0.948-0.18l0,0l0,0l0,0c-0.177-0.122-0.36-0.287-0.538-0.479l0,0l0,0l0,0
		c-0.025-0.029-0.052-0.056-0.077-0.085l0,0l0,0l0,0c-0.597-0.694-0.847-1.462-0.569-1.714l0,0l0,0l0,0
		c0.065-0.06,0.159-0.085,0.266-0.078l0,0l0,0l0,0c0.132,0.008,0.285,0.061,0.452,0.154l0,0l0,0l0,0
		c0.254,0.14,0.538,0.37,0.8,0.671l0,0l0,0l0,0C106.519,38.793,106.798,39.562,106.555,39.844z M104.465,36.817
		c-0.186-0.029-0.346-0.003-0.457,0.092l0,0l0,0l0,0c-0.395,0.344-0.055,1.416,0.784,2.396l0,0l0,0l0,0
		c0.069,0.08,0.141,0.155,0.211,0.229l0,0l0,0l0,0c-0.211,1.166-0.544,3.005-0.665,3.676l0,0l0,0l0,0l-0.985-0.814l0,0l0,0l0,0
		c-0.018-0.628-0.384-1.474-1.005-2.217l0,0l0,0l0,0c-0.447-0.534-0.948-0.928-1.404-1.137l0,0l0,0l0,0l-0.814-2.146l0,0l0,0l0,0
		c0.183,0.021,0.339-0.006,0.455-0.092l0,0l0,0l0,0c0.42-0.307,0.174-1.225-0.526-2.045l0,0l0,0l0,0
		c-0.154-0.184-0.32-0.344-0.489-0.485l0,0l0,0l0,0c0.055-0.764,0.122-1.71,0.176-2.459l0,0l0,0l0,0
		c0.697,0.47,1.353,0.668,1.713,0.465l0,0l0,0l0,0c0.161-0.092,0.242-0.254,0.255-0.463l0,0l0,0l0,0
		c0.22,0.155,0.448,0.316,0.679,0.48l0,0l0,0l0,0C102.642,32.839,103.705,35.158,104.465,36.817z M106.301,35.321
		c-0.223,0.198-0.843-0.123-1.372-0.717l0,0l0,0l0,0c-0.283-0.318-0.478-0.649-0.558-0.909l0,0l0,0l0,0
		c-0.032-0.106-0.044-0.2-0.037-0.278l0,0l0,0l0,0c0.007-0.084,0.039-0.147,0.095-0.188l0,0l0,0l0,0
		c0.239-0.165,0.836,0.157,1.342,0.717l0,0l0,0l0,0C106.277,34.511,106.522,35.129,106.301,35.321z"/>
</g>
</svg>
