<?xml version="1.0" encoding="utf-8"?>
<!-- Generator: Adobe Illustrator 16.0.0, SVG Export Plug-In . SVG Version: 6.00 Build 0)  -->
<!DOCTYPE svg PUBLIC "-//W3C//DTD SVG 1.1//EN" "http://www.w3.org/Graphics/SVG/1.1/DTD/svg11.dtd">
<svg version="1.1" id="zoneLogoIncheon" xmlns="http://www.w3.org/2000/svg" xmlns:xlink="http://www.w3.org/1999/xlink" x="0px"
	 y="0px" width="330px" height="80px" viewBox="0 0 330 80" enable-background="new 0 0 330 80" xml:space="preserve">
<g>
	<g>
		<g>
			<path fill="#005CB9" d="M82.676,49.48c4.755,3.209,12.212,4.326,19.167,0.496c-4.285,7.25-12.909,11.228-21.546,9.239
				c-10.69-2.456-17.363-13.119-14.902-23.803c2.373-10.334,12.413-16.915,22.733-15.118c0,0,4.048,0.705,6.13,4.284
				c0.784,1.291,1.408,2.792,1.816,4.486l0.009,0.039c0.49,2.264,0.497,4.667-0.058,7.074c-0.853,3.716-2.95,7.189-5.678,9.054
				l-0.015,0.017c0.946-0.982,1.645-2.226,1.974-3.643c0.961-4.178-1.646-8.344-5.821-9.3c-4.173-0.963-8.339,1.646-9.301,5.82
				c-0.28,1.209-0.315,2.409-0.085,3.535C77.098,41.66,77.832,46.371,82.676,49.48z"/>
			<path fill="#00AFAA" d="M80.979,46.678c1.785,1,3.93,1.448,3.93,1.448c4.868,1.118,9.754-0.098,13.462-2.882l0.024-0.021
				c1.654-1.172,3.117-2.667,4.292-4.466c0.751-1.15,1.34-2.359,1.772-3.604c0.548,4.954-0.496,7.754-0.496,7.754
				c-1.372,1.634-2.804,2.629-2.804,2.629c-3.695,2.729-8.465,3.802-13.293,2.694C87.866,50.229,83.693,49.352,80.979,46.678z"/>
			<path fill="#00AFAA" d="M85.853,47.545c7.611,0.61,14.758-4.911,16.523-11.86c0,0,0.534-2.193,0.55-3.816
				c0,0-1.584-4.151-5.895-7.626c1.673,3.291,2.243,7.157,1.353,11.03c-1.353,5.87-5.719,10.267-11.091,11.923
				c-0.45,0.138-0.958,0.263-1.448,0.34L85.853,47.545z"/>
		</g>
	</g>
	<g>
		<polygon fill="#FFFFFF" points="137.415,28.156 137.415,42.475 134.135,42.475 134.135,28.156 137.415,28.156 		"/>
		<polygon fill="#FFFFFF" points="245.884,28.15 245.884,52.172 242.604,52.172 242.604,28.15 245.884,28.15 		"/>
		<polygon fill="#FFFFFF" points="160.548,28.143 160.548,32.732 155.761,32.732 155.761,35.531 160.548,35.531 160.548,42.475 
			163.828,42.475 163.828,28.143 160.548,28.143 		"/>
		<polygon fill="#FFFFFF" points="155.596,41.146 150.213,32.007 154.759,32.007 154.759,29.208 149.805,29.208 149.805,27.321 
			146.523,27.321 146.523,29.208 141.585,29.208 141.585,32.007 146.097,32.007 140.714,41.146 144.259,41.146 148.154,34.533 
			152.05,41.146 155.596,41.146 		"/>
		<polygon fill="#FFFFFF" points="241.242,45.188 232.879,28.941 232.848,28.941 229.242,28.941 229.208,28.941 220.843,45.188 
			224.483,45.188 231.045,32.442 237.604,45.188 241.242,45.188 		"/>
		<polygon fill="#FFFFFF" points="197.002,43.205 197.002,46.002 215.491,46.002 215.491,52.109 218.77,52.109 218.762,43.207 
			197.002,43.205 		"/>
		<polygon fill="#FFFFFF" points="119.816,43.695 116.536,43.695 116.536,51.571 137.568,51.572 137.568,48.775 119.816,48.775 
			119.816,43.695 		"/>
		<polygon fill="#FFFFFF" points="163.693,48.775 145.619,48.775 145.619,43.695 142.335,43.695 142.335,51.572 163.693,51.572 
			163.693,48.775 		"/>
		<polygon fill="#FFFFFF" points="210.354,28.304 210.354,31.109 215.491,31.109 215.491,35.677 210.354,35.677 210.354,38.477 
			215.491,38.477 215.491,41.874 218.77,41.874 218.77,28.304 210.354,28.304 		"/>
		<polygon fill="#FFFFFF" points="187.237,28.312 187.248,41.737 190.525,41.737 190.525,31.113 192.834,31.113 192.834,28.304 
			187.237,28.312 		"/>
		<polygon fill="#FFFFFF" points="167.811,31.359 180.441,31.359 180.441,37.588 175.174,37.588 175.174,33.53 171.892,33.53 
			171.892,37.588 167.232,37.588 167.232,40.385 183.718,40.38 183.718,28.559 167.811,28.564 167.811,31.359 		"/>
		<path fill="#FFFFFF" d="M121.409,28.196c-3.776,0-6.836,3.064-6.836,6.841c0,3.773,3.061,6.838,6.836,6.838
			c3.778,0,6.843-3.065,6.843-6.838C128.251,31.26,125.187,28.196,121.409,28.196z M121.409,38.857c-2.108,0-3.82-1.712-3.82-3.819
			c0-2.11,1.711-3.821,3.82-3.821c2.111,0,3.822,1.711,3.822,3.821C125.231,37.146,123.52,38.857,121.409,38.857z"/>
		<path fill="#FFFFFF" d="M202.091,27.851c-3.776,0-6.84,3.063-6.84,6.842c0,3.776,3.063,6.838,6.84,6.838
			c3.775,0,6.838-3.063,6.838-6.838C208.929,30.914,205.866,27.851,202.091,27.851z M202.091,38.513
			c-2.111,0-3.823-1.712-3.823-3.82c0-2.111,1.712-3.821,3.823-3.821c2.104,0,3.817,1.709,3.817,3.821
			C205.908,36.801,204.195,38.513,202.091,38.513z"/>
		<path fill="#FFFFFF" d="M184.888,38.658c-3.779,0-6.836,3.061-6.836,6.84c0,3.775,3.057,6.838,6.836,6.838
			c3.778,0,6.84-3.063,6.84-6.838C191.728,41.719,188.666,38.658,184.888,38.658z M184.888,49.315c-2.11,0-3.819-1.711-3.819-3.817
			c0-2.111,1.709-3.821,3.819-3.821c2.113,0,3.822,1.71,3.822,3.821C188.71,47.604,187.001,49.315,184.888,49.315z"/>
	</g>
</g>
</svg>
