<?xml version="1.0" encoding="utf-8"?>
<!-- Generator: Adobe Illustrator 16.0.0, SVG Export Plug-In . SVG Version: 6.00 Build 0)  -->
<!DOCTYPE svg PUBLIC "-//W3C//DTD SVG 1.1//EN" "http://www.w3.org/Graphics/SVG/1.1/DTD/svg11.dtd">
<svg version="1.1" id="zoneLogoJeju" xmlns="http://www.w3.org/2000/svg" xmlns:xlink="http://www.w3.org/1999/xlink" x="0px"
	 y="0px" width="330px" height="80px" viewBox="0 0 330 80" enable-background="new 0 0 330 80" xml:space="preserve">
<g>
	<g>
		<g>
			<path fill="#F58220" d="M88.967,21.683c-0.044-0.037-0.09-0.065-0.148-0.074c-0.225-0.046-0.448,0.116-0.79,0.389l-0.264,0.198
				c-0.931,0.495-1.641,2.819-1.799,3.773c-0.029,0.014-0.049,0.028-0.099,0.053c-0.573-0.986-1.617-1.903-2.707-2.042
				c0.432,1.651,1.886,6.64,3.821,6.208c0.983-0.219,3.035-4.356,3.056-6.637c0-0.03,0-0.057,0-0.083
				C90.021,22.26,89.464,21.83,88.967,21.683z"/>
		</g>
		<path fill="#00AA7E" d="M102.017,47.088c-2.426,0.101-3.231-0.03-5.608,0.75c-0.333,0.104-0.622,0.322-0.889,0.626
			c0.039,0.5-0.261,1.293,0.205,1.481c0.025,0.004,0.022,0.077,0.046,0.119c0.137,0.137,0.28,0.155,0.419,0.332
			c0.09,0.127,0.164-0.013,0.257,0.039c0.044,0.046,0.067,0.125,0.114,0.134c0.233,0.11,0.449,0.067,0.679,0.179
			c0.119,0.097,0.236,0.075,0.353,0.095c0.071-0.029,0.162,0.137,0.187,0.181c0.442,0.183,0.849,0.018,1.295,0.01
			c1.347-0.02,1.093-0.154,2.439-0.175c1.133-0.016,2.236,0.157,3.369,0.138c0.614-0.021,1.28,0,1.893-0.042
			c1.084-0.063,2.169,0.105,3.256,0.117c0.543-0.012,1.173,0.198,1.72,0.24c0.591,0,1.149-0.148,1.748-0.031
			c0.187,0.016,0.377-0.013,0.569,0.077c0.173,0.089,0.37,0.177,0.533,0.19c0.525,0.038,0.983-0.157,1.49-0.348
			c0.3-0.091,0.604-0.143,0.877-0.315c0.138-0.063,0.267-0.282,0.32-0.505c0.141-0.405,0.254-0.852,0.106-1.313
			c-0.026-0.002-0.097,0.03-0.121-0.01c-0.053-0.079-0.039-0.266-0.115-0.272c-0.217-0.087-0.429-0.106-0.646-0.156
			c-0.288-0.062-0.58-0.195-0.867-0.252C114.301,48.053,106.618,46.894,102.017,47.088z"/>
		<path fill="#007AC1" d="M78.53,47.976c0.246,0.054,0.522,0.048,0.655,0.208c0.132,0.127-0.13,0.338-0.114,0.505
			c-0.006,0.399,0.145,0.761,0.139,1.163c0.008,0.064-0.026,0.13-0.101,0.203c-0.069,0.099-0.18,0.206-0.293,0.275
			c-0.337,0.217-0.782,0.132-1.172,0.243c-0.501,0.156-1.054,0.212-1.564,0.266c-0.944,0.096-1.838-0.104-2.794-0.133
			c-0.362-0.019-0.753,0.029-1.061,0.143c-0.43,0.115-0.866,0.098-1.306,0.08c-2.273-0.08-4.502-0.128-6.766-0.111
			c-0.396,0.016-0.83,0.067-1.227,0.081c-1.819,0.102-3.634,0.071-5.454,0.119c-0.636,0.016-1.269,0.032-1.905,0.018
			c-0.357,0.008-0.714,0.015-1.03,0.024c-1.344,0.067-2.727,0.131-4.077,0.075c-0.516,0.006-1.068,0.012-1.586,0.014
			c-1.502,0.08-3.034,0.328-4.548,0.242c-1.114-0.062-2.159-0.313-3.181-0.838c-0.695-0.359-1.238-0.857-1.631-1.455
			c0.259-0.336,0.65-0.471,1.081-0.574c1.012-0.278,1.956-0.451,2.975-0.624c0.864-0.145,1.654-0.216,2.484-0.291
			c10.891-0.972,23.091-0.612,27.851-0.292C75.503,47.423,76.992,47.634,78.53,47.976z"/>
		<path fill="#FFFFFF" d="M98.176,37.799c0,0.061,0,0.061,0,0.124c0.096,0.248,0.29,0.311,0.483,0.497c0.197,0,0.438,0,0.632,0
			c0-0.124,0.145,0,0.145-0.124c0.146,0,0.361-0.063,0.464-0.248c0.054,0,0.054,0,0.103,0c0.105-0.189,0.261-0.316,0.469-0.316
			c0.26-0.31,0.519-0.621,0.779-0.932c0-0.126,0.051-0.249,0.155-0.313c0.157-0.559,0.26-1.182,0.521-1.745
			c0-0.185,0.103-0.435,0.052-0.622c0.05,0,0.102,0,0.102-0.061c-0.052-0.252,0.102-0.376,0.208-0.5c0.104,0,0.205,0,0.259-0.125
			c0-0.062,0-0.062,0-0.123c0.259,0,0.552,0.187,0.756,0.433c0.137,0,0.205,0,0.342,0c0,0.128,0.069,0.128,0.137,0.19
			c0.272,0,0.873-0.062,1.149,0.06c0,0.187,0.272,0.125,0.341,0.313c0.067,0.187,0.067,0.373,0.206,0.561
			c0,0.061,0,0.123-0.07,0.188c0.137,0.185,0.272,0.497,0.07,0.682c0.067,0.25,0,0.563,0.135,0.813
			c-0.135,0.123-0.068,0.311-0.068,0.436c0.135,0.248,0.135,0.56,0.207,0.872c0.271,0.311,0.205,0.687,0.41,0.997
			c0,0.126,0,0.25,0,0.371c0.135,0,0,0.189,0.135,0.189c0.068,0.376-0.135,0.812-0.135,1.187c-0.07,0.06-0.14,0.125-0.206,0.186
			c0,0.06,0,0.06,0,0.123c-0.07,0-0.137,0-0.137-0.063c-0.139,0.188-0.341,0.313-0.479,0.501c-0.136-0.062-0.204,0.062-0.273,0.062
			c-0.135,0,0,0.187-0.135,0.187c-0.139,0-0.276,0.062-0.344,0.123c-0.137,0.063-0.601-0.062-0.737,0.063l-0.068-0.063
			c-0.068,0.063-0.137,0.127-0.274,0.127c0-0.063,0-0.127-0.067-0.127c-0.07,0.187-0.368,0.313-0.546,0.249
			c-0.06-0.122-0.036-0.215-0.191-0.271c-0.052-0.396-0.052-0.734-0.26-1.069c0.05,0,0.05-0.058,0.05-0.113
			c-0.05-0.168-0.153-0.337-0.153-0.506c-0.158-0.227-0.208-0.562-0.414-0.73c0.052-0.057-0.106-0.114-0.055-0.169
			c-0.101-0.112-0.154-0.168-0.259-0.281c-0.102,0-0.102,0.057-0.154,0.112c-0.053,0.281-0.313,0.506-0.366,0.788l-0.049-0.056
			c-0.053,0.168-0.208,0.281-0.208,0.451c-0.104,0.054-0.158,0.224-0.257,0.279c0,0.057,0,0.057,0,0.112
			c-0.365,0.337-0.563,0.882-0.998,1.119c-0.108,0.234-0.383,0.28-0.49,0.544c-0.165,0-0.421,0.065-0.624,0.131
			c-0.137-0.065-0.34-0.2-0.475-0.065c0-0.065-0.07-0.065-0.135-0.065l-0.067,0.065c-0.137-0.135-0.337,0-0.542-0.065
			c-0.41-0.33-0.883-0.461-1.356-0.723c-0.138,0,0-0.198-0.138-0.198c-0.068,0-0.132,0-0.202-0.063c0-0.196,0.069-0.327-0.136-0.458
			l0.068-0.066c0-0.063-0.068-0.063-0.134-0.063c-0.069-0.396-0.272-0.723-0.338-1.115c-0.072-0.065-0.072-0.065-0.137-0.132
			c0-0.196-0.067-0.392-0.138-0.524c-0.067-0.262,0.169-0.48,0.037-0.731c0-0.059,0-0.124,0.067-0.185
			c-0.067-0.313,0-0.5,0.064-0.811c-0.064,0-0.064-0.06-0.064-0.124c0.128-0.248,0.128-0.5,0.128-0.749
			c0.063-0.187,0.192-0.372,0.256-0.561l-0.064-0.062c0.129-0.125,0.064-0.311,0.26-0.436c0-0.063,0-0.124-0.064-0.124
			c0-0.127,0.129-0.188,0.192-0.25c0.065-0.125,0.316-0.615,0.471-0.71l-0.049-0.074c0.112-0.161,0.404-0.227,0.632-0.249
			c0.174-0.015,0.504,0.154,0.601,0.208c0.073,0.148,0.005,0.264,0.1,0.451c0.05,0,0.05,0,0.098,0c0,0.063,0,0.063,0,0.126
			c0,0.063,0.047,0.063,0.095,0.063c0.049,0.186,0.147,0.371,0.097,0.56c0,0.062,0.05,0.062,0.1,0.062
			c-0.05,0.125,0.096,0.25,0.096,0.375c-0.096,0.122,0,0.312-0.05,0.499c0.146,0.311,0.1,0.685,0.242,0.996
			C97.98,37.359,98.078,37.61,98.176,37.799z"/>
		<path fill="#FFFFFF" d="M73.125,40.107c0,0,0.253,0.167,0.32,0.286c0.068,0.121,0.201,0.272,0.296,0.31
			c0.13,0.054,0.264,0.128,0.264,0.128l0.085,0.175l0.211,0.195c0.223,0.067,0.269-0.064,0.439,0.168c0.074,0,0.148,0,0.148,0.066
			l0.075-0.066c0.074,0.132,0.224,0.199,0.299,0.267c0.224,0,0.415,0.081,0.567,0.212c0.072,0,0.083,0.153,0.083,0.088
			c0.229,0.06,0.382,0.212,0.533,0.077c0.073,0,0.148,0,0.148,0.065l0.072-0.065c0.151-0.063,0.184,0.113,0.333,0.048
			c0.076,0,0.076,0.065,0.076,0.131c0.072,0,0.072,0,0.147,0c0.15,0.133,0.786-0.043,0.935,0.092
			c0.844,0.107,2.221-0.088,2.221-0.088c0.006-0.129,0.213,0.01,0.22-0.119l0.069,0.065c0.282,0.08,0.58-0.244,0.861-0.106
			c0.074-0.058,0.074-0.058,0.149-0.119c0.143-0.056,0.348,0.208,0.499,0.025c-0.004,0.063,0.067,0.067,0.138,0.071
			c0.004-0.063,0.004-0.063,0.006-0.129c0.221-0.115,0.491-0.089,0.653-0.262c0.072,0.008,0.212,0.021,0.284,0.031
			c0.078-0.056,0.078-0.056,0.156-0.113c0.37-0.089,0.692-0.379,1.112-0.475c0.065-0.071,0.208-0.083,0.269-0.217
			c0.068-0.01,0.142-0.014,0.214-0.02c0.063-0.067,0.13-0.138,0.192-0.208c0.222,0.043,0.413-0.255,0.623-0.287
			c-0.01-0.061-0.02-0.127,0.048-0.137l0.082,0.053c0.132-0.087,0.132-0.087,0.181-0.222c0.221,0.028,0.341-0.243,0.459-0.391
			c0.072-0.009,0.072-0.009,0.141-0.019c0.06-0.074,0.06-0.074,0.12-0.15c0.071-0.009,0.071-0.009,0.144-0.023
			c0.189-0.159,0.298-0.366,0.568-0.475c-0.009-0.062-0.022-0.125,0.05-0.138c0.152,0.042,0.119-0.147,0.178-0.221
			c0.062-0.043,0.25-0.176,0.299-0.116c-0.01,0.106,0.183-0.268,0.175-0.166c0.05,0.061,0.294-0.577,0.352-0.62l-0.594-1.549
			c-0.22,0.309-0.998,1.326-1.415,1.421c0.007,0.325-0.357,0.341-0.604,0.528c0.013,0.061,0.031,0.124-0.041,0.141
			c-0.209,0.048-0.299,0.279-0.437,0.309c-0.016-0.061-0.085-0.044-0.156-0.029c-0.054,0.078-0.191,0.108-0.232,0.25
			c-0.209,0.047-0.271,0.254-0.392,0.398l-0.08-0.049c-0.251,0.23-0.615,0.207-0.788,0.489c-0.404,0.189-0.749,0.255-1.167,0.41
			c-0.071,0.006-0.142,0.01-0.146-0.055c-0.063,0.131-0.355,0.025-0.417,0.155c-0.432,0.03-0.791-0.013-1.212,0.081
			c-0.011-0.125-0.217,0.014-0.224-0.111c-0.351,0.15-0.706-0.048-1.064-0.048c-0.071-0.065-0.213-0.065-0.285-0.19
			c-0.356,0.063-0.572,0-0.787-0.19c-0.214,0-0.358-0.192-0.571-0.256c0-0.063,0-0.063,0-0.125c-0.07-0.064-0.07-0.064-0.144-0.125
			c0-0.191,0.214-0.191,0.357-0.256c0.144-0.189,0.53-0.145,0.671-0.336c0-0.063,0.193-0.187,0.193-0.25
			c0.071-0.128,0.12-0.25,0.191-0.25c0.216-0.126,0.074-0.274,0.361-0.336c0-0.065,0.225-0.22,0.151-0.286
			c0.287-0.188,0.28-0.298,0.353-0.68c0.142-0.187,0.353-0.396,0.353-0.651c0.071-0.062-0.017-0.338,0.127-0.402
			c0.071-0.442-0.113-0.679-0.113-1.123c-0.073-0.063-0.073-0.063-0.145-0.125c0-0.193-0.143-0.318-0.07-0.508
			c-0.213-0.191-0.162-0.251-0.377-0.441l-0.123-0.129c-0.071,0-0.071,0-0.144,0c-0.071-0.128-0.285-0.189-0.285-0.319
			c-0.286-0.062-0.572-0.251-0.855-0.379l-0.074,0.064l-0.072-0.064c-0.071,0.064-0.071,0.064-0.144,0.128
			c0-0.193-0.213,0-0.283-0.128c-0.146,0-0.289-0.065-0.43,0.064c-0.429-0.129-0.892,0.094-1.321-0.094
			c0,0.126-0.286-0.065-0.286,0.126c-0.143,0.062-0.351,0.058-0.42,0.117c-0.072,0-0.145,0-0.215,0
			c-0.217,0.191-0.395,0.415-0.821,0.415c-0.143,0,0,0.188-0.143,0.188c-0.073,0-0.073,0-0.143,0
			c-0.358,0.318-0.643,0.7-1.071,0.953c0,0.064-0.145,0.126-0.072,0.254c0,0.065-0.072,0.065-0.145,0.065
			c0,0.124-0.07,0.188-0.142,0.252c0,0.064,0,0.127,0.072,0.127c0,0.064-0.108,0.224-0.18,0.224c-0.07,0.254-0.07,0.511-0.285,0.636
			c0,0.507-0.149,0.751-0.183,1.31c0.05,0.294,0.075,0.744,0.075,1.007c0.223,0.135-0.055,0.126,0.094,0.325
			c0.074,0,0.035,0.113,0.035,0.181c0.074,0.131,0.312,0.228,0.235,0.362c0,0.065,0.125,0.125,0.199,0.125
			c0.076,0.132-0.109,0.278,0.041,0.344c0,0.065,0.238,0.015,0.162,0.146L73.125,40.107z M77.783,35.975
			c-0.144,0.067,0,0.201-0.144,0.268l0.072,0.065c-0.055,0.545-0.395,1.286-1.155,1.812c-0.071,0-0.144,0-0.144-0.067
			c0-0.137-0.148-0.336-0.072-0.47c0-0.066-0.076-0.066-0.146-0.066c0.146-0.135-0.099-0.269-0.021-0.471
			c-0.078,0-0.078-0.066-0.078-0.134c0.219-0.134,0.042-0.478,0.26-0.61l-0.071-0.069c0.071-0.132,0.183-0.34,0.325-0.477
			c0-0.064,0-0.064,0-0.134c0.29-0.268,0.667-0.386,1.03-0.516c0.072,0,0.144,0,0.144,0.062C78,35.441,77.856,35.706,77.783,35.975z
			"/>
		<path fill="#FFFFFF" d="M90.203,35.364c0.008,0.088,0.019,0.176,0.027,0.261c0.49,0.474,0.394,1.282,0.72,1.859
			c-0.156,0.201-0.045,0.452-0.112,0.639c0.096,0.074,0.096,0.074,0.191,0.151c-0.129,0.461,0.18,0.865,0.137,1.314
			c-0.081,0.099-0.081,0.099-0.159,0.197c0.009,0.087,0.02,0.174,0.106,0.165l-0.078,0.097l0.095,0.078l-0.079,0.1
			c0.087-0.014,0.097,0.075,0.104,0.166c-0.155,0.191,0.131,0.426-0.112,0.63c0.098,0.076,0.104,0.163,0.113,0.253
			c-0.242,0.208-0.094,0.584-0.264,0.857l0.089,0.082l-0.084,0.097l-0.091-0.087c-0.087,0.006-0.084,0.093-0.082,0.179
			c0.09,0.173,0.27,0.339,0.099,0.524l0.09,0.081c-0.26,0.194-0.336,0.417-0.412,0.671c-0.08,0.088-0.08,0.088-0.161,0.177
			c0.085,0.082,0.088,0.165,0.088,0.25c-0.159,0.177-0.238,0.348-0.396,0.526c0,0.084,0.088,0.249-0.075,0.34l0.085,0.083
			c-0.081,0.173-0.155,0.428-0.231,0.603c0.082-0.006,0.082,0.079,0.082,0.162c-0.241,0.183-0.519,0.374-0.429,0.705
			c-0.156,0.263-0.359,0.352-0.519,0.612c0.086,0.162-0.286,0.24-0.283,0.408c0.002,0.167-0.242,0.1-0.156,0.261l0.083,0.081
			c-0.082,0.006-0.082,0.006-0.159,0.01c-0.083,0.173-0.083,0.173-0.242,0.265c0.001,0.083,0.004,0.171-0.079,0.173
			c-0.145,0.109-0.217,0.24-0.374,0.419c0.084,0.081-0.261,0.256-0.183,0.26c-0.09,0.076-0.177,0.161-0.194,0.324
			c-0.08-0.002-0.163-0.004-0.17,0.077l0.005,0.107c-0.058,0.062-0.073,0.06-0.193,0.085c-0.636,0.728-1.567,1.015-2.206,1.736
			c-0.172,0.081-0.342,0.156-0.512,0.231c-0.173,0.074-0.114,0.328-0.267,0.234c0.008-0.081-0.219,0.074-0.3,0.07
			c-0.18,0.16-0.446,0.043-0.612,0.033c0.008-0.083-0.089-0.063-0.164-0.152l-0.09,0.079c-0.072-0.09-0.257-0.26-0.339-0.263
			c-0.073-0.085,0.089-0.177,0.006-0.179l0.092-0.081c0.007-0.083-0.129-0.104-0.21-0.107c-0.148-0.177,0.167-0.043,0.101-0.22
			l-0.318-0.024c-0.076-0.165-0.233-0.171-0.299-0.344c0.015-0.164,0.373-0.16,0.388-0.329c0.162,0.01,0.115-0.018,0.287-0.094
			L82.5,50.078c0.174-0.081,0.147-0.223,0.228-0.22c-0.004,0.085,0.063-0.013,0.143-0.007c0.083,0.004,0.163,0.007,0.173-0.075
			c0.006-0.087,0.014-0.171,0.104-0.248c0.081,0.006,0.081,0.006,0.164,0.01c0.354-0.323,0.127-0.109,0.492-0.513
			c0.007-0.083,0.007-0.083,0.015-0.166c0.088-0.08,0.103-0.248,0.276-0.322c-0.009,0.082-0.02,0.167,0.066,0.173
			c0.258-0.159,0.103-0.25,0.038-0.419c0.089-0.085,0.089-0.085,0.179-0.161c-0.01,0.084,0.136,0.019,0.056,0.015
			c-0.008,0.085,0.085-0.193,0.167-0.191c0.201-0.31,0.055,0.056,0.354-0.518c0.062-0.065,0.216-0.123,0.23-0.163
			c-0.018-0.008,0.19-0.084,0.116-0.169c-0.011-0.067,0.021-0.096-0.149-0.018c0.097-0.165,0.382-0.411,0.397-0.58
			c0.236,0.096,0.048-0.28,0.21-0.274c-0.088,0.078-0.17-0.083-0.168,0l0.271-0.006c0.18-0.16-0.251-0.152-0.089-0.331
			c-0.003-0.084-0.027-0.132-0.107-0.129c-0.004-0.082-0.024-0.151,0.059-0.155l0.083,0.081c0.08-0.089-0.078-0.373,0.083-0.465
			c-0.001-0.085-0.001-0.172-0.004-0.256c0.241-0.177,0.132-0.15,0.207-0.405l-0.083-0.081c0.001,0.083,0.176-0.079,0.094-0.075
			c-0.002-0.084-0.002-0.084-0.002-0.169c0.161-0.092,0.272-0.653,0.269-0.822c0.003,0.169-0.19-0.384-0.026-0.308
			c0.236-0.354,0.076-0.818,0.112-1.249c-0.171-0.065,0.132-0.187,0.038-0.342c-0.081,0.01-0.162,0.02-0.172-0.065
			c0.074-0.092,0.074-0.092,0.144-0.19c-0.007-0.08-0.016-0.165-0.096-0.155c-0.008-0.085-0.015-0.169,0.065-0.177
			c-0.012-0.084-0.018-0.167-0.099-0.16c0.072-0.093,0.072-0.093,0.146-0.187c-0.009-0.084-0.09-0.075-0.17-0.062
			c0.047-0.35-0.3-0.599-0.174-0.953c-0.079,0.007-0.088-0.076-0.096-0.161c0.217-0.281-0.08-0.621,0.056-0.892
			c-0.169-0.063-0.104-0.243-0.123-0.411c0.074-0.092-0.136-0.176-0.145-0.259c-0.206-0.4-0.146-0.718-0.279-1.144
			c-0.159,0.145-0.276-1.173-0.417-1.685c-0.21-0.33-0.072-0.701-0.196-1.041c0.087-0.01,0.175-0.021,0.167-0.108
			c-0.115-0.251,0.139-0.374,0.198-0.645c0.175-0.022,0.338-0.133,0.533,0.021c0.164-0.106,0.063-0.271,0.052-0.359
			c0.347-0.042,0.61-0.078,0.96-0.121c0.008,0.088,0.016,0.176,0.105,0.166c0.26-0.034,0.367,0.128,0.627,0.097
			c0.009,0.089,0.017,0.176,0.105,0.167c0.172-0.023,0.269,0.053,0.366,0.131c0.088-0.011,0.176-0.022,0.165-0.108l0.097,0.073
			l0.079-0.096c0.095,0.077,0.181,0.066,0.269,0.053c0.097,0.078,0.123,0.339,0.291,0.233
			C89.371,34.137,89.873,34.696,90.203,35.364z"/>
		<g>
			<path fill="#FFFFFF" d="M51.7,36.926c-0.03-0.14-0.232-0.182-0.315-0.183c-0.085-0.001-0.243,0.175-0.323,0.037
				c0,0-0.14,0.224-0.308,0.345c-0.113,0.081-0.287,0.068-0.287,0.068c-0.042,0.215-0.064,0.238,0.124,0.741
				c0.086,0.016,0.174,0.497,0.268,0.518c-0.04-0.184,0.249,0.398,0.341,0.479c0.059,0.016,0.059,0.016,0.118,0.032
				c0.059,0.015,0.03,0.07,0.003,0.121l0.262,0.184c0.026,0.072,0.082,0.092,0.021,0.192c0.201,0.013,0.327,0.133,0.495,0.207
				c0.058,0.025,0.022,0.073-0.011,0.124c0.055,0.022,0.11,0.047,0.146,0c0.144,0,0.042,0.146,0.063,0.215l0.089-0.022
				c0.021,0.072,0.132,0.121,0.132,0.121c0.176,0.265,1.025,0.589,1.237,0.829l0.083-0.042c0.066,0.14,0.44,0.166,0.44,0.346
				l0.079-0.05c0.04,0.065,0.603,0.173,0.758,0.255c0.078-0.048-0.034-0.13,0.051-0.173c0.094,0.081,0.288,0.26,0.378,0.341
				c0,0,0.243,0.017,0.417,0.058c0.218,0.23,0.667,0.088,0.934,0.207c0.035,0.071,0.091,0.083,0.147,0.096l0.085-0.042l0.035,0.069
				c0.165-0.087,0.256-0.004,0.366-0.1l0.033,0.069l0.083-0.045c0.033,0.069,0.033,0.069,0.064,0.139
				c0.233,0.05,0.444,0.157,0.693,0.03c0.032,0.069,0.092,0.083,0.148,0.095c0.083-0.044,0.083-0.044,0.169-0.083
				c0.173,0.039,0.205,0.105,0.409,0.093l0.031,0.065c0.251-0.123,0.425-0.087,0.657-0.033c0.051-0.109,0.175,0.04,0.224-0.073
				l0.033,0.071c0.194-0.142,0.491-0.069,0.692-0.077l0.03,0.069c0.086-0.038,0.051,0.008,0.051,0.008
				c0.169-0.08,0.579-0.084,0.688-0.179c0.233,0.062,0.225,0.105,0.541,0.063c0.065,0.016,0.195,0.042,0.256,0.063
				c0.259-0.171,0.482-0.165,0.704-0.04c0.256-0.048,0.663-0.246,0.886-0.365c0.063,0.018,0.129,0.038,0.193,0.056
				c0.096-0.036,0.159-0.016,0.224-0.121c0.287-0.1,0.493-0.198,0.751-0.371c0.029,0.073,0.192-0.063,0.223,0.004
				c0.033-0.048,0.033-0.048,0.065-0.102c0.126,0.036,0.222-0.119,0.35-0.083c0.033-0.05,0.033-0.05,0.065-0.104
				c0.193-0.065,0.118-0.115,0.308-0.179c0.166-0.113,0.396-0.5,0.772-0.664c-0.008-0.124,0.239-0.191,0.294-0.301
				c0.027-0.054,0.093-0.039,0.157-0.027l-0.037-0.068c0.09-0.043,0.064-0.223,0.151-0.143c0.024-0.054,0.134-0.199,0.08-0.208
				c0.184-0.144,0.181-0.612,0.451-0.671c0.023-0.058,0.023-0.058,0.046-0.11c0.107-0.144,0.065-0.411,0.127-0.448
				c0.021-0.052-0.008-0.092,0.049-0.078c0.069-0.215,0.12-0.542,0.183-0.833c-0.055-0.012-0.029-0.067-0.005-0.123
				c0.054,0.012,0.077-0.043,0.102-0.097c-0.055-0.013-0.031-0.071-0.008-0.125l0.079-0.041c-0.11-0.025,0.015-0.175-0.096-0.199
				l0.076-0.044c-0.094-0.264,0.042-0.532-0.051-0.794l0.072-0.043c-0.127-0.15-0.106-0.309,0.004-0.464
				c-0.04-0.069-0.019-0.124,0-0.181c-0.149-0.093,0.032-0.191-0.06-0.274c0.054-0.166-0.132-0.33-0.02-0.486
				c-0.074-0.137-0.088-0.195-0.168-0.328c0.016-0.059,0.032-0.117,0.049-0.174c-0.056-0.011-0.113-0.023-0.098-0.08
				c0.089-0.103-0.009-0.181,0.024-0.296c-0.112-0.021-0.052-0.118-0.092-0.184c-0.035-0.307-0.116-0.54-0.298-0.801
				c0.076-0.113-0.081-0.561-0.073-0.702l-0.108-0.057c-0.048-0.143-0.099-0.217-0.207-0.292c0.005-0.07,0.005-0.07,0.009-0.14
				c-0.056-0.003-0.112-0.006-0.106-0.078c0.003-0.068,0.003-0.068,0.007-0.14l-0.062,0.067c-0.105-0.076-0.151-0.216-0.143-0.359
				c-0.207-0.291-0.285-0.5-0.579-0.924c-0.115,0.07-0.005-0.219-0.144-0.154c-0.158-0.358-0.262-0.446-0.497-0.666
				c0.009-0.07,0.009-0.07,0.014-0.142c-0.064-0.001-0.064-0.001-0.129-0.004c-0.065,0-0.056-0.072-0.05-0.142
				c-0.368-0.226-1.674-0.408-1.875-0.768c-0.113-0.006-0.225-0.08-0.292,0.062c-0.051-0.074-0.051-0.074-0.103-0.146
				c-0.305,0.202-0.562-0.16-0.844-0.239l-0.062,0.067c-0.099-0.214-0.288-0.008-0.404-0.009c-0.048-0.074-0.107-0.078-0.165-0.079
				c-0.299,0.132-0.574-0.017-0.833,0.33l-0.052-0.074l0.65,1.215c-0.015,0.065,0.167,0.823,0.342,1.202
				c0.059,0.01,0.134,0.148,0.174,0.226c-0.015,0.065-0.015,0.065-0.028,0.134c0.087,0.158,0.174,0.313,0.26,0.473
				c-0.06-0.013-0.075,0.052-0.089,0.121c0.069,0.223,0.067,0.465,0.135,0.683c0.092,0.081-0.015,0.129,0.084,0.232
				c0.01,0.01-0.061,0.142-0.046,0.148c-0.041,0.11,0.029,0.242,0.029,0.242c0.033,0.242,0.021,0.05,0.189,0.223
				c-0.156,0.187,0.105,0.491-0.05,0.675c0.084,0.087,0.086-0.036,0.113,0.032c-0.028,0.05-0.028,0.05-0.055,0.1
				c-0.027,0.051,0.025,0.069,0.081,0.091c0.054,0.135-0.044,0.216,0.028,0.348c0.055,0.014,0.005,0.182,0.059,0.194
				c0.018,0.124,0.173,0.16,0.024,0.246c-0.054-0.014-0.024,0.233-0.08,0.398c0.035,0.065,0.001,0.348-0.018,0.404
				c0.056,0.012,0.095-0.055,0.074,0c-0.02,0.055-0.02,0.055-0.038,0.108c0.056,0.012,0.05,0.113,0.029,0.167
				c-0.002,0.176-0.115,0.265-0.171,0.426c-0.064,0.355,0.121,0.643-0.12,0.77c0.086,0.077-0.021,0.171-0.045,0.228
				c-0.08,0.038-0.059,0.21-0.131,0.252c-0.089,0.217-0.133,0.205-0.222,0.42c-0.146,0.085-0.169,0.18-0.314,0.265
				c-0.023,0.054-0.023,0.054-0.045,0.106c-0.021,0.055-0.072,0.041-0.122,0.032c-0.095,0.099-0.426,0.249-0.473,0.354l0.029,0.067
				c-0.197,0.073-0.254,0.099-0.473,0.224c-0.216,0.129-0.378,0.13-0.603,0.247c-0.198-0.056-0.366,0.09-0.563,0.034
				c-0.077,0.04-0.151,0.081-0.228,0.116c-0.099-0.027-0.247,0.051-0.322-0.03c-0.099-0.023-0.078,0.157-0.175,0.132
				c-0.048-0.014-0.048-0.014-0.098-0.029l-0.023-0.065c-0.152,0.081-0.273-0.015-0.424,0.061l-0.023-0.063
				c-0.151,0.077-0.276-0.008-0.371,0.088c-0.126-0.086-0.401-0.088-0.623-0.072c0.02-0.054-0.029-0.063-0.08-0.072l-0.072,0.047
				c0.022-0.056-0.425-0.026-0.474-0.031l-0.103-0.019l-0.031-0.065l-0.071,0.044c-0.08-0.072-0.615-0.126-0.741-0.265
				c-0.103,0.097-0.199,0.054-0.315,0.03c-0.477-0.03-1.059-0.239-1.119-0.252l-0.034-0.071c-0.166,0.084-0.441-0.005-0.514-0.138
				c-0.059-0.013-0.139-0.021-0.196-0.038c-0.062-0.142-0.439-0.115-0.486-0.256c0,0-0.189-0.13-0.269-0.227
				c-0.123,0.077-0.433-0.293-0.49-0.318l-0.207-0.007l-0.074-0.223l-0.279-0.208C51.85,36.941,51.736,37.104,51.7,36.926z"/>
			<path fill="#FFFFFF" d="M56.079,28.838c0.079,0.002,0.156,0.006,0.229,0.011c0.369,0.378,1.098,0.267,1.578,0.51
				c0.193-0.139,0.402-0.056,0.577-0.12c0.059,0.077,0.059,0.077,0.117,0.152c0.423-0.126,0.65,0.086,1.052,0.057
				c0.1-0.062,0.1-0.062,0.199-0.127c0.075,0.009,0.15,0.021,0.128,0.089l0.099-0.063l0.054,0.079l0.098-0.061
				c-0.023,0.07,0.052,0.081,0.128,0.085c0.195-0.122,0.315,0.044,0.541-0.143c0.05,0.083,0.125,0.095,0.201,0.106
				c0.225-0.187,0.304,0.009,0.579-0.08l0.047,0.084l0.1-0.054l-0.044-0.086c0.026-0.07,0.1-0.051,0.175-0.036
				c0.121,0.103,0.204,0.256,0.413,0.16l0.041,0.085c0.13-0.091-0.87-0.136,0.69-0.186c0.1-0.044,0.1-0.044,0.199-0.089
				c0.04,0.082,0.109,0.103,0.178,0.121c0.199-0.09,0.367-0.115,0.567-0.204c0.071,0.017,0.18,0.12,0.309,0.013l0.039,0.08
				c0.171-0.022,0.409-0.032,0.575-0.054c-0.027,0.062-0.112-0.089-0.045-0.059c0.24-0.122,0.5-0.265,0.725-0.086
				c0.267-0.028,0.383-0.163,0.651-0.183c0.087,0.126,0.303-0.122,0.43-0.053c0.126,0.063,0.13-0.114,0.214,0.015l0.022,0.091
				c0.04-0.053,0.04-0.053,0.08-0.112c0.165,0.012,0.165,0.012,0.304-0.064c0.062,0.036,0.125,0.074,0.164,0.016
				c0.147-0.059,0.278-0.059,0.478-0.102c0.023,0.096,0.168-0.045,0.13,0.013c0.099-0.024,0.202-0.043,0.325,0.029
				c0.038-0.057,0.079-0.114,0.142-0.078l0.073,0.055c0.07-0.01,0.077-0.022,0.159-0.087c0.833-0.074,1.297-0.48,2.125-0.48
				c0.145-0.066,0.292-0.131,0.436-0.197c0.144-0.066,0.275,0.111,0.303-0.038c-0.059-0.042,0.17-0.099,0.213-0.152
				c0.203-0.022,0.33-0.374,0.412-0.487c-0.061-0.041,0.003-0.092-0.015-0.19l0.1-0.017c-0.021-0.095-0.039-0.495,0.001-0.553
				c-0.018-0.094-0.162-0.033-0.123-0.09l-0.037-0.067c-0.059-0.041,0.018-0.142,0.059-0.196c-0.039-0.192-0.213,0.025-0.296-0.112
				l0.153-0.225c-0.07-0.137-0.378-0.217-0.497-0.297c-0.082,0.115-0.076,0.068-0.218,0.141l-0.047-0.106
				c-0.145,0.076-0.228-0.016-0.268,0.039c0.059,0.038-0.04,0.033-0.08,0.088c-0.043,0.057-0.083,0.114-0.143,0.073
				c-0.06-0.039-0.121-0.078-0.22-0.062c-0.042,0.06-0.042,0.06-0.082,0.112c-0.402,0.069-1.311,0.09-1.402-0.033
				c-0.102,0.024-0.102,0.024-0.2,0.05c0.064,0.033-0.053,0.108-0.015,0.047c0.064,0.035-0.183-0.033-0.22,0.027
				c-0.322-0.003-1.029,0.07-0.891-0.013c-0.164-0.007-0.48,0.079-0.607,0.012c-0.048,0.209-0.274-0.118-0.343,0
				c0.1-0.026-0.127-0.041-0.061-0.01l0.008,0.083c-0.201,0.062-0.214-0.126-0.415-0.054c-0.067-0.029-0.097-0.062-0.064-0.121
				c-0.067-0.025-0.114-0.064-0.146-0.001l0.032,0.085c-0.099,0.037-0.269-0.167-0.401-0.073c-0.067-0.026-0.132-0.053-0.201-0.079
				c-0.23,0.13-0.479,0.124-0.718,0.143l-0.045-0.08c0.07,0.015-0.117,0.126-0.089,0.061c-0.071-0.016-0.071-0.016-0.142-0.03
				c-0.123,0.116-0.628,0.112-0.77,0.078c0.142,0.034-0.285-0.245-0.259-0.101c-0.358,0.139-0.768-0.069-1.148-0.073
				c-0.023-0.146-0.183,0.095-0.303,0.005c0.024-0.067,0.047-0.133-0.023-0.146c-0.095,0.054-0.165,0.031-0.26,0.087
				c-0.07-0.008-0.146-0.018-0.122-0.084c-0.073-0.008-0.146-0.018-0.167,0.046c-0.072-0.008-0.145-0.019-0.124-0.082
				c-0.092,0.053-0.188,0.126-0.279,0.185c-0.071-0.004-0.054-0.072-0.036-0.139c-0.313,0.044-0.49-0.237-0.819-0.13
				c0.018-0.063-0.052-0.07-0.129-0.077c-0.273,0.182-0.662-0.015-0.916,0.113c-0.043-0.135-0.207-0.069-0.353-0.071
				c-0.09,0.064-0.147-0.101-0.219-0.102c-0.34-0.141-0.627-0.071-0.993-0.152c0.141-0.141-1.019-0.146-1.462-0.226
				c-0.277-0.15-0.619-0.009-0.909-0.088c-0.017,0.072-0.033,0.145-0.11,0.144c-0.214-0.077-0.342,0.138-0.588,0.208
				c-0.033,0.144-0.189,0.213-0.146,0.337c-0.109,0.143-0.124,0.167-0.2,0.165c-0.064,0.29-0.114,0.259-0.189,0.545
				c0.077,0.007,0.155,0.009,0.135,0.08c-0.057,0.213,0.078,0.295,0.021,0.511c0.076,0.004,0.155,0.008,0.134,0.079
				c-0.036,0.145,0.021,0.219,0.079,0.295c-0.02,0.071-0.038,0.143-0.115,0.14l0.057,0.075l-0.095,0.067
				c0.059,0.076,0.04,0.146,0.02,0.218c0.059,0.075,0.287,0.087,0.175,0.228C55.077,28.211,55.521,28.596,56.079,28.838z"/>
		</g>
	</g>
	<g>
		<path fill="#FFFFFF" d="M133.34,37.482c0.168-0.212,4.177-5.397,4.177-5.397l-1.808-2.614c0,0-1.831,0.365-2.564,0.365
			c-1.043,0-6.332-0.178-6.332-0.178l0.442,2.301c0,0,5.29-0.308,6.346-0.383c-1.772,3.394-7.667,12.215-7.667,12.215l1.631,0.646
			c0,0,1.884-2.121,4.714-5.594c0.884,1.073,2.781,3.481,3.606,5.245l0.1,0.211l1.938-2.896l-0.077-0.077
			C137.729,41.21,134.98,38.56,133.34,37.482z"/>
		<path fill="#FFFFFF" d="M139.041,35.796c-1.509-0.078-3.31-0.208-3.31-0.208l0.174,2.562c0,0,2.917-0.524,3.192-0.572
			c0.175,3.875,0.194,11.423,0.194,11.423l2.272-1.12l0.006-0.077c0.031-0.713,0.713-19.464,0.713-19.464l-3.614-0.691
			C138.669,27.65,138.868,30.438,139.041,35.796z"/>
		<path fill="#FFFFFF" d="M143.846,50.22l2.385-1.293l0.836-21.717l-3.904-0.297C143.164,26.912,143.827,46.293,143.846,50.22z"/>
		<path fill="#FFFFFF" d="M261.515,50.22l2.527-1.293l0.835-21.717l-4.045-0.297C260.832,26.912,261.493,46.293,261.515,50.22z"/>
		<path fill="#FFFFFF" d="M240.531,27.209l-4.045-0.297c0,0,0.663,19.381,0.68,23.308l2.53-1.293l0.436-11.348
			c1.273,0.234,3.778,0.592,3.778,0.592c0.083-0.789,0.188-2.437,0.188-2.437s-2.661,0.193-3.908,0.298L240.531,27.209z"/>
		<path fill="#FFFFFF" d="M153.701,37.714c0,0,5.614-2.54,8.141-3.939c2.218,1.277,6.042,3.476,7.3,4.153l0.118,0.064l1.354-2.699
			c0,0-6.277-2.395-6.786-2.589c0.418-0.217,5.116-2.636,5.116-2.636l-2.513-2.219c-2.095,0.896-13.113,0.308-13.113,0.308
			l0.196,1.888c0,0,7.9,0.04,8.534,0.044c-3.322,3.007-10.236,6.763-10.236,6.763L153.701,37.714z"/>
		<path fill="#FFFFFF" d="M150.131,38.998l0.717,2.026c0,0,3.435-0.132,8.373-0.17c0.493,5.214,0.588,6.702,0.615,9.371l3.203-1.464
			c0,0,0.441-6.033,0.446-7.93c0.256-0.001,8.825-0.023,8.825-0.023l0.212-1.887C160.63,39.425,150.131,38.998,150.131,38.998z"/>
		<path fill="#FFFFFF" d="M286.854,39.014l-0.043-2.106c0,0-9.125,0.466-12.043,0.331c-0.055-0.477-0.242-6.36-0.213-7.064
			c5.913-0.227,11.869,0.072,11.869,0.072l0.198-2.155l-15.838,0.088l0.319,10.903L286.854,39.014z"/>
		<path fill="#FFFFFF" d="M280.605,45.797c-0.003-0.046,0.24-5.514,0.24-5.514l-4.084-0.309c0,0,0.29,4.487,0.424,5.838
			c-3.623,0-9.754-0.22-9.754-0.22l0.228,2.231c0,0,12.12-0.27,21.864-0.129l0.131-2.119
			C289.654,45.576,285.638,45.743,280.605,45.797z"/>
		<path fill="#FFFFFF" d="M210.156,38.283l0.549-10.056l-3.375-0.315l0.101,3.747c-1.125,0.046-3.495,0.021-4.323,0.009
			l-0.089-3.139l-3.479-0.302l0.965,10.055C200.505,38.282,206.392,38.093,210.156,38.283z M203.158,33.461
			c1.416-0.023,3.457,0.017,4.326,0.036l0.077,3.028l-4.315,0.061L203.158,33.461z"/>
		<path fill="#FFFFFF" d="M214.878,30.606c-1.007-0.193-2.674-0.501-3.097-0.524l0.093,2.375l3.051-0.269
			c0.021,0.738,0.044,1.512,0.069,2.341c-1.054-0.051-2.587,0.058-3.311-0.043l-0.05,2.043l3.404-0.378
			c0.031,1.147,0.065,2.397,0.106,3.812l2.412-0.999c0.111-0.962,0.867-8.145,1.09-11.755l-3.902-0.297
			C214.798,28.168,214.84,29.36,214.878,30.606z"/>
		<path fill="#FFFFFF" d="M208.031,47.608l-0.268-1.786c3.879,0.096,9.157-0.114,9.157-0.114l0.56-4.97
			c-3.257,0.269-13.982,0.05-13.982,0.05l0.447,1.945c1.74-0.018,8.549-0.081,9.995-0.089l-0.136,1.682
			c-2.08-0.027-7.561-0.154-9.968-0.271l1.072,5.332c4.444-0.078,12.938-0.078,12.938-0.078l0.19-2.037
			C215.679,47.644,210.888,47.624,208.031,47.608z"/>
		<path fill="#FFFFFF" d="M234.718,32.094l-2.183-2.54c-0.779,0.135-1.838,0.371-2.918,0.342c-2.513-0.065-5.268-0.15-6.869-0.232
			l0.518,2.44c4.004-0.175,7.056-0.446,7.056-0.446c-1.109,1.945-5.793,8.227-8.724,12.037l1.546,0.717
			c1.184-1.083,3.2-3.214,5.26-5.444c1.016,1.003,3.003,3.05,4.738,5.292l1.585-3.159c-1.409-1.088-3.69-2.554-5.109-3.449
			C231.704,35.378,233.683,33.191,234.718,32.094z"/>
		<path fill="#FFFFFF" d="M256.278,29.741l0.078-1.684c-2.285-0.004-7.23-0.338-8.486-0.377l0.325,2.223
			C248.195,29.902,253.822,29.855,256.278,29.741z"/>
		<path fill="#FFFFFF" d="M258.225,33.729l-2.187-2.263c-0.679,0.181-2.027,0.331-3.131,0.304c-2.589-0.065-4.79-0.181-6.576-0.193
			l0.53,2.469c2.426-0.169,6.717-0.601,6.717-0.601c-1.394,2.23-5.297,7.09-8.188,10.468l1.635,0.726
			c1.378-1.192,3.25-2.979,5.067-4.756c2.616,2.393,4.656,4.773,4.656,4.773l1.66-3.03c-1.569-1.099-3.669-2.417-4.88-3.163
			C256.092,35.925,258.225,33.729,258.225,33.729z"/>
		<path fill="#FFFFFF" d="M193.802,36.312l-0.083-1.992c-1.856,0.243-9.281,0.27-11.845,0.136l0.017-1.668
			c3.59,0.012,7.487,0.064,11.718,0.25v-1.93c-3.513,0.149-6.544,0.273-11.702,0.096l0.017-1.43
			c3.081,0.089,8.198,0.15,11.784,0.024l0.055-1.887c-6.964,0.158-13.536,0.186-15.602-0.137l0.415,8.414
			C180.634,36.258,187.566,36.144,193.802,36.312z"/>
		<path fill="#FFFFFF" d="M177.968,42.429l0.323,1.853c6.18-0.188,12.022-0.049,12.022-0.049s0.278,4.681,0.24,6.009l2.907-1.404
			l0.749-6.447C194.21,42.39,181.235,42.49,177.968,42.429z"/>
		<path fill="#FFFFFF" d="M175.078,38.39l0.717,2.028c10.964-0.426,21.177-0.221,21.177-0.221l0.213-1.881
			C185.293,38.818,175.078,38.39,175.078,38.39z"/>
	</g>
</g>
</svg>
