<?xml version="1.0" encoding="utf-8"?>
<!-- Generator: Adobe Illustrator 16.0.0, SVG Export Plug-In . SVG Version: 6.00 Build 0)  -->
<!DOCTYPE svg PUBLIC "-//W3C//DTD SVG 1.1//EN" "http://www.w3.org/Graphics/SVG/1.1/DTD/svg11.dtd">
<svg version="1.1" id="zoneLogoJeonbuk" xmlns="http://www.w3.org/2000/svg" xmlns:xlink="http://www.w3.org/1999/xlink" x="0px"
	 y="0px" width="330px" height="80px" viewBox="0 0 330 80" enable-background="new 0 0 330 80" xml:space="preserve">
<style type="text/css">
	.st0{fill:#FFFFFF;}
</style>
<g>
	<path class="st0" d="M122.75,29.72c3.76,0,7.19,1.45,9.75,3.82V21.8h-4.94v3.85c-1.31-0.5-2.82-0.85-4.52-0.92
		c-0.1,0-0.49,0-0.58,0c-1.7,0.07-3.21,0.43-4.52,0.92V21.8H113v11.74C115.56,31.17,118.98,29.72,122.75,29.72z"/>
	<g>
		<path class="st0" d="M193.01,31.6c0.19-0.93,0.3-1.75,0.31-2.44h-9.06c-0.73,0-1.54-0.05-2.42-0.14V32h6.99
			c-0.77,3.73-3.35,7.95-8.14,11.55l2.21,1.98c2.27-1.55,4.16-3.24,5.7-5.06l4.8,4.9l2.52-1.99l-5.38-5.59
			C191.72,35.86,192.55,33.8,193.01,31.6z"/>
		<path class="st0" d="M140,44.9v2.89h13.08v4.41h3.68v-7.16h-14.41C141.65,45.04,140.87,44.99,140,44.9z"/>
		<path class="st0" d="M140.5,39.68h16.05v-2.7h-12.44v-1.23h12.25v-2.66h-12.25v-1.23h12.48v-2.7h-16.5c0.27,0.71,0.4,1.5,0.4,2.37
			V39.68z"/>
		<path class="st0" d="M138.3,40.84v2.89h20.6v-2.75h-18.23C139.97,40.99,139.18,40.94,138.3,40.84z"/>
		<path class="st0" d="M167.54,48.19h11.39V41.6h-12.71c-0.7,0-1.47-0.06-2.32-0.17v2.82h11.42v1.28h-11.73
			c0.22,0.81,0.33,1.56,0.33,2.25v4.41h15.13v-2.73h-11.51V48.19z"/>
		<path class="st0" d="M175.75,31.22v0.57h-3.11v-2.73h-3.83c0.19,0.74,0.28,1.4,0.28,1.97v1.52h-4.65v-3.44h-3.87
			c0.21,0.74,0.31,1.43,0.31,2.06v9.17h11.76v-1.61h3.11v1.61h3.37V28.68h-3.94C175.56,29.66,175.75,30.51,175.75,31.22z
			 M169.11,37.67h-4.65V35.2h4.65V37.67z M175.75,36.2h-3.11v-1.9h3.11V36.2z"/>
		<path class="st0" d="M236.52,46.57v-4.81h6.47v-2.89h-12.86v-6.78h12.91v-2.94H226.1c0.25,0.71,0.38,1.49,0.38,2.35v10.27h6.42
			v4.81h-6.14c-0.7,0-1.49-0.05-2.37-0.14v3.08H245v-2.94H236.52z"/>
		<path class="st0" d="M199.92,28.68h-4.21c0.38,0.98,0.57,1.83,0.57,2.54V52.2h3.64V39.33h2.55v-3.03h-2.55V28.68z"/>
		<path class="st0" d="M218.36,31.22V52.2h3.64V28.68h-4.21C218.17,29.66,218.36,30.51,218.36,31.22z"/>
		<path class="st0" d="M215.06,31.6c0.19-0.93,0.3-1.75,0.31-2.44h-3.65v-2.4h-4.1c0.19,0.74,0.28,1.39,0.28,1.94v0.45h-1.6
			c-0.73,0-1.54-0.05-2.42-0.14V32h6.99c-0.77,3.73-3.35,7.95-8.14,11.55l2.21,1.98c2.27-1.55,4.16-3.24,5.7-5.06l4.8,4.9l2.52-1.99
			l-5.38-5.59C213.76,35.86,214.59,33.8,215.06,31.6z"/>
	</g>
	<g>
		<polygon class="st0" points="94.06,44.38 89.12,44.38 89.12,52.2 109.27,52.2 109.27,47.99 94.06,47.99 		"/>
		<path class="st0" d="M93.87,39.33c1.27,0.73,2.92,2.12,3.46,4.59h4.58c-0.64-4.82-3.73-7.37-5.99-8.61
			c0.34-1.16,0.5-2.26,0.56-3.2H101V27.9H86.38v4.21h5.18c-0.08,1.45-0.44,3.37-1.6,4.87c-1.12,1.45-2.73,2.54-4.96,3.1l1.93,3.6
			C89.88,42.89,92.21,41.44,93.87,39.33z"/>
		<path class="st0" d="M125.53,37.52h12.77c-3.98-2.76-9.48-4.47-15.55-4.47c-5.08,0-9.75,1.2-13.48,3.2V27.9h-4.94v5.32H101v4.3
			h3.33v6.4h4.94v-6.4h10.69v2.19H113v4.21h14.56v5.26h4.94v-9.47h-6.97V37.52z"/>
	</g>
</g>
</svg>
