<?xml version="1.0" encoding="utf-8"?>
<!-- Generator: Adobe Illustrator 16.0.0, SVG Export Plug-In . SVG Version: 6.00 Build 0)  -->
<!DOCTYPE svg PUBLIC "-//W3C//DTD SVG 1.1//EN" "http://www.w3.org/Graphics/SVG/1.1/DTD/svg11.dtd">
<svg version="1.1" id="zoneLogoJeonnam" xmlns="http://www.w3.org/2000/svg" xmlns:xlink="http://www.w3.org/1999/xlink" x="0px"
	 y="0px" width="330px" height="80px" viewBox="0 0 330 80" enable-background="new 0 0 330 80" xml:space="preserve">
<g>
	<g>
		<path fill="#FFFFFF" d="M138.597,41.527c1.115-0.743,2.151-1.559,3.11-2.448c0.957-0.889,1.829-1.813,2.611-2.773
			c0.781-0.957,1.456-1.931,2.023-2.917c0.566-0.987,1.007-1.961,1.32-2.92h-7.569V27.36h11.03c0.527,0,0.933,0.147,1.218,0.44
			c0.283,0.294,0.355,0.724,0.22,1.291c-0.234,1.037-0.592,2.064-1.072,3.08c-0.479,1.017-1.061,2.025-1.745,3.021l5.398,4.342
			c0.156,0.136,0.263,0.303,0.323,0.5c0.059,0.194,0.074,0.406,0.043,0.63c-0.03,0.227-0.098,0.45-0.205,0.673
			c-0.108,0.227-0.25,0.427-0.426,0.604c-0.391,0.409-0.831,0.67-1.321,0.776c-0.488,0.106-0.879-0.005-1.172-0.337l-4.458-4.929
			c-1.076,1.194-2.289,2.298-3.638,3.316c-1.35,1.017-2.806,1.915-4.37,2.696c-0.275,0.139-0.542,0.177-0.808,0.12
			c-0.264-0.06-0.474-0.178-0.63-0.353c-0.217-0.236-0.322-0.524-0.322-0.867C138.158,42.021,138.304,41.743,138.597,41.527z
			 M161.713,52.821h-15.05c-1.838,0-2.756-0.897-2.756-2.698v-6.277h3.901v5.457c0,0.253,0.127,0.381,0.38,0.381h13.524V52.821z
			 M161.068,45.313h-3.903v-9.447h-3.931v-3.138h3.931v-6.307h3.903V45.313z"/>
		<path fill="#FFFFFF" d="M167.96,35.222h8.479v-4.227h-8.479v-3.108h12.35v10.386h-8.418v4.781c0,0.253,0.137,0.381,0.411,0.381
			c1.564-0.039,3.153-0.143,4.767-0.307c1.613-0.168,3.202-0.339,4.766-0.515c0.432-0.04,0.759,0.037,0.983,0.234
			c0.225,0.195,0.355,0.449,0.396,0.763c0.099,0.704-0.186,1.153-0.85,1.35c-0.744,0.216-1.575,0.424-2.493,0.63
			c-0.921,0.206-1.879,0.397-2.875,0.572c-0.998,0.176-2.015,0.331-3.051,0.455c-1.036,0.127-2.044,0.218-3.021,0.279
			c-0.979,0.06-1.717-0.142-2.216-0.601c-0.5-0.46-0.749-1.141-0.749-2.04V35.222z M188.055,26.422v8.889h3.96v3.167h-3.96V52.44
			h-3.901V26.422H188.055z"/>
		<path fill="#FFFFFF" d="M199.729,35.808c0,0.176,0.049,0.322,0.147,0.439c0.095,0.117,0.252,0.177,0.468,0.177
			c0.548,0,1.199-0.02,1.951-0.061c0.751-0.038,1.539-0.096,2.361-0.174c0.821-0.078,1.643-0.162,2.465-0.25
			c0.821-0.088,1.564-0.181,2.229-0.279c0.429-0.058,0.747,0.01,0.953,0.206c0.207,0.195,0.328,0.459,0.368,0.792
			c0.036,0.313,0,0.601-0.12,0.865c-0.117,0.265-0.37,0.445-0.762,0.542c-1.564,0.431-3.313,0.802-5.251,1.115
			c-1.937,0.313-3.912,0.54-5.926,0.675c-0.88,0.059-1.564-0.126-2.053-0.556c-0.489-0.431-0.734-1.125-0.734-2.083V27.213h3.902
			V35.808z M201.665,52.969c-1.839,0-2.757-0.9-2.757-2.698v-7.922h16.721v10.62H201.665z M211.729,49.831v-4.402h-8.919v3.99
			c0,0.277,0.137,0.412,0.411,0.412H211.729z M215.629,31.671h3.783v3.14h-3.783v6.13h-3.9v-14.52h3.9V31.671z"/>
		<path fill="#FFFFFF" d="M225.425,27.8h18.012v3.168h-14.109v5.749c0,0.45,0.217,0.675,0.646,0.675H243.7v3.138h-7.155v5.075
			h10.412v3.168h-24.876v-3.168h10.533V40.53h-4.315c-0.938,0-1.65-0.229-2.139-0.688c-0.49-0.459-0.735-1.139-0.735-2.037V27.8z"/>
	</g>
	<g>
		<g>
			<path fill="#F47521" d="M110.385,28.67c0-3.123-2.534-5.663-5.662-5.663c-3.12,0-5.657,2.54-5.657,5.663
				c0,3.12,2.537,5.655,5.657,5.655C107.851,34.326,110.385,31.79,110.385,28.67z"/>
			<path fill="#006FBA" d="M116.237,50.6c0,0-5.295,0.476-11.961-3.947c-3.916-2.599-5.23-3.378-6.047-3.832
				c-1.146-0.632-2.783-1.237-4.659-1.141c-2.835,0.145-5.142,2.301-5.142,5.139c0,2.841,2.301,5.141,5.142,5.141
				c2.516,0,4.606-1.809,5.046-4.197l0.04-0.146c0.018-0.075,0.105-0.302,0.348-0.291c0.254,0.011,0.596,0.382,1.493,1.072l0,0
				l0.891,0.718c7.264,6.058,13.117,6.776,14.277,6.927c0.621,0.079,5.704,0.788,10.922-1.444v-8.85
				C125.08,47.861,120.63,50.428,116.237,50.6z"/>
			<path fill="#009457" d="M121.288,35.507c-0.026-0.134-0.135-0.239-0.271-0.26c-0.106-0.004-0.211-0.01-0.321-0.012
				c-2.842-0.039-5.819-0.044-7.99,2.127c-1.488,1.489-2.308,3.392-2.471,5.338c0,0.001,0,0.002,0,0.004
				c0,0.135,0.08,0.25,0.193,0.299v0.002c0.753,0.332,1.768,0.62,2.832,0.453c1.223-0.189,2.536-0.897,3.433-2.217
				c0.046-0.056,0.207-0.214,0.424-0.117c0.167,0.076,0.215,0.234,0.178,0.415c-0.042,0.134-0.109,0.265-0.176,0.36
				c-1.073,1.591-2.158,2.398-3.699,2.64c-0.273,0.039-0.541,0.058-0.803,0.058c-1.304,0-2.456-0.471-3.208-0.877
				c-1.653-0.725-4.473-2.907-4.473-2.907c-5.206-4.208-9.625-4.94-9.77-4.967c-5.016-0.986-8.958,0.035-12.21,2.033v3.215
				c2.959-2.549,6.827-4.038,11.911-3.211c0,0,4.09,0.466,9.058,4.214c4.31,3.347,6.856,3.916,6.856,3.916
				c2.889,0.814,6.023,0.087,8.297-2.186c2.169-2.169,2.265-5.197,2.226-7.984C121.303,35.726,121.294,35.617,121.288,35.507z"/>
		</g>
		<path fill="#FFD600" d="M93.569,41.68c1.876-0.097,3.514,0.509,4.659,1.141c0.817,0.454,2.131,1.233,6.047,3.832
			c6.666,4.423,11.961,3.947,11.961,3.947c4.394-0.172,8.843-2.738,10.35-4.853V17.583h-43.63v20.294
			c3.252-1.998,7.194-3.019,12.21-2.033c0.144,0.026,4.563,0.759,9.77,4.967c0,0,2.819,2.183,4.473,2.907
			c0.752,0.406,1.904,0.877,3.208,0.877c0.262,0,0.529-0.019,0.803-0.058c1.541-0.241,2.625-1.049,3.699-2.64
			c0.067-0.096,0.134-0.227,0.176-0.36c0.038-0.181-0.011-0.339-0.178-0.415c-0.217-0.097-0.378,0.062-0.424,0.117
			c-0.897,1.319-2.21,2.027-3.433,2.217c-1.064,0.167-2.078-0.121-2.832-0.453v-0.002c-0.114-0.049-0.193-0.164-0.193-0.299
			c0-0.002,0-0.003,0-0.004c0.163-1.946,0.982-3.849,2.471-5.338c2.171-2.171,5.148-2.166,7.99-2.127
			c0.11,0.002,0.214,0.008,0.321,0.012c0.135,0.021,0.244,0.126,0.271,0.26c0.006,0.11,0.016,0.219,0.017,0.335
			c0.039,2.788-0.057,5.815-2.226,7.984c-2.274,2.272-5.408,3-8.297,2.186c0,0-2.546-0.569-6.856-3.916
			c-4.968-3.748-9.058-4.214-9.058-4.214c-5.084-0.827-8.952,0.662-11.911,3.211v20.528h43.63v-7.024
			c-5.218,2.232-10.301,1.523-10.922,1.444c-1.16-0.15-7.013-0.869-14.277-6.927l-0.891-0.718c-0.897-0.69-1.239-1.062-1.493-1.072
			c-0.243-0.011-0.331,0.216-0.348,0.291l-0.04,0.146c-0.44,2.389-2.53,4.197-5.046,4.197c-2.84,0-5.142-2.3-5.142-5.141
			C88.428,43.98,90.734,41.824,93.569,41.68z M104.723,34.326c-3.12,0-5.657-2.536-5.657-5.655c0-3.123,2.537-5.663,5.657-5.663
			c3.128,0,5.662,2.54,5.662,5.663C110.385,31.79,107.851,34.326,104.723,34.326z"/>
	</g>
</g>
</svg>
