<?xml version="1.0" encoding="utf-8"?>
<!-- Generator: Adobe Illustrator 16.0.0, SVG Export Plug-In . SVG Version: 6.00 Build 0)  -->
<!DOCTYPE svg PUBLIC "-//W3C//DTD SVG 1.1//EN" "http://www.w3.org/Graphics/SVG/1.1/DTD/svg11.dtd">
<svg version="1.1" id="zoneLogoSejong" xmlns="http://www.w3.org/2000/svg" xmlns:xlink="http://www.w3.org/1999/xlink" x="0px"
	 y="0px" width="330px" height="80px" viewBox="0 0 330 80" enable-background="new 0 0 330 80" xml:space="preserve">
<g>
	<g>
		<g>
			<path fill="#FFFFFF" d="M150.007,41.773c0.074-0.074,9.392-9.22,9.392-9.22s9.313,9.146,9.396,9.22c0.097,0,6.175,0,6.733,0
				c-0.405-0.426-9.285-9.517-9.285-9.517s7.377,0,7.628,0c0-0.239,0-4.273,0-4.519c-0.259,0-28.686,0-28.941,0
				c0,0.245,0,4.279,0,4.519c0.252,0,7.626,0,7.626,0s-8.882,9.091-9.289,9.517C143.821,41.773,149.902,41.773,150.007,41.773z"/>
			<polygon fill="#FFFFFF" points="108.114,27.738 99.646,49.762 104.484,49.762 110.127,35.125 115.763,49.762 120.602,49.762 
				112.137,27.738 			"/>
			<path fill="#FFFFFF" d="M131.701,49.762c0.242,0,4.596,0,4.838,0c0-0.254,0-21.767,0-22.023c-0.242,0-4.596,0-4.838,0
				C131.701,27.995,131.701,49.508,131.701,49.762z"/>
			<path fill="#FFFFFF" d="M123.215,34.335c-0.542-0.654-1.363-1.072-2.275-1.072c-1.626,0-2.942,1.319-2.942,2.937
				c0,1.619,1.315,2.938,2.942,2.938c0.912,0,1.733-0.418,2.275-1.07c0,5.662,0,11.554,0,11.694c0.245,0,4.586,0,4.829,0
				c0-0.254,0-21.767,0-22.023c-0.243,0-4.584,0-4.829,0C123.215,27.837,123.215,30.696,123.215,34.335z"/>
			<path fill="#FFFFFF" d="M176.531,44.164H161.59c0.661-0.596,1.085-1.45,1.085-2.41c0-1.805-1.47-3.265-3.277-3.265
				c-1.811,0-3.278,1.46-3.278,3.265c0,0.96,0.422,1.814,1.082,2.41h-14.939v4.52h10.18c-1.702,1.745-2.757,4.125-2.757,6.746
				c0,5.347,4.349,9.684,9.713,9.684c5.359,0,9.715-4.337,9.715-9.684c0-2.621-1.058-5.001-2.761-6.746h10.179V44.164z
				 M159.398,60.287c-2.69,0-4.872-2.168-4.872-4.857c0-2.676,2.182-4.858,4.872-4.858c2.688,0,4.869,2.183,4.869,4.858
				C164.267,58.119,162.087,60.287,159.398,60.287z"/>
		</g>
		<g>
			<path fill="#FFFFFF" d="M209.879,39.944c0,0.106,0,1.906,0,2.015c0.123,0,11.39,0,11.39,0v1.59c0,0-11.267,0-11.39,0
				c0,0.111,0,6.018,0,6.135c0.123,0,14.282,0,14.39,0c0-0.111,0-1.913,0-2.013c-0.107,0-11.383,0-11.383,0v-2.107
				c0,0,11.275,0,11.383,0c0-0.118,0-5.504,0-5.619C224.161,39.944,210.002,39.944,209.879,39.944z"/>
			<g>
				<path fill="#FFFFFF" d="M221.269,27.743c0,0.115,0,1.924,0,1.924h-3.729c0,0,0-1.809,0-1.924c-0.115,0-2.897,0-3.004,0
					c0,0.115,0,2.479,0,2.479h-4.706c0,0,0-2.364,0-2.479c-0.099,0-2.884,0-3,0c0,0.115,0,9.907,0,10.021c0.118,0,10.588,0,10.71,0
					c0-0.108,0-1.856,0-1.856h3.729c0,0,0,2.538,0,2.648c0.116,0,2.901,0,3,0c0-0.116,0-10.698,0-10.813
					C224.17,27.743,221.385,27.743,221.269,27.743z M209.829,35.634v-3.398h4.706v3.517h-4.706V35.634z M217.539,33.775v-2.091
					h3.729v2.208h-3.729V33.775z"/>
			</g>
			<g>
				<path fill="#FFFFFF" d="M185.003,41.538c0,0.109,0,1.911,0,2.013c0.119,0,12.854,0,12.854,0s0,6.158,0,6.265
					c0.119,0,2.901,0,3.012,0c0-0.106,0-8.16,0-8.277C200.754,41.538,185.122,41.538,185.003,41.538z"/>
			</g>
			<path fill="#FFFFFF" d="M185.003,27.743c0,0.115,0,8.877,0,8.996c0.119,0,15.751,0,15.865,0c0-0.113,0-1.763,0-1.87
				c-0.114,0-12.862,0-12.862,0v-1.695c0,0,12.336,0,12.442,0c0-0.109,0-1.759,0-1.867c-0.106,0-12.442,0-12.442,0v-1.695
				c0,0,12.748,0,12.862,0c0-0.107,0-1.756,0-1.87C200.754,27.743,185.122,27.743,185.003,27.743z"/>
			<g>
				<path fill="#FFFFFF" d="M292.163,27.743c0,0.115,0,21.819,0,21.94c0.117,0,2.894,0,3,0c0-0.121,0-21.825,0-21.94H292.163z"/>
			</g>
			<g>
				<path fill="#FFFFFF" d="M244.643,27.743c0,0.115,0,21.819,0,21.94c0.116,0,2.897,0,2.998,0c0-0.118,0-13.096,0-13.096
					s2.995,0,3.105,0c0-0.108,0-1.909,0-2.013c-0.11,0-3.105,0-3.105,0s0-6.717,0-6.832
					C247.54,27.743,244.759,27.743,244.643,27.743z"/>
			</g>
			<path fill="#FFFFFF" d="M236.652,31.716v-1.453c0,0,4.57,0,4.674,0c0-0.119,0-1.91,0-2.021c-0.106,0-12.369,0-12.491,0
				c0,0.112,0,1.902,0,2.021c0.12,0,4.595,0,4.69,0v1.453c-0.009,4.41-1.744,7.425-5.031,8.665v2.374
				c0.045-0.011,4.643-0.974,6.401-4.451l0.193-0.378l0.188,0.378c1.752,3.478,6.358,4.44,6.406,4.451v-2.374
				C238.396,39.141,236.66,36.125,236.652,31.716z"/>
			<g>
				<path fill="#FFFFFF" d="M269.011,27.743c0,0.115,0,21.819,0,21.94c0.118,0,2.898,0,3.003,0c0-0.121,0-21.825,0-21.94H269.011z"
					/>
			</g>
			<path fill="#FFFFFF" d="M261.018,27.322h0.008c0,0.11,0,1.813,0,1.813s4.867,0,5.037,0h0.005c0,0.111,0,1.907,0,2.02h-0.005
				c-0.17,0-4.998,0-4.998,0v0.624c0,5.217,2.154,7.608,5.529,8.881c0,0,0,2.31,0,2.441l-0.016-0.002l0,0
				c-0.047-0.005-4.996-1.036-6.931-4.562l-0.189-0.382l-0.192,0.382c-1.942,3.526-6.877,4.557-6.93,4.562l0,0
				c0,0-0.011,0.002-0.013,0.002c0-0.132,0-2.441,0-2.441c3.374-1.273,5.521-3.664,5.521-8.881v-0.624c0,0-4.832,0-4.988,0h-0.003
				c0-0.113,0-1.909,0-2.02h0.003c0.156,0,5.035,0,5.035,0s0-1.704,0-1.813h0.007H261.018z"/>
			<path fill="#FFFFFF" d="M182.076,38.131c0,0.106,0,1.906,0,2.013c0.115,0,21.6,0,21.722,0c0-0.107,0-1.907,0-2.013
				C203.676,38.131,182.191,38.131,182.076,38.131z"/>
			<g>
				<path fill="#FFFFFF" d="M292.163,27.743c0,0.115,0,21.819,0,21.94c0.112,0,2.894,0,3,0c0-0.121,0-21.825,0-21.94H292.163z"/>
			</g>
			<g>
				<path fill="#FFFFFF" d="M284.209,31.779V27.74h-3.215v4.039c0,5.217-2.152,7.608-5.521,8.881c0,0,0,2.31,0,2.441l0.016-0.002
					l0,0c0.041-0.005,4.984-1.036,6.918-4.562l0.202-0.382l0.188,0.382c1.931,3.526,6.884,4.557,6.932,4.562l0,0l0.01,0.002
					c0-0.132,0-2.441,0-2.441C286.368,39.387,284.209,36.996,284.209,31.779z"/>
			</g>
		</g>
	</g>
	<g>
		
			<linearGradient id="SVGID_1_" gradientUnits="userSpaceOnUse" x1="-533.8672" y1="-1245.2383" x2="-541.7709" y2="-1226.2544" gradientTransform="matrix(0.7675 0 0 0.7675 488.9185 984.9229)">
			<stop  offset="0" style="stop-color:#44C8F5"/>
			<stop  offset="0.0288" style="stop-color:#36C4F3"/>
			<stop  offset="0.2534" style="stop-color:#00AFEA"/>
			<stop  offset="0.423" style="stop-color:#00A4E5"/>
			<stop  offset="0.5169" style="stop-color:#00A1E4"/>
			<stop  offset="1" style="stop-color:#0066B3"/>
		</linearGradient>
		<path fill="url(#SVGID_1_)" d="M80.252,34.469c-1.635-3.171-2.697-5.971-3.302-7.777c-0.299,1.656-1.028,5.442-2.109,9.237
			c0.89,1.551,1.767,2.776,2.531,3.857C78.412,38.211,79.486,36.366,80.252,34.469z"/>
		
			<linearGradient id="SVGID_2_" gradientUnits="userSpaceOnUse" x1="-533.3364" y1="-1245.0273" x2="-541.2439" y2="-1226.0344" gradientTransform="matrix(0.7675 0 0 0.7675 488.9185 984.9229)">
			<stop  offset="0" style="stop-color:#44C8F5"/>
			<stop  offset="0.0288" style="stop-color:#36C4F3"/>
			<stop  offset="0.2534" style="stop-color:#00AFEA"/>
			<stop  offset="0.423" style="stop-color:#00A4E5"/>
			<stop  offset="0.5169" style="stop-color:#00A1E4"/>
			<stop  offset="1" style="stop-color:#0066B3"/>
		</linearGradient>
		<path fill="url(#SVGID_2_)" d="M76.663,40.811c-0.772-1.087-1.512-2.255-2.236-3.491c-0.542,1.737-1.155,3.425-1.835,4.851
			c0.327,0.469,0.822,1.15,1.497,1.941C74.488,43.646,75.509,42.443,76.663,40.811z"/>
		
			<linearGradient id="SVGID_3_" gradientUnits="userSpaceOnUse" x1="-683.5684" y1="-1242.2026" x2="-674.4923" y2="-1225.4354" gradientTransform="matrix(0.7855 0 0 0.7855 596.9502 1007.8486)">
			<stop  offset="0" style="stop-color:#44C8F5"/>
			<stop  offset="0.0288" style="stop-color:#36C4F3"/>
			<stop  offset="0.2534" style="stop-color:#00AFEA"/>
			<stop  offset="0.423" style="stop-color:#00A4E5"/>
			<stop  offset="0.5169" style="stop-color:#00A1E4"/>
			<stop  offset="1" style="stop-color:#0066B3"/>
		</linearGradient>
		<path fill="url(#SVGID_3_)" d="M62.921,42.084c1.051,1.449,2.194,2.94,3.342,4.297c0.891-0.567,1.676-1.13,2.359-1.669
			c-0.59-1.329-1.398-3.325-2.214-5.392C65.633,40,64.461,40.967,62.921,42.084z"/>
		
			<linearGradient id="SVGID_4_" gradientUnits="userSpaceOnUse" x1="-683.3896" y1="-1242.2944" x2="-674.3104" y2="-1225.5212" gradientTransform="matrix(0.7855 0 0 0.7855 596.9502 1007.8486)">
			<stop  offset="0" style="stop-color:#44C8F5"/>
			<stop  offset="0.0288" style="stop-color:#36C4F3"/>
			<stop  offset="0.2534" style="stop-color:#00AFEA"/>
			<stop  offset="0.423" style="stop-color:#00A4E5"/>
			<stop  offset="0.5169" style="stop-color:#00A1E4"/>
			<stop  offset="1" style="stop-color:#0066B3"/>
		</linearGradient>
		<path fill="url(#SVGID_4_)" d="M65.954,38.155c-0.988-2.515-1.909-4.958-2.392-6.213c-1.503,1.553-3.04,2.989-4.591,4.303
			c0.705,1.126,1.888,2.934,3.297,4.925C63.925,39.933,65.164,38.879,65.954,38.155z"/>
		
			<linearGradient id="SVGID_5_" gradientUnits="userSpaceOnUse" x1="832.3545" y1="-996.2969" x2="841.7095" y2="-990.6324" gradientTransform="matrix(1.5584 0 0 1.5584 -1249.8174 1593.3887)">
			<stop  offset="0" style="stop-color:#44C8F5"/>
			<stop  offset="0.0288" style="stop-color:#36C4F3"/>
			<stop  offset="0.2534" style="stop-color:#00AFEA"/>
			<stop  offset="0.423" style="stop-color:#00A4E5"/>
			<stop  offset="0.5169" style="stop-color:#00A1E4"/>
			<stop  offset="1" style="stop-color:#0066B3"/>
		</linearGradient>
		<path fill="url(#SVGID_5_)" d="M55.006,46.969c1.788,0.835,3.688,1.666,5.504,2.314c0.716-0.283,1.386-0.57,2.024-0.87
			c-1.593-0.705-3.408-1.685-5.198-2.714C56.597,46.115,55.817,46.536,55.006,46.969z"/>
		
			<linearGradient id="SVGID_6_" gradientUnits="userSpaceOnUse" x1="832.2314" y1="-996.1167" x2="841.5995" y2="-990.4443" gradientTransform="matrix(1.5584 0 0 1.5584 -1249.8174 1593.3887)">
			<stop  offset="0" style="stop-color:#44C8F5"/>
			<stop  offset="0.0288" style="stop-color:#36C4F3"/>
			<stop  offset="0.2534" style="stop-color:#00AFEA"/>
			<stop  offset="0.423" style="stop-color:#00A4E5"/>
			<stop  offset="0.5169" style="stop-color:#00A1E4"/>
			<stop  offset="1" style="stop-color:#0066B3"/>
		</linearGradient>
		<path fill="url(#SVGID_6_)" d="M56.281,45.064c-1.845-1.105-3.608-2.25-5.023-3.229c-0.97,0.604-1.938,1.151-2.877,1.666
			c1.313,0.747,3.253,1.813,5.447,2.894C54.683,45.953,55.503,45.504,56.281,45.064z"/>
		
			<linearGradient id="SVGID_7_" gradientUnits="userSpaceOnUse" x1="-526.3853" y1="-1238.5049" x2="-541.17" y2="-1228.3405" gradientTransform="matrix(0.767 -0.028 0.028 0.767 523.9307 972.7705)">
			<stop  offset="0" style="stop-color:#44C8F5"/>
			<stop  offset="0.0288" style="stop-color:#36C4F3"/>
			<stop  offset="0.2534" style="stop-color:#00AFEA"/>
			<stop  offset="0.423" style="stop-color:#00A4E5"/>
			<stop  offset="0.5169" style="stop-color:#00A1E4"/>
			<stop  offset="1" style="stop-color:#0066B3"/>
		</linearGradient>
		<path fill="url(#SVGID_7_)" d="M74.668,44.757c0.489,0.533,1.058,1.106,1.698,1.694c3.42-1.484,6.413-3.752,8.08-5.156
			c-0.973-1.338-1.853-2.678-2.625-3.993C79.024,40.878,75.429,44.096,74.668,44.757z"/>
		
			<linearGradient id="SVGID_8_" gradientUnits="userSpaceOnUse" x1="-716.0303" y1="-1222.3164" x2="-692.0691" y2="-1216.6396" gradientTransform="matrix(0.7855 0 0 0.7855 595.2554 1008.0459)">
			<stop  offset="0" style="stop-color:#44C8F5"/>
			<stop  offset="0.0288" style="stop-color:#36C4F3"/>
			<stop  offset="0.2534" style="stop-color:#00AFEA"/>
			<stop  offset="0.423" style="stop-color:#00A4E5"/>
			<stop  offset="0.5169" style="stop-color:#00A1E4"/>
			<stop  offset="1" style="stop-color:#0066B3"/>
		</linearGradient>
		<path fill="url(#SVGID_8_)" d="M37.663,48.193c-0.941,0.308-1.748,0.553-2.377,0.743l0,0l0,0c-0.006,0-0.092,0.022-0.112,0.063
			c-0.015,0.015-0.029,0.077,0.083,0.131c2.268,0.739,4.675,1.368,6.908,1.864c0.871-0.246,1.722-0.509,2.555-0.785
			C42.192,49.554,39.701,48.844,37.663,48.193z"/>
		
			<linearGradient id="SVGID_9_" gradientUnits="userSpaceOnUse" x1="-716.0371" y1="-1222.2051" x2="-692.1042" y2="-1216.535" gradientTransform="matrix(0.7855 0 0 0.7855 595.2554 1008.0459)">
			<stop  offset="0" style="stop-color:#44C8F5"/>
			<stop  offset="0.0288" style="stop-color:#36C4F3"/>
			<stop  offset="0.2534" style="stop-color:#00AFEA"/>
			<stop  offset="0.423" style="stop-color:#00A4E5"/>
			<stop  offset="0.5169" style="stop-color:#00A1E4"/>
			<stop  offset="1" style="stop-color:#0066B3"/>
		</linearGradient>
		<path fill="url(#SVGID_9_)" d="M46.382,50.62c-0.781,0.266-1.583,0.517-2.398,0.756c2.122,0.428,3.97,0.731,5.217,0.905
			c0.928-0.149,1.82-0.302,2.679-0.483C50.197,51.505,48.304,51.083,46.382,50.62z"/>
		
			<linearGradient id="SVGID_10_" gradientUnits="userSpaceOnUse" x1="828.8027" y1="-994.2891" x2="839.3589" y2="-989.7778" gradientTransform="matrix(1.5584 0 0 1.5584 -1249.2949 1593.127)">
			<stop  offset="0" style="stop-color:#44C8F5"/>
			<stop  offset="0.0288" style="stop-color:#36C4F3"/>
			<stop  offset="0.2534" style="stop-color:#00AFEA"/>
			<stop  offset="0.423" style="stop-color:#00A4E5"/>
			<stop  offset="0.5169" style="stop-color:#00A1E4"/>
			<stop  offset="1" style="stop-color:#0066B3"/>
		</linearGradient>
		<path fill="url(#SVGID_10_)" d="M52.437,47.085c-2.216-0.985-4.287-2.002-5.689-2.721c-0.865,0.441-1.715,0.843-2.528,1.224
			c1.786,0.796,3.903,1.664,6.057,2.489C51.02,47.748,51.736,47.426,52.437,47.085z"/>
		
			<linearGradient id="SVGID_11_" gradientUnits="userSpaceOnUse" x1="828.8125" y1="-994.3418" x2="839.3845" y2="-989.8239" gradientTransform="matrix(1.5584 0 0 1.5584 -1249.2949 1593.127)">
			<stop  offset="0" style="stop-color:#44C8F5"/>
			<stop  offset="0.0288" style="stop-color:#36C4F3"/>
			<stop  offset="0.2534" style="stop-color:#00AFEA"/>
			<stop  offset="0.423" style="stop-color:#00A4E5"/>
			<stop  offset="0.5169" style="stop-color:#00A1E4"/>
			<stop  offset="1" style="stop-color:#0066B3"/>
		</linearGradient>
		<path fill="url(#SVGID_11_)" d="M51.617,48.578c1.985,0.727,3.938,1.391,5.645,1.867c0.717-0.224,1.409-0.456,2.071-0.696
			c-1.672-0.495-3.679-1.267-5.661-2.12C53.007,47.955,52.327,48.262,51.617,48.578z"/>
		
			<linearGradient id="SVGID_12_" gradientUnits="userSpaceOnUse" x1="824.8887" y1="-993.7158" x2="836.2976" y2="-989.8369" gradientTransform="matrix(1.5584 0.0123 -0.0123 1.5584 -1260.0117 1584.2402)">
			<stop  offset="0" style="stop-color:#44C8F5"/>
			<stop  offset="0.0288" style="stop-color:#36C4F3"/>
			<stop  offset="0.2534" style="stop-color:#00AFEA"/>
			<stop  offset="0.423" style="stop-color:#00A4E5"/>
			<stop  offset="0.5169" style="stop-color:#00A1E4"/>
			<stop  offset="1" style="stop-color:#0066B3"/>
		</linearGradient>
		<path fill="url(#SVGID_12_)" d="M48.84,48.688c-2.522-0.842-4.896-1.692-6.496-2.274c-0.922,0.387-1.801,0.739-2.617,1.048
			c1.702,0.58,4.149,1.389,6.741,2.137C47.288,49.302,48.072,49,48.84,48.688z"/>
		
			<linearGradient id="SVGID_13_" gradientUnits="userSpaceOnUse" x1="824.9502" y1="-993.8989" x2="836.3615" y2="-990.0192" gradientTransform="matrix(1.5584 0.0123 -0.0123 1.5584 -1260.0117 1584.2402)">
			<stop  offset="0" style="stop-color:#44C8F5"/>
			<stop  offset="0.0288" style="stop-color:#36C4F3"/>
			<stop  offset="0.2534" style="stop-color:#00AFEA"/>
			<stop  offset="0.423" style="stop-color:#00A4E5"/>
			<stop  offset="0.5169" style="stop-color:#00A1E4"/>
			<stop  offset="1" style="stop-color:#0066B3"/>
		</linearGradient>
		<path fill="url(#SVGID_13_)" d="M48.029,50.033c2.028,0.558,4.066,1.042,5.825,1.34c0.712-0.164,1.406-0.342,2.069-0.536
			c-1.706-0.446-3.682-1.053-5.644-1.679C49.55,49.464,48.8,49.762,48.029,50.033z"/>
		
			<linearGradient id="SVGID_14_" gradientUnits="userSpaceOnUse" x1="-514.9053" y1="-1220.9697" x2="-533.7218" y2="-1217.3739" gradientTransform="matrix(0.7675 0 0 0.7675 487.8154 984.2813)">
			<stop  offset="0" style="stop-color:#44C8F5"/>
			<stop  offset="0.0288" style="stop-color:#36C4F3"/>
			<stop  offset="0.2534" style="stop-color:#00AFEA"/>
			<stop  offset="0.423" style="stop-color:#00A4E5"/>
			<stop  offset="0.5169" style="stop-color:#00A1E4"/>
			<stop  offset="1" style="stop-color:#0066B3"/>
		</linearGradient>
		<path fill="url(#SVGID_14_)" d="M81.694,50.242c1.995-0.162,5.683-0.592,9.418-1.806c-0.7-0.591-1.377-1.203-2.027-1.815
			c-1.879,0.705-5.413,1.993-9.292,2.474C80.387,49.493,81.019,49.868,81.694,50.242z"/>
		
			<linearGradient id="SVGID_15_" gradientUnits="userSpaceOnUse" x1="-519.7217" y1="-1225.4126" x2="-536.0118" y2="-1220.3021" gradientTransform="matrix(0.7675 0 0 0.7675 487.8154 984.2813)">
			<stop  offset="0" style="stop-color:#44C8F5"/>
			<stop  offset="0.0288" style="stop-color:#36C4F3"/>
			<stop  offset="0.2534" style="stop-color:#00AFEA"/>
			<stop  offset="0.423" style="stop-color:#00A4E5"/>
			<stop  offset="0.5169" style="stop-color:#00A1E4"/>
			<stop  offset="1" style="stop-color:#0066B3"/>
		</linearGradient>
		<path fill="url(#SVGID_15_)" d="M78.953,48.52c1.633-0.314,5.319-1.297,8.97-3.071c-0.768-0.798-1.501-1.625-2.176-2.468
			c-1.771,1.085-5.303,3.088-8.629,4.123C77.676,47.574,78.288,48.051,78.953,48.52z"/>
		
			<linearGradient id="SVGID_16_" gradientUnits="userSpaceOnUse" x1="-513.355" y1="-1216.8423" x2="-531.3557" y2="-1216.3713" gradientTransform="matrix(0.7675 0 0 0.7675 488.5854 984.2813)">
			<stop  offset="0" style="stop-color:#44C8F5"/>
			<stop  offset="0.0288" style="stop-color:#36C4F3"/>
			<stop  offset="0.2534" style="stop-color:#00AFEA"/>
			<stop  offset="0.423" style="stop-color:#00A4E5"/>
			<stop  offset="0.5169" style="stop-color:#00A1E4"/>
			<stop  offset="1" style="stop-color:#0066B3"/>
		</linearGradient>
		<path fill="url(#SVGID_16_)" d="M93.715,50.417c-0.565-0.399-1.108-0.799-1.642-1.209c-1.079,0.35-4.608,1.412-9.283,1.596
			c0.684,0.34,1.399,0.661,2.152,0.962c2.007,0.083,5.071-0.052,8.771-1.141c0.064-0.026,0.086-0.056,0.088-0.096
			C93.805,50.478,93.715,50.417,93.715,50.417z"/>
		
			<linearGradient id="SVGID_17_" gradientUnits="userSpaceOnUse" x1="-692.355" y1="-1235.123" x2="-678.3271" y2="-1222.8376" gradientTransform="matrix(0.7855 0 0 0.7855 596.9502 1007.8486)">
			<stop  offset="0" style="stop-color:#44C8F5"/>
			<stop  offset="0.0288" style="stop-color:#36C4F3"/>
			<stop  offset="0.2534" style="stop-color:#00AFEA"/>
			<stop  offset="0.423" style="stop-color:#00A4E5"/>
			<stop  offset="0.5169" style="stop-color:#00A1E4"/>
			<stop  offset="1" style="stop-color:#0066B3"/>
		</linearGradient>
		<path fill="url(#SVGID_17_)" d="M56.881,37.949c-1.258,0.979-2.521,1.886-3.781,2.725c2.18,1.858,6.662,5.396,10.219,7.354
			c0.792-0.388,1.522-0.797,2.199-1.192C63.313,44.826,58.698,39.901,56.881,37.949z"/>
		
			<linearGradient id="SVGID_18_" gradientUnits="userSpaceOnUse" x1="-1623.959" y1="628.8389" x2="-1622.9855" y2="657.0725" gradientTransform="matrix(0.8736 0 0 0.8736 1488.1694 -529.6577)">
			<stop  offset="0" style="stop-color:#44C8F5"/>
			<stop  offset="0.0288" style="stop-color:#36C4F3"/>
			<stop  offset="0.2534" style="stop-color:#00AFEA"/>
			<stop  offset="0.423" style="stop-color:#00A4E5"/>
			<stop  offset="0.5169" style="stop-color:#00A1E4"/>
			<stop  offset="1" style="stop-color:#0066B3"/>
		</linearGradient>
		<path fill="url(#SVGID_18_)" d="M66.066,29.219c1.02,4.75,2.575,12.235,3.148,15.017c1.258-1.055,2.135-2.013,2.708-2.717
			c1.836-10.143,1.343-20.517,1.343-20.517c-0.002-0.084-0.009-0.73-0.203-0.804c-0.26-0.098-0.418,0.183-0.418,0.183
			S68.752,26.286,66.066,29.219z"/>
	</g>
</g>
</svg>
