<?xml version="1.0" encoding="utf-8"?>
<!-- Generator: Adobe Illustrator 16.0.0, SVG Export Plug-In . SVG Version: 6.00 Build 0)  -->
<!DOCTYPE svg PUBLIC "-//W3C//DTD SVG 1.1//EN" "http://www.w3.org/Graphics/SVG/1.1/DTD/svg11.dtd">
<svg version="1.1" id="zoneLogoSeoul" xmlns="http://www.w3.org/2000/svg" xmlns:xlink="http://www.w3.org/1999/xlink" x="0px"
	 y="0px" width="330px" height="80px" viewBox="0 0 330 80" enable-background="new 0 0 330 80" xml:space="preserve">
<g>
	<path fill="#BD1339" d="M92.743,14.815c0.078,0.128,0.184,0.236,0.193,0.361c0.118,0.356,0.454,0.581,0.491,0.945
		c0.015,0.123,0.175,0.174,0.259,0.225c0.09,0.121,0.032,0.249,0.206,0.419c0.077,0.049,0.013,0.187,0.029,0.306
		c0.083,0.05,0.169,0.111,0.251,0.163c0.752,1.168,0.825,2.531-0.043,3.791c-0.146,0.146-0.276,0.34-0.328,0.537
		c-0.068,0.068-0.224,0.143-0.294,0.209c0.017,0.124,0.099,0.18,0.191,0.292c-0.373,0.1-0.422,0.413-0.705,0.628
		c-0.076,0.003-0.228,0.019-0.304,0.027c-0.218,0.211-0.439,0.291-0.652,0.439c-0.067,0.067-0.056,0.25-0.047,0.314
		c-0.352,0.277-0.879,0.453-1.424,0.439c-0.074,0.009-0.127,0.205-0.202,0.212c-0.384,0.032-0.851,0.012-1.24,0.051
		c-0.161-0.05-0.248-0.163-0.407-0.209c-0.157,0.01-0.311,0.025-0.471-0.016c-0.244-0.167-0.562-0.203-0.802-0.303
		c-0.159-0.048-0.458,0.103-0.625,0c-0.51-0.455-1.028-0.898-1.307-1.371c-0.193-0.299-0.512-0.384-0.617-0.693
		c-0.016-0.119,0.04-0.314-0.123-0.357c-0.32-0.098-0.19-0.291-0.203-0.479c-0.098-0.178-0.115-0.297-0.291-0.47
		c-0.097-0.179,0.033-0.442-0.073-0.681c-0.008-0.059,0.061-0.127,0.054-0.186c-0.112-0.367,0.081-0.757,0.042-1.063
		c-0.023-0.188,0.033-0.433,0.085-0.629c0.191-0.39,0.37-0.84,0.716-1.246c-0.009-0.068-0.024-0.187-0.03-0.245
		c0.067-0.069,0.144-0.076,0.223-0.145c0.114-0.32,0.237-0.585,0.445-0.855c0.27-0.335,0.704-0.625,1.058-0.971
		c0.205-0.202,0.496-0.352,0.695-0.685c0.07-0.067,0.314,0.037,0.384-0.032c0.205-0.209,0.521-0.172,0.741-0.318
		c0.214-0.15,0.175,0.163,0.396,0.08c0.152-0.006,0.221-0.08,0.366-0.158c0.221-0.081,0.473,0.079,0.711,0.124
		c0.228-0.023,0.465,0.023,0.718,0.185c0.334,0.214,1.098,0.143,1.228,0.566C92.218,14.311,92.552,14.525,92.743,14.815z"/>
	<path fill="#0087CB" d="M105.722,19.682c-0.009-0.186,0-0.307-0.077-0.507c-0.024-0.195,0.127-0.404,0.063-0.67
		c-0.039-0.069-0.139-0.153-0.125-0.211c0.125-0.405,0.137-0.775,0.101-1.215c-0.027-0.129-0.076-0.198-0.115-0.277
		c0.011-0.061,0.027-0.173,0.051-0.297c0.011-0.366-0.11-0.644-0.214-0.977c-0.037-0.129-0.137-0.214-0.151-0.397
		c-0.048-0.08-0.145-0.159-0.138-0.223c0.1-0.533-0.164-0.966-0.24-1.472c-0.114-0.584-0.667-0.95-0.843-1.55
		c0.01-0.058,0.194-0.029,0.246-0.018c0.434,0.398,0.912,0.875,1.032,1.46c0.076,0.209,0.039,0.378,0.127,0.529
		c0.375,0.449,0.438,1.022,0.502,1.592c-0.012,0.06,0.112,0.02,0.151,0.092c-0.012,0.067-0.028,0.181,0.012,0.25
		c0.278,0.309,0.112,0.643,0.165,0.966c0.037,0.127,0.075,0.204,0.114,0.278c-0.002,0.058-0.15,0.213-0.159,0.267
		c0.233,0.295,0.323,0.693,0.261,1.05c0.264,0.121,0.139,0.462,0.211,0.728c0.037,0.07,0.091,0.084,0.152,0.097
		c0.074-0.11,0.149-0.221,0.171-0.336c0.029-0.489,0.054-0.921-0.035-1.37c-0.074-0.198-0.102-0.393,0.039-0.546
		c-0.102-0.027-0.14-0.155-0.178-0.226c-0.2-0.784-0.281-1.665-0.512-2.469c0,0,0.061-0.053,0.077-0.109
		c-0.084-0.702-0.617-1.367-0.873-2.076c-0.035-0.122-0.247-0.273-0.345-0.414c0,0,0.008-0.058,0.015-0.116
		c0.279,0.035,0.484,0.301,0.627,0.51c0.293,0.4,0.624,0.855,0.709,1.305c0.154,0.404,0.377,0.835,0.469,1.229
		c0.058,0.255,0.25,0.427,0.375,0.65c0.07,0.204,0.034,0.383,0.049,0.567c0.078,0.463,0.222,0.897,0.303,1.347
		c0.11,0.335,0.159,0.712,0.046,1.005c-0.149,0.52,0.191,1.092,0.339,1.554c0.077,0.211-0.023,0.434-0.11,0.601
		c-0.012,0.058,0.087,0.142,0.074,0.198c-0.1,0.225-0.023,0.434-0.063,0.672c-0.063,0.042,0.075,0.197,0,0.305
		c-0.063,0.047-0.123,0.038-0.187,0.087c-0.088,0.168-0.013,0.365-0.04,0.547c-0.176,0.333-0.086,0.783-0.413,1.021
		c-0.126,0.039-0.128,0.098-0.202,0.14c0.062,0.013,0.102,0.084,0.148,0.154c-0.073,0.052-0.125,0.039-0.187,0.083
		c-0.023,0.123,0.206,0.269,0.255,0.337c-0.088,0.478-0.45,0.897-0.438,1.458c-0.022,0.114-0.053,0.294-0.075,0.419
		c-0.106,0.281-0.315,0.487-0.425,0.771c-0.016,0.114-0.243,0.127-0.268,0.252c-0.139,0.154-0.132,0.406-0.226,0.631
		c-0.075,0.107-0.239,0.071-0.375,0.167c-0.15,0.209-0.127,0.407-0.226,0.629c-0.165,0.268-0.357,0.571-0.519,0.839
		c-0.188,0.392-0.499,0.778-0.835,1.074c-0.051-0.013-0.176,0.023-0.24,0.069c-0.174,0.336-0.369,0.589-0.736,0.75
		c-0.059-0.006-0.141,0.245-0.204,0.298c-0.256,0.183-0.401,0.405-0.708,0.578c-0.12,0.039-0.182,0.083-0.306-0.128
		c-0.403,0.714-0.94,1.273-1.529,1.765c-0.303,0.18-0.613,0.158-0.82,0.354c-0.66,0.659-1.721,1.352-1.846,1.451
		c-0.049-0.014-0.248,0.298-0.248,0.298c-0.223,0.01-0.094,0.033-0.297-0.009c0,0-0.01,0.328-0.275,0.391
		c-0.575,0.105-0.727,0.776-0.771,1.05c-0.02,0.134-0.116,0.044-0.181,0.102c-0.061,0.051-0.025,0.138-0.087,0.187
		c-0.25,0.152-0.461,0.468-0.675,0.696c-0.062,0.061-0.101-0.03-0.17,0.033c-0.067,0.057-0.369,0.429-0.478,0.76
		c-0.258,0.573-0.55,1.097-0.903,1.52c-0.089,0.092,0.198,0.483,0.184,0.615c-0.083,0.186-0.25,0.2-0.331,0.387
		c-0.074,0.451-0.097,0.963-0.175,1.443c-0.126,0.47,0.035,0.806,0.098,1.222c0.069,0.354-0.022,0.809-0.002,1.153
		c0.018,0.279,0.211,0.591,0.177,0.853c0.01,0.404-0.079,0.362,0.005,0.7c-0.007,0.199-0.078,0.404-0.025,0.541
		c-0.019,0.265-0.059,0.434-0.074,0.718c-0.065,0.053-0.178,0.177-0.182,0.252c-0.043,0.684-0.484,1.274-0.947,1.714
		c-0.288,0.188-0.534,0.466-0.864,0.438c-0.166-0.003-0.714,0.342-0.902,0.392c-0.488,0.133-0.876,0.136-1.339,0.083
		c-0.52-0.156-0.926-0.281-1.278-0.796c-0.206-0.242-0.574-0.159-0.708-0.511c-0.046-0.14-0.341-0.224-0.386-0.287
		c-0.273-0.252-0.414-0.544-0.621-0.842c-0.133-0.365-0.032-0.601-0.196-0.955c-0.17-0.221-0.242-0.371-0.411-0.589
		c-0.223-0.282,0.049-0.682-0.11-0.958c-0.118-0.086-0.232-0.225-0.284-0.363c-0.112-0.272-0.083-0.687-0.249-0.977
		c-0.092-0.356-0.027-1.632,0.039-1.98c0.015-0.058-0.188-0.168-0.176-0.224c0.031-0.498,0.194-0.979,0.161-1.494
		c0.048-0.269,0.03-0.496,0.27-0.72c0,0-0.112-0.109-0.098-0.166c0.143-0.408,0.141-0.715,0.219-1.121
		c0.015-0.077,0.158-0.114,0.173-0.183c-0.081-0.302-0.084-0.916-0.036-1.2c0.031-0.135,0.38-0.334,0.463-0.464
		c0.014-0.06-0.048-0.24,0.082-0.481c0.039-0.054,0.133-0.041,0.201-0.096c0.012-0.07-0.039-0.149-0.025-0.219
		c0.039-0.208,0.38-0.358,0.409-0.493c0.134-0.467,0.369-0.667,0.615-1.046c0.091-0.167,0.128-0.349,0.271-0.502
		c0.063-0.042,0.1-0.001,0.112-0.059c0.002-0.058-0.021-0.187-0.012-0.252c0.136-0.155,0.331-0.295,0.356-0.476
		c0.098-0.225,0.184-0.391,0.318-0.547c0.257-0.185,0.514-0.379,0.671-0.656c0.134-0.155,0.294-0.115,0.43-0.27
		c0.205-0.209,0.255-0.502,0.402-0.714c0.354-0.42,0.733-0.701,1.112-0.993c0.317-0.239,0.722-0.336,1.027-0.507
		c0.318-0.238,0.513-0.696,0.819-0.867c0.193-0.151,0.415-0.156,0.605-0.306c0.189-0.142,0.349-0.41,0.637-0.478
		c0.636-0.167,0.176,0.014,0.774-0.224c0.367-0.224,0.214-0.285,0.582-0.51c0.622-0.363,0.941-0.59,0.99-0.577
		c0.062-0.052,0.123-0.098,0.146-0.211c0.147-0.223,0.934-0.773,1.056-0.803c0.113-0.04,0.256,0.114,0.39-0.04
		c0.073-0.111-0.074-0.198,0-0.309c0.201-0.202,0.394-0.476,0.595-0.617c0.062-0.053,0.214,0.044,0.328,0.012
		c0.073-0.052,0.087-0.167,0.155-0.219c0.078-0.101-0.068-0.254,0.007-0.368c0.088-0.167,0.175-0.334,0.3-0.363
		c0.179-0.084,0.428-0.221,0.403-0.348c0.036-0.239,0.137-0.464,0.388-0.602c0.013-0.055,0.016-0.116,0.026-0.171
		c0.148-0.155,0.275-0.25,0.416-0.404c0.149-0.222,0.085-0.476,0.175-0.645c0.275-0.309,0.552-0.558,0.627-0.979
		c-0.023-0.195-0.139-0.463-0.05-0.632c0.074-0.108,0.313-0.18,0.333-0.292c0.042-0.239-0.078-0.518-0.084-0.768
		c0.025-0.173,0.225-0.322,0.201-0.506c-0.025-0.503,0.012-0.993-0.062-1.498c0.173-0.026,0.189-0.153,0.211-0.267
		c-0.038-0.378-0.263-0.739-0.352-1.133c-0.012-0.251,0.188-0.45,0.176-0.699c-0.015-0.195-0.2-0.421-0.403-0.587
		c-0.176-0.225-0.062-0.573-0.125-0.827c-0.051-0.321-0.292-0.562-0.34-0.943c-0.018-0.191-0.251-0.177-0.327-0.386
		c-0.063-0.253-0.127-0.519-0.127-0.828c-0.037-0.137-0.202-0.11-0.302-0.193c-0.218-0.352-0.139-1.08-0.618-1.246
		c0.039-0.239-0.175-0.291-0.251-0.49c0.278,0,0.541,0.119,0.705,0.462c0.039,0.069,0.202,0.111,0.263,0.125
		c0.14,0.153,0.128,0.518,0.279,0.617c0.199,0.166,0.488,0.108,0.565,0.308c0.112,0.333,0.354,0.515,0.479,0.783
		c-0.013,0.058,0.024,0.195,0.062,0.266c0.202,0.167,0.215,0.35,0.362,0.504c0.325,0.39,0.645,0.769,0.493,1.288
		c-0.087,0.225,0.201,0.167,0.291,0.307c0.214,0.362,0.125,0.84,0.413,1.147c-0.061,0.604,0.241,1.164,0.418,1.707
		c-0.315,0.483-0.138,1.342,0.113,1.831c0,0,0.176-0.025,0.188-0.083c0.051-0.303,0.59-0.396,0.501-0.547
		c-0.103-0.327-0.266-1.029-0.266-1.336c0.027-0.492,0.05-0.914-0.025-1.43c-0.048-0.071-0.087-0.141-0.129-0.21
		c-0.071-0.266-0.134-0.526-0.081-0.825c-0.028-0.129-0.128-0.209-0.159-0.338c0.006-0.068,0.031-0.182,0.042-0.238
		c0.117-0.04,0.276,0.057,0.377,0.08c0.102,0.08,0.012,0.244,0.058,0.318c0.169,0.288,0.432,0.402,0.483,0.725
		c-0.006,0.065-0.026,0.18-0.037,0.237c0.039,0.389,0.271,0.684,0.327,1.006c0.022,0.183-0.137,0.46-0.062,0.66
		c0.243,0.49,0.252,1.048,0.215,1.595c-0.049,0.237,0.261,0.432,0.174,0.598c-0.086,0.169,0.016,0.191-0.064,0.354
		c-0.011,0.067-0.135,0.096-0.146,0.156c0.162,0.348-0.084,0.875-0.136,1.171c-0.012,0.057,0.189,0.119,0.224-0.099
		c0.027-0.127,0.251-0.126,0.374-0.166C105.635,20.157,105.733,19.932,105.722,19.682z M106.888,20.871
		c0.012-0.301,0.151-0.519,0.1-0.841c-0.111-0.336-0.357-0.003-0.525,0.023c0.092,0.392-0.071,0.659-0.186,1.009
		c-0.074,0.11-0.129,0.405,0.039,0.378C106.591,21.499,106.877,21.247,106.888,20.871z M106.425,22.506
		c0.066-0.098,0.04-0.293-0.06-0.373c-0.149-0.092-0.351,0.05-0.439,0.217c-0.089,0.167-0.021,0.423,0.214,0.418
		C106.19,22.773,106.349,22.611,106.425,22.506z"/>
	<path fill="#0087CB" d="M103.23,12.345c0.288,0.225,0.404,0.587,0.63,0.881l-0.023,0.125c-0.396,0.347-0.745-0.227-0.857-0.561
		c-0.162-0.348-0.325-0.686-0.618-0.939c0.014-0.063,0.026-0.122,0.04-0.181c-0.151-0.155-0.326-0.377-0.151-0.462
		c0.076-0.11,0.214,0.103,0.364,0.199C102.84,11.708,102.882,12.088,103.23,12.345z"/>
	<path fill="#0087CB" d="M104.873,10.824c0,0.059-0.088,0.164-0.102,0.22c-0.193-0.175-0.375-0.353-0.54-0.641
		c-0.06-0.019-0.16-0.047-0.209-0.123c-0.049-0.006-0.036-0.071-0.026-0.127c0.171-0.019,0.314,0.142,0.462,0.245
		c0.048,0.017,0.116-0.033,0.174-0.018C104.78,10.483,104.864,10.628,104.873,10.824z"/>
	<path fill="#2E9647" d="M80.377,21.776c0.059,0.04,0.136,0.115,0.172,0.165c0.089,0.056,0.18,0.063,0.277,0.026
		c0.09,0.008,0.171,0.241,0.254,0.247c0.137,0.06,0.219,0.291,0.342,0.398c0.088,0.06,0.181,0.144,0.269,0.2
		c0.119,0.159,0.2,0.314,0.334,0.429c0.084,0.1,0.22,0.067,0.313,0.074c0.169,0.063,0.25,0.322,0.371,0.481
		c0.042,0.005,0.12,0.161,0.118,0.208c0.085,0.052,0.17,0.162,0.309,0.22c0.034,0.059,0.029,0.154,0.074,0.213
		c0.328,0.523,0.752,0.859,1.035,1.433c0,0,0.031,0.096,0.028,0.152c0.341,0.329,0.488,0.789,0.782,1.16
		c0.081,0.154,0.156,0.413,0.229,0.614c0.084,0.111,0.17,0.165,0.249,0.276c0.124,0.206,0.24,0.468,0.266,0.721
		c-0.008,0.101-0.071,0.392-0.245,0.228c-0.208-0.214-0.184-0.518-0.405-0.679c0.004-0.054-0.051-0.181-0.093-0.238
		c-0.084-0.096-0.239-0.089-0.279-0.24c0.013-0.158-0.156-0.275-0.242-0.382c-0.213-0.307-0.525-0.417-0.787-0.731
		c-0.043,0-0.094,0-0.137,0.042c-0.054,0.1-0.193,0.241-0.065,0.396c0.177,0.112,0.261,0.311,0.482,0.426
		c0.138,0.098,0.167,0.407,0.247,0.652c0.087,0.105,0.176,0.212,0.306,0.268c0.139,0.108,0.081,0.267,0.21,0.428
		c-0.004,0.046-0.052,0.096-0.054,0.142c0.081,0.158,0.256,0.116,0.389,0.277c0.09-0.085,0.229-0.011,0.308,0.132
		c-0.146,0.136-0.114,0.241-0.167,0.387c-0.153,0.235,0.189,0.461,0.413,0.584c0.134,0.007,0.112,0.252,0.248,0.366
		c0.08,0.157,0.304,0.178,0.42,0.383c0.044,0.106-0.052,0.144-0.102,0.241c-0.013,0.148,0.165,0.21,0.245,0.274
		c0.086,0.055,0.13,0.162,0.162,0.256c-0.136,0.044-0.401-0.145-0.541-0.159c-0.085-0.033-0.25-0.233-0.419-0.265
		c-0.064-0.016-0.101,0.126-0.164,0.11c-0.082-0.007-0.171-0.025-0.263-0.045c-0.098-0.02-0.327-0.274-0.428-0.282
		c-0.108-0.022-0.254,0.182-0.357,0.161c-0.411-0.067-0.429-0.089-0.553-0.148c-0.151-0.06-0.303-0.129-0.435-0.206
		c-0.089-0.043-0.062-0.165-0.145-0.215c-0.083-0.061-0.263-0.06-0.347-0.108c-0.328-0.197-0.635-0.656-0.91-0.799
		c-0.188-0.097-0.342-0.193-0.542-0.283c-0.104-0.07-0.174-0.209-0.305-0.245c-0.382-0.136-0.69-0.379-1.124-0.499
		c-0.833-0.235-1.519,0.241-2.198,0.593c-0.03,0-0.107-0.008-0.142,0.011c-0.155,0.14-0.341,0.209-0.495,0.308
		c-0.205,0.165-0.502,0.213-0.733,0.345c-0.073,0.05-0.082,0.181-0.152,0.219c-0.104,0.072-0.304,0.077-0.416,0.152
		c-0.09,0.063-0.104,0.172-0.202,0.243c-0.196,0.156-0.38,0.289-0.646,0.408c-0.148,0.076-1.388,0.294-1.601,0.298
		c-0.321,0.005-0.541,0.263-1.019,0.262c-0.729-0.004-1.457-0.017-2.057-0.467c-0.126-0.106-0.151-0.414-0.237-0.468
		c-0.264-0.172-0.235-0.514-0.309-0.771c-0.085-0.061-0.27-0.068-0.257-0.22c0.103-0.743,0.465-1.419,0.915-1.924
		c0.104-0.196,0.337-0.276,0.358-0.527c0,0,0.404-0.569,0.65-0.796c0.05-0.094-0.03-0.253,0.027-0.341
		c0.37-0.721,1.037-1.217,1.593-1.875c0.146-0.134,0.244-0.332,0.477-0.356c0.091,0.008,0.181,0.012,0.237-0.081
		c0.104-0.24,0.301-0.382,0.443-0.464c0.521-0.359,0.968-0.898,1.564-1c0.095-0.037,0.145-0.134,0.239-0.184
		c0.103-0.089,0.277,0.024,0.373-0.013c0.443-0.206,0.851-0.633,1.307-0.702c0.096-0.037,0.146-0.136,0.196-0.131
		c0.409,0.039,0.889-0.329,1.27,0.051C79.644,21.517,80.163,21.587,80.377,21.776z M83.497,26.138
		c0.001-0.046,0.004-0.102,0.005-0.148c-0.179-0.112-0.258-0.413-0.482-0.472c-0.04-0.002-0.134,0.04-0.137,0.095
		c-0.013,0.297,0.111,0.501,0.243,0.755c0.049-0.191,0.182-0.183,0.269-0.031C83.447,26.283,83.493,26.192,83.497,26.138z"/>
</g>
<g>
	<path fill="#FFFFFF" d="M126.997,40.082l-2.055,2.149l-5.715-5.575c-0.748,1.338-1.643,2.469-2.687,3.398
		c-1.042,0.927-2.079,1.676-3.111,2.254l-2-2.27c1.127-0.573,2.089-1.232,2.888-1.979c0.797-0.744,1.453-1.533,1.953-2.363
		c0.51-0.829,0.877-1.67,1.113-2.532c0.232-0.861,0.355-1.712,0.355-2.533v-3.948h3.149v3.384c0,0.66-0.037,1.288-0.123,1.884
		c-0.086,0.606-0.198,1.181-0.325,1.746L126.997,40.082z M133.53,49.784h-2.98V34.686h-6.225v-2.873h6.225v-7.661h2.98V49.784z"/>
	<path fill="#FFFFFF" d="M160.55,38.573h-10.673v1.404h5.293v6.628h-10.219v1.268h10.896v2.871h-13.993v-6.873h10.193v-1.128
		h-10.333v-2.766h5.15v-1.404h-10.448v-2.819h24.133V38.573z M154.919,29.507c0,0.809-0.174,1.54-0.526,2.208
		c-0.34,0.67-0.814,1.242-1.387,1.73c-0.607,0.467-1.315,0.839-2.134,1.104c-0.81,0.258-1.699,0.396-2.656,0.396
		c-0.904,0-1.75-0.129-2.548-0.374c-0.798-0.244-1.506-0.595-2.124-1.063c-0.606-0.471-1.08-1.038-1.427-1.708
		c-0.344-0.67-0.52-1.42-0.52-2.264c0-0.847,0.169-1.609,0.51-2.299c0.332-0.682,0.805-1.272,1.405-1.76
		c0.586-0.481,1.277-0.865,2.086-1.12c0.807-0.266,1.681-0.393,2.617-0.393c0.916,0,1.784,0.127,2.602,0.393
		c0.819,0.255,1.527,0.639,2.124,1.12c0.606,0.476,1.084,1.047,1.436,1.737C154.74,27.895,154.919,28.66,154.919,29.507z
		 M151.824,29.475c0-0.883-0.361-1.575-1.074-2.085c-0.713-0.5-1.554-0.755-2.533-0.755c-1.011,0-1.868,0.249-2.548,0.75
		c-0.686,0.488-1.026,1.195-1.026,2.089c0,0.864,0.341,1.544,1.026,2.034c0.68,0.489,1.537,0.732,2.548,0.732
		c0.979,0,1.819-0.232,2.533-0.679C151.462,31.115,151.824,30.411,151.824,29.475z"/>
	<path fill="#FFFFFF" d="M185.908,40.406h-24.111v-2.838h24.111V40.406z M180.67,50.744h-3.014v-5.889h-10.789V41.99h13.803V50.744z
		 M180.609,36.106h-13.631V25.01h13.461v2.851h-10.471v1.204h10.13v2.873h-10.13v1.331h10.641V36.106z"/>
	<path fill="#FFFFFF" d="M199.425,37.244h-11.458V25.536h2.978v3.375h5.47v-3.375h3.011V37.244z M196.414,34.399v-2.638h-5.47v2.638
		H196.414z M207.895,50.743h-13.831v-7.076h10.054v-1.468h-10.192v-2.842h13.3v7.077h-9.998v1.448h10.668V50.743z M208.121,38.539
		h-2.949v-2.724h-4.854v-2.822h4.854v-2.025h-4.854v-2.847h4.854v-3.969h2.949V38.539z"/>
	<path fill="#FFFFFF" d="M226.494,40.178l-2.053,2.131l-5.703-5.597c-0.724,1.349-1.613,2.492-2.655,3.418
		c-1.032,0.927-2.102,1.698-3.165,2.272l-2.002-2.289c1.139-0.616,2.113-1.307,2.911-2.053c0.798-0.744,1.452-1.522,1.965-2.331
		c0.488-0.829,0.853-1.66,1.079-2.509c0.244-0.843,0.355-1.682,0.355-2.501v-4.034h3.149v3.469c0,0.655-0.047,1.283-0.123,1.868
		c-0.094,0.596-0.195,1.165-0.323,1.708L226.494,40.178z M232.656,49.784h-3.01V24.152h3.01V49.784z"/>
</g>
</svg>
