<?xml version="1.0" encoding="utf-8"?>
<!-- Generator: Adobe Illustrator 16.0.0, SVG Export Plug-In . SVG Version: 6.00 Build 0)  -->
<!DOCTYPE svg PUBLIC "-//W3C//DTD SVG 1.1//EN" "http://www.w3.org/Graphics/SVG/1.1/DTD/svg11.dtd">
<svg version="1.1" id="zoneLogoUlsan" xmlns="http://www.w3.org/2000/svg" xmlns:xlink="http://www.w3.org/1999/xlink" x="0px"
	 y="0px" width="330px" height="80px" viewBox="0 0 330 80" enable-background="new 0 0 330 80" xml:space="preserve">
<path fill="#00A5B5" d="M90.774,19.937c0.142,2.014-0.726,2.683-1.982,2.801c-1.063,0-1.709,0.308-2.209,0.869l-5.947,10.17
	c3.312,0.163,6.47,1.359,9.188,5.282c1.522,2.175,4.219,4.034,9.248,4.974c-3.729,0.82-6.366-0.709-10.711-2.068
	c-3.513-1.096-8.869-1.531-12.538,0.164L69.024,53.81c4.65-3.856,13.021-4.877,19.002-2.607c6.885,2.607,13.515,3.373,20.805-0.379
	l-4.995-8.431c-0.85,0.7-1.72,1.098-2.595,1.194l0.957-6.766c-3.045,0.333-5.682-0.408-7.626-2.637
	c-2.89-3.372-5.696-5.87-8.448-6.465c0.712-1.445,2.153-1.23,3.924-0.596c1.276,0.398,3.527-0.083,4.017-1.613L90.774,19.937z"/>
<path fill="#E57D40" d="M81.737,34.279c1.8,0,3.235,1.435,3.281,3.245c0,1.763-1.426,3.249-3.244,3.249
	c-1.764,0-3.245-1.439-3.245-3.194C78.529,35.761,79.964,34.335,81.737,34.279z"/>
<path fill="#FFFFFF" d="M230.691,26.954c-0.49-0.819-1.607-0.765-2.115,0l-7.139,11.798l2.947,1.637l5.213-8.592l5.122,8.592
	l2.933-1.637L230.691,26.954L230.691,26.954z M208.563,27.799c-1.237-1.779-3.374-2.942-5.768-2.942
	c-3.792,0-6.851,2.862-6.851,6.307c0,3.514,3.059,6.337,6.851,6.337c1.69,0,3.2-0.573,4.408-1.524h6.797v4.16h3.358V26.02h-3.358
	v1.779H208.563L208.563,27.799z M209.203,33.34c0.391-0.945,0.502-1.931,0.391-2.964h4.407v2.964H209.203L209.203,33.34z
	 M202.796,27.799c1.904,0,3.427,1.515,3.427,3.365c0,1.91-1.522,3.432-3.427,3.432c-1.926,0-3.452-1.521-3.452-3.432
	C199.344,29.314,200.87,27.799,202.796,27.799L202.796,27.799z M182.199,42.906c1.889,0,3.471,1.524,3.471,3.374
	c0,1.901-1.582,3.424-3.471,3.424c-1.893,0-3.453-1.522-3.453-3.424C178.746,44.431,180.307,42.906,182.199,42.906L182.199,42.906z
	 M182.199,39.974c-3.779,0-6.828,2.84-6.828,6.307c0,3.502,3.049,6.373,6.828,6.373c3.789,0,6.834-2.871,6.834-6.373
	c0-1.359-0.438-2.617-1.254-3.638h2.341v-7.401h3.378v-2.592h-3.378v-6.63h-3.374v10.37h-3.088V26.02h-14.193v2.588h10.765v7.781
	h-3.3v-3.91h-3.421v3.91h-4.538v2.605h17.775v2.552C185.506,40.552,183.926,39.974,182.199,39.974L182.199,39.974z M114.631,34.595
	h6.354c-0.659-1.01-1.083-2.201-1.083-3.432c0-3.445,3.06-6.307,6.847-6.307c3.777,0,6.837,2.862,6.837,6.307
	c0,1.231-0.424,2.421-1.104,3.432h6.584v2.474H128.57v2.002h8.318v7.32h-16.773v2.116h16.773v2.635h-20.204v-7.31h16.779V41.66
	h-16.779v-2.589h8.459v-2.002h-10.513V34.595L114.631,34.595z M126.748,27.799c-1.908,0-3.454,1.515-3.454,3.365
	c0,1.91,1.546,3.432,3.454,3.432c1.902,0,3.448-1.521,3.448-3.432C130.196,29.314,128.65,27.799,126.748,27.799L126.748,27.799z
	 M150.564,26.954c-0.49-0.819-1.604-0.765-2.104,0l-7.139,11.798l2.936,1.637l5.193-8.592l5.192,8.592l2.882-1.637L150.564,26.954
	L150.564,26.954z M214.001,44.335h-13.594v-2.623h16.952v9.431h-3.358V44.335L214.001,44.335z M147.927,48.508h15.077v2.635h-18.502
	v-9.431h3.425V48.508L147.927,48.508z M163.004,33.074V26.02h-3.408v17.983h3.408v-8.294h3.379v-2.635H163.004L163.004,33.074z
	 M239.625,26.02h3.398v25.123h-3.398V26.02z"/>
</svg>
