<?xml version="1.0" encoding="utf-8"?>
<!-- Generator: Adobe Illustrator 16.0.0, SVG Export Plug-In . SVG Version: 6.00 Build 0)  -->
<!DOCTYPE svg PUBLIC "-//W3C//DTD SVG 1.1//EN" "http://www.w3.org/Graphics/SVG/1.1/DTD/svg11.dtd">
<svg version="1.1" xmlns="http://www.w3.org/2000/svg" xmlns:xlink="http://www.w3.org/1999/xlink" x="0px" y="0px" width="135px"
	 height="177px" viewBox="0 0 135 177" enable-background="new 0 0 135 177" xml:space="preserve">
<g id="KMgrPanelBG">
	<g>
		<rect x="1" y="80" fill="#163257" width="133" height="60"/>
		<rect x="1" y="140" fill="#1B485E" width="133" height="36"/>
		<g opacity="0.3">
			<path fill="#FFFFFF" d="M134,80v60v36H1v-36V80H134 M135,79h-1H1H0v1v60v36v1h1h133h1v-1v-36V80V79L135,79z"/>
		</g>
	</g>
	<g opacity="0.8">
		<linearGradient id="SVGID_1_" gradientUnits="userSpaceOnUse" x1="67.5" y1="107.6172" x2="67.5" y2="79.8091">
			<stop  offset="0.9086" style="stop-color:#2B3990;stop-opacity:0"/>
			<stop  offset="1" style="stop-color:#262262"/>
		</linearGradient>
		<path fill="url(#SVGID_1_)" d="M134.498,106.127c0,0.822-0.875,1.49-1.956,1.49H2.458c-1.081,0-1.957-0.668-1.957-1.49V81.299
			c0-0.823,0.876-1.49,1.957-1.49h130.084c1.081,0,1.956,0.667,1.956,1.49V106.127z"/>
		<linearGradient id="SVGID_2_" gradientUnits="userSpaceOnUse" x1="67.3638" y1="80.0645" x2="67.3638" y2="41">
			<stop  offset="0" style="stop-color:#25347A;stop-opacity:0.992"/>
			<stop  offset="0.086" style="stop-color:#5CC7FF"/>
			<stop  offset="0.2673" style="stop-color:#48BCF3;stop-opacity:0.8017"/>
			<stop  offset="0.4944" style="stop-color:#35B2E9;stop-opacity:0.5531"/>
			<stop  offset="0.7331" style="stop-color:#2BACE3;stop-opacity:0.292"/>
			<stop  offset="1" style="stop-color:#27AAE1;stop-opacity:0"/>
		</linearGradient>
		<polygon opacity="0.7" fill="url(#SVGID_2_)" points="111.004,41 24.046,41 0.73,80.064 133.996,80.064 		"/>
		<g>
			<linearGradient id="SVGID_3_" gradientUnits="userSpaceOnUse" x1="67.5005" y1="108" x2="67.5005" y2="79.4263">
				<stop  offset="0.4731" style="stop-color:#13817D;stop-opacity:0"/>
				<stop  offset="1" style="stop-color:#00AEEF"/>
			</linearGradient>
			<path fill="url(#SVGID_3_)" d="M132.542,108H2.458C1.103,108,0,107.16,0,106.127V81.299c0-1.033,1.103-1.873,2.458-1.873h130.084
				c1.355,0,2.458,0.84,2.458,1.873v24.828C135,107.16,133.897,108,132.542,108z M2.458,80.191c-0.802,0-1.455,0.496-1.455,1.107
				v24.828c0,0.61,0.652,1.107,1.455,1.107h130.084c0.802,0,1.454-0.497,1.454-1.107V81.299c0-0.611-0.652-1.107-1.454-1.107H2.458z
				"/>
		</g>
		<g>
			<linearGradient id="SVGID_4_" gradientUnits="userSpaceOnUse" x1="4.29" y1="79.7896" x2="131.1543" y2="79.7896">
				<stop  offset="0" style="stop-color:#FFFFFF;stop-opacity:0"/>
				<stop  offset="0.5323" style="stop-color:#FFFFFF"/>
				<stop  offset="1" style="stop-color:#FFFFFF;stop-opacity:0"/>
			</linearGradient>
			<rect x="4.29" y="79.406" fill="url(#SVGID_4_)" width="126.864" height="0.767"/>
		</g>
	</g>
</g>
</svg>
