<?xml version="1.0" encoding="utf-8"?>
<!-- Generator: Adobe Illustrator 16.0.0, SVG Export Plug-In . SVG Version: 6.00 Build 0)  -->
<!DOCTYPE svg PUBLIC "-//W3C//DTD SVG 1.1//EN" "http://www.w3.org/Graphics/SVG/1.1/DTD/svg11.dtd">
<svg version="1.1" xmlns="http://www.w3.org/2000/svg" xmlns:xlink="http://www.w3.org/1999/xlink" x="0px" y="0px" width="135px"
	 height="177px" viewBox="0 0 135 177" enable-background="new 0 0 135 177" xml:space="preserve">
<g id="KMgrPanelBG">
	<g>
		<rect x="1" y="80" fill="#163257" width="133" height="60"/>
		<rect x="1" y="140" fill="#1B485E" width="133" height="36"/>
		<g opacity="0.3">
			<path fill="#FFFFFF" d="M134,80v60v36H1v-36V80H134 M135,79h-1H1H0v1v60v36v1h1h133h1v-1v-36V80V79L135,79z"/>
		</g>
	</g>
	<g opacity="0.8">
		<linearGradient id="SVGID_1_" gradientUnits="userSpaceOnUse" x1="67.5" y1="107.6172" x2="67.5" y2="79.8091">
			<stop  offset="0.9086" style="stop-color:#2B3990;stop-opacity:0"/>
			<stop  offset="1" style="stop-color:#262262"/>
		</linearGradient>
		<path fill="url(#SVGID_1_)" d="M134.498,106.127c0,0.822-0.875,1.49-1.956,1.49H2.458c-1.081,0-1.957-0.668-1.957-1.49V81.299
			c0-0.823,0.876-1.49,1.957-1.49h130.084c1.081,0,1.956,0.667,1.956,1.49V106.127z"/>
		<linearGradient id="SVGID_2_" gradientUnits="userSpaceOnUse" x1="67.3638" y1="80.0645" x2="67.3638" y2="41">
			<stop  offset="0" style="stop-color:#25347A;stop-opacity:0.992"/>
			<stop  offset="0.086" style="stop-color:#5CC7FF"/>
			<stop  offset="0.2673" style="stop-color:#48BCF3;stop-opacity:0.8017"/>
			<stop  offset="0.4944" style="stop-color:#35B2E9;stop-opacity:0.5531"/>
			<stop  offset="0.7331" style="stop-color:#2BACE3;stop-opacity:0.292"/>
			<stop  offset="1" style="stop-color:#27AAE1;stop-opacity:0"/>
		</linearGradient>
		<polygon opacity="0.7" fill="url(#SVGID_2_)" points="111.004,41 24.046,41 0.73,80.064 133.996,80.064 		"/>
		<g>
			<linearGradient id="SVGID_3_" gradientUnits="userSpaceOnUse" x1="67.5005" y1="108" x2="67.5005" y2="79.4263">
				<stop  offset="0.4731" style="stop-color:#13817D;stop-opacity:0"/>
				<stop  offset="1" style="stop-color:#00AEEF"/>
			</linearGradient>
			<path fill="url(#SVGID_3_)" d="M132.542,108H2.458C1.103,108,0,107.16,0,106.127V81.299c0-1.033,1.103-1.873,2.458-1.873h130.084
				c1.355,0,2.458,0.84,2.458,1.873v24.828C135,107.16,133.897,108,132.542,108z M2.458,80.191c-0.802,0-1.455,0.496-1.455,1.107
				v24.828c0,0.61,0.652,1.107,1.455,1.107h130.084c0.802,0,1.454-0.497,1.454-1.107V81.299c0-0.611-0.652-1.107-1.454-1.107H2.458z
				"/>
		</g>
		<g>
			<linearGradient id="SVGID_4_" gradientUnits="userSpaceOnUse" x1="4.29" y1="79.7896" x2="131.1543" y2="79.7896">
				<stop  offset="0" style="stop-color:#FFFFFF;stop-opacity:0"/>
				<stop  offset="0.5323" style="stop-color:#FFFFFF"/>
				<stop  offset="1" style="stop-color:#FFFFFF;stop-opacity:0"/>
			</linearGradient>
			<rect x="4.29" y="79.406" fill="url(#SVGID_4_)" width="126.864" height="0.767"/>
		</g>
	</g>
</g>
<g id="KMgrCircleBlue" display="">
	
		<ellipse opacity="0.4" fill="none" stroke="#000000" stroke-width="4" stroke-miterlimit="10" cx="67.5" cy="54.852" rx="42.5" ry="14.262"/>
	<ellipse fill="none" stroke="#00DEFF" stroke-width="2" stroke-miterlimit="10" cx="67.5" cy="54.852" rx="42.5" ry="14.262"/>
	<path opacity="0.2" d="M109.5,52.308c-0.063-7.778-18.926-14.025-42.115-13.952C44.193,38.428,25.438,44.797,25.5,52.578
		c0.064,7.788,18.926,14.033,42.113,13.961C90.807,66.464,109.566,60.095,109.5,52.308"/>
	
		<linearGradient id="SVGID_5_" gradientUnits="userSpaceOnUse" x1="27.1123" y1="51.7798" x2="106.3654" y2="51.7798" gradientTransform="matrix(-1 0 0 1 134 0)">
		<stop  offset="0.0061" style="stop-color:#000000"/>
		<stop  offset="0.5" style="stop-color:#2F86CC"/>
		<stop  offset="1" style="stop-color:#000000"/>
	</linearGradient>
	<path fill="url(#SVGID_5_)" stroke="#FFFFFF" stroke-width="0.0687" d="M27.384,51.912C27.444,59.343,45.46,65.31,67.61,65.239
		c22.149-0.069,40.071-6.153,40.007-13.586c-0.059-7.438-18.077-13.405-40.227-13.332C45.238,38.39,27.322,44.474,27.384,51.912"/>
	
		<linearGradient id="SVGID_6_" gradientUnits="userSpaceOnUse" x1="-242.8604" y1="508.1895" x2="-242.8631" y2="507.3965" gradientTransform="matrix(50.1215 -0.2571 -0.1741 -33.9522 12328.5313 17226.875)">
		<stop  offset="0" style="stop-color:#265F9F"/>
		<stop  offset="1" style="stop-color:#62D5EF"/>
	</linearGradient>
	<path opacity="0.55" fill="url(#SVGID_6_)" d="M107.617,48.531c-0.059-7.429-18.077-13.396-40.227-13.325
		c-22.151,0.067-40.068,6.152-40.007,13.583c0.061,7.439,18.076,13.407,40.227,13.335C89.764,62.054,107.682,55.971,107.617,48.531"
		/>
	
		<linearGradient id="SVGID_7_" gradientUnits="userSpaceOnUse" x1="25.9814" y1="48.6646" x2="107.0176" y2="48.6646" gradientTransform="matrix(-1 0 0 1 134 0)">
		<stop  offset="0" style="stop-color:#112557"/>
		<stop  offset="0.5" style="stop-color:#FFFFFF;stop-opacity:0.75"/>
		<stop  offset="1" style="stop-color:#00689F"/>
	</linearGradient>
	<path fill="url(#SVGID_7_)" d="M38.928,58.523c-7.673-2.567-11.917-6.024-11.945-9.731c-0.016-1.906,1.072-3.75,3.232-5.479
		c6.332-5.067,20.923-8.374,37.174-8.424l0.393-0.002c10.685,0,20.731,1.392,28.291,3.92c7.675,2.564,11.916,6.019,11.946,9.723
		c0.017,1.909-1.071,3.754-3.233,5.486c-6.329,5.067-20.921,8.375-37.174,8.427l-0.396,0.001
		C56.532,62.443,46.486,61.049,38.928,58.523z M67.393,35.522c-16.05,0.051-30.419,3.284-36.608,8.237
		c-2.004,1.604-3.014,3.295-3,5.027c0.059,7.179,17.749,13.02,39.431,13.02h0.394c16.052-0.05,30.419-3.283,36.605-8.239
		c2.008-1.605,3.017-3.299,3.002-5.033c-0.055-7.175-17.746-13.012-39.435-13.012H67.393z"/>
</g>
<g id="KMgrCircleRed" display="">
	<g display="inline">
		<ellipse opacity="0.4" fill="none" stroke="#000000" stroke-width="4" stroke-miterlimit="10" cx="67.5" cy="54.852" rx="42.5" ry="14.262"/>
		<ellipse fill="none" stroke="#FF3C00" stroke-width="2" stroke-miterlimit="10" cx="67.5" cy="54.852" rx="42.5" ry="14.262"/>
		<path opacity="0.2" d="M109.5,52.308c-0.063-7.778-18.926-14.025-42.115-13.952C44.193,38.428,25.438,44.797,25.5,52.578
			c0.064,7.788,18.926,14.033,42.113,13.961C90.807,66.464,109.566,60.095,109.5,52.308"/>
		
			<linearGradient id="SVGID_8_" gradientUnits="userSpaceOnUse" x1="27.1123" y1="51.7798" x2="106.3654" y2="51.7798" gradientTransform="matrix(-1 0 0 1 134 0)">
			<stop  offset="0.0061" style="stop-color:#1F0300"/>
			<stop  offset="0.5" style="stop-color:#FF8B3F"/>
			<stop  offset="1" style="stop-color:#1F0300"/>
		</linearGradient>
		<path fill="url(#SVGID_8_)" stroke="#FFFFFF" stroke-width="0.0687" d="M27.384,51.912C27.444,59.343,45.46,65.31,67.61,65.239
			c22.149-0.069,40.071-6.153,40.007-13.586c-0.059-7.438-18.077-13.405-40.227-13.332C45.238,38.39,27.322,44.474,27.384,51.912"/>
		
			<linearGradient id="SVGID_9_" gradientUnits="userSpaceOnUse" x1="-242.8604" y1="508.1895" x2="-242.8631" y2="507.3965" gradientTransform="matrix(50.1215 -0.2571 -0.1741 -33.9522 12328.5313 17226.875)">
			<stop  offset="0" style="stop-color:#7F1200"/>
			<stop  offset="1" style="stop-color:#FF681F"/>
		</linearGradient>
		<path opacity="0.75" fill="url(#SVGID_9_)" d="M107.617,48.531c-0.059-7.429-18.077-13.396-40.227-13.325
			c-22.151,0.067-40.068,6.152-40.007,13.583c0.061,7.439,18.076,13.407,40.227,13.335C89.764,62.054,107.682,55.971,107.617,48.531
			"/>
		
			<linearGradient id="SVGID_10_" gradientUnits="userSpaceOnUse" x1="25.9814" y1="48.6646" x2="107.0176" y2="48.6646" gradientTransform="matrix(-1 0 0 1 134 0)">
			<stop  offset="0" style="stop-color:#5F1100"/>
			<stop  offset="0.5" style="stop-color:#FFFFFF;stop-opacity:0.75"/>
			<stop  offset="1" style="stop-color:#9F1600"/>
		</linearGradient>
		<path fill="url(#SVGID_10_)" d="M38.928,58.523c-7.673-2.567-11.917-6.024-11.945-9.731c-0.016-1.906,1.072-3.75,3.232-5.479
			c6.332-5.067,20.923-8.374,37.174-8.424l0.393-0.002c10.685,0,20.731,1.392,28.291,3.92c7.675,2.564,11.916,6.019,11.946,9.723
			c0.017,1.909-1.071,3.754-3.233,5.486c-6.329,5.067-20.921,8.375-37.174,8.427l-0.396,0.001
			C56.532,62.443,46.486,61.049,38.928,58.523z M67.393,35.522c-16.05,0.051-30.419,3.284-36.608,8.237
			c-2.004,1.604-3.014,3.295-3,5.027c0.059,7.179,17.749,13.02,39.431,13.02h0.394c16.052-0.05,30.419-3.283,36.605-8.239
			c2.008-1.605,3.017-3.299,3.002-5.033c-0.055-7.175-17.746-13.012-39.435-13.012H67.393z"/>
	</g>
</g>
<g id="KMgrMonitor" display="block">
	<g>
		<path opacity="0.9" fill-rule="evenodd" clip-rule="evenodd" fill="#24282C" d="M33.8,3.2v44.466c0,1.105,0.896,2,1.999,2h65.493
			c1.104,0,1.998-0.895,1.998-2V3.2c0-1.104-0.895-2-1.998-2H35.799C34.695,1.2,33.8,2.096,33.8,3.2z"/>
		<linearGradient id="SVGID_11_" gradientUnits="userSpaceOnUse" x1="67.7222" y1="51.2114" x2="67.7222" y2="55.8022">
			<stop  offset="0" style="stop-color:#787A7D"/>
			<stop  offset="1" style="stop-color:#525254"/>
		</linearGradient>
		<rect x="55.675" y="51.211" fill-rule="evenodd" clip-rule="evenodd" fill="url(#SVGID_11_)" width="24.094" height="4.591"/>
		<path fill-rule="evenodd" clip-rule="evenodd" fill="#D6E0E5" d="M32.977,2.298v44.466c0,1.105,0.896,2,1.999,2h65.493
			c1.104,0,1.998-0.895,1.998-2V2.298c0-1.104-0.895-2-1.998-2H34.976C33.873,0.298,32.977,1.194,32.977,2.298z"/>
		<path fill-rule="evenodd" clip-rule="evenodd" fill="#F5F5F7" d="M90.611,10.17c0-0.306-0.248-0.554-0.553-0.554H45.387
			c-0.306,0-0.554,0.248-0.554,0.554V9.616c0-0.306,0.248-0.554,0.554-0.554h44.671c0.305,0,0.553,0.248,0.553,0.554V10.17z"/>
		<linearGradient id="SVGID_12_" gradientUnits="userSpaceOnUse" x1="67.7231" y1="48.5239" x2="67.7231" y2="53.5073">
			<stop  offset="0" style="stop-color:#242629"/>
			<stop  offset="1" style="stop-color:#525457"/>
		</linearGradient>
		<rect x="61.13" y="48.524" fill-rule="evenodd" clip-rule="evenodd" fill="url(#SVGID_12_)" width="13.186" height="4.983"/>
		<linearGradient id="SVGID_13_" gradientUnits="userSpaceOnUse" x1="67.7217" y1="44.6416" x2="67.7217" y2="48.7637">
			<stop  offset="0" style="stop-color:#474A4C"/>
			<stop  offset="0.16" style="stop-color:#4A4C4C"/>
			<stop  offset="0.33" style="stop-color:#4A4C4C"/>
			<stop  offset="0.5" style="stop-color:#4C4F4F"/>
			<stop  offset="0.66" style="stop-color:#4C5252"/>
			<stop  offset="0.83" style="stop-color:#545959"/>
			<stop  offset="1" style="stop-color:#5C5E61"/>
		</linearGradient>
		<path fill-rule="evenodd" clip-rule="evenodd" fill="url(#SVGID_13_)" d="M32.977,46.764v-2.208h69.49v2.208
			c0,1.105-0.895,2-1.998,2H34.976C33.873,48.764,32.977,47.869,32.977,46.764z"/>
		<path fill-rule="evenodd" clip-rule="evenodd" fill="#EBEDF0" d="M32.977,2.298c0-1.104,0.896-2,1.999-2h65.493
			c1.104,0,1.998,0.896,1.998,2v1.136c-0.012-1.093-0.902-1.976-1.998-1.976H34.976c-1.104,0-1.999,0.896-1.999,2V2.298z"/>
		<path fill-rule="evenodd" clip-rule="evenodd" fill="#BFCCD4" d="M90.611,9.616c0-0.306-0.248-0.554-0.553-0.554H45.387
			c-0.306,0-0.554,0.248-0.554,0.554V9.062c0-0.306,0.248-0.554,0.554-0.554h44.671c0.305,0,0.553,0.249,0.553,0.554V9.616z"/>
		<linearGradient id="SVGID_14_" gradientUnits="userSpaceOnUse" x1="28.7329" y1="16.6211" x2="48.633" y2="23.6493">
			<stop  offset="0" style="stop-color:#FFFFFF"/>
			<stop  offset="1" style="stop-color:#E6EDF0"/>
		</linearGradient>
		<path fill-rule="evenodd" clip-rule="evenodd" fill="url(#SVGID_14_)" d="M33.257,43.645V3.827c0-1.104,0.896-2,2-2h23.578
			L43.783,43.645H33.257z"/>
		<path fill-rule="evenodd" clip-rule="evenodd" fill="#F5F7FA" d="M32.977,3.458v-1.16c0-0.004,0-0.006,0-0.01v0.919
			c0-1.104,0.896-2,1.999-2h65.493c1.096,0,1.984,0.883,1.998,1.976v0.252c-0.012-1.093-0.902-1.976-1.998-1.976H34.976
			C33.873,1.458,32.977,2.354,32.977,3.458z"/>
		<rect x="55.675" y="55.802" fill-rule="evenodd" clip-rule="evenodd" fill="#3B3B3B" width="24.094" height="0.942"/>
		<linearGradient id="SVGID_15_" gradientUnits="userSpaceOnUse" x1="67.7231" y1="53.8062" x2="67.7231" y2="55.715">
			<stop  offset="0" style="stop-color:#36383B"/>
			<stop  offset="1" style="stop-color:#45474A"/>
		</linearGradient>
		<rect x="61.13" y="53.507" fill-rule="evenodd" clip-rule="evenodd" fill="url(#SVGID_15_)" width="13.186" height="2.295"/>
		<rect x="61.13" y="53.507" fill-rule="evenodd" clip-rule="evenodd" fill="#333636" width="13.186" height="0.298"/>
		<path fill-rule="evenodd" clip-rule="evenodd" fill="#EBF0F0" d="M44.833,10.17v26.802c0,0.306,0.248,0.555,0.554,0.555h44.671
			c0.305,0,0.553-0.249,0.553-0.555V10.17c0-0.306-0.248-0.554-0.553-0.554H45.387C45.082,9.616,44.833,9.864,44.833,10.17z"/>
		<rect x="32.977" y="43.645" fill-rule="evenodd" clip-rule="evenodd" fill="#B2B8BD" width="69.49" height="0.911"/>
		<rect x="32.977" y="44.479" fill-rule="evenodd" clip-rule="evenodd" fill="#D9E3E8" width="69.49" height="0.163"/>
		<path fill-rule="evenodd" clip-rule="evenodd" fill="#D6E0E5" d="M45.664,37.527h44.159c-5.092,1.447-15.102,2.468-22.77,2.442
			C59.839,39.945,50.16,38.97,45.664,37.527z"/>
		<path fill-rule="evenodd" clip-rule="evenodd" fill="#D6DEE6" d="M45.664,37.527c4.651,1.361,14.176,2.283,21.389,2.307
			c7.668,0.024,17.526-0.942,22.77-2.307H45.664z"/>
		<path fill-rule="evenodd" clip-rule="evenodd" fill="#D6DEE6" d="M45.664,37.527c4.805,1.278,14.176,2.149,21.389,2.17
			c7.668,0.024,17.374-0.888,22.77-2.17H45.664z"/>
		<path fill-rule="evenodd" clip-rule="evenodd" fill="#D4DEE3" d="M45.664,37.527c4.961,1.196,14.176,2.015,21.389,2.035
			c7.668,0.022,17.223-0.836,22.77-2.035H45.664z"/>
		<path fill-rule="evenodd" clip-rule="evenodd" fill="#D4DEE3" d="M45.664,37.527c5.116,1.114,14.176,1.88,21.389,1.899
			c7.668,0.02,17.073-0.783,22.77-1.899H45.664z"/>
		<path fill-rule="evenodd" clip-rule="evenodd" fill="#D4DEE3" d="M45.664,37.527c5.271,1.031,14.176,1.746,21.389,1.764
			c7.668,0.019,16.92-0.729,22.77-1.764H45.664z"/>
		<path fill-rule="evenodd" clip-rule="evenodd" fill="#D4DBE3" d="M45.664,37.527c5.426,0.95,14.176,1.611,21.389,1.627
			c7.668,0.017,16.77-0.676,22.77-1.627H45.664z"/>
		<path fill-rule="evenodd" clip-rule="evenodd" fill="#D1DBE0" d="M45.664,37.527c5.582,0.867,14.176,1.477,21.389,1.491
			c7.668,0.015,16.62-0.622,22.77-1.491H45.664z"/>
		<path fill-rule="evenodd" clip-rule="evenodd" fill="#D1D9E0" d="M45.664,37.527c5.736,0.785,14.176,1.342,21.389,1.355
			c7.668,0.014,16.467-0.57,22.77-1.355H45.664z"/>
		<path fill-rule="evenodd" clip-rule="evenodd" fill="#CFD9DE" d="M45.664,37.527c5.893,0.703,14.176,1.207,21.389,1.219
			c7.668,0.013,16.317-0.516,22.77-1.219H45.664z"/>
		<path fill-rule="evenodd" clip-rule="evenodd" fill="#CFD6DE" d="M45.664,37.527c6.049,0.62,14.176,1.073,21.389,1.083
			c7.668,0.012,16.165-0.462,22.77-1.083H45.664z"/>
		<path fill-rule="evenodd" clip-rule="evenodd" fill="#CCD4DB" d="M45.664,37.527c6.201,0.538,14.176,0.938,21.389,0.947
			c7.668,0.01,16.014-0.41,22.77-0.947H45.664z"/>
		<path fill-rule="evenodd" clip-rule="evenodd" fill="#C9D4D9" d="M45.664,37.527c6.355,0.456,14.176,0.803,21.389,0.812
			c7.668,0.009,15.862-0.356,22.77-0.812H45.664z"/>
		<path fill-rule="evenodd" clip-rule="evenodd" fill="#C7D1D6" d="M45.664,37.527c6.511,0.373,14.176,0.668,21.389,0.676
			c7.668,0.007,15.711-0.303,22.77-0.676H45.664z"/>
		<path fill-rule="evenodd" clip-rule="evenodd" fill="#C4CFD4" d="M45.664,37.527c6.666,0.292,14.176,0.535,21.389,0.54
			c7.668,0.006,15.563-0.249,22.77-0.54H45.664z"/>
		<path fill-rule="evenodd" clip-rule="evenodd" fill="#BFC9CF" d="M45.664,37.527c6.821,0.209,14.176,0.399,21.389,0.404
			c7.668,0.004,15.409-0.197,22.77-0.404H45.664z"/>
		<path fill-rule="evenodd" clip-rule="evenodd" fill="#B5BFC7" d="M45.664,37.527h44.159c-7.512,0.125-15.102,0.27-22.77,0.268
			C59.839,37.792,52.64,37.654,45.664,37.527z"/>
		<g>
			<path fill-rule="evenodd" clip-rule="evenodd" fill="#FAFAFA" d="M44.833,10.17V9.616c0-0.306,0.248-0.554,0.554-0.554h10.845
				l-0.199,0.554H45.387C45.082,9.616,44.833,9.864,44.833,10.17z"/>
			<path fill-rule="evenodd" clip-rule="evenodd" fill="#F5F5F5" d="M44.833,36.972V10.17c0-0.306,0.248-0.554,0.554-0.554h10.646
				L45.986,37.527h-0.599C45.082,37.527,44.833,37.278,44.833,36.972z"/>
		</g>
		<rect x="52.187" y="13.018" fill-rule="evenodd" clip-rule="evenodd" fill="#FAFAFA" width="31.071" height="3.654"/>
		<rect x="52.187" y="20.519" fill-rule="evenodd" clip-rule="evenodd" fill="#FAFAFA" width="31.071" height="3.653"/>
		<linearGradient id="SVGID_16_" gradientUnits="userSpaceOnUse" x1="67.7222" y1="29.436" x2="67.7222" y2="34.3936">
			<stop  offset="0" style="stop-color:#617380"/>
			<stop  offset="1" style="stop-color:#C7D6DE"/>
		</linearGradient>
		<path fill-rule="evenodd" clip-rule="evenodd" fill="url(#SVGID_16_)" d="M57.166,31.274v1.281c0,1.014,0.823,1.838,1.838,1.838
			h17.44c1.012,0,1.836-0.824,1.836-1.838v-1.281c0-1.014-0.824-1.838-1.836-1.838h-17.44C57.989,29.436,57.166,30.26,57.166,31.274
			z"/>
		<linearGradient id="SVGID_17_" gradientUnits="userSpaceOnUse" x1="67.7422" y1="29.436" x2="67.7422" y2="31.9017">
			<stop  offset="0" style="stop-color:#F5FAFF"/>
			<stop  offset="1" style="stop-color:#99ABB5"/>
		</linearGradient>
		<path fill-rule="evenodd" clip-rule="evenodd" fill="url(#SVGID_17_)" d="M57.366,32.556v-1.281c0-1.014,0.823-1.718,1.838-1.718
			h17.078c1.016,0,1.838,0.704,1.838,1.718v0.855c0-0.473-0.385-0.855-0.857-0.855H58.221c-0.471,0-0.855,0.384-0.855,0.856V32.556
			L57.366,32.556z"/>
		<path fill-rule="evenodd" clip-rule="evenodd" fill="#D6E5ED" d="M57.166,32.475v-0.437c0,1.015,0.823,1.837,1.838,1.837h17.44
			c1.012,0,1.836-0.822,1.836-1.836v0.436c0,1.015-0.824,1.838-1.836,1.838h-17.44C57.989,34.313,57.166,33.49,57.166,32.475z"/>
		<path fill-rule="evenodd" clip-rule="evenodd" fill="#FAFAFA" d="M57.166,32.995v-0.438c0,1.015,0.824,1.838,1.838,1.838h17.44
			c1.012,0,1.836-0.823,1.836-1.837v0.437c0,1.014-0.824,1.837-1.836,1.837h-17.44C57.989,34.832,57.166,34.009,57.166,32.995z"/>
		<path fill-rule="evenodd" clip-rule="evenodd" fill="#CFD6DB" d="M57.166,30.837v0.438c0-1.014,0.824-1.838,1.838-1.838h17.44
			c1.012,0,1.836,0.823,1.838,1.838v-0.437c0-1.015-0.826-1.837-1.838-1.837h-17.44C57.99,29,57.166,29.822,57.166,30.837z"/>
		<path fill-rule="evenodd" clip-rule="evenodd" fill="#EBF5FA" d="M57.326,31.394v0.437c0-1.013,0.812-1.837,1.811-1.837h17.172
			c0.998,0,1.811,0.823,1.811,1.836v-0.436c0-1.014-0.813-1.838-1.811-1.838H59.136C58.137,29.556,57.326,30.38,57.326,31.394z"/>
		<polygon fill-rule="evenodd" clip-rule="evenodd" fill="#C2C9CF" points="32.977,43.645 32.977,44.479 43.488,44.479 
			43.783,43.645 		"/>
		<path fill-rule="evenodd" clip-rule="evenodd" fill="#E3E8ED" d="M44.833,9.616V9.062c0-0.306,0.248-0.554,0.554-0.554h11.044
			l-0.199,0.554H45.387C45.082,9.062,44.833,9.31,44.833,9.616z"/>
		<polygon fill-rule="evenodd" clip-rule="evenodd" fill="#C9D1D9" points="52.187,16.671 52.187,13.018 83.258,13.018 
			83.258,13.225 52.394,13.225 52.394,16.671 		"/>
		<polygon fill-rule="evenodd" clip-rule="evenodd" fill="#C9D1D9" points="52.187,24.172 52.187,20.519 83.258,20.519 
			83.258,20.727 52.394,20.727 52.394,24.172 		"/>
		<g>
			<g>
				<path fill="#474F54" d="M65.017,31.98c0-0.304,0.045-0.559,0.137-0.765c0.068-0.154,0.16-0.289,0.279-0.41
					c0.118-0.12,0.246-0.211,0.387-0.269c0.185-0.079,0.398-0.119,0.643-0.119c0.439,0,0.791,0.138,1.057,0.41
					c0.264,0.274,0.396,0.653,0.396,1.139c0,0.482-0.132,0.859-0.394,1.131c-0.263,0.272-0.613,0.408-1.052,0.408
					c-0.443,0-0.797-0.136-1.059-0.407C65.15,32.829,65.017,32.456,65.017,31.98z M65.638,31.96c0,0.338,0.08,0.595,0.236,0.769
					c0.155,0.174,0.354,0.262,0.594,0.262s0.438-0.087,0.592-0.26c0.154-0.173,0.232-0.433,0.232-0.78
					c0-0.341-0.076-0.597-0.227-0.766c-0.148-0.167-0.35-0.251-0.598-0.251s-0.447,0.084-0.601,0.255
					C65.716,31.36,65.638,31.617,65.638,31.96z"/>
				<polygon fill="#474F54" points="68.428,33.455 68.428,30.469 69,30.469 69,32.053 69.668,31.292 70.373,31.292 69.635,32.082 
					70.428,33.455 69.811,33.455 69.268,32.484 69,32.763 69,33.455 				"/>
			</g>
		</g>
		<g>
			<g>
				<path fill="#F5FAFC" d="M65.017,31.85c0-0.304,0.045-0.559,0.137-0.766c0.068-0.151,0.16-0.287,0.279-0.409
					c0.118-0.121,0.246-0.21,0.387-0.269c0.185-0.079,0.398-0.119,0.643-0.119c0.439,0,0.791,0.137,1.057,0.41
					c0.264,0.273,0.396,0.653,0.396,1.139c0,0.483-0.132,0.859-0.394,1.132c-0.263,0.273-0.613,0.409-1.052,0.409
					c-0.443,0-0.797-0.135-1.059-0.406C65.15,32.698,65.017,32.325,65.017,31.85z M65.638,31.829c0,0.339,0.08,0.595,0.236,0.769
					c0.155,0.175,0.354,0.262,0.594,0.262s0.438-0.086,0.592-0.26c0.154-0.173,0.232-0.432,0.232-0.779
					c0-0.342-0.076-0.597-0.227-0.766c-0.148-0.168-0.35-0.252-0.598-0.252s-0.447,0.085-0.601,0.255
					C65.716,31.229,65.638,31.486,65.638,31.829z"/>
				<polygon fill="#F5FAFC" points="68.428,33.325 68.428,30.338 69,30.338 69,31.923 69.668,31.162 70.373,31.162 69.635,31.953 
					70.428,33.325 69.811,33.325 69.268,32.353 69,32.632 69,33.325 				"/>
			</g>
		</g>
		<rect x="55.675" y="55.714" fill-rule="evenodd" clip-rule="evenodd" fill="#707375" width="24.094" height="0.175"/>
		<rect x="61.13" y="53.656" fill-rule="evenodd" clip-rule="evenodd" fill="#262929" width="13.186" height="0.105"/>
		<g>
			<g>
				<polygon fill="#808080" points="54.544,15.643 54.544,13.919 54.896,13.919 54.896,15.35 55.77,15.35 55.77,15.643 				"/>
				<path fill="#808080" d="M55.977,14.996c0-0.111,0.03-0.218,0.085-0.321c0.053-0.104,0.131-0.183,0.23-0.237
					c0.1-0.055,0.212-0.083,0.335-0.083c0.19,0,0.347,0.063,0.47,0.186c0.12,0.124,0.182,0.28,0.182,0.47
					c0,0.19-0.062,0.348-0.185,0.474c-0.123,0.125-0.278,0.188-0.464,0.188c-0.115,0-0.227-0.026-0.331-0.077
					c-0.105-0.053-0.185-0.13-0.237-0.23C56.007,15.263,55.977,15.14,55.977,14.996z M56.32,15.013c0,0.125,0.029,0.221,0.09,0.287
					c0.059,0.067,0.131,0.1,0.218,0.1s0.162-0.033,0.221-0.1c0.058-0.066,0.087-0.163,0.087-0.29c0-0.124-0.029-0.218-0.087-0.285
					c-0.059-0.066-0.134-0.1-0.221-0.1s-0.159,0.033-0.218,0.1C56.349,14.792,56.32,14.888,56.32,15.013z"/>
				<path fill="#808080" d="M57.546,15.727l0.383,0.045c0.006,0.045,0.02,0.075,0.043,0.092c0.031,0.023,0.082,0.035,0.148,0.035
					c0.088,0,0.152-0.012,0.197-0.039c0.028-0.018,0.051-0.045,0.065-0.084c0.013-0.027,0.015-0.08,0.015-0.152v-0.185
					c-0.099,0.137-0.223,0.205-0.375,0.205c-0.17,0-0.305-0.071-0.402-0.215c-0.078-0.112-0.117-0.253-0.117-0.421
					c0-0.211,0.05-0.372,0.152-0.484c0.102-0.113,0.229-0.167,0.38-0.167c0.155,0,0.283,0.067,0.386,0.206v-0.177h0.311v1.129
					c0,0.149-0.012,0.26-0.036,0.333c-0.026,0.074-0.06,0.132-0.104,0.173c-0.044,0.042-0.103,0.075-0.178,0.099
					c-0.074,0.023-0.166,0.035-0.279,0.035c-0.213,0-0.364-0.037-0.455-0.109c-0.089-0.073-0.133-0.166-0.133-0.279
					C57.546,15.755,57.546,15.742,57.546,15.727z M57.845,14.988c0,0.133,0.025,0.231,0.076,0.293
					c0.053,0.062,0.117,0.093,0.192,0.093c0.082,0,0.151-0.031,0.207-0.096c0.057-0.064,0.084-0.158,0.084-0.282
					c0-0.13-0.026-0.228-0.081-0.292c-0.053-0.062-0.121-0.094-0.204-0.094c-0.079,0-0.146,0.032-0.198,0.093
					C57.871,14.765,57.845,14.86,57.845,14.988z"/>
				<path fill="#808080" d="M59.1,14.212v-0.309h0.333v0.309H59.1z M59.1,15.643v-1.259h0.333v1.259H59.1z"/>
				<path fill="#808080" d="M60.958,15.643h-0.332V15c0-0.136-0.006-0.224-0.021-0.264c-0.014-0.04-0.038-0.07-0.069-0.092
					c-0.032-0.022-0.071-0.034-0.114-0.034c-0.059,0-0.111,0.016-0.156,0.048c-0.046,0.031-0.078,0.072-0.096,0.125
					s-0.023,0.149-0.023,0.29v0.571h-0.333v-1.259h0.309v0.184c0.108-0.143,0.247-0.213,0.415-0.213
					c0.072,0,0.139,0.014,0.201,0.041c0.062,0.026,0.107,0.06,0.137,0.101c0.031,0.04,0.055,0.087,0.068,0.14
					c0.011,0.052,0.016,0.126,0.016,0.224V15.643z"/>
			</g>
		</g>
		<g>
			<g>
				<path fill="#808080" d="M54.068,23.009l-0.172-0.134c0.055-0.061,0.11-0.118,0.172-0.175c0.022-0.023,0.035-0.037,0.041-0.043
					c-0.018-0.002-0.07-0.015-0.161-0.037c-0.063-0.016-0.106-0.027-0.126-0.035l0.066-0.199c0.099,0.04,0.188,0.083,0.266,0.132
					c-0.019-0.123-0.027-0.223-0.027-0.301h0.199c0,0.055-0.009,0.156-0.028,0.303c0.015-0.005,0.047-0.021,0.098-0.043
					c0.067-0.031,0.129-0.058,0.188-0.081l0.062,0.207c-0.084,0.018-0.182,0.037-0.291,0.054l0.135,0.154
					c0.027,0.031,0.049,0.056,0.066,0.075L54.378,23l-0.152-0.252C54.181,22.83,54.128,22.917,54.068,23.009z"/>
				<path fill="#808080" d="M55.006,23.009l-0.172-0.134c0.056-0.061,0.112-0.118,0.172-0.175c0.022-0.023,0.038-0.037,0.044-0.043
					c-0.019-0.002-0.073-0.015-0.162-0.037c-0.064-0.016-0.106-0.027-0.127-0.035l0.067-0.199c0.099,0.04,0.187,0.083,0.263,0.132
					c-0.018-0.123-0.027-0.223-0.027-0.301h0.203c0,0.055-0.01,0.156-0.031,0.303c0.017-0.005,0.049-0.021,0.098-0.043
					c0.067-0.031,0.131-0.058,0.188-0.081l0.062,0.207c-0.084,0.018-0.182,0.037-0.292,0.054l0.137,0.154
					c0.027,0.031,0.049,0.056,0.064,0.075L55.319,23l-0.153-0.252C55.119,22.83,55.066,22.917,55.006,23.009z"/>
				<path fill="#808080" d="M55.945,23.009l-0.17-0.134c0.054-0.061,0.112-0.118,0.17-0.175c0.023-0.023,0.039-0.037,0.044-0.043
					c-0.018-0.002-0.073-0.015-0.16-0.037c-0.064-0.016-0.106-0.027-0.128-0.035l0.066-0.199c0.099,0.04,0.188,0.083,0.266,0.132
					c-0.019-0.123-0.027-0.223-0.027-0.301h0.201c0,0.055-0.01,0.156-0.031,0.303c0.016-0.005,0.048-0.021,0.098-0.043
					c0.068-0.031,0.131-0.058,0.188-0.081l0.06,0.207c-0.082,0.018-0.182,0.037-0.291,0.054l0.135,0.154
					c0.03,0.031,0.049,0.056,0.066,0.075L56.259,23l-0.154-0.252C56.058,22.83,56.007,22.917,55.945,23.009z"/>
				<path fill="#808080" d="M56.885,23.009l-0.171-0.134c0.056-0.061,0.111-0.118,0.17-0.175c0.023-0.023,0.037-0.037,0.045-0.043
					c-0.02-0.002-0.075-0.015-0.162-0.037c-0.064-0.016-0.107-0.027-0.127-0.035l0.066-0.199c0.1,0.04,0.186,0.083,0.265,0.132
					c-0.019-0.123-0.026-0.223-0.026-0.301h0.201c0,0.055-0.01,0.156-0.029,0.303c0.015-0.005,0.045-0.021,0.098-0.043
					c0.067-0.031,0.129-0.058,0.188-0.081l0.057,0.207c-0.081,0.018-0.179,0.037-0.289,0.054l0.137,0.154
					c0.027,0.031,0.049,0.056,0.064,0.075L57.198,23l-0.153-0.252C56.997,22.83,56.945,22.917,56.885,23.009z"/>
				<path fill="#808080" d="M57.826,23.009l-0.172-0.134c0.055-0.061,0.109-0.118,0.17-0.175c0.024-0.023,0.039-0.037,0.044-0.043
					c-0.018-0.002-0.073-0.015-0.162-0.037c-0.065-0.016-0.106-0.027-0.126-0.035l0.067-0.199c0.098,0.04,0.187,0.083,0.265,0.132
					c-0.02-0.123-0.027-0.223-0.027-0.301h0.201c0,0.055-0.012,0.156-0.03,0.303c0.015-0.005,0.048-0.021,0.097-0.043
					c0.068-0.031,0.131-0.058,0.188-0.081l0.061,0.207c-0.082,0.018-0.18,0.037-0.289,0.054l0.135,0.154
					c0.027,0.031,0.049,0.056,0.063,0.075L58.136,23l-0.152-0.252C57.939,22.83,57.884,22.917,57.826,23.009z"/>
				<path fill="#808080" d="M58.763,23.009l-0.17-0.134c0.055-0.061,0.112-0.118,0.17-0.175c0.023-0.023,0.039-0.037,0.045-0.043
					c-0.02-0.002-0.073-0.015-0.162-0.037c-0.064-0.016-0.107-0.027-0.129-0.035l0.068-0.199c0.1,0.04,0.188,0.083,0.266,0.132
					c-0.02-0.123-0.027-0.223-0.027-0.301h0.201c0,0.055-0.01,0.156-0.031,0.303c0.016-0.005,0.049-0.021,0.098-0.043
					c0.066-0.031,0.132-0.058,0.189-0.081l0.059,0.207c-0.084,0.018-0.182,0.037-0.291,0.054l0.136,0.154
					c0.028,0.031,0.05,0.056,0.065,0.075L59.076,23l-0.154-0.252C58.876,22.83,58.824,22.917,58.763,23.009z"/>
				<path fill="#808080" d="M59.705,23.009l-0.172-0.134c0.055-0.061,0.111-0.118,0.17-0.175c0.023-0.023,0.039-0.037,0.045-0.043
					c-0.02-0.002-0.074-0.015-0.163-0.037c-0.063-0.016-0.104-0.027-0.126-0.035l0.066-0.199c0.1,0.04,0.188,0.083,0.266,0.132
					c-0.02-0.123-0.027-0.223-0.027-0.301h0.201c0,0.055-0.01,0.156-0.03,0.303c0.015-0.005,0.047-0.021,0.097-0.043
					c0.068-0.031,0.131-0.058,0.188-0.081l0.06,0.207c-0.084,0.018-0.18,0.037-0.291,0.054l0.135,0.154
					c0.027,0.031,0.049,0.056,0.064,0.075L60.016,23l-0.155-0.252C59.816,22.83,59.763,22.917,59.705,23.009z"/>
				<path fill="#808080" d="M60.644,23.009l-0.172-0.134c0.056-0.061,0.111-0.118,0.17-0.175c0.023-0.023,0.037-0.037,0.045-0.043
					c-0.02-0.002-0.073-0.015-0.162-0.037c-0.064-0.016-0.107-0.027-0.127-0.035l0.065-0.199c0.101,0.04,0.188,0.083,0.265,0.132
					c-0.016-0.123-0.025-0.223-0.025-0.301h0.2c0,0.055-0.009,0.156-0.028,0.303c0.012-0.005,0.045-0.021,0.098-0.043
					c0.066-0.031,0.129-0.058,0.188-0.081l0.06,0.207c-0.085,0.018-0.182,0.037-0.292,0.054l0.136,0.154
					c0.028,0.031,0.05,0.056,0.065,0.075L60.955,23l-0.152-0.252C60.755,22.83,60.703,22.917,60.644,23.009z"/>
				<path fill="#808080" d="M61.583,23.009l-0.172-0.134c0.055-0.061,0.109-0.118,0.17-0.175c0.023-0.023,0.037-0.037,0.043-0.043
					c-0.018-0.002-0.071-0.015-0.161-0.037c-0.065-0.016-0.106-0.027-0.126-0.035l0.067-0.199c0.097,0.04,0.187,0.083,0.265,0.132
					c-0.019-0.123-0.029-0.223-0.029-0.301h0.201c0,0.055-0.009,0.156-0.028,0.303c0.015-0.005,0.048-0.021,0.097-0.043
					c0.068-0.031,0.129-0.058,0.188-0.081l0.063,0.207c-0.084,0.018-0.182,0.037-0.291,0.054l0.135,0.154
					c0.025,0.031,0.049,0.056,0.064,0.075L61.894,23l-0.152-0.252C61.696,22.83,61.64,22.917,61.583,23.009z"/>
				<path fill="#808080" d="M62.521,23.009l-0.171-0.134c0.056-0.061,0.113-0.118,0.171-0.175c0.023-0.023,0.037-0.037,0.043-0.043
					c-0.018-0.002-0.072-0.015-0.16-0.037c-0.064-0.016-0.107-0.027-0.129-0.035l0.068-0.199c0.1,0.04,0.188,0.083,0.266,0.132
					c-0.02-0.123-0.029-0.223-0.029-0.301h0.202c0,0.055-0.009,0.156-0.03,0.303c0.016-0.005,0.048-0.021,0.098-0.043
					c0.067-0.031,0.131-0.058,0.188-0.081l0.061,0.207c-0.084,0.018-0.181,0.037-0.291,0.054l0.137,0.154
					c0.027,0.031,0.047,0.056,0.064,0.075L62.833,23l-0.154-0.252C62.634,22.83,62.582,22.917,62.521,23.009z"/>
				<path fill="#808080" d="M63.46,23.009l-0.17-0.134c0.055-0.061,0.111-0.118,0.17-0.175c0.021-0.023,0.039-0.037,0.043-0.043
					c-0.018-0.002-0.072-0.015-0.16-0.037c-0.064-0.016-0.107-0.027-0.127-0.035l0.066-0.199c0.098,0.04,0.188,0.083,0.266,0.132
					c-0.02-0.123-0.027-0.223-0.027-0.301h0.201c0,0.055-0.01,0.156-0.029,0.303c0.014-0.005,0.045-0.021,0.096-0.043
					c0.068-0.031,0.131-0.058,0.189-0.081l0.059,0.207c-0.084,0.018-0.182,0.037-0.292,0.054l0.136,0.154
					c0.027,0.031,0.049,0.056,0.064,0.075L63.774,23l-0.153-0.252C63.574,22.83,63.521,22.917,63.46,23.009z"/>
			</g>
		</g>
		<linearGradient id="SVGID_18_" gradientUnits="userSpaceOnUse" x1="67.7212" y1="44.8916" x2="67.7212" y2="48.4272">
			<stop  offset="0" style="stop-color:#333636"/>
			<stop  offset="1" style="stop-color:#7D8A8C"/>
		</linearGradient>
		<ellipse fill-rule="evenodd" clip-rule="evenodd" fill="url(#SVGID_18_)" cx="67.722" cy="46.659" rx="1.709" ry="1.768"/>
		<ellipse fill-rule="evenodd" clip-rule="evenodd" fill="#7AA1AD" cx="67.722" cy="46.66" rx="1.395" ry="1.441"/>
		<path fill-rule="evenodd" clip-rule="evenodd" fill="#29454F" d="M67.722,45.301c0.725,0,1.315,0.608,1.315,1.358
			c0,0.751-0.59,0.788-1.315,0.788c-0.725,0-1.313-0.036-1.313-0.788C66.409,45.909,66.998,45.301,67.722,45.301z"/>
		<linearGradient id="SVGID_19_" gradientUnits="userSpaceOnUse" x1="67.7222" y1="45.3008" x2="67.7222" y2="47.0708">
			<stop  offset="0" style="stop-color:#CCEBF5"/>
			<stop  offset="1" style="stop-color:#528799"/>
		</linearGradient>
		<path fill-rule="evenodd" clip-rule="evenodd" fill="url(#SVGID_19_)" d="M67.722,45.301c0.637,0,1.155,0.501,1.155,1.121
			c0,0.618-0.518,0.649-1.155,0.649c-0.637,0-1.154-0.031-1.154-0.649C66.568,45.802,67.085,45.301,67.722,45.301z"/>
		<linearGradient id="SVGID_20_" gradientUnits="userSpaceOnUse" x1="67.7222" y1="0" x2="67.7222" y2="1.2065">
			<stop  offset="0" style="stop-color:#A6B8C2"/>
			<stop  offset="1" style="stop-color:#808F96"/>
		</linearGradient>
		<rect x="58.412" fill-rule="evenodd" clip-rule="evenodd" fill="url(#SVGID_20_)" width="18.622" height="1.207"/>
		<polygon fill-rule="evenodd" clip-rule="evenodd" fill="#B8C7D1" points="61.628,4.572 58.412,1.458 77.035,1.458 73.816,4.572 		
			"/>
		<polygon fill-rule="evenodd" clip-rule="evenodd" fill="#5C666B" points="61.628,4.072 58.412,1.458 77.035,1.458 73.816,4.072 		
			"/>
		<rect x="58.412" y="1.207" fill-rule="evenodd" clip-rule="evenodd" fill="#A1B0B8" width="18.622" height="0.251"/>
		<linearGradient id="SVGID_21_" gradientUnits="userSpaceOnUse" x1="67.7222" y1="1.6968" x2="67.7222" y2="3.8247">
			<stop  offset="0" style="stop-color:#333636"/>
			<stop  offset="1" style="stop-color:#7D8A8C"/>
		</linearGradient>
		<ellipse fill-rule="evenodd" clip-rule="evenodd" fill="url(#SVGID_21_)" cx="67.722" cy="2.761" rx="1.03" ry="1.064"/>
		<ellipse fill-rule="evenodd" clip-rule="evenodd" fill="#7AA1AD" cx="67.722" cy="2.761" rx="0.838" ry="0.867"/>
		<path fill-rule="evenodd" clip-rule="evenodd" fill="#29454F" d="M67.722,1.943c0.438,0,0.792,0.367,0.792,0.818
			c0,0.452-0.354,0.474-0.792,0.474c-0.436,0-0.791-0.022-0.791-0.474C66.931,2.31,67.287,1.943,67.722,1.943z"/>
		<linearGradient id="SVGID_22_" gradientUnits="userSpaceOnUse" x1="67.7212" y1="1.9429" x2="67.7212" y2="3.0083">
			<stop  offset="0" style="stop-color:#CCEBF5"/>
			<stop  offset="1" style="stop-color:#528799"/>
		</linearGradient>
		<path fill-rule="evenodd" clip-rule="evenodd" fill="url(#SVGID_22_)" d="M67.722,1.943c0.385,0,0.694,0.303,0.694,0.675
			s-0.309,0.391-0.694,0.391c-0.383,0-0.695-0.019-0.695-0.391S67.339,1.943,67.722,1.943z"/>
	</g>
</g>
<g id="KMgrShield" display="none">
	<g>
		<path d="M79.238,62.5c-1.657,0-3.335-0.242-4.986-0.719c-0.141-0.043-0.171-0.076-0.411-0.329L73.7,61.305
			c-0.034-0.03-0.064-0.065-0.089-0.104c-1.173-1.832-1.997-3.624-2.596-5.641c-0.309-0.969-0.555-1.951-0.73-2.908
			c-0.297-1.623-0.42-3.299-0.377-5.125l0.003-0.235c0-0.13,0.001-0.259,0.008-0.388c0.006-0.138,0.018-0.276,0.028-0.414
			l0.033-0.466c0.019-0.304,0.037-0.609,0.069-0.908c0.188-1.735,0.544-3.554,1.061-5.408c0.155-0.568,0.323-1.13,0.501-1.68
			c0.614-1.911,1.4-3.9,2.337-5.913c0.3-0.645,0.601-1.258,0.891-1.83c0.29-0.573,0.573-1.107,0.838-1.596
			c0.266-0.49,0.517-0.934,0.741-1.325c0.224-0.391,0.425-0.73,0.592-1.01c0.093-0.154,0.257-0.244,0.43-0.244
			c0.045,0,0.09,0.006,0.135,0.019c0.4,0.112,0.801,0.17,1.192,0.173c0.358,0,0.711-0.047,1.054-0.142
			c0.316-0.087,0.629-0.217,0.928-0.386c0.274-0.152,0.536-0.335,0.804-0.563c0.231-0.198,0.454-0.42,0.661-0.66
			c0.2-0.229,0.369-0.458,0.515-0.67c0.145-0.212,0.264-0.41,0.356-0.578c0.095-0.169,0.163-0.309,0.208-0.403l0.493,0.12
			l-0.451-0.218c0.08-0.187,0.264-0.303,0.46-0.303c0.034,0,0.069,0.003,0.104,0.011l16.246,3.469
			c0.336,0.089,1.155,0.959,1.218,1.089c0.066,0.137,0.066,0.299,0,0.436c-0.003,0.005-0.037,0.096-0.055,0.143
			c-0.077,0.209-0.158,0.463-0.224,0.747c-0.072,0.309-0.117,0.616-0.133,0.914c-0.018,0.351,0.004,0.688,0.063,1.004
			c0.067,0.361,0.188,0.707,0.359,1.03c0.193,0.365,0.457,0.71,0.783,1.026c0.373,0.36,0.839,0.69,1.384,0.982
			c0.274,0.147,0.574,0.289,0.904,0.421c0.349,0.142,1.646,1.061,1.41,1.793c-0.075,0.236-0.157,0.491-0.248,0.761
			c-0.189,0.571-0.416,1.215-0.681,1.917c-0.262,0.703-0.563,1.465-0.905,2.272c-0.354,0.842-0.741,1.698-1.147,2.542
			c-1.357,2.823-2.898,5.43-4.577,7.748c-2.038,2.815-4.265,5.179-6.619,7.026c-2.658,2.082-5.454,3.486-8.311,4.174
			C82.003,62.333,80.613,62.5,79.238,62.5L79.238,62.5z"/>
		<path fill="#808080" d="M83.794,23l16.246,3.469l-0.001,0.001c0.116,0.029,0.88,0.802,0.873,0.817
			c-0.06,0.123,0.012-0.042-0.073,0.186c-0.084,0.229-0.171,0.502-0.242,0.808c-0.071,0.305-0.126,0.644-0.145,1.001
			c-0.019,0.359-0.002,0.738,0.071,1.124c0.072,0.387,0.202,0.781,0.408,1.171c0.208,0.392,0.493,0.779,0.878,1.151
			c0.389,0.375,0.879,0.733,1.495,1.063c0.29,0.155,0.606,0.304,0.954,0.444c0.404,0.164,1.205,0.916,1.121,1.177
			c-0.075,0.234-0.156,0.487-0.246,0.754c-0.188,0.567-0.413,1.205-0.675,1.901c-0.26,0.697-0.558,1.453-0.897,2.252
			c-0.338,0.802-0.717,1.646-1.138,2.521c-1.174,2.44-2.67,5.101-4.532,7.671c-1.839,2.541-4.01,4.955-6.522,6.926
			c-2.44,1.912-5.156,3.368-8.119,4.082C81.945,61.833,80.606,62,79.238,62c-1.579,0-3.198-0.223-4.848-0.699
			c-0.013-0.004-0.347-0.365-0.358-0.369c-1.259-1.967-2.01-3.736-2.537-5.514c-0.307-0.964-0.546-1.917-0.718-2.855
			c-0.312-1.702-0.408-3.38-0.369-5.023c0.005-0.203,0-0.408,0.01-0.61c0.01-0.211,0.031-0.419,0.046-0.629
			c0.024-0.377,0.043-0.758,0.083-1.13c0.198-1.835,0.57-3.623,1.045-5.327c0.154-0.563,0.32-1.118,0.495-1.661
			c0.684-2.127,1.505-4.116,2.314-5.855c0.298-0.639,0.596-1.247,0.884-1.815c0.288-0.569,0.568-1.099,0.831-1.584
			c0.264-0.485,0.512-0.925,0.735-1.313c0.223-0.389,0.422-0.726,0.588-1.004c0.464,0.13,0.905,0.188,1.323,0.191
			c0.004,0,0.007,0,0.011,0c0.418,0,0.811-0.059,1.179-0.159c0.375-0.104,0.723-0.253,1.042-0.433
			c0.323-0.179,0.615-0.391,0.882-0.618c0.267-0.228,0.506-0.471,0.716-0.714c0.212-0.243,0.394-0.487,0.549-0.714
			c0.154-0.227,0.281-0.438,0.381-0.618c0.101-0.18,0.174-0.33,0.222-0.43c0.006-0.014,0.011-0.025,0.016-0.035
			c0.006-0.013,0.01-0.022,0.015-0.032c0.004-0.01,0.008-0.019,0.012-0.027C83.788,23.014,83.791,23.007,83.794,23 M83.794,22
			c-0.394,0-0.759,0.233-0.919,0.606c-0.003,0.006-0.008,0.017-0.012,0.028c-0.001,0.003-0.003,0.006-0.004,0.009
			c-0.004,0.008-0.007,0.016-0.01,0.021c-0.001,0.003-0.022,0.05-0.023,0.053c-0.027,0.056-0.091,0.186-0.178,0.341
			c-0.089,0.161-0.199,0.345-0.334,0.543c-0.156,0.229-0.313,0.432-0.477,0.62c-0.194,0.225-0.398,0.429-0.611,0.611
			c-0.24,0.205-0.476,0.37-0.716,0.503c-0.272,0.153-0.547,0.268-0.824,0.344c-0.298,0.082-0.606,0.123-0.913,0.123
			c-0.351-0.002-0.707-0.054-1.064-0.154c-0.09-0.025-0.18-0.037-0.27-0.037c-0.346,0-0.675,0.18-0.858,0.487
			c-0.169,0.283-0.371,0.625-0.598,1.021c-0.226,0.391-0.478,0.838-0.746,1.332c-0.268,0.495-0.552,1.033-0.845,1.61
			c-0.314,0.62-0.616,1.241-0.897,1.844c-0.945,2.032-1.739,4.041-2.36,5.972c-0.183,0.569-0.354,1.143-0.508,1.703
			c-0.522,1.875-0.884,3.722-1.074,5.483c-0.033,0.308-0.053,0.62-0.071,0.932l-0.016,0.242l-0.017,0.214
			c-0.012,0.144-0.023,0.288-0.03,0.433c-0.007,0.133-0.008,0.27-0.008,0.407l-0.003,0.225c-0.044,1.86,0.082,3.569,0.386,5.227
			c0.179,0.978,0.431,1.979,0.748,2.979c0.606,2.044,1.45,3.877,2.648,5.75c0.047,0.073,0.103,0.14,0.165,0.197
			c0.028,0.029,0.075,0.078,0.122,0.128c0.248,0.262,0.361,0.381,0.619,0.46C75.81,62.751,77.534,63,79.238,63
			c1.415,0,2.843-0.171,4.246-0.509c2.927-0.705,5.787-2.14,8.501-4.267c2.392-1.876,4.651-4.273,6.717-7.126
			c1.696-2.342,3.252-4.974,4.623-7.824c0.409-0.852,0.799-1.715,1.158-2.566c0.318-0.749,0.626-1.521,0.913-2.291
			c0.248-0.66,0.479-1.312,0.687-1.935c0.09-0.269,0.173-0.526,0.249-0.764c0.361-1.125-1.252-2.229-1.697-2.409
			c-0.302-0.121-0.589-0.255-0.858-0.399c-0.503-0.27-0.932-0.573-1.272-0.902c-0.287-0.277-0.52-0.581-0.688-0.9
			c-0.147-0.277-0.251-0.576-0.309-0.886c-0.054-0.28-0.072-0.578-0.056-0.888c0.014-0.268,0.054-0.545,0.119-0.825
			c0.054-0.231,0.123-0.463,0.207-0.691c0.013-0.032,0.024-0.064,0.035-0.096c0.134-0.276,0.132-0.601-0.003-0.876
			c-0.075-0.154-0.624-0.783-1.111-1.129c-0.126-0.111-0.28-0.19-0.449-0.226l-16.246-3.469C83.933,22.007,83.862,22,83.794,22
			L83.794,22z"/>
	</g>
	<g>
		<g>
			
				<linearGradient id="SVGID_23_" gradientUnits="userSpaceOnUse" x1="439.3281" y1="137.457" x2="451.5545" y2="182.9178" gradientTransform="matrix(-0.9576 -0.288 -0.288 0.9576 558.6113 16.4912)">
				<stop  offset="0" style="stop-color:#7A7A7A"/>
				<stop  offset="0.1209" style="stop-color:#252525"/>
				<stop  offset="0.1929" style="stop-color:#2E2E2E"/>
				<stop  offset="0.3127" style="stop-color:#484848"/>
				<stop  offset="0.4648" style="stop-color:#717171"/>
				<stop  offset="0.4945" style="stop-color:#7A7A7A"/>
				<stop  offset="0.7033" style="stop-color:#121212"/>
				<stop  offset="0.7529" style="stop-color:#212121"/>
				<stop  offset="0.831" style="stop-color:#313131"/>
				<stop  offset="0.8901" style="stop-color:#373737"/>
				<stop  offset="1" style="stop-color:#121212"/>
			</linearGradient>
			<path fill="url(#SVGID_23_)" d="M72.068,38.297c0.688-2.141,1.524-4.138,2.351-5.885c0.303-0.642,0.606-1.253,0.901-1.823
				c0.295-0.571,0.581-1.103,0.852-1.59c0.27-0.487,0.522-0.927,0.751-1.316c0.229-0.39,0.434-0.727,0.604-1.007
				c0.485,0.138,0.948,0.203,1.385,0.208c0.441,0.007,0.855-0.047,1.242-0.147c0.391-0.1,0.751-0.245,1.083-0.424
				c0.335-0.178,0.64-0.387,0.915-0.613c0.276-0.227,0.523-0.47,0.74-0.714c0.219-0.242,0.405-0.486,0.564-0.714
				c0.159-0.228,0.289-0.44,0.392-0.62c0.103-0.181,0.178-0.329,0.226-0.432c0.019-0.039,0.035-0.077,0.053-0.116
				c1.36,0.288,2.722,0.575,4.082,0.863c2.541,0.537,5.081,1.073,7.622,1.608c1.406,0.298,2.814,0.595,4.221,0.893
				c0.111,0.023,0.882,0.803,0.875,0.819c-0.06,0.123,0.012-0.042-0.073,0.186c-0.084,0.229-0.171,0.502-0.242,0.808
				c-0.071,0.305-0.126,0.644-0.145,1.001c-0.019,0.359-0.002,0.738,0.071,1.124c0.072,0.387,0.202,0.781,0.408,1.171
				c0.208,0.392,0.493,0.779,0.878,1.151c0.389,0.375,0.879,0.733,1.495,1.063c0.29,0.155,0.606,0.304,0.954,0.444
				c0.404,0.164,1.205,0.916,1.121,1.177c-0.075,0.234-0.156,0.487-0.246,0.754c-0.188,0.567-0.413,1.205-0.675,1.901
				c-0.26,0.697-0.558,1.453-0.897,2.252c-0.338,0.802-0.717,1.646-1.138,2.521c-1.174,2.44-2.67,5.101-4.532,7.671
				c-1.839,2.541-4.01,4.955-6.522,6.926c-2.44,1.912-5.156,3.368-8.119,4.082c-2.81,0.676-5.78,0.671-8.859-0.218
				c-0.013-0.004-0.347-0.365-0.358-0.369c-1.87-2.921-2.632-5.408-3.18-8.132c-0.525-2.617-0.567-5.183-0.306-7.629
				C70.82,42.772,71.374,40.452,72.068,38.297z"/>
			
				<linearGradient id="SVGID_24_" gradientUnits="userSpaceOnUse" x1="459.4727" y1="150.4131" x2="430.5527" y2="171.5034" gradientTransform="matrix(-0.9576 -0.288 -0.288 0.9576 558.6113 16.4912)">
				<stop  offset="0" style="stop-color:#FFFFFF"/>
				<stop  offset="0.034" style="stop-color:#F6F6F6"/>
				<stop  offset="0.0905" style="stop-color:#DCDCDC"/>
				<stop  offset="0.1626" style="stop-color:#B2B2B2"/>
				<stop  offset="0.2468" style="stop-color:#797979"/>
				<stop  offset="0.2637" style="stop-color:#6D6D6D"/>
				<stop  offset="0.2897" style="stop-color:#949898"/>
				<stop  offset="0.3204" style="stop-color:#BCC4C4"/>
				<stop  offset="0.348" style="stop-color:#DAE4E4"/>
				<stop  offset="0.3711" style="stop-color:#ECF8F8"/>
				<stop  offset="0.3869" style="stop-color:#F2FFFF"/>
				<stop  offset="0.5357" style="stop-color:#EBEBEB"/>
				<stop  offset="0.6923" style="stop-color:#494949"/>
				<stop  offset="0.8242" style="stop-color:#B7B7B7"/>
				<stop  offset="0.9226" style="stop-color:#EDEDED"/>
				<stop  offset="1" style="stop-color:#6D6D6D"/>
			</linearGradient>
			<path fill="url(#SVGID_24_)" d="M72.102,38.183c0.684-2.127,1.505-4.116,2.314-5.855c0.298-0.639,0.596-1.247,0.884-1.815
				c0.288-0.569,0.568-1.099,0.831-1.584c0.264-0.485,0.512-0.925,0.735-1.313c0.223-0.389,0.422-0.726,0.588-1.004
				c0.464,0.13,0.905,0.188,1.323,0.191c0.422,0.001,0.818-0.058,1.189-0.159c0.375-0.104,0.723-0.253,1.042-0.433
				c0.323-0.179,0.615-0.391,0.882-0.618c0.267-0.228,0.506-0.471,0.716-0.714c0.212-0.243,0.394-0.487,0.549-0.714
				c0.154-0.227,0.281-0.438,0.381-0.618c0.101-0.18,0.174-0.33,0.222-0.43c0.006-0.014,0.011-0.025,0.016-0.035
				c0.006-0.013,0.01-0.022,0.015-0.032c0.004-0.01,0.008-0.019,0.012-0.027c0.003-0.008,0.006-0.015,0.009-0.021l16.246,3.469
				c-0.004,0.008-0.009,0.017-0.014,0.026c-0.005,0.011-0.011,0.021-0.017,0.033c-0.005,0.012-0.011,0.024-0.018,0.037
				c-0.006,0.014-0.013,0.028-0.021,0.043c-0.058,0.124-0.139,0.306-0.222,0.533c-0.083,0.228-0.17,0.499-0.242,0.802
				c-0.071,0.304-0.128,0.639-0.148,0.994c-0.022,0.356-0.011,0.731,0.056,1.112c0.065,0.382,0.185,0.771,0.377,1.154
				c0.194,0.386,0.463,0.767,0.827,1.131c0.367,0.367,0.833,0.717,1.419,1.037c0.595,0.325,1.315,0.62,2.188,0.87
				c-0.123,0.409-0.276,0.899-0.464,1.462s-0.408,1.198-0.667,1.892c-0.256,0.693-0.55,1.444-0.884,2.239
				c-0.333,0.798-0.704,1.639-1.117,2.511c-1.149,2.428-2.61,5.08-4.421,7.647c-1.789,2.537-3.892,4.954-6.317,6.932
				c-2.356,1.922-4.972,3.395-7.814,4.135c-2.706,0.705-5.561,0.729-8.509-0.128c-1.756-2.874-2.762-5.679-3.255-8.369
				c-0.474-2.586-0.485-5.128-0.207-7.555C70.857,42.629,71.413,40.324,72.102,38.183z"/>
			<path fill="#FFFFFF" d="M99.846,26.625c0.008-0.016,0.015-0.03,0.021-0.044c0.008-0.014,0.014-0.026,0.019-0.038
				c0.002-0.004,0.003-0.005,0.004-0.009c0.056-0.016,0.11-0.036,0.163-0.06c-0.003,0.006-0.007,0.013-0.011,0.021
				c-0.005,0.011-0.011,0.021-0.017,0.033c-0.005,0.012-0.011,0.024-0.018,0.037c-0.006,0.014-0.013,0.028-0.021,0.043
				c-0.058,0.124-0.139,0.306-0.222,0.533c-0.083,0.228-0.17,0.499-0.242,0.802c-0.071,0.304-0.128,0.639-0.148,0.994
				c-0.022,0.356-0.011,0.731,0.056,1.112c0.065,0.382,0.185,0.771,0.377,1.154c0.194,0.386,0.463,0.767,0.827,1.131
				c0.367,0.367,0.833,0.717,1.419,1.037c0.595,0.325,1.315,0.62,2.188,0.87c-0.123,0.409-0.276,0.899-0.464,1.462
				s-0.408,1.198-0.667,1.892c-0.256,0.693-0.55,1.444-0.884,2.239c-0.333,0.798-0.704,1.639-1.117,2.511
				c-1.149,2.428-2.61,5.08-4.421,7.647c-0.452,0.642-0.925,1.276-1.418,1.897c0.401-0.525,0.794-1.056,1.169-1.594
				c1.815-2.606,3.284-5.298,4.441-7.759c0.415-0.885,0.79-1.738,1.125-2.545c0.336-0.808,0.632-1.569,0.893-2.271
				c0.26-0.702,0.483-1.345,0.673-1.916c0.189-0.57,0.346-1.068,0.471-1.482c-0.867-0.248-1.583-0.542-2.174-0.868
				c-0.581-0.321-1.044-0.673-1.407-1.041c-0.36-0.367-0.626-0.75-0.817-1.141c-0.188-0.386-0.306-0.779-0.369-1.165
				c-0.063-0.385-0.073-0.764-0.05-1.125c0.023-0.359,0.082-0.699,0.154-1.006c0.073-0.307,0.16-0.583,0.244-0.813
				C99.707,26.935,99.788,26.75,99.846,26.625z"/>
			<path fill="#383838" d="M73.251,38.484c0.644-2.025,1.435-3.964,2.261-5.737c0.172-0.367,0.348-0.735,0.528-1.101
				c0.18-0.367,0.364-0.733,0.554-1.098c0.189-0.366,0.383-0.73,0.581-1.094c0.198-0.364,0.399-0.725,0.605-1.086
				c0.497,0.058,0.973,0.048,1.423-0.017c0.454-0.064,0.883-0.182,1.281-0.336c0.402-0.155,0.772-0.346,1.11-0.556
				c0.341-0.21,0.646-0.438,0.915-0.664c0.65-0.547,1.219-1.189,1.703-1.886c2.263,0.538,4.525,1.074,6.787,1.611
				c1.524,0.363,3.047,0.724,4.57,1.086c0.48,0.113,0.96,0.228,1.438,0.341c0.557,0.133,0.435,0.058,0.335,0.725
				c-0.031,0.215-0.056,0.438-0.07,0.666c-0.014,0.229-0.018,0.463-0.008,0.703c0.009,0.239,0.032,0.484,0.07,0.729
				c0.06,0.376,0.16,0.78,0.322,1.194c0.161,0.418,0.386,0.849,0.692,1.274c0.309,0.431,0.702,0.859,1.203,1.266
				c0.509,0.414,1.127,0.809,1.884,1.166c-0.14,0.406-0.293,0.837-0.461,1.292c-0.168,0.454-0.352,0.931-0.55,1.427
				s-0.413,1.011-0.643,1.54c-0.23,0.53-0.476,1.074-0.739,1.63c-1.134,2.397-2.515,4.889-4.17,7.244
				c-1.637,2.329-3.52,4.497-5.657,6.273c-2.081,1.731-4.369,3.059-6.844,3.783c-2.37,0.692-4.868,0.816-7.457,0.217
				c-1.511-2.504-2.397-4.976-2.843-7.377c-0.429-2.318-0.454-4.617-0.211-6.844C72.103,42.668,72.604,40.523,73.251,38.484z"/>
			<path fill="#575757" d="M97.663,32.344c0.157,0.411,0.374,0.836,0.672,1.257c0.3,0.423,0.683,0.844,1.171,1.245
				c0.491,0.404,1.091,0.789,1.821,1.138c-0.109,0.313-0.224,0.637-0.351,0.978c-0.168,0.454-0.352,0.931-0.55,1.427
				s-0.413,1.011-0.643,1.54c-0.23,0.53-0.476,1.074-0.739,1.63c-1.134,2.397-2.515,4.889-4.17,7.244
				c-1.637,2.329-3.52,4.497-5.657,6.273c-2.081,1.731-4.369,3.059-6.844,3.783c-2.244,0.657-4.604,0.801-7.046,0.305
				c-1.451-2.452-2.302-4.876-2.725-7.233c-0.411-2.289-0.428-4.56-0.182-6.76c0.242-2.16,0.74-4.281,1.379-6.298
				c0.635-2.002,1.415-3.92,2.229-5.673c0.169-0.364,0.343-0.729,0.52-1.092c0.178-0.362,0.36-0.725,0.546-1.086
				c0.186-0.363,0.376-0.722,0.571-1.081c0.194-0.361,0.393-0.719,0.596-1.076c0.485,0.057,0.949,0.044,1.39-0.021
				c0.444-0.065,0.862-0.184,1.253-0.337c0.393-0.155,0.756-0.345,1.087-0.553c0.332-0.208,0.632-0.435,0.896-0.66
				c0.637-0.542,1.193-1.179,1.669-1.869c2.209,0.522,4.416,1.045,6.624,1.566c1.486,0.353,2.974,0.704,4.46,1.055
				c0.468,0.112,0.936,0.222,1.403,0.333c0.168,0.04,0.273,0.061,0.334,0.089c-0.012,0.06-0.023,0.127-0.034,0.205
				c-0.031,0.215-0.056,0.438-0.07,0.666c-0.014,0.229-0.018,0.463-0.008,0.703c0.004,0.1,0.011,0.201,0.021,0.302
				c0,0.035-0.001,0.067,0.001,0.103c0.009,0.236,0.029,0.477,0.066,0.72C97.411,31.536,97.508,31.934,97.663,32.344z"/>
			
				<radialGradient id="SVGID_25_" cx="451.7412" cy="144.6934" r="0.3047" gradientTransform="matrix(-0.9576 -0.2882 -0.288 0.9584 558.6113 16.9355)" gradientUnits="userSpaceOnUse">
				<stop  offset="0" style="stop-color:#A3A3A3"/>
				<stop  offset="0.291" style="stop-color:#A1A1A1"/>
				<stop  offset="0.462" style="stop-color:#989898"/>
				<stop  offset="0.6021" style="stop-color:#8A8A8A"/>
				<stop  offset="0.7254" style="stop-color:#767676"/>
				<stop  offset="0.8365" style="stop-color:#5D5D5D"/>
				<stop  offset="0.9394" style="stop-color:#3D3D3D"/>
				<stop  offset="0.9464" style="stop-color:#3B3B3B"/>
				<stop  offset="1" style="stop-color:#231F20"/>
			</radialGradient>
			<path fill="url(#SVGID_25_)" d="M84.379,25.667c0.06-0.081,0.121-0.16,0.178-0.242c0.034,0.008,0.068,0.015,0.103,0.023
				C84.565,25.521,84.472,25.593,84.379,25.667z"/>
			<g>
				
					<radialGradient id="SVGID_26_" cx="-632.3125" cy="563.2217" r="0" gradientTransform="matrix(131.0863 105.5708 -105.484 131.1942 142388.0313 -7111)" gradientUnits="userSpaceOnUse">
					<stop  offset="0" style="stop-color:#30C1FF"/>
					<stop  offset="0.3242" style="stop-color:#30BEFD"/>
					<stop  offset="0.5162" style="stop-color:#30B6F8"/>
					<stop  offset="0.6737" style="stop-color:#30A8EF"/>
					<stop  offset="0.8116" style="stop-color:#3094E2"/>
					<stop  offset="0.9167" style="stop-color:#307FD5"/>
					<stop  offset="0.9289" style="stop-color:#307DD0"/>
					<stop  offset="0.9437" style="stop-color:#3277C1"/>
					<stop  offset="0.9598" style="stop-color:#346EA9"/>
					<stop  offset="0.9769" style="stop-color:#376186"/>
					<stop  offset="0.9946" style="stop-color:#3C515B"/>
					<stop  offset="1" style="stop-color:#3D4B4C"/>
				</radialGradient>
				<polygon fill="url(#SVGID_26_)" points="89.596,26.616 89.596,26.616 89.596,26.616 				"/>
				<path fill="#6E6E6E" d="M73.801,38.873c0.635-2.002,1.415-3.92,2.229-5.673c0.169-0.364,0.343-0.729,0.52-1.092
					c0.178-0.362,0.36-0.725,0.546-1.086c0.186-0.363,0.376-0.722,0.571-1.081c0.194-0.361,0.393-0.719,0.596-1.076
					c0.485,0.057,0.949,0.044,1.39-0.021c0.444-0.065,0.862-0.184,1.253-0.337c0.393-0.155,0.756-0.345,1.087-0.553
					c0.332-0.208,0.632-0.435,0.896-0.66c0.637-0.542,1.193-1.179,1.669-1.869c1.68,0.397,3.359,0.794,5.039,1.191
					c-3.302,2.619-6.908,7.838-9.582,14.338c-3.019,7.341-4.861,15.638-4.686,18.209c-1.451-2.452-2.302-4.876-2.725-7.233
					c-0.411-2.289-0.428-4.56-0.182-6.76c0.206-1.832,0.596-3.638,1.099-5.375c0.06-0.205,0.12-0.408,0.184-0.612
					C73.736,39.081,73.769,38.977,73.801,38.873z"/>
			</g>
		</g>
		<linearGradient id="SVGID_27_" gradientUnits="userSpaceOnUse" x1="75.3613" y1="25.5566" x2="93.5999" y2="60.5372">
			<stop  offset="0" style="stop-color:#FFFFFF"/>
			<stop  offset="0.2599" style="stop-color:#FDFDFD"/>
			<stop  offset="0.4127" style="stop-color:#F4F4F4"/>
			<stop  offset="0.5379" style="stop-color:#E6E6E6"/>
			<stop  offset="0.6481" style="stop-color:#D2D2D2"/>
			<stop  offset="0.7484" style="stop-color:#B8B8B8"/>
			<stop  offset="0.8415" style="stop-color:#989898"/>
			<stop  offset="0.9275" style="stop-color:#737373"/>
			<stop  offset="1" style="stop-color:#4D4D4D"/>
		</linearGradient>
		<path fill="url(#SVGID_27_)" d="M86.302,30.544c-4.882-1.227-10.052,2.611-11.549,8.574C73.256,45.081,76,50.91,80.881,52.137
			c4.881,1.227,10.052-2.611,11.549-8.574C93.926,37.601,91.183,31.772,86.302,30.544z M76.313,39.511
			c0.526-2.096,1.604-3.872,2.979-5.141l7.091,15.063c-1.549,0.9-3.308,1.23-5.022,0.798C77.339,49.221,75.08,44.421,76.313,39.511z
			 M87.891,48.312l-7.09-15.063c1.549-0.9,3.307-1.23,5.022-0.798c4.02,1.011,6.279,5.811,5.047,10.721
			C90.344,45.266,89.266,47.042,87.891,48.312z"/>
	</g>
</g>
<g id="KMgrShieldError">
	<g display="inline">
		<path d="M79.263,62.5c-1.657,0-3.335-0.242-4.986-0.719c-0.141-0.043-0.171-0.076-0.411-0.329l-0.142-0.147
			c-0.033-0.03-0.063-0.065-0.088-0.104c-1.173-1.832-1.997-3.624-2.596-5.641c-0.309-0.969-0.555-1.951-0.73-2.908
			c-0.296-1.62-0.419-3.296-0.376-5.125c0,0,0.003-0.491,0.008-0.618c0.007-0.141,0.048-0.644,0.048-0.644l0.019-0.289
			c0.018-0.288,0.036-0.576,0.066-0.86c0.188-1.732,0.544-3.551,1.06-5.407c0.158-0.569,0.325-1.131,0.502-1.681
			c0.614-1.911,1.4-3.9,2.337-5.913c0.3-0.645,0.601-1.258,0.891-1.83c0.29-0.573,0.573-1.107,0.838-1.596
			c0.266-0.49,0.517-0.934,0.741-1.325c0.224-0.391,0.425-0.73,0.592-1.01c0.093-0.154,0.257-0.244,0.43-0.244
			c0.045,0,0.09,0.006,0.135,0.019c0.4,0.112,0.801,0.17,1.192,0.173c0.358,0,0.711-0.047,1.054-0.142
			c0.316-0.087,0.629-0.217,0.928-0.386c0.274-0.152,0.536-0.335,0.804-0.563c0.231-0.198,0.454-0.42,0.661-0.66
			c0.2-0.229,0.369-0.458,0.515-0.67c0.145-0.212,0.264-0.41,0.356-0.578c0.095-0.169,0.163-0.309,0.208-0.403l0.493,0.12
			l-0.451-0.218c0.08-0.187,0.264-0.303,0.46-0.303c0.034,0,0.069,0.003,0.104,0.011l16.246,3.469
			c0.336,0.089,1.155,0.959,1.218,1.089c0.066,0.138,0.066,0.299,0,0.437c-0.003,0.005-0.037,0.096-0.055,0.143
			c-0.077,0.209-0.158,0.463-0.224,0.747c-0.072,0.309-0.117,0.616-0.133,0.914c-0.018,0.351,0.004,0.688,0.063,1.004
			c0.067,0.361,0.188,0.707,0.359,1.03c0.193,0.365,0.457,0.71,0.783,1.026c0.373,0.36,0.839,0.69,1.384,0.982
			c0.274,0.147,0.574,0.289,0.904,0.421c0.349,0.142,1.646,1.061,1.41,1.793c-0.075,0.236-0.157,0.491-0.248,0.761
			c-0.189,0.571-0.416,1.215-0.681,1.917c-0.262,0.703-0.563,1.465-0.905,2.272c-0.354,0.842-0.741,1.697-1.147,2.542
			c-1.357,2.823-2.898,5.43-4.577,7.748c-2.038,2.815-4.265,5.179-6.619,7.026c-2.658,2.082-5.454,3.486-8.311,4.174
			C82.027,62.333,80.638,62.5,79.263,62.5L79.263,62.5z"/>
		<path fill="#808080" d="M83.818,23l16.246,3.469l-0.001,0.001c0.116,0.029,0.88,0.802,0.873,0.817
			c-0.06,0.123,0.012-0.042-0.073,0.186c-0.084,0.229-0.171,0.502-0.242,0.808c-0.071,0.305-0.126,0.644-0.145,1.001
			c-0.019,0.359-0.002,0.738,0.071,1.124c0.072,0.387,0.202,0.781,0.408,1.171c0.208,0.392,0.493,0.779,0.878,1.151
			c0.389,0.375,0.879,0.733,1.495,1.063c0.29,0.155,0.606,0.304,0.954,0.444c0.404,0.164,1.205,0.916,1.121,1.177
			c-0.075,0.234-0.156,0.487-0.246,0.754c-0.188,0.567-0.413,1.205-0.675,1.901c-0.26,0.697-0.558,1.453-0.897,2.252
			c-0.338,0.802-0.717,1.646-1.138,2.521c-1.174,2.44-2.67,5.101-4.532,7.671c-1.839,2.541-4.01,4.955-6.522,6.926
			c-2.44,1.912-5.156,3.368-8.119,4.082C81.97,61.833,80.631,62,79.263,62c-1.579,0-3.198-0.223-4.848-0.699
			c-0.013-0.004-0.347-0.365-0.358-0.369c-1.259-1.967-2.01-3.736-2.537-5.514c-0.307-0.964-0.546-1.917-0.718-2.855
			c-0.312-1.702-0.407-3.38-0.368-5.023c0.004-0.203,0-0.408,0.008-0.61c0.01-0.211,0.032-0.419,0.047-0.629
			c0.025-0.377,0.043-0.758,0.083-1.13c0.198-1.835,0.57-3.623,1.044-5.327c0.156-0.563,0.321-1.118,0.496-1.661
			c0.684-2.127,1.505-4.116,2.314-5.855c0.298-0.639,0.596-1.247,0.884-1.815c0.288-0.569,0.568-1.099,0.831-1.584
			c0.264-0.485,0.512-0.925,0.735-1.313c0.223-0.389,0.422-0.726,0.588-1.004c0.464,0.13,0.905,0.188,1.323,0.191
			c0.004,0,0.007,0,0.011,0c0.418,0,0.811-0.059,1.179-0.159c0.375-0.104,0.723-0.253,1.042-0.433
			c0.323-0.179,0.615-0.391,0.882-0.618c0.267-0.228,0.506-0.471,0.716-0.714c0.212-0.243,0.394-0.487,0.549-0.714
			c0.154-0.227,0.281-0.438,0.381-0.618c0.101-0.18,0.174-0.33,0.222-0.43c0.006-0.014,0.011-0.025,0.016-0.035
			c0.006-0.013,0.01-0.022,0.015-0.032c0.004-0.01,0.008-0.019,0.012-0.027C83.813,23.014,83.815,23.007,83.818,23 M83.818,22
			c-0.394,0-0.759,0.233-0.919,0.606c-0.003,0.006-0.008,0.017-0.012,0.028c-0.001,0.002-0.003,0.005-0.004,0.008
			c-0.004,0.008-0.007,0.016-0.01,0.021c-0.001,0.003-0.022,0.05-0.023,0.053c-0.027,0.056-0.091,0.186-0.178,0.341
			c-0.089,0.161-0.199,0.345-0.334,0.543c-0.156,0.229-0.313,0.432-0.477,0.62c-0.194,0.226-0.398,0.429-0.611,0.611
			c-0.24,0.205-0.476,0.37-0.716,0.503c-0.272,0.153-0.547,0.268-0.824,0.344c-0.298,0.082-0.606,0.123-0.913,0.123
			c-0.351-0.002-0.707-0.054-1.064-0.154c-0.089-0.025-0.18-0.037-0.27-0.037c-0.346,0-0.675,0.18-0.858,0.487
			c-0.169,0.282-0.371,0.625-0.598,1.02c-0.226,0.391-0.478,0.838-0.746,1.332c-0.268,0.495-0.552,1.033-0.845,1.61
			c-0.314,0.62-0.616,1.241-0.897,1.844c-0.945,2.032-1.739,4.041-2.36,5.972c-0.174,0.54-0.345,1.112-0.508,1.7
			c-0.522,1.882-0.884,3.728-1.074,5.487c-0.031,0.292-0.05,0.587-0.068,0.883l-0.019,0.288l-0.018,0.222
			c-0.012,0.142-0.023,0.284-0.03,0.427c-0.005,0.14-0.006,0.274-0.007,0.408l-0.002,0.229c-0.044,1.858,0.082,3.568,0.385,5.222
			c0.179,0.978,0.431,1.979,0.748,2.979c0.606,2.044,1.45,3.877,2.648,5.75c0.047,0.073,0.103,0.14,0.165,0.197
			c0.028,0.029,0.075,0.078,0.122,0.128c0.248,0.262,0.361,0.381,0.619,0.46C75.834,62.751,77.559,63,79.263,63
			c1.415,0,2.843-0.171,4.246-0.509c2.927-0.705,5.787-2.14,8.501-4.267c2.392-1.876,4.651-4.273,6.717-7.126
			c1.696-2.342,3.252-4.974,4.623-7.824c0.409-0.852,0.799-1.715,1.158-2.566c0.318-0.749,0.626-1.521,0.913-2.291
			c0.248-0.66,0.479-1.312,0.687-1.935c0.09-0.269,0.173-0.526,0.249-0.764c0.361-1.125-1.252-2.229-1.697-2.409
			c-0.302-0.121-0.589-0.255-0.858-0.399c-0.503-0.27-0.932-0.573-1.272-0.902c-0.287-0.277-0.52-0.581-0.688-0.9
			c-0.147-0.277-0.251-0.576-0.309-0.886c-0.054-0.28-0.072-0.578-0.056-0.888c0.014-0.268,0.054-0.545,0.119-0.825
			c0.054-0.231,0.123-0.463,0.207-0.691c0.013-0.033,0.024-0.065,0.035-0.097c0.134-0.276,0.132-0.601-0.003-0.876
			c-0.075-0.154-0.624-0.783-1.111-1.129c-0.126-0.111-0.28-0.19-0.449-0.226l-16.246-3.469C83.957,22.007,83.887,22,83.818,22
			L83.818,22z"/>
	</g>
	<g display="inline">
		<g>
			
				<linearGradient id="SVGID_28_" gradientUnits="userSpaceOnUse" x1="439.3047" y1="137.4502" x2="451.5311" y2="182.9109" gradientTransform="matrix(-0.9576 -0.288 -0.288 0.9576 558.6113 16.4912)">
				<stop  offset="0" style="stop-color:#7A7A7A"/>
				<stop  offset="0.1209" style="stop-color:#252525"/>
				<stop  offset="0.1929" style="stop-color:#2E2E2E"/>
				<stop  offset="0.3127" style="stop-color:#484848"/>
				<stop  offset="0.4648" style="stop-color:#717171"/>
				<stop  offset="0.4945" style="stop-color:#7A7A7A"/>
				<stop  offset="0.7033" style="stop-color:#121212"/>
				<stop  offset="0.7529" style="stop-color:#212121"/>
				<stop  offset="0.831" style="stop-color:#313131"/>
				<stop  offset="0.8901" style="stop-color:#373737"/>
				<stop  offset="1" style="stop-color:#121212"/>
			</linearGradient>
			<path fill="url(#SVGID_28_)" d="M72.093,38.297c0.688-2.141,1.524-4.138,2.351-5.885c0.303-0.642,0.606-1.253,0.901-1.823
				c0.295-0.571,0.581-1.103,0.852-1.59c0.27-0.487,0.522-0.927,0.751-1.316c0.229-0.39,0.434-0.727,0.604-1.007
				c0.485,0.138,0.948,0.203,1.385,0.208c0.441,0.007,0.855-0.047,1.242-0.147c0.391-0.1,0.751-0.245,1.083-0.424
				c0.335-0.178,0.64-0.387,0.915-0.613c0.276-0.227,0.523-0.47,0.74-0.714c0.219-0.242,0.405-0.486,0.564-0.714
				c0.159-0.228,0.289-0.44,0.392-0.62c0.103-0.181,0.178-0.329,0.226-0.432c0.019-0.039,0.035-0.077,0.053-0.116
				c1.36,0.288,2.722,0.575,4.082,0.863c2.541,0.537,5.081,1.073,7.622,1.608c1.406,0.298,2.814,0.595,4.221,0.893
				c0.111,0.023,0.882,0.803,0.875,0.819c-0.06,0.123,0.012-0.042-0.073,0.186c-0.084,0.229-0.171,0.502-0.242,0.808
				c-0.071,0.305-0.126,0.644-0.145,1.001c-0.019,0.359-0.002,0.738,0.071,1.124c0.072,0.387,0.202,0.781,0.408,1.171
				c0.208,0.392,0.493,0.779,0.878,1.151c0.389,0.375,0.879,0.733,1.495,1.063c0.29,0.155,0.606,0.304,0.954,0.444
				c0.404,0.164,1.205,0.916,1.121,1.177c-0.075,0.234-0.156,0.487-0.246,0.754c-0.188,0.567-0.413,1.205-0.675,1.901
				c-0.26,0.697-0.558,1.453-0.897,2.252c-0.338,0.802-0.717,1.646-1.138,2.521c-1.174,2.44-2.67,5.101-4.532,7.671
				c-1.839,2.541-4.01,4.955-6.522,6.926c-2.44,1.912-5.156,3.368-8.119,4.082c-2.81,0.676-5.78,0.671-8.859-0.218
				c-0.013-0.004-0.347-0.365-0.358-0.369c-1.87-2.921-2.632-5.408-3.18-8.132c-0.525-2.617-0.567-5.183-0.306-7.629
				C70.845,42.772,71.398,40.452,72.093,38.297z"/>
			
				<linearGradient id="SVGID_29_" gradientUnits="userSpaceOnUse" x1="459.4492" y1="150.4063" x2="430.5287" y2="171.4969" gradientTransform="matrix(-0.9576 -0.288 -0.288 0.9576 558.6113 16.4912)">
				<stop  offset="0" style="stop-color:#FFFFFF"/>
				<stop  offset="0.034" style="stop-color:#F6F6F6"/>
				<stop  offset="0.0905" style="stop-color:#DCDCDC"/>
				<stop  offset="0.1626" style="stop-color:#B2B2B2"/>
				<stop  offset="0.2468" style="stop-color:#797979"/>
				<stop  offset="0.2637" style="stop-color:#6D6D6D"/>
				<stop  offset="0.2897" style="stop-color:#949898"/>
				<stop  offset="0.3204" style="stop-color:#BCC4C4"/>
				<stop  offset="0.348" style="stop-color:#DAE4E4"/>
				<stop  offset="0.3711" style="stop-color:#ECF8F8"/>
				<stop  offset="0.3869" style="stop-color:#F2FFFF"/>
				<stop  offset="0.5357" style="stop-color:#EBEBEB"/>
				<stop  offset="0.6923" style="stop-color:#494949"/>
				<stop  offset="0.8242" style="stop-color:#B7B7B7"/>
				<stop  offset="0.9226" style="stop-color:#EDEDED"/>
				<stop  offset="1" style="stop-color:#6D6D6D"/>
			</linearGradient>
			<path fill="url(#SVGID_29_)" d="M72.126,38.183c0.684-2.127,1.505-4.116,2.314-5.855c0.298-0.639,0.596-1.247,0.884-1.815
				c0.288-0.569,0.568-1.099,0.831-1.584c0.264-0.485,0.512-0.925,0.735-1.313c0.223-0.389,0.422-0.726,0.588-1.004
				c0.464,0.13,0.905,0.188,1.323,0.191c0.422,0.001,0.818-0.058,1.189-0.159c0.375-0.104,0.723-0.253,1.042-0.433
				c0.323-0.179,0.615-0.391,0.882-0.618c0.267-0.228,0.506-0.471,0.716-0.714c0.212-0.243,0.394-0.487,0.549-0.714
				c0.154-0.227,0.281-0.438,0.381-0.618c0.101-0.18,0.174-0.33,0.222-0.43c0.006-0.014,0.011-0.025,0.016-0.035
				c0.006-0.013,0.01-0.022,0.015-0.032c0.004-0.01,0.008-0.019,0.012-0.027c0.003-0.008,0.006-0.015,0.009-0.021l16.246,3.469
				c-0.004,0.008-0.009,0.017-0.014,0.026c-0.005,0.011-0.011,0.021-0.017,0.033c-0.005,0.012-0.011,0.024-0.018,0.037
				c-0.006,0.014-0.013,0.028-0.021,0.043c-0.058,0.124-0.139,0.306-0.222,0.533c-0.083,0.228-0.17,0.499-0.242,0.802
				c-0.071,0.304-0.128,0.639-0.148,0.994c-0.022,0.356-0.011,0.731,0.056,1.112c0.065,0.382,0.185,0.771,0.377,1.154
				c0.194,0.386,0.463,0.767,0.827,1.131c0.367,0.367,0.833,0.717,1.419,1.037c0.595,0.325,1.315,0.62,2.188,0.87
				c-0.123,0.409-0.276,0.899-0.464,1.462s-0.408,1.198-0.667,1.892c-0.256,0.693-0.55,1.444-0.884,2.239
				c-0.333,0.798-0.704,1.639-1.117,2.511c-1.149,2.428-2.61,5.08-4.421,7.647c-1.789,2.537-3.892,4.954-6.317,6.932
				c-2.356,1.922-4.972,3.395-7.814,4.135c-2.706,0.705-5.561,0.729-8.509-0.128c-1.756-2.874-2.762-5.679-3.255-8.369
				c-0.474-2.586-0.485-5.128-0.207-7.555C70.882,42.629,71.438,40.324,72.126,38.183z"/>
			<path fill="#FFFFFF" d="M99.87,26.625c0.008-0.016,0.015-0.03,0.021-0.044c0.008-0.014,0.014-0.026,0.019-0.038
				c0.002-0.004,0.003-0.005,0.004-0.009c0.056-0.016,0.11-0.036,0.163-0.06c-0.003,0.006-0.007,0.013-0.011,0.021
				c-0.005,0.011-0.011,0.021-0.017,0.033c-0.005,0.012-0.011,0.024-0.018,0.037c-0.006,0.014-0.013,0.028-0.021,0.043
				c-0.058,0.124-0.139,0.306-0.222,0.533c-0.083,0.228-0.17,0.499-0.242,0.802c-0.071,0.304-0.128,0.639-0.148,0.994
				c-0.022,0.356-0.011,0.731,0.056,1.112c0.065,0.382,0.185,0.771,0.377,1.154c0.194,0.386,0.463,0.767,0.827,1.131
				c0.367,0.367,0.833,0.717,1.419,1.037c0.595,0.325,1.315,0.62,2.188,0.87c-0.123,0.409-0.276,0.899-0.464,1.462
				s-0.408,1.198-0.667,1.892c-0.256,0.693-0.55,1.444-0.884,2.239c-0.333,0.798-0.704,1.639-1.117,2.511
				c-1.149,2.428-2.61,5.08-4.421,7.647c-0.452,0.642-0.925,1.276-1.418,1.897c0.401-0.525,0.794-1.056,1.169-1.594
				c1.815-2.606,3.284-5.298,4.441-7.759c0.415-0.885,0.79-1.738,1.125-2.545c0.336-0.808,0.632-1.569,0.893-2.271
				c0.26-0.702,0.483-1.345,0.673-1.916c0.189-0.57,0.346-1.068,0.471-1.482c-0.867-0.248-1.583-0.542-2.174-0.868
				c-0.581-0.321-1.044-0.673-1.407-1.041c-0.36-0.367-0.626-0.75-0.817-1.141c-0.188-0.386-0.306-0.779-0.369-1.165
				c-0.063-0.385-0.073-0.764-0.05-1.125c0.023-0.359,0.082-0.699,0.154-1.006c0.073-0.307,0.16-0.583,0.244-0.813
				C99.731,26.935,99.813,26.75,99.87,26.625z"/>
			<path fill="#383838" d="M73.275,38.484c0.644-2.025,1.435-3.964,2.261-5.737c0.172-0.367,0.348-0.735,0.528-1.101
				c0.18-0.367,0.364-0.733,0.554-1.098c0.189-0.366,0.383-0.73,0.581-1.094c0.198-0.364,0.399-0.725,0.605-1.086
				c0.497,0.058,0.973,0.048,1.423-0.017c0.454-0.064,0.883-0.182,1.281-0.336c0.402-0.155,0.772-0.346,1.11-0.556
				c0.341-0.21,0.646-0.438,0.915-0.664c0.65-0.547,1.219-1.189,1.703-1.886c2.263,0.538,4.525,1.074,6.787,1.611
				c1.524,0.363,3.047,0.724,4.57,1.086c0.48,0.113,0.96,0.228,1.438,0.341c0.557,0.133,0.435,0.058,0.335,0.725
				c-0.031,0.215-0.056,0.438-0.07,0.666c-0.014,0.229-0.018,0.463-0.008,0.703c0.009,0.239,0.032,0.484,0.07,0.729
				c0.06,0.376,0.16,0.78,0.322,1.194c0.161,0.418,0.386,0.849,0.692,1.274c0.309,0.431,0.702,0.859,1.203,1.266
				c0.509,0.414,1.127,0.809,1.884,1.166c-0.14,0.406-0.293,0.837-0.461,1.292c-0.168,0.454-0.352,0.931-0.55,1.427
				s-0.413,1.011-0.643,1.54c-0.23,0.53-0.476,1.074-0.739,1.63c-1.134,2.397-2.515,4.889-4.17,7.244
				c-1.637,2.329-3.52,4.497-5.657,6.273c-2.081,1.731-4.369,3.059-6.844,3.783c-2.37,0.692-4.868,0.816-7.457,0.217
				c-1.511-2.504-2.397-4.976-2.843-7.377c-0.429-2.318-0.454-4.617-0.211-6.844C72.127,42.668,72.629,40.523,73.275,38.484z"/>
			<radialGradient id="SVGID_30_" cx="86.8184" cy="42.4424" r="15.824" gradientUnits="userSpaceOnUse">
				<stop  offset="0" style="stop-color:#D10300"/>
				<stop  offset="0.3156" style="stop-color:#CC1400"/>
				<stop  offset="0.9365" style="stop-color:#C03F00"/>
				<stop  offset="1" style="stop-color:#BF4400"/>
			</radialGradient>
			<path fill="url(#SVGID_30_)" d="M97.688,32.344c0.157,0.411,0.374,0.836,0.672,1.257c0.3,0.423,0.683,0.844,1.171,1.245
				c0.491,0.404,1.091,0.789,1.821,1.138c-0.109,0.313-0.224,0.637-0.351,0.978c-0.168,0.454-0.352,0.931-0.55,1.427
				s-0.413,1.011-0.643,1.54c-0.23,0.53-0.476,1.074-0.739,1.63c-1.134,2.397-2.515,4.889-4.17,7.244
				c-1.637,2.329-3.52,4.497-5.657,6.273c-2.081,1.731-4.369,3.059-6.844,3.783c-2.244,0.657-4.604,0.801-7.046,0.305
				c-1.451-2.452-2.302-4.876-2.725-7.233c-0.411-2.289-0.428-4.56-0.182-6.76c0.242-2.16,0.74-4.281,1.379-6.298
				c0.635-2.002,1.415-3.92,2.229-5.673c0.169-0.364,0.343-0.729,0.52-1.092c0.178-0.362,0.36-0.725,0.546-1.086
				c0.186-0.363,0.376-0.722,0.571-1.081c0.194-0.361,0.393-0.719,0.596-1.076c0.485,0.057,0.949,0.044,1.39-0.021
				c0.444-0.065,0.862-0.184,1.253-0.337c0.393-0.155,0.756-0.345,1.087-0.553c0.332-0.208,0.632-0.435,0.896-0.66
				c0.637-0.542,1.193-1.179,1.669-1.869c2.209,0.522,4.416,1.045,6.624,1.566c1.486,0.353,2.974,0.704,4.46,1.055
				c0.468,0.112,0.936,0.222,1.403,0.333c0.168,0.04,0.273,0.061,0.334,0.089c-0.012,0.06-0.023,0.127-0.034,0.205
				c-0.031,0.215-0.056,0.438-0.07,0.666c-0.014,0.229-0.018,0.463-0.008,0.703c0.004,0.1,0.011,0.201,0.021,0.302
				c0,0.035-0.001,0.067,0.001,0.103c0.009,0.236,0.029,0.477,0.066,0.72C97.436,31.536,97.532,31.934,97.688,32.344z"/>
			
				<radialGradient id="SVGID_31_" cx="451.7178" cy="144.6875" r="0.3025" gradientTransform="matrix(-0.9576 -0.2882 -0.288 0.9584 558.6113 16.9355)" gradientUnits="userSpaceOnUse">
				<stop  offset="0" style="stop-color:#A3A3A3"/>
				<stop  offset="0.291" style="stop-color:#A1A1A1"/>
				<stop  offset="0.462" style="stop-color:#989898"/>
				<stop  offset="0.6021" style="stop-color:#8A8A8A"/>
				<stop  offset="0.7254" style="stop-color:#767676"/>
				<stop  offset="0.8365" style="stop-color:#5D5D5D"/>
				<stop  offset="0.9394" style="stop-color:#3D3D3D"/>
				<stop  offset="0.9464" style="stop-color:#3B3B3B"/>
				<stop  offset="1" style="stop-color:#231F20"/>
			</radialGradient>
			<path fill="url(#SVGID_31_)" d="M84.403,25.667c0.06-0.081,0.121-0.16,0.178-0.242c0.034,0.008,0.068,0.015,0.103,0.023
				C84.59,25.521,84.496,25.593,84.403,25.667z"/>
			<g>
				
					<radialGradient id="SVGID_32_" cx="-632.3125" cy="563.2217" r="0" gradientTransform="matrix(131.0863 105.5708 -105.484 131.1942 142388.0313 -7111)" gradientUnits="userSpaceOnUse">
					<stop  offset="0" style="stop-color:#30C1FF"/>
					<stop  offset="0.3242" style="stop-color:#30BEFD"/>
					<stop  offset="0.5162" style="stop-color:#30B6F8"/>
					<stop  offset="0.6737" style="stop-color:#30A8EF"/>
					<stop  offset="0.8116" style="stop-color:#3094E2"/>
					<stop  offset="0.9167" style="stop-color:#307FD5"/>
					<stop  offset="0.9289" style="stop-color:#307DD0"/>
					<stop  offset="0.9437" style="stop-color:#3277C1"/>
					<stop  offset="0.9598" style="stop-color:#346EA9"/>
					<stop  offset="0.9769" style="stop-color:#376186"/>
					<stop  offset="0.9946" style="stop-color:#3C515B"/>
					<stop  offset="1" style="stop-color:#3D4B4C"/>
				</radialGradient>
				<polygon fill="url(#SVGID_32_)" points="89.62,26.616 89.62,26.616 89.62,26.616 				"/>
				<linearGradient id="SVGID_33_" gradientUnits="userSpaceOnUse" x1="72.2852" y1="42.2939" x2="89.6201" y2="42.2939">
					<stop  offset="0" style="stop-color:#FF3F3F"/>
					<stop  offset="1" style="stop-color:#BF3D00"/>
				</linearGradient>
				<path fill="url(#SVGID_33_)" d="M73.825,38.873c0.635-2.002,1.415-3.92,2.229-5.673c0.169-0.364,0.343-0.729,0.52-1.092
					c0.178-0.362,0.36-0.725,0.546-1.086c0.186-0.363,0.376-0.722,0.571-1.081c0.194-0.361,0.393-0.719,0.596-1.076
					c0.485,0.057,0.949,0.044,1.39-0.021c0.444-0.065,0.862-0.184,1.253-0.337c0.393-0.155,0.756-0.345,1.087-0.553
					c0.332-0.208,0.632-0.435,0.896-0.66c0.637-0.542,1.193-1.179,1.669-1.869c1.68,0.397,3.359,0.794,5.039,1.191
					c-3.302,2.619-6.908,7.838-9.582,14.338c-3.019,7.341-4.861,15.638-4.686,18.209c-1.451-2.452-2.302-4.876-2.725-7.233
					c-0.411-2.289-0.428-4.56-0.182-6.76c0.206-1.832,0.596-3.638,1.099-5.375c0.06-0.205,0.12-0.408,0.184-0.612
					C73.761,39.081,73.793,38.977,73.825,38.873z"/>
			</g>
		</g>
		<linearGradient id="SVGID_34_" gradientUnits="userSpaceOnUse" x1="75.3857" y1="25.5566" x2="93.6243" y2="60.5372">
			<stop  offset="0" style="stop-color:#FFFFFF"/>
			<stop  offset="0.2599" style="stop-color:#FDFDFD"/>
			<stop  offset="0.4127" style="stop-color:#F4F4F4"/>
			<stop  offset="0.5379" style="stop-color:#E6E6E6"/>
			<stop  offset="0.6481" style="stop-color:#D2D2D2"/>
			<stop  offset="0.7484" style="stop-color:#B8B8B8"/>
			<stop  offset="0.8415" style="stop-color:#989898"/>
			<stop  offset="0.9275" style="stop-color:#737373"/>
			<stop  offset="1" style="stop-color:#4D4D4D"/>
		</linearGradient>
		<path fill="url(#SVGID_34_)" d="M86.326,30.544c-4.882-1.227-10.052,2.611-11.549,8.574c-1.497,5.962,1.247,11.791,6.128,13.019
			c4.881,1.227,10.052-2.611,11.549-8.574C93.95,37.601,91.207,31.772,86.326,30.544z M76.337,39.511
			c0.526-2.096,1.604-3.872,2.979-5.141l7.091,15.063c-1.549,0.9-3.308,1.23-5.022,0.798C77.363,49.221,75.104,44.421,76.337,39.511
			z M87.915,48.312l-7.09-15.063c1.549-0.9,3.307-1.23,5.022-0.798c4.02,1.011,6.279,5.811,5.047,10.721
			C90.368,45.266,89.29,47.042,87.915,48.312z"/>
	</g>
</g>
<g id="KMgrPanelTxt">
	<rect x="4.29" y="87.334" fill="none" width="126.864" height="50"/>
	<text transform="matrix(1 0 0 1 23.7222 106.6484)">
		<tspan x="45" y="0" fill="#FFFFFF" font-family=" " font-size="22" text-anchor="middle"></tspan>
		<tspan x="44.283" y="26.4" text-anchor="middle" fill="#FFFFFF" font-family=" " font-size="22"></tspan></text>
	<rect x="4.29" y="142.917" fill="none" width="126.864" height="30.333"/>
	<text transform="matrix(1 0 0 1 67.394 169.2549)" fill="#FFFFFF" font-family=" " font-size="30" text-anchor="middle"></text>
</g>
</svg>
