<?xml version="1.0" encoding="utf-8"?>
<!-- Generator: Adobe Illustrator 16.0.0, SVG Export Plug-In . SVG Version: 6.00 Build 0)  -->
<!DOCTYPE svg PUBLIC "-//W3C//DTD SVG 1.1//EN" "http://www.w3.org/Graphics/SVG/1.1/DTD/svg11.dtd">
<svg id="#id_svg" version="1.1" xmlns="http://www.w3.org/2000/svg" xmlns:xlink="http://www.w3.org/1999/xlink" x="0px" y="0px" width="128px"
	 height="122px" viewBox="0 0 128 122" enable-background="new 0 0 128 122" xml:space="preserve">
<g id="#id_KMgrBG">
	<rect y="71.45" fill="#1A3F6F" width="128" height="25.286"/>
	<rect y="96.736" fill="#246179" width="128" height="25.286"/>
	<g opacity="0.5">
		<rect x="2.147" y="72.777" opacity="0.7" fill="#0E1B2C" stroke="#E6E6E6" stroke-width="0.5" stroke-miterlimit="10" width="124" height="49"/>
	</g>
	<g opacity="0.8">
		<linearGradient id="#id_SVGID_1_" gradientUnits="userSpaceOnUse" x1="64.0005" y1="129.1504" x2="64.0005" y2="70.2607">
			<stop  offset="0.9086" style="stop-color:#2B3990;stop-opacity:0"/>
			<stop  offset="1" style="stop-color:#262262"/>
		</linearGradient>
		<path fill="url(##id_SVGID_1_)" d="M127,123.316c0,3.222-2.605,5.834-5.818,5.834H6.819c-3.214,0-5.819-2.612-5.819-5.834V76.094
			c0-3.222,2.605-5.833,5.819-5.833h114.362c3.213,0,5.818,2.611,5.818,5.833V123.316z"/>
		<linearGradient id="#id_SVGID_2_" gradientUnits="userSpaceOnUse" x1="63.5938" y1="71.2607" x2="63.5938" y2="48.2974">
			<stop  offset="0" style="stop-color:#25347A;stop-opacity:0.992"/>
			<stop  offset="0.086" style="stop-color:#5CC7FF"/>
			<stop  offset="0.2673" style="stop-color:#48BCF3;stop-opacity:0.8017"/>
			<stop  offset="0.4944" style="stop-color:#35B2E9;stop-opacity:0.5531"/>
			<stop  offset="0.7331" style="stop-color:#2BACE3;stop-opacity:0.292"/>
			<stop  offset="1" style="stop-color:#27AAE1;stop-opacity:0"/>
		</linearGradient>
		<polygon opacity="0.7" fill="url(##id_SVGID_2_)" points="107.899,48.297 19.254,48.297 1.681,71.261 125.506,71.261 		"/>
		<linearGradient id="#id_SVGID_3_" gradientUnits="userSpaceOnUse" x1="64.0005" y1="130.1504" x2="64.0005" y2="69.2607">
			<stop  offset="0.4731" style="stop-color:#13817D;stop-opacity:0"/>
			<stop  offset="1" style="stop-color:#00AEEF"/>
		</linearGradient>
		<path fill="none" stroke="url(##id_SVGID_3_)" stroke-width="2" stroke-miterlimit="10" d="M127,123.316
			c0,3.222-2.605,5.834-5.818,5.834H6.819c-3.214,0-5.819-2.612-5.819-5.834V76.094c0-3.222,2.605-5.833,5.819-5.833h114.362
			c3.213,0,5.818,2.611,5.818,5.833V123.316z"/>
	</g>
	<linearGradient id="#id_SVGID_4_" gradientUnits="userSpaceOnUse" x1="29.2275" y1="70.1865" x2="100.0625" y2="70.1865">
		<stop  offset="0" style="stop-color:#FFFFFF;stop-opacity:0"/>
		<stop  offset="0.5323" style="stop-color:#FFFFFF"/>
		<stop  offset="1" style="stop-color:#FFFFFF;stop-opacity:0"/>
	</linearGradient>
	
		<line fill="none" stroke="url(##id_SVGID_4_)" stroke-width="2" stroke-miterlimit="10" x1="29.228" y1="70.187" x2="100.063" y2="70.187"/>
</g>
<g id="#id_KMgrCircleError" display="block">
	<g display="inline">
		<path fill="#E5502C" d="M64.837,67.25c-20.449,0-36.52-5.777-36.587-13.153c-0.015-1.735,0.834-3.408,2.524-4.973
			c5.45-5.048,18.84-8.335,34.114-8.374l0.274,0c20.454,0,36.525,5.775,36.588,13.147c0.017,1.735-0.833,3.41-2.523,4.977
			c-5.449,5.049-18.839,8.337-34.112,8.375H64.837z M64.89,42.165c-14.671,0.037-27.959,3.24-33.067,7.97
			c-1.389,1.287-2.087,2.616-2.075,3.95c0.059,6.48,15.8,11.752,35.089,11.752h0.274c14.675-0.038,27.963-3.241,33.065-7.972
			c1.389-1.287,2.087-2.618,2.075-3.955c-0.055-6.477-15.796-11.745-35.09-11.745l0,0L64.89,42.165z"/>
		<path fill="#D84A15" d="M65.162,41c20.314,0,36.276,5.667,36.338,12.899c0.016,1.663-0.807,3.275-2.443,4.792
			C93.652,63.699,80.328,66.962,65.113,67h-0.276C44.527,67,28.566,61.331,28.5,54.095c-0.015-1.662,0.808-3.272,2.444-4.787
			c5.407-5.009,18.731-8.269,33.944-8.308L65.162,41 M64.837,66.086h0.274c14.731-0.038,28.089-3.268,33.235-8.038
			c1.443-1.337,2.168-2.73,2.155-4.141c-0.056-6.613-15.91-11.993-35.34-11.993l-0.272,0c-14.729,0.037-28.086,3.267-33.236,8.036
			c-1.442,1.336-2.168,2.728-2.155,4.136C29.559,60.703,45.412,66.086,64.837,66.086 M65.162,40.5L65.162,40.5l-0.275,0
			c-15.333,0.039-28.79,3.352-34.283,8.441c-1.744,1.614-2.62,3.35-2.604,5.158C28.07,61.739,43.907,67.5,64.837,67.5h0.276
			c15.334-0.038,28.791-3.353,34.283-8.442c1.744-1.617,2.62-3.354,2.604-5.163C101.935,46.259,86.099,40.5,65.162,40.5L65.162,40.5
			z M64.837,65.586c-18.828,0-34.782-5.268-34.839-11.504c-0.011-1.26,0.66-2.527,1.995-3.765c5.064-4.69,18.285-7.866,32.898-7.903
			l0.272,0c18.832,0,34.786,5.265,34.839,11.497c0.012,1.264-0.66,2.533-1.995,3.77c-5.06,4.69-18.28,7.867-32.896,7.905H64.837
			L64.837,65.586z"/>
	</g>
	<g display="inline">
		<path opacity="0.3" d="M99.5,53.875c-0.05-6.389-15.547-11.52-34.596-11.46C45.856,42.473,30.448,47.706,30.5,54.096
			c0.052,6.399,15.546,11.53,34.594,11.469C84.146,65.504,99.555,60.273,99.5,53.875"/>
		
			<linearGradient id="#id_SVGID_8_" gradientUnits="userSpaceOnUse" x1="30.646" y1="53.4414" x2="95.747" y2="53.4414" gradientTransform="matrix(-1 0 0 1 128 0)">
			<stop  offset="0.0061" style="stop-color:#1F0300"/>
			<stop  offset="0.5" style="stop-color:#FF8B3F"/>
			<stop  offset="1" style="stop-color:#1F0300"/>
		</linearGradient>
		<path fill="url(##id_SVGID_8_)" stroke="#FFFFFF" stroke-width="0.0687" d="M32.046,53.548c0.05,6.105,14.85,11.007,33.043,10.949
			c18.194-0.057,32.917-5.055,32.863-11.161c-0.047-6.108-14.848-11.01-33.043-10.951C46.711,42.442,31.996,47.439,32.046,53.548"/>
		
			<linearGradient id="#id_SVGID_9_" gradientUnits="userSpaceOnUse" x1="-245.854" y1="480.2588" x2="-245.8563" y2="479.6074" gradientTransform="matrix(50.1215 -0.2571 -0.1741 -33.9522 12471.1738 16282.4209)">
			<stop  offset="0" style="stop-color:#7F1200"/>
			<stop  offset="1" style="stop-color:#FF681F"/>
		</linearGradient>
		<path opacity="0.75" fill="url(##id_SVGID_9_)" d="M97.953,50.773c-0.047-6.104-14.848-11.006-33.043-10.947
			c-18.197,0.057-32.914,5.054-32.864,11.158c0.05,6.11,14.85,11.012,33.043,10.953C83.287,61.881,98.007,56.884,97.953,50.773"/>
		
			<linearGradient id="#id_SVGID_10_" gradientUnits="userSpaceOnUse" x1="29.7158" y1="50.8828" x2="96.2832" y2="50.8828" gradientTransform="matrix(-1 0 0 1 128 0)">
			<stop  offset="0" style="stop-color:#5F1100"/>
			<stop  offset="0.5" style="stop-color:#FFFFFF;stop-opacity:0.75"/>
			<stop  offset="1" style="stop-color:#9F1600"/>
		</linearGradient>
		<path fill="url(##id_SVGID_10_)" d="M41.53,58.98c-6.304-2.108-9.788-4.947-9.813-7.994c-0.013-1.565,0.88-3.08,2.655-4.501
			c5.201-4.161,17.187-6.878,30.536-6.92h0.324c8.775,0,17.028,1.143,23.238,3.219c6.304,2.106,9.788,4.944,9.813,7.988
			c0.013,1.567-0.88,3.083-2.657,4.505c-5.199,4.164-17.186,6.881-30.535,6.923L64.766,62.2C55.989,62.2,47.738,61.056,41.53,58.98z
			 M64.911,40.086c-13.184,0.042-24.987,2.697-30.07,6.766c-1.647,1.318-2.477,2.709-2.464,4.13
			c0.048,5.897,14.577,10.694,32.389,10.694l0.323,0c13.184-0.042,24.987-2.697,30.071-6.767c1.646-1.32,2.477-2.711,2.465-4.136
			c-0.047-5.893-14.578-10.688-32.393-10.688H64.911z"/>
	</g>
</g>
<g id="#id_KMgrSvr_1_">
	
		<path opacity="0.8" fill="none" stroke="#1A1A1A" stroke-width="1.5" stroke-linecap="round" stroke-linejoin="round" stroke-miterlimit="10" d="
		M80.749,7.861h0.099L75.85,1h-21.8l-4.9,6.763h0.1c-0.11,0-0.2,0.088-0.2,0.197L49,52.514c0,0.109,0.09,0.197,0.2,0.197h31.6
		c0.111,0,0.2-0.088,0.2-0.197L80.949,8.059C80.949,7.949,80.86,7.861,80.749,7.861z"/>
	<linearGradient id="#id_SVGID_11_" gradientUnits="userSpaceOnUse" x1="49.0498" y1="30.3613" x2="81.0498" y2="30.3613">
		<stop  offset="0" style="stop-color:#363A46"/>
		<stop  offset="0.5" style="stop-color:#7093B2"/>
		<stop  offset="1" style="stop-color:#363A46"/>
	</linearGradient>
	<path fill="url(##id_SVGID_11_)" d="M81.05,52.661c0,0.111-0.09,0.2-0.2,0.2h-31.6c-0.11,0-0.2-0.089-0.2-0.2v-44.6
		c0-0.111,0.09-0.2,0.2-0.2h31.6c0.11,0,0.2,0.089,0.2,0.2V52.661z"/>
	<path fill="#39424E" stroke="#000000" stroke-width="0.5" stroke-miterlimit="10" d="M79.05,51.162c0,0.11-0.09,0.199-0.2,0.199
		h-27.6c-0.11,0-0.2-0.089-0.2-0.199v-41.6c0-0.111,0.09-0.2,0.2-0.2h27.6c0.11,0,0.2,0.089,0.2,0.2V51.162z"/>
	<rect x="51.05" y="41.361" fill="#434E5C" stroke="#1A1A1A" stroke-width="0.5" stroke-miterlimit="10" width="28" height="10"/>
	<linearGradient id="#id_SVGID_12_" gradientUnits="userSpaceOnUse" x1="51.0498" y1="25.3613" x2="79.0498" y2="25.3613">
		<stop  offset="0" style="stop-color:#657180"/>
		<stop  offset="0.5" style="stop-color:#7093B2"/>
		<stop  offset="1" style="stop-color:#657180"/>
	</linearGradient>
	
		<rect x="51.05" y="9.361" fill="url(##id_SVGID_12_)" stroke="#1A1A1A" stroke-width="0.5" stroke-miterlimit="10" width="28" height="32"/>
	<rect x="53.167" y="42.999" fill="#00FF48" width="2" height="1"/>
	<rect x="53.456" y="12.5" fill="#2F353D" width="1" height="25.828"/>
	<rect x="69.644" y="12.5" fill="#2F353D" width="1" height="25.828"/>
	<g>
		<rect x="55.979" y="42.999" fill="#293038" width="1" height="1"/>
		<rect x="56.979" y="42.999" fill="#495564" width="1" height="1"/>
		<rect x="57.979" y="42.999" fill="#293038" width="1" height="1"/>
		<rect x="58.979" y="42.999" fill="#495564" width="1" height="1"/>
		<rect x="59.979" y="42.999" fill="#293038" width="1" height="1"/>
		<rect x="60.979" y="42.999" fill="#495564" width="1" height="1"/>
		<rect x="61.979" y="42.999" fill="#293038" width="1" height="1"/>
		<rect x="62.979" y="42.999" fill="#495564" width="1" height="1"/>
		<rect x="63.979" y="42.999" fill="#293038" width="1" height="1"/>
		<rect x="64.979" y="42.999" fill="#495564" width="1" height="1"/>
		<rect x="65.979" y="42.999" fill="#293038" width="1" height="1"/>
		<rect x="66.979" y="42.999" fill="#495564" width="1" height="1"/>
		<rect x="67.979" y="42.999" fill="#293038" width="1" height="1"/>
		<rect x="68.979" y="42.999" fill="#495564" width="1" height="1"/>
		<rect x="69.979" y="42.999" fill="#293038" width="1" height="1"/>
		<rect x="70.979" y="42.999" fill="#495564" width="1" height="1"/>
		<rect x="71.979" y="42.999" fill="#293038" width="1" height="1"/>
		<rect x="72.979" y="42.999" fill="#495564" width="1" height="1"/>
		<rect x="73.979" y="42.999" fill="#293038" width="1" height="1"/>
		<rect x="74.979" y="42.999" fill="#495564" width="1" height="1"/>
		<rect x="75.979" y="42.999" fill="#293038" width="1" height="1"/>
	</g>
	<g>
		<rect x="55.979" y="45.041" fill="#293038" width="1" height="1"/>
		<rect x="56.979" y="45.041" fill="#495564" width="1" height="1"/>
		<rect x="57.979" y="45.041" fill="#293038" width="1" height="1"/>
		<rect x="58.979" y="45.041" fill="#495564" width="1" height="1"/>
		<rect x="52.979" y="45.041" fill="#495564" width="1" height="1"/>
		<rect x="53.979" y="45.041" fill="#293038" width="1" height="1"/>
		<rect x="54.979" y="45.041" fill="#495564" width="1" height="1"/>
		<rect x="59.979" y="45.041" fill="#293038" width="1" height="1"/>
		<rect x="60.979" y="45.041" fill="#495564" width="1" height="1"/>
		<rect x="61.979" y="45.041" fill="#293038" width="1" height="1"/>
		<rect x="62.979" y="45.041" fill="#495564" width="1" height="1"/>
		<rect x="63.979" y="45.041" fill="#293038" width="1" height="1"/>
		<rect x="64.979" y="45.041" fill="#495564" width="1" height="1"/>
		<rect x="65.979" y="45.041" fill="#293038" width="1" height="1"/>
		<rect x="66.979" y="45.041" fill="#495564" width="1" height="1"/>
		<rect x="67.979" y="45.041" fill="#293038" width="1" height="1"/>
		<rect x="68.979" y="45.041" fill="#495564" width="1" height="1"/>
		<rect x="69.979" y="45.041" fill="#293038" width="1" height="1"/>
		<rect x="70.979" y="45.041" fill="#495564" width="1" height="1"/>
		<rect x="71.979" y="45.041" fill="#293038" width="1" height="1"/>
		<rect x="72.979" y="45.041" fill="#495564" width="1" height="1"/>
		<rect x="73.979" y="45.041" fill="#293038" width="1" height="1"/>
		<rect x="74.979" y="45.041" fill="#495564" width="1" height="1"/>
		<rect x="75.979" y="45.041" fill="#293038" width="1" height="1"/>
	</g>
	<g>
		<rect x="55.979" y="47.083" fill="#293038" width="1" height="1"/>
		<rect x="56.979" y="47.083" fill="#495564" width="1" height="1"/>
		<rect x="57.979" y="47.083" fill="#293038" width="1" height="1"/>
		<rect x="58.979" y="47.083" fill="#495564" width="1" height="1"/>
		<rect x="59.979" y="47.083" fill="#293038" width="1" height="1"/>
		<rect x="60.979" y="47.083" fill="#495564" width="1" height="1"/>
		<rect x="61.979" y="47.083" fill="#293038" width="1" height="1"/>
		<rect x="62.979" y="47.083" fill="#495564" width="1" height="1"/>
		<rect x="63.979" y="47.083" fill="#293038" width="1" height="1"/>
		<rect x="64.979" y="47.083" fill="#495564" width="1" height="1"/>
		<rect x="65.979" y="47.083" fill="#293038" width="1" height="1"/>
		<rect x="66.979" y="47.083" fill="#495564" width="1" height="1"/>
		<rect x="67.979" y="47.083" fill="#293038" width="1" height="1"/>
		<rect x="68.979" y="47.083" fill="#495564" width="1" height="1"/>
		<rect x="69.979" y="47.083" fill="#293038" width="1" height="1"/>
		<rect x="70.979" y="47.083" fill="#495564" width="1" height="1"/>
		<rect x="71.979" y="47.083" fill="#293038" width="1" height="1"/>
		<rect x="72.979" y="47.083" fill="#495564" width="1" height="1"/>
		<rect x="73.979" y="47.083" fill="#293038" width="1" height="1"/>
		<rect x="74.979" y="47.083" fill="#495564" width="1" height="1"/>
		<rect x="75.979" y="47.083" fill="#293038" width="1" height="1"/>
		<rect x="52.979" y="47.083" fill="#495564" width="1" height="1"/>
		<rect x="53.979" y="47.083" fill="#293038" width="1" height="1"/>
		<rect x="54.979" y="47.083" fill="#495564" width="1" height="1"/>
	</g>
	<g>
		<rect x="55.979" y="49.125" fill="#293038" width="1" height="1"/>
		<rect x="56.979" y="49.125" fill="#495564" width="1" height="1"/>
		<rect x="57.979" y="49.125" fill="#293038" width="1" height="1"/>
		<rect x="58.979" y="49.125" fill="#495564" width="1" height="1"/>
		<rect x="59.979" y="49.125" fill="#293038" width="1" height="1"/>
		<rect x="60.979" y="49.125" fill="#495564" width="1" height="1"/>
		<rect x="61.979" y="49.125" fill="#293038" width="1" height="1"/>
		<rect x="62.979" y="49.125" fill="#495564" width="1" height="1"/>
		<rect x="63.979" y="49.125" fill="#293038" width="1" height="1"/>
		<rect x="64.979" y="49.125" fill="#495564" width="1" height="1"/>
		<rect x="65.979" y="49.125" fill="#293038" width="1" height="1"/>
		<rect x="66.979" y="49.125" fill="#495564" width="1" height="1"/>
		<rect x="67.979" y="49.125" fill="#293038" width="1" height="1"/>
		<rect x="68.979" y="49.125" fill="#495564" width="1" height="1"/>
		<rect x="69.979" y="49.125" fill="#293038" width="1" height="1"/>
		<rect x="70.979" y="49.125" fill="#495564" width="1" height="1"/>
		<rect x="71.979" y="49.125" fill="#293038" width="1" height="1"/>
		<rect x="72.979" y="49.125" fill="#495564" width="1" height="1"/>
		<rect x="73.979" y="49.125" fill="#293038" width="1" height="1"/>
		<rect x="74.979" y="49.125" fill="#495564" width="1" height="1"/>
		<rect x="75.979" y="49.125" fill="#293038" width="1" height="1"/>
		<rect x="52.979" y="49.125" fill="#495564" width="1" height="1"/>
		<rect x="53.979" y="49.125" fill="#293038" width="1" height="1"/>
		<rect x="54.979" y="49.125" fill="#495564" width="1" height="1"/>
	</g>
	<g>
		<g>
			<rect x="52.956" y="12.75" fill="#B3D1F4" stroke="#3D4754" stroke-width="0.5" stroke-miterlimit="10" width="2" height="2"/>
			<rect x="69.144" y="12.75" fill="#B3D1F4" stroke="#3D4754" stroke-width="0.5" stroke-miterlimit="10" width="2" height="2"/>
			<rect x="73.144" y="12.75" fill="#2CDF60" stroke="#114620" stroke-width="0.5" stroke-miterlimit="10" width="4" height="2"/>
			
				<rect x="55.956" y="12.75" fill="#B3D1F4" stroke="#3D4754" stroke-width="0.5" stroke-miterlimit="10" width="12.188" height="2"/>
		</g>
		<g>
			<rect x="52.956" y="17.417" fill="#B3D1F4" stroke="#3D4754" stroke-width="0.5" stroke-miterlimit="10" width="2" height="2"/>
			<rect x="69.144" y="17.417" fill="#B3D1F4" stroke="#3D4754" stroke-width="0.5" stroke-miterlimit="10" width="2" height="2"/>
			<rect x="73.144" y="17.417" fill="#2CDF60" stroke="#114620" stroke-width="0.5" stroke-miterlimit="10" width="4" height="2"/>
			
				<rect x="55.956" y="17.417" fill="#B3D1F4" stroke="#3D4754" stroke-width="0.5" stroke-miterlimit="10" width="12.188" height="2"/>
		</g>
		<g>
			<rect x="52.956" y="22.083" fill="#B3D1F4" stroke="#3D4754" stroke-width="0.5" stroke-miterlimit="10" width="2" height="2"/>
			<rect x="69.144" y="22.083" fill="#B3D1F4" stroke="#3D4754" stroke-width="0.5" stroke-miterlimit="10" width="2" height="2"/>
			<rect x="73.144" y="22.083" fill="#2CDF60" stroke="#114620" stroke-width="0.5" stroke-miterlimit="10" width="4" height="2"/>
			
				<rect x="55.956" y="22.083" fill="#B3D1F4" stroke="#3D4754" stroke-width="0.5" stroke-miterlimit="10" width="12.188" height="2"/>
		</g>
		<g>
			<rect x="52.956" y="26.75" fill="#B3D1F4" stroke="#3D4754" stroke-width="0.5" stroke-miterlimit="10" width="2" height="2"/>
			<rect x="69.144" y="26.75" fill="#B3D1F4" stroke="#3D4754" stroke-width="0.5" stroke-miterlimit="10" width="2" height="2"/>
			<rect x="73.144" y="26.75" fill="#2CDF60" stroke="#114620" stroke-width="0.5" stroke-miterlimit="10" width="4" height="2"/>
			
				<rect x="55.956" y="26.75" fill="#B3D1F4" stroke="#3D4754" stroke-width="0.5" stroke-miterlimit="10" width="12.188" height="2"/>
		</g>
		<g>
			<rect x="52.956" y="31.417" fill="#B3D1F4" stroke="#3D4754" stroke-width="0.5" stroke-miterlimit="10" width="2" height="2"/>
			<rect x="69.144" y="31.417" fill="#B3D1F4" stroke="#3D4754" stroke-width="0.5" stroke-miterlimit="10" width="2" height="2"/>
			<rect x="73.144" y="31.417" fill="#2CDF60" stroke="#114620" stroke-width="0.5" stroke-miterlimit="10" width="4" height="2"/>
			
				<rect x="55.956" y="31.417" fill="#B3D1F4" stroke="#3D4754" stroke-width="0.5" stroke-miterlimit="10" width="12.188" height="2"/>
		</g>
		<g>
			<rect x="52.956" y="36.084" fill="#B3D1F4" stroke="#3D4754" stroke-width="0.5" stroke-miterlimit="10" width="2" height="2"/>
			<rect x="69.144" y="36.084" fill="#B3D1F4" stroke="#3D4754" stroke-width="0.5" stroke-miterlimit="10" width="2" height="2"/>
			<rect x="73.144" y="36.084" fill="#2CDF60" stroke="#114620" stroke-width="0.5" stroke-miterlimit="10" width="4" height="2"/>
			
				<rect x="55.956" y="36.084" fill="#B3D1F4" stroke="#3D4754" stroke-width="0.5" stroke-miterlimit="10" width="12.188" height="2"/>
		</g>
	</g>
	<linearGradient id="#id_SVGID_13_" gradientUnits="userSpaceOnUse" x1="64.9497" y1="7.8613" x2="64.9497" y2="1">
		<stop  offset="0" style="stop-color:#617286"/>
		<stop  offset="1" style="stop-color:#46515D"/>
	</linearGradient>
	<polygon fill="url(##id_SVGID_13_)" points="80.85,7.861 49.05,7.861 54.05,1 75.85,1 	"/>
	<linearGradient id="#id_Light_1_" gradientUnits="userSpaceOnUse" x1="55.2842" y1="14.0957" x2="68.1146" y2="1.2652">
		<stop  offset="0.231" style="stop-color:#FFFFFF;stop-opacity:0"/>
		<stop  offset="1" style="stop-color:#FFFFFF;stop-opacity:0.2"/>
	</linearGradient>
	<polygon id="Light" fill="url(##id_Light_1_)" points="65.85,17.861 49.05,7.861 54.05,1 67.85,1 	"/>
</g>
<g id="SvrError">
	<g display="inline">
		<radialGradient id="SVGID_15_" cx="80.2842" cy="32.625" r="24.1094" gradientUnits="userSpaceOnUse">
			<stop  offset="0" style="stop-color:#FF5A5A"/>
			<stop  offset="1" style="stop-color:#A94000"/>
		</radialGradient>
		<path fill="url(#SVGID_15_)" d="M80,58.25c-5.652,0-10.25-4.599-10.25-10.251c0-5.651,4.598-10.249,10.25-10.249
			s10.25,4.598,10.25,10.249C90.25,53.651,85.652,58.25,80,58.25z"/>
		<path fill="#F2F2F2" d="M80,38.5c5.238,0,9.5,4.261,9.5,9.499c0,5.239-4.262,9.501-9.5,9.501s-9.5-4.262-9.5-9.501
			C70.5,42.761,74.762,38.5,80,38.5 M80,37c-6.075,0-11,4.924-11,10.999C69,54.076,73.925,59,80,59c6.074,0,11-4.924,11-11.001
			C91,41.924,86.074,37,80,37L80,37z"/>
	</g>
</g>
</svg>
