<?xml version="1.0" encoding="utf-8"?>
<!-- Generator: Adobe Illustrator 16.0.0, SVG Export Plug-In . SVG Version: 6.00 Build 0)  -->
<!DOCTYPE svg PUBLIC "-//W3C//DTD SVG 1.1//EN" "http://www.w3.org/Graphics/SVG/1.1/DTD/svg11.dtd">
<svg version="1.1" xmlns="http://www.w3.org/2000/svg" xmlns:xlink="http://www.w3.org/1999/xlink" x="0px" y="0px" width="135px"
	 height="177px" viewBox="0 0 135 177" enable-background="new 0 0 135 177" xml:space="preserve">
<g id="KMgrCpu">
	<g>
		<g>
			<g opacity="0.8">
				<path fill="#1A1A1A" d="M38.433,55.5c-0.711,0-1.289-0.564-1.289-1.258V7.211c0-0.354,0.156-0.619,0.288-0.779
					c0.02-0.024,0.037-0.049,0.051-0.076c1.445-1.838,4.179-4.816,4.699-5.313c0.42-0.4,0.844-0.542,2.388-0.542h13.596
					c1.138,0,2.357,0.062,2.774,0.518l4.911,5.371c0.01,0.015,0.021,0.03,0.032,0.044c0.131,0.159,0.288,0.423,0.288,0.778v47.031
					c0,0.693-0.578,1.258-1.289,1.258H38.433z"/>
				<path fill="#1A1A1A" d="M58.165,1c1.38,0,2.19,0.12,2.406,0.355l1.122,1.228l3.706,4.053l0.01-0.009
					c0.009,0.015,0.019,0.03,0.029,0.045l-0.003,0.003l0.023,0.025c0.012,0.017,0.025,0.034,0.038,0.05
					c0.079,0.096,0.173,0.254,0.173,0.46v47.031c0,0.418-0.354,0.758-0.789,0.758H38.433c-0.435,0-0.789-0.34-0.789-0.758V7.211
					c0-0.207,0.095-0.365,0.174-0.462c0.029-0.035,0.055-0.072,0.078-0.11c1.437-1.823,4.119-4.746,4.631-5.234
					C42.79,1.154,43.03,1,44.569,1H58.165 M58.165,0c-1.457,0-12.037,0-13.596,0s-2.164,0.139-2.732,0.681s-3.38,3.614-4.801,5.434
					h0.008c-0.247,0.301-0.401,0.68-0.401,1.096v47.031c0,0.971,0.801,1.758,1.789,1.758h26.448c0.988,0,1.789-0.787,1.789-1.758
					V7.211c0-0.417-0.153-0.795-0.401-1.096h0.009c0,0-0.043-0.047-0.104-0.113c-0.013-0.013-0.024-0.027-0.037-0.041
					c-0.739-0.808-4.353-4.761-4.828-5.28C60.778,0.101,59.623,0,58.165,0L58.165,0z"/>
			</g>
			<linearGradient id="SVGID_11_" gradientUnits="userSpaceOnUse" x1="51.0132" y1="-0.1489" x2="51.0132" y2="7.2853">
				<stop  offset="0.0018" style="stop-color:#5E5E5E"/>
				<stop  offset="0.9227" style="stop-color:#5B5B5B"/>
				<stop  offset="0.9999" style="stop-color:#030303"/>
			</linearGradient>
			<path fill="url(#SVGID_11_)" d="M36.393,6.224c1.421-1.853,4.232-4.98,4.801-5.531S42.367,0,43.926,0s12.139,0,13.596,0
				c1.458,0,2.613,0.103,3.144,0.693c0.529,0.589,4.969,5.531,4.969,5.531H36.393z"/>
			<linearGradient id="SVGID_12_" gradientUnits="userSpaceOnUse" x1="50.9897" y1="-3.8755" x2="50.9897" y2="9.0177">
				<stop  offset="0.0032" style="stop-color:#808080"/>
				<stop  offset="1" style="stop-color:#DEDEDE"/>
				<stop  offset="1" style="stop-color:#666666"/>
				<stop  offset="1" style="stop-color:#B0B0B0"/>
			</linearGradient>
			<path fill="url(#SVGID_12_)" d="M36.896,5.979c1.499-1.888,3.975-4.63,4.469-5.109c0.504-0.49,1.055-0.624,2.562-0.624h13.596
				c1.447,0,2.505,0.104,2.961,0.612l4.602,5.122H36.896z"/>
			<linearGradient id="SVGID_13_" gradientUnits="userSpaceOnUse" x1="51.0132" y1="4.0615" x2="51.0132" y2="58.0961">
				<stop  offset="0.0018" style="stop-color:#5E5E5E"/>
				<stop  offset="0.9227" style="stop-color:#5B5B5B"/>
				<stop  offset="0.9999" style="stop-color:#030303"/>
			</linearGradient>
			<path fill="url(#SVGID_13_)" d="M66.026,55.211c0,0.988-0.801,1.789-1.789,1.789H37.789C36.801,57,36,56.199,36,55.211V7.34
				c0-0.988,0.801-1.789,1.789-1.789h26.448c0.988,0,1.789,0.801,1.789,1.789V55.211z"/>
			<linearGradient id="SVGID_14_" gradientUnits="userSpaceOnUse" x1="50.9292" y1="4.6792" x2="50.9292" y2="57.1429">
				<stop  offset="0.0032" style="stop-color:#808080"/>
				<stop  offset="0.0864" style="stop-color:#DEDEDE"/>
				<stop  offset="0.887" style="stop-color:#B0B0B0"/>
				<stop  offset="0.9966" style="stop-color:#666666"/>
				<stop  offset="1" style="stop-color:#B0B0B0"/>
			</linearGradient>
			<path fill="url(#SVGID_14_)" d="M65.521,55.103c0,0.769-0.624,1.391-1.392,1.391H37.729c-0.769,0-1.392-0.623-1.392-1.391V7.28
				c0-0.768,0.623-1.391,1.392-1.391h26.399c0.768,0,1.392,0.623,1.392,1.391V55.103z"/>
			<g>
				<linearGradient id="SVGID_15_" gradientUnits="userSpaceOnUse" x1="36.52" y1="27.9863" x2="66.1689" y2="27.9863">
					<stop  offset="0.0032" style="stop-color:#808080"/>
					<stop  offset="0.0864" style="stop-color:#E8E8E8"/>
					<stop  offset="0.2816" style="stop-color:#E2E2E2"/>
					<stop  offset="0.5352" style="stop-color:#D2D2D2"/>
					<stop  offset="0.8199" style="stop-color:#B7B7B7"/>
					<stop  offset="0.887" style="stop-color:#B0B0B0"/>
					<stop  offset="0.9966" style="stop-color:#666666"/>
					<stop  offset="1" style="stop-color:#B0B0B0"/>
				</linearGradient>
				<path fill="url(#SVGID_15_)" d="M65.183,7.414c0-0.547-0.279-1.02-0.826-1.02h-26.44c-0.546,0-0.903,0.473-0.903,1.02v42.164
					h28.17V7.414z"/>
				<linearGradient id="SVGID_16_" gradientUnits="userSpaceOnUse" x1="36.2246" y1="52.5298" x2="66.365" y2="52.5298">
					<stop  offset="0.0032" style="stop-color:#343434"/>
					<stop  offset="0.0915" style="stop-color:#929292"/>
					<stop  offset="0.887" style="stop-color:#646464"/>
					<stop  offset="0.9966" style="stop-color:#1A1A1A"/>
					<stop  offset="1" style="stop-color:#646464"/>
				</linearGradient>
				<path fill="url(#SVGID_16_)" d="M37.916,55.988h26.44c0.547,0,0.826-0.515,0.826-1.062v-5.854h-28.17v5.854
					C37.013,55.473,37.37,55.988,37.916,55.988z"/>
				<linearGradient id="SVGID_17_" gradientUnits="userSpaceOnUse" x1="36.2246" y1="52.8672" x2="66.365" y2="52.8672">
					<stop  offset="0.0032" style="stop-color:#575757"/>
					<stop  offset="0.0915" style="stop-color:#BFBFBF"/>
					<stop  offset="0.2894" style="stop-color:#BABABA"/>
					<stop  offset="0.5239" style="stop-color:#ACACAC"/>
					<stop  offset="0.7759" style="stop-color:#949494"/>
					<stop  offset="0.887" style="stop-color:#878787"/>
					<stop  offset="0.9966" style="stop-color:#3D3D3D"/>
					<stop  offset="1" style="stop-color:#878787"/>
				</linearGradient>
				<path fill="url(#SVGID_17_)" d="M37.916,56.156h26.44c0.547,0,0.826-0.286,0.826-0.832v-5.747h-28.17v5.747
					C37.013,55.871,37.37,56.156,37.916,56.156z"/>
			</g>
			<g>
				<linearGradient id="SVGID_18_" gradientUnits="userSpaceOnUse" x1="66.6108" y1="21.8291" x2="35.7442" y2="21.8291">
					<stop  offset="0.0016" style="stop-color:#4D4D4D"/>
					<stop  offset="0.1149" style="stop-color:#9D9D9D"/>
					<stop  offset="0.8871" style="stop-color:#B0B0B0"/>
					<stop  offset="0.9956" style="stop-color:#666666"/>
				</linearGradient>
				<rect x="37.013" y="20.396" fill="url(#SVGID_18_)" width="28.17" height="2.867"/>
				<linearGradient id="SVGID_19_" gradientUnits="userSpaceOnUse" x1="35.5024" y1="21.8291" x2="66.0268" y2="21.8291">
					<stop  offset="0" style="stop-color:#333333"/>
					<stop  offset="0.1205" style="stop-color:#FCFCFC"/>
					<stop  offset="0.8516" style="stop-color:#FFFFFF"/>
					<stop  offset="0.8724" style="stop-color:#00478B"/>
				</linearGradient>
				<rect x="37.013" y="20.564" fill="url(#SVGID_19_)" width="28.17" height="2.53"/>
			</g>
			<g>
				<linearGradient id="SVGID_20_" gradientUnits="userSpaceOnUse" x1="66.6108" y1="17.7808" x2="35.7442" y2="17.7808">
					<stop  offset="0.0016" style="stop-color:#4D4D4D"/>
					<stop  offset="0.1149" style="stop-color:#9D9D9D"/>
					<stop  offset="0.8871" style="stop-color:#B0B0B0"/>
					<stop  offset="0.9956" style="stop-color:#666666"/>
				</linearGradient>
				<rect x="37.013" y="16.347" fill="url(#SVGID_20_)" width="28.17" height="2.868"/>
				<linearGradient id="SVGID_21_" gradientUnits="userSpaceOnUse" x1="35.5024" y1="17.7803" x2="66.0268" y2="17.7803">
					<stop  offset="0" style="stop-color:#333333"/>
					<stop  offset="0.1205" style="stop-color:#FCFCFC"/>
					<stop  offset="0.8516" style="stop-color:#FFFFFF"/>
					<stop  offset="0.8724" style="stop-color:#00478B"/>
				</linearGradient>
				<rect x="37.013" y="16.515" fill="url(#SVGID_21_)" width="28.17" height="2.531"/>
			</g>
			<g>
				<linearGradient id="SVGID_22_" gradientUnits="userSpaceOnUse" x1="66.6108" y1="13.9009" x2="35.7442" y2="13.9009">
					<stop  offset="0.0016" style="stop-color:#4D4D4D"/>
					<stop  offset="0.1149" style="stop-color:#9D9D9D"/>
					<stop  offset="0.8871" style="stop-color:#B0B0B0"/>
					<stop  offset="0.9956" style="stop-color:#666666"/>
				</linearGradient>
				<rect x="37.013" y="12.467" fill="url(#SVGID_22_)" width="28.17" height="2.868"/>
				<linearGradient id="SVGID_23_" gradientUnits="userSpaceOnUse" x1="35.5024" y1="13.8789" x2="66.0268" y2="13.8789">
					<stop  offset="0" style="stop-color:#333333"/>
					<stop  offset="0.1205" style="stop-color:#FCFCFC"/>
					<stop  offset="0.8516" style="stop-color:#FFFFFF"/>
					<stop  offset="0.8724" style="stop-color:#00478B"/>
				</linearGradient>
				<rect x="37.013" y="12.636" fill="url(#SVGID_23_)" width="28.17" height="2.485"/>
			</g>
			<g>
				<linearGradient id="SVGID_24_" gradientUnits="userSpaceOnUse" x1="51.0981" y1="45.3506" x2="51.0981" y2="45.7055">
					<stop  offset="0.0018" style="stop-color:#5E5E5E"/>
					<stop  offset="0.9227" style="stop-color:#5B5B5B"/>
					<stop  offset="0.9999" style="stop-color:#030303"/>
				</linearGradient>
				<rect x="41.062" y="45.36" fill="url(#SVGID_24_)" width="20.073" height="0.338"/>
				<linearGradient id="SVGID_25_" gradientUnits="userSpaceOnUse" x1="51.0981" y1="43.6641" x2="51.0981" y2="44.0184">
					<stop  offset="0.0018" style="stop-color:#5E5E5E"/>
					<stop  offset="0.9227" style="stop-color:#5B5B5B"/>
					<stop  offset="0.9999" style="stop-color:#030303"/>
				</linearGradient>
				<rect x="41.062" y="43.674" fill="url(#SVGID_25_)" width="20.073" height="0.337"/>
				<linearGradient id="SVGID_26_" gradientUnits="userSpaceOnUse" x1="51.0981" y1="41.9771" x2="51.0981" y2="42.3314">
					<stop  offset="0.0018" style="stop-color:#5E5E5E"/>
					<stop  offset="0.9227" style="stop-color:#5B5B5B"/>
					<stop  offset="0.9999" style="stop-color:#030303"/>
				</linearGradient>
				<rect x="41.062" y="41.987" fill="url(#SVGID_26_)" width="20.073" height="0.337"/>
				<linearGradient id="SVGID_27_" gradientUnits="userSpaceOnUse" x1="51.0981" y1="40.29" x2="51.0981" y2="40.645">
					<stop  offset="0.0018" style="stop-color:#5E5E5E"/>
					<stop  offset="0.9227" style="stop-color:#5B5B5B"/>
					<stop  offset="0.9999" style="stop-color:#030303"/>
				</linearGradient>
				<rect x="41.062" y="40.3" fill="url(#SVGID_27_)" width="20.073" height="0.338"/>
				<linearGradient id="SVGID_28_" gradientUnits="userSpaceOnUse" x1="51.0981" y1="38.6035" x2="51.0981" y2="38.9574">
					<stop  offset="0.0018" style="stop-color:#5E5E5E"/>
					<stop  offset="0.9227" style="stop-color:#5B5B5B"/>
					<stop  offset="0.9999" style="stop-color:#030303"/>
				</linearGradient>
				<rect x="41.062" y="38.613" fill="url(#SVGID_28_)" width="20.073" height="0.337"/>
				<linearGradient id="SVGID_29_" gradientUnits="userSpaceOnUse" x1="51.0981" y1="36.9165" x2="51.0981" y2="37.2707">
					<stop  offset="0.0018" style="stop-color:#5E5E5E"/>
					<stop  offset="0.9227" style="stop-color:#5B5B5B"/>
					<stop  offset="0.9999" style="stop-color:#030303"/>
				</linearGradient>
				<rect x="41.062" y="36.926" fill="url(#SVGID_29_)" width="20.073" height="0.337"/>
			</g>
			<g>
				<g>
					<linearGradient id="SVGID_30_" gradientUnits="userSpaceOnUse" x1="60.2495" y1="28.1411" x2="60.2495" y2="29.6166">
						<stop  offset="0.0018" style="stop-color:#5E5E5E"/>
						<stop  offset="0.9227" style="stop-color:#5B5B5B"/>
						<stop  offset="0.9999" style="stop-color:#030303"/>
					</linearGradient>
					<circle fill="url(#SVGID_30_)" cx="60.25" cy="28.884" r="0.703"/>
					<circle fill="#5CA2D8" cx="60.25" cy="28.884" r="0.439"/>
				</g>
				<g>
					<linearGradient id="SVGID_31_" gradientUnits="userSpaceOnUse" x1="58.2612" y1="28.1411" x2="58.2612" y2="29.6166">
						<stop  offset="0.0018" style="stop-color:#5E5E5E"/>
						<stop  offset="0.9227" style="stop-color:#5B5B5B"/>
						<stop  offset="0.9999" style="stop-color:#030303"/>
					</linearGradient>
					<circle fill="url(#SVGID_31_)" cx="58.261" cy="28.884" r="0.703"/>
					<circle fill="#5CA2D8" cx="58.262" cy="28.884" r="0.439"/>
				</g>
				<g>
					<linearGradient id="SVGID_32_" gradientUnits="userSpaceOnUse" x1="56.2729" y1="28.1411" x2="56.2729" y2="29.6166">
						<stop  offset="0.0018" style="stop-color:#5E5E5E"/>
						<stop  offset="0.9227" style="stop-color:#5B5B5B"/>
						<stop  offset="0.9999" style="stop-color:#030303"/>
					</linearGradient>
					<circle fill="url(#SVGID_32_)" cx="56.273" cy="28.884" r="0.703"/>
					<circle fill="#5CA2D8" cx="56.273" cy="28.884" r="0.439"/>
				</g>
			</g>
		</g>
		<g>
			<g opacity="0.8">
				<path fill="#1A1A1A" d="M72.279,55.5c-0.711,0-1.289-0.564-1.289-1.258V7.211c0-0.354,0.156-0.619,0.287-0.779
					c0.02-0.024,0.037-0.049,0.051-0.076c1.445-1.838,4.18-4.816,4.699-5.313c0.421-0.4,0.845-0.542,2.389-0.542h13.596
					c1.137,0,2.357,0.062,2.773,0.518l4.912,5.371c0.01,0.015,0.02,0.03,0.031,0.044c0.131,0.159,0.287,0.423,0.287,0.778v47.031
					c0,0.693-0.578,1.258-1.289,1.258H72.279z"/>
				<path fill="#1A1A1A" d="M92.012,1c1.381,0,2.189,0.12,2.404,0.355l2.869,3.137l1.959,2.144l0.012-0.01
					c0.008,0.016,0.018,0.031,0.029,0.046l-0.004,0.003l0.023,0.025c0.012,0.017,0.025,0.034,0.037,0.05
					c0.08,0.096,0.174,0.254,0.174,0.46v47.031c0,0.418-0.354,0.758-0.789,0.758H72.279c-0.436,0-0.789-0.34-0.789-0.758V7.211
					c0-0.207,0.094-0.365,0.174-0.462c0.029-0.035,0.055-0.072,0.078-0.11c1.438-1.823,4.119-4.746,4.631-5.234
					C76.637,1.154,76.876,1,78.416,1H92.012 M92.012,0c-1.457,0-12.037,0-13.596,0s-2.164,0.139-2.732,0.681
					s-3.381,3.614-4.801,5.434h0.008c-0.247,0.301-0.4,0.68-0.4,1.096v47.031c0,0.971,0.801,1.758,1.789,1.758h26.447
					c0.988,0,1.789-0.787,1.789-1.758V7.211c0-0.417-0.152-0.795-0.4-1.096h0.008c0,0-0.043-0.047-0.104-0.113
					c-0.012-0.013-0.023-0.027-0.037-0.041c-0.738-0.808-4.354-4.761-4.828-5.28C94.625,0.101,93.469,0,92.012,0L92.012,0z"/>
			</g>
			<linearGradient id="SVGID_33_" gradientUnits="userSpaceOnUse" x1="84.8887" y1="-0.1489" x2="84.8887" y2="7.2853">
				<stop  offset="0.0018" style="stop-color:#5E5E5E"/>
				<stop  offset="0.9227" style="stop-color:#5B5B5B"/>
				<stop  offset="0.9999" style="stop-color:#030303"/>
			</linearGradient>
			<path fill="url(#SVGID_33_)" d="M70.268,6.224c1.421-1.853,4.232-4.98,4.801-5.531S76.242,0,77.801,0s12.139,0,13.596,0
				c1.458,0,2.613,0.103,3.144,0.693c0.529,0.589,4.969,5.531,4.969,5.531H70.268z"/>
			<linearGradient id="SVGID_34_" gradientUnits="userSpaceOnUse" x1="84.8652" y1="-3.8755" x2="84.8652" y2="9.0177">
				<stop  offset="0.0032" style="stop-color:#808080"/>
				<stop  offset="1" style="stop-color:#DEDEDE"/>
				<stop  offset="1" style="stop-color:#666666"/>
				<stop  offset="1" style="stop-color:#B0B0B0"/>
			</linearGradient>
			<path fill="url(#SVGID_34_)" d="M70.771,5.979c1.499-1.888,3.975-4.63,4.469-5.109c0.504-0.49,1.055-0.624,2.562-0.624h13.596
				c1.447,0,2.505,0.104,2.961,0.612l4.602,5.122H70.771z"/>
			<linearGradient id="SVGID_35_" gradientUnits="userSpaceOnUse" x1="84.8887" y1="4.0615" x2="84.8887" y2="58.0961">
				<stop  offset="0.0018" style="stop-color:#5E5E5E"/>
				<stop  offset="0.9227" style="stop-color:#5B5B5B"/>
				<stop  offset="0.9999" style="stop-color:#030303"/>
			</linearGradient>
			<path fill="url(#SVGID_35_)" d="M99.901,55.211c0,0.988-0.801,1.789-1.789,1.789H71.664c-0.988,0-1.789-0.801-1.789-1.789V7.34
				c0-0.988,0.801-1.789,1.789-1.789h26.448c0.988,0,1.789,0.801,1.789,1.789V55.211z"/>
			<linearGradient id="SVGID_36_" gradientUnits="userSpaceOnUse" x1="84.8047" y1="4.6792" x2="84.8047" y2="57.1429">
				<stop  offset="0.0032" style="stop-color:#808080"/>
				<stop  offset="0.0864" style="stop-color:#DEDEDE"/>
				<stop  offset="0.887" style="stop-color:#B0B0B0"/>
				<stop  offset="0.9966" style="stop-color:#666666"/>
				<stop  offset="1" style="stop-color:#B0B0B0"/>
			</linearGradient>
			<path fill="url(#SVGID_36_)" d="M99.396,55.103c0,0.769-0.624,1.391-1.392,1.391H71.604c-0.769,0-1.392-0.623-1.392-1.391V7.28
				c0-0.768,0.623-1.391,1.392-1.391h26.399c0.768,0,1.392,0.623,1.392,1.391V55.103z"/>
			<g>
				<linearGradient id="SVGID_37_" gradientUnits="userSpaceOnUse" x1="70.3955" y1="27.9863" x2="100.0443" y2="27.9863">
					<stop  offset="0.0032" style="stop-color:#808080"/>
					<stop  offset="0.0864" style="stop-color:#E8E8E8"/>
					<stop  offset="0.2816" style="stop-color:#E2E2E2"/>
					<stop  offset="0.5352" style="stop-color:#D2D2D2"/>
					<stop  offset="0.8199" style="stop-color:#B7B7B7"/>
					<stop  offset="0.887" style="stop-color:#B0B0B0"/>
					<stop  offset="0.9966" style="stop-color:#666666"/>
					<stop  offset="1" style="stop-color:#B0B0B0"/>
				</linearGradient>
				<path fill="url(#SVGID_37_)" d="M99.058,7.414c0-0.547-0.279-1.02-0.826-1.02h-26.44c-0.546,0-0.903,0.473-0.903,1.02v42.164
					h28.17V7.414z"/>
				<linearGradient id="SVGID_38_" gradientUnits="userSpaceOnUse" x1="70.0996" y1="52.5298" x2="100.24" y2="52.5298">
					<stop  offset="0.0032" style="stop-color:#343434"/>
					<stop  offset="0.0915" style="stop-color:#929292"/>
					<stop  offset="0.887" style="stop-color:#646464"/>
					<stop  offset="0.9966" style="stop-color:#1A1A1A"/>
					<stop  offset="1" style="stop-color:#646464"/>
				</linearGradient>
				<path fill="url(#SVGID_38_)" d="M71.791,55.988h26.44c0.547,0,0.826-0.515,0.826-1.062v-5.854h-28.17v5.854
					C70.888,55.473,71.245,55.988,71.791,55.988z"/>
				<linearGradient id="SVGID_39_" gradientUnits="userSpaceOnUse" x1="70.0996" y1="52.8672" x2="100.24" y2="52.8672">
					<stop  offset="0.0032" style="stop-color:#575757"/>
					<stop  offset="0.0915" style="stop-color:#BFBFBF"/>
					<stop  offset="0.2894" style="stop-color:#BABABA"/>
					<stop  offset="0.5239" style="stop-color:#ACACAC"/>
					<stop  offset="0.7759" style="stop-color:#949494"/>
					<stop  offset="0.887" style="stop-color:#878787"/>
					<stop  offset="0.9966" style="stop-color:#3D3D3D"/>
					<stop  offset="1" style="stop-color:#878787"/>
				</linearGradient>
				<path fill="url(#SVGID_39_)" d="M71.791,56.156h26.44c0.547,0,0.826-0.286,0.826-0.832v-5.747h-28.17v5.747
					C70.888,55.871,71.245,56.156,71.791,56.156z"/>
			</g>
			<g>
				<linearGradient id="SVGID_40_" gradientUnits="userSpaceOnUse" x1="100.4863" y1="21.8291" x2="69.6197" y2="21.8291">
					<stop  offset="0.0016" style="stop-color:#4D4D4D"/>
					<stop  offset="0.1149" style="stop-color:#9D9D9D"/>
					<stop  offset="0.8871" style="stop-color:#B0B0B0"/>
					<stop  offset="0.9956" style="stop-color:#666666"/>
				</linearGradient>
				<rect x="70.888" y="20.396" fill="url(#SVGID_40_)" width="28.17" height="2.867"/>
				<linearGradient id="SVGID_41_" gradientUnits="userSpaceOnUse" x1="69.377" y1="21.8291" x2="99.9013" y2="21.8291">
					<stop  offset="0" style="stop-color:#333333"/>
					<stop  offset="0.1205" style="stop-color:#FCFCFC"/>
					<stop  offset="0.8516" style="stop-color:#FFFFFF"/>
					<stop  offset="0.8724" style="stop-color:#00478B"/>
				</linearGradient>
				<rect x="70.888" y="20.564" fill="url(#SVGID_41_)" width="28.17" height="2.53"/>
			</g>
			<g>
				<linearGradient id="SVGID_42_" gradientUnits="userSpaceOnUse" x1="100.4863" y1="17.7808" x2="69.6197" y2="17.7808">
					<stop  offset="0.0016" style="stop-color:#4D4D4D"/>
					<stop  offset="0.1149" style="stop-color:#9D9D9D"/>
					<stop  offset="0.8871" style="stop-color:#B0B0B0"/>
					<stop  offset="0.9956" style="stop-color:#666666"/>
				</linearGradient>
				<rect x="70.888" y="16.347" fill="url(#SVGID_42_)" width="28.17" height="2.868"/>
				<linearGradient id="SVGID_43_" gradientUnits="userSpaceOnUse" x1="69.377" y1="17.7803" x2="99.9013" y2="17.7803">
					<stop  offset="0" style="stop-color:#333333"/>
					<stop  offset="0.1205" style="stop-color:#FCFCFC"/>
					<stop  offset="0.8516" style="stop-color:#FFFFFF"/>
					<stop  offset="0.8724" style="stop-color:#00478B"/>
				</linearGradient>
				<rect x="70.888" y="16.515" fill="url(#SVGID_43_)" width="28.17" height="2.531"/>
			</g>
			<g>
				<linearGradient id="SVGID_44_" gradientUnits="userSpaceOnUse" x1="100.4863" y1="13.9009" x2="69.6197" y2="13.9009">
					<stop  offset="0.0016" style="stop-color:#4D4D4D"/>
					<stop  offset="0.1149" style="stop-color:#9D9D9D"/>
					<stop  offset="0.8871" style="stop-color:#B0B0B0"/>
					<stop  offset="0.9956" style="stop-color:#666666"/>
				</linearGradient>
				<rect x="70.888" y="12.467" fill="url(#SVGID_44_)" width="28.17" height="2.868"/>
				<linearGradient id="SVGID_45_" gradientUnits="userSpaceOnUse" x1="69.377" y1="13.8789" x2="99.9013" y2="13.8789">
					<stop  offset="0" style="stop-color:#333333"/>
					<stop  offset="0.1205" style="stop-color:#FCFCFC"/>
					<stop  offset="0.8516" style="stop-color:#FFFFFF"/>
					<stop  offset="0.8724" style="stop-color:#00478B"/>
				</linearGradient>
				<rect x="70.888" y="12.636" fill="url(#SVGID_45_)" width="28.17" height="2.485"/>
			</g>
			<g>
				<linearGradient id="SVGID_46_" gradientUnits="userSpaceOnUse" x1="84.9727" y1="45.3506" x2="84.9727" y2="45.7055">
					<stop  offset="0.0018" style="stop-color:#5E5E5E"/>
					<stop  offset="0.9227" style="stop-color:#5B5B5B"/>
					<stop  offset="0.9999" style="stop-color:#030303"/>
				</linearGradient>
				<rect x="74.937" y="45.36" fill="url(#SVGID_46_)" width="20.073" height="0.338"/>
				<linearGradient id="SVGID_47_" gradientUnits="userSpaceOnUse" x1="84.9727" y1="43.6641" x2="84.9727" y2="44.0184">
					<stop  offset="0.0018" style="stop-color:#5E5E5E"/>
					<stop  offset="0.9227" style="stop-color:#5B5B5B"/>
					<stop  offset="0.9999" style="stop-color:#030303"/>
				</linearGradient>
				<rect x="74.937" y="43.674" fill="url(#SVGID_47_)" width="20.073" height="0.337"/>
				<linearGradient id="SVGID_48_" gradientUnits="userSpaceOnUse" x1="84.9727" y1="41.9771" x2="84.9727" y2="42.3314">
					<stop  offset="0.0018" style="stop-color:#5E5E5E"/>
					<stop  offset="0.9227" style="stop-color:#5B5B5B"/>
					<stop  offset="0.9999" style="stop-color:#030303"/>
				</linearGradient>
				<rect x="74.937" y="41.987" fill="url(#SVGID_48_)" width="20.073" height="0.337"/>
				<linearGradient id="SVGID_49_" gradientUnits="userSpaceOnUse" x1="84.9727" y1="40.29" x2="84.9727" y2="40.645">
					<stop  offset="0.0018" style="stop-color:#5E5E5E"/>
					<stop  offset="0.9227" style="stop-color:#5B5B5B"/>
					<stop  offset="0.9999" style="stop-color:#030303"/>
				</linearGradient>
				<rect x="74.937" y="40.3" fill="url(#SVGID_49_)" width="20.073" height="0.338"/>
				<linearGradient id="SVGID_50_" gradientUnits="userSpaceOnUse" x1="84.9727" y1="38.6035" x2="84.9727" y2="38.9574">
					<stop  offset="0.0018" style="stop-color:#5E5E5E"/>
					<stop  offset="0.9227" style="stop-color:#5B5B5B"/>
					<stop  offset="0.9999" style="stop-color:#030303"/>
				</linearGradient>
				<rect x="74.937" y="38.613" fill="url(#SVGID_50_)" width="20.073" height="0.337"/>
				<linearGradient id="SVGID_51_" gradientUnits="userSpaceOnUse" x1="84.9727" y1="36.9165" x2="84.9727" y2="37.2707">
					<stop  offset="0.0018" style="stop-color:#5E5E5E"/>
					<stop  offset="0.9227" style="stop-color:#5B5B5B"/>
					<stop  offset="0.9999" style="stop-color:#030303"/>
				</linearGradient>
				<rect x="74.937" y="36.926" fill="url(#SVGID_51_)" width="20.073" height="0.337"/>
			</g>
			<g>
				<g>
					<linearGradient id="SVGID_52_" gradientUnits="userSpaceOnUse" x1="94.125" y1="28.1411" x2="94.125" y2="29.6166">
						<stop  offset="0.0018" style="stop-color:#5E5E5E"/>
						<stop  offset="0.9227" style="stop-color:#5B5B5B"/>
						<stop  offset="0.9999" style="stop-color:#030303"/>
					</linearGradient>
					<circle fill="url(#SVGID_52_)" cx="94.125" cy="28.884" r="0.703"/>
					<circle fill="#5CA2D8" cx="94.125" cy="28.884" r="0.439"/>
				</g>
				<g>
					<linearGradient id="SVGID_53_" gradientUnits="userSpaceOnUse" x1="92.1367" y1="28.1411" x2="92.1367" y2="29.6166">
						<stop  offset="0.0018" style="stop-color:#5E5E5E"/>
						<stop  offset="0.9227" style="stop-color:#5B5B5B"/>
						<stop  offset="0.9999" style="stop-color:#030303"/>
					</linearGradient>
					<circle fill="url(#SVGID_53_)" cx="92.136" cy="28.884" r="0.703"/>
					<circle fill="#5CA2D8" cx="92.137" cy="28.884" r="0.439"/>
				</g>
				<g>
					<linearGradient id="SVGID_54_" gradientUnits="userSpaceOnUse" x1="90.1484" y1="28.1411" x2="90.1484" y2="29.6166">
						<stop  offset="0.0018" style="stop-color:#5E5E5E"/>
						<stop  offset="0.9227" style="stop-color:#5B5B5B"/>
						<stop  offset="0.9999" style="stop-color:#030303"/>
					</linearGradient>
					<circle fill="url(#SVGID_54_)" cx="90.148" cy="28.884" r="0.703"/>
					<circle fill="#5CA2D8" cx="90.148" cy="28.884" r="0.439"/>
				</g>
			</g>
		</g>
	</g>
</g>
<g id="KMgrTool">
	<g>
		<g>
			<g>
				
					<linearGradient id="SVGID_55_" gradientUnits="userSpaceOnUse" x1="-9955.3379" y1="57.0723" x2="-9927.583" y2="57.0723" gradientTransform="matrix(-1 0 0 1 -9873.5098 0)">
					<stop  offset="0" style="stop-color:#9C9C9C"/>
					<stop  offset="0.0488" style="stop-color:#787878"/>
					<stop  offset="0.1273" style="stop-color:#4C4C4C"/>
					<stop  offset="0.3273" style="stop-color:#B5B5B5"/>
					<stop  offset="0.5119" style="stop-color:#838485"/>
					<stop  offset="0.7333" style="stop-color:#E0E0E0"/>
					<stop  offset="0.7631" style="stop-color:#EBEBEB"/>
					<stop  offset="0.8102" style="stop-color:#FAFAFA"/>
					<stop  offset="0.8349" style="stop-color:#F7F7F7"/>
					<stop  offset="1" style="stop-color:#969696"/>
				</linearGradient>
				<path fill="url(#SVGID_55_)" d="M54.073,52.646v5.49c0,1.858,6.214,3.364,13.878,3.364s13.877-1.505,13.877-3.364v-5.49
					c0,1.859-6.213,3.364-13.877,3.364S54.073,54.504,54.073,52.646z"/>
				
					<linearGradient id="SVGID_56_" gradientUnits="userSpaceOnUse" x1="-9949.0039" y1="59.6968" x2="-9931.6582" y2="43.4834" gradientTransform="matrix(-1 0 0 1 -9873.5098 0)">
					<stop  offset="5.343000e-005" style="stop-color:#696969"/>
					<stop  offset="1" style="stop-color:#525252"/>
				</linearGradient>
				<ellipse fill="url(#SVGID_56_)" cx="67.951" cy="52.646" rx="13.878" ry="3.364"/>
				
					<linearGradient id="SVGID_57_" gradientUnits="userSpaceOnUse" x1="-9955.2666" y1="59.9053" x2="-9927.5117" y2="59.9053" gradientTransform="matrix(-1 0 0 1 -9873.5098 0)">
					<stop  offset="0" style="stop-color:#171717"/>
					<stop  offset="0.0115" style="stop-color:#191919"/>
					<stop  offset="0.1164" style="stop-color:#292929"/>
					<stop  offset="0.2003" style="stop-color:#2E2E2E"/>
					<stop  offset="0.8489" style="stop-color:#6E6E6E"/>
					<stop  offset="0.9002" style="stop-color:#747474"/>
					<stop  offset="0.9684" style="stop-color:#858585"/>
					<stop  offset="1" style="stop-color:#8F8F8F"/>
				</linearGradient>
				<path fill="url(#SVGID_57_)" d="M67.951,61.676c-7.664,0-13.878-1.683-13.878-3.542c0,1.858,6.214,3.222,13.878,3.222
					s13.877-1.363,13.877-3.222C81.828,59.993,75.615,61.676,67.951,61.676z"/>
				
					<linearGradient id="SVGID_58_" gradientUnits="userSpaceOnUse" x1="-9955.2666" y1="54.416" x2="-9927.5117" y2="54.416" gradientTransform="matrix(-1 0 0 1 -9873.5098 0)">
					<stop  offset="0" style="stop-color:#E8E8E8"/>
					<stop  offset="0.5148" style="stop-color:#FAFAFA"/>
					<stop  offset="1" style="stop-color:#F5F5F5"/>
				</linearGradient>
				<path fill="url(#SVGID_58_)" d="M67.951,56.187c-7.664,0-13.878-1.683-13.878-3.542c0,1.859,6.214,3.225,13.878,3.225
					s13.877-1.366,13.877-3.225C81.828,54.504,75.615,56.187,67.951,56.187z"/>
			</g>
			<g>
				
					<linearGradient id="SVGID_59_" gradientUnits="userSpaceOnUse" x1="-9954.8105" y1="50.8125" x2="-9928.1123" y2="50.8125" gradientTransform="matrix(-1 0 0 1 -9873.5098 0)">
					<stop  offset="0" style="stop-color:#4A57A6"/>
					<stop  offset="0.0488" style="stop-color:#687BBD"/>
					<stop  offset="0.1273" style="stop-color:#1C3085"/>
					<stop  offset="0.3273" style="stop-color:#767FB5"/>
					<stop  offset="0.5119" style="stop-color:#5771C1"/>
					<stop  offset="0.7333" style="stop-color:#AFC2F0"/>
					<stop  offset="0.7631" style="stop-color:#C2D5FF"/>
					<stop  offset="0.8102" style="stop-color:#819FEF"/>
					<stop  offset="0.8349" style="stop-color:#6A8BE6"/>
					<stop  offset="1" style="stop-color:#A3BCF7"/>
				</linearGradient>
				<path fill="url(#SVGID_59_)" d="M54.603,46.555v5.279c0,1.787,5.976,3.236,13.349,3.236s13.35-1.449,13.35-3.236v-5.279
					c0,1.788-5.977,3.236-13.35,3.236S54.603,48.343,54.603,46.555z"/>
				
					<linearGradient id="SVGID_60_" gradientUnits="userSpaceOnUse" x1="-9955.3379" y1="48.7539" x2="-9927.583" y2="48.7539" gradientTransform="matrix(-1 0 0 1 -9873.5098 0)">
					<stop  offset="0" style="stop-color:#9C9C9C"/>
					<stop  offset="0.0488" style="stop-color:#787878"/>
					<stop  offset="0.1273" style="stop-color:#4C4C4C"/>
					<stop  offset="0.3273" style="stop-color:#B5B5B5"/>
					<stop  offset="0.5119" style="stop-color:#838485"/>
					<stop  offset="0.7333" style="stop-color:#E0E0E0"/>
					<stop  offset="0.7631" style="stop-color:#EBEBEB"/>
					<stop  offset="0.8102" style="stop-color:#FAFAFA"/>
					<stop  offset="0.8349" style="stop-color:#F7F7F7"/>
					<stop  offset="1" style="stop-color:#969696"/>
				</linearGradient>
				<path fill="url(#SVGID_60_)" d="M54.073,44.327v5.489c0,1.855,6.214,3.365,13.878,3.365s13.877-1.509,13.877-3.365v-5.489
					c0,1.859-6.213,3.364-13.877,3.364S54.073,46.186,54.073,44.327z"/>
				
					<linearGradient id="SVGID_61_" gradientUnits="userSpaceOnUse" x1="-9949.0039" y1="51.3779" x2="-9931.6572" y2="35.1638" gradientTransform="matrix(-1 0 0 1 -9873.5098 0)">
					<stop  offset="5.343000e-005" style="stop-color:#696969"/>
					<stop  offset="1" style="stop-color:#525252"/>
				</linearGradient>
				<ellipse fill="url(#SVGID_61_)" cx="67.951" cy="44.326" rx="13.878" ry="3.366"/>
				
					<linearGradient id="SVGID_62_" gradientUnits="userSpaceOnUse" x1="-9955.2666" y1="51.585" x2="-9927.5117" y2="51.585" gradientTransform="matrix(-1 0 0 1 -9873.5098 0)">
					<stop  offset="0" style="stop-color:#171717"/>
					<stop  offset="0.0115" style="stop-color:#191919"/>
					<stop  offset="0.1164" style="stop-color:#292929"/>
					<stop  offset="0.2003" style="stop-color:#2E2E2E"/>
					<stop  offset="0.8489" style="stop-color:#6E6E6E"/>
					<stop  offset="0.9002" style="stop-color:#747474"/>
					<stop  offset="0.9684" style="stop-color:#858585"/>
					<stop  offset="1" style="stop-color:#8F8F8F"/>
				</linearGradient>
				<path fill="url(#SVGID_62_)" d="M67.951,53.357c-7.664,0-13.878-1.686-13.878-3.545c0,1.859,6.214,3.225,13.878,3.225
					s13.877-1.366,13.877-3.225C81.828,51.671,75.615,53.357,67.951,53.357z"/>
				
					<linearGradient id="SVGID_63_" gradientUnits="userSpaceOnUse" x1="-9955.2666" y1="46.0981" x2="-9927.5117" y2="46.0981" gradientTransform="matrix(-1 0 0 1 -9873.5098 0)">
					<stop  offset="0" style="stop-color:#E8E8E8"/>
					<stop  offset="0.5148" style="stop-color:#FAFAFA"/>
					<stop  offset="1" style="stop-color:#F5F5F5"/>
				</linearGradient>
				<path fill="url(#SVGID_63_)" d="M67.951,47.869c-7.664,0-13.878-1.683-13.878-3.542c0,1.859,6.214,3.222,13.878,3.222
					s13.877-1.363,13.877-3.222C81.828,46.186,75.615,47.869,67.951,47.869z"/>
			</g>
			<g>
				
					<linearGradient id="SVGID_64_" gradientUnits="userSpaceOnUse" x1="-9954.8105" y1="42.6704" x2="-9928.1123" y2="42.6704" gradientTransform="matrix(-1 0 0 1 -9873.5098 0)">
					<stop  offset="0" style="stop-color:#4A57A6"/>
					<stop  offset="0.0488" style="stop-color:#687BBD"/>
					<stop  offset="0.1273" style="stop-color:#1C3085"/>
					<stop  offset="0.3273" style="stop-color:#767FB5"/>
					<stop  offset="0.5119" style="stop-color:#5771C1"/>
					<stop  offset="0.7333" style="stop-color:#AFC2F0"/>
					<stop  offset="0.7631" style="stop-color:#C2D5FF"/>
					<stop  offset="0.8102" style="stop-color:#819FEF"/>
					<stop  offset="0.8349" style="stop-color:#6A8BE6"/>
					<stop  offset="1" style="stop-color:#A3BCF7"/>
				</linearGradient>
				<path fill="url(#SVGID_64_)" d="M54.603,38.411v5.282c0,1.787,5.976,3.236,13.349,3.236s13.35-1.449,13.35-3.236v-5.282
					c0,1.788-5.977,3.239-13.35,3.239S54.603,40.199,54.603,38.411z"/>
				
					<linearGradient id="SVGID_65_" gradientUnits="userSpaceOnUse" x1="-9955.3379" y1="40.6104" x2="-9927.583" y2="40.6104" gradientTransform="matrix(-1 0 0 1 -9873.5098 0)">
					<stop  offset="0" style="stop-color:#9C9C9C"/>
					<stop  offset="0.0488" style="stop-color:#787878"/>
					<stop  offset="0.1273" style="stop-color:#4C4C4C"/>
					<stop  offset="0.3273" style="stop-color:#B5B5B5"/>
					<stop  offset="0.5119" style="stop-color:#838485"/>
					<stop  offset="0.7333" style="stop-color:#E0E0E0"/>
					<stop  offset="0.7631" style="stop-color:#EBEBEB"/>
					<stop  offset="0.8102" style="stop-color:#FAFAFA"/>
					<stop  offset="0.8349" style="stop-color:#F7F7F7"/>
					<stop  offset="1" style="stop-color:#969696"/>
				</linearGradient>
				<path fill="url(#SVGID_65_)" d="M54.073,36.183v5.49c0,1.859,6.214,3.364,13.878,3.364s13.877-1.505,13.877-3.364v-5.49
					c0,1.859-6.213,3.365-13.877,3.365S54.073,38.042,54.073,36.183z"/>
				
					<linearGradient id="SVGID_66_" gradientUnits="userSpaceOnUse" x1="-9949.0039" y1="43.2344" x2="-9931.6563" y2="27.0199" gradientTransform="matrix(-1 0 0 1 -9873.5098 0)">
					<stop  offset="5.343000e-005" style="stop-color:#696969"/>
					<stop  offset="1" style="stop-color:#525252"/>
				</linearGradient>
				<ellipse fill="url(#SVGID_66_)" cx="67.951" cy="36.184" rx="13.878" ry="3.364"/>
				
					<linearGradient id="SVGID_67_" gradientUnits="userSpaceOnUse" x1="-9955.2666" y1="43.4424" x2="-9927.5117" y2="43.4424" gradientTransform="matrix(-1 0 0 1 -9873.5098 0)">
					<stop  offset="0" style="stop-color:#171717"/>
					<stop  offset="0.0115" style="stop-color:#191919"/>
					<stop  offset="0.1164" style="stop-color:#292929"/>
					<stop  offset="0.2003" style="stop-color:#2E2E2E"/>
					<stop  offset="0.8489" style="stop-color:#6E6E6E"/>
					<stop  offset="0.9002" style="stop-color:#747474"/>
					<stop  offset="0.9684" style="stop-color:#858585"/>
					<stop  offset="1" style="stop-color:#8F8F8F"/>
				</linearGradient>
				<path fill="url(#SVGID_67_)" d="M67.951,45.213c-7.664,0-13.878-1.683-13.878-3.542c0,1.859,6.214,3.222,13.878,3.222
					s13.877-1.363,13.877-3.222C81.828,43.531,75.615,45.213,67.951,45.213z"/>
				
					<linearGradient id="SVGID_68_" gradientUnits="userSpaceOnUse" x1="-9955.2666" y1="37.9541" x2="-9927.5117" y2="37.9541" gradientTransform="matrix(-1 0 0 1 -9873.5098 0)">
					<stop  offset="0" style="stop-color:#E8E8E8"/>
					<stop  offset="0.5148" style="stop-color:#FAFAFA"/>
					<stop  offset="1" style="stop-color:#F5F5F5"/>
				</linearGradient>
				<path fill="url(#SVGID_68_)" d="M67.951,39.725c-7.664,0-13.878-1.683-13.878-3.542c0,1.859,6.214,3.222,13.878,3.222
					s13.877-1.363,13.877-3.222C81.828,38.042,75.615,39.725,67.951,39.725z"/>
			</g>
			<g>
				
					<linearGradient id="SVGID_69_" gradientUnits="userSpaceOnUse" x1="-9954.8105" y1="34.5283" x2="-9928.1123" y2="34.5283" gradientTransform="matrix(-1 0 0 1 -9873.5098 0)">
					<stop  offset="0" style="stop-color:#4A57A6"/>
					<stop  offset="0.0488" style="stop-color:#687BBD"/>
					<stop  offset="0.1273" style="stop-color:#1C3085"/>
					<stop  offset="0.3273" style="stop-color:#767FB5"/>
					<stop  offset="0.5119" style="stop-color:#5771C1"/>
					<stop  offset="0.7333" style="stop-color:#AFC2F0"/>
					<stop  offset="0.7631" style="stop-color:#C2D5FF"/>
					<stop  offset="0.8102" style="stop-color:#819FEF"/>
					<stop  offset="0.8349" style="stop-color:#6A8BE6"/>
					<stop  offset="1" style="stop-color:#A3BCF7"/>
				</linearGradient>
				<path fill="url(#SVGID_69_)" d="M54.603,30.271v5.278c0,1.788,5.976,3.236,13.349,3.236s13.35-1.448,13.35-3.236v-5.278
					c0,1.787-5.977,3.236-13.35,3.236S54.603,32.058,54.603,30.271z"/>
				
					<linearGradient id="SVGID_70_" gradientUnits="userSpaceOnUse" x1="-9955.3379" y1="32.4663" x2="-9927.583" y2="32.4663" gradientTransform="matrix(-1 0 0 1 -9873.5098 0)">
					<stop  offset="0" style="stop-color:#9C9C9C"/>
					<stop  offset="0.0488" style="stop-color:#787878"/>
					<stop  offset="0.1273" style="stop-color:#4C4C4C"/>
					<stop  offset="0.3273" style="stop-color:#B5B5B5"/>
					<stop  offset="0.5119" style="stop-color:#838485"/>
					<stop  offset="0.7333" style="stop-color:#E0E0E0"/>
					<stop  offset="0.7631" style="stop-color:#EBEBEB"/>
					<stop  offset="0.8102" style="stop-color:#FAFAFA"/>
					<stop  offset="0.8349" style="stop-color:#F7F7F7"/>
					<stop  offset="1" style="stop-color:#969696"/>
				</linearGradient>
				<path fill="url(#SVGID_70_)" d="M54.073,28.04v5.489c0,1.859,6.214,3.364,13.878,3.364s13.877-1.505,13.877-3.364V28.04
					c0,1.859-6.213,3.364-13.877,3.364S54.073,29.899,54.073,28.04z"/>
				
					<linearGradient id="SVGID_71_" gradientUnits="userSpaceOnUse" x1="-9945.9609" y1="20.8896" x2="-9937.1807" y2="34.8385" gradientTransform="matrix(-1 0 0 1 -9873.5098 0)">
					<stop  offset="0" style="stop-color:#D1D1D1"/>
					<stop  offset="0.9968" style="stop-color:#ABABAB"/>
				</linearGradient>
				<ellipse fill="url(#SVGID_71_)" cx="67.951" cy="28.04" rx="13.878" ry="3.364"/>
				
					<linearGradient id="SVGID_72_" gradientUnits="userSpaceOnUse" x1="-9955.2676" y1="35.2988" x2="-9927.5127" y2="35.2988" gradientTransform="matrix(-1 0 0 1 -9873.5098 0)">
					<stop  offset="0" style="stop-color:#171717"/>
					<stop  offset="0.0115" style="stop-color:#191919"/>
					<stop  offset="0.1164" style="stop-color:#292929"/>
					<stop  offset="0.2003" style="stop-color:#2E2E2E"/>
					<stop  offset="0.8489" style="stop-color:#6E6E6E"/>
					<stop  offset="0.9002" style="stop-color:#747474"/>
					<stop  offset="0.9684" style="stop-color:#858585"/>
					<stop  offset="1" style="stop-color:#8F8F8F"/>
				</linearGradient>
				<path fill="url(#SVGID_72_)" d="M67.951,37.07c-7.664,0-13.878-1.683-13.878-3.542c0,1.859,6.214,3.222,13.878,3.222
					s13.877-1.363,13.877-3.222C81.828,35.387,75.615,37.07,67.951,37.07z"/>
				
					<linearGradient id="SVGID_73_" gradientUnits="userSpaceOnUse" x1="-9955.2676" y1="29.8105" x2="-9927.5127" y2="29.8105" gradientTransform="matrix(-1 0 0 1 -9873.5098 0)">
					<stop  offset="0" style="stop-color:#E8E8E8"/>
					<stop  offset="0.5148" style="stop-color:#FAFAFA"/>
					<stop  offset="1" style="stop-color:#F5F5F5"/>
				</linearGradient>
				<path fill="url(#SVGID_73_)" d="M67.951,31.581c-7.664,0-13.878-1.682-13.878-3.542c0,1.859,6.214,3.225,13.878,3.225
					s13.877-1.366,13.877-3.225C81.828,29.899,75.615,31.581,67.951,31.581z"/>
			</g>
		</g>
	</g>
</g>
</svg>
