<?xml version="1.0" encoding="utf-8"?>
<!-- Generator: Adobe Illustrator 16.0.0, SVG Export Plug-In . SVG Version: 6.00 Build 0)  -->
<!DOCTYPE svg PUBLIC "-//W3C//DTD SVG 1.1//EN" "http://www.w3.org/Graphics/SVG/1.1/DTD/svg11.dtd">
<svg version="1.1" xmlns="http://www.w3.org/2000/svg" xmlns:xlink="http://www.w3.org/1999/xlink" x="0px" y="0px" width="135px"
	 height="177px" viewBox="0 0 135 177" enable-background="new 0 0 135 177" xml:space="preserve">
<g id="KMgrCpu">
	<g>
		<g>
			<g opacity="0.8">
				<path fill="#1A1A1A" d="M38.433,55.5c-0.711,0-1.289-0.564-1.289-1.258V7.211c0-0.354,0.156-0.619,0.288-0.779
					c0.02-0.024,0.037-0.049,0.051-0.076c1.445-1.838,4.179-4.816,4.699-5.313c0.42-0.4,0.844-0.542,2.388-0.542h13.596
					c1.138,0,2.357,0.062,2.774,0.518l4.911,5.371c0.01,0.015,0.021,0.03,0.032,0.044c0.131,0.159,0.288,0.423,0.288,0.778v47.031
					c0,0.693-0.578,1.258-1.289,1.258H38.433z"/>
				<path fill="#1A1A1A" d="M58.165,1c1.38,0,2.19,0.12,2.406,0.355l1.122,1.228l3.706,4.053l0.01-0.009
					c0.009,0.015,0.019,0.03,0.029,0.045l-0.003,0.003l0.023,0.025c0.012,0.017,0.025,0.034,0.038,0.05
					c0.079,0.096,0.173,0.254,0.173,0.46v47.031c0,0.418-0.354,0.758-0.789,0.758H38.433c-0.435,0-0.789-0.34-0.789-0.758V7.211
					c0-0.207,0.095-0.365,0.174-0.462c0.029-0.035,0.055-0.072,0.078-0.11c1.437-1.823,4.119-4.746,4.631-5.234
					C42.79,1.154,43.03,1,44.569,1H58.165 M58.165,0c-1.457,0-12.037,0-13.596,0s-2.164,0.139-2.732,0.681s-3.38,3.614-4.801,5.434
					h0.008c-0.247,0.301-0.401,0.68-0.401,1.096v47.031c0,0.971,0.801,1.758,1.789,1.758h26.448c0.988,0,1.789-0.787,1.789-1.758
					V7.211c0-0.417-0.153-0.795-0.401-1.096h0.009c0,0-0.043-0.047-0.104-0.113c-0.013-0.013-0.024-0.027-0.037-0.041
					c-0.739-0.808-4.353-4.761-4.828-5.28C60.778,0.101,59.623,0,58.165,0L58.165,0z"/>
			</g>
			<linearGradient id="SVGID_11_" gradientUnits="userSpaceOnUse" x1="51.0132" y1="-0.1489" x2="51.0132" y2="7.2853">
				<stop  offset="0.0018" style="stop-color:#5E5E5E"/>
				<stop  offset="0.9227" style="stop-color:#5B5B5B"/>
				<stop  offset="0.9999" style="stop-color:#030303"/>
			</linearGradient>
			<path fill="url(#SVGID_11_)" d="M36.393,6.224c1.421-1.853,4.232-4.98,4.801-5.531S42.367,0,43.926,0s12.139,0,13.596,0
				c1.458,0,2.613,0.103,3.144,0.693c0.529,0.589,4.969,5.531,4.969,5.531H36.393z"/>
			<linearGradient id="SVGID_12_" gradientUnits="userSpaceOnUse" x1="50.9897" y1="-3.8755" x2="50.9897" y2="9.0177">
				<stop  offset="0.0032" style="stop-color:#808080"/>
				<stop  offset="1" style="stop-color:#DEDEDE"/>
				<stop  offset="1" style="stop-color:#666666"/>
				<stop  offset="1" style="stop-color:#B0B0B0"/>
			</linearGradient>
			<path fill="url(#SVGID_12_)" d="M36.896,5.979c1.499-1.888,3.975-4.63,4.469-5.109c0.504-0.49,1.055-0.624,2.562-0.624h13.596
				c1.447,0,2.505,0.104,2.961,0.612l4.602,5.122H36.896z"/>
			<linearGradient id="SVGID_13_" gradientUnits="userSpaceOnUse" x1="51.0132" y1="4.0615" x2="51.0132" y2="58.0961">
				<stop  offset="0.0018" style="stop-color:#5E5E5E"/>
				<stop  offset="0.9227" style="stop-color:#5B5B5B"/>
				<stop  offset="0.9999" style="stop-color:#030303"/>
			</linearGradient>
			<path fill="url(#SVGID_13_)" d="M66.026,55.211c0,0.988-0.801,1.789-1.789,1.789H37.789C36.801,57,36,56.199,36,55.211V7.34
				c0-0.988,0.801-1.789,1.789-1.789h26.448c0.988,0,1.789,0.801,1.789,1.789V55.211z"/>
			<linearGradient id="SVGID_14_" gradientUnits="userSpaceOnUse" x1="50.9292" y1="4.6792" x2="50.9292" y2="57.1429">
				<stop  offset="0.0032" style="stop-color:#808080"/>
				<stop  offset="0.0864" style="stop-color:#DEDEDE"/>
				<stop  offset="0.887" style="stop-color:#B0B0B0"/>
				<stop  offset="0.9966" style="stop-color:#666666"/>
				<stop  offset="1" style="stop-color:#B0B0B0"/>
			</linearGradient>
			<path fill="url(#SVGID_14_)" d="M65.521,55.103c0,0.769-0.624,1.391-1.392,1.391H37.729c-0.769,0-1.392-0.623-1.392-1.391V7.28
				c0-0.768,0.623-1.391,1.392-1.391h26.399c0.768,0,1.392,0.623,1.392,1.391V55.103z"/>
			<g>
				<linearGradient id="SVGID_15_" gradientUnits="userSpaceOnUse" x1="36.52" y1="27.9863" x2="66.1689" y2="27.9863">
					<stop  offset="0.0032" style="stop-color:#808080"/>
					<stop  offset="0.0864" style="stop-color:#E8E8E8"/>
					<stop  offset="0.2816" style="stop-color:#E2E2E2"/>
					<stop  offset="0.5352" style="stop-color:#D2D2D2"/>
					<stop  offset="0.8199" style="stop-color:#B7B7B7"/>
					<stop  offset="0.887" style="stop-color:#B0B0B0"/>
					<stop  offset="0.9966" style="stop-color:#666666"/>
					<stop  offset="1" style="stop-color:#B0B0B0"/>
				</linearGradient>
				<path fill="url(#SVGID_15_)" d="M65.183,7.414c0-0.547-0.279-1.02-0.826-1.02h-26.44c-0.546,0-0.903,0.473-0.903,1.02v42.164
					h28.17V7.414z"/>
				<linearGradient id="SVGID_16_" gradientUnits="userSpaceOnUse" x1="36.2246" y1="52.5298" x2="66.365" y2="52.5298">
					<stop  offset="0.0032" style="stop-color:#343434"/>
					<stop  offset="0.0915" style="stop-color:#929292"/>
					<stop  offset="0.887" style="stop-color:#646464"/>
					<stop  offset="0.9966" style="stop-color:#1A1A1A"/>
					<stop  offset="1" style="stop-color:#646464"/>
				</linearGradient>
				<path fill="url(#SVGID_16_)" d="M37.916,55.988h26.44c0.547,0,0.826-0.515,0.826-1.062v-5.854h-28.17v5.854
					C37.013,55.473,37.37,55.988,37.916,55.988z"/>
				<linearGradient id="SVGID_17_" gradientUnits="userSpaceOnUse" x1="36.2246" y1="52.8672" x2="66.365" y2="52.8672">
					<stop  offset="0.0032" style="stop-color:#575757"/>
					<stop  offset="0.0915" style="stop-color:#BFBFBF"/>
					<stop  offset="0.2894" style="stop-color:#BABABA"/>
					<stop  offset="0.5239" style="stop-color:#ACACAC"/>
					<stop  offset="0.7759" style="stop-color:#949494"/>
					<stop  offset="0.887" style="stop-color:#878787"/>
					<stop  offset="0.9966" style="stop-color:#3D3D3D"/>
					<stop  offset="1" style="stop-color:#878787"/>
				</linearGradient>
				<path fill="url(#SVGID_17_)" d="M37.916,56.156h26.44c0.547,0,0.826-0.286,0.826-0.832v-5.747h-28.17v5.747
					C37.013,55.871,37.37,56.156,37.916,56.156z"/>
			</g>
			<g>
				<linearGradient id="SVGID_18_" gradientUnits="userSpaceOnUse" x1="66.6108" y1="21.8291" x2="35.7442" y2="21.8291">
					<stop  offset="0.0016" style="stop-color:#4D4D4D"/>
					<stop  offset="0.1149" style="stop-color:#9D9D9D"/>
					<stop  offset="0.8871" style="stop-color:#B0B0B0"/>
					<stop  offset="0.9956" style="stop-color:#666666"/>
				</linearGradient>
				<rect x="37.013" y="20.396" fill="url(#SVGID_18_)" width="28.17" height="2.867"/>
				<linearGradient id="SVGID_19_" gradientUnits="userSpaceOnUse" x1="35.5024" y1="21.8291" x2="66.0268" y2="21.8291">
					<stop  offset="0" style="stop-color:#333333"/>
					<stop  offset="0.1205" style="stop-color:#FCFCFC"/>
					<stop  offset="0.8516" style="stop-color:#FFFFFF"/>
					<stop  offset="0.8724" style="stop-color:#00478B"/>
				</linearGradient>
				<rect x="37.013" y="20.564" fill="url(#SVGID_19_)" width="28.17" height="2.53"/>
			</g>
			<g>
				<linearGradient id="SVGID_20_" gradientUnits="userSpaceOnUse" x1="66.6108" y1="17.7808" x2="35.7442" y2="17.7808">
					<stop  offset="0.0016" style="stop-color:#4D4D4D"/>
					<stop  offset="0.1149" style="stop-color:#9D9D9D"/>
					<stop  offset="0.8871" style="stop-color:#B0B0B0"/>
					<stop  offset="0.9956" style="stop-color:#666666"/>
				</linearGradient>
				<rect x="37.013" y="16.347" fill="url(#SVGID_20_)" width="28.17" height="2.868"/>
				<linearGradient id="SVGID_21_" gradientUnits="userSpaceOnUse" x1="35.5024" y1="17.7803" x2="66.0268" y2="17.7803">
					<stop  offset="0" style="stop-color:#333333"/>
					<stop  offset="0.1205" style="stop-color:#FCFCFC"/>
					<stop  offset="0.8516" style="stop-color:#FFFFFF"/>
					<stop  offset="0.8724" style="stop-color:#00478B"/>
				</linearGradient>
				<rect x="37.013" y="16.515" fill="url(#SVGID_21_)" width="28.17" height="2.531"/>
			</g>
			<g>
				<linearGradient id="SVGID_22_" gradientUnits="userSpaceOnUse" x1="66.6108" y1="13.9009" x2="35.7442" y2="13.9009">
					<stop  offset="0.0016" style="stop-color:#4D4D4D"/>
					<stop  offset="0.1149" style="stop-color:#9D9D9D"/>
					<stop  offset="0.8871" style="stop-color:#B0B0B0"/>
					<stop  offset="0.9956" style="stop-color:#666666"/>
				</linearGradient>
				<rect x="37.013" y="12.467" fill="url(#SVGID_22_)" width="28.17" height="2.868"/>
				<linearGradient id="SVGID_23_" gradientUnits="userSpaceOnUse" x1="35.5024" y1="13.8789" x2="66.0268" y2="13.8789">
					<stop  offset="0" style="stop-color:#333333"/>
					<stop  offset="0.1205" style="stop-color:#FCFCFC"/>
					<stop  offset="0.8516" style="stop-color:#FFFFFF"/>
					<stop  offset="0.8724" style="stop-color:#00478B"/>
				</linearGradient>
				<rect x="37.013" y="12.636" fill="url(#SVGID_23_)" width="28.17" height="2.485"/>
			</g>
			<g>
				<linearGradient id="SVGID_24_" gradientUnits="userSpaceOnUse" x1="51.0981" y1="45.3506" x2="51.0981" y2="45.7055">
					<stop  offset="0.0018" style="stop-color:#5E5E5E"/>
					<stop  offset="0.9227" style="stop-color:#5B5B5B"/>
					<stop  offset="0.9999" style="stop-color:#030303"/>
				</linearGradient>
				<rect x="41.062" y="45.36" fill="url(#SVGID_24_)" width="20.073" height="0.338"/>
				<linearGradient id="SVGID_25_" gradientUnits="userSpaceOnUse" x1="51.0981" y1="43.6641" x2="51.0981" y2="44.0184">
					<stop  offset="0.0018" style="stop-color:#5E5E5E"/>
					<stop  offset="0.9227" style="stop-color:#5B5B5B"/>
					<stop  offset="0.9999" style="stop-color:#030303"/>
				</linearGradient>
				<rect x="41.062" y="43.674" fill="url(#SVGID_25_)" width="20.073" height="0.337"/>
				<linearGradient id="SVGID_26_" gradientUnits="userSpaceOnUse" x1="51.0981" y1="41.9771" x2="51.0981" y2="42.3314">
					<stop  offset="0.0018" style="stop-color:#5E5E5E"/>
					<stop  offset="0.9227" style="stop-color:#5B5B5B"/>
					<stop  offset="0.9999" style="stop-color:#030303"/>
				</linearGradient>
				<rect x="41.062" y="41.987" fill="url(#SVGID_26_)" width="20.073" height="0.337"/>
				<linearGradient id="SVGID_27_" gradientUnits="userSpaceOnUse" x1="51.0981" y1="40.29" x2="51.0981" y2="40.645">
					<stop  offset="0.0018" style="stop-color:#5E5E5E"/>
					<stop  offset="0.9227" style="stop-color:#5B5B5B"/>
					<stop  offset="0.9999" style="stop-color:#030303"/>
				</linearGradient>
				<rect x="41.062" y="40.3" fill="url(#SVGID_27_)" width="20.073" height="0.338"/>
				<linearGradient id="SVGID_28_" gradientUnits="userSpaceOnUse" x1="51.0981" y1="38.6035" x2="51.0981" y2="38.9574">
					<stop  offset="0.0018" style="stop-color:#5E5E5E"/>
					<stop  offset="0.9227" style="stop-color:#5B5B5B"/>
					<stop  offset="0.9999" style="stop-color:#030303"/>
				</linearGradient>
				<rect x="41.062" y="38.613" fill="url(#SVGID_28_)" width="20.073" height="0.337"/>
				<linearGradient id="SVGID_29_" gradientUnits="userSpaceOnUse" x1="51.0981" y1="36.9165" x2="51.0981" y2="37.2707">
					<stop  offset="0.0018" style="stop-color:#5E5E5E"/>
					<stop  offset="0.9227" style="stop-color:#5B5B5B"/>
					<stop  offset="0.9999" style="stop-color:#030303"/>
				</linearGradient>
				<rect x="41.062" y="36.926" fill="url(#SVGID_29_)" width="20.073" height="0.337"/>
			</g>
			<g>
				<g>
					<linearGradient id="SVGID_30_" gradientUnits="userSpaceOnUse" x1="60.2495" y1="28.1411" x2="60.2495" y2="29.6166">
						<stop  offset="0.0018" style="stop-color:#5E5E5E"/>
						<stop  offset="0.9227" style="stop-color:#5B5B5B"/>
						<stop  offset="0.9999" style="stop-color:#030303"/>
					</linearGradient>
					<circle fill="url(#SVGID_30_)" cx="60.25" cy="28.884" r="0.703"/>
					<circle fill="#5CA2D8" cx="60.25" cy="28.884" r="0.439"/>
				</g>
				<g>
					<linearGradient id="SVGID_31_" gradientUnits="userSpaceOnUse" x1="58.2612" y1="28.1411" x2="58.2612" y2="29.6166">
						<stop  offset="0.0018" style="stop-color:#5E5E5E"/>
						<stop  offset="0.9227" style="stop-color:#5B5B5B"/>
						<stop  offset="0.9999" style="stop-color:#030303"/>
					</linearGradient>
					<circle fill="url(#SVGID_31_)" cx="58.261" cy="28.884" r="0.703"/>
					<circle fill="#5CA2D8" cx="58.262" cy="28.884" r="0.439"/>
				</g>
				<g>
					<linearGradient id="SVGID_32_" gradientUnits="userSpaceOnUse" x1="56.2729" y1="28.1411" x2="56.2729" y2="29.6166">
						<stop  offset="0.0018" style="stop-color:#5E5E5E"/>
						<stop  offset="0.9227" style="stop-color:#5B5B5B"/>
						<stop  offset="0.9999" style="stop-color:#030303"/>
					</linearGradient>
					<circle fill="url(#SVGID_32_)" cx="56.273" cy="28.884" r="0.703"/>
					<circle fill="#5CA2D8" cx="56.273" cy="28.884" r="0.439"/>
				</g>
			</g>
		</g>
		<g>
			<g opacity="0.8">
				<path fill="#1A1A1A" d="M72.279,55.5c-0.711,0-1.289-0.564-1.289-1.258V7.211c0-0.354,0.156-0.62,0.287-0.779
					c0.02-0.023,0.036-0.048,0.051-0.074c1.44-1.834,4.178-4.817,4.7-5.315c0.421-0.4,0.845-0.542,2.388-0.542h13.596
					c1.138,0,2.357,0.062,2.773,0.518l4.914,5.375c0.01,0.014,0.02,0.027,0.03,0.04c0.188,0.228,0.286,0.497,0.286,0.778v47.031
					c0,0.693-0.578,1.258-1.289,1.258H72.279z"/>
				<path fill="#1A1A1A" d="M92.012,1c1.38,0,2.189,0.119,2.404,0.355l2.854,3.123l1.974,2.158c0.015,0.016,0.021,0.025,0.036,0.04
					l0.028,0.031c0.012,0.015,0.022,0.03,0.034,0.044c0.079,0.095,0.173,0.253,0.173,0.46v47.031c0,0.418-0.354,0.758-0.789,0.758
					H72.279c-0.436,0-0.789-0.34-0.789-0.758V7.211c0-0.207,0.095-0.365,0.174-0.462c0.028-0.035,0.054-0.07,0.076-0.107
					c1.434-1.82,4.119-4.747,4.633-5.237C76.637,1.154,76.876,1,78.416,1H92.012 M92.012,0c-1.457,0-12.037,0-13.596,0
					s-2.164,0.139-2.732,0.681s-3.381,3.614-4.801,5.434h0.008c-0.247,0.301-0.4,0.68-0.4,1.096v47.031
					c0,0.971,0.801,1.758,1.789,1.758h26.447c0.988,0,1.789-0.787,1.789-1.758V7.211c0-0.417-0.152-0.795-0.4-1.096h0.008
					c0,0-0.043-0.047-0.104-0.113c-0.012-0.013-0.023-0.027-0.037-0.041c-0.738-0.808-4.354-4.761-4.828-5.28
					C94.625,0.101,93.469,0,92.012,0L92.012,0z"/>
			</g>
			<linearGradient id="SVGID_33_" gradientUnits="userSpaceOnUse" x1="84.8887" y1="-0.1489" x2="84.8887" y2="7.2853">
				<stop  offset="0.0018" style="stop-color:#5E5E5E"/>
				<stop  offset="0.9227" style="stop-color:#5B5B5B"/>
				<stop  offset="0.9999" style="stop-color:#030303"/>
			</linearGradient>
			<path fill="url(#SVGID_33_)" d="M70.268,6.224c1.421-1.853,4.232-4.98,4.801-5.531S76.242,0,77.801,0s12.139,0,13.596,0
				c1.458,0,2.613,0.103,3.144,0.693c0.529,0.589,4.969,5.531,4.969,5.531H70.268z"/>
			<linearGradient id="SVGID_34_" gradientUnits="userSpaceOnUse" x1="84.8652" y1="-3.8755" x2="84.8652" y2="9.0177">
				<stop  offset="0.0032" style="stop-color:#808080"/>
				<stop  offset="1" style="stop-color:#DEDEDE"/>
				<stop  offset="1" style="stop-color:#666666"/>
				<stop  offset="1" style="stop-color:#B0B0B0"/>
			</linearGradient>
			<path fill="url(#SVGID_34_)" d="M70.771,5.979c1.499-1.888,3.975-4.63,4.469-5.109c0.504-0.49,1.055-0.624,2.562-0.624h13.596
				c1.447,0,2.505,0.104,2.961,0.612l4.602,5.122H70.771z"/>
			<linearGradient id="SVGID_35_" gradientUnits="userSpaceOnUse" x1="84.8887" y1="4.0615" x2="84.8887" y2="58.0961">
				<stop  offset="0.0018" style="stop-color:#5E5E5E"/>
				<stop  offset="0.9227" style="stop-color:#5B5B5B"/>
				<stop  offset="0.9999" style="stop-color:#030303"/>
			</linearGradient>
			<path fill="url(#SVGID_35_)" d="M99.901,55.211c0,0.988-0.801,1.789-1.789,1.789H71.664c-0.988,0-1.789-0.801-1.789-1.789V7.34
				c0-0.988,0.801-1.789,1.789-1.789h26.448c0.988,0,1.789,0.801,1.789,1.789V55.211z"/>
			<linearGradient id="SVGID_36_" gradientUnits="userSpaceOnUse" x1="84.8047" y1="4.6792" x2="84.8047" y2="57.1429">
				<stop  offset="0.0032" style="stop-color:#808080"/>
				<stop  offset="0.0864" style="stop-color:#DEDEDE"/>
				<stop  offset="0.887" style="stop-color:#B0B0B0"/>
				<stop  offset="0.9966" style="stop-color:#666666"/>
				<stop  offset="1" style="stop-color:#B0B0B0"/>
			</linearGradient>
			<path fill="url(#SVGID_36_)" d="M99.396,55.103c0,0.769-0.624,1.391-1.392,1.391H71.604c-0.769,0-1.392-0.623-1.392-1.391V7.28
				c0-0.768,0.623-1.391,1.392-1.391h26.399c0.768,0,1.392,0.623,1.392,1.391V55.103z"/>
			<g>
				<linearGradient id="SVGID_37_" gradientUnits="userSpaceOnUse" x1="70.3955" y1="27.9863" x2="100.0443" y2="27.9863">
					<stop  offset="0.0032" style="stop-color:#808080"/>
					<stop  offset="0.0864" style="stop-color:#E8E8E8"/>
					<stop  offset="0.2816" style="stop-color:#E2E2E2"/>
					<stop  offset="0.5352" style="stop-color:#D2D2D2"/>
					<stop  offset="0.8199" style="stop-color:#B7B7B7"/>
					<stop  offset="0.887" style="stop-color:#B0B0B0"/>
					<stop  offset="0.9966" style="stop-color:#666666"/>
					<stop  offset="1" style="stop-color:#B0B0B0"/>
				</linearGradient>
				<path fill="url(#SVGID_37_)" d="M99.058,7.414c0-0.547-0.279-1.02-0.826-1.02h-26.44c-0.546,0-0.903,0.473-0.903,1.02v42.164
					h28.17V7.414z"/>
				<linearGradient id="SVGID_38_" gradientUnits="userSpaceOnUse" x1="70.0996" y1="52.5298" x2="100.24" y2="52.5298">
					<stop  offset="0.0032" style="stop-color:#343434"/>
					<stop  offset="0.0915" style="stop-color:#929292"/>
					<stop  offset="0.887" style="stop-color:#646464"/>
					<stop  offset="0.9966" style="stop-color:#1A1A1A"/>
					<stop  offset="1" style="stop-color:#646464"/>
				</linearGradient>
				<path fill="url(#SVGID_38_)" d="M71.791,55.988h26.44c0.547,0,0.826-0.515,0.826-1.062v-5.854h-28.17v5.854
					C70.888,55.473,71.245,55.988,71.791,55.988z"/>
				<linearGradient id="SVGID_39_" gradientUnits="userSpaceOnUse" x1="70.0996" y1="52.8672" x2="100.24" y2="52.8672">
					<stop  offset="0.0032" style="stop-color:#575757"/>
					<stop  offset="0.0915" style="stop-color:#BFBFBF"/>
					<stop  offset="0.2894" style="stop-color:#BABABA"/>
					<stop  offset="0.5239" style="stop-color:#ACACAC"/>
					<stop  offset="0.7759" style="stop-color:#949494"/>
					<stop  offset="0.887" style="stop-color:#878787"/>
					<stop  offset="0.9966" style="stop-color:#3D3D3D"/>
					<stop  offset="1" style="stop-color:#878787"/>
				</linearGradient>
				<path fill="url(#SVGID_39_)" d="M71.791,56.156h26.44c0.547,0,0.826-0.286,0.826-0.832v-5.747h-28.17v5.747
					C70.888,55.871,71.245,56.156,71.791,56.156z"/>
			</g>
			<g>
				<linearGradient id="SVGID_40_" gradientUnits="userSpaceOnUse" x1="100.4863" y1="21.8291" x2="69.6197" y2="21.8291">
					<stop  offset="0.0016" style="stop-color:#4D4D4D"/>
					<stop  offset="0.1149" style="stop-color:#9D9D9D"/>
					<stop  offset="0.8871" style="stop-color:#B0B0B0"/>
					<stop  offset="0.9956" style="stop-color:#666666"/>
				</linearGradient>
				<rect x="70.888" y="20.396" fill="url(#SVGID_40_)" width="28.17" height="2.867"/>
				<linearGradient id="SVGID_41_" gradientUnits="userSpaceOnUse" x1="69.377" y1="21.8291" x2="99.9013" y2="21.8291">
					<stop  offset="0" style="stop-color:#333333"/>
					<stop  offset="0.1205" style="stop-color:#FCFCFC"/>
					<stop  offset="0.8516" style="stop-color:#FFFFFF"/>
					<stop  offset="0.8724" style="stop-color:#00478B"/>
				</linearGradient>
				<rect x="70.888" y="20.564" fill="url(#SVGID_41_)" width="28.17" height="2.53"/>
			</g>
			<g>
				<linearGradient id="SVGID_42_" gradientUnits="userSpaceOnUse" x1="100.4863" y1="17.7808" x2="69.6197" y2="17.7808">
					<stop  offset="0.0016" style="stop-color:#4D4D4D"/>
					<stop  offset="0.1149" style="stop-color:#9D9D9D"/>
					<stop  offset="0.8871" style="stop-color:#B0B0B0"/>
					<stop  offset="0.9956" style="stop-color:#666666"/>
				</linearGradient>
				<rect x="70.888" y="16.347" fill="url(#SVGID_42_)" width="28.17" height="2.868"/>
				<linearGradient id="SVGID_43_" gradientUnits="userSpaceOnUse" x1="69.377" y1="17.7803" x2="99.9013" y2="17.7803">
					<stop  offset="0" style="stop-color:#333333"/>
					<stop  offset="0.1205" style="stop-color:#FCFCFC"/>
					<stop  offset="0.8516" style="stop-color:#FFFFFF"/>
					<stop  offset="0.8724" style="stop-color:#00478B"/>
				</linearGradient>
				<rect x="70.888" y="16.515" fill="url(#SVGID_43_)" width="28.17" height="2.531"/>
			</g>
			<g>
				<linearGradient id="SVGID_44_" gradientUnits="userSpaceOnUse" x1="100.4863" y1="13.9009" x2="69.6197" y2="13.9009">
					<stop  offset="0.0016" style="stop-color:#4D4D4D"/>
					<stop  offset="0.1149" style="stop-color:#9D9D9D"/>
					<stop  offset="0.8871" style="stop-color:#B0B0B0"/>
					<stop  offset="0.9956" style="stop-color:#666666"/>
				</linearGradient>
				<rect x="70.888" y="12.467" fill="url(#SVGID_44_)" width="28.17" height="2.868"/>
				<linearGradient id="SVGID_45_" gradientUnits="userSpaceOnUse" x1="69.377" y1="13.8789" x2="99.9013" y2="13.8789">
					<stop  offset="0" style="stop-color:#333333"/>
					<stop  offset="0.1205" style="stop-color:#FCFCFC"/>
					<stop  offset="0.8516" style="stop-color:#FFFFFF"/>
					<stop  offset="0.8724" style="stop-color:#00478B"/>
				</linearGradient>
				<rect x="70.888" y="12.636" fill="url(#SVGID_45_)" width="28.17" height="2.485"/>
			</g>
			<g>
				<linearGradient id="SVGID_46_" gradientUnits="userSpaceOnUse" x1="84.9727" y1="45.3506" x2="84.9727" y2="45.7055">
					<stop  offset="0.0018" style="stop-color:#5E5E5E"/>
					<stop  offset="0.9227" style="stop-color:#5B5B5B"/>
					<stop  offset="0.9999" style="stop-color:#030303"/>
				</linearGradient>
				<rect x="74.937" y="45.36" fill="url(#SVGID_46_)" width="20.073" height="0.338"/>
				<linearGradient id="SVGID_47_" gradientUnits="userSpaceOnUse" x1="84.9727" y1="43.6641" x2="84.9727" y2="44.0184">
					<stop  offset="0.0018" style="stop-color:#5E5E5E"/>
					<stop  offset="0.9227" style="stop-color:#5B5B5B"/>
					<stop  offset="0.9999" style="stop-color:#030303"/>
				</linearGradient>
				<rect x="74.937" y="43.674" fill="url(#SVGID_47_)" width="20.073" height="0.337"/>
				<linearGradient id="SVGID_48_" gradientUnits="userSpaceOnUse" x1="84.9727" y1="41.9771" x2="84.9727" y2="42.3314">
					<stop  offset="0.0018" style="stop-color:#5E5E5E"/>
					<stop  offset="0.9227" style="stop-color:#5B5B5B"/>
					<stop  offset="0.9999" style="stop-color:#030303"/>
				</linearGradient>
				<rect x="74.937" y="41.987" fill="url(#SVGID_48_)" width="20.073" height="0.337"/>
				<linearGradient id="SVGID_49_" gradientUnits="userSpaceOnUse" x1="84.9727" y1="40.29" x2="84.9727" y2="40.645">
					<stop  offset="0.0018" style="stop-color:#5E5E5E"/>
					<stop  offset="0.9227" style="stop-color:#5B5B5B"/>
					<stop  offset="0.9999" style="stop-color:#030303"/>
				</linearGradient>
				<rect x="74.937" y="40.3" fill="url(#SVGID_49_)" width="20.073" height="0.338"/>
				<linearGradient id="SVGID_50_" gradientUnits="userSpaceOnUse" x1="84.9727" y1="38.6035" x2="84.9727" y2="38.9574">
					<stop  offset="0.0018" style="stop-color:#5E5E5E"/>
					<stop  offset="0.9227" style="stop-color:#5B5B5B"/>
					<stop  offset="0.9999" style="stop-color:#030303"/>
				</linearGradient>
				<rect x="74.937" y="38.613" fill="url(#SVGID_50_)" width="20.073" height="0.337"/>
				<linearGradient id="SVGID_51_" gradientUnits="userSpaceOnUse" x1="84.9727" y1="36.9165" x2="84.9727" y2="37.2707">
					<stop  offset="0.0018" style="stop-color:#5E5E5E"/>
					<stop  offset="0.9227" style="stop-color:#5B5B5B"/>
					<stop  offset="0.9999" style="stop-color:#030303"/>
				</linearGradient>
				<rect x="74.937" y="36.926" fill="url(#SVGID_51_)" width="20.073" height="0.337"/>
			</g>
			<g>
				<g>
					<linearGradient id="SVGID_52_" gradientUnits="userSpaceOnUse" x1="94.125" y1="28.1411" x2="94.125" y2="29.6166">
						<stop  offset="0.0018" style="stop-color:#5E5E5E"/>
						<stop  offset="0.9227" style="stop-color:#5B5B5B"/>
						<stop  offset="0.9999" style="stop-color:#030303"/>
					</linearGradient>
					<circle fill="url(#SVGID_52_)" cx="94.125" cy="28.884" r="0.703"/>
					<circle fill="#5CA2D8" cx="94.125" cy="28.884" r="0.439"/>
				</g>
				<g>
					<linearGradient id="SVGID_53_" gradientUnits="userSpaceOnUse" x1="92.1367" y1="28.1411" x2="92.1367" y2="29.6166">
						<stop  offset="0.0018" style="stop-color:#5E5E5E"/>
						<stop  offset="0.9227" style="stop-color:#5B5B5B"/>
						<stop  offset="0.9999" style="stop-color:#030303"/>
					</linearGradient>
					<circle fill="url(#SVGID_53_)" cx="92.136" cy="28.884" r="0.703"/>
					<circle fill="#5CA2D8" cx="92.137" cy="28.884" r="0.439"/>
				</g>
				<g>
					<linearGradient id="SVGID_54_" gradientUnits="userSpaceOnUse" x1="90.1484" y1="28.1411" x2="90.1484" y2="29.6166">
						<stop  offset="0.0018" style="stop-color:#5E5E5E"/>
						<stop  offset="0.9227" style="stop-color:#5B5B5B"/>
						<stop  offset="0.9999" style="stop-color:#030303"/>
					</linearGradient>
					<circle fill="url(#SVGID_54_)" cx="90.148" cy="28.884" r="0.703"/>
					<circle fill="#5CA2D8" cx="90.148" cy="28.884" r="0.439"/>
				</g>
			</g>
		</g>
	</g>
</g>
<g id="KMgrTool_1_">
	<path id="Shadow" opacity="0.8" fill="#1A1A1A" d="M76.839,63.75H59.69v-3.812l2.677-4.014H50.662c-2.571,0-4.662-2.09-4.662-4.66
		V26.911c0-2.57,2.091-4.661,4.662-4.661H85.87c2.571,0,4.663,2.091,4.663,4.661v24.353c0,2.57-2.092,4.66-4.663,4.66H74.164
		l2.675,4.014V63.75z M61.19,62.25h14.148v-1.858l-3.978-5.968H85.87c1.744,0,3.163-1.417,3.163-3.16V26.911
		c0-1.743-1.419-3.161-3.163-3.161H50.662c-1.744,0-3.162,1.418-3.162,3.161v24.353c0,1.743,1.418,3.16,3.162,3.16H65.17
		l-3.979,5.968V62.25z"/>
	<g>
		<path stroke="#4A4A4A" stroke-miterlimit="10" d="M85.423,22.593H50.215c-2.155,0-3.912,1.764-3.912,3.911v0.876v22.602v0.875
			c0,2.151,1.757,3.91,3.912,3.91h13.106l-3.328,4.991v0.876v1.083v0.876h15.648v-0.876v-1.083v-0.876l-3.326-4.991h13.107
			c2.151,0,3.913-1.759,3.913-3.91v-0.875V27.38v-0.876C89.336,24.357,87.574,22.593,85.423,22.593z"/>
	</g>
	<linearGradient id="SVGID_55_" gradientUnits="userSpaceOnUse" x1="67.8188" y1="47.978" x2="67.8188" y2="27.3804">
		<stop  offset="0" style="stop-color:#969696"/>
		<stop  offset="0.1394" style="stop-color:#919191"/>
		<stop  offset="0.3218" style="stop-color:#808080"/>
		<stop  offset="0.528" style="stop-color:#656565"/>
		<stop  offset="0.7519" style="stop-color:#3F3F3F"/>
		<stop  offset="0.9876" style="stop-color:#0F0F0F"/>
		<stop  offset="1" style="stop-color:#0D0D0D"/>
	</linearGradient>
	<rect x="50.215" y="27.38" fill="url(#SVGID_55_)" width="35.208" height="20.598"/>
	<g>
		<g>
			<path fill="#999999" d="M85.423,23.469H50.215c-2.155,0-3.912,1.764-3.912,3.911v23.477c0,2.151,1.757,3.91,3.912,3.91h13.69
				l-3.912,5.867v1.959h15.648v-1.959l-3.91-5.867h13.691c2.151,0,3.913-1.759,3.913-3.91V27.38
				C89.336,25.233,87.574,23.469,85.423,23.469z M67.818,52.638c-0.609,0-1.106-0.492-1.106-1.098c0-0.611,0.497-1.108,1.106-1.108
				c0.61,0,1.103,0.497,1.103,1.108C68.921,52.146,68.429,52.638,67.818,52.638z M85.423,48.854H50.215V27.38h35.208V48.854z"/>
			<path fill="#999999" d="M74.287,41.586l2.677-2.672l-2.677-2.676v-3.796h-3.792l-2.677-2.672l-2.675,2.672h-3.795v3.796
				l-2.673,2.676l2.673,2.672v3.796h3.795l2.675,2.677l2.677-2.677h3.792V41.586z M67.818,43.764v-9.702
				c2.677,0,4.85,2.177,4.85,4.853C72.668,41.586,70.495,43.764,67.818,43.764z"/>
		</g>
	</g>
	<g>
		<g>
			<linearGradient id="SVGID_56_" gradientUnits="userSpaceOnUse" x1="46.3027" y1="42.1553" x2="89.3359" y2="42.1553">
				<stop  offset="0" style="stop-color:#FAFAFA"/>
				<stop  offset="0.31" style="stop-color:#D1D1D1"/>
				<stop  offset="0.46" style="stop-color:#DEDEDE"/>
				<stop  offset="0.59" style="stop-color:#F5F5F5"/>
				<stop  offset="1" style="stop-color:#F0F0F0"/>
			</linearGradient>
			<path fill="url(#SVGID_56_)" d="M85.423,22.593H50.215c-2.155,0-3.912,1.764-3.912,3.911v23.478c0,2.15,1.757,3.909,3.912,3.909
				h13.69l-3.912,5.867v1.959h15.648v-1.959l-3.91-5.867h13.691c2.151,0,3.913-1.759,3.913-3.909V26.504
				C89.336,24.357,87.574,22.593,85.423,22.593z M67.818,51.763c-0.609,0-1.106-0.493-1.106-1.099c0-0.61,0.497-1.107,1.106-1.107
				c0.61,0,1.103,0.497,1.103,1.107C68.921,51.27,68.429,51.763,67.818,51.763z M85.423,47.978H50.215V26.504h35.208V47.978z"/>
			<path fill="#FFFFFF" d="M74.287,40.711l2.677-2.673l-2.677-2.677v-3.794h-3.792l-2.677-2.673l-2.675,2.673h-3.795v3.794
				l-2.673,2.677l2.673,2.673v3.795h3.795l2.675,2.676l2.677-2.676h3.792V40.711z M67.818,42.888v-9.702
				c2.677,0,4.85,2.176,4.85,4.853C72.668,40.711,70.495,42.888,67.818,42.888z"/>
		</g>
	</g>
</g>
</svg>
