<?xml version="1.0" encoding="utf-8"?>
<!-- Generator: Adobe Illustrator 16.0.0, SVG Export Plug-In . SVG Version: 6.00 Build 0)  -->
<!DOCTYPE svg PUBLIC "-//W3C//DTD SVG 1.1//EN" "http://www.w3.org/Graphics/SVG/1.1/DTD/svg11.dtd">
<svg version="1.1" xmlns="http://www.w3.org/2000/svg" xmlns:xlink="http://www.w3.org/1999/xlink" x="0px" y="0px" width="640px"
	 height="641px" viewBox="0 0 640 641" enable-background="new 0 0 640 641" xml:space="preserve">
<g id="zoneMapDaejeon1">
	<path opacity="0.1" fill="#808080" d="M614.631,199.707c0.18-2.327-3.409-5.729-3.409-5.729s-15.967-9.13-18.3-13.071
		c-2.331-3.938-2.331-16.471-3.408-19.155c-1.075-2.686-4.305-2.864-5.919-3.76c-1.615-0.896-4.665,0.717-6.638,2.865
		c-1.975,2.147-4.665,0.895-12.021,0.895s-6.458-4.297-10.405-6.266c-3.947-1.97-6.638-2.15-9.509-1.611
		c-2.87,0.536-12.02,6.444-13.455,8.235c-1.435,1.79-1.435,3.58-3.767,6.624c-2.333,3.045-2.153,5.013-1.436,8.414
		c0.718,3.402,2.332,7.521,2.87,8.772c0.539,1.253,0.18,4.477-1.076,5.191c-1.256,0.718-3.408,2.329-4.306,1.612
		c-0.897-0.716-2.69-0.357-4.844,0.537c-2.152,0.895-4.844-2.328-5.92-3.76c-1.076-1.431-6.279-5.55-6.279-5.55
		s-0.896-2.327-0.717-5.191c0.179-2.865-2.153-11.817-3.23-13.607c-1.076-1.791-1.973-7.161-1.973-10.563
		c0-3.4-6.279-8.057-7.535-10.026c-1.256-1.968-3.947-5.727-3.947-5.727s2.332-3.401,0-5.731c-2.331-2.327,0.1-3.938,1.037-5.19
		l2.378-4.177l8.73-11.697l12.079-8.234l0.599-6.207l-2.752-4.774l-7.295-1.433l-6.937,2.984c0,0-12.319,3.344-17.582,3.58
		c-5.262,0.239-11.84-4.177-11.84-4.177s-6.459-7.64-6.817-9.431c-0.358-1.79,2.87-4.893,4.066-6.683
		c1.196-1.791,6.459-9.071,7.176-10.86c0.718-1.792,2.989-8.356,2.989-8.356l0.958-4.416l-1.794-1.313l-2.632-2.266
		c0,0-7.056-0.24-12.438,0.833c-5.382,1.076-11.482,6.088-12.679,7.4c-1.196,1.315-6.697,9.55-9.209,13.486
		c-2.511,3.939-2.75,16.83-2.75,16.83l-1.436,3.462c0,0-10.764,8.951-13.156,9.786c-2.393,0.837-5.501,3.104-11.841,3.463
		c-6.339,0.358-13.993-5.014-13.993-5.014L383.03,90.677c0,0-4.427-0.835-11.961-0.716s-11.243,1.909-11.243,1.909l-13.754,2.626
		c0,0-21.049,0.238-22.844,0.119c-1.794-0.119-4.426-2.745-4.426-2.745l0.654-1.909c0,0-2.153-10.743-1.674-14.323
		c0.479-3.581,2.63-11.697,3.587-14.801c0.958-3.101-1.674-5.728-1.674-5.728l1.674-1.672l-1.195-5.253l1.195-3.341
		c0,0-1.435-6.445-3.349-9.07c-1.914-2.626-13.634-10.504-15.787-11.698c-2.153-1.192-6.698-4.296-7.894-8.354
		s-6.458-6.207-6.458-6.207s-5.742-1.433-6.937-1.909c-1.197-0.479-6.697,0.955-6.697,0.955s-15.31,11.458-16.744,12.41
		c-1.436,0.956-6.938,2.149-8.851,2.628c-1.914,0.479-6.698,0-6.698,0l-5.74,9.069l-0.479,8.355c0,0,1.196,4.775,1.915,7.641
		c0.717,2.863,4.544,6.922,8.132,9.31c3.588,2.386,0,6.444,0,6.444s-2.392,3.341-4.065,3.341c-1.675,0-3.35,1.433-5.742,3.822
		c-2.391,2.385-5.74,4.057-5.74,4.057l0.717,7.401c0,0-1.675,6.922-1.675,10.025c0,3.102-3.588,9.548-6.459,12.412
		c-2.87,2.863-9.328,9.547-9.328,9.547s-7.654,8.118-9.567,12.893c-1.914,4.774-7.177,18.143-7.177,18.143s-5.502,4.058-10.047,9.31
		c-4.544,5.253-10.523,4.296-14.112,4.296c-3.588,0-7.894,1.434-11.481,1.434c-3.589,0-11.242-0.479-11.242-0.479
		s-15.31-6.206-17.701-6.445c-2.393-0.237-6.22-0.718-9.568,0c-3.349,0.715-9.807,4.775-9.807,4.775s-7.416,6.683-9.329,9.07
		c-1.913,2.389-6.458,2.625-8.133,2.625s-1.674,1.672-4.306,4.06c-2.631,2.386-2.631,3.103-2.631,3.103l-0.717,16.949
		c0,0-1.914,4.533-4.545,10.979c-2.632,6.445-2.393,10.981-2.393,10.981l0.718,15.277l2.631,5.729l-0.956,3.581l1.195,4.535
		l0.479,6.924c0,0-3.587,5.967-3.827,7.399c-0.239,1.432-2.871,7.876-5.741,10.741c-2.871,2.864-12.439,10.026-12.439,10.026
		l4.785,10.504l4.544,1.909c0,0,9.329,7.4,9.808,9.309c0.479,1.909-0.479,7.402-0.479,7.402l-7.894,5.25
		c0,0-10.524,6.685-12.438,8.594s1.674,15.755,0.479,17.427c-1.195,1.671-3.349,5.489-6.22,6.205
		c-2.87,0.718-7.176-5.25-9.328-2.625c-2.152,2.625,4.306,11.936,3.108,14.084c-1.196,2.148-5.501,7.64-5.501,7.64
		s1.914,7.878,0.957,11.219c-0.956,3.343-3.11,8.594-3.11,12.413c0,3.821,0.718,8.594,1.675,9.071s3.109,1.432,4.785,5.014
		c1.674,3.581-1.196,5.012-1.196,5.012s-11.961,0.479-13.635,1.673c-1.673,1.193-5.74,5.011-6.697,8.114
		c-0.957,3.104-1.436,3.58-1.436,5.491c0,1.91,5.741,7.639,5.741,7.639s11.721,11.22,13.395,13.367
		c1.674,2.148,2.87,5.013,2.87,5.013s7.895-0.237,10.287,0.479c2.393,0.716,9.329,10.263,13.634,14.323
		c4.306,4.059,12.2,7.876,12.2,7.876s9.807,0,11.959,0c2.153,0,10.525-2.628,10.525-2.628l1.632,2.614l1.239,0.25
		c0,0-3.35,4.298-7.177,6.684c-3.827,2.39-3.828,5.254-9.568,6.686c-5.741,1.431-5.741,6.206-5.741,10.504
		c0,4.297-1.435,5.729,0,10.98c1.436,5.252,0.958,11.458,4.305,14.8c3.349,3.342,4.784,5.252,4.784,5.252s11.004,8.593,12.917,10.98
		c0.402,0.5,1.092,2.174,1.73,3.871c0.791,2.096,3.277,2.604,3.597,3.888c0.276,1.11-1.357,2.392-0.433,4.556
		c0.911,2.129,2.005,4.37,2.759,4.873c2.871,1.908,11.794,4.464,14.353,1.91c0.845-0.843,0-4.775,0-4.775l-0.294-6.446l1.729-4.854
		l4.251,5.093l1.435-1.91l5.796,7.164l8.132,3.818l7.176,11.457l7.655,8.116l2.87,19.097c0,0,12.917-0.477,14.352,2.389
		c1.436,2.865,4.307,8.116,1.913,10.503c-1.046,1.044,0.038,4.859-0.293,7.757c-0.426,3.732-2.098,6.565-2.098,6.565l3.349,10.981
		c0,0,2.392,0,4.784,0s8.133-6.205,9.568-13.366c1.436-7.163,12.438-10.505,12.438-10.505l5.741-8.117v-14.321l10.524-7.641
		l4.783-5.729c0,0,10.525-3.818,11.961-6.206s2.392-7.638-1.937-18.143c-4.329-10.505,0-11.936,0-11.936l5.286-11.935v-6.208
		l5.49-4.772l-2.619-6.686l-1.436-7.162c0,0-7.176-11.457-6.698-15.275c0.479-3.819,0-11.458,0-11.458s10.047-11.938,14.831-13.369
		c1.515-0.453,2.743-0.62,3.713-0.635l1.345-4.497L263,458.076h5.691l8.88,4.722c0,0,1.256,3.044,0.987,3.044
		c-0.27,0,5.651,0,5.651,0s2.242,4.118,5.561,6.178c3.318,2.059,7.445,3.76,7.445,3.76l1.076,7.429h-2.243
		c0,0-1.614,3.224-1.435,4.925c0.179,1.699,0,3.759-0.449,4.385c-0.448,0.627-4.216,3.043-3.768,7.699c0,0,0.719,3.4,1.436,3.67
		c0.718,0.27,1.704,1.521,1.704,1.521s-0.897,3.223-0.897,4.297c0,1.075,3.229,2.774,3.947,3.224
		c0.717,0.448,1.884,1.521,1.794,2.506c-0.09,0.984-0.808,2.507-0.808,3.669c0,1.166,0,3.402-0.897,4.299
		c-0.896,0.895-4.933,4.116-5.112,5.013c-0.18,0.896,0,4.384,0,4.384l4.306,1.077l1.884-0.538c0,0,0.897,1.254,2.691,1.61
		c1.794,0.359,2.333-0.356,2.781,0c0.449,0.359,2.781,1.792,2.781,1.792h3.05c0,0,0.628,1.254,1.525,0.984
		c0.896-0.269,1.076-1.7,2.601-1.7s4.036-1.254,4.036-1.254l0.359,5.729c0,0,0.897,4.208,2.153,5.37
		c1.255,1.164,1.435,3.492,1.435,3.492s1.615,3.67,2.782,4.565c1.165,0.895,1.613,3.401,1.613,3.401l2.243-1.075l8.97,10.295
		l-5.383,8.594l2.962,2.506h4.933l2.602,3.133c0,0,12.02,5.552,12.109,5.819c0.09,0.269,1.704-1.342,1.704-1.342l2.78,0.536
		l7.321,2.954c1.973,0.537,12.198,5.371,12.198,5.371l2.154,7.878l13.455,5.907c0,0,6.099,0.359,12.198,0
		c6.1-0.357,12.02-1.073,12.02-1.073l1.615-9.131c0,0,4.306-17.366,4.664-18.084c0.359-0.715,6.279-3.222,10.226-3.578
		c3.947-0.359,9.509-1.612,10.765-3.225c1.256-1.611-1.614-4.833-1.614-4.833s0-6.445,0-8.772c0-2.328,6.279-6.267,6.279-6.267
		s9.149-2.149,10.046-1.969c0.897,0.179,4.126-1.791,4.126-1.791s1.615-5.192,1.794-6.444c0.18-1.254,6.1-2.866,6.1-2.866h6.128
		c0,0,8.225-10.384,11.095-15.934c2.871-5.549,2.871-7.52,2.871-8.951c0-1.434-2.153-6.804-2.513-8.235
		c-0.358-1.432-5.382-7.521-5.382-7.521s0.718-13.606-1.076-17.546c-1.794-3.938-6.816-9.309-4.306-10.025
		c2.512-0.715,11.482-8.951,11.482-8.951v-7.877c0,0,7.534-2.865,11.122-5.73c3.589-2.863,3.229-14.68,3.229-17.187
		c0-2.506,0-7.161-1.076-8.594c-1.077-1.433-8.971-8.594-10.047-10.025c-1.076-1.433,0-10.743,0-10.743s8.252-5.371,7.535-12.174
		c-0.718-6.803,2.152-7.52,1.793-10.741c-0.358-3.224-1.793-4.298-1.793-4.298s2.87-2.506,5.382-5.371c2.512-2.863,0-8.951,0-8.951
		l7.534-8.236c0,0,1.077-18.261,0.359-20.769c-0.718-2.505-6.1-6.086-5.382-7.159c0.718-1.075,2.153-4.31,2.153-4.31h5.74
		l3.588-6.435v-9.667l5.022-5.811c0,0,4.665,1.156,6.459-0.276s6.459,1.073,8.253,0c1.793-1.074,13.635-13.606,13.635-13.606
		l3.229-7.52c0,0-1.076-4.654-1.076-7.162c0-2.506,3.588-7.161,3.588-9.31c0-2.147-6.817-20.768-7.176-22.2
		c-0.359-1.433,0-5.729,0-7.161c0-1.432,8.252-2.507,8.252-2.507s5.383-7.877,7.177-9.667c1.794-1.791,9.149-7.521,9.149-7.521
		s15.248-0.715,19.375-0.535c4.126,0.18,10.404,0.18,13.455,0.18c3.05,0,4.126-4.299,5.029-6.447
		C615.54,202.752,614.451,202.034,614.631,199.707z"/>
</g>
<g id="zoneMapDaejeon2">
	<g opacity="0.1">
		<path fill="#129EDA" d="M280.196,7.508c0.318,0,0.578,0.029,0.749,0.098c1.195,0.477,6.937,1.909,6.937,1.909
			s5.262,2.149,6.458,6.207s5.741,7.161,7.894,8.354c2.153,1.194,13.874,9.072,15.787,11.698c1.915,2.625,3.349,9.07,3.349,9.07
			l-1.195,3.341l1.195,5.253l-1.674,1.672c0,0,2.632,2.627,1.674,5.728c-0.957,3.104-3.108,11.22-3.587,14.801
			c-0.479,3.58,1.674,14.323,1.674,14.323l-0.654,1.909c0,0,2.632,2.626,4.426,2.745c0.359,0.024,1.487,0.033,3.063,0.033
			c6.307,0,19.78-0.152,19.78-0.152l13.754-2.626c0,0,3.709-1.79,11.243-1.909c0.502-0.008,0.99-0.012,1.464-0.012
			c6.641,0,10.497,0.728,10.497,0.728l11.241,10.025c0,0,7.168,5.031,13.375,5.031c0.207,0,0.414-0.005,0.618-0.017
			c6.34-0.359,9.448-2.626,11.841-3.463c2.393-0.835,13.156-9.786,13.156-9.786l1.436-3.462c0,0,0.239-12.891,2.75-16.83
			c2.512-3.937,8.013-12.171,9.209-13.486c1.196-1.313,7.297-6.324,12.679-7.4c3.718-0.741,8.234-0.856,10.672-0.856
			c1.091,0,1.766,0.023,1.766,0.023l2.632,2.266l1.794,1.313l-0.958,4.416c0,0-2.271,6.564-2.989,8.356
			c-0.717,1.789-5.979,9.069-7.176,10.86c-1.196,1.79-4.425,4.893-4.066,6.683c0.358,1.791,6.817,9.431,6.817,9.431
			s6.235,4.186,11.421,4.186c0.141,0,0.28-0.003,0.419-0.009c5.263-0.236,17.582-3.58,17.582-3.58l6.937-2.984l7.295,1.433
			l2.752,4.774l-0.599,6.207l-12.079,8.234l-8.73,11.697l-2.378,4.177c-0.938,1.253-3.368,2.863-1.037,5.19
			c2.332,2.33,0,5.731,0,5.731s2.691,3.759,3.947,5.727c1.256,1.97,7.535,6.626,7.535,10.026c0,3.402,0.896,8.772,1.973,10.563
			c1.077,1.79,3.409,10.742,3.23,13.607c-0.18,2.864,0.717,5.191,0.717,5.191s5.203,4.119,6.279,5.55
			c0.948,1.262,3.151,3.914,5.134,3.914c0.268,0,0.53-0.048,0.786-0.154c1.363-0.566,2.582-0.918,3.521-0.918
			c0.544,0,0.994,0.118,1.323,0.381c0.157,0.125,0.353,0.18,0.575,0.18c1.049,0,2.694-1.2,3.73-1.792
			c1.256-0.715,1.615-3.938,1.076-5.191c-0.538-1.252-2.152-5.37-2.87-8.772c-0.718-3.401-0.897-5.369,1.436-8.414
			c2.332-3.044,2.332-4.834,3.767-6.624c1.436-1.791,10.585-7.699,13.455-8.235c0.877-0.165,1.736-0.262,2.62-0.262
			c2.011,0,4.146,0.505,6.889,1.874c3.947,1.969,3.05,6.266,10.405,6.266c3.961,0,6.569,0.363,8.441,0.363
			c1.604,0,2.668-0.267,3.579-1.258c1.592-1.733,3.884-3.118,5.559-3.118c0.401,0,0.768,0.08,1.079,0.252
			c1.614,0.896,4.844,1.074,5.919,3.76c1.077,2.685,1.077,15.217,3.408,19.155c2.333,3.941,18.3,13.071,18.3,13.071
			s3.589,3.401,3.409,5.729s0.909,3.045,0.006,5.191c-0.903,2.148-1.979,6.447-5.029,6.447c-3.051,0-9.329,0-13.455-0.18
			c-0.461-0.02-1.06-0.029-1.762-0.029c-5.58,0-17.613,0.564-17.613,0.564s-7.355,5.73-9.149,7.521
			c-1.794,1.79-7.177,9.667-7.177,9.667s-8.252,1.075-8.252,2.507c0,1.433-0.359,5.729,0,7.161c0.358,1.433,7.176,20.053,7.176,22.2
			c0,2.148-3.588,6.804-3.588,9.31c0,2.508,1.076,7.162,1.076,7.162l-3.229,7.52c0,0-11.842,12.532-13.635,13.606
			c-0.334,0.2-0.769,0.276-1.266,0.276c-1.544,0-3.691-0.731-5.328-0.731c-0.661,0-1.239,0.12-1.659,0.455
			c-0.687,0.548-1.793,0.717-2.897,0.717c-1.783,0-3.562-0.441-3.562-0.441l-5.022,5.811v9.667l-3.588,6.435h-5.74
			c0,0-1.436,3.234-2.153,4.31c-0.718,1.073,4.664,4.654,5.382,7.159c0.718,2.508-0.359,20.769-0.359,20.769l-7.534,8.236
			c0,0,2.512,6.088,0,8.951c-2.512,2.865-5.382,5.371-5.382,5.371s1.435,1.074,1.793,4.298c0.359,3.222-2.511,3.938-1.793,10.741
			c0.717,6.803-7.535,12.174-7.535,12.174s-1.076,9.311,0,10.743c1.076,1.432,8.97,8.593,10.047,10.025
			c1.076,1.433,1.076,6.088,1.076,8.594c0,2.507,0.359,14.323-3.229,17.187c-3.588,2.865-11.122,5.73-11.122,5.73v7.877
			c0,0-8.971,8.236-11.482,8.951c-2.511,0.717,2.512,6.088,4.306,10.025c1.794,3.939,1.076,17.546,1.076,17.546
			s5.023,6.089,5.382,7.521c0.359,1.432,2.513,6.802,2.513,8.235c0,1.432,0,3.402-2.871,8.951
			c-2.87,5.55-11.095,15.934-11.095,15.934h-6.128c0,0-5.92,1.612-6.1,2.866c-0.179,1.252-1.794,6.444-1.794,6.444
			s-2.954,1.803-3.996,1.803c-0.048,0-0.091-0.004-0.13-0.012c-0.036-0.007-0.086-0.011-0.147-0.011
			c-1.473,0-9.898,1.979-9.898,1.979s-6.279,3.938-6.279,6.267c0,2.327,0,8.772,0,8.772s2.87,3.222,1.614,4.833
			c-1.256,1.612-6.817,2.865-10.765,3.225c-3.946,0.356-9.866,2.863-10.226,3.578c-0.358,0.718-4.664,18.084-4.664,18.084
			l-1.615,9.131c0,0-5.92,0.716-12.02,1.073c-2.033,0.12-4.066,0.16-5.873,0.16c-3.614,0-6.325-0.16-6.325-0.16l-13.455-5.907
			L378,594.12c0,0-10.226-4.834-12.198-5.371l-7.321-2.954l-2.78-0.536c0,0-1.375,1.372-1.657,1.372c-0.024,0-0.04-0.01-0.047-0.03
			c-0.09-0.268-12.109-5.819-12.109-5.819l-2.602-3.133h-4.933l-2.962-2.506l5.383-8.594l-8.97-10.295l-2.243,1.075
			c0,0-0.448-2.507-1.613-3.401c-1.167-0.896-2.782-4.565-2.782-4.565s-0.179-2.328-1.435-3.492c-1.256-1.162-2.153-5.37-2.153-5.37
			l-0.359-5.729c0,0-2.511,1.254-4.036,1.254s-1.704,1.432-2.601,1.7c-0.087,0.026-0.171,0.038-0.253,0.038
			c-0.759,0-1.271-1.022-1.271-1.022h-3.05c0,0-2.333-1.433-2.781-1.792c-0.094-0.075-0.193-0.103-0.306-0.103
			c-0.311,0-0.733,0.207-1.492,0.207c-0.279,0-0.603-0.028-0.983-0.104c-1.793-0.356-2.691-1.61-2.691-1.61l-1.884,0.538
			l-4.306-1.077c0,0-0.18-3.488,0-4.384c0.18-0.896,4.216-4.118,5.112-5.013c0.897-0.896,0.897-3.133,0.897-4.299
			c0-1.162,0.718-2.685,0.808-3.669c0.09-0.985-1.077-2.058-1.794-2.506c-0.718-0.449-3.947-2.148-3.947-3.224
			c0-1.074,0.897-4.297,0.897-4.297s-0.986-1.252-1.704-1.521c-0.717-0.27-1.436-3.67-1.436-3.67
			c-0.448-4.656,3.32-7.072,3.768-7.699c0.449-0.626,0.628-2.686,0.449-4.385c-0.18-1.701,1.435-4.925,1.435-4.925h2.243
			l-1.076-7.429c0,0-4.127-1.701-7.445-3.76c-3.318-2.06-5.561-6.178-5.561-6.178s-5.402,0-5.651,0c0.269,0-0.987-3.044-0.987-3.044
			l-8.88-4.722h-5.69l0.756-2.528L263,458.076h0.001l-0.589,1.969c-0.971,0.015-2.199,0.182-3.713,0.635
			c-4.784,1.432-14.831,13.369-14.831,13.369s0.479,7.639,0,11.458c-0.478,3.818,6.698,15.275,6.698,15.275l1.436,7.162l2.619,6.686
			l-5.49,4.772v6.208l-5.286,11.935c0,0-4.329,1.431,0,11.936c4.328,10.505,3.372,15.755,1.937,18.143s-11.961,6.206-11.961,6.206
			l-4.783,5.729l-10.524,7.641v14.321l-5.741,8.117c0,0-11.003,3.342-12.438,10.505c-1.435,7.161-7.176,13.366-9.568,13.366
			s-4.784,0-4.784,0l-3.349-10.981c0,0,1.672-2.833,2.098-6.565c0.331-2.897-0.753-6.713,0.293-7.757
			c2.394-2.387-0.478-7.638-1.913-10.503c-1.077-2.15-8.619-2.418-12.317-2.418c-1.23,0-2.035,0.029-2.035,0.029l-2.87-19.097
			l-7.655-8.116l-7.176-11.457l-8.132-3.818l-5.796-7.164l-1.435,1.91l-4.251-5.093l-1.729,4.854l0.294,6.446
			c0,0,0.845,3.933,0,4.775c-0.77,0.769-2.116,1.074-3.701,1.074c-3.68,0-8.646-1.65-10.652-2.984
			c-0.754-0.503-1.848-2.744-2.759-4.873c-0.924-2.164,0.709-3.445,0.433-4.556c-0.32-1.284-2.807-1.792-3.597-3.888
			c-0.639-1.697-1.328-3.371-1.73-3.871c-1.914-2.388-12.917-10.98-12.917-10.98s-1.435-1.91-4.784-5.252
			c-3.348-3.342-2.87-9.548-4.305-14.8c-1.435-5.251,0-6.684,0-10.98c0-4.298,0-9.073,5.741-10.504
			c5.74-1.432,5.741-4.296,9.568-6.686c3.827-2.386,7.177-6.684,7.177-6.684l-1.239-0.25l-1.632-2.614c0,0-8.372,2.628-10.525,2.628
			c-2.152,0-11.959,0-11.959,0s-7.894-3.817-12.2-7.876c-4.305-4.061-11.241-13.607-13.634-14.323
			c-1.439-0.431-4.87-0.517-7.375-0.517c-1.659,0-2.912,0.038-2.912,0.038s-1.196-2.864-2.87-5.013
			c-1.674-2.147-13.395-13.367-13.395-13.367S25,426.546,25,424.636c0-1.911,0.479-2.388,1.436-5.491
			c0.957-3.104,5.023-6.921,6.697-8.114c1.674-1.194,13.635-1.673,13.635-1.673s2.871-1.431,1.196-5.012
			c-1.675-3.582-3.827-4.536-4.785-5.014s-1.675-5.25-1.675-9.071c0-3.819,2.154-9.07,3.11-12.413
			c0.957-3.341-0.957-11.219-0.957-11.219s4.305-5.491,5.501-7.64c1.197-2.148-5.261-11.459-3.108-14.084
			c0.392-0.479,0.856-0.671,1.37-0.671c2.143,0,5.152,3.357,7.45,3.357c0.174,0,0.343-0.02,0.508-0.061
			c2.871-0.716,5.024-4.534,6.22-6.205c1.195-1.672-2.393-15.518-0.479-17.427s12.438-8.594,12.438-8.594l7.894-5.25
			c0,0,0.957-5.493,0.479-7.402c-0.479-1.908-9.808-9.309-9.808-9.309l-4.544-1.909l-4.785-10.504c0,0,9.569-7.162,12.439-10.026
			c2.87-2.865,5.502-9.31,5.741-10.741c0.239-1.433,3.827-7.399,3.827-7.399l-0.479-6.924l-1.195-4.535l0.956-3.581l-2.631-5.729
			l-0.718-15.277c0,0-0.239-4.536,2.393-10.981c2.631-6.446,4.545-10.979,4.545-10.979l0.717-16.949c0,0,0-0.717,2.631-3.103
			c2.632-2.388,2.631-4.06,4.306-4.06s6.22-0.236,8.133-2.625c1.914-2.388,9.329-9.07,9.329-9.07s6.458-4.061,9.807-4.775
			c1.313-0.281,2.698-0.378,4.042-0.378c2.086,0,4.071,0.234,5.526,0.378c2.392,0.239,17.701,6.445,17.701,6.445
			s7.653,0.479,11.242,0.479c3.588,0,7.894-1.434,11.481-1.434c0.958,0,2.087,0.068,3.314,0.068c3.366,0,7.468-0.514,10.798-4.364
			c4.545-5.252,10.047-9.31,10.047-9.31s5.263-13.368,7.177-18.143c1.913-4.774,9.567-12.893,9.567-12.893s6.458-6.684,9.328-9.547
			c2.871-2.864,6.459-9.311,6.459-12.412c0-3.104,1.675-10.025,1.675-10.025l-0.717-7.401c0,0,3.349-1.672,5.74-4.057
			c2.392-2.39,4.067-3.822,5.742-3.822c1.674,0,4.065-3.341,4.065-3.341s3.588-4.059,0-6.444c-3.588-2.388-7.415-6.446-8.132-9.31
			c-0.719-2.865-1.915-7.641-1.915-7.641l0.479-8.355l5.74-9.069c0,0,2.126,0.213,4.111,0.213c0.992,0,1.949-0.053,2.587-0.213
			c1.914-0.479,7.416-1.672,8.851-2.628c1.435-0.952,16.744-12.41,16.744-12.41S278.287,7.508,280.196,7.508 M278.559,465.842
			c-0.006,0-0.009,0-0.009,0S278.553,465.842,278.559,465.842 M280.196,0.508c-2.533,0-6.238,0.895-7.714,1.279
			c-0.878,0.229-1.703,0.626-2.429,1.169c-6.796,5.086-14.473,10.798-16.185,12.016c-1.191,0.467-4.532,1.263-5.669,1.534
			c-0.425,0.102-0.801,0.191-1.107,0.267c-0.115,0.012-0.428,0.038-1.026,0.038c-1.595,0-3.4-0.177-3.418-0.179
			c-0.231-0.022-0.461-0.034-0.69-0.034c-2.383,0-4.626,1.216-5.917,3.256l-5.741,9.069c-0.636,1.005-1.005,2.156-1.073,3.343
			l-0.479,8.355c-0.04,0.706,0.026,1.415,0.198,2.101l1.916,7.643c1.043,4.168,4.564,8.144,7.728,10.886
			c-3.212,1.031-5.657,3.474-7.561,5.376c-1.264,1.261-3.273,2.417-3.941,2.756c-2.568,1.305-4.097,4.061-3.819,6.928l0.606,6.254
			c-0.54,2.373-1.557,7.237-1.595,10.32c-0.27,1.462-2.53,5.764-4.404,7.633c-2.882,2.875-9.153,9.363-9.418,9.638
			c-0.02,0.021-0.04,0.042-0.06,0.062c-1.43,1.517-8.681,9.374-10.972,15.091c-1.48,3.692-4.989,12.59-6.491,16.401
			c-2.163,1.739-6.07,5.078-9.528,9.074c-1.258,1.454-2.647,1.945-5.505,1.945c-0.576,0-1.126-0.018-1.644-0.034
			c-0.594-0.018-1.154-0.034-1.67-0.034c-2.424,0-4.851,0.441-6.992,0.83c-1.635,0.297-3.326,0.604-4.49,0.604
			c-2.363,0-7.071-0.245-9.68-0.397c-15.283-6.163-17.66-6.401-18.567-6.492l-0.564-0.057c-1.469-0.15-3.481-0.356-5.659-0.356
			c-2.031,0-3.833,0.175-5.509,0.534c-4.228,0.903-10.304,4.586-12.066,5.694c-0.34,0.214-0.662,0.457-0.96,0.726
			c-1.75,1.577-7.418,6.737-9.774,9.494c-0.507,0.184-1.637,0.401-3.001,0.401c-4.526,0-6.759,3.06-7.712,4.367
			c-0.4,0.548-0.717,0.982-1.297,1.508c-2.494,2.262-4.807,4.799-4.923,8.032l-0.662,15.653c-0.739,1.763-2.245,5.376-4.085,9.886
			c-3.133,7.673-2.935,13.371-2.902,13.995l0.716,15.237c0.042,0.896,0.256,1.777,0.631,2.592l1.579,3.438l-0.306,1.146
			c-0.314,1.176-0.316,2.413-0.006,3.59l1.027,3.895l0.283,4.095c-2.944,5.097-3.403,6.849-3.562,7.723
			c-0.423,1.444-2.382,5.716-3.817,7.148c-1.834,1.83-8.143,6.723-11.688,9.376c-2.634,1.972-3.54,5.512-2.176,8.506l4.785,10.504
			c0.729,1.602,2.036,2.87,3.659,3.552l3.644,1.531c2.573,2.077,5.155,4.34,6.515,5.693c-0.02,0.267-0.046,0.558-0.078,0.861
			l-5.207,3.463c-4.183,2.658-11.438,7.384-13.565,9.506c-3.509,3.5-2.819,8.708-1.863,15.915c0.162,1.219,0.382,2.884,0.482,4.018
			c-0.163,0.238-0.347,0.5-0.536,0.757c-1.745-1.104-4.032-2.398-6.838-2.399c-2.666,0-5.075,1.148-6.784,3.234
			c-3.853,4.698-1.419,10.573,0.537,15.293c0.199,0.481,0.446,1.077,0.664,1.629c-1.02,1.435-2.459,3.351-3.689,4.919
			c-1.323,1.687-1.799,3.888-1.293,5.971c0.701,2.905,1.171,6.557,1.001,7.738c-0.204,0.699-0.49,1.57-0.793,2.49
			c-1.14,3.464-2.56,7.776-2.56,11.751c0,6.956,1.28,10.701,2.656,12.773c-5.849,0.697-7.189,1.653-8.093,2.297
			c-0.072,0.052-7.36,5.387-9.321,11.751c-0.258,0.836-0.477,1.454-0.669,1.998c-0.529,1.496-1.077,3.042-1.077,5.555
			c0,3.144,1.823,5.91,4.56,9.097c1.592,1.854,3.17,3.431,3.236,3.497c0.034,0.034,0.069,0.068,0.104,0.102
			c5.336,5.108,11.72,11.39,12.729,12.633c0.856,1.099,1.698,2.872,1.924,3.404c1.1,2.593,3.65,4.286,6.453,4.286
			c0.07,0,0.139-0.001,0.209-0.003c0.01,0,1.18-0.034,2.701-0.034c2.299,0,3.816,0.078,4.687,0.156
			c1.225,1.188,3.404,3.738,4.926,5.52c2.246,2.629,4.568,5.347,6.593,7.257c4.949,4.665,13.048,8.646,13.955,9.085
			c0.95,0.459,1.992,0.698,3.047,0.698h6.224c-10.354,3-10.354,12.851-10.354,17.109c0,0.978-0.117,1.737-0.264,2.7
			c-0.361,2.354-0.811,5.285,0.512,10.126c0.355,1.3,0.581,2.842,0.818,4.474c0.62,4.25,1.392,9.54,5.294,13.435
			c2.865,2.859,4.141,4.513,4.153,4.529c0.37,0.492,0.783,0.906,1.268,1.285c4.491,3.508,9.912,7.975,11.512,9.58
			c0.16,0.354,0.446,1.031,0.894,2.22c0.617,1.638,1.553,2.878,2.466,3.806c-0.118,1.402,0.028,3.087,0.812,4.923
			c1.948,4.551,3.337,6.63,5.312,7.946c3.083,2.049,9.357,4.161,14.537,4.161c3.663,0,6.571-1.05,8.646-3.119
			c1.589-1.585,2.395-3.666,2.442-6.391l0.089,0.11c0.666,0.822,1.509,1.483,2.467,1.933l6.268,2.943l6.083,9.712
			c0.244,0.389,0.525,0.753,0.84,1.087l6.151,6.521l2.544,16.929c0.517,3.437,3.47,5.96,6.919,5.96c0.087,0,0.174-0.002,0.261-0.005
			c0.003,0,0.711-0.024,1.777-0.024c3.508,0,5.763,0.243,7.009,0.464c0.355,0.743,0.73,1.575,0.951,2.23
			c-1.463,2.565-1.239,5.482-1.066,7.728c0.066,0.86,0.149,1.932,0.088,2.461c-0.224,1.958-1.059,3.586-1.192,3.835
			c-1.046,1.707-1.231,3.649-0.647,5.567l3.349,10.981c0.898,2.945,3.616,4.958,6.696,4.958h4.784
			c7.227,0,14.636-10.026,16.432-18.991c0.331-1.653,4.449-4.191,7.638-5.19c1.488-0.452,2.754-1.378,3.652-2.647l5.741-8.117
			c0.836-1.182,1.285-2.594,1.285-4.042v-10.753l7.637-5.544c0.467-0.34,0.891-0.735,1.261-1.179l3.584-4.292
			c4.217-1.59,11.452-4.64,13.786-8.522c3.384-5.629,2.892-13.844-1.464-24.416c-0.938-2.275-1.251-3.709-1.351-4.496
			c0.526-0.564,0.96-1.218,1.279-1.938l5.286-11.935c0.396-0.893,0.6-1.858,0.6-2.835v-3.018l3.083-2.68
			c2.234-1.942,3.005-5.08,1.925-7.837l-2.395-6.111l-1.314-6.559c-0.166-0.829-0.481-1.622-0.931-2.34
			c-2.618-4.187-5.21-9.369-5.626-11.211c0.288-2.81,0.222-6.688,0.123-9.338c3.881-4.34,8.205-8.406,9.824-9.165
			c0.896-0.259,1.446-0.305,1.699-0.309c1.766-0.026,3.404-0.713,4.641-1.854l4.625,2.46c0.797,2.99,3.523,5.192,6.765,5.192
			c0.001,0,0.003,0,0.004,0s0.003,0,0.004,0h1.952c1.358,1.716,3.235,3.677,5.568,5.125c1.221,0.757,2.52,1.465,3.725,2.079
			c-0.005,0.009-0.01,0.019-0.014,0.027c-0.945,1.888-2.48,5.542-2.137,8.794c0.008,0.072,0.014,0.145,0.018,0.217
			c-1.963,2.071-4.801,5.982-4.241,11.803c0.025,0.261,0.065,0.521,0.119,0.776c0.441,2.089,1.067,4.271,2.286,6.003
			c-0.194,1.171-0.194,1.761-0.194,2.038c0,3.851,2.649,6.244,5.052,7.832c-0.072,0.492-0.118,1.017-0.118,1.566
			c0,0.092,0,0.221-0.001,0.363c-3.183,2.771-5.284,4.638-5.872,7.572c-0.105,0.524-0.353,1.755-0.127,6.12
			c0.158,3.073,2.306,5.684,5.292,6.431l4.306,1.077c0.558,0.14,1.128,0.209,1.699,0.209c0.126,0,0.252-0.003,0.379-0.011
			c0.82,0.398,1.763,0.736,2.831,0.949c0.739,0.147,1.484,0.228,2.209,0.237c0.309,0.193,0.659,0.41,1.054,0.653
			c1.102,0.677,2.37,1.035,3.664,1.035h0.424c1.108,0.626,2.413,1.022,3.897,1.022c0.371,0,0.74-0.026,1.106-0.078
			c0.719,2.32,1.644,4.161,2.764,5.502c0.051,0.747,0.231,1.25,0.56,1.996c1.576,3.579,2.975,5.426,3.916,6.4
			c0.39,2.143,1.756,3.982,3.695,4.976c0.999,0.513,2.092,0.77,3.186,0.771l2.53,2.903l-2.627,4.194
			c-1.848,2.95-1.247,6.812,1.411,9.06l2.962,2.506c1.264,1.069,2.866,1.656,4.521,1.656h1.646l0.503,0.604
			c0.666,0.803,1.503,1.446,2.449,1.883c4.392,2.028,9.605,4.486,11.086,5.251c1.148,0.792,2.536,1.244,4.006,1.244
			c1.238,0,2.307-0.313,3.23-0.774l5.909,2.384c0.229,0.093,0.465,0.174,0.703,0.241c0.966,0.319,4.575,1.925,8.217,3.608l1.3,4.755
			c0.557,2.037,2.004,3.714,3.938,4.563l13.455,5.907c0.761,0.334,1.574,0.53,2.402,0.579c0.119,0.007,2.96,0.172,6.737,0.172
			c2.235,0,4.35-0.059,6.285-0.172c6.241-0.366,12.197-1.082,12.448-1.112c3.059-0.37,5.516-2.696,6.052-5.729l1.574-8.897
			c1.368-5.517,2.88-11.5,3.745-14.793c1.499-0.58,3.548-1.227,4.923-1.351c4.451-0.405,12.397-1.709,15.657-5.895
			c2.495-3.202,2.395-7.419-0.137-11.447V561.1c0.571-0.501,1.359-1.108,2.097-1.625c2.859-0.654,5.996-1.319,7.173-1.492
			c0.062,0.002,0.123,0.003,0.186,0.003c0.9,0,3.009,0,7.642-2.827c1.453-0.887,2.533-2.271,3.039-3.896
			c0.488-1.571,0.893-2.927,1.21-4.061c0.329-0.113,0.673-0.227,1.002-0.329h5.125c2.139,0,4.159-0.978,5.487-2.653
			c0.885-1.117,8.733-11.087,11.825-17.064c3.371-6.516,3.653-9.583,3.653-12.167c0-1.918-0.656-3.996-2.048-7.962
			c-0.254-0.724-0.602-1.714-0.686-2.016c-0.239-0.956-0.637-2.547-5.055-8.125c0.189-5.85,0.054-14.002-1.812-18.1
			c-0.655-1.436-1.521-2.855-2.364-4.166c1.982-1.521,4.554-3.677,7.904-6.754c1.443-1.326,2.266-3.196,2.266-5.156v-3.234
			c2.743-1.258,6.11-3.002,8.49-4.903c5.273-4.207,5.936-13.093,5.865-22.068l-0.004-0.588c0-5.196-0.187-9.746-2.479-12.798
			c-0.807-1.072-2.225-2.459-5.778-5.863c-1.021-0.979-2.39-2.29-3.346-3.237c-0.002-0.972,0.059-2.348,0.167-3.802
			c3.465-3.028,8.618-8.903,7.811-16.569c-0.23-2.179,0.04-2.797,0.531-3.918c0.603-1.378,1.611-3.684,1.257-6.866
			c-0.075-0.675-0.183-1.308-0.314-1.9c0.72-0.735,1.477-1.542,2.21-2.379c3.14-3.578,3.144-8.24,2.517-11.7l4.919-5.377
			c1.085-1.186,1.729-2.708,1.823-4.313c1.146-19.452,0.387-22.107,0.101-23.107c-0.326-1.139-0.847-2.164-1.475-3.103
			c1.405-0.599,2.602-1.652,3.37-3.031l3.588-6.435c0.582-1.042,0.887-2.216,0.887-3.409v-7.061l0.855-0.99
			c0.24,0.009,0.483,0.015,0.729,0.015c2.018,0,3.797-0.353,5.317-1.051c0.219,0.041,0.446,0.085,0.635,0.122
			c1.169,0.229,2.494,0.488,3.933,0.488c1.817,0,3.452-0.427,4.859-1.269c0.788-0.472,2.624-1.573,15.129-14.806
			c0.564-0.598,1.02-1.29,1.344-2.046l3.229-7.52c0.587-1.368,0.723-2.888,0.388-4.339c-0.376-1.633-0.776-3.883-0.874-5.108
			c0.239-0.591,0.765-1.612,1.1-2.265c1.212-2.357,2.466-4.794,2.466-7.521c0-2.079-0.766-4.878-5.833-19.412
			c-0.581-1.667-1.229-3.524-1.493-4.327c-0.011-0.217-0.013-0.5-0.01-0.818c0.764-0.142,1.572-0.272,2.32-0.371
			c1.974-0.259,3.748-1.348,4.871-2.991c2.364-3.46,5.481-7.77,6.353-8.672c0.757-0.756,3.804-3.243,6.75-5.573
			c3.708-0.16,11.127-0.457,15.058-0.457c0.78,0,1.223,0.012,1.457,0.022c4.278,0.187,10.683,0.187,13.76,0.187
			c7.438,0,10.139-7.186,11.156-9.891c0.115-0.307,0.221-0.594,0.326-0.843c1.372-3.261,0.865-5.725,0.593-7.048
			c-0.024-0.119-0.057-0.274-0.069-0.355c0.357-4.903-3.338-9.189-5.576-11.311c-0.405-0.384-0.855-0.719-1.34-0.996
			c-6.929-3.964-14.137-8.836-15.778-10.647c-0.675-1.708-1.204-7.007-1.463-9.602c-0.43-4.292-0.688-6.621-1.445-8.508
			c-1.975-4.931-6.402-6.418-8.53-7.133c-0.212-0.071-0.493-0.166-0.635-0.22c-1.316-0.699-2.771-1.053-4.33-1.053
			c-4.304,0-7.861,2.661-9.694,4.361c-0.465-0.02-1.035-0.059-1.664-0.102c-1.619-0.11-3.635-0.248-6.221-0.248
			c-0.721,0-1.123-0.066-1.305-0.107c-0.146-0.166-0.37-0.456-0.544-0.681c-1.02-1.318-2.561-3.309-5.433-4.742
			c-3.566-1.78-6.749-2.609-10.013-2.609c-1.263,0-2.543,0.125-3.912,0.382c-4.878,0.911-15.246,7.769-17.625,10.737
			c-1.21,1.51-1.835,2.919-2.337,4.052c-0.43,0.969-0.74,1.669-1.524,2.693c-4.133,5.393-3.648,9.755-2.729,14.116
			c0.477,2.259,1.273,4.757,2.006,6.795c-0.77,0.068-1.568,0.214-2.415,0.441c-0.131-0.158-0.272-0.336-0.421-0.535
			c-0.887-1.179-2.765-2.948-5.595-5.273c-0.021-0.265-0.028-0.544-0.011-0.824c0.26-4.173-2.282-14.2-4.108-17.464
			c-0.428-1.069-1.081-4.669-1.081-7.146c0-5.244-4.031-9.24-7.27-12.451c-0.512-0.507-1.198-1.188-1.466-1.498
			c-0.529-0.822-1.237-1.861-1.914-2.837c0.392-2.118,0.249-4.376-0.685-6.476l2.135-3.75l7.772-10.413l11.112-7.575
			c1.717-1.171,2.825-3.044,3.024-5.112l0.599-6.207c0.14-1.449-0.176-2.906-0.903-4.167l-2.752-4.774
			c-1.011-1.753-2.729-2.983-4.716-3.373l-7.295-1.433c-0.446-0.088-0.898-0.131-1.349-0.131c-0.946,0-1.889,0.192-2.767,0.57
			l-6.475,2.786c-4.568,1.221-12.439,3.074-15.592,3.216l-0.104,0.002c-1.783,0-4.806-1.372-6.763-2.527
			c-1.28-1.544-2.543-3.149-3.487-4.418c0.057-0.069,0.111-0.136,0.161-0.197c0.6-0.734,1.221-1.494,1.737-2.267
			c0.276-0.414,0.781-1.135,1.396-2.015c3.884-5.554,5.737-8.335,6.457-10.131c0.758-1.894,2.868-7.983,3.106-8.671
			c0.091-0.264,0.166-0.533,0.226-0.805l0.958-4.416c0.587-2.703-0.474-5.498-2.705-7.132l-1.572-1.151l-2.423-2.085
			c-1.208-1.04-2.734-1.636-4.328-1.691c-0.081-0.002-0.828-0.027-2.004-0.027c-3.226,0-7.933,0.172-12.041,0.991
			c-7.259,1.452-14.622,7.508-16.483,9.55c-2.172,2.389-9.861,14.319-9.937,14.437c-2.935,4.604-3.646,14.08-3.813,19.114
			l-0.271,0.652c-3.974,3.252-8.519,6.759-9.977,7.581c-0.788,0.293-1.522,0.633-2.234,0.962c-1.929,0.891-3.922,1.812-7.384,2.008
			c-0.071,0.004-0.146,0.006-0.222,0.006c-2.589,0-6.726-2.016-9.06-3.562l-10.897-9.719c-0.949-0.847-2.111-1.419-3.362-1.655
			c-0.46-0.087-4.704-0.849-11.794-0.849c-0.522,0-1.04,0.004-1.574,0.013c-6.842,0.108-11.203,1.42-13.146,2.166l-12.441,2.375
			c-2.718,0.03-13.653,0.145-19.08,0.145c-0.053,0-0.104,0-0.155,0c-0.9-4.716-1.547-9.75-1.412-11.109
			c0.391-2.92,2.397-10.601,3.335-13.64c0.791-2.56,0.617-5.031-0.067-7.193c0.415-1.211,0.497-2.534,0.203-3.822l-0.742-3.263
			l0.508-1.419c0.445-1.244,0.529-2.589,0.242-3.879c-0.411-1.846-1.952-8.144-4.526-11.674
			c-3.187-4.373-17.161-13.203-18.047-13.695c-2.385-1.321-4.29-3.243-4.575-4.211c-2.043-6.935-9.126-10.137-10.525-10.708
			c-0.31-0.126-0.628-0.23-0.952-0.311c-2.371-0.592-5.363-1.387-6.097-1.643C282.495,0.696,281.418,0.508,280.196,0.508
			L280.196,0.508z"/>
	</g>
</g>
<g id="zoneMapDaejeon3">
	<path fill="none" stroke="#2694BF" stroke-linejoin="round" stroke-miterlimit="10" d="M262.412,460.045
		c-0.97,0.015-2.198,0.182-3.713,0.634c-4.784,1.433-14.831,13.37-14.831,13.37s0.478,7.64,0,11.458
		c-0.478,3.819,6.698,15.275,6.698,15.275l1.436,7.162l2.618,6.686l-5.488,4.773v6.207l-5.287,11.935c0,0-4.328,1.432,0,11.936
		c4.329,10.505,3.373,15.756,1.938,18.143c-1.435,2.388-11.96,6.207-11.96,6.207l-4.783,5.728l-10.525,7.641v14.321l-5.741,8.117
		c0,0-11.003,3.343-12.438,10.504c-1.435,7.162-7.177,13.367-9.569,13.367c-2.392,0-4.783,0-4.783,0l-3.349-10.98
		c0,0,1.672-2.834,2.098-6.565c0.33-2.898-0.753-6.715,0.293-7.759c2.393-2.386-0.478-7.637-1.913-10.502
		c-1.435-2.864-14.352-2.389-14.352-2.389l-2.87-19.097l-7.655-8.116l-7.176-11.456l-8.132-3.819l-5.796-7.163l-1.435,1.91
		l-4.251-5.094l-1.729,4.854l0.294,6.445c0,0,0.846,3.932,0,4.775c-2.559,2.554-11.481,0-14.352-1.909
		c-0.755-0.504-1.848-2.744-2.76-4.874c-0.924-2.164,0.709-3.445,0.433-4.557c-0.319-1.283-2.807-1.79-3.597-3.887
		c-0.639-1.696-1.329-3.37-1.731-3.871c-1.914-2.387-12.917-10.98-12.917-10.98s-1.437-1.91-4.785-5.252
		c-3.349-3.342-2.871-9.547-4.305-14.8c-1.436-5.251,0-6.685,0-10.98c0-4.298,0-9.072,5.74-10.504
		c5.741-1.432,5.742-4.296,9.568-6.685c3.827-2.387,7.177-6.684,7.177-6.684l2.695-1.016l5.382-4.654l8.612-5.191l9.508-3.581h5.203
		l3.947-2.146l-0.717-3.939l-2.96-4.567l4.216-0.894l1.166-8.325l6.548-3.313l2.153-10.742c0,0,5.202,2.686,7.445,1.701
		c2.243-0.985,5.651-7.431,5.651-7.431s1.076-12.175,1.794-13.696c0.718-1.521,5.831-7.25,5.831-7.25s2.512,1.074,4.216,1.879
		c1.704,0.806,3.499-2.863,4.396-1.879s3.767,1.094,3.946-0.17c0.18-1.264-0.269-10.393-0.269-10.393l1.705-5.104l8.79-5.997
		c0,0,1.795-2.327,2.063-3.938c0.27-1.612-0.18-4.477-0.18-4.477l-3.498-2.954c0,0,0.359-4.655-0.448-5.281
		c-0.808-0.627-1.974-4.388-1.974-4.388l1.614-3.848l-2.511-4.656c0,0,2.422-4.654,2.96-5.459c0.538-0.807,0.269-5.729,0.269-5.729
		s5.562,0.806,6.639,0.984c1.076,0.178,8.701,1.164,8.701,1.164s6.189,3.313,7.804,3.133c1.615-0.179,6.997-2.06,6.997-2.06
		l2.87-0.536c0,0,0-6.356-0.358-7.251c-0.359-0.896-3.409-4.566-3.409-4.566s-1.076-8.146-1.076-7.786
		c0,0.356-2.152-5.373-2.152-5.373l-3.409-5.46l-0.089-6.534l1.166-4.208l4.665-3.132h2.811l11.243-10.713l-0.479-2.387l8.611-6.685
		h4.784l3.827-6.684l9.807-6.208l5.197-2.148h6.524c0,0,5.022,0.957,8.85,0.957c3.828,0,5.741,0,5.741,0l2.153,0.955l5.502-1.912
		h3.349l5.263,7.162l3.348,6.208c0,0,0.24,3.104,1.675,4.297c1.435,1.192,3.828,1.909,3.828,1.909l3.108,9.071l2.393,5.251
		l-1.435,9.311l1.435,4.772v15.041c0,0,0.239,3.343-1.196,3.58c-1.435,0.238-6.22,4.296-6.458,5.489
		c-0.239,1.193-2.392,3.104-2.392,3.104l-3.109-0.479l-4.307,4.774l-3.827,0.718l-0.238,3.341l-6.698,5.013v6.205
		c0,0-0.957,2.627-1.674,2.627c-0.718,0-7.415,2.627-7.415,2.627s2.152,1.91,1.674,3.342c-0.478,1.432-0.24,6.923,0,7.639
		c0.239,0.715,3.349,4.773,3.349,4.773l0.718,4.775l-3.109,4.058l-8.134,6.922l-1.435,6.445l3.109,2.148l0.718,6.445l-3.588,7.161
		l-4.306,2.626l-6.937,0.715l-2.632,3.821l-3.109,0.477l-1.436,1.195l-0.957,5.012l-1.674,3.581l-3.827,1.193l2.871,3.82
		l3.348,5.728l-0.957,1.433l1.914,2.149l-0.24,3.579l2.393,3.343l1.405,3.461L262.412,460.045z"/>
	<path fill="none" stroke="#2694BF" stroke-linejoin="round" stroke-miterlimit="10" d="M320.479,302.892l1.435,4.772v15.041
		c0,0,0.239,3.343-1.196,3.58c-1.435,0.238-6.22,4.296-6.458,5.489c-0.239,1.193-2.392,3.104-2.392,3.104l-3.109-0.479l-4.307,4.774
		l-3.827,0.718l-0.238,3.341l-6.698,5.013v6.205c0,0-0.957,2.627-1.674,2.627c-0.718,0-7.415,2.627-7.415,2.627
		s2.152,1.91,1.674,3.342c-0.478,1.432-0.24,6.923,0,7.639c0.239,0.715,3.349,4.773,3.349,4.773l0.718,4.775l-3.109,4.058
		l-8.134,6.922l-1.435,6.445l3.109,2.148l0.718,6.445l-3.588,7.161l-4.306,2.626l-6.937,0.715l-2.632,3.821l-3.109,0.477
		l-1.436,1.195l-0.957,5.012l-1.674,3.581l-3.827,1.193l2.871,3.82l3.348,5.728l-0.957,1.433l1.914,2.149l-0.24,3.579l2.393,3.343
		l1.405,3.461l-0.757,2.53h5.689l8.881,4.721c0,0,1.256,3.043,0.986,3.043c-0.269,0,5.651,0,5.651,0s2.243,4.119,5.562,6.179
		c3.319,2.059,7.445,3.76,7.445,3.76l1.076,7.43h-2.242c0,0-1.615,3.223-1.436,4.922c0.18,1.701,0,3.761-0.448,4.388
		c-0.449,0.626-4.216,3.043-3.768,7.698c0,0,0.717,3.402,1.436,3.67c0.717,0.269,1.704,1.521,1.704,1.521s-0.897,3.223-0.897,4.297
		s3.229,2.775,3.947,3.223c0.717,0.449,1.883,1.522,1.794,2.508c-0.09,0.983-0.808,2.506-0.808,3.668c0,1.166,0,3.402-0.897,4.299
		c-0.897,0.895-4.934,4.117-5.113,5.013s0,4.386,0,4.386l4.305,1.075l1.884-0.538c0,0,0.896,1.253,2.691,1.611
		c1.794,0.358,2.332-0.358,2.781,0c0.448,0.358,2.78,1.791,2.78,1.791h3.05c0,0,0.628,1.254,1.525,0.984
		c0.897-0.268,1.076-1.7,2.602-1.7c1.524,0,4.036-1.254,4.036-1.254l0.359,5.729c0,0,0.897,4.207,2.153,5.37
		c1.256,1.165,1.436,3.491,1.436,3.491s1.614,3.672,2.78,4.566s1.614,3.401,1.614,3.401l2.242-1.074l8.971,10.294l-5.382,8.594
		l2.961,2.506h4.933l2.602,3.134c0,0,12.02,5.55,12.109,5.818s1.704-1.342,1.704-1.342l2.78,0.536c0,0,1.885-2.954,3.499-3.58
		c1.614-0.627,4.754-3.491,4.754-3.491v-2.865l-5.023-0.896l5.023-7.608v-6.446l-1.704-2.147l1.076-2.148v-6.267l-2.691-1.701
		l-0.717-2.595l5.112-3.76l4.755,1.433l3.229,3.222l4.127-0.358l1.166-2.775l7.176-7.25v-7.878l4.484-2.864l4.037,0.537l2.691-2.953
		l-3.229-1.612l0.896-1.521l1.077-7.879l-3.319,0.09l-6.279-10.025c0,0-4.306-0.449-4.575-0.358
		c-0.269,0.089-0.627-2.147-0.627-2.147l1.614-2.238l-4.216-3.939l-11.84,0.179l1.435-1.7l-0.896-2.685h3.14l-0.27-8.952
		l2.602-0.359l1.346-5.102l6.368-3.403l6.548-3.759l-0.18-2.326l1.795-1.701l-0.359-5.015l-5.74-7.339l-3.141-0.896l-3.139-5.191
		c0,0,0.896-2.745,1.734-3.223c0.838-0.477,3.469-2.863,3.469-2.863s-4.965-5.909-5.563-6.089c-0.598-0.178-4.664-2.147-4.664-2.147
		l1.734-1.789l-6.459-4.477l0.419-7.043c0,0,4.726,2.028,5.622,2.327c0.896,0.3,5.262,0.659,5.262,0.659l2.691-3.702l5.562,0.061
		l1.494-3.223c0,0,4.963-1.551,5.023-2.327c0.061-0.777,0.958-3.402,0.958-3.402s1.794,1.491,3.049,1.552
		c1.256,0.06,6.1-2.269,6.1-2.269l1.196,3.103l1.076,6.148l2.153,0.834l1.494-2.565c0,0,5.143,0.716,7.116,0.478
		c1.974-0.237,3.17-0.776,3.17-0.776l1.495,1.792c0,0,1.854-2.031,2.69-1.911c0.837,0.119,2.812-0.059,2.812-0.059
		s-2.153-2.806-2.332-3.821c-0.181-1.012-2.153-10.92-2.153-10.92l-4.126-1.074c0,0-4.425-4.178-4.725-4.715
		c-0.299-0.537,0-2.268,0-2.268l-6.04-8.175l-4.425-2.388l-3.109,0.417l-8.552-3.818l-2.512-9.729l-6.399-8.594l-2.271-2.328
		l-2.631-6.207l-22.365-22.32l-9.329-5.251c0,0-6.101-3.701-7.057-6.325c-0.957-2.626-1.436-5.491-1.436-5.491l-9.808-6.326
		L320.479,302.892z"/>
	<path fill="none" stroke="#2694BF" stroke-linejoin="round" stroke-miterlimit="10" d="M340.093,317.095
		c-0.957-2.626-1.436-5.491-1.436-5.491l-9.808-6.326l-8.371-2.386l0.368-2.385l1.067-6.926l-2.393-5.251l-3.108-9.071
		c0,0-2.393-0.717-3.828-1.909c-1.435-1.193-1.675-4.297-1.675-4.297l-3.348-6.208l-5.263-7.162l2.751-2.385
		c0,0,4.665-0.716,7.296-1.909s10.764-3.939,10.764-3.939s7.176-3.221,8.492-3.699c1.314-0.478,5.979-6.207,5.979-6.207
		s1.316-7.043,0.479-9.668s-2.513-12.413-2.393-15.04c0.12-2.624,3.588-7.397,4.426-8.831c0.837-1.433,1.435-6.445,0.956-7.043
		c-0.479-0.597,0.17-4.654,0.17-4.654l4.375-4.772l2.631-3.939c0,0,1.197-4.895,2.273-5.969s2.631-1.551,2.631-1.551l-0.718-6.685
		l-3.109-3.104l-2.153-4.655c0,0-4.066-4.893-4.066-5.491c0-0.596-5.381-7.16-5.381-7.16s-4.904-1.433-6.339-1.433
		c-1.436,0-6.34-3.581-6.34-3.581l-8.97-6.922l-7.535-6.923l-6.219-4.415l-7.895-8.476v-7.399l6.34-9.667
		c0,0,8.013-2.029,10.166-3.939c2.153-1.911,7.894-8.355,7.894-8.355s2.632,2.625,4.425,2.745c1.794,0.118,22.845-0.12,22.845-0.12
		l13.753-2.625c0,0,3.709-1.79,11.243-1.909c7.535-0.119,11.96,0.717,11.96,0.717l11.242,10.025c0,0,7.654,5.371,13.993,5.013
		c6.339-0.359,9.448-2.625,11.841-3.462c2.393-0.836,13.156-9.786,13.156-9.786l1.436-3.462c0,0,0.238-12.892,2.75-16.83
		s8.014-12.172,9.209-13.487c1.197-1.313,7.296-6.324,12.678-7.399c5.383-1.074,12.438-0.835,12.438-0.835l2.632,2.267l1.794,1.313
		l-0.958,4.416c0,0-2.271,6.564-2.988,8.356c-0.719,1.789-5.98,9.069-7.177,10.86c-1.196,1.79-4.426,4.893-4.066,6.684
		c0.358,1.789,6.817,9.43,6.817,9.43s6.578,4.416,11.84,4.177c5.263-0.238,17.582-3.58,17.582-3.58l6.938-2.984l7.295,1.432
		l2.751,4.775l-0.599,6.207l-12.08,8.235l-8.73,11.696l-1.913-0.835l-4.066,2.983l-5.263,0.955l-10.645,15.516l-0.358,4.774
		L460.291,164.2l-5.621-0.358c0,0,1.196,3.342,1.436,4.535c0.239,1.194-2.512,6.089-2.512,6.089s-8.852,8.593-10.645,10.741
		c-1.794,2.148-4.665,2.506-4.665,2.506l-4.306,4.654c0,0-7.295,3.58-8.372,5.372c-1.075,1.79-2.511,4.896-2.511,4.896l-2.393,2.862
		l0.24,5.609c0,0-1.914,3.464-1.795,5.49c0.119,2.029-0.12,6.564,0.957,7.759c1.076,1.193,0.238,4.895,0.238,4.895
		s-3.826,3.701-3.826,5.013s-0.838,4.773-0.838,4.773l-2.87,2.388c0,0,1.316,3.698,2.034,4.534c0.717,0.837,5.74,5.491,6.696,6.924
		c0.957,1.433,2.751,3.58,2.751,4.416c0,0.835,0.479,4.895,0.479,4.895l4.066,3.581c0,0,4.425,3.697,4.904,5.251
		c0.479,1.552,2.392,3.937,3.468,4.653s4.664,0.598,4.664,0.598s1.197,5.369,0.958,7.279c-0.24,1.911-1.436,5.61-1.436,5.61
		l-3.11,3.104c0,0,1.675,6.802,1.675,8.116c0,1.313-0.717,2.507-0.717,2.507l-6.34-1.193l-1.076-2.03l-5.383-1.551l-1.195-2.387
		l-4.904,0.356l-3.588-2.506l-8.491,1.074l-5.979,2.745l-0.359,3.82c0,0-4.065-1.909-5.382-2.148c-1.315-0.238-3.229-3.7-3.229-3.7
		l-1.555-1.791l-1.555-8.711c0,0-3.349-3.104-4.186-3.342c-0.838-0.239-4.426-0.598-4.426-0.598s-2.034,4.535-2.871,4.535
		c-0.836,0-3.826,0.717-3.826,0.717s-1.675,3.223-3.229,3.938c-1.556,0.716-4.664,3.46-4.664,3.46l1.794,4.059l-1.076,2.028
		l-7.057,5.851l-8.611-0.358l-1.436,3.819c0,0,4.665,4.297,4.665,5.133c0,0.835-7.177-0.957-9.688,0.477
		C343.082,316.021,340.093,317.095,340.093,317.095z"/>
	<path fill="none" stroke="#2694BF" stroke-linejoin="round" stroke-miterlimit="10" d="M492.822,123.738l-1.913-0.835l-4.066,2.983
		l-5.263,0.955l-10.645,15.516l-0.358,4.774L460.291,164.2l-5.621-0.358c0,0,1.196,3.342,1.436,4.535
		c0.239,1.194-2.512,6.089-2.512,6.089s-8.852,8.593-10.645,10.741c-1.794,2.148-4.665,2.506-4.665,2.506l-4.306,4.654
		c0,0-7.295,3.58-8.372,5.372c-1.075,1.79-2.511,4.896-2.511,4.896l-2.393,2.862l0.24,5.609c0,0-1.914,3.464-1.795,5.49
		c0.119,2.029-0.12,6.564,0.957,7.759c1.076,1.193,0.238,4.895,0.238,4.895s-3.826,3.701-3.826,5.013s-0.838,4.773-0.838,4.773
		l-2.87,2.388c0,0,1.316,3.698,2.034,4.534c0.717,0.837,5.74,5.491,6.696,6.924c0.957,1.433,2.751,3.58,2.751,4.416
		c0,0.835,0.479,4.895,0.479,4.895l4.066,3.581c0,0,4.425,3.697,4.904,5.251c0.479,1.552,2.392,3.937,3.468,4.653
		s4.664,0.598,4.664,0.598s1.197,5.369,0.958,7.279c-0.24,1.911-1.436,5.61-1.436,5.61l-3.11,3.104c0,0,1.675,6.802,1.675,8.116
		c0,1.313-0.717,2.507-0.717,2.507l-6.34-1.193l-1.076-2.03l-5.383-1.551l-1.195-2.387l-4.904,0.356l-3.588-2.506l-8.491,1.074
		l-5.979,2.745l-0.359,3.82c0,0-4.065-1.909-5.382-2.148c-1.315-0.238-3.229-3.7-3.229-3.7l-1.555-1.791l-1.555-8.711
		c0,0-3.349-3.104-4.186-3.342c-0.838-0.239-4.426-0.598-4.426-0.598s-2.034,4.535-2.871,4.535c-0.836,0-3.826,0.717-3.826,0.717
		s-1.675,3.223-3.229,3.938c-1.556,0.716-4.664,3.46-4.664,3.46l1.794,4.059l-1.076,2.028l-7.057,5.851l-8.611-0.358l-1.436,3.819
		c0,0,4.665,4.297,4.665,5.133c0,0.835-7.177-0.957-9.688,0.477c-1.362,0.777-2.865,1.447-3.955,1.899l-1.546,0.606
		c0.956,2.624,7.057,6.325,7.057,6.325l9.329,5.251l22.365,22.32l2.631,6.207l2.271,2.328l6.399,8.594l2.512,9.729l8.552,3.818
		l3.109-0.417l4.425,2.388l6.04,8.175c0,0-0.299,1.73,0,2.268c0.3,0.537,4.725,4.715,4.725,4.715l4.126,1.074
		c0,0,1.973,9.908,2.153,10.92c0.179,1.016,2.332,3.821,2.332,3.821s-1.975,0.178-2.812,0.059c-0.837-0.12-2.69,1.911-2.69,1.911
		l-1.495-1.792c0,0-1.196,0.539-3.17,0.776c-1.974,0.238-7.116-0.478-7.116-0.478l-1.494,2.565l-2.153-0.834l-1.076-6.148
		l-1.196-3.103c0,0-4.844,2.328-6.1,2.269c-1.255-0.061-3.049-1.552-3.049-1.552s-0.897,2.625-0.958,3.402
		c-0.061,0.776-5.023,2.327-5.023,2.327l-1.494,3.223l-5.562-0.061l-2.691,3.702c0,0-4.365-0.359-5.262-0.659
		c-0.896-0.299-5.622-2.327-5.622-2.327l-0.419,7.043l6.459,4.477l-1.734,1.789c0,0,4.066,1.97,4.664,2.147
		c0.598,0.18,5.563,6.089,5.563,6.089s-2.631,2.387-3.469,2.863c-0.838,0.478-1.734,3.223-1.734,3.223l3.139,5.191l3.141,0.896
		l5.74,7.339l0.359,5.015l-1.795,1.701l0.18,2.326l-6.548,3.759l-6.368,3.403l-1.346,5.102l-2.602,0.359l0.27,8.952h-3.14
		l0.896,2.685l-1.435,1.7l11.84-0.179l4.216,3.939l-1.614,2.238c0,0,0.358,2.236,0.627,2.147c0.27-0.091,4.575,0.358,4.575,0.358
		l6.279,10.025l3.319-0.09l-1.077,7.879l-0.896,1.521l3.229,1.612l-2.691,2.953l-4.037-0.537l-4.484,2.864v7.878l-7.176,7.25
		l-1.166,2.775l-4.127,0.358l-3.229-3.222l-4.755-1.433l-5.112,3.76l0.717,2.595l2.691,1.701v6.267l-1.076,2.148l1.704,2.147v6.446
		l-5.023,7.608l5.023,0.896v2.865c0,0-3.14,2.864-4.754,3.491c-1.614,0.626-3.499,3.58-3.499,3.58l7.32,2.954
		c1.974,0.538,12.2,5.371,12.2,5.371l2.152,7.878l13.455,5.908c0,0,6.1,0.358,12.199,0c6.101-0.358,12.021-1.074,12.021-1.074
		l1.614-9.131c0,0,4.306-17.366,4.664-18.084c0.359-0.715,6.279-3.222,10.227-3.579c3.946-0.358,9.508-1.611,10.764-3.224
		c1.256-1.611-1.615-4.833-1.615-4.833s0-6.446,0-8.772c0-2.328,6.279-6.267,6.279-6.267s9.149-2.148,10.047-1.969
		c0.897,0.179,4.126-1.79,4.126-1.79s1.615-5.193,1.795-6.446c0.179-1.254,6.1-2.865,6.1-2.865h6.127
		c0,0,8.225-10.384,11.095-15.934s2.87-7.52,2.87-8.951c0-1.434-2.152-6.804-2.512-8.235c-0.358-1.432-5.382-7.521-5.382-7.521
		s0.718-13.606-1.076-17.545s-6.817-9.31-4.306-10.025s11.482-8.952,11.482-8.952v-7.877c0,0,7.533-2.865,11.122-5.73
		c3.588-2.863,3.229-14.68,3.229-17.187c0-2.506,0-7.161-1.076-8.594s-8.971-8.594-10.047-10.025c-1.076-1.433,0-10.742,0-10.742
		s8.252-5.372,7.535-12.176c-0.718-6.802,2.152-7.519,1.793-10.74c-0.357-3.224-1.793-4.298-1.793-4.298s2.87-2.506,5.382-5.37
		c2.512-2.865,0-8.952,0-8.952l7.535-8.235c0,0,1.076-18.263,0.358-20.769s-6.1-6.087-5.382-7.161s2.152-4.308,2.152-4.308h5.741
		l3.588-6.435v-9.669l5.023-5.811c0,0,4.664,1.156,6.458-0.275c1.794-1.433,6.459,1.073,8.253,0
		c1.794-1.074,13.635-13.606,13.635-13.606l3.229-7.52c0,0-1.076-4.654-1.076-7.162c0-2.506,3.588-7.159,3.588-9.31
		c0-2.148-6.816-20.768-7.176-22.2s0-5.729,0-7.16c0-1.433,8.252-2.508,8.252-2.508s5.382-7.877,7.177-9.668
		c1.794-1.79,9.149-7.521,9.149-7.521s15.248-0.715,19.375-0.535c4.126,0.18,10.405,0.18,13.455,0.18s4.126-4.299,5.029-6.447
		c0.903-2.146-0.186-2.864-0.006-5.191s-3.408-5.729-3.408-5.729s-15.968-9.131-18.3-13.07s-2.332-16.472-3.408-19.156
		c-1.077-2.686-4.306-2.865-5.921-3.76c-1.614-0.896-4.664,0.717-6.637,2.865c-1.974,2.148-4.665,0.895-12.021,0.895
		s-6.458-4.297-10.405-6.266c-3.947-1.971-6.638-2.15-9.508-1.611c-2.871,0.536-12.021,6.444-13.455,8.234
		c-1.436,1.791-1.436,3.581-3.768,6.625c-2.332,3.045-2.153,5.013-1.436,8.414c0.718,3.402,2.332,7.52,2.871,8.772
		c0.537,1.253,0.179,4.477-1.077,5.192c-1.256,0.717-3.408,2.328-4.306,1.611c-0.896-0.716-2.69-0.357-4.844,0.537
		c-2.152,0.896-4.844-2.327-5.92-3.76c-1.076-1.432-6.279-5.55-6.279-5.55s-0.896-2.327-0.718-5.192
		c0.18-2.864-2.153-11.816-3.229-13.606c-1.076-1.791-1.973-7.161-1.973-10.563c0-3.4-6.279-8.056-7.535-10.026
		c-1.256-1.968-3.947-5.728-3.947-5.728s2.332-3.401,0-5.729c-2.332-2.329,0.1-3.938,1.037-5.192L492.822,123.738z"/>
	<path fill="none" stroke="#2694BF" stroke-linejoin="round" stroke-miterlimit="10" d="M302.299,259.683l2.751-2.385
		c0,0,4.665-0.716,7.296-1.909s10.764-3.939,10.764-3.939s7.176-3.221,8.492-3.699c1.314-0.478,5.979-6.207,5.979-6.207
		s1.316-7.043,0.479-9.668s-2.513-12.413-2.393-15.04c0.12-2.624,3.588-7.397,4.426-8.831c0.837-1.433,1.435-6.445,0.956-7.043
		c-0.479-0.597,0.17-4.654,0.17-4.654l4.375-4.772l2.631-3.939c0,0,1.197-4.895,2.273-5.969s2.631-1.551,2.631-1.551l-0.718-6.685
		l-3.109-3.104l-2.153-4.655c0,0-4.066-4.893-4.066-5.491c0-0.596-5.381-7.16-5.381-7.16s-4.904-1.433-6.339-1.433
		c-1.436,0-6.34-3.581-6.34-3.581l-8.97-6.922l-7.535-6.923l-6.219-4.415l-7.895-8.476v-7.399l6.34-9.667
		c0,0,8.013-2.029,10.166-3.939c2.153-1.911,7.894-8.355,7.894-8.355l0.653-1.909c0,0-2.153-10.742-1.674-14.323
		s2.631-11.697,3.588-14.801c0.958-3.101-1.675-5.728-1.675-5.728l1.675-1.672l-1.196-5.253l1.196-3.341c0,0-1.435-6.445-3.349-9.07
		c-1.914-2.625-13.634-10.504-15.787-11.698c-2.153-1.192-6.698-4.296-7.895-8.354c-1.195-4.058-6.458-6.207-6.458-6.207
		s-5.741-1.433-6.937-1.909c-1.196-0.479-6.698,0.954-6.698,0.954s-15.309,11.459-16.743,12.411
		c-1.436,0.957-6.938,2.149-8.851,2.629c-1.915,0.478-6.698,0-6.698,0l-5.741,9.069l-0.478,8.354c0,0,1.195,4.775,1.913,7.64
		c0.718,2.865,4.545,6.923,8.133,9.311c3.588,2.386,0,6.444,0,6.444s-2.392,3.342-4.066,3.342s-3.349,1.433-5.741,3.821
		c-2.392,2.385-5.741,4.057-5.741,4.057l0.718,7.401c0,0-1.675,6.922-1.675,10.025c0,3.102-3.588,9.547-6.458,12.412
		c-2.871,2.863-9.329,9.549-9.329,9.549s-7.654,8.116-9.568,12.891s-7.176,18.143-7.176,18.143s-5.502,4.057-10.047,9.31
		c-4.544,5.253-10.524,4.296-14.112,4.296c-3.588,0-7.894,1.434-11.482,1.434s-11.242-0.479-11.242-0.479s-15.31-6.206-17.701-6.445
		c-2.392-0.237-6.22-0.717-9.569,0c-3.349,0.716-9.807,4.775-9.807,4.775s-7.416,6.683-9.329,9.07
		c-1.913,2.389-6.459,2.625-8.134,2.625s-1.674,1.672-4.305,4.06c-2.632,2.386-2.631,3.103-2.631,3.103l-0.718,16.949
		c0,0-1.914,4.535-4.545,10.979c-2.631,6.445-2.392,10.981-2.392,10.981l0.717,15.279l2.632,5.728l-0.957,3.581l1.195,4.534
		l0.479,6.925c0,0-3.588,5.967-3.828,7.399c-0.238,1.432-2.87,7.876-5.74,10.741c-2.871,2.864-12.439,10.026-12.439,10.026
		l4.785,10.503l4.544,1.909c0,0,9.329,7.401,9.808,9.311c0.479,1.909-0.479,7.401-0.479,7.401l-7.893,5.249
		c0,0-10.525,6.687-12.439,8.596c-1.914,1.909,1.674,15.754,0.479,17.426c-1.195,1.671-3.349,5.489-6.219,6.206
		c-2.871,0.716-7.176-5.251-9.329-2.626c-2.153,2.626,4.306,11.936,3.109,14.084c-1.196,2.148-5.502,7.64-5.502,7.64
		s1.914,7.877,0.958,11.22c-0.957,3.341-3.11,8.594-3.11,12.412c0,3.821,0.718,8.594,1.675,9.072
		c0.958,0.477,3.11,1.431,4.785,5.013c1.675,3.58-1.197,5.013-1.197,5.013s-11.96,0.478-13.634,1.672
		c-1.674,1.193-5.741,5.012-6.697,8.115c-0.957,3.103-1.435,3.579-1.435,5.49c0,1.91,5.741,7.639,5.741,7.639
		s11.72,11.22,13.395,13.368c1.674,2.147,2.871,5.012,2.871,5.012s7.893-0.237,10.286,0.479c2.393,0.716,9.329,10.264,13.635,14.323
		c4.306,4.059,12.199,7.877,12.199,7.877s9.807,0,11.96,0c2.152,0,10.524-2.629,10.524-2.629l1.632,2.614l1.239,0.251l2.695-1.016
		l5.382-4.654l8.612-5.191l9.508-3.581h5.203l3.947-2.146l-0.717-3.939l-2.96-4.567l4.216-0.894l1.166-8.325l6.548-3.313
		l2.153-10.742c0,0,5.202,2.686,7.445,1.701c2.243-0.985,5.651-7.431,5.651-7.431s1.076-12.175,1.794-13.696
		c0.718-1.521,5.831-7.25,5.831-7.25s2.512,1.074,4.216,1.879c1.704,0.806,3.499-2.863,4.396-1.879s3.767,1.094,3.946-0.17
		c0.18-1.264-0.269-10.393-0.269-10.393l1.705-5.104l8.79-5.997c0,0,1.795-2.327,2.063-3.938c0.27-1.612-0.18-4.477-0.18-4.477
		l-3.498-2.954c0,0,0.359-4.655-0.448-5.281c-0.808-0.627-1.974-4.388-1.974-4.388l1.614-3.848l-2.511-4.656
		c0,0,2.422-4.654,2.96-5.459c0.538-0.807,0.269-5.729,0.269-5.729s5.562,0.806,6.639,0.984c1.076,0.178,8.701,1.164,8.701,1.164
		s6.189,3.313,7.804,3.133c1.615-0.179,6.997-2.06,6.997-2.06l2.87-0.536c0,0,0-6.356-0.358-7.251
		c-0.359-0.896-3.409-4.566-3.409-4.566s-1.076-8.146-1.076-7.786c0,0.356-2.152-5.373-2.152-5.373l-3.409-5.46l-0.089-6.534
		l1.166-4.208l4.665-3.132h2.811l11.243-10.713l-0.479-2.387l8.611-6.685h4.784l3.827-6.684l9.807-6.208l5.197-2.148h6.524
		c0,0,5.022,0.957,8.85,0.957c3.828,0,5.741,0,5.741,0l2.153,0.955l5.502-1.912H302.299"/>
</g>
<g id="zoneMapDaejeon4">
	<path fill="none" stroke="#25B8F1" stroke-width="3" stroke-linecap="round" stroke-linejoin="round" stroke-miterlimit="10" d="
		M614.631,199.199c0.18-2.327-3.409-5.729-3.409-5.729s-15.967-9.13-18.3-13.071c-2.331-3.938-2.331-16.471-3.408-19.155
		c-1.075-2.686-4.305-2.864-5.919-3.76c-1.615-0.896-4.665,0.717-6.638,2.865c-1.975,2.147-4.665,0.895-12.021,0.895
		s-6.458-4.297-10.405-6.266c-3.947-1.97-6.638-2.15-9.509-1.611c-2.87,0.536-12.02,6.444-13.455,8.235
		c-1.435,1.79-1.435,3.58-3.767,6.624c-2.333,3.045-2.153,5.013-1.436,8.414c0.718,3.402,2.332,7.521,2.87,8.772
		c0.539,1.253,0.18,4.477-1.076,5.191c-1.256,0.718-3.408,2.329-4.306,1.612c-0.897-0.716-2.69-0.357-4.844,0.537
		c-2.152,0.895-4.844-2.328-5.92-3.76c-1.076-1.431-6.279-5.55-6.279-5.55s-0.896-2.327-0.717-5.191
		c0.179-2.865-2.153-11.817-3.23-13.607c-1.076-1.791-1.973-7.161-1.973-10.563c0-3.4-6.279-8.057-7.535-10.026
		c-1.256-1.968-3.947-5.727-3.947-5.727s2.332-3.401,0-5.731c-2.331-2.327,0.1-3.938,1.037-5.19l2.378-4.177l8.73-11.697
		l12.079-8.234l0.599-6.207l-2.752-4.774l-7.295-1.433l-6.937,2.984c0,0-12.319,3.344-17.582,3.58
		c-5.262,0.239-11.84-4.177-11.84-4.177s-6.459-7.64-6.817-9.431c-0.358-1.79,2.87-4.893,4.066-6.683
		c1.196-1.791,6.459-9.071,7.176-10.86c0.718-1.792,2.989-8.356,2.989-8.356l0.958-4.416l-1.794-1.313l-2.632-2.266
		c0,0-7.056-0.24-12.438,0.833c-5.382,1.076-11.482,6.088-12.679,7.4c-1.196,1.315-6.697,9.55-9.209,13.486
		c-2.511,3.939-2.75,16.83-2.75,16.83l-1.436,3.462c0,0-10.764,8.951-13.156,9.786c-2.393,0.837-5.501,3.104-11.841,3.463
		c-6.339,0.358-13.993-5.014-13.993-5.014L383.03,90.169c0,0-4.427-0.835-11.961-0.716s-11.243,1.909-11.243,1.909l-13.754,2.626
		c0,0-21.049,0.238-22.844,0.119c-1.794-0.119-4.426-2.745-4.426-2.745l0.654-1.909c0,0-2.153-10.743-1.674-14.323
		c0.479-3.581,2.63-11.697,3.587-14.801c0.958-3.101-1.674-5.728-1.674-5.728l1.674-1.672l-1.195-5.253l1.195-3.341
		c0,0-1.435-6.445-3.349-9.07c-1.914-2.626-13.634-10.504-15.787-11.698c-2.153-1.192-6.698-4.296-7.894-8.354
		s-6.458-6.207-6.458-6.207s-5.742-1.433-6.937-1.909c-1.197-0.479-6.697,0.955-6.697,0.955s-15.31,11.458-16.744,12.41
		c-1.436,0.956-6.938,2.149-8.851,2.628c-1.914,0.479-6.698,0-6.698,0l-5.74,9.069l-0.479,8.355c0,0,1.196,4.775,1.915,7.641
		c0.717,2.863,4.544,6.922,8.132,9.31c3.588,2.386,0,6.444,0,6.444s-2.392,3.341-4.065,3.341c-1.675,0-3.35,1.433-5.742,3.822
		c-2.391,2.385-5.74,4.057-5.74,4.057l0.717,7.401c0,0-1.675,6.922-1.675,10.025c0,3.102-3.588,9.548-6.459,12.412
		c-2.87,2.863-9.328,9.547-9.328,9.547s-7.654,8.118-9.567,12.893c-1.914,4.774-7.177,18.143-7.177,18.143s-5.502,4.058-10.047,9.31
		c-4.544,5.253-10.523,4.296-14.112,4.296c-3.588,0-7.894,1.434-11.481,1.434c-3.589,0-11.242-0.479-11.242-0.479
		s-15.31-6.206-17.701-6.445c-2.393-0.237-6.22-0.718-9.568,0c-3.349,0.715-9.807,4.775-9.807,4.775s-7.416,6.683-9.329,9.07
		c-1.913,2.389-6.458,2.625-8.133,2.625s-1.674,1.672-4.306,4.06c-2.631,2.386-2.631,3.103-2.631,3.103l-0.717,16.949
		c0,0-1.914,4.533-4.545,10.979c-2.632,6.445-2.393,10.981-2.393,10.981l0.718,15.277l2.631,5.729l-0.956,3.581l1.195,4.535
		l0.479,6.924c0,0-3.587,5.967-3.827,7.399c-0.239,1.432-2.871,7.876-5.741,10.741c-2.871,2.864-12.439,10.026-12.439,10.026
		l4.785,10.504l4.544,1.909c0,0,9.329,7.4,9.808,9.309c0.479,1.909-0.479,7.402-0.479,7.402l-7.894,5.25
		c0,0-10.524,6.685-12.438,8.594s1.674,15.755,0.479,17.427c-1.195,1.671-3.349,5.489-6.22,6.205
		c-2.87,0.718-7.176-5.25-9.328-2.625c-2.152,2.625,4.306,11.936,3.108,14.084c-1.196,2.148-5.501,7.64-5.501,7.64
		s1.914,7.878,0.957,11.219c-0.956,3.343-3.11,8.594-3.11,12.413c0,3.821,0.718,8.594,1.675,9.071s3.109,1.432,4.785,5.014
		c1.674,3.581-1.196,5.012-1.196,5.012s-11.961,0.479-13.635,1.673c-1.673,1.193-5.74,5.011-6.697,8.114
		c-0.957,3.104-1.436,3.58-1.436,5.491c0,1.91,5.741,7.639,5.741,7.639s11.721,11.22,13.395,13.367
		c1.674,2.148,2.87,5.013,2.87,5.013s7.895-0.237,10.287,0.479c2.393,0.716,9.329,10.263,13.634,14.323
		c4.306,4.059,12.2,7.876,12.2,7.876s9.807,0,11.959,0c2.153,0,10.525-2.628,10.525-2.628l1.632,2.614l1.239,0.25
		c0,0-3.35,4.298-7.177,6.684c-3.827,2.39-3.828,5.254-9.568,6.686c-5.741,1.431-5.741,6.206-5.741,10.504
		c0,4.297-1.435,5.729,0,10.98c1.436,5.252,0.958,11.458,4.305,14.8c3.349,3.342,4.784,5.252,4.784,5.252s11.004,8.593,12.917,10.98
		c0.402,0.5,1.092,2.174,1.73,3.871c0.791,2.096,3.277,2.604,3.597,3.888c0.276,1.11-1.357,2.392-0.433,4.556
		c0.911,2.129,2.005,4.37,2.759,4.873c2.871,1.908,11.794,4.464,14.353,1.91c0.845-0.843,0-4.775,0-4.775l-0.294-6.446l1.729-4.854
		l4.251,5.093l1.435-1.91l5.796,7.164l8.132,3.818l7.176,11.457l7.655,8.116l2.87,19.097c0,0,12.917-0.477,14.352,2.389
		c1.436,2.865,4.307,8.116,1.913,10.503c-1.046,1.044,0.038,4.859-0.293,7.757c-0.426,3.732-2.098,6.565-2.098,6.565L185.982,633
		c0,0,2.392,0,4.784,0s8.133-6.205,9.568-13.366c1.436-7.163,12.438-10.505,12.438-10.505l5.741-8.117V586.69l10.524-7.641
		l4.783-5.729c0,0,10.525-3.818,11.961-6.206s2.392-7.638-1.937-18.143c-4.329-10.505,0-11.936,0-11.936l5.286-11.935v-6.208
		l5.49-4.772l-2.619-6.686l-1.436-7.162c0,0-7.176-11.457-6.698-15.275c0.479-3.819,0-11.458,0-11.458s10.047-11.938,14.831-13.369
		c1.515-0.453,2.743-0.62,3.713-0.635l1.345-4.497L263,457.568h5.691l8.88,4.722c0,0,1.256,3.044,0.987,3.044
		c-0.27,0,5.651,0,5.651,0s2.242,4.118,5.561,6.178c3.318,2.059,7.445,3.76,7.445,3.76l1.076,7.429h-2.243
		c0,0-1.614,3.224-1.435,4.925c0.179,1.699,0,3.759-0.449,4.385c-0.448,0.627-4.216,3.043-3.768,7.699c0,0,0.719,3.4,1.436,3.67
		c0.718,0.27,1.704,1.521,1.704,1.521s-0.897,3.223-0.897,4.297c0,1.075,3.229,2.774,3.947,3.224
		c0.717,0.448,1.884,1.521,1.794,2.506c-0.09,0.984-0.808,2.507-0.808,3.669c0,1.166,0,3.402-0.897,4.299
		c-0.896,0.895-4.933,4.116-5.112,5.013c-0.18,0.896,0,4.384,0,4.384l4.306,1.077l1.884-0.538c0,0,0.897,1.254,2.691,1.61
		c1.794,0.359,2.333-0.356,2.781,0c0.449,0.359,2.781,1.792,2.781,1.792h3.05c0,0,0.628,1.254,1.525,0.984
		c0.896-0.269,1.076-1.7,2.601-1.7s4.036-1.254,4.036-1.254l0.359,5.729c0,0,0.897,4.208,2.153,5.37
		c1.255,1.164,1.435,3.492,1.435,3.492s1.615,3.67,2.782,4.565c1.165,0.895,1.613,3.401,1.613,3.401l2.243-1.075l8.97,10.295
		l-5.383,8.594l2.962,2.506h4.933l2.602,3.133c0,0,12.02,5.552,12.109,5.819c0.09,0.269,1.704-1.342,1.704-1.342l2.78,0.536
		l7.321,2.954c1.973,0.537,12.198,5.371,12.198,5.371l2.154,7.878l13.455,5.907c0,0,6.099,0.359,12.198,0
		c6.1-0.357,12.02-1.073,12.02-1.073l1.615-9.131c0,0,4.306-17.366,4.664-18.084c0.359-0.715,6.279-3.222,10.226-3.578
		c3.947-0.359,9.509-1.612,10.765-3.225c1.256-1.611-1.614-4.833-1.614-4.833s0-6.445,0-8.772c0-2.328,6.279-6.267,6.279-6.267
		s9.149-2.149,10.046-1.969c0.897,0.179,4.126-1.791,4.126-1.791s1.615-5.192,1.794-6.444c0.18-1.254,6.1-2.866,6.1-2.866h6.128
		c0,0,8.225-10.384,11.095-15.934c2.871-5.549,2.871-7.52,2.871-8.951c0-1.434-2.153-6.804-2.513-8.235
		c-0.358-1.432-5.382-7.521-5.382-7.521s0.718-13.606-1.076-17.546c-1.794-3.938-6.816-9.309-4.306-10.025
		c2.512-0.715,11.482-8.951,11.482-8.951v-7.877c0,0,7.534-2.865,11.122-5.73c3.589-2.863,3.229-14.68,3.229-17.187
		c0-2.506,0-7.161-1.076-8.594c-1.077-1.433-8.971-8.594-10.047-10.025c-1.076-1.433,0-10.743,0-10.743s8.252-5.371,7.535-12.174
		c-0.718-6.803,2.152-7.52,1.793-10.741c-0.358-3.224-1.793-4.298-1.793-4.298s2.87-2.506,5.382-5.371c2.512-2.863,0-8.951,0-8.951
		l7.534-8.236c0,0,1.077-18.261,0.359-20.769c-0.718-2.505-6.1-6.086-5.382-7.159c0.718-1.075,2.153-4.31,2.153-4.31h5.74
		l3.588-6.435v-9.667l5.022-5.811c0,0,4.665,1.156,6.459-0.276s6.459,1.073,8.253,0c1.793-1.074,13.635-13.606,13.635-13.606
		l3.229-7.52c0,0-1.076-4.654-1.076-7.162c0-2.506,3.588-7.161,3.588-9.31c0-2.147-6.817-20.768-7.176-22.2
		c-0.359-1.433,0-5.729,0-7.161c0-1.432,8.252-2.507,8.252-2.507s5.383-7.877,7.177-9.667c1.794-1.791,9.149-7.521,9.149-7.521
		s15.248-0.715,19.375-0.535c4.126,0.18,10.404,0.18,13.455,0.18c3.05,0,4.126-4.299,5.029-6.447
		C615.54,202.244,614.451,201.526,614.631,199.199z"/>
</g>
</svg>
