<?xml version="1.0" encoding="utf-8"?>
<!-- Generator: Adobe Illustrator 16.0.0, SVG Export Plug-In . SVG Version: 6.00 Build 0)  -->
<!DOCTYPE svg PUBLIC "-//W3C//DTD SVG 1.1//EN" "http://www.w3.org/Graphics/SVG/1.1/DTD/svg11.dtd">
<svg version="1.1" xmlns="http://www.w3.org/2000/svg" xmlns:xlink="http://www.w3.org/1999/xlink" x="0px" y="0px" width="640px"
	 height="434px" viewBox="0 0 640 434" enable-background="new 0 0 640 434" xml:space="preserve">
<g id="zoneMapGwangju1">
	<path opacity="0.1" fill="#808080" d="M624.162,177.036c-2.021-1.72-2.696-4.473-4.043-8.256c-1.348-3.785-4.888-1.894-7.583-3.27
		c-2.695-1.377-12.806-11.697-15.333-14.104c-2.526-2.41-5.896-1.205-5.896-1.205s-9.604-0.345-16.512,0
		c-6.908,0.343-8.762,1.205-8.762,1.205s-0.674,4.644-1.348,8.428c-0.674,3.785-5.393-2.235-7.414-3.784s-8.424-1.032-8.424-1.032
		s-1.686,1.032-1.686,4.301c0,3.268,1.01,6.708-1.854,6.708c-2.864,0-3.875-1.721-5.897-6.021c-2.021-4.301-7.581-8.6-9.436-9.462
		c-1.853-0.859-3.2-4.987-4.548-7.224c-1.35-2.236,0-3.956,0-3.956l3.032-0.345l1.348-4.817c0,0,0.505-2.063,2.864-3.955
		c2.359-1.894,4.044-3.612,4.044-3.612v-6.022c0,0-1.348-2.408-3.37-2.408c-2.021,0-4.212-2.924-5.896-4.129
		c-1.686-1.205-4.887-1.72-4.887-1.72l-2.021-5.505c0,0-7.583-12.213-7.921-12.73c-0.336-0.516-3.537-6.707-3.537-9.977
		s4.885-6.709,4.885-8.258s-0.505-2.236-2.021-2.752c-1.516-0.516-2.863-5.504-3.874-8.086c-1.011-2.58-5.393-0.516-6.56-1.203
		s-1.191-0.688-1.359-2.753c-0.17-2.063,1.516-4.646,1.348-6.021c-0.17-1.375-4.55-3.613-6.74-4.988
		c-2.191-1.377-7.076-3.785-7.918-3.785c-0.843,0-4.213-0.345-4.213-0.345s-1.012-2.751-1.012-4.815s2.864-3.613,2.864-3.613
		s0.507-3.956,0-7.224c-0.505-3.269-0.505-4.474-3.032-8.085c-2.527-3.613-10.614-4.131-13.984-4.131
		c-3.369,0-7.751-1.548-10.951-5.505c-3.201-3.956-9.941-5.332-11.795-5.504c-1.853-0.171-6.065,0-6.065,0s-5.897,4.473-8.257,7.397
		c-2.357,2.925-4.381,6.709-6.738,6.709c-2.36,0-4.719,1.721-6.572,3.957c-1.853,2.235-6.908,5.849-8.424,5.849
		c-1.517,0-9.772-0.861-11.283-2.065c-1.51-1.204-0.006-5.676-0.006-5.676s0.338-1.204-4.043-1.204s-7.414,4.128-8.931,6.88
		c-1.517,2.754-4.381,2.581-4.381,2.581l-9.436,1.032c0,0-3.202,1.375-3.202,3.785c0,2.408-1.011,6.192-3.201,8.258
		c-2.189,2.063-8.592,3.61-11.793,3.956c-3.201,0.343-3.201,1.548-4.255,2.923c-1.054,1.379-4.171-0.859-7.034-0.859
		s-0.674,3.269-2.695,4.816c-2.023,1.548-5.223,0.688-5.223,0.688s0,0-0.17,4.473c-0.168,4.472-2.695,6.021-2.695,6.021
		l-6.668-0.589l-1.617,0.448c-1.366,0.566-3.63,1.304-5.582,0.971c-3.031-0.517-14.903-8.78-15.156-5.423
		c-0.252,3.357,1.768,8.007-2.273,9.814c-4.043,1.808-5.053,3.098-6.569,4.39c-1.515,1.29-6.062-2.841-9.094,1.549
		c-3.031,4.391-10.609,9.557-13.388,10.071c-2.778,0.517-4.294,0-3.789-3.357c0.505-3.357-1.768-5.165-3.537-3.099
		c-1.769,2.066-5.81,5.424-9.346,3.357c-3.537-2.066-6.821-6.714-9.347-6.455c-2.525,0.258-7.832,4.905-7.832,4.905
		s-0.252-2.84-2.273-5.423s-4.293-6.456-6.315-6.456s-6.82-1.032-8.083-3.099c-1.263-2.066-6.569-9.039-6.569-9.039
		s-3.284-2.324-5.051,0c-1.768,2.324-4.295,0-5.054-1.031c-0.757-1.034-8.839-1.55-8.839-1.55l-3.538,1.291l-3.283-4.649
		c0,0-1.779-7.23-1.394-9.296c0.384-2.065,3.162-6.456,3.162-6.456l8.336-8.263l1.263-7.231c0,0,4.041-3.357,4.041-5.681
		c0-2.324-0.505-5.94-0.505-5.94L196.966,7c0,0-6.063,2.066-7.074,2.581c-1.01,0.517-9.093,0-12.883,4.908
		c-3.788,4.905-9.094,5.68-11.367,5.938c-2.273,0.258-4.293-2.582-4.293-2.582s-4.042-1.292-5.811,3.873
		c-1.768,5.164-8.083,12.911-8.083,12.911l-2.021,9.556c0,0-0.505,4.907-3.284,7.489s-3.536,9.555-3.536,9.555
		s-0.758,4.905-3.032,7.488c-2.274,2.582-6.063,4.391-6.315,8.264s0.758,6.714,2.273,9.554c1.516,2.842,0,7.232,0,7.232
		s-3.536,1.808-3.283,4.391c0.252,2.581-1.768,4.905-1.768,4.905l-6.569-2.582c0,0-6.566,0.517-9.347,4.132
		c-2.778,3.614-8.082,7.747-10.861,5.164c-2.779-2.582-10.357-8.006-11.873-10.072c-1.516-2.064-6.568-5.938-10.61-3.872
		s-2.526,5.423-3.284,6.455c-0.758,1.034-6.566,5.939-6.566,5.939s-1.517,1.55-0.759,3.873c0.759,2.325,0.506,3.101-0.505,4.907
		c-1.01,1.807-4.042,3.1-3.79,5.94c0.253,2.839,2.527,6.197,1.01,7.229c-1.515,1.033-2.273,6.456-2.273,6.456
		s1.768,4.133,1.768,6.457c0,2.322-1.263,2.581-3.789,0.516c-2.525-2.067-3.536-5.423-6.569-5.681
		c-3.031-0.259-4.041,0.516-6.566,1.289c-2.527,0.775-8.337-0.257-8.337-0.257s-3.789-0.517-5.557,1.55
		c-1.768,2.066-3.537-3.1-5.305-2.066s-4.546,3.874-3.789,5.681c0.758,1.808,6.567,8.265,6.567,9.813s6.821,3.098,6.821,3.098
		l3.283,9.039c0,0,6.569,6.972,6.821,8.265c0.252,1.291,2.273,3.098,4.293,3.098s3.032,4.132,3.032,4.132s-0.253,4.132-1.769,4.648
		c-1.516,0.516-4.799,3.873-7.325,3.358c-2.526-0.518-4.548,0.773-6.063,2.84c-1.515,2.065-8.083,1.55-8.083,1.55
		s-6.315,2.841-6.315,5.164c0,2.324,0.253,6.198,1.263,8.78s-0.252,2.323-1.263,3.356c-1.01,1.033-5.811,3.873-4.799,6.973
		c1.01,3.098,5.305,1.549,3.79,3.873c-1.516,2.324-4.042,3.875-5.306,5.682c-1.263,1.809-3.789,7.229-4.799,7.746
		c-1.01,0.518-0.757,5.424,2.778,5.94c3.537,0.517,6.821-1.291,7.074,3.874c0.253,5.164,2.273,5.938,2.778,8.521
		c0.505,2.583-2.021,17.818-3.031,20.143s-3.284,10.846-2.527,13.428c0.759,2.582,4.8,2.841,5.053,6.716
		c0.252,3.872,3.031,8.521,6.063,8.004s4.042-0.517,7.073-1.29c3.031-0.776,7.074,1.807,9.094,4.13
		c2.021,2.324,1.768,4.133,0.253,6.716c-1.516,2.582-2.526,5.421-0.505,5.68c2.021,0.258,5.809,2.066,10.61,2.066
		c4.799,0,10.104-0.259,11.873-2.582c1.768-2.324,4.546-4.648,4.546-6.972c0-2.325,1.516-3.358,4.296-3.358
		c2.778,0,8.082-1.032,8.082,2.065c0,3.101,1.769,6.198,5.306,5.424c3.536-0.775,4.546-3.357,6.819-6.197
		c2.274-2.842,6.316-6.972,9.094-4.133c2.778,2.841,2.526,6.199,5.053,7.23c2.526,1.033,3.284-0.774,5.81-1.29
		c2.526-0.517,5.053-5.424,8.337-1.55c3.283,3.873,2.525,5.164,6.819,5.939c4.295,0.774,9.852,1.549,13.136,1.549
		s5.558-2.065,3.537-5.165c-2.021-3.099-6.063-4.389-5.306-9.296c0.759-4.905,4.053-2.323,6.068-2.841
		c2.016-0.516,4.037,0,4.037,2.324s1.263,9.813,1.263,9.813l9.347,6.199c0,0,10.105,3.614,11.368,8.521
		c1.263,4.906,6.316,15.493,6.316,15.493s6.819,6.715,10.61,6.456c3.789-0.258,6.819,0.776,6.819,3.356c0,2.583,0,9.556,0,9.556
		s4.294,2.583,4.294,6.714c0,4.132,1.011,8.264,2.021,10.072c1.01,1.808,4.293,4.905,5.557,7.487
		c1.263,2.583,1.515,6.714,1.515,6.714s-3.208,1.825-4.329,2.007c-1.12,0.181-7.068-2.007-7.068-2.007s-5.001-0.182-8.88,0.822
		c-3.879,1.003-6.983,4.01-6.983,4.01l0.346,5.925l5.689,5.193c0,0,1.293,5.653,1.379,6.473c0.086,0.821,3.276,0.73,3.276,0.73
		s3.104-7.019,3.621-7.565c0.517-0.547,5.085-1.186,5.085-1.186l4.052-3.372c0,0,4.311-0.091,4.569,0.455
		c0.259,0.547,0,3.465-0.346,4.284c-0.345,0.821-1.81,3.556-1.81,3.556l-1.293,5.012c0,0,1.293,2.645,1.725,4.102
		c0.432,1.459,5.431,3.646,5.431,3.646l6.38,1.823l8.103-1.003l7.415-4.102l2.5-3.1l6.035-4.466c0,0,2.931-1.003,4.138-2.007
		c1.206-1.001,3.104-2.277,3.879-1.457s0.603,3.464,0.603,3.464l2.672,0.456c0,0,5.172,3.554,5.948,4.374s2.679,5.288,2.679,5.288
		L271.36,427l11.724-0.418l2.932-1.769l3.534-0.366c0,0,1.983,2.461,3.018,2.097c1.035-0.363,3.104-3.098,3.104-3.098l4.311-10.938
		c0,0,2.5-2.918,3.448-3.19c0.949-0.274,4.828-3.281,4.828-3.281h6.552l2.413-0.82l3.621-1.823h4.655l0.604-2.006l2.758-0.729h4.914
		c0,0,1.551-3.462,2.068-4.192c0.518-0.729,3.449-1.457,3.449-1.457l2.5-6.381l2.586-3.646l5.518-1.366l2.758-2.735l0.949-4.557
		l1.982-3.373l3.966-0.183l3.706-0.272l3.708,5.469l3.88,2.096l4.482-0.455l3.879,2.825h3.621l2.845-3.554l5-2.553l5.69-2.461
		l5.431-5.834l3.448-1.275l0.689,2.187l7.156,5.469l3.965-0.455l3.276-4.192h3.104l3.104-1.549l7.759,0.363l5-2.917l1.121-2.916
		l4.914-5.56l1.724-4.193l8.621-5.468l4.31-0.365l4.354,0.137l2.457,3.691l2.327,5.605l-0.388,5.606l2.587,0.956l2.457,4.238
		l5.948,6.837l3.879,2.05l-1.293,2.188l1.034,4.785l2.716-0.82c4.526-0.546,11.121,3.419,11.121,3.419l3.104,2.323l2.587-3.417
		l3.104,1.913h7.5l4.267-3.69l6.725-8.478l2.974-0.684l-0.388-2.461l-1.81-2.734l1.551-3.008l13.967-15.176h5.431l5.819-3.281h7.371
		l2.586-0.956l4.008-2.188c0,0,4.656,0.547,5.044-0.547s3.362-3.281,3.362-3.281l-1.164-4.238l-0.646-6.699l4.139-2.325l2.974,0.957
		l0.388-7.382l-0.518-2.325l9.311-8.065l0.389-5.196c0,0-0.389-1.776-0.905-3.828c-0.518-2.051,9.569-8.339,9.569-8.339v-5.059
		l0.346-0.058c0.687-1.515,1.549-3.021,2.309-4.106c1.684-2.408,4.549-0.344,5.728-0.688s3.876-14.277,3.876-14.277
		s1.685-8.773,1.348-14.968c-0.337-6.192-0.506-6.021-2.696-9.29c-2.19-3.268-2.864-8.257-2.864-8.257s0-15.138,0.337-20.297
		s6.739-8.774,7.582-10.494c0.843-1.721-0.843-3.957-0.843-3.957s2.865-4.473,3.875-5.504c1.012-1.031,1.518,1.375,3.033,1.719
		c1.517,0.346,1.854-1.203,4.044-3.096s2.359-3.613,2.526-8.602C626.688,180.82,626.185,178.757,624.162,177.036z"/>
</g>
<g id="zoneMapGwangju2">
	<g opacity="0.1">
		<path fill="#129EDA" d="M442.325,7c0.898,0,1.778,0.019,2.396,0.076c1.854,0.172,8.594,1.548,11.795,5.504
			c3.2,3.957,7.582,5.505,10.951,5.505c3.37,0,11.457,0.518,13.984,4.131c2.527,3.611,2.527,4.816,3.032,8.085
			c0.507,3.268,0,7.224,0,7.224s-2.864,1.549-2.864,3.613s1.012,4.815,1.012,4.815s3.37,0.345,4.213,0.345
			c0.842,0,5.727,2.408,7.918,3.785c2.19,1.375,6.57,3.613,6.74,4.988c0.168,1.375-1.518,3.957-1.348,6.021
			c0.168,2.064,0.192,2.065,1.359,2.753c0.186,0.109,0.452,0.149,0.772,0.149c0.862,0,2.12-0.287,3.261-0.287
			c1.108,0,2.107,0.271,2.526,1.341c1.011,2.582,2.358,7.57,3.874,8.086c1.517,0.516,2.021,1.203,2.021,2.752
			s-4.885,4.988-4.885,8.258s3.201,9.461,3.537,9.977c0.338,0.518,7.921,12.73,7.921,12.73l2.021,5.505c0,0,3.201,0.515,4.887,1.72
			c1.685,1.205,3.875,4.129,5.896,4.129c2.022,0,3.37,2.408,3.37,2.408v6.022c0,0-1.685,1.719-4.044,3.612
			c-2.359,1.892-2.864,3.955-2.864,3.955l-1.348,4.817l-3.032,0.345c0,0-1.35,1.72,0,3.956c1.348,2.236,2.695,6.364,4.548,7.224
			c1.854,0.862,7.414,5.161,9.436,9.462c2.022,4.3,3.033,6.021,5.897,6.021c2.863,0,1.854-3.44,1.854-6.708
			c0-3.269,1.686-4.301,1.686-4.301s1.025-0.083,2.385-0.083c2.037,0,4.826,0.186,6.039,1.115c1.552,1.189,4.693,5.014,6.374,5.014
			c0.509,0,0.884-0.351,1.04-1.229c0.674-3.784,1.348-8.428,1.348-8.428s1.854-0.862,8.762-1.205
			c2.303-0.115,4.904-0.153,7.352-0.153c4.892,0,9.16,0.153,9.16,0.153s0.843-0.301,2.001-0.301s2.633,0.301,3.896,1.506
			c2.527,2.407,12.638,12.728,15.333,14.104c2.695,1.376,6.235-0.516,7.583,3.27c1.347,3.783,2.021,6.536,4.043,8.256
			c2.022,1.722,2.526,3.784,2.357,8.773c-0.167,4.988-0.336,6.709-2.526,8.602c-1.982,1.713-2.446,3.144-3.642,3.144
			c-0.125,0-0.259-0.016-0.402-0.048c-1.252-0.284-1.814-1.974-2.542-1.974c-0.154,0-0.315,0.075-0.491,0.255
			c-1.01,1.031-3.875,5.504-3.875,5.504s1.686,2.236,0.843,3.957c-0.843,1.72-7.245,5.335-7.582,10.494s-0.337,20.297-0.337,20.297
			s0.674,4.989,2.864,8.257c2.19,3.269,2.359,3.098,2.696,9.29c0.337,6.194-1.348,14.968-1.348,14.968s-2.697,13.933-3.876,14.277
			c-0.096,0.028-0.201,0.04-0.317,0.04c-0.771,0-1.965-0.537-3.132-0.537c-0.825,0-1.638,0.269-2.278,1.186
			c-0.76,1.085-1.622,2.592-2.309,4.106l-0.346,0.058v5.059c0,0-10.087,6.288-9.569,8.339c0.517,2.052,0.905,3.828,0.905,3.828
			l-0.389,5.196l-9.311,8.065l0.518,2.325l-0.388,7.382l-2.974-0.957l-4.139,2.325l0.646,6.699l1.164,4.238
			c0,0-2.975,2.188-3.362,3.281c-0.194,0.547-1.455,0.684-2.667,0.684c-1.213,0-2.377-0.137-2.377-0.137l-4.008,2.188l-2.586,0.956
			h-7.371l-5.819,3.281h-5.431l-13.967,15.176l-1.551,3.008l1.81,2.734l0.388,2.461l-2.974,0.684l-6.725,8.478l-4.267,3.69h-7.5
			l-3.104-1.913l-2.587,3.417l-3.104-2.323c0,0-5.772-3.471-10.223-3.471c-0.307,0-0.607,0.017-0.898,0.052l-2.716,0.82
			l-1.034-4.785l1.293-2.188l-3.879-2.05l-5.948-6.837l-2.457-4.238l-2.587-0.956l0.388-5.606l-2.327-5.605l-2.457-3.691
			l-4.354-0.137l-4.31,0.365l-8.621,5.468l-1.724,4.193l-4.914,5.56l-1.121,2.916l-5,2.917l-7.759-0.363l-3.104,1.549h-3.104
			l-3.276,4.192l-3.965,0.455l-7.156-5.469l-0.689-2.187l-3.448,1.275l-5.431,5.834l-5.69,2.461l-5,2.553l-2.845,3.554h-3.621
			l-3.879-2.825l-4.482,0.455l-3.88-2.096l-3.708-5.469l-3.706,0.272l-3.966,0.183l-1.982,3.373l-0.949,4.557l-2.758,2.735
			l-5.518,1.366l-2.586,3.646l-2.5,6.381c0,0-2.932,0.728-3.449,1.457c-0.518,0.73-2.068,4.192-2.068,4.192h-4.914l-2.758,0.729
			l-0.604,2.006h-4.655l-3.621,1.823l-2.413,0.82h-6.552c0,0-3.879,3.007-4.828,3.281c-0.948,0.272-3.448,3.19-3.448,3.19
			l-4.311,10.938c0,0-2.069,2.734-3.104,3.098c-0.071,0.025-0.147,0.037-0.227,0.037c-1.072,0-2.791-2.133-2.791-2.133l-3.534,0.366
			l-2.932,1.769L271.36,427l-2.149-4.647c0,0-1.903-4.468-2.679-5.288s-5.948-4.374-5.948-4.374l-2.672-0.456
			c0,0,0.173-2.644-0.603-3.464c-0.174-0.184-0.404-0.262-0.67-0.262c-0.921,0-2.273,0.942-3.209,1.719
			c-1.208,1.004-4.138,2.007-4.138,2.007l-6.035,4.466l-2.5,3.1l-7.415,4.102l-8.103,1.003l-6.38-1.823c0,0-5-2.188-5.431-3.646
			c-0.431-1.457-1.725-4.102-1.725-4.102l1.293-5.012c0,0,1.465-2.734,1.81-3.556c0.346-0.819,0.604-3.737,0.346-4.284
			c-0.194-0.41-2.669-0.461-3.894-0.461c-0.407,0-0.676,0.006-0.676,0.006l-4.052,3.372c0,0-4.568,0.639-5.085,1.186
			c-0.518,0.547-3.621,7.565-3.621,7.565s-0.104,0.003-0.276,0.003c-0.777,0-2.93-0.061-3-0.733
			c-0.085-0.819-1.379-6.473-1.379-6.473l-5.689-5.193l-0.346-5.925c0,0,3.104-3.007,6.983-4.01
			c2.849-0.737,6.302-0.835,7.936-0.835c0.591,0,0.944,0.013,0.944,0.013s5.486,2.018,6.913,2.018c0.059,0,0.111-0.003,0.155-0.011
			c1.121-0.182,4.329-2.007,4.329-2.007s-0.252-4.131-1.515-6.714c-1.263-2.582-4.546-5.68-5.557-7.487
			c-1.01-1.809-2.021-5.94-2.021-10.072c0-4.131-4.294-6.714-4.294-6.714s0-6.973,0-9.556c0-2.325-2.461-3.395-5.721-3.395
			c-0.357,0-0.725,0.013-1.099,0.039c-0.072,0.005-0.145,0.007-0.218,0.007c-3.828,0-10.392-6.463-10.392-6.463
			s-5.053-10.587-6.316-15.493c-1.263-4.907-11.368-8.521-11.368-8.521l-9.347-6.199c0,0-1.263-7.488-1.263-9.813
			c0-1.79-1.198-2.507-2.669-2.507c-0.44,0-0.904,0.064-1.368,0.183c-0.203,0.052-0.419,0.073-0.645,0.073
			c-0.857,0-1.847-0.299-2.752-0.299c-1.215,0-2.28,0.54-2.671,3.067c-0.758,4.907,3.285,6.197,5.306,9.296
			c2.021,3.1-0.252,5.165-3.537,5.165s-8.841-0.774-13.136-1.549c-4.294-0.775-3.536-2.066-6.819-5.939
			c-0.916-1.081-1.773-1.478-2.588-1.478c-2.105,0-3.928,2.655-5.749,3.028c-1.981,0.404-2.874,1.604-4.386,1.604
			c-0.416,0-0.878-0.091-1.423-0.313c-2.527-1.031-2.274-4.39-5.053-7.23c-0.658-0.673-1.387-0.954-2.147-0.954
			c-2.447,0-5.212,2.918-6.947,5.087c-2.273,2.84-3.283,5.422-6.819,6.197c-0.374,0.082-0.727,0.121-1.061,0.121
			c-2.829,0-4.245-2.771-4.245-5.544c0-1.859-1.91-2.23-4.038-2.23c-1.418,0-2.933,0.165-4.044,0.165
			c-2.78,0-4.296,1.033-4.296,3.358c0,2.323-2.778,4.647-4.546,6.972c-1.768,2.323-7.074,2.582-11.873,2.582
			c-4.801,0-8.589-1.809-10.61-2.066c-2.021-0.259-1.01-3.098,0.505-5.68c1.515-2.583,1.768-4.392-0.253-6.716
			c-1.771-2.036-5.093-4.271-7.928-4.271c-0.4,0-0.792,0.044-1.167,0.141c-3.031,0.773-4.041,0.773-7.073,1.29
			c-0.156,0.027-0.312,0.04-0.466,0.04c-2.845,0-5.357-4.371-5.596-8.043c-0.253-3.875-4.294-4.134-5.053-6.716
			c-0.757-2.582,1.517-11.104,2.527-13.428s3.536-17.56,3.031-20.143c-0.505-2.583-2.525-3.357-2.778-8.521
			c-0.168-3.444-1.684-3.788-3.724-3.788c-0.51,0-1.052,0.021-1.615,0.021s-1.145-0.022-1.735-0.108
			c-3.536-0.517-3.789-5.423-2.778-5.94c1.01-0.517,3.536-5.938,4.799-7.746c1.264-1.807,3.791-3.357,5.306-5.682
			c1.515-2.324-2.779-0.775-3.79-3.873c-1.011-3.1,3.79-5.939,4.799-6.973c1.011-1.033,2.273-0.774,1.263-3.356
			s-1.263-6.456-1.263-8.78c0-2.323,6.315-5.164,6.315-5.164s0.728,0.057,1.756,0.057c2.058,0,5.316-0.229,6.327-1.607
			c1.289-1.758,2.944-2.954,4.964-2.954c0.355,0,0.722,0.037,1.099,0.114c0.179,0.037,0.361,0.053,0.547,0.053
			c2.435,0,5.37-2.933,6.778-3.412c1.516-0.517,1.769-4.648,1.769-4.648s-1.012-4.132-3.032-4.132s-4.041-1.807-4.293-3.098
			c-0.252-1.293-6.821-8.265-6.821-8.265l-3.283-9.039c0,0-6.821-1.549-6.821-3.098s-5.809-8.006-6.567-9.813
			c-0.758-1.807,2.021-4.647,3.789-5.681c0.164-0.096,0.328-0.138,0.491-0.138c1.305,0,2.61,2.697,3.915,2.697
			c0.3,0,0.6-0.143,0.899-0.493c1.179-1.377,3.256-1.607,4.509-1.607c0.627,0,1.048,0.058,1.048,0.058s3.07,0.545,5.718,0.545
			c0.995,0,1.929-0.077,2.619-0.289c2.187-0.669,3.237-1.34,5.447-1.34c0.342,0,0.713,0.016,1.12,0.051
			c3.033,0.258,4.043,3.613,6.569,5.681c1.151,0.942,2.041,1.4,2.667,1.4c0.747,0,1.121-0.653,1.121-1.916
			c0-2.324-1.768-6.457-1.768-6.457s0.758-5.423,2.273-6.456c1.517-1.032-0.757-4.391-1.01-7.229
			c-0.252-2.841,2.779-4.134,3.79-5.94c1.011-1.807,1.264-2.582,0.505-4.907c-0.758-2.323,0.759-3.873,0.759-3.873
			s5.809-4.905,6.566-5.939c0.758-1.032-0.758-4.39,3.284-6.455c0.809-0.413,1.657-0.589,2.51-0.588c3.411,0,6.887,2.809,8.1,4.46
			c1.516,2.066,9.093,7.49,11.873,10.072c0.605,0.563,1.331,0.807,2.124,0.807c2.847,0,6.564-3.144,8.737-5.971
			c2.78-3.615,9.347-4.132,9.347-4.132l6.569,2.582c0,0,2.021-2.324,1.768-4.905c-0.252-2.583,3.283-4.391,3.283-4.391
			s1.516-4.391,0-7.232c-1.515-2.84-2.525-5.681-2.273-9.554s4.041-5.682,6.315-8.264c2.274-2.583,3.032-7.488,3.032-7.488
			s0.757-6.973,3.536-9.555s3.284-7.489,3.284-7.489l2.021-9.556c0,0,6.315-7.747,8.083-12.911c1.179-3.443,3.368-4.017,4.697-4.017
			c0.665,0,1.114,0.144,1.114,0.144s1.849,2.599,3.999,2.599c0.098,0,0.196-0.005,0.294-0.017c2.273-0.259,7.579-1.033,11.367-5.938
			c3.79-4.908,11.873-4.392,12.883-4.908C190.902,9.067,196.966,7,196.966,7l5.051,3.355c0,0,0.505,3.616,0.505,5.94
			c0,2.323-4.041,5.681-4.041,5.681l-1.263,7.231l-8.336,8.263c0,0-2.778,4.391-3.162,6.456c-0.385,2.065,1.394,9.296,1.394,9.296
			l3.283,4.649l3.538-1.291c0,0,8.082,0.516,8.839,1.55c0.522,0.709,1.879,2.03,3.252,2.03c0.623,0,1.25-0.272,1.802-0.999
			c0.589-0.775,1.347-1.033,2.095-1.033c1.497,0,2.956,1.033,2.956,1.033s5.306,6.973,6.569,9.039
			c1.263,2.066,6.062,3.099,8.083,3.099s4.294,3.873,6.315,6.456s2.273,5.423,2.273,5.423s5.306-4.647,7.832-4.905
			c0.068-0.007,0.137-0.01,0.206-0.01c2.497,0,5.7,4.455,9.142,6.465c0.78,0.456,1.585,0.648,2.384,0.648
			c2.824,0,5.583-2.395,6.961-4.005c0.517-0.604,1.077-0.877,1.599-0.877c1.262,0,2.296,1.6,1.938,3.976
			c-0.399,2.649,0.46,3.529,2.206,3.529c0.466,0,0.997-0.063,1.583-0.172c2.779-0.515,10.357-5.681,13.388-10.071
			c1.119-1.62,2.444-2.08,3.747-2.079c1.71,0,3.383,0.792,4.5,0.792c0.338,0,0.625-0.073,0.848-0.262
			c1.516-1.292,2.526-2.582,6.569-4.39c4.041-1.808,2.021-6.457,2.273-9.814c0.042-0.564,0.413-0.8,1.014-0.8
			c2.978,0,11.621,5.793,14.143,6.223c0.337,0.058,0.684,0.083,1.034,0.083c1.674,0,3.418-0.585,4.548-1.054l1.617-0.448
			l6.668,0.589c0,0,2.527-1.549,2.695-6.021c0.17-4.473,0.17-4.473,0.17-4.473s0.886,0.238,2.02,0.238
			c1.021,0,2.244-0.193,3.203-0.926c2.021-1.548-0.168-4.816,2.695-4.816c2.189,0,4.526,1.308,5.977,1.308
			c0.447,0,0.81-0.124,1.058-0.449c1.054-1.375,1.054-2.58,4.255-2.923c3.201-0.346,9.604-1.894,11.793-3.956
			c2.19-2.065,3.201-5.85,3.201-8.258c0-2.41,3.202-3.785,3.202-3.785l9.436-1.032c0,0,0.035,0.002,0.101,0.002
			c0.521,0,2.933-0.136,4.28-2.583c1.517-2.752,4.55-6.88,8.931-6.88s4.043,1.204,4.043,1.204s-1.504,4.472,0.006,5.676
			c1.511,1.204,9.767,2.065,11.283,2.065c1.516,0,6.571-3.613,8.424-5.849c1.854-2.236,4.212-3.957,6.572-3.957
			c2.357,0,4.381-3.784,6.738-6.709c2.359-2.925,8.257-7.397,8.257-7.397S440.527,7,442.325,7 M442.325,0
			c-1.918,0-3.872,0.079-3.954,0.082c-1.429,0.058-2.806,0.552-3.945,1.417c-1.099,0.833-6.719,5.163-9.476,8.58
			c-0.668,0.829-1.264,1.646-1.839,2.437c-0.402,0.552-0.942,1.293-1.372,1.823c-3.589,0.583-7.096,2.781-10.041,6.334
			c-0.721,0.87-2.824,2.479-4.098,3.246c-0.888-0.08-2.073-0.22-3.229-0.386c0.078-1.718-0.454-3.459-1.527-4.875
			c-2.739-3.614-7.66-3.614-9.513-3.614c-5.694,0-10.816,3.381-14.515,9.551l-8.993,0.984c-0.689,0.075-1.364,0.253-2.001,0.526
			c-3.433,1.474-7.44,5.034-7.44,10.217c0,1.018-0.515,2.543-0.936,3.085c-1.163,0.71-5.084,1.875-7.811,2.169
			c-3.101,0.332-5.137,1.335-6.586,2.584c-1.148-0.305-2.484-0.561-3.951-0.561c-1.159,0-6.235,0.302-8.047,5.418
			c-0.032,0-0.064-0.001-0.096-0.001c-1.392,0-2.744,0.454-3.955,1.299c-1.797,1.256-2.732,3.332-2.815,5.523l-0.127,3.355
			l-1.796-0.159c-0.204-0.018-0.41-0.027-0.615-0.027c-0.631,0-1.26,0.085-1.87,0.254l-1.617,0.448
			c-0.276,0.077-0.547,0.17-0.811,0.279c-0.759,0.314-1.321,0.448-1.632,0.497c-0.874-0.384-2.551-1.275-3.718-1.895
			c-5.137-2.73-8.487-4.387-11.693-4.387c-4.315,0-7.677,3.059-7.995,7.274c-0.113,1.513,0.023,2.906,0.143,4.136
			c0.018,0.18,0.038,0.386,0.057,0.596c-1.95,0.982-3.307,1.898-4.432,2.793c-0.86-0.178-1.872-0.326-2.976-0.326
			c-3.858,0-7.234,1.811-9.507,5.1c-1.089,1.578-3.328,3.494-5.381,4.968c-0.374-0.798-0.846-1.535-1.412-2.191
			c-1.673-1.944-4.065-3.06-6.562-3.06c-2.625,0-5.081,1.18-6.917,3.325c-0.448,0.524-0.962,0.962-1.375,1.25
			c-0.648-0.509-1.38-1.168-2.052-1.774c-2.616-2.358-5.581-5.031-9.741-5.031c-0.309,0-0.618,0.016-0.922,0.047
			c-1.061,0.108-2.516,0.483-4.405,1.435c-0.201-0.272-0.412-0.562-0.628-0.86c-2.454-3.379-5.509-7.585-10.671-7.585
			c-0.608-0.013-1.915-0.303-2.662-0.604c-1.791-2.672-5.596-7.692-6.419-8.773c-0.431-0.566-0.946-1.064-1.527-1.475
			c-0.769-0.544-3.545-2.319-6.999-2.319c-1.337,0-2.627,0.268-3.808,0.773c-2.026-1.164-5.341-1.899-11.735-2.307
			c-0.148-0.009-0.297-0.014-0.446-0.014c-0.157,0-0.314,0.005-0.471,0.016c-0.388-1.816-0.696-3.592-0.778-4.52
			c0.315-0.74,1.01-2.044,1.718-3.224l7.742-7.673c1.031-1.021,1.718-2.338,1.968-3.768l0.857-4.908
			c2.205-2.257,4.551-5.523,4.551-9.208c0-2.732-0.514-6.489-0.572-6.908c-0.277-1.984-1.391-3.754-3.06-4.863l-5.051-3.355
			C199.677,0.398,198.327,0,196.965,0c-0.759,0-1.521,0.124-2.257,0.374c-3.91,1.333-5.873,2.067-6.896,2.482
			c-0.108,0.011-0.226,0.023-0.349,0.036c-3.367,0.352-11.251,1.177-15.994,7.319c-1.392,1.802-3.2,2.592-4.894,2.978
			c-0.831-0.932-1.898-1.628-3.096-2.011c-0.556-0.178-1.717-0.476-3.245-0.476c-5.212,0-9.443,3.271-11.319,8.749
			c-0.94,2.745-4.593,7.942-6.886,10.756c-0.704,0.864-1.192,1.883-1.423,2.974l-2.021,9.556c-0.058,0.274-0.088,0.434-0.112,0.706
			c-0.146,1.143-0.694,2.702-1.094,3.11c-4.219,3.921-5.411,11.233-5.7,13.71c-0.25,1.418-0.909,3.302-1.353,3.832
			c-0.346,0.393-0.939,0.909-1.567,1.455c-2.284,1.986-6.107,5.311-6.477,10.976c-0.375,5.764,1.334,9.97,2.932,13.02
			c0.002,0.046,0.003,0.098,0.003,0.153c-1.254,1.127-2.367,2.521-3.094,4.138c-0.711-0.235-1.455-0.355-2.203-0.355
			c-0.183,0-0.366,0.007-0.549,0.021c-1.615,0.127-9.895,1.054-14.347,6.843c-0.834,1.085-1.795,1.974-2.563,2.56
			c-1.008-0.831-2.151-1.736-3.332-2.671c-1.853-1.467-4.935-3.907-5.724-4.776c-1.927-2.559-7.137-7.215-13.666-7.215
			c-2.02,0-3.936,0.456-5.695,1.355c-5.16,2.637-6.367,6.828-6.689,9.367c-1.188,1.078-2.97,2.627-4.493,3.913
			c-0.169,0.143-0.332,0.294-0.487,0.453c-1.979,2.022-3.778,5.893-2.59,10.333c-0.017,0.016-0.033,0.032-0.049,0.047
			c-1.573,1.506-4.847,4.639-4.383,9.856c0.147,1.654,0.59,3.13,1,4.369c-0.463,0.887-0.917,1.986-1.315,3.357
			c-0.613-0.165-1.268-0.283-1.971-0.343c-0.598-0.051-1.159-0.076-1.712-0.076c-2.819,0-4.704,0.672-6.219,1.213
			c-0.379,0.135-0.739,0.264-1.123,0.386c-0.105,0.011-0.336,0.03-0.724,0.03c-1.639,0-3.805-0.317-4.501-0.439
			c-0.088-0.015-0.184-0.03-0.272-0.042c-0.268-0.037-0.999-0.121-1.993-0.121c-1.734,0-3.36,0.258-4.828,0.753
			c-1.166-0.745-2.656-1.351-4.494-1.351c-0.001,0-0.003,0-0.004,0c-1.403,0-2.794,0.378-4.02,1.094
			c-4.121,2.408-9.31,8.239-6.712,14.432c0.637,1.519,1.774,3.038,3.73,5.59c0.758,0.99,1.947,2.542,2.516,3.411
			c1.121,4.542,6.143,6.252,7.93,6.861c0.105,0.036,0.209,0.071,0.313,0.105l2.058,5.666c0.326,0.896,0.831,1.716,1.484,2.41
			c2.236,2.375,4.609,5.09,5.456,6.23c0.818,2.149,2.47,4.06,4.519,5.392c-0.309-0.023-0.618-0.035-0.925-0.035
			c-3.572,0-6.897,1.574-9.514,4.469c-0.414,0.049-1.004,0.092-1.777,0.092c-0.71,0-1.221-0.037-1.226-0.037
			c-0.171-0.012-0.342-0.019-0.514-0.019c-0.991,0-1.984,0.208-2.888,0.615c-6.93,3.117-10.444,7.002-10.444,11.548
			c0,1.552,0.096,4.895,0.811,8.167c-2.576,2.144-7.319,6.815-5.265,13.113c0.207,0.634,0.457,1.208,0.739,1.73
			c-0.463,0.499-0.917,1.042-1.336,1.641c-0.7,1.003-1.411,2.3-2.234,3.802c-0.451,0.823-1.153,2.105-1.583,2.79
			c-2.209,1.947-3.19,5.12-2.597,8.701c0.825,4.981,4.403,8.645,9.116,9.333c0.455,0.066,0.916,0.114,1.405,0.144
			c0.546,3.126,1.622,5.04,2.326,6.292c0.062,0.11,0.136,0.241,0.199,0.356c-0.088,3.2-1.879,14.127-2.598,16.233
			c0.027-0.08,0.057-0.147,0.082-0.204c-0.048,0.112-4.622,12.058-2.824,18.188c0.986,3.358,3.441,5.173,4.76,6.149
			c0.04,0.029,0.081,0.06,0.124,0.092c0.849,6.704,5.651,13.548,12.481,13.548c0.548,0,1.101-0.047,1.642-0.139
			c0.893-0.152,1.599-0.256,2.234-0.351c1.479-0.219,2.771-0.409,4.896-0.933c0.427,0.146,1.1,0.525,1.72,1.013
			c-1.208,2.136-3.477,6.788-1.378,11.062c1.215,2.476,3.522,4.106,6.334,4.48c0.262,0.052,0.969,0.26,1.488,0.413
			c2.317,0.683,5.819,1.716,10.055,1.716c6.472,0,13.691-0.413,17.443-5.343c0.325-0.428,0.775-0.941,1.251-1.484
			c1.356-1.547,3.053-3.483,4-5.928c1.684,4.471,5.579,7.453,10.347,7.453c0.841,0,1.702-0.095,2.558-0.282
			c5.385-1.181,7.955-4.765,9.655-7.137c0.385-0.537,0.749-1.045,1.133-1.525c0.109-0.136,0.214-0.266,0.317-0.389
			c0.955,1.906,2.533,4.292,5.72,5.593c1.349,0.552,2.72,0.833,4.068,0.833c2.544,0,4.411-0.994,5.414-1.528
			c0.151-0.081,0.352-0.187,0.453-0.234c1.313-0.28,2.413-0.803,3.339-1.37c1.785,2.624,3.8,4.851,9.092,5.807
			c2.162,0.39,9.583,1.66,14.38,1.66c3.837,0,7.16-1.478,9.208-4.025l5.869,3.893c0.471,0.313,0.979,0.567,1.512,0.758
			c2.843,1.031,6.162,2.943,7.042,4.037c1.505,5.489,6.146,15.28,6.681,16.401c0.351,0.734,0.826,1.402,1.406,1.973
			c3.215,3.166,9.478,8.476,15.303,8.476c0.013,0,0.025,0,0.038,0v5.905c0,2.534,1.136,4.734,3.34,5.97
			c0.362,0.252,0.793,0.685,0.955,0.952c0.032,4.894,1.193,10.205,2.91,13.278c0.738,1.32,1.773,2.563,2.875,3.875
			c-0.277-0.044-0.557-0.071-0.835-0.083c0,0-0.448-0.017-1.198-0.017c-2.091,0-6.131,0.137-9.69,1.058
			c-5.395,1.395-9.36,5.042-10.1,5.759c-1.463,1.417-2.236,3.401-2.118,5.435l0.346,5.925c0.106,1.823,0.921,3.531,2.269,4.762
			l4.064,3.71c0.368,1.656,0.697,3.187,0.779,3.671c0.275,2.185,1.816,6.849,9.944,6.849c0.297,0,0.477-0.006,0.477-0.006
			c2.687-0.087,5.114-1.707,6.201-4.166c0.16-0.362,0.327-0.737,0.497-1.116c0.067,0.877,0.299,1.741,0.692,2.544
			c0.543,1.112,1.164,2.549,1.3,3.012c0.406,1.371,1.355,4.581,9.337,8.074c0.287,0.125,0.582,0.231,0.883,0.317l6.38,1.823
			c0.627,0.179,1.274,0.27,1.923,0.27c0.287,0,0.574-0.018,0.86-0.053l8.103-1.003c0.888-0.11,1.746-0.389,2.528-0.821l7.415-4.102
			c0.792-0.438,1.492-1.026,2.061-1.731l1.936-2.4l4.499-3.329c0.377-0.145,0.786-0.31,1.21-0.495
			c0.835,0.577,1.813,0.982,2.884,1.166l1.138,0.194c1.294,0.906,2.6,1.843,3.341,2.409c0.422,0.813,1.092,2.264,1.558,3.359
			c0.028,0.065,0.057,0.13,0.086,0.194l2.149,4.647c1.148,2.482,3.632,4.062,6.352,4.062c0.083,0,0.167-0.001,0.251-0.004
			l11.724-0.418c1.189-0.042,2.347-0.387,3.366-1.001l0.86-0.519c1.374,0.896,2.979,1.523,4.782,1.523
			c0.874,0,1.731-0.146,2.548-0.433c0.824-0.289,3.022-1.061,6.364-5.478c0.384-0.507,0.697-1.065,0.93-1.657l3.849-9.765
			c0.262-0.279,0.518-0.541,0.72-0.735c0.802-0.396,1.974-1.104,3.851-2.477h4.207c0.766,0,1.527-0.126,2.253-0.373l2.413-0.82
			c0.307-0.104,0.606-0.229,0.895-0.375l2.136-1.076h2.992c2.222,0,4.254-1.047,5.552-2.735h2.725c2.759,0,5.26-1.621,6.388-4.138
			c0.256-0.57,0.535-1.174,0.789-1.71c0.014-0.003,0.027-0.007,0.04-0.01c2.19-0.553,3.994-2.133,4.818-4.237l2.188-5.584
			l0.587-0.827l2.994-0.741c1.228-0.304,2.35-0.935,3.247-1.825l2.758-2.735c0.975-0.966,1.644-2.198,1.923-3.542l0.458-2.196
			l1.207,1.78c0.632,0.931,1.478,1.696,2.467,2.231l3.881,2.096c1.024,0.553,2.168,0.841,3.326,0.841
			c0.235,0,0.472-0.012,0.707-0.036l1.818-0.185l1.715,1.249c1.197,0.872,2.64,1.342,4.121,1.342h3.621
			c2.126,0,4.137-0.966,5.465-2.625l1.904-2.378l3.459-1.766l5.485-2.373c0.888-0.384,1.687-0.947,2.346-1.655l2.327-2.5
			l5.023,3.839c1.226,0.937,2.722,1.438,4.25,1.438c0.266,0,0.532-0.015,0.798-0.045l3.965-0.456
			c1.863-0.214,3.563-1.166,4.718-2.644l1.18-1.51c0.977-0.044,1.934-0.292,2.811-0.729l1.472-0.734l5.938,0.278
			c0.109,0.005,0.218,0.008,0.327,0.008c1.237,0,2.455-0.328,3.527-0.954l5-2.917c1.375-0.802,2.436-2.049,3.006-3.534l0.669-1.738
			l4.078-4.614c0.517-0.585,0.933-1.252,1.229-1.975l0.877-2.135l5.294-3.357l2.195-0.186l0.341,0.011l0.08,0.12l1.435,3.455
			l-0.274,3.962c-0.214,3.101,1.642,5.971,4.557,7.049l0.222,0.082l1.193,2.057c0.223,0.385,0.482,0.748,0.774,1.084l5.948,6.837
			c0.299,0.343,0.63,0.656,0.987,0.934c0.012,0.063,0.024,0.125,0.038,0.188l1.034,4.785c0.412,1.911,1.605,3.561,3.289,4.553
			c1.087,0.641,2.315,0.969,3.553,0.969c0.68,0,1.361-0.099,2.023-0.299l1.856-0.561c1.556,0.134,4.4,1.341,6.076,2.297l2.789,2.088
			c1.258,0.941,2.73,1.396,4.19,1.396c1.606,0,3.199-0.551,4.475-1.611c0.401,0.071,0.81,0.107,1.221,0.107h7.5
			c1.682,0,3.308-0.605,4.579-1.706l4.267-3.69c0.331-0.286,0.634-0.602,0.905-0.944l5.2-6.555l0.582-0.134
			c3.583-0.824,5.918-4.279,5.347-7.911l-0.388-2.461c-0.088-0.556-0.242-1.097-0.458-1.613l10.322-11.215h2.359
			c1.204,0,2.389-0.311,3.438-0.902l4.219-2.379h5.533c0.828,0,1.65-0.147,2.428-0.434l2.586-0.957
			c0.318-0.118,0.628-0.258,0.926-0.421l2.215-1.209c0.264,0.009,0.538,0.014,0.816,0.014c5.088,0,7.537-2.027,8.709-4.116
			c0.362-0.337,0.979-0.848,1.475-1.215c2.325-1.72,3.361-4.699,2.596-7.488l-0.953-3.469c1.231-0.087,2.435-0.5,3.478-1.219
			c1.789-1.233,2.903-3.227,3.018-5.396l0.384-7.314l6.39-5.535c1.397-1.211,2.26-2.925,2.397-4.769l0.389-5.196
			c0.051-0.676,0.003-1.356-0.143-2.019c-0.006-0.028-0.065-0.299-0.165-0.738c1.467-1.172,3.676-2.733,5.694-3.992
			c2.051-1.278,3.297-3.524,3.297-5.94v-2.815c0.019-0.038,0.037-0.076,0.056-0.113c0.318,0.036,0.654,0.057,1.009,0.057
			c0.785,0,1.554-0.108,2.283-0.322c4.66-1.363,5.739-5.992,7.231-12.397c0.842-3.613,1.522-7.12,1.551-7.268
			c0.191-0.995,1.838-9.825,1.465-16.679c-0.35-6.44-0.663-8.063-3.464-12.204l-0.407-0.603c-0.785-1.172-1.416-3.428-1.678-4.906
			c0.004-2.734,0.038-14.957,0.321-19.295c0.193-0.865,2.347-2.807,3.266-3.636c1.421-1.281,2.763-2.492,3.617-4.234
			c0.617-1.261,0.906-2.549,0.95-3.807c3.446-0.301,5.416-2.579,6.397-3.713c0.367-0.425,0.658-0.761,1.052-1.102
			c4.622-3.994,4.772-8.475,4.946-13.664c0.17-5.021-0.06-10.264-4.78-14.308c-0.352-0.453-0.956-2.217-1.398-3.511
			c-0.196-0.571-0.4-1.168-0.623-1.792c-2.406-6.76-8.582-7.146-10.611-7.274c-0.175-0.011-0.385-0.024-0.562-0.039
			c-2.275-1.709-8.545-7.901-10.996-10.321c-1.085-1.07-1.97-1.943-2.514-2.462c-2.322-2.215-5.422-3.438-8.724-3.438
			c-1.068,0-2.007,0.124-2.753,0.274c-1.574-0.046-4.81-0.126-8.408-0.126c-2.957,0-5.548,0.055-7.7,0.162
			c-5.411,0.269-9.342,0.908-11.366,1.85c-1.778,0.828-3.11,2.354-3.705,4.186c-2.068-0.889-4.724-1.311-8.144-1.311
			c-1.595,0-2.813,0.094-2.947,0.105c-1.096,0.088-2.155,0.434-3.093,1.008c-0.995,0.609-2.019,1.553-2.881,2.819
			c-2.735-3.197-6.067-5.778-8.282-7.083c-0.149-0.26-0.323-0.596-0.495-0.941c0.771-0.812,1.354-1.813,1.668-2.938l1.284-4.59
			c0.066-0.108,0.232-0.34,0.565-0.607c2.612-2.097,4.462-3.968,4.664-4.174c1.282-1.308,2.001-3.067,2.001-4.899v-6.022
			c0-1.197-0.307-2.374-0.892-3.418c-1.431-2.557-4.202-5.268-7.941-5.868c-0.299-0.262-0.663-0.605-0.938-0.865
			c-0.71-0.67-1.515-1.43-2.423-2.08c-1.12-0.8-2.414-1.4-3.639-1.844l-0.771-2.099c-0.164-0.447-0.373-0.876-0.624-1.28
			c-2.159-3.477-7.044-11.342-7.896-12.691c-0.761-1.364-1.979-4.186-2.383-5.741c0.361-0.494,0.92-1.145,1.296-1.583
			c1.543-1.797,3.463-4.033,3.463-7.257c0-3.719-1.596-6.62-4.548-8.369c-0.344-0.84-0.751-2.009-1.005-2.74
			c-0.282-0.81-0.548-1.575-0.824-2.281c-1.091-2.784-3.338-4.706-6.243-5.448c0.159-0.867,0.226-1.809,0.102-2.825
			c-0.56-4.526-4.62-6.913-8.549-9.22c-0.522-0.307-1.013-0.594-1.418-0.848c-0.221-0.138-3.975-2.483-7.527-3.863
			c0.229-0.583,0.386-1.212,0.471-1.877c0.064-0.505,0.614-5.059-0.026-9.186l-0.111-0.737c-0.521-3.489-0.998-5.854-4.103-10.289
			c-4.332-6.192-14.214-7.117-19.72-7.117c-1.457,0-3.773-0.761-5.509-2.907c-5.65-6.983-16.146-8.031-16.591-8.072
			C444.594,0.034,443.6,0,442.325,0L442.325,0z"/>
	</g>
</g>
<g id="zoneMapGwangju3">
	<path fill="none" stroke="#2694BF" stroke-linejoin="round" stroke-miterlimit="10" d="M214.535,390.996
		c0,0-0.252-4.131-1.515-6.714c-1.263-2.582-4.546-5.68-5.557-7.487c-1.01-1.809-2.021-5.94-2.021-10.072
		c0-4.131-4.294-6.714-4.294-6.714s0-6.973,0-9.556c0-2.58-3.031-3.614-6.819-3.356c-3.791,0.259-10.61-6.456-10.61-6.456
		s-5.053-10.587-6.316-15.493c-1.263-4.907-11.368-8.521-11.368-8.521l-9.347-6.199c0,0-1.263-7.488-1.263-9.813
		s-2.021-2.84-4.037-2.324c-2.014,0.518-5.309-2.064-6.067,2.841c-0.758,4.907,3.285,6.197,5.306,9.296
		c2.021,3.1-0.252,5.165-3.537,5.165c-3.285,0-8.841-0.774-13.136-1.549c-4.294-0.775-3.536-2.066-6.819-5.939
		c-3.285-3.874-5.811,1.033-8.337,1.55c-2.525,0.516-3.283,2.323-5.81,1.29c-2.526-1.031-2.274-4.39-5.052-7.23
		c-2.778-2.839-6.82,1.291-9.094,4.133c-2.273,2.84-3.283,5.422-6.819,6.197c-3.537,0.774-5.306-2.323-5.306-5.424
		c0-3.098-5.304-2.065-8.082-2.065c-2.78,0-4.296,1.033-4.296,3.358c0,2.323-2.778,4.647-4.546,6.972
		c-1.768,2.323-7.074,2.582-11.873,2.582c-4.801,0-8.589-1.809-10.61-2.066c-2.021-0.259-1.01-3.098,0.505-5.68
		c1.516-2.583,1.768-4.392-0.252-6.716c-2.021-2.323-6.063-4.906-9.094-4.13c-3.031,0.773-4.041,0.773-7.073,1.29
		c-3.032,0.517-5.81-4.132-6.063-8.004c-0.253-3.875-4.294-4.134-5.053-6.716c-0.757-2.582,1.517-11.104,2.527-13.428
		s3.536-17.56,3.031-20.143s-2.525-3.357-2.778-8.521c-0.252-5.165-3.537-3.357-7.074-3.874c-3.536-0.517-3.789-5.423-2.778-5.94
		c1.01-0.517,3.536-5.938,4.799-7.746c1.264-1.807,3.791-3.357,5.306-5.682c1.515-2.324-2.779-0.775-3.79-3.873
		c-1.011-3.1,3.79-5.939,4.799-6.973c1.011-1.033,2.273-0.774,1.263-3.356s-1.263-6.456-1.263-8.78c0-2.323,6.315-5.164,6.315-5.164
		s6.567,0.516,8.083-1.55c1.516-2.066,3.537-3.357,6.063-2.84c2.526,0.515,5.809-2.843,7.325-3.358
		c1.516-0.517,1.769-4.648,1.769-4.648s-1.012-4.132-3.032-4.132s-4.041-1.807-4.293-3.098c-0.252-1.293-6.821-8.265-6.821-8.265
		l-3.283-9.039c0,0-6.821-1.549-6.821-3.098s-5.809-8.006-6.567-9.813c-0.758-1.807,2.021-4.647,3.789-5.681
		s3.537,4.133,5.305,2.066c1.769-2.066,5.558-1.55,5.558-1.55s5.81,1.032,8.336,0.257c2.526-0.773,3.536-1.548,6.567-1.289
		c3.033,0.258,4.043,3.613,6.569,5.681c2.525,2.065,3.789,1.807,3.789-0.516c0-2.324-1.768-6.457-1.768-6.457
		s0.758-5.423,2.273-6.456c1.517-1.032-0.758-4.391-1.01-7.229c-0.252-2.841,2.779-4.134,3.79-5.94
		c1.011-1.807,1.264-2.582,0.505-4.907c-0.758-2.323,0.758-3.873,0.758-3.873s5.809-4.905,6.567-5.939
		c0.758-1.032-0.758-4.39,3.284-6.455s9.093,1.808,10.61,3.872c1.515,2.066,9.093,7.49,11.873,10.072
		c2.779,2.583,8.083-1.55,10.861-5.164c2.78-3.615,9.347-4.132,9.347-4.132l6.569,2.582c0,0,2.021-2.324,1.768-4.905
		c-0.252-2.583,3.283-4.391,3.283-4.391s1.516-4.391,0-7.232c-1.515-2.84-2.525-5.681-2.273-9.554s4.041-5.682,6.315-8.264
		c2.274-2.583,3.032-7.488,3.032-7.488s0.757-6.973,3.536-9.555s3.283-7.489,3.283-7.489l2.021-9.556c0,0,6.315-7.747,8.083-12.911
		c1.769-5.165,5.811-3.873,5.811-3.873s2.021,2.84,4.294,2.582c2.273-0.259,7.579-1.033,11.367-5.938
		c3.79-4.908,11.873-4.392,12.883-4.908C191.042,9.067,197.106,7,197.106,7l5.051,3.355c0,0,0.505,3.616,0.505,5.94
		c0,2.323-4.041,5.681-4.041,5.681l-1.263,7.231l-8.337,8.263c0,0-2.778,4.391-3.162,6.456c-0.385,2.065,1.395,9.296,1.395,9.296
		l3.283,4.649l3.538-1.291c0,0,8.082,0.516,8.839,1.55c0.759,1.031,3.286,3.355,5.054,1.031c1.768-2.324,5.051,0,5.051,0
		s5.306,6.973,6.568,9.039c1.263,2.066,6.062,3.099,8.083,3.099s4.294,3.873,6.315,6.456s2.273,5.423,2.273,5.423
		s5.306-4.647,7.832-4.905c2.526-0.259,5.81,4.389,9.347,6.455c3.536,2.066,7.577-1.291,9.346-3.357s4.042-0.259,3.537,3.099
		c-0.505,3.357,1.01,3.874,3.788,3.357c2.779-0.515,10.357-5.681,13.388-10.071c3.033-4.39,7.579-0.259,9.094-1.549
		c1.516-1.292,2.526-2.582,6.569-4.39c4.041-1.808,2.021-6.457,2.273-9.814c0.253-3.357,12.125,4.906,15.156,5.423
		c1.952,0.333,4.216-0.404,5.582-0.971l1.617-0.448c0,0-0.758,4.364,0,5.047c0.758,0.681,1.895,1.773,2.273,3.138
		c0.379,1.363,1.517,2.59,2.779,1.908c1.264-0.681,7.072-3.408,7.072-3.408s2.526,2.298,2.526,3.604
		c0,1.306,1.137,4.306,1.137,4.306s2.905,0,4.421,0s6.441,1.229,6.441,1.229v7.775h6.946c0,0-4.294,5.593-4.294,6.412
		c0,0.816,0.253,3.137,1.137,4.91c0.885,1.773,0.127,3.819-0.252,4.503c-0.379,0.681-0.253,21.143-0.253,21.143
		s-3.409,3.411-3.284,4.365c0.127,0.955,1.263,2.046,2.148,2.593c0.883,0.544,3.788,2.318,5.431,3.409
		c1.642,1.091,2.525,4.638,1.894,5.865c-0.631,1.228-1.137,3.82-0.631,4.912c0.505,1.09,0.836,10.64,0.836,10.64l-3.361,3.819
		l-6.064-0.683c0,0-3.41,0.41-4.293,2.457c-0.885,2.045-1.768,2.317-2.906,2.59c-1.136,0.273-4.168,0-4.168,0
		s-1.895-4.637-2.398-4.773c-0.506-0.137-4.548-0.273-4.548-0.273l-5.052,6.549l-2.4,16.505c0,0-0.295,3.958-1.474,3.958
		s-3.199,0-3.199,0s-0.884-1.639-2.653-1.639c-1.768,0-3.663,0.956-5.684,2.319c-2.021,1.364-9.598,9.685-9.472,11.459
		c0.126,1.772-0.002,6.956-0.002,6.956s1.897,2.729,2.528,4.094c0.632,1.363,1.01,3.409,0.505,4.501
		c-0.505,1.09-0.505,3.82,0.38,4.774c0.883,0.955,4.799,3.273,5.051,4.912c0.253,1.636,0.505,10.093,0.505,10.773
		c0,0.684-0.378,6.412-0.378,6.412l-3.537,1.502c0,0,0.253,1.499,0.253,2.591s-3.285,4.638-6.063,7.776
		c-2.778,3.138-6.441,7.775-6.316,9.686c0.127,1.909,1.643,6.273,2.274,7.229c0.631,0.954,1.516,6.003,1.389,8.049
		c-0.125,2.046-6.82,7.093-6.82,7.093v7.368c0,0,0.126,1.226-2.779,0.681c-2.904-0.545-6.567,0.14-6.567,0.14
		s-2.653,0.405-2.653,1.908c0,1.499-0.758,4.909-0.884,6c-0.126,1.091-1.011,2.319-1.011,2.319h-2.651l-2.021,2.728
		c0,0-3.032-2.318-3.537-1.772c-0.505,0.546-0.63,4.501,0,5.729c0.633,1.229,0.253,2.865,0.127,4.774
		c-0.127,1.91,0.63,2.864,0.883,4.501c0.252,1.638-0.631,5.456-0.631,5.456l-4.548-0.817l-2.652,1.638l6.063,16.505
		c0,0-1.642,3.819-3.536,5.32c-1.895,1.5-8.463,4.092-11.242,9.276c-2.778,5.183-10.608,19.916-13.893,23.055
		c-3.283,3.136-9.472,4.501-9.472,4.501s-5.936,0.407-8.209,1.227c-2.275,0.819-4.421,2.047-4.421,2.047L214.535,390.996z"/>
	<path fill="none" stroke="#2694BF" stroke-linejoin="round" stroke-miterlimit="10" d="M330.512,169.012l-3.169-0.967
		l-2.399,16.506c0,0-0.296,3.955-1.474,3.955c-1.179,0-3.2,0-3.2,0s-0.884-1.637-2.652-1.637s-3.663,0.954-5.684,2.318
		s-9.6,9.686-9.474,11.459c0.126,1.773-0.001,6.957-0.001,6.957s1.896,2.728,2.528,4.094c0.63,1.362,1.01,3.408,0.505,4.5
		c-0.505,1.092-0.505,3.82,0.377,4.775c0.885,0.954,4.801,3.273,5.054,4.91c0.252,1.637,0.505,10.094,0.505,10.775
		c0,0.684-0.38,6.414-0.38,6.414l-3.536,1.499c0,0,0.252,1.5,0.252,2.592c0,1.091-3.283,4.638-6.063,7.775s-6.442,7.775-6.315,9.685
		c0.125,1.91,1.642,6.276,2.273,7.23c0.632,0.955,1.515,6.002,1.39,8.049c-0.127,2.046-6.821,7.094-6.821,7.094v7.366
		c0,0,0.127,1.227-2.778,0.681c-2.906-0.544-6.569,0.141-6.569,0.141s-2.652,0.405-2.652,1.906s-0.758,4.911-0.884,6.003
		c-0.126,1.091-1.01,2.317-1.01,2.317h-2.653l-2.021,2.729c0,0-3.031-2.319-3.536-1.774c-0.505,0.547-0.632,4.502,0,5.729
		c0.63,1.229,0.252,2.864,0.125,4.775c-0.125,1.908,0.633,2.864,0.885,4.501c0.252,1.638-0.632,5.456-0.632,5.456l-4.546-0.817
		l-2.653,1.638l6.063,16.505l4-4.105v-2.187l2.457-2.871l2.457,8.203l2.328,3.964h1.681l0.388,2.051l1.811,1.641l7.629-6.695
		l4.396,6.695l8.406-4.785l3.233-0.272l1.939-3.418l4.655-1.504l9.698-6.563l2.894-7.109l5.253-6.563l2.587,1.366l3.75-0.273
		l2.716-2.323l6.982-0.41l10.086-5.058l11.639-3.146l2.975-2.461l3.879-0.138l7.112,2.599l-2.198-4.649l0.775-2.459l-2.974-5.06
		l4.396-3.008l3.88-5.47l2.068-0.41l6.207,4.514l4.785,0.956l2.068,4.374l2.975-0.683l0.905-2.735l2.716-1.504v-3.964l0.775-3.281
		v-7.657l-2.715-2.597l-0.389-7.109l3.104-2.461l-1.681-4.512l-4.009-7.93l-3.621-3.008l0.259-2.734l4.784-3.556l3.621-3.554
		l-2.198-3.418l6.466-5.986l1.035-1.26l2.974-3.009l0.776-2.051l6.077-1.093l5.561,0.137l2.198,4.237l3.621,3.038l8.922-2.765
		l-21.725-21.327l-6.207-1.915l-6.077-0.546l-2.975-2.052l-2.845-7.518l-2.457-1.779l1.035-4.783c0,0,0.113-2.053-1.181-3.283
		c-1.293-1.23-3.88-4.238-9.052-2.051s-4.396,3.008-15.259,1.777s-34.269-5.742-34.269-5.742S331.287,175.575,330.512,169.012z"/>
	<path fill="none" stroke="#2694BF" stroke-linejoin="round" stroke-miterlimit="10" d="M269.37,344.153l4-4.105v-2.187l2.457-2.871
		l2.457,8.203l2.328,3.964h1.681l0.388,2.051l1.811,1.641l7.629-6.695l4.396,6.695l8.406-4.785l3.233-0.272l1.939-3.418l4.655-1.504
		l9.698-6.563l2.894-7.109l5.253-6.563l2.587,1.366l3.75-0.273l2.716-2.323l6.982-0.41l10.086-5.058l11.639-3.146l2.975-2.461
		l3.879-0.138l7.112,2.599l-2.198-4.649l0.775-2.459l-2.974-5.06l4.396-3.008l3.88-5.47l2.068-0.41l6.207,4.514l4.785,0.956
		l2.068,4.374l2.975-0.683l0.905-2.735l2.716-1.504v-3.964l0.775-3.281v-7.657l-2.715-2.597l-0.389-7.109l3.104-2.461l-1.681-4.512
		l-4.009-7.93l-3.621-3.008l0.259-2.734l4.784-3.556l3.621-3.554l-2.198-3.418l6.466-5.986l1.035-1.26l2.974-3.009l0.776-2.051
		l6.077-1.093l5.561,0.137l2.198,4.237l3.621,3.038l8.922-2.765c0,0,5.112,7.108,5.458,8.247c0.345,1.14,5.991,6.382,6.897,7.156
		c0.904,0.774,10.56,16.633,10.56,16.633l2.155,6.472l4.01,1.003l4.008,4.739l-0.388,3.646l-6.812,1.094l-2.715,4.511l-7.371,7.476
		l-1.206,3.281l-5.345,0.638l-4.742,3.008l0.991,4.101l-1.552,2.917l0.861,3.646l2.07,1.459l-0.346,6.381l5.863,6.563l0.344,7.655
		l3.966,2.734l1.38,5.469l-3.449,8.203l-4.31,0.365l-8.622,5.468l-1.723,4.193l-4.914,5.56l-1.121,2.916l-5,2.917l-7.759-0.363
		l-3.104,1.549h-3.104l-3.276,4.192l-3.965,0.455l-7.156-5.469l-0.689-2.187l-3.448,1.275l-5.431,5.834l-5.69,2.461l-5,2.553
		l-2.845,3.554h-3.621l-3.879-2.825l-4.482,0.455l-3.879-2.096l-3.709-5.469l-3.706,0.272l-3.966,0.183l-1.982,3.373l-0.949,4.557
		l-2.758,2.735l-5.518,1.366l-2.586,3.646l-2.5,6.381c0,0-2.932,0.728-3.449,1.457c-0.518,0.73-2.068,4.192-2.068,4.192h-4.914
		l-2.758,0.729l-0.604,2.006h-4.655l-3.621,1.823l-2.413,0.82h-6.552c0,0-3.879,3.007-4.828,3.281
		c-0.948,0.272-3.448,3.19-3.448,3.19l-4.311,10.938c0,0-2.069,2.734-3.104,3.098c-1.034,0.364-3.018-2.097-3.018-2.097
		l-3.534,0.366l-2.932,1.769L271.501,427l-2.149-4.647c0,0-1.903-4.468-2.679-5.288s-5.949-4.374-5.949-4.374l-2.672-0.456
		c0,0,0.173-2.644-0.603-3.464s-2.673,0.456-3.879,1.457c-1.208,1.004-4.138,2.007-4.138,2.007l-6.035,4.466l-2.5,3.1l-7.415,4.102
		l-8.103,1.003l-6.38-1.823c0,0-5-2.188-5.431-3.646c-0.431-1.457-1.725-4.102-1.725-4.102l1.293-5.012c0,0,1.465-2.734,1.81-3.556
		c0.346-0.819,0.604-3.737,0.346-4.284c-0.259-0.546-4.569-0.455-4.569-0.455l-4.052,3.372c0,0-4.568,0.639-5.085,1.186
		c-0.518,0.547-3.621,7.565-3.621,7.565s-3.19,0.091-3.276-0.73c-0.085-0.819-1.379-6.473-1.379-6.473l-5.689-5.193l-0.346-5.925
		c0,0,3.104-3.007,6.983-4.01c3.879-1.004,8.88-0.822,8.88-0.822s5.948,2.188,7.068,2.007c1.121-0.182,4.329-2.007,4.329-2.007
		l4.043-1.419c0,0,2.146-1.228,4.421-2.047c2.273-0.819,8.209-1.227,8.209-1.227s6.189-1.365,9.472-4.501
		c3.285-3.139,11.115-17.872,13.893-23.055c2.779-5.185,9.347-7.776,11.242-9.276c1.895-1.501,3.536-5.32,3.536-5.32"/>
	<path fill="none" stroke="#2694BF" stroke-linejoin="round" stroke-miterlimit="10" d="M460.125,347.156l3.449-8.203l-1.38-5.469
		l-3.966-2.734l-0.344-7.655l-5.863-6.563l0.346-6.381l-2.07-1.459l-0.861-3.646l1.552-2.917l-0.991-4.101l4.742-3.008l5.345-0.638
		l1.206-3.281l7.371-7.476l2.715-4.511l6.812-1.094l0.388-3.646l-4.008-4.739l-4.01-1.003l-2.155-6.472
		c0,0-9.655-15.858-10.56-16.633c-0.906-0.774-6.553-6.017-6.897-7.156c-0.274-0.905-3.562-5.582-4.897-7.463l-0.561-0.784
		l-6.268-6.155l11.941-10.251l7.736-15.859c0,0,8.299,2.598,9.333,3.418s2.069,6.289,2.069,6.289l10.345-4.376l6.725-0.956
		l1.552,4.102v2.598l3.491,0.957l2.069-1.368l6.595,0.684l2.327,2.872v4.768h2.069l1.681,2.615l1.811-0.684l5.561,0.547
		c0,0,2.586,3.144,3.75,3.828c1.164,0.684,2.975,2.051,2.975,2.051l-1.293,5.499l-2.328,3.799c0,0,1.035,2.187,2.199,2.322
		c1.163,0.138,2.586,3.009,2.586,3.009l-0.646,2.598c0,0-4.139,0.41-3.362,1.915c0.776,1.502,2.716,3.417,2.716,3.417h6.854
		c0,0,7.888,3.146,8.793,4.237c0.905,1.095,4.525,3.556,4.525,3.556l3.104-0.274l2.457-3.418l1.423,1.777l8.276-2.05l8.146,2.46
		l3.362,5.88l2.198,0.272l2.198,8.341l1.94,0.82l4.396,9.296l0.904,4.922l3.492-0.272c0,0,9.828,4.237,11.25,4.375
		c1.422,0.137,3.621,0,3.621,0v5.059c0,0-10.087,6.288-9.569,8.339c0.517,2.052,0.905,3.828,0.905,3.828l-0.389,5.196l-9.311,8.065
		l0.518,2.325l-0.388,7.382l-2.975-0.957l-4.138,2.325l0.646,6.699l1.164,4.238c0,0-2.975,2.188-3.362,3.281
		s-5.044,0.547-5.044,0.547l-4.008,2.188l-2.586,0.956h-7.371l-5.819,3.281h-5.431l-13.967,15.176l-1.551,3.008l1.81,2.734
		l0.388,2.461l-2.974,0.684l-6.725,8.478l-4.267,3.69h-7.5l-3.104-1.913l-2.587,3.417l-3.104-2.323c0,0-6.595-3.965-11.121-3.419
		l-2.716,0.82l-1.034-4.785l1.293-2.188l-3.88-2.05l-5.947-6.837l-2.457-4.238l-2.587-0.956l0.388-5.606l-2.327-5.605l-2.457-3.691
		L460.125,347.156z"/>
	<path fill="none" stroke="#2694BF" stroke-linejoin="round" stroke-miterlimit="10" d="M327.343,168.045l5.035-6.551
		c0,0,4.042,0.137,4.548,0.273c0.504,0.137,2.398,4.773,2.398,4.773s3.032,0.273,4.168,0c1.139-0.272,2.021-0.545,2.906-2.59
		c0.883-2.047,4.293-2.457,4.293-2.457l6.064,0.683l3.361-3.819c0,0-0.331-9.55-0.836-10.64c-0.506-1.092,0-3.685,0.631-4.912
		c0.632-1.228-0.252-4.774-1.894-5.865c-1.643-1.091-4.548-2.865-5.431-3.409c-0.886-0.547-2.021-1.638-2.148-2.593
		c-0.125-0.954,3.284-4.365,3.284-4.365s-0.126-20.462,0.253-21.143c0.379-0.684,1.137-2.729,0.252-4.503
		c-0.884-1.773-1.137-4.094-1.137-4.91c0-0.819,4.294-6.412,4.294-6.412h-6.946v-7.775c0,0-4.926-1.229-6.441-1.229
		s-4.421,0-4.421,0s-1.137-3-1.137-4.306c0-1.307-2.526-3.604-2.526-3.604s-5.809,2.728-7.072,3.408
		c-1.263,0.682-2.4-0.545-2.779-1.908c-0.379-1.364-1.516-2.457-2.273-3.138c-0.758-0.683,0-5.047,0-5.047l6.668,0.589
		c0,0,2.527-1.549,2.695-6.021c0.17-4.473,0.17-4.473,0.17-4.473s3.199,0.859,5.223-0.688c2.021-1.548-0.168-4.816,2.695-4.816
		s5.98,2.238,7.034,0.859c1.054-1.375,1.054-2.58,4.255-2.923c3.201-0.346,9.604-1.894,11.793-3.956
		c2.19-2.065,3.201-5.85,3.201-8.258c0-2.41,3.202-3.785,3.202-3.785l9.436-1.032c0,0,2.864,0.173,4.381-2.581
		c1.517-2.752,4.55-6.88,8.931-6.88s4.043,1.204,4.043,1.204s-1.504,4.472,0.006,5.676s9.766,2.065,11.283,2.065
		c1.516,0,6.571-3.613,8.424-5.849c1.854-2.236,4.212-3.957,6.572-3.957c2.357,0,4.381-3.784,6.738-6.709
		c2.359-2.925,8.257-7.397,8.257-7.397s4.212-0.171,6.065,0c1.854,0.172,8.594,1.548,11.795,5.504
		c3.2,3.957,7.582,5.505,10.951,5.505c3.37,0,11.457,0.518,13.984,4.131c2.527,3.611,2.527,4.816,3.032,8.085
		c0.507,3.268,0,7.224,0,7.224s-2.864,1.549-2.864,3.613s1.012,4.815,1.012,4.815s3.37,0.345,4.213,0.345
		c0.842,0,5.727,2.408,7.918,3.785c2.19,1.375,6.57,3.613,6.74,4.988c0.168,1.375-1.518,3.957-1.348,6.021
		c0.168,2.064,0.192,2.065,1.359,2.753c1.166,0.688,5.549-1.377,6.56,1.203c1.011,2.582,2.358,7.57,3.874,8.086
		c1.517,0.516,2.021,1.203,2.021,2.752s-4.885,4.988-4.885,8.258s3.201,9.461,3.537,9.977c0.338,0.518,7.92,12.73,7.92,12.73
		l2.021,5.505c0,0,3.201,0.515,4.887,1.72c1.685,1.205,3.875,4.129,5.896,4.129c2.022,0,3.37,2.408,3.37,2.408v6.022
		c0,0-1.685,1.719-4.044,3.612c-2.359,1.892-2.864,3.955-2.864,3.955l-1.348,4.817l-3.032,0.345c0,0-1.35,1.72,0,3.956
		c1.348,2.236,2.695,6.364,4.548,7.224c1.854,0.862,7.414,5.161,9.436,9.462c2.022,4.3,3.033,6.021,5.897,6.021
		c2.863,0,1.854-3.44,1.854-6.708c0-3.269,1.686-4.301,1.686-4.301s6.402-0.517,8.424,1.032s6.74,7.569,7.414,3.784
		c0.674-3.784,1.348-8.428,1.348-8.428s1.854-0.862,8.762-1.205c6.908-0.345,16.512,0,16.512,0s3.37-1.205,5.896,1.205
		c2.527,2.407,12.638,12.728,15.333,14.104c2.695,1.376,6.235-0.516,7.583,3.27c1.347,3.783,2.021,6.536,4.043,8.256
		c2.022,1.722,2.526,3.784,2.357,8.773c-0.168,4.988-0.336,6.709-2.526,8.602s-2.527,3.441-4.044,3.096
		c-1.517-0.344-2.021-2.75-3.033-1.719c-1.01,1.031-3.875,5.504-3.875,5.504s1.686,2.236,0.843,3.957
		c-0.843,1.72-7.245,5.335-7.582,10.494s-0.337,20.297-0.337,20.297s0.674,4.989,2.864,8.257c2.19,3.269,2.359,3.098,2.696,9.29
		c0.337,6.194-1.348,14.968-1.348,14.968s-2.697,13.933-3.876,14.277s-4.044-1.72-5.729,0.688c-0.759,1.085-1.621,2.592-2.308,4.106
		l-0.346,0.058c0,0-2.199,0.137-3.621,0c-1.422-0.138-11.25-4.375-11.25-4.375l-3.492,0.272l-0.904-4.922l-4.396-9.296l-1.94-0.82
		l-2.198-8.341l-2.198-0.272l-3.362-5.88l-8.146-2.46l-8.276,2.05l-1.423-1.777l-2.457,3.418l-3.104,0.274
		c0,0-3.62-2.461-4.525-3.556c-0.905-1.092-8.793-4.237-8.793-4.237h-6.854c0,0-1.939-1.915-2.716-3.417
		c-0.776-1.505,3.362-1.915,3.362-1.915l0.646-2.598c0,0-1.423-2.871-2.586-3.009c-1.164-0.136-2.199-2.322-2.199-2.322l2.328-3.799
		l1.293-5.499c0,0-1.811-1.367-2.975-2.051c-1.164-0.685-3.75-3.828-3.75-3.828l-5.561-0.547l-1.811,0.684l-1.681-2.615h-2.069
		v-4.768l-2.327-2.872l-6.595-0.684l-2.069,1.368l-3.491-0.957v-2.598l-1.552-4.102l-6.725,0.956l-10.345,4.376
		c0,0-1.035-5.469-2.069-6.289s-9.333-3.418-9.333-3.418l-7.736,15.859l-11.941,10.251l-15.457-15.172l-6.207-1.915l-6.077-0.546
		l-2.975-2.052l-2.845-7.518l-2.457-1.779l0.344-1.59l0.16-0.734l0.531-2.459c0,0,0.113-2.053-1.181-3.283
		c-1.293-1.23-3.88-4.238-9.052-2.051s-4.396,3.008-15.259,1.777s-34.269-5.742-34.269-5.742s-13.189-5.332-13.965-11.895
		L327.343,168.045"/>
</g>
<g id="zoneMapGwangju4">
	<path fill="none" stroke="#25B8F1" stroke-width="3" stroke-linecap="round" stroke-linejoin="round" stroke-miterlimit="10" d="
		M624.162,177.036c-2.021-1.72-2.696-4.473-4.043-8.256c-1.348-3.785-4.888-1.894-7.583-3.27
		c-2.695-1.377-12.806-11.697-15.333-14.104c-2.526-2.41-5.896-1.205-5.896-1.205s-9.604-0.345-16.512,0
		c-6.908,0.343-8.762,1.205-8.762,1.205s-0.674,4.644-1.348,8.428c-0.674,3.785-5.393-2.235-7.414-3.784s-8.424-1.032-8.424-1.032
		s-1.686,1.032-1.686,4.301c0,3.268,1.01,6.708-1.854,6.708c-2.864,0-3.875-1.72-5.897-6.021c-2.021-4.301-7.581-8.6-9.436-9.462
		c-1.853-0.859-3.2-4.987-4.548-7.224c-1.35-2.236,0-3.956,0-3.956l3.032-0.345l1.348-4.817c0,0,0.505-2.063,2.864-3.955
		c2.359-1.894,4.044-3.612,4.044-3.612v-6.022c0,0-1.348-2.408-3.37-2.408c-2.021,0-4.212-2.924-5.896-4.129
		c-1.686-1.205-4.887-1.72-4.887-1.72l-2.021-5.505c0,0-7.583-12.213-7.921-12.73c-0.336-0.516-3.537-6.707-3.537-9.977
		s4.885-6.709,4.885-8.258s-0.505-2.236-2.021-2.752c-1.516-0.516-2.863-5.504-3.874-8.086c-1.011-2.58-5.393-0.516-6.56-1.203
		s-1.191-0.688-1.359-2.753c-0.17-2.063,1.516-4.646,1.348-6.021c-0.17-1.375-4.55-3.613-6.74-4.988
		c-2.191-1.377-7.076-3.785-7.918-3.785c-0.843,0-4.213-0.345-4.213-0.345s-1.012-2.751-1.012-4.815s2.864-3.613,2.864-3.613
		s0.507-3.956,0-7.224c-0.505-3.269-0.505-4.474-3.032-8.085c-2.527-3.613-10.614-4.131-13.984-4.131
		c-3.369,0-7.751-1.547-10.951-5.505c-3.201-3.956-9.941-5.332-11.795-5.504c-1.853-0.171-6.065,0-6.065,0s-5.897,4.473-8.257,7.397
		c-2.357,2.925-4.381,6.709-6.738,6.709c-2.36,0-4.719,1.721-6.572,3.957c-1.853,2.235-6.908,5.849-8.424,5.849
		c-1.517,0-9.772-0.861-11.283-2.065c-1.51-1.204-0.006-5.676-0.006-5.676s0.338-1.204-4.043-1.204s-7.414,4.128-8.931,6.88
		c-1.517,2.754-4.381,2.581-4.381,2.581l-9.436,1.032c0,0-3.202,1.375-3.202,3.785c0,2.408-1.011,6.192-3.201,8.258
		c-2.189,2.063-8.592,3.61-11.793,3.956c-3.201,0.343-3.201,1.548-4.255,2.923c-1.054,1.379-4.171-0.859-7.034-0.859
		s-0.674,3.269-2.695,4.816c-2.023,1.548-5.223,0.688-5.223,0.688s0,0-0.17,4.473c-0.168,4.472-2.695,6.021-2.695,6.021
		l-6.668-0.589l-1.617,0.448c-1.366,0.566-3.63,1.304-5.582,0.971c-3.031-0.517-14.903-8.78-15.156-5.423
		c-0.252,3.357,1.768,8.007-2.273,9.814c-4.043,1.808-5.053,3.098-6.569,4.39c-1.515,1.29-6.062-2.841-9.094,1.549
		c-3.031,4.391-10.609,9.557-13.388,10.071c-2.778,0.517-4.294,0-3.789-3.357c0.505-3.357-1.768-5.165-3.537-3.099
		c-1.769,2.066-5.81,5.424-9.346,3.357c-3.537-2.066-6.821-6.714-9.347-6.455c-2.525,0.258-7.832,4.905-7.832,4.905
		s-0.252-2.84-2.273-5.423s-4.293-6.456-6.315-6.456s-6.82-1.032-8.083-3.099c-1.263-2.066-6.569-9.039-6.569-9.039
		s-3.284-2.324-5.051,0c-1.768,2.324-4.295,0-5.054-1.031c-0.757-1.034-8.839-1.549-8.839-1.549l-3.538,1.29l-3.283-4.649
		c0,0-1.779-7.23-1.394-9.296c0.384-2.065,3.162-6.456,3.162-6.456l8.336-8.263l1.263-7.231c0,0,4.041-3.357,4.041-5.682
		c0-2.323-0.505-5.939-0.505-5.939L196.966,7c0,0-6.063,2.066-7.074,2.581c-1.01,0.517-9.093,0-12.883,4.908
		c-3.788,4.905-9.094,5.68-11.367,5.938c-2.273,0.258-4.293-2.582-4.293-2.582s-4.042-1.292-5.811,3.873
		c-1.768,5.164-8.083,12.911-8.083,12.911l-2.021,9.556c0,0-0.505,4.907-3.284,7.489s-3.536,9.555-3.536,9.555
		s-0.758,4.905-3.032,7.488c-2.274,2.582-6.063,4.391-6.315,8.264s0.758,6.714,2.273,9.554c1.516,2.843,0,7.232,0,7.232
		s-3.536,1.808-3.283,4.391c0.252,2.581-1.768,4.905-1.768,4.905l-6.569-2.582c0,0-6.566,0.517-9.347,4.132
		c-2.778,3.614-8.082,7.747-10.861,5.164c-2.779-2.582-10.357-8.006-11.873-10.072c-1.516-2.064-6.568-5.938-10.61-3.872
		s-2.526,5.423-3.284,6.455c-0.758,1.034-6.566,5.939-6.566,5.939s-1.517,1.55-0.759,3.873c0.759,2.325,0.506,3.101-0.505,4.907
		c-1.01,1.807-4.042,3.1-3.79,5.94c0.253,2.839,2.527,6.197,1.01,7.229c-1.515,1.033-2.273,6.456-2.273,6.456
		s1.768,4.133,1.768,6.457c0,2.322-1.263,2.581-3.789,0.516c-2.525-2.067-3.536-5.423-6.569-5.681
		c-3.031-0.259-4.041,0.516-6.566,1.289c-2.527,0.775-8.337-0.257-8.337-0.257s-3.789-0.517-5.557,1.55
		c-1.768,2.066-3.537-3.1-5.305-2.066s-4.546,3.874-3.789,5.681c0.758,1.808,6.567,8.265,6.567,9.813s6.821,3.098,6.821,3.098
		l3.283,9.039c0,0,6.569,6.972,6.821,8.265c0.252,1.291,2.273,3.098,4.293,3.098s3.032,4.132,3.032,4.132s-0.253,4.132-1.769,4.648
		c-1.516,0.516-4.799,3.873-7.325,3.358c-2.526-0.518-4.548,0.773-6.063,2.84c-1.515,2.065-8.083,1.55-8.083,1.55
		s-6.315,2.841-6.315,5.164c0,2.324,0.253,6.198,1.263,8.78s-0.252,2.323-1.263,3.356c-1.01,1.033-5.811,3.873-4.799,6.973
		c1.01,3.098,5.305,1.549,3.79,3.873c-1.516,2.324-4.042,3.875-5.306,5.682c-1.263,1.809-3.789,7.229-4.799,7.746
		c-1.01,0.518-0.757,5.424,2.778,5.94c3.537,0.517,6.821-1.291,7.074,3.874c0.253,5.164,2.273,5.938,2.778,8.521
		c0.505,2.583-2.021,17.818-3.031,20.143s-3.284,10.846-2.527,13.428c0.759,2.582,4.8,2.841,5.053,6.716
		c0.252,3.872,3.031,8.521,6.063,8.004s4.042-0.517,7.073-1.29c3.031-0.776,7.074,1.807,9.094,4.13
		c2.021,2.324,1.768,4.133,0.253,6.716c-1.516,2.582-2.526,5.421-0.505,5.68c2.021,0.258,5.809,2.066,10.61,2.066
		c4.799,0,10.104-0.259,11.873-2.582c1.768-2.324,4.546-4.648,4.546-6.972c0-2.325,1.516-3.358,4.296-3.358
		c2.778,0,8.082-1.032,8.082,2.065c0,3.101,1.769,6.198,5.306,5.424c3.536-0.775,4.546-3.357,6.819-6.197
		c2.274-2.842,6.316-6.972,9.094-4.133c2.778,2.841,2.526,6.199,5.053,7.23c2.526,1.033,3.284-0.774,5.81-1.29
		c2.526-0.517,5.053-5.424,8.337-1.55c3.283,3.873,2.525,5.164,6.819,5.939c4.295,0.774,9.852,1.549,13.136,1.549
		s5.558-2.065,3.537-5.165c-2.021-3.099-6.063-4.389-5.306-9.296c0.759-4.905,4.053-2.323,6.068-2.841
		c2.016-0.516,4.037,0,4.037,2.324s1.263,9.813,1.263,9.813l9.347,6.199c0,0,10.105,3.614,11.368,8.521
		c1.263,4.906,6.316,15.493,6.316,15.493s6.819,6.715,10.61,6.456c3.789-0.258,6.819,0.776,6.819,3.356c0,2.583,0,9.556,0,9.556
		s4.294,2.583,4.294,6.714c0,4.132,1.011,8.264,2.021,10.072c1.01,1.808,4.293,4.905,5.557,7.487
		c1.263,2.583,1.515,6.714,1.515,6.714s-3.208,1.825-4.329,2.007c-1.12,0.181-7.068-2.007-7.068-2.007s-5.001-0.182-8.88,0.822
		c-3.879,1.003-6.983,4.01-6.983,4.01l0.346,5.925l5.689,5.193c0,0,1.293,5.653,1.379,6.473c0.086,0.821,3.276,0.73,3.276,0.73
		s3.104-7.019,3.621-7.565c0.517-0.547,5.085-1.186,5.085-1.186l4.052-3.372c0,0,4.311-0.091,4.569,0.455
		c0.259,0.547,0,3.465-0.346,4.284c-0.345,0.821-1.81,3.556-1.81,3.556l-1.293,5.012c0,0,1.293,2.645,1.725,4.102
		c0.432,1.459,5.431,3.646,5.431,3.646l6.38,1.823l8.103-1.003l7.415-4.102l2.5-3.1l6.035-4.466c0,0,2.931-1.003,4.138-2.007
		c1.206-1.001,3.104-2.277,3.879-1.457s0.603,3.464,0.603,3.464l2.672,0.456c0,0,5.172,3.554,5.948,4.374s2.679,5.288,2.679,5.288
		L271.36,427l11.724-0.418l2.932-1.769l3.534-0.366c0,0,1.983,2.461,3.018,2.097c1.035-0.363,3.104-3.098,3.104-3.098l4.311-10.938
		c0,0,2.5-2.918,3.448-3.19c0.949-0.274,4.828-3.281,4.828-3.281h6.552l2.413-0.82l3.621-1.823h4.655l0.604-2.006l2.758-0.729h4.914
		c0,0,1.551-3.462,2.068-4.192c0.518-0.729,3.449-1.457,3.449-1.457l2.5-6.381l2.586-3.646l5.518-1.366l2.758-2.735l0.949-4.557
		l1.982-3.373l3.966-0.183l3.706-0.272l3.708,5.469l3.88,2.096l4.482-0.455l3.879,2.825h3.621l2.845-3.554l5-2.553l5.69-2.461
		l5.431-5.834l3.448-1.275l0.689,2.187l7.156,5.469l3.965-0.455l3.276-4.192h3.104l3.104-1.549l7.759,0.363l5-2.917l1.121-2.916
		l4.914-5.56l1.724-4.193l8.621-5.468l4.31-0.365l4.354,0.137l2.457,3.691l2.327,5.605l-0.388,5.606l2.587,0.956l2.457,4.238
		l5.948,6.837l3.879,2.05l-1.293,2.188l1.034,4.785l2.716-0.82c4.526-0.546,11.121,3.419,11.121,3.419l3.104,2.323l2.587-3.417
		l3.104,1.913h7.5l4.267-3.69l6.725-8.478l2.974-0.684l-0.388-2.461l-1.81-2.734l1.551-3.008l13.967-15.176h5.431l5.819-3.281h7.371
		l2.586-0.956l4.008-2.188c0,0,4.656,0.547,5.044-0.547s3.362-3.281,3.362-3.281l-1.164-4.238l-0.646-6.699l4.139-2.325l2.974,0.957
		l0.388-7.382l-0.518-2.325l9.311-8.065l0.389-5.196c0,0-0.389-1.776-0.905-3.828c-0.518-2.051,9.569-8.339,9.569-8.339v-5.059
		l0.346-0.058c0.687-1.515,1.549-3.021,2.309-4.106c1.684-2.408,4.549-0.344,5.728-0.688s3.876-14.277,3.876-14.277
		s1.685-8.773,1.348-14.968c-0.337-6.192-0.506-6.021-2.696-9.29c-2.19-3.268-2.864-8.257-2.864-8.257s0-15.138,0.337-20.297
		s6.739-8.774,7.582-10.494c0.843-1.721-0.843-3.957-0.843-3.957s2.865-4.473,3.875-5.504c1.012-1.031,1.518,1.375,3.033,1.719
		c1.517,0.346,1.854-1.203,4.044-3.096s2.359-3.612,2.526-8.602C626.688,180.82,626.185,178.757,624.162,177.036z"/>
</g>
</svg>
