<?xml version="1.0" encoding="utf-8"?>
<!-- Generator: Adobe Illustrator 16.0.0, SVG Export Plug-In . SVG Version: 6.00 Build 0)  -->
<!DOCTYPE svg PUBLIC "-//W3C//DTD SVG 1.1//EN" "http://www.w3.org/Graphics/SVG/1.1/DTD/svg11.dtd">
<svg version="1.1" xmlns="http://www.w3.org/2000/svg" xmlns:xlink="http://www.w3.org/1999/xlink" x="0px" y="0px" width="640px"
	 height="417px" viewBox="0 0 640 417" enable-background="new 0 0 640 417" xml:space="preserve">
<g id="zoneMapJeju1">
	<g opacity="0.1">
		<polygon fill="#808080" points="614.861,154.094 618.475,152.039 625.62,155.036 627.133,150.737 620.324,144.6 619.736,134.253 
			615.029,133.422 607.043,139.667 603.008,132.765 602,128.775 601.074,122.245 601.074,116.857 604.27,111.639 598.553,102.347 
			590.314,99.636 593.004,90.696 586.195,86.606 579.471,84.267 571.57,82.212 562.323,84.755 562.912,88.29 557.783,84.099 
			550.135,78.225 538.198,71.44 534.163,64.909 535.844,60.633 532.482,54.673 524.076,51.879 519.285,52.62 516.091,56.896 
			510.963,56.07 505.751,50.027 495.412,49 484.063,53.36 480.197,54.959 458.174,54.505 443.295,60.725 438.924,61.743 
			410.092,69.428 395.97,61.743 389.287,59.106 386.891,67.207 382.479,69.146 375.165,75.841 361.043,75.43 354.107,75.43 
			345.029,86.893 330.403,84.099 319.643,92.481 305.354,89.482 299.469,92.649 291.736,90.799 289.046,96.017 280.976,94.53 
			271.562,89.484 262.146,101.964 252.9,101.964 248.866,107.362 242.645,106.428 239.955,113.524 233.735,112.952 227.346,114.721 
			221.63,114.804 215.746,120.393 213.582,120.393 210.997,118.646 207.277,118.646 208.223,123.409 198.892,126.268 
			192.903,120.393 186.788,122.202 183.635,124.521 179.412,128.362 175.376,132.269 168.252,129.824 158.922,137.984 
			147.763,141.539 134.776,139.157 128.598,142.588 127.273,153.97 125.761,158.718 120.906,161.576 106.091,161.778 
			104.199,167.081 100.795,172.468 93.986,171.929 91.675,178.099 90.12,184.546 88.648,192.728 86.252,197.944 82.554,205.058 
			77.553,206.581 75.788,213.239 71.626,210.815 70.071,217.675 63.809,213.98 56.664,220.681 55.823,226.143 55.655,229.521 
			55.658,229.562 52.041,230.354 46.808,237.593 41.575,239.15 26.444,248.708 26.066,262.616 20.581,260.522 13.394,262.948 
			13.016,278.874 15.853,284.114 16.105,290.591 12.953,298.339 17.934,305.325 16.168,307.77 12.449,310.354 12.133,316.502 
			14.655,320.059 17.429,321.741 22.115,332.919 28.546,343.085 34.85,350.763 42.164,356.638 50.737,362.073 63.725,362.926 
			65.093,368.229 69.777,369.052 72.677,378.976 84.529,392.806 88.564,401.736 92.851,409 102.14,407.435 105.082,405.75 
			107.057,402.257 109.117,408.175 114.665,408.342 118.742,404.235 114.287,397.779 116.892,393.916 117.271,385.819 
			117.722,381.883 124.137,377.247 130.142,374.099 133.483,369.415 139.126,364.829 146.471,366.673 155.927,373.054 
			161.791,370.387 166.613,367.593 170.995,371.054 173.958,373.468 174.494,373.468 177.289,375.087 180.988,371.063 
			185.443,367.857 189.436,370.239 210.535,358.817 216.503,364.608 224.278,370.896 237.518,366.09 243.107,363.666 
			248.193,366.661 256.431,381.257 262.777,380.315 269.208,371.948 273.706,371.309 281.354,373.816 289.593,370.842 
			294.089,365.063 299.428,365.899 303.168,366.419 305.606,363.582 310.103,364.921 316.365,368.843 318.719,366.005 
			324.184,366.46 330.319,373.53 335.152,369.709 333.094,362.724 347.299,366.419 356.125,371.722 362.43,367.243 371.76,364.451 
			376.3,355.526 384.369,349.938 389.539,346.032 391.683,337.65 408.705,337.511 415.387,336.951 419.422,336.539 423.205,337.237 
			432.157,336.409 446.405,330.949 456.996,328.854 463.932,327.742 470.867,328.854 474.775,324.091 479.818,319.497 
			483.098,316.852 484.862,316.431 488.52,315.735 490.158,309.167 493.437,305.548 496.841,301.482 511.467,307.028 
			521.639,304.062 531.221,298.833 541.98,301.524 546.184,297.438 549.294,290.263 555.01,285.161 553.16,277.062 552.613,273.437 
			552.775,273.407 558.877,272.671 559.297,266.257 561.23,262.437 567.703,258.16 567.703,252.571 568.46,247.268 570.057,243.077 
			570.316,236.175 591.24,218.983 594.687,218.221 599.814,215.25 598.049,209.746 597.797,202.222 601.831,199.23 603.261,189.731 
			606.791,182.863 611.835,185.371 617.131,186.572 619.316,181.095 614.188,174.85 609.396,164.159 611.414,158.739 		"/>
		<path fill="#808080" d="M575.908,35.351c0,1.443-1.586,4.827,0.396,5.882c1.984,1.055,7.756,2.496,8.326,2.886
			c0.57,0.387,2.725,1.719,2.725,1.719l6.063-0.61c0,0,2.947,1.443,3.457,2.386c0.51,0.943,2.379,1.388,2.379,1.388
			s3.4-1.221,3.514-2.22s1.473-5.548,1.813-5.771c0.34-0.221,3.627-3.383,3.627-3.383s2.664-3.607,2.211-4.384
			s-6.461-3.328-6.574-3.994s-0.227-2.719-0.227-2.719s3.23-2.497,3.797-2.996c0.566-0.5,2.381-1.942,2.324-2.997
			c-0.059-1.053-4.139-1.94-7.48-1.885c-3.344,0.055-3.854-0.999-3.854-2.053c0-1.055-1.586-2.94-2.209-3.772
			c-0.625-0.833-5.439-4.661-6.178-4.939C589.281,7.61,585.031,7,585.031,7s-2.889,1.774-2.889,3.272c0,1.499,0,6.602,0,6.602
			s-3.174,4.773-4.08,5.217s-2.041,5.049-3.287,5.659s-1.814,1.886-0.736,3.272C575.115,32.41,575.908,33.909,575.908,35.351z"/>
	</g>
</g>
<g id="zoneMapJeju2">
	<g opacity="0.1">
		<g>
			<path fill="#129EDA" d="M495.412,49l10.339,1.027l5.212,6.043l5.128,0.825l3.194-4.275l4.791-0.741l8.406,2.794l3.361,5.96
				l-1.681,4.276l4.035,6.531l11.937,6.784l7.648,5.874l5.129,4.191l-0.589-3.535l9.247-2.543l7.9,2.055l6.725,2.34l6.809,4.09
				l-2.689,8.939l8.238,2.711l5.717,9.292l-3.195,5.219v5.388l0.926,6.53l1.008,3.989l4.035,6.902l7.986-6.245l4.707,0.831
				l0.588,10.347l6.809,6.138l-1.513,4.299l-7.146-2.997l-3.613,2.055l-3.447,4.646l-2.018,5.42l4.791,10.69l5.129,6.245
				l-2.186,5.478l-5.296-1.201l-5.044-2.508l-3.53,6.868l-1.43,9.499l-4.034,2.991l0.252,7.524l1.766,5.504l-5.128,2.971
				l-3.446,0.763l-20.924,17.191l-0.26,6.902l-1.597,4.19l-0.757,5.304v5.589l-6.473,4.276l-1.934,3.82l-0.42,6.414l-6.102,0.736
				l-0.162,0.029l0.547,3.625l1.85,8.1l-5.716,5.102l-3.11,7.176l-4.203,4.086l-10.76-2.691l-9.582,5.229l-10.172,2.967
				l-14.626-5.546l-3.404,4.065l-3.278,3.619l-1.639,6.568l-3.657,0.695l-1.765,0.421l-3.279,2.646l-5.043,4.594l-3.908,4.764
				l-6.936-1.112l-6.936,1.112l-10.591,2.095l-14.248,5.46l-8.952,0.828l-3.783-0.698l-4.035,0.412l-6.682,0.56l-17.022,0.14
				l-2.144,8.382l-5.17,3.906l-8.069,5.588l-4.54,8.925l-9.33,2.792l-6.305,4.479l-8.826-5.303l-14.205-3.695l2.059,6.985
				l-4.833,3.821l-6.136-7.07l-5.464-0.455l-2.354,2.838l-6.262-3.922l-4.497-1.339l-2.438,2.837l-3.74-0.52l-5.338-0.837
				l-4.497,5.779l-8.238,2.975l-7.649-2.508l-4.498,0.64l-6.431,8.367l-6.346,0.941l-8.238-14.596l-5.085-2.995l-5.59,2.424
				l-13.239,4.806l-7.775-6.287l-5.968-5.791l-21.099,11.422l-3.993-2.382l-4.455,3.206l-3.699,4.023l-2.795-1.619h-0.536
				l-2.963-2.414l-4.382-3.461l-4.823,2.794l-5.863,2.667l-9.457-6.381l-7.345-1.844l-5.643,4.586l-3.341,4.684l-6.005,3.148
				l-6.415,4.636l-0.452,3.937l-0.378,8.097l-2.605,3.863l4.455,6.456l-4.077,4.106l-5.548-0.167l-2.06-5.918l-1.975,3.493
				l-2.942,1.685L92.851,409l-4.287-7.264l-4.035-8.931l-11.852-13.83l-2.9-9.924l-4.684-0.823l-1.368-5.303l-12.987-0.853
				l-8.574-5.436l-7.313-5.875l-6.304-7.678l-6.431-10.166l-4.686-11.178l-2.774-1.683l-2.522-3.557l0.315-6.147l3.719-2.585
				l1.766-2.444l-4.981-6.986l3.152-7.748l-0.252-6.477l-2.837-5.24l0.378-15.926l7.187-2.426l5.485,2.094l0.378-13.908
				l15.131-9.558l5.232-1.558l5.233-7.238l3.618-0.793l-0.003-0.041l0.168-3.378l0.84-5.462l7.145-6.7l6.263,3.694l1.555-6.859
				l4.161,2.424l1.765-6.658l5.001-1.523l3.698-7.113l2.396-5.217l1.471-8.182l1.555-6.447l2.312-6.17l6.809,0.539l3.404-5.387
				l1.892-5.303l14.815-0.202l4.854-2.858l1.513-4.748l1.324-11.382l6.178-3.431l12.987,2.382l11.159-3.555l9.331-8.16l7.124,2.444
				l4.035-3.906l4.224-3.841l3.152-2.319l6.115-1.81l5.989,5.875l9.331-2.858l-0.945-4.764h3.719l2.585,1.747h2.165l5.884-5.589
				l5.716-0.083l6.389-1.769l6.22,0.572l2.69-7.097l6.221,0.935l4.035-5.398h9.246l9.416-12.479l9.414,5.046l8.07,1.486l2.69-5.218
				l7.733,1.851l5.885-3.167l14.289,2.999l10.76-8.383l14.626,2.794l9.078-11.463h6.936l14.122,0.411l7.313-6.694l4.412-1.939
				l2.396-8.101l6.683,2.637l14.122,7.685l28.832-7.685l4.371-1.019l14.879-6.22l22.023,0.454l3.866-1.599L495.412,49 M495.412,42
				c-0.856,0-1.707,0.157-2.511,0.466l-11.349,4.36c-0.055,0.021-0.109,0.043-0.164,0.065l-2.512,1.039l-20.559-0.424
				c-0.048-0.001-0.097-0.001-0.145-0.001c-0.927,0-1.844,0.184-2.7,0.542l-14.338,5.994l-3.801,0.885
				c-0.071,0.017-0.143,0.035-0.214,0.054l-26.135,6.965l-11.671-6.35c-0.251-0.137-0.511-0.258-0.776-0.363l-6.683-2.637
				c-0.827-0.327-1.699-0.489-2.569-0.489c-1.052,0-2.102,0.237-3.067,0.708c-1.766,0.861-3.088,2.423-3.645,4.306l-1.476,4.985
				l-1.438,0.632c-0.699,0.308-1.345,0.729-1.909,1.245l-5.22,4.778l-11.285-0.329c-0.068-0.002-0.136-0.003-0.204-0.003h-6.936
				c-2.139,0-4.16,0.978-5.487,2.654l-6.444,8.137l-10.459-1.998c-0.437-0.083-0.876-0.124-1.313-0.124
				c-1.546,0-3.063,0.513-4.302,1.478l-8.199,6.387l-11.111-2.332c-0.476-0.1-0.958-0.149-1.438-0.149
				c-1.15,0-2.291,0.284-3.317,0.836l-3.534,1.902l-5.137-1.229c-0.543-0.13-1.091-0.193-1.631-0.193c-2.574,0-5,1.425-6.22,3.792
				l-0.31,0.601l-1.886-0.347l-8.45-4.529c-1.047-0.562-2.182-0.831-3.303-0.831c-2.137,0-4.229,0.978-5.592,2.785l-7.315,9.695
				H252.9c-2.208,0-4.286,1.042-5.607,2.81l-1.528,2.044l-2.08-0.313c-0.35-0.053-0.699-0.078-1.044-0.078
				c-2.87,0-5.499,1.769-6.542,4.52l-0.804,2.119l-0.92-0.084c-0.213-0.02-0.427-0.029-0.641-0.029c-0.63,0-1.258,0.085-1.868,0.253
				l-5.522,1.529l-4.816,0.07c-1.759,0.026-3.444,0.712-4.719,1.924l-2.758,2.62c-0.948-0.46-1.993-0.702-3.055-0.702h-3.719
				c-2.095,0-4.081,0.938-5.41,2.558c-0.868,1.057-1.396,2.331-1.546,3.66l-2.517-2.468c-1.327-1.302-3.095-2.003-4.902-2.003
				c-0.663,0-1.332,0.094-1.986,0.288l-6.115,1.81c-0.777,0.23-1.509,0.594-2.162,1.074l-3.152,2.319
				c-0.195,0.143-0.382,0.296-0.561,0.459l-4.224,3.841c-0.054,0.049-0.107,0.099-0.159,0.149l-0.953,0.922l-3.066-1.052
				c-0.742-0.255-1.51-0.379-2.271-0.379c-1.67,0-3.314,0.598-4.609,1.731l-8.234,7.201l-8.104,2.582l-11.267-2.066
				c-0.419-0.077-0.841-0.115-1.263-0.115c-1.182,0-2.353,0.299-3.398,0.88l-6.178,3.431c-1.971,1.094-3.294,3.071-3.555,5.311
				l-1.246,10.71l-0.495,1.554l-0.949,0.559l-12.959,0.177c-2.924,0.04-5.515,1.894-6.498,4.647l-1.63,4.572l-0.732,1.158
				l-2.596-0.206c-0.186-0.015-0.372-0.022-0.556-0.022c-2.897,0-5.522,1.795-6.552,4.544l-2.312,6.17
				c-0.1,0.266-0.183,0.538-0.25,0.815l-1.555,6.447c-0.032,0.133-0.061,0.267-0.085,0.402l-1.313,7.307l-1.955,4.255l-2.261,4.35
				l-2.188,0.666c-1.994,0.607-3.595,2.064-4.399,3.949c-0.776,0.057-1.547,0.244-2.279,0.562c-1.356,0.59-2.472,1.585-3.214,2.823
				c-0.595-0.16-1.204-0.238-1.811-0.238c-1.737,0-3.458,0.645-4.791,1.894l-7.145,6.7c-1.142,1.071-1.893,2.494-2.13,4.042
				l-0.677,4.401c-1.067,0.5-2,1.267-2.7,2.236l-3.838,5.31l-2.951,0.878c-0.614,0.183-1.2,0.449-1.741,0.791l-15.131,9.558
				c-1.974,1.246-3.196,3.395-3.259,5.728l-0.139,5.122c-0.326,0.061-0.648,0.144-0.965,0.251l-7.187,2.426
				c-2.788,0.941-4.69,3.525-4.76,6.466l-0.378,15.926c-0.029,1.22,0.262,2.426,0.842,3.499l2.062,3.808l0.13,3.338l-2.583,6.348
				c-0.903,2.221-0.607,4.75,0.784,6.702l1.449,2.032l-0.248,0.172c-1.778,1.236-2.885,3.226-2.996,5.389l-0.315,6.147
				c-0.081,1.572,0.371,3.125,1.281,4.408l2.522,3.557c0.553,0.78,1.261,1.439,2.08,1.936l0.829,0.502l3.806,9.08
				c0.151,0.359,0.331,0.706,0.54,1.036l6.431,10.166c0.154,0.244,0.323,0.477,0.506,0.7l6.304,7.677
				c0.306,0.373,0.65,0.713,1.026,1.016l7.313,5.875c0.203,0.163,0.416,0.315,0.636,0.455l8.574,5.436
				c0.989,0.627,2.121,0.996,3.29,1.073l7.933,0.521l0.103,0.398c0.686,2.659,2.862,4.67,5.566,5.146l0.398,0.07l1.68,5.747
				c0.278,0.954,0.757,1.837,1.403,2.591L78.563,396.6l3.623,8.019c0.104,0.231,0.221,0.457,0.351,0.675l4.287,7.264
				c1.272,2.156,3.58,3.443,6.027,3.443c0.386,0,0.775-0.032,1.165-0.098l9.289-1.565c0.583-0.098,1.149-0.27,1.687-0.509
				c1.116,0.814,2.472,1.299,3.917,1.343l5.548,0.167c0.07,0.002,0.141,0.003,0.211,0.003c1.862,0,3.651-0.743,4.967-2.068
				l4.077-4.106c2.374-2.391,2.708-6.134,0.794-8.908l-1.743-2.526c0.678-1.042,1.066-2.247,1.125-3.491l0.368-7.861l0.073-0.634
				l3.506-2.534l5.562-2.916c0.972-0.509,1.811-1.24,2.448-2.134l2.792-3.914l2.188-1.779l2.753,0.691l8.438,5.693
				c1.176,0.793,2.542,1.197,3.916,1.197c0.985,0,1.973-0.208,2.898-0.628l5.863-2.667c0.208-0.095,0.412-0.2,0.611-0.314
				l0.707-0.41l0.612,0.483l2.918,2.377c0.798,0.65,1.725,1.112,2.709,1.361l1.534,0.889c1.096,0.635,2.306,0.943,3.506,0.943
				c1.909,0,3.792-0.779,5.156-2.263l3.214-3.497l0.146-0.105l0.047,0.028c1.103,0.658,2.344,0.988,3.586,0.988
				c1.146,0,2.292-0.281,3.333-0.844l16.58-8.975l2.28,2.212c0.151,0.147,0.309,0.287,0.473,0.419l7.775,6.287
				c1.265,1.022,2.823,1.557,4.402,1.557c0.803,0,1.61-0.138,2.388-0.42l13.239-4.806c0.134-0.049,0.266-0.102,0.396-0.158
				l2.322-1.007l0.396,0.233l7.314,12.959c1.253,2.22,3.597,3.559,6.094,3.559c0.341,0,0.685-0.025,1.029-0.076l6.346-0.941
				c1.795-0.267,3.417-1.22,4.522-2.659l4.692-6.104l0.057-0.008l6.098,1.999c0.708,0.232,1.445,0.349,2.181,0.349
				c0.805,0,1.609-0.139,2.377-0.416l8.238-2.975c1.244-0.449,2.335-1.242,3.147-2.286l1.963-2.523l1.263,0.198
				c0.04,0.006,0.081,0.012,0.121,0.018l3.74,0.52c0.322,0.044,0.644,0.066,0.964,0.066c1.684,0,3.313-0.608,4.584-1.71l4.897,3.067
				c1.149,0.72,2.436,1.068,3.711,1.068c1.809,0,3.595-0.7,4.935-2.031l3.736,4.306c1.381,1.591,3.328,2.412,5.291,2.412
				c1.522,0,3.055-0.495,4.338-1.509l4.833-3.821c1.015-0.803,1.763-1.848,2.202-3.006l2.863,0.745l7.96,4.783
				c1.112,0.668,2.36,1,3.605,1c1.424,0,2.844-0.434,4.054-1.293l5.363-3.81l8.225-2.461c1.835-0.549,3.364-1.825,4.232-3.532
				l3.738-7.35l6.617-4.582c0.079-0.055,0.157-0.112,0.234-0.17l5.17-3.906c1.266-0.956,2.169-2.314,2.562-3.851l0.809-3.161
				l11.634-0.095c0.176-0.002,0.352-0.01,0.526-0.024l6.682-0.56c0.043-0.003,0.085-0.007,0.127-0.012l3.039-0.311l2.798,0.517
				c0.42,0.077,0.845,0.116,1.271,0.116c0.215,0,0.43-0.01,0.645-0.03l8.952-0.828c0.638-0.059,1.263-0.205,1.86-0.434l13.688-5.246
				l9.879-1.954l5.702-0.915l5.827,0.935c0.37,0.06,0.741,0.088,1.109,0.088c2.076,0,4.069-0.925,5.411-2.56l3.586-4.371l4.512-4.11
				l1.884-1.52l0.068-0.016l3.498-0.665c2.683-0.51,4.823-2.533,5.484-5.183l1.214-4.865l2.099-2.317
				c0.062-0.067,0.121-0.136,0.18-0.206l0.209-0.25l9.972,3.782c0.799,0.302,1.64,0.455,2.482,0.455c0.659,0,1.319-0.093,1.96-0.28
				l10.172-2.967c0.483-0.141,0.951-0.333,1.393-0.575l7.183-3.919l8.108,2.028c0.562,0.141,1.132,0.209,1.698,0.209
				c1.8,0,3.557-0.695,4.879-1.981l4.203-4.086c0.656-0.637,1.18-1.396,1.544-2.235l2.498-5.763l4.566-4.076
				c1.902-1.698,2.73-4.295,2.163-6.781l-0.964-4.221c2.769-0.821,4.798-3.291,4.992-6.253l0.326-4.987l0.449-0.888l4.924-3.253
				c1.962-1.296,3.142-3.49,3.142-5.84v-5.092l0.576-4.039l1.318-3.46c0.272-0.713,0.426-1.466,0.454-2.229l0.142-3.756
				l17.196-14.128l1.81-0.401c0.701-0.155,1.375-0.417,1.996-0.777l5.128-2.971c2.849-1.65,4.162-5.061,3.156-8.195l-1.467-4.575
				l-0.097-2.879l1.084-0.804c1.487-1.103,2.478-2.75,2.753-4.581l1.227-8.152c0.102,0.028,0.204,0.054,0.307,0.077l5.296,1.201
				c0.519,0.118,1.039,0.174,1.552,0.174c2.812,0,5.419-1.701,6.499-4.407l2.186-5.478c0.945-2.37,0.526-5.065-1.093-7.037
				l-4.534-5.521l-3.234-7.218l0.671-1.801l1.605-2.165l3.68,1.543c0.866,0.363,1.787,0.545,2.707,0.545
				c0.968,0,1.936-0.201,2.839-0.602c1.763-0.782,3.124-2.256,3.765-4.075l1.513-4.299c0.938-2.665,0.182-5.632-1.916-7.523
				l-4.671-4.21l-0.425-7.472c-0.184-3.242-2.573-5.932-5.771-6.497l-4.707-0.831c-0.404-0.071-0.812-0.106-1.217-0.106
				c-1.552,0-3.072,0.516-4.313,1.486l-1.433,1.121l-0.406-1.605l-0.804-5.672v-2.921l2.165-3.536
				c1.377-2.248,1.373-5.078-0.008-7.323l-5.717-9.292c-0.866-1.408-2.203-2.464-3.773-2.981l-1.758-0.578l0.724-2.406
				c0.923-3.066-0.354-6.368-3.099-8.017l-6.809-4.09c-0.412-0.248-0.85-0.453-1.304-0.611l-6.726-2.34
				c-0.177-0.062-0.356-0.116-0.538-0.163l-7.9-2.055c-0.577-0.15-1.17-0.226-1.762-0.226c-0.625,0-1.249,0.083-1.856,0.25
				l-8.603,2.366l-6.713-5.155c-0.256-0.196-0.524-0.375-0.805-0.534l-10.381-5.9l-1.254-2.029l0.399-1.017
				c0.771-1.961,0.617-4.164-0.417-5.999l-3.361-5.96c-0.854-1.514-2.24-2.656-3.89-3.204l-8.406-2.794
				c-0.715-0.237-1.46-0.357-2.208-0.357c-0.357,0-0.715,0.027-1.07,0.083l-4.791,0.741c-1.812,0.28-3.44,1.259-4.537,2.728
				l-0.028,0.038l-2.598-3.012c-1.173-1.359-2.822-2.216-4.608-2.394l-10.339-1.027C495.874,42.011,495.643,42,495.412,42
				L495.412,42z"/>
		</g>
		<g>
			<path fill="#129EDA" d="M585.031,7c0,0,4.25,0.61,4.986,0.887c0.738,0.278,5.553,4.106,6.178,4.939
				c0.623,0.832,2.209,2.718,2.209,3.772c0,1.027,0.484,2.055,3.608,2.055c0.08,0,0.161,0,0.245-0.002
				c0.1-0.001,0.2-0.002,0.301-0.002c3.281,0,7.123,0.866,7.18,1.887c0.057,1.055-1.758,2.497-2.324,2.997
				c-0.566,0.499-3.797,2.996-3.797,2.996s0.113,2.053,0.227,2.719s6.121,3.218,6.574,3.994s-2.211,4.384-2.211,4.384
				s-3.287,3.162-3.627,3.383c-0.34,0.224-1.699,4.772-1.813,5.771S599.254,49,599.254,49s-1.869-0.444-2.379-1.388
				c-0.51-0.942-3.457-2.386-3.457-2.386l-6.063,0.61c0,0-2.154-1.332-2.725-1.719c-0.57-0.39-6.342-1.831-8.326-2.886
				c-1.982-1.055-0.396-4.438-0.396-5.882c0-1.441-0.793-2.94-1.869-4.328c-1.078-1.387-0.51-2.662,0.736-3.272
				s2.381-5.216,3.287-5.659s4.08-5.217,4.08-5.217s0-5.103,0-6.602C582.143,8.774,585.031,7,585.031,7 M585.031,0
				c-1.287,0-2.557,0.355-3.664,1.036c-2.324,1.428-6.225,4.527-6.225,9.237v4.423c-0.553,0.777-1.072,1.472-1.399,1.868
				c-1.857,1.401-2.722,3.417-3.5,5.231c-0.097,0.227-0.227,0.53-0.351,0.806c-1.611,1.282-2.743,3.029-3.199,5.003
				c-0.618,2.671,0.028,5.411,1.819,7.715c0.1,0.129,0.182,0.242,0.247,0.338c-0.228,1.045-0.497,2.411-0.446,3.945
				c0.114,3.434,1.829,6.28,4.703,7.81c1.648,0.876,3.893,1.587,6.884,2.496c0.486,0.147,1.099,0.334,1.513,0.467
				c0.804,0.513,1.87,1.174,2.261,1.416c1.11,0.687,2.386,1.046,3.682,1.046c0.233,0,0.467-0.012,0.701-0.035l3.69-0.372
				c1.92,2.218,4.654,3.087,5.888,3.38c0.533,0.127,1.077,0.19,1.619,0.19c0.803,0,1.603-0.138,2.365-0.412
				c1.832-0.658,7.358-2.642,8.079-7.82c0.108-0.52,0.449-1.706,0.736-2.603c0.619-0.575,1.459-1.373,2.625-2.495
				c0.284-0.273,0.545-0.57,0.778-0.887c1.754-2.374,5.401-7.314,2.626-12.07c-0.659-1.129-1.484-1.927-2.566-2.662
				c1.446-1.548,2.993-3.861,2.831-6.891c-0.285-5.12-4.92-8.168-12.785-8.484c-0.618-1.068-1.328-1.987-1.909-2.739
				c-0.089-0.115-0.169-0.219-0.235-0.307c-1.213-1.617-7.069-6.448-9.312-7.293c-0.552-0.207-1.458-0.547-6.461-1.266
				C585.695,0.023,585.362,0,585.031,0L585.031,0z"/>
		</g>
	</g>
</g>
<g id="zoneMapJeju3">
	<g>
		<polyline fill="none" stroke="#2694BF" stroke-linecap="square" stroke-linejoin="round" stroke-miterlimit="10" points="
			496.486,301.489 511.113,307.025 521.285,304.048 530.867,298.837 541.627,301.536 545.83,297.44 548.939,290.272 
			554.656,285.152 552.807,277.055 552.421,273.419 558.523,272.68 558.943,266.257 560.877,262.44 567.35,258.157 567.35,252.573 
			568.106,247.267 569.703,243.078 569.963,236.191 590.886,218.97 594.333,218.226 599.46,215.247 597.695,209.754 
			597.442,202.216 601.478,199.236 602.907,189.742 606.438,182.855 611.48,185.368 616.776,186.578 618.962,181.084 
			613.834,174.849 609.043,164.145 611.061,158.746 614.507,154.091 618.121,152.043 625.266,155.022 626.779,150.74 
			619.971,144.597 619.382,134.265 614.675,133.427 606.689,139.665 602.654,132.776 601.646,128.772 586.516,129.703 
			582.816,131.007 576.091,133.055 569.534,138.08 564.743,143.107 557.515,144.318 555.917,147.948 545.746,151.764 
			536.332,156.884 531.96,158.281 530.279,163.679 520.612,165.913 518.931,167.681 		"/>
		<polyline fill="none" stroke="#2694BF" stroke-linecap="square" stroke-linejoin="round" stroke-miterlimit="10" points="
			518.931,167.681 515.568,167.215 511.029,171.311 506.154,170.008 500.942,174.941 498.252,175.407 494.722,177.363 
			479.423,189.276 470.176,189.929 462.275,186.02 455.298,184.902 444.79,187.88 433.946,191.138 414.528,207.149 408.896,208.358 
			405.029,207.429 401.499,209.662 399.146,213.944 		"/>
		<polyline fill="none" stroke="#2694BF" stroke-linejoin="round" stroke-miterlimit="10" points="375.945,355.523 384.016,349.938 
			389.185,346.029 391.328,337.651 408.351,337.513 415.033,336.954 419.068,336.535 422.851,337.233 431.803,336.396 
			446.051,330.949 456.643,328.855 463.577,327.738 470.512,328.855 474.421,324.107 479.465,319.501 482.743,316.848 
			484.508,316.428 488.165,315.73 489.804,309.168 493.082,305.537 496.486,301.489 		"/>
		<polyline fill="none" stroke="#2694BF" stroke-linejoin="round" stroke-miterlimit="10" points="399.146,213.944 390.824,215.48 
			378.215,220.367 374.054,225.394 362.076,226.789 352.367,232.932 341.775,235.027 337.992,236.563 326.771,236.005 
			318.322,236.563 310.001,243.125 		"/>
		<polyline fill="none" stroke="#2694BF" stroke-linejoin="round" stroke-miterlimit="10" points="174.14,373.465 176.935,375.072 
			180.633,371.068 185.089,367.856 189.081,370.229 210.181,358.828 216.149,364.6 223.924,370.882 237.164,366.088 
			242.754,363.668 247.839,366.646 256.077,381.26 262.424,380.33 268.854,371.953 273.352,371.302 281,373.814 289.238,370.836 
			293.735,365.064 299.073,365.901 302.813,366.415 305.252,363.574 309.748,364.925 316.012,368.833 318.365,365.995 
			323.829,366.46 329.965,373.535 334.799,369.718 332.739,362.736 346.945,366.415 355.771,371.72 362.076,367.252 
			371.406,364.459 375.945,355.523 		"/>
		<polyline fill="none" stroke="#2694BF" stroke-linejoin="round" stroke-miterlimit="10" points="310.001,243.125 304.831,244.94 
			299.031,245.639 287.684,248.013 278.101,247.733 273.057,251.503 266.752,249.409 260.574,250.247 255.656,249.409 
			247.965,249.409 239.391,248.711 229.935,252.481 228.295,259.043 224.891,265.885 		"/>
		<polyline fill="none" stroke="#2694BF" stroke-linejoin="round" stroke-miterlimit="10" points="116.916,385.823 117.368,381.878 
			123.783,377.235 129.788,374.094 133.129,369.416 138.771,364.844 146.116,366.658 155.573,373.046 161.437,370.393 
			166.259,367.602 170.641,371.058 173.604,373.465 174.14,373.465 		"/>
		<polyline fill="none" stroke="#2694BF" stroke-linejoin="round" stroke-miterlimit="10" points="224.891,265.885 214.173,265.046 
			202.258,261.905 194.692,263.162 186.812,261.665 178.994,261.066 172.375,265.744 151.822,264.069 139.906,278.103 
			136.061,279.219 130.954,279.219 127.234,280.685 122.317,281.174 117.715,283.664 111.242,298.277 105.862,303.211 		"/>
		<polyline fill="none" stroke="#2694BF" stroke-linejoin="round" stroke-miterlimit="10" points="116.916,385.823 116.538,393.92 
			113.932,397.783 118.388,404.252 114.311,408.348 108.763,408.162 106.703,402.251 104.728,405.741 101.786,407.416 92.497,409 
			88.21,401.739 84.175,392.804 72.322,378.981 69.423,369.066 64.738,368.229 63.37,362.923 50.383,362.085 41.81,356.642 
			34.496,350.777 28.191,343.097 21.761,332.904 17.075,321.734 17.828,321.159 20.122,319.406 21.468,314.659 31.386,313.078 
			36.43,307.679 45.508,309.262 60.639,318.477 68.12,323.038 75.182,331.321 75.938,327.878 75.854,318.012 97.709,308.237 
			105.862,303.211 		"/>
		<polyline fill="none" stroke="#2694BF" stroke-linejoin="round" stroke-miterlimit="10" points="55.469,229.511 51.687,230.351 
			46.454,237.611 41.221,239.146 26.091,248.711 25.712,262.604 20.228,260.509 13.04,262.952 12.662,278.869 15.499,284.105 
			15.751,290.598 12.599,298.348 17.579,305.328 15.814,307.771 12.095,310.354 11.779,316.5 14.301,320.058 17.075,321.734 
			20.122,319.406 21.468,314.659 31.386,313.078 36.43,307.679 45.508,309.262 60.639,318.477 68.12,323.038 75.182,331.321 
			75.938,327.878 75.854,318.012 97.709,308.237 105.862,303.211 111.242,298.277 117.715,283.664 		"/>
		<polyline fill="none" stroke="#2694BF" stroke-linejoin="round" stroke-miterlimit="10" points="178.994,261.066 177.779,262.258 
			172.375,265.744 151.822,264.069 139.906,278.103 136.061,279.219 130.954,279.219 127.234,280.685 122.317,281.174 
			117.715,283.664 		"/>
		<polyline fill="none" stroke="#2694BF" stroke-linejoin="round" stroke-miterlimit="10" points="55.301,229.511 55.469,226.137 
			56.31,220.692 63.455,213.991 69.717,217.668 71.272,210.826 75.434,213.246 77.199,206.589 82.2,205.053 85.898,197.934 
			88.295,192.721 89.766,184.529 91.32,178.106 93.632,171.917 100.44,172.477 103.845,167.076 105.736,161.771 120.552,161.585 		
			"/>
		<polyline fill="none" stroke="#2694BF" stroke-linejoin="round" stroke-miterlimit="10" points="300.411,245.473 299.031,245.639 
			287.684,248.013 278.101,247.733 273.057,251.503 266.752,249.409 260.574,250.247 255.656,249.409 247.965,249.409 
			239.391,248.711 229.935,252.481 228.295,259.043 224.891,265.885 224.087,265.83 214.173,265.046 202.258,261.905 
			194.692,263.162 186.812,261.665 178.994,261.066 		"/>
		<polyline fill="none" stroke="#2694BF" stroke-linejoin="round" stroke-miterlimit="10" points="120.552,161.585 125.406,158.723 
			126.92,153.976 128.243,142.596 134.422,139.175 147.409,141.549 158.567,137.989 167.898,129.821 175.022,132.263 
			179.057,128.354 183.281,124.514 186.434,122.211 192.549,120.396 198.538,126.259 207.869,123.398 206.923,118.651 
			210.643,118.651 213.228,120.396 215.393,120.396 		"/>
		<polyline fill="none" stroke="#2694BF" stroke-linejoin="round" stroke-miterlimit="10" points="324.749,236.137 318.322,236.563 
			310.001,243.125 		"/>
		<polyline fill="none" stroke="#2694BF" stroke-linejoin="round" stroke-miterlimit="10" points="215.393,120.396 221.276,114.811 
			226.992,114.718 233.381,112.949 239.602,113.508 242.291,106.434 248.512,107.362 252.547,101.964 261.793,101.964 
			271.208,89.491 280.622,94.518 288.691,96.007 291.382,90.794 299.115,92.656 305,89.489 319.289,92.471 330.049,84.094 
			344.676,86.886 353.754,75.436 360.688,75.436 		"/>
		<polyline fill="none" stroke="#2694BF" stroke-linejoin="round" stroke-miterlimit="10" points="310.001,243.125 304.831,244.94 
			300.411,245.473 		"/>
		<polyline fill="none" stroke="#2694BF" stroke-linejoin="round" stroke-miterlimit="10" points="458.899,185.479 455.298,184.902 
			444.79,187.88 433.946,191.138 414.528,207.149 408.896,208.358 405.029,207.429 401.499,209.662 399.146,213.944 		"/>
		<polyline fill="none" stroke="#2694BF" stroke-linejoin="round" stroke-miterlimit="10" points="360.688,75.436 374.811,75.855 
			382.124,69.153 386.537,67.199 388.933,59.1 395.615,61.752 409.737,69.432 438.569,61.752 		"/>
		<polyline fill="none" stroke="#2694BF" stroke-linejoin="round" stroke-miterlimit="10" points="399.146,213.944 390.824,215.48 
			378.215,220.367 374.054,225.394 362.076,226.789 352.367,232.932 341.775,235.027 337.992,236.563 326.771,236.005 
			324.749,236.137 		"/>
		<polyline fill="none" stroke="#2694BF" stroke-linejoin="round" stroke-miterlimit="10" points="438.569,61.752 442.941,60.729 
			457.819,54.493 479.843,54.958 483.709,53.376 495.058,49 505.396,50.026 510.608,56.075 515.736,56.913 518.931,52.63 
			523.722,51.886 532.127,54.678 535.49,60.636 533.809,64.918 537.844,71.435 549.78,78.23 557.43,84.094 562.558,88.282 
			561.969,84.745 571.216,82.231 579.117,84.279 585.842,86.606 592.65,90.702 589.961,99.638 598.198,102.337 603.914,111.646 
			600.72,116.858 600.72,122.257 601.646,128.772 586.516,129.703 582.816,131.007 576.091,133.055 569.534,138.08 564.743,143.107 
			557.515,144.318 555.917,147.948 545.746,151.764 536.332,156.884 531.96,158.281 530.279,163.679 520.612,165.913 
			518.931,167.681 		"/>
		<polyline fill="none" stroke="#2694BF" stroke-linejoin="round" stroke-miterlimit="10" points="518.931,167.681 515.568,167.215 
			511.029,171.311 506.154,170.008 500.942,174.941 498.252,175.407 494.722,177.363 479.423,189.276 470.176,189.929 
			462.275,186.02 458.899,185.479 		"/>
	</g>
</g>
<g id="zoneMapJeju4">
	<path fill="none" stroke="#25B8F1" stroke-width="3" stroke-linecap="round" stroke-linejoin="round" stroke-miterlimit="10" d="
		M552.422,273.419l6.102-0.739l0.42-6.424l1.934-3.815l6.473-4.281v-5.586l0.757-5.308l1.597-4.187l0.26-6.889l20.924-17.22
		l3.446-0.746l5.128-2.979l-1.766-5.491l-0.252-7.54l4.034-2.978l1.43-9.495l3.53-6.887l5.044,2.512l5.296,1.211l2.186-5.493
		l-5.129-6.236l-4.791-10.705l2.018-5.4l3.447-4.653l3.613-2.049l7.146,2.98l1.513-4.282l-6.809-6.143l-0.588-10.332l-4.707-0.838
		l-7.986,6.236l-4.035-6.888l-1.008-4.003l-0.926-6.515v-5.398l3.195-5.214l-5.717-9.308l-8.238-2.7l2.689-8.935l-6.809-4.097
		l-6.725-2.327l-7.9-2.048l-9.247,2.514l0.589,3.538l-5.129-4.189l-7.648-5.863l-11.937-6.796l-4.035-6.516l1.681-4.281
		l-3.361-5.958l-8.406-2.792l-4.791,0.745l-3.194,4.282l-5.128-0.838l-5.212-6.051L495.059,49l-11.349,4.376l-3.866,1.582
		l-22.023-0.465l-14.879,6.235l-4.371,1.025l-28.832,7.68l-14.122-7.68l-6.683-2.653l-2.396,8.1l-4.412,1.954l-7.313,6.701
		l-14.122-0.417h-6.936l-9.078,11.447l-14.626-2.791l-10.761,8.377L305,89.487l-5.885,3.168l-7.732-1.861l-2.69,5.212l-8.069-1.489
		l-9.414-5.027l-9.416,12.474h-9.246l-4.035,5.398l-6.221-0.931l-2.689,7.075l-6.221-0.558l-6.389,1.77l-5.715,0.092l-5.885,5.584
		h-2.164l-2.586-1.746h-3.719l0.945,4.749l-9.33,2.861l-5.99-5.864l-6.115,1.816l-3.152,2.304l-4.223,3.839l-4.035,3.909
		l-7.125-2.443l-9.33,8.169l-11.158,3.559l-12.988-2.374l-6.178,3.421l-1.324,11.379l-1.513,4.747l-4.854,2.863l-14.815,0.187
		l-1.892,5.305l-3.404,5.4l-6.809-0.559l-2.312,6.189l-1.555,6.422l-1.471,8.192l-2.396,5.212l-3.698,7.121l-5.001,1.536
		l-1.765,6.656l-4.161-2.419l-1.555,6.84l-6.263-3.676l-7.145,6.703l-0.84,5.445l-0.168,3.374l0.003,0.036l-3.618,0.802
		l-5.233,7.262l-5.232,1.535l-15.131,9.564l-0.378,13.893l-5.485-2.093l-7.187,2.442l-0.378,15.917l2.837,5.237l0.252,6.492
		l-3.152,7.748l4.981,6.982l-1.766,2.441l-3.719,2.584l-0.315,6.143l2.522,3.562l2.774,1.675l4.686,11.171l6.431,10.191l6.304,7.68
		l7.313,5.865l8.574,5.445l12.987,0.838l1.368,5.306l4.684,0.836l2.9,9.915l11.852,13.822l4.035,8.937L92.498,409l9.289-1.583
		l2.942-1.677l1.975-3.49l2.061,5.911l5.547,0.185l4.078-4.093l-4.455-6.471l2.605-3.863l0.378-8.097l0.452-3.944l6.414-4.643
		l6.006-3.143l3.341-4.677l5.643-4.573l7.345,1.816l9.457,6.386l5.863-2.652l4.822-2.791l4.382,3.455l2.963,2.408h0.536l2.795,1.604
		l3.699-4.002l4.455-3.211l3.992,2.373l21.1-11.402l5.968,5.771l7.775,6.283l13.239-4.795l5.59-2.419l5.086,2.978l8.238,14.615
		l6.346-0.931l6.431-8.378l4.497-0.652l7.649,2.514l8.238-2.978l4.497-5.772l5.338,0.837l3.74,0.515l2.438-2.84l4.498,1.35
		l6.262,3.909l2.354-2.839l5.465,0.465l6.136,7.074l4.833-3.815l-2.059-6.982l14.205,3.679l8.826,5.305l6.305-4.468l9.33-2.792
		l4.54-8.938l8.069-5.584l5.17-3.91l2.144-8.376l17.022-0.141l6.682-0.559l4.035-0.418l3.783,0.697l8.952-0.837l14.248-5.447
		l10.591-2.093l6.936-1.118l6.936,1.118l3.908-4.748l5.043-4.608l3.279-2.652l1.765-0.418l3.657-0.699l1.639-6.562l3.278-3.63
		l3.404-4.05l14.626,5.538l10.172-2.98l9.582-5.21l10.76,2.7l4.203-4.098l3.11-7.168l5.716-5.119l-1.85-8.098l-0.547-3.602
		L552.422,273.419z"/>
	<path fill="none" stroke="#25B8F1" stroke-width="1" stroke-linecap="round" stroke-linejoin="round" stroke-miterlimit="10" d="
		M575.908,35.351c0,1.443-1.586,4.827,0.396,5.882c1.984,1.055,7.756,2.496,8.326,2.886c0.57,0.387,2.725,1.719,2.725,1.719
		l6.063-0.61c0,0,2.947,1.443,3.457,2.386c0.51,0.943,2.379,1.388,2.379,1.388s3.4-1.221,3.514-2.22s1.473-5.548,1.813-5.771
		c0.34-0.221,3.627-3.383,3.627-3.383s2.664-3.607,2.211-4.384s-6.461-3.328-6.574-3.994s-0.227-2.719-0.227-2.719
		s3.23-2.497,3.797-2.996c0.566-0.5,2.381-1.942,2.324-2.997c-0.059-1.053-4.139-1.94-7.48-1.885
		c-3.344,0.055-3.854-0.999-3.854-2.053c0-1.055-1.586-2.94-2.209-3.772c-0.625-0.833-5.439-4.661-6.178-4.939
		C589.281,7.61,585.031,7,585.031,7s-2.889,1.774-2.889,3.272c0,1.499,0,6.602,0,6.602s-3.174,4.773-4.08,5.217
		s-2.041,5.049-3.287,5.659s-1.814,1.886-0.736,3.272C575.115,32.41,575.908,33.909,575.908,35.351z"/>
</g>
</svg>
