<?xml version="1.0" encoding="utf-8"?>
<!-- Generator: Adobe Illustrator 16.0.0, SVG Export Plug-In . SVG Version: 6.00 Build 0)  -->
<!DOCTYPE svg PUBLIC "-//W3C//DTD SVG 1.1//EN" "http://www.w3.org/Graphics/SVG/1.1/DTD/svg11.dtd">
<svg version="1.1" xmlns="http://www.w3.org/2000/svg" xmlns:xlink="http://www.w3.org/1999/xlink" x="0px" y="0px" width="640px"
	 height="613px" viewBox="0 0 640 613" enable-background="new 0 0 640 613" xml:space="preserve">
<g id="zoneMap_x5F_Ulsan1">
	<path opacity="0.1" fill="#808080" d="M626.285,201.324l0.992-1.929l0.234-2.807l-1.051-0.702l-0.059-5.028
		c0,0,1.811-2.397,1.576-3.566c-0.232-1.169-1.459-4.034-1.459-4.034l-1.754-5.963l-0.584-2.865l-3.156,0.409l-1.344-1.813
		c0,0-1.227-2.396-0.701-3.332c0.525-0.936,0.936-3.684,0.936-3.684l-1.578-2.279l-5.023,0.525l-0.234-3.332l-1.168-3.449
		c0,0-3.682-1.813-4.148-2.223c-0.469-0.409-5.025-4.21-5.025-4.21l-3.33-6.372l-0.877-5.788l-1.109-2.748l2.104-2.222
		c0,0,0.643-1.287,0.525-1.58c-0.117-0.291-1.52-2.455-1.52-2.455l-0.525-5.437c0,0-1.461-2.024-1.285-3.353
		c0.174-1.326,1.635-3.197,1.635-3.197s2.221-1.637,3.623-2.046c1.402-0.408,3.447-2.396,3.447-2.396s1.461-1.871,1.811-2.632
		c0.352-0.759-0.699-3.449-0.699-3.449s-4.441-2.865-4.734-3.099c-0.291-0.234-3.037-1.229-3.037-1.229s-0.936,0.293-1.928,0.526
		c-0.994,0.234-2.805-0.818-2.805-0.818s-2.514,0.585-2.863,1.229c-0.352,0.642-1.111,1.345-1.111,1.345s-2.805-1.403-2.746-2.573
		c0.059-1.169-2.746-2.514-2.746-2.514h-3.154l-1.93-1.929h-4.381l-1.752-1.872l-2.279-1.287l-3.506-0.467l-2.221-1.754
		l-3.037-3.099l-2.746-1.403c0,0-2.863,1.228-3.215,1.228c-0.35,0-2.512-0.351-2.512-0.351l-3.213,2.164l-1.871-0.936l-3.271-6.257
		h-6.777l-2.805-1.929c0,0-3.855-0.234-4.615-0.585c-0.76-0.352-2.631-2.515-2.631-2.515s-2.277,0.293-3.096,0.701
		c-0.818,0.41-2.805-1.052-2.805-1.052s-3.33-0.409-4.031,0.526s-2.279,1.521-2.279,1.521l-3.68,0.059c0,0-2.396-3.1-2.805-3.567
		c-0.41-0.468-2.514-1.987-2.514-1.987h-3.33c0,0-1.518-4.386-2.453-4.911c-0.936-0.526-2.338-3.917-2.338-3.917h-11.803
		c0,0-3.389,1.403-5.023,2.337c-1.637,0.937-3.389,3.392-3.389,3.392l-6.486,6.899c0,0-1.402,1.287-2.162,1.463
		c-0.76,0.175-1.051,0.292-2.104,0.935c-1.051,0.644-1.752,0.877-2.104,0.877c-0.35,0-3.271,1.987-3.271,1.987l-7.596,6.256
		l-7.361,8.537l-3.156,2.163l-1.811-2.163l-3.682-1.346l-2.045,1.639c0,0-1.811-2.164-2.57-2.457
		c-0.76-0.291-2.336,0.117-2.336,0.117l-1.871,2.573l-2.453,2.339l-1.461-1.169l-2.045,0.408l-0.936,4.093l0.117,4.562l-0.994,6.898
		l-2.861-0.644l-4.268,2.339l-1.205,2.437l-4.986-1.092l-5.375-6.314c0,0-2.805-0.936-5.844,0c-3.037,0.936-3.271,1.039-4.441-0.415
		c-1.168-1.456-4.674-3.796-6.777-3.327c-2.102,0.468-3.738,3.041-5.609,2.338c-1.869-0.7-5.842-1.057-7.244-2.398
		s-10.283-10.463-10.283-10.463l-0.936-7.484c0,0,1.869-5.378,4.207-7.951s2.805-12.396,2.805-12.396s-4.207-4.678-2.57-6.782
		s3.973-4.911,3.973-4.911l0.234-7.951l-2.805-4.677l-0.701-6.081L358.51,35.1l-8.18-1.402h-9.115l-11.92-9.12
		c0,0-3.037,1.402-4.441,1.87c-1.4,0.468-17.527-14.734-17.527-14.734l-9.349-3.976l-5.375,5.146c0,0-5.142-0.469-7.479-0.937
		c-2.337-0.467-9.582-1.87-11.686-2.807c-2.103-0.935-4.907,0.468-4.907,0.468s-3.272,6.315-5.143,6.315
		c-1.87,0-9.114-0.936-12.62,0.7c-3.506,1.639-6.543,2.34-7.947,0.702c-1.401-1.638-6.544-9.589-6.544-9.589s0-0.467-4.207,0
		c-4.207,0.469-10.75,3.508-10.75,3.508s-9.115,5.848-9.115,7.485c0,1.637-2.805,3.741-2.805,3.741s-5.375-0.234-7.479,1.169
		s-7.011,4.677-7.945,4.677c-0.936,0-5.376,0.703-5.376,0.703l-12.621,3.742c0,0-8.647,1.168-10.049,1.87
		c-1.402,0.701-3.739,3.04-5.609,4.21c-1.87,1.168-4.908,0-4.908,0s-6.311,1.402-10.283,7.483s-13.555,23.152-13.555,23.152
		l0.233,4.444c0,0,1.87,3.508,1.87,4.444c0,0.936-2.571,4.442-2.571,4.442s-2.805,2.105-2.571,7.017s-0.701,16.839,2.338,19.411
		c3.038,2.572,10.984,11.693,10.984,11.693l3.973,6.081l-4.44,5.612l-6.31,0.468c0,0-2.337-3.039-3.039-3.742
		c-0.701-0.701-16.36-5.847-16.36-5.847s-6.543-2.807-8.881-2.572c-2.337,0.232-3.506-0.468-4.674,2.572s-4.907,14.734-4.907,14.734
		l-7.012,8.887l-9.115-3.976c0,0-4.44-2.573-4.908-1.637c-0.467,0.935-6.311,1.637-6.311,1.637s-7.945,2.104-10.283,5.613
		c-2.336,3.507-5.609,13.564-7.244,15.2c-1.636,1.638-2.571,3.743-2.571,3.743l7.946,7.951l7.479-2.104c0,0,6.544,1.871,7.479,4.209
		c0.935,2.339,1.637,10.992,3.272,14.268c1.637,3.273,3.271,4.677,2.104,7.016c-1.168,2.338-2.805,5.846-3.038,8.887
		c-0.233,3.04-2.571,6.081-3.272,10.523c-0.7,4.444-1.635,5.379-4.206,6.549c-2.571,1.169-7.524,0.234-7.524,0.234
		s-16.828,18.241-20.1,20.58C36.643,248.156,10,258.915,10,258.915l2.337,9.354l12.153,13.565l14.023-5.614
		c0,0,5.609,9.355,6.076,11.693c0.468,2.34-1.402,7.484-1.402,7.484l-0.935,6.549c0,0-2.805,7.483,0,7.951
		c2.805,0.469,11.218,2.339,13.088,3.742c1.87,1.403,5.141,2.807,9.349,2.807c4.206,0,10.283,0,10.283,0s2.805-6.549,7.479-6.549
		c4.674,0,9.349-1.957,12.62-2.85c3.272-0.893,8.881-1.36,13.556-4.166c4.674-2.807,10.75-5.613,10.75-5.613s0.935,4.21,0,7.484
		c-0.935,3.273-7.011,7.016-7.011,9.354s4.207,12.161,4.207,12.161s4.207,2.807,8.413,5.612c4.207,2.807,5.609,6.081,9.816,7.483
		c4.207,1.404,8.881,5.146,15.425,7.018c6.544,1.871,8.414,0,9.815,3.741c1.403,3.741,0.935,4.21,9.349,2.807
		s10.283-1.353,12.153,0.728c1.87,2.079,1.87,9.563,2.805,11.901c0.935,2.338,2.337,2.573,2.337,5.38c0,2.806,0,8.185,0,8.185
		s2.805,3.274,5.141,3.976c2.338,0.701,5.843,3.041,6.077,4.443c0.233,1.404,1.402,6.549,3.038,9.354
		c1.636,2.807,12.854,15.903,12.854,15.903s7.479,2.807,9.349,7.484c1.87,4.678,7.012,8.888,9.349,11.693
		c2.337,2.807,6.544,0.936,9.815,5.146c3.272,4.209,9.816,9.354,12.621,10.29s4.674,4.209,8.882,4.678
		c4.206,0.467,3.271-3.274,9.815-2.339c6.544,0.935,10.751-1.403,14.022-2.339c3.273-0.936,7.012-6.081,7.012-6.081l9.815,4.678
		l2.338,6.12c0,0-6.544,3.234-5.142,5.105c1.403,1.871,5.142,10.758,5.142,10.758s11.857,1.871,11.304,3.274
		c-0.553,1.403,3.653,6.08,5.522,7.483c1.871,1.403,2.805,7.483,2.805,7.483s-4.207,9.824-5.609,9.824s-3.739-1.871-4.674,5.612
		c-0.935,7.483-5.609,8.887-5.609,8.887s-1.402,6.549-1.869,7.953c-0.469,1.402,6.075,8.887,6.075,8.887s7.948,2.805,9.35,3.741
		c1.402,0.936,10.75-1.871,15.891-2.339c5.143-0.468,9.35,0.468,9.35,0.468s4.207-7.017,7.945-7.017c3.74,0,5.143,1.871,10.283-1.87
		c5.143-3.742,5.143-3.742,5.143-3.742s0.467,3.742,4.207,3.742c3.738,0,12.621-3.274,12.621-3.274v10.758l15.424,13.097
		l5.143,2.339v4.209c0,0-3.74,11.226-5.143,14.032s5.143,11.227,5.143,11.227s3.271,8.419,0,9.822
		c-3.273,1.403-1.299,7.483,1.453,7.483s8.361,1.871,11.166,4.21s7.479,0.935,8.881,2.807c1.402,1.87,4.207,5.612,9.35,6.548
		c5.141,0.936,7.012,3.743,7.012,0c0-3.742,2.803-13.564,6.543-13.097s3.271-2.807,3.271-6.08c0-3.274,1.871-5.613,6.545-5.613
		s8.412-2.339,8.412-5.613c0-3.273,2.338-8.887,2.338-8.887l6.545-0.935l7.479,5.611c0,0,3.74-5.145,7.01-4.677
		c3.273,0.468,8.883,0.936,10.283-2.807c1.404-3.741,0-11.226,0-11.226s-0.889-2.338-2.758-3.04
		c-1.869-0.701-4.439-0.234-3.271-3.274s0.467-3.04-0.701-4.209c-1.17-1.17-5.377-1.872-5.609-3.508
		c-0.234-1.638-6.545-2.105-6.545-2.105l-0.232-9.588c0,0,3.037-4.21,3.037-6.783c0-2.572-6.076-5.847-3.037-7.25
		c3.037-1.403,3.738-1.87,5.375-2.339c1.635-0.467,5.842-2.104,5.842-2.104s1.402-0.469,0.467-3.508
		c-0.934-3.041-3.504-0.936-2.336-3.275c1.168-2.338,3.271-3.507,3.271-3.507l-4.908-2.105c0,0,2.104-2.806,3.74-2.806
		s3.506-3.274,5.143-4.211c1.635-0.935,3.148-1.637,3.148-1.637v-5.847l-9.227,1.403l-0.934-4.678l2.805-2.104l-0.467-12.863
		l-1.871-7.484c0,0,5.844-1.402,7.713-1.402s4.908-2.807,4.908-2.807v-8.419l-4.676-2.807l1.404-4.679l-11.219,4.211l-2.805-4.443
		l5.375-3.509l1.637-6.782l-5.143-2.807l-7.479,5.146l-0.234-7.25l-3.738-10.757l0.701-7.018c0,0,2.102-1.402,1.402-3.976
		c-0.701-2.572-8.18-9.589-8.18-9.589l-0.447-4.903l6.912,6.464h1.637l4.986,3.508v2.729c0,0,2.492,2.338,2.959,3.508
		c0.469,1.169,0.857,3.119,0.857,3.119l11.141,6.314l5.375-8.186l-5.998-3.664l5.998-5.77l7.557,3.82l2.338-4.365v-1.794
		l3.895-3.353l3.193,1.247c0,0,3.584-4.286,3.818-4.364c0.232-0.078,1.09-9.511,1.09-9.511l-2.258-3.274c0,0,2.258-1.871,4.283-4.6
		s3.428-3.508,3.428-3.508l-2.648-3.508l-1.402-0.078l0.701-1.56l-9.348-13.954h-4.986l-1.246,2.885l-1.402,1.561l-3.428,0.311
		l0.701-1.481l-0.234-1.169l-5.92,1.48c0,0-1.246-4.288-1.791-4.833c-0.547-0.546-2.105-3.429-2.105-3.429l-15.111-6.472
		l1.713-2.884l17.217,8.653l6.545,5.457l2.648-0.469l3.895-3.196c0,0,2.572-1.248,3.973-0.701c1.402,0.546,6.389,4.599,6.389,4.599
		s2.492-4.599,2.57-5.223c0.078-0.623,1.014-1.87,1.014-1.87l-1.949-5.613l-2.414-5.068l1.324-7.015l-1.246-0.702v-1.56
		c0,0-10.596,0.859-10.906-0.155c-0.313-1.015-0.545-6.159-0.545-6.159l-3.584-3.196l3.193-6.313c0,0,4.441,3.585,5.297,3.897
		c0.857,0.313,2.805,0.078,2.805,0.078l1.48-1.639c1.559,0,4.52,0,4.52,0s2.182,0,2.961,0.936c0.777,0.936,0.934,1.871,0.934,1.871
		l1.557,3.542l6.779,12.557l-1.52,2.923l1.051,8.068l-1.285,8.887l10.283,1.521l7.83,10.991l-5.727,7.602l-0.35,12.98l-0.818,0.935
		l-1.051,2.456l2.57,0.351l2.922,4.443l-0.469,2.223l6.076,1.753l7.129-6.08v-1.637l-2.336-1.988v-2.455l1.168-0.818l3.738-2.807
		l0.352-2.105l1.869,0.468l0.352,2.689h5.025l-0.119-3.157l-1.4-2.222l2.57-2.222l2.453,0.351l3.039,3.157l1.52,3.157h3.037
		c0,0,2.104-1.87,2.221-3.04c0.117-1.169,3.973-3.04,3.973-3.04l1.986-3.392c0,0,0-2.572,0.234-5.146
		c0.232-2.572,4.791-2.104,4.791-2.104l-0.818-3.391l-3.037-3.274l-2.221,0.702l-0.936,3.156c0,0-1.285,0-2.922,0.468
		c-1.635,0.468-1.752,1.17-2.92,1.287c-1.168,0.116-2.688-1.17-3.039-2.223c-0.35-1.052-1.168-4.443-1.168-4.443l3.389-5.378
		l1.752,1.637l4.676-1.404l2.922-2.222h2.803v-7.366l-3.389-1.988l-1.051,0.936l-5.025,0.234l-3.973,4.326l-1.869-1.052l0.699-8.888
		l1.053-1.637h9.115l1.168-0.818l0.232,3.391h3.391l2.57-7.133c0,0,0.35-3.274,0.467-4.444c0.117-1.169,1.52-10.641,1.52-10.641
		l-0.584-0.351h-0.584l-1.402,0.585l-0.117-1.053l-1.168-0.234c0,0-0.701,3.509-1.287,4.21c-0.584,0.701-5.49,0.234-5.49,0.234
		l-0.234,3.742l-1.402-0.117l0.195-13.798l6.855,0.311l0.467-1.714l4.363,0.936l2.182,2.338l2.648-1.248l-0.623-3.117
		c0,0,0.467-2.494,0.311-4.678c-0.154-2.182-0.467-2.182-1.09-3.273c-0.625-1.092,1.402-1.714,1.402-1.714s-0.156-2.807-0.156-3.588
		c0-0.779,2.492-4.678,1.402-5.3c-1.09-0.624-1.246-1.404-1.09-2.028s0.777-4.365,0.777-4.365l2.494-0.468
		c0,0-0.779-4.678-0.623-5.613c0.154-0.936,3.584-2.806,3.584-2.806l0.842-3.897l-0.688-2.963l0.688-1.87
		c0,0-0.375-2.65-0.688-3.742c-0.313-1.093,0.156-3.119,0.467-4.366c0.313-1.248,0.469-2.494-0.777-2.65s-2.961-1.402-2.961-1.402
		v-2.963l-2.648-0.156v-3.118l-1.559-1.56l0.643-10.349l-0.643-2.358l3.271-1.793l2.396-2.455l0.35-3.1l1.344-1.637l1.811,1.462
		l1.871-0.059l1.754-1.695l1.459-1.989l-0.525-3.916L626.285,201.324z"/>
</g>
<g id="zoneMap_x5F_Ulsan2">
	<g opacity="0.1">
		<path fill="#129EDA" d="M235.031,7.53c1.247,0,1.247,0.208,1.247,0.208s5.143,7.951,6.544,9.589
			c0.558,0.651,1.374,0.932,2.375,0.932c1.517,0,3.46-0.647,5.572-1.634c1.635-0.763,4.083-0.967,6.421-0.966
			c2.673,0,5.201,0.266,6.199,0.266c1.87,0,5.143-6.315,5.143-6.315s1.578-0.789,3.254-0.789c0.558,0,1.128,0.088,1.653,0.321
			c2.104,0.937,9.349,2.34,11.686,2.807c2.337,0.468,7.479,0.937,7.479,0.937l5.375-5.146l9.349,3.976
			c0,0,15.642,14.745,17.454,14.745c0.027,0,0.052-0.004,0.073-0.011c1.404-0.468,4.441-1.87,4.441-1.87l11.92,9.12h9.115
			l8.18,1.402l9.582,6.082l0.701,6.081l2.805,4.677l-0.234,7.951c0,0-2.336,2.807-3.973,4.911s2.57,6.782,2.57,6.782
			s-0.467,9.822-2.805,12.396s-4.207,7.951-4.207,7.951l0.936,7.484c0,0,8.881,9.121,10.283,10.463s5.375,1.698,7.244,2.398
			c0.223,0.083,0.441,0.121,0.659,0.121c1.607,0,3.099-2.047,4.95-2.459c0.187-0.042,0.384-0.061,0.59-0.061
			c2.116,0,5.123,2.061,6.188,3.388c0.623,0.775,0.981,1.107,1.639,1.107c0.577,0,1.385-0.255,2.803-0.692
			c1.013-0.312,2-0.416,2.866-0.416c1.73,0,2.978,0.416,2.978,0.416l5.375,6.314l4.986,1.092l1.205-2.437l4.268-2.339l2.861,0.644
			l0.994-6.898l-0.117-4.562l0.936-4.093l2.045-0.408l1.461,1.169l2.453-2.339l1.871-2.573c0,0,0.856-0.222,1.611-0.222
			c0.269,0,0.525,0.028,0.725,0.104c0.76,0.293,2.57,2.457,2.57,2.457l2.045-1.639l3.682,1.346l1.811,2.163l3.156-2.163l7.361-8.537
			l7.596-6.256c0,0,2.922-1.987,3.271-1.987c0.352,0,1.053-0.233,2.104-0.877c1.053-0.643,1.344-0.76,2.104-0.935
			c0.76-0.176,2.162-1.463,2.162-1.463l6.486-6.899c0,0,1.752-2.455,3.389-3.392c1.635-0.934,5.023-2.337,5.023-2.337h11.803
			c0,0,1.402,3.391,2.338,3.917c0.936,0.525,2.453,4.911,2.453,4.911h3.33c0,0,2.104,1.52,2.514,1.987
			c0.408,0.468,2.805,3.567,2.805,3.567l3.68-0.059c0,0,1.578-0.585,2.279-1.521c0.374-0.499,1.496-0.615,2.462-0.615
			c0.845,0,1.569,0.089,1.569,0.089s1.527,1.125,2.455,1.125c0.131,0,0.249-0.022,0.35-0.073c0.818-0.408,3.096-0.701,3.096-0.701
			s1.871,2.163,2.631,2.515c0.76,0.351,4.615,0.585,4.615,0.585l2.805,1.929h6.777l3.271,6.257l1.871,0.936l3.213-2.164
			c0,0,2.162,0.351,2.512,0.351c0.352,0,3.215-1.228,3.215-1.228l2.746,1.403l3.037,3.099l2.221,1.754l3.506,0.467l2.279,1.287
			l1.752,1.872h4.381l1.93,1.929h3.154c0,0,2.805,1.345,2.746,2.514c-0.059,1.17,2.746,2.573,2.746,2.573s0.76-0.703,1.111-1.345
			c0.35-0.644,2.863-1.229,2.863-1.229s1.466,0.853,2.484,0.853c0.113,0,0.221-0.011,0.32-0.034
			c0.992-0.233,1.928-0.526,1.928-0.526s2.746,0.994,3.037,1.229c0.293,0.233,4.734,3.099,4.734,3.099s1.051,2.69,0.699,3.449
			c-0.35,0.761-1.811,2.632-1.811,2.632s-2.045,1.988-3.447,2.396c-1.402,0.409-3.623,2.046-3.623,2.046s-1.461,1.871-1.635,3.197
			c-0.176,1.328,1.285,3.353,1.285,3.353l0.525,5.437c0,0,1.402,2.164,1.52,2.455c0.117,0.293-0.525,1.58-0.525,1.58l-2.104,2.222
			l1.109,2.748l0.877,5.788l3.33,6.372c0,0,4.557,3.801,5.025,4.21c0.467,0.41,4.148,2.223,4.148,2.223l1.168,3.449l0.234,3.332
			l5.023-0.525l1.578,2.279c0,0-0.41,2.748-0.936,3.684c-0.525,0.937,0.701,3.332,0.701,3.332l1.344,1.813l3.156-0.409l0.584,2.865
			l1.754,5.963c0,0,1.227,2.865,1.459,4.034c0.234,1.169-1.576,3.566-1.576,3.566l0.059,5.028l1.051,0.702l-0.234,2.807
			l-0.992,1.929l1.168,1.17l0.525,3.916l-1.459,1.989l-1.754,1.695l-1.871,0.059l-1.811-1.462l-1.344,1.637l-0.35,3.1l-2.396,2.455
			l-3.271,1.793l0.643,2.358l-0.643,10.349l1.559,1.56v3.118l2.648,0.156v2.963c0,0,1.715,1.246,2.961,1.402s1.09,1.402,0.777,2.65
			c-0.311,1.247-0.779,3.273-0.467,4.366c0.313,1.092,0.688,3.742,0.688,3.742l-0.688,1.87l0.688,2.963l-0.842,3.897
			c0,0-3.43,1.87-3.584,2.806c-0.156,0.936,0.623,5.613,0.623,5.613l-2.494,0.468c0,0-0.621,3.741-0.777,4.365s0,1.404,1.09,2.028
			c1.09,0.622-1.402,4.521-1.402,5.3c0,0.781,0.156,3.588,0.156,3.588s-2.027,0.622-1.402,1.714c0.623,1.092,0.936,1.092,1.09,3.273
			c0.156,2.184-0.311,4.678-0.311,4.678l0.623,3.117l-2.648,1.248l-2.182-2.338l-4.363-0.936l-0.467,1.714l-6.855-0.311
			l-0.195,13.798l1.402,0.117l0.234-3.742c0,0,1.601,0.152,3.082,0.152c1.112,0,2.158-0.086,2.408-0.387
			c0.586-0.701,1.287-4.21,1.287-4.21l1.168,0.234l0.117,1.053l1.402-0.585h0.584l0.584,0.351c0,0-1.402,9.472-1.52,10.641
			c-0.117,1.17-0.467,4.444-0.467,4.444l-2.57,7.133h-3.391l-0.232-3.391l-1.168,0.818h-9.115l-1.053,1.637l-0.699,8.888
			l1.869,1.052l3.973-4.326l5.025-0.234l1.051-0.936l3.389,1.988v7.366h-2.803l-2.922,2.222l-4.676,1.404l-1.752-1.637l-3.389,5.378
			c0,0,0.818,3.392,1.168,4.443c0.337,1.008,1.744,2.23,2.889,2.23c0.051,0,0.101-0.002,0.15-0.007
			c1.168-0.117,1.285-0.819,2.92-1.287c1.637-0.468,2.922-0.468,2.922-0.468l0.936-3.156l2.221-0.702l3.037,3.274l0.818,3.391
			c0,0-0.324-0.033-0.805-0.033c-1.319,0-3.815,0.251-3.986,2.138c-0.234,2.573-0.234,5.146-0.234,5.146l-1.986,3.392
			c0,0-3.855,1.871-3.973,3.04c-0.117,1.17-2.221,3.04-2.221,3.04h-3.037l-1.52-3.157l-3.039-3.157l-2.453-0.351l-2.57,2.222
			l1.4,2.222l0.119,3.157h-5.025l-0.352-2.689l-1.869-0.468l-0.352,2.105l-3.738,2.807l-1.168,0.818v2.455l2.336,1.988v1.637
			l-7.129,6.08l-6.076-1.753l0.469-2.223l-2.922-4.443l-2.57-0.351l1.051-2.456l0.818-0.935l0.35-12.98l5.727-7.602l-7.83-10.991
			l-10.283-1.521l1.285-8.887l-1.051-8.068l1.52-2.923l-6.779-12.557l-1.557-3.542c0,0-0.156-0.936-0.934-1.871
			c-0.779-0.936-2.961-0.936-2.961-0.936s-2.961,0-4.52,0l-1.48,1.639c0,0-0.701,0.084-1.446,0.084
			c-0.498,0-1.016-0.038-1.358-0.163c-0.855-0.313-5.297-3.897-5.297-3.897l-3.193,6.313l3.584,3.196c0,0,0.232,5.145,0.545,6.159
			c0.115,0.376,1.647,0.495,3.529,0.495c3.188,0,7.377-0.34,7.377-0.34v1.56l1.246,0.702l-1.324,7.015l2.414,5.068l1.949,5.613
			c0,0-0.936,1.247-1.014,1.87c-0.078,0.624-2.57,5.223-2.57,5.223s-4.986-4.053-6.389-4.599c-0.252-0.098-0.541-0.139-0.847-0.139
			c-1.396,0-3.126,0.84-3.126,0.84l-3.895,3.196l-2.648,0.469l-6.545-5.457l-17.217-8.653l-1.713,2.884l15.111,6.472
			c0,0,1.559,2.883,2.105,3.429c0.545,0.545,1.791,4.833,1.791,4.833l5.92-1.48l0.234,1.169l-0.701,1.481l3.428-0.311l1.402-1.561
			l1.246-2.885h4.986l9.348,13.954l-0.701,1.56l1.402,0.078l2.648,3.508c0,0-1.402,0.779-3.428,3.508s-4.283,4.6-4.283,4.6
			l2.258,3.274c0,0-0.857,9.433-1.09,9.511c-0.234,0.078-3.818,4.364-3.818,4.364l-3.193-1.247l-3.895,3.353v1.794l-2.338,4.365
			l-7.557-3.82l-5.998,5.77l5.998,3.664l-5.375,8.186l-11.141-6.314c0,0-0.389-1.95-0.857-3.119
			c-0.467-1.17-2.959-3.508-2.959-3.508v-2.729l-4.986-3.508h-1.637l-6.912-6.464l0.447,4.903c0,0,7.479,7.017,8.18,9.589
			c0.699,2.573-1.402,3.976-1.402,3.976l-0.701,7.018l3.738,10.757l0.234,7.25l7.479-5.146l5.143,2.807l-1.637,6.782l-5.375,3.509
			l2.805,4.443l11.219-4.211l-1.404,4.679l4.676,2.807v8.419c0,0-3.039,2.807-4.908,2.807s-7.713,1.402-7.713,1.402l1.871,7.484
			l0.467,12.863l-2.805,2.104l0.934,4.678l9.227-1.403v5.847c0,0-1.514,0.702-3.148,1.637c-1.637,0.937-3.506,4.211-5.143,4.211
			s-3.74,2.806-3.74,2.806l4.908,2.105c0,0-2.104,1.169-3.271,3.507c-1.168,2.34,1.402,0.234,2.336,3.275
			c0.936,3.039-0.467,3.508-0.467,3.508s-4.207,1.638-5.842,2.104c-1.637,0.469-2.338,0.936-5.375,2.339
			c-3.039,1.403,3.037,4.678,3.037,7.25c0,2.573-3.037,6.783-3.037,6.783l0.232,9.588c0,0,6.311,0.468,6.545,2.105
			c0.232,1.636,4.439,2.338,5.609,3.508c1.168,1.169,1.869,1.169,0.701,4.209s1.402,2.573,3.271,3.274
			c1.869,0.702,2.758,3.04,2.758,3.04s1.404,7.484,0,11.226c-0.934,2.495-3.737,3.118-6.474,3.118c-1.367,0-2.719-0.155-3.81-0.312
			c-0.143-0.021-0.285-0.03-0.429-0.03c-3.159,0-6.581,4.707-6.581,4.707l-7.479-5.611l-6.545,0.935c0,0-2.338,5.613-2.338,8.887
			c0,3.274-3.738,5.613-8.412,5.613s-6.545,2.339-6.545,5.613c0,3.063,0.41,6.125-2.599,6.125c-0.207,0-0.432-0.015-0.673-0.045
			c-0.087-0.011-0.173-0.016-0.258-0.016c-3.61,0-6.285,9.457-6.285,13.112c0,1.412-0.266,1.892-0.873,1.892
			c-1.004,0-2.938-1.309-6.139-1.892c-5.143-0.936-7.947-4.678-9.35-6.548c-1.402-1.872-6.076-0.468-8.881-2.807
			s-8.414-4.21-11.166-4.21s-4.727-6.08-1.453-7.483c3.271-1.403,0-9.822,0-9.822s-6.545-8.42-5.143-11.227
			s5.143-14.032,5.143-14.032V543.3l-5.143-2.339l-15.424-13.097v-10.758c0,0-8.883,3.274-12.621,3.274
			c-3.74,0-4.207-3.742-4.207-3.742s0,0-5.143,3.742c-2.57,1.87-4.205,2.338-5.666,2.338s-2.747-0.468-4.617-0.468
			c-3.738,0-7.945,7.017-7.945,7.017s-2.692-0.599-6.402-0.599c-0.928,0-1.919,0.037-2.947,0.131
			c-4.415,0.401-11.933,2.528-14.855,2.528c-0.48,0-0.837-0.058-1.035-0.189c-1.402-0.937-9.35-3.741-9.35-3.741
			s-6.544-7.484-6.075-8.887c0.467-1.404,1.869-7.953,1.869-7.953s4.675-1.403,5.609-8.887c0.623-4.988,1.87-5.82,3.047-5.82
			c0.588,0,1.16,0.208,1.627,0.208c1.402,0,5.609-9.824,5.609-9.824s-0.934-6.08-2.805-7.483c-1.869-1.403-6.076-6.08-5.522-7.483
			c0.553-1.403-11.304-3.274-11.304-3.274s-3.739-8.887-5.142-10.758c-1.402-1.871,5.142-5.105,5.142-5.105l-2.338-6.12
			l-9.815-4.678c0,0-3.739,5.146-7.012,6.081c-2.743,0.785-6.145,2.555-11.031,2.555c-0.94,0-1.936-0.065-2.992-0.216
			c-0.732-0.105-1.371-0.151-1.934-0.151c-4.167,0-4.167,2.53-7.186,2.53c-0.216,0-0.446-0.013-0.695-0.041
			c-4.208-0.469-6.078-3.742-8.882-4.678s-9.348-6.081-12.621-10.29c-3.271-4.21-7.479-2.339-9.815-5.146
			c-2.337-2.806-7.479-7.016-9.349-11.693c-1.87-4.678-9.349-7.484-9.349-7.484s-11.218-13.097-12.854-15.903
			c-1.636-2.806-2.805-7.95-3.038-9.354c-0.234-1.402-3.739-3.742-6.077-4.443c-2.336-0.701-5.141-3.976-5.141-3.976
			s0-5.379,0-8.185c0-2.807-1.402-3.042-2.337-5.38c-0.935-2.339-0.935-9.822-2.805-11.901c-1.04-1.157-2.081-1.687-4.248-1.687
			c-1.728,0-4.172,0.336-7.905,0.959c-2.804,0.468-4.622,0.728-5.851,0.728c-2.458,0-2.563-1.04-3.498-3.534
			c-1.401-3.741-3.271-1.87-9.815-3.741c-6.544-1.872-11.218-5.613-15.425-7.018c-4.207-1.402-5.609-4.677-9.816-7.483
			c-4.207-2.806-8.413-5.612-8.413-5.612s-4.207-9.822-4.207-12.161s6.076-6.081,7.011-9.354c0.935-3.274,0-7.484,0-7.484
			s-6.077,2.807-10.75,5.613c-4.674,2.806-10.283,3.273-13.556,4.166c-3.271,0.893-7.946,2.85-12.62,2.85
			c-4.674,0-7.479,6.549-7.479,6.549s-6.077,0-10.283,0c-4.208,0-7.479-1.403-9.349-2.807c-1.87-1.403-10.283-3.273-13.088-3.742
			c-2.805-0.468,0-7.951,0-7.951l0.935-6.549c0,0,1.87-5.145,1.402-7.484c-0.467-2.338-6.076-11.693-6.076-11.693l-14.023,5.614
			l-12.153-13.565L10,258.915c0,0,26.643-10.759,29.915-13.097c3.272-2.339,20.1-20.58,20.1-20.58s1.875,0.354,3.916,0.354
			c1.276,0,2.619-0.138,3.608-0.588c2.571-1.17,3.506-2.104,4.206-6.549c0.701-4.442,3.039-7.483,3.272-10.523
			c0.233-3.041,1.87-6.549,3.038-8.887c1.168-2.339-0.467-3.742-2.104-7.016c-1.636-3.275-2.337-11.929-3.272-14.268
			c-0.935-2.338-7.479-4.209-7.479-4.209l-7.479,2.104l-7.946-7.951c0,0,0.935-2.105,2.571-3.743
			c1.635-1.636,4.908-11.693,7.244-15.2c2.338-3.509,10.283-5.613,10.283-5.613s5.844-0.702,6.311-1.637
			c0.072-0.144,0.238-0.205,0.468-0.205c1.263,0,4.44,1.842,4.44,1.842l9.115,3.976l7.012-8.887c0,0,3.739-11.694,4.907-14.734
			s2.337-2.34,4.674-2.572c0.094-0.009,0.194-0.014,0.301-0.014c2.551,0,8.58,2.586,8.58,2.586s15.659,5.146,16.36,5.847
			c0.701,0.703,3.039,3.742,3.039,3.742l6.31-0.468l4.44-5.612l-3.973-6.081c0,0-7.947-9.121-10.984-11.693
			c-3.039-2.572-2.104-14.5-2.338-19.411s2.571-7.017,2.571-7.017s2.571-3.507,2.571-4.442c0-0.937-1.87-4.444-1.87-4.444
			l-0.233-4.444c0,0,9.582-17.071,13.555-23.152s10.283-7.483,10.283-7.483s1.351,0.519,2.805,0.519c0.727,0,1.48-0.13,2.104-0.519
			c1.87-1.17,4.207-3.509,5.609-4.21c1.402-0.702,10.049-1.87,10.049-1.87l12.621-3.742c0,0,4.44-0.703,5.376-0.703
			c0.935,0,5.842-3.273,7.945-4.677c1.577-1.052,4.993-1.184,6.604-1.184c0.538,0,0.875,0.015,0.875,0.015s2.805-2.104,2.805-3.741
			c0-1.638,9.115-7.485,9.115-7.485s6.543-3.039,10.75-3.508C233.473,7.582,234.408,7.53,235.031,7.53 M235.032,0.53
			C235.032,0.53,235.032,0.53,235.032,0.53c-0.995,0-2.215,0.082-3.733,0.25c-5.088,0.567-11.661,3.528-12.927,4.116
			c-0.287,0.133-0.564,0.286-0.831,0.457c-7.341,4.709-10.459,7.622-11.663,10.198c-5.006,0.375-7.087,1.763-7.841,2.266
			c-3.21,2.142-4.844,3.149-5.669,3.608c-0.949,0.102-2.448,0.299-4.863,0.682c-0.302,0.048-0.601,0.115-0.895,0.203l-12.107,3.589
			c-9.324,1.281-10.929,2.085-11.708,2.475c-1.443,0.722-2.733,1.786-4.099,2.912c-0.346,0.286-0.733,0.605-1.098,0.894
			c-0.688-0.254-1.354-0.369-2.039-0.369c-0.538,0-1.087,0.07-1.667,0.199c-0.931,0.207-9.249,2.259-14.625,10.488
			c-4.055,6.207-13.402,22.849-13.798,23.555c-0.648,1.155-0.956,2.471-0.886,3.793l0.233,4.444
			c0.054,1.023,0.331,2.021,0.813,2.925c0.119,0.223,0.242,0.462,0.363,0.704c-0.049,0.071-0.098,0.141-0.147,0.211
			c-2.335,2.315-4.565,6.504-4.303,12.028c0.044,0.92,0.038,2.327,0.031,3.816c-0.043,9.662,0.275,16.796,4.776,20.606
			c1.411,1.194,4.701,4.742,7.511,7.876c-2.336-1.001-6.729-2.557-15.712-5.511c-2.804-1.187-7.697-3.029-11.049-3.029
			c-0.34,0-0.676,0.017-1,0.049c-0.188,0.019-0.43,0.024-0.711,0.031c-1.963,0.047-7.178,0.173-9.799,6.996
			c-1.016,2.645-3.625,10.708-4.652,13.902l-2.883,3.655l-3.819-1.666c-4.562-2.577-6.827-2.577-7.584-2.577
			c-1.609,0-3.12,0.482-4.361,1.342c-0.813,0.187-2.143,0.415-3.257,0.55c-0.32,0.039-0.642,0.101-0.954,0.183
			c-2.465,0.653-10.783,3.195-14.316,8.499c-1.52,2.281-2.937,5.686-4.438,9.29c-0.721,1.732-1.785,4.288-2.314,5.238
			c-2.191,2.341-3.404,4.935-3.635,5.455c-1.175,2.646-0.6,5.742,1.446,7.79l7.946,7.951c1.331,1.332,3.12,2.052,4.952,2.052
			c0.632,0,1.27-0.085,1.896-0.262l5.394-1.518c0.513,0.199,1.001,0.408,1.401,0.601c0.161,0.837,0.341,1.901,0.489,2.771
			c0.798,4.716,1.466,8.26,2.788,10.907c0.475,0.95,0.934,1.746,1.311,2.395c-1.356,2.896-2.696,6.374-2.962,9.844
			c-0.044,0.407-0.536,1.595-0.895,2.463c-0.813,1.963-1.824,4.407-2.313,7.505c-0.083,0.526-0.158,0.917-0.221,1.202
			c-0.161,0.014-0.384,0.026-0.678,0.026c-1.098,0-2.278-0.17-2.641-0.236c-0.418-0.076-0.839-0.113-1.257-0.113
			c-1.94,0-3.826,0.801-5.163,2.25c-7.618,8.258-16.984,18.035-18.997,19.609c-2.371,1.462-16.568,7.508-28.494,12.324
			c-3.237,1.307-5.017,4.8-4.17,8.188l2.336,9.354c0.276,1.105,0.818,2.125,1.578,2.974l12.153,13.565
			c1.355,1.513,3.265,2.33,5.216,2.33c0.874,0,1.755-0.164,2.6-0.502l8.38-3.355c0.984,1.792,1.778,3.33,2.157,4.198
			c-0.126,0.895-0.567,2.573-1.023,3.84c-0.162,0.448-0.28,0.921-0.348,1.393l-0.833,5.838c-1.322,3.801-2.284,8.811-0.15,12.508
			c1.249,2.163,3.372,3.638,5.827,4.048c3.064,0.512,8.753,1.933,10.328,2.649c3.539,2.543,8.348,3.995,13.26,3.995h10.283
			c2.837,0,5.346-1.599,6.425-4.221c0.384-0.84,1.12-1.893,1.608-2.334c4.43-0.104,8.561-1.418,11.609-2.388
			c0.851-0.271,1.654-0.526,2.299-0.702c0.626-0.171,1.55-0.357,2.528-0.554c1.812-0.365,3.97-0.799,6.252-1.506
			c-0.209,0.739-0.328,1.524-0.328,2.366c0,1.032,0,3.775,4.772,14.917c0.535,1.248,1.42,2.313,2.549,3.067l8.414,5.613
			c1.178,0.786,2.084,1.674,3.132,2.703c1.934,1.897,4.34,4.259,8.355,5.597c1.182,0.395,2.806,1.274,4.525,2.206
			c2.964,1.605,6.654,3.604,11.188,4.901c2.435,0.696,4.377,0.979,5.814,1.145c1.017,2.494,3.263,6.401,9.424,6.401
			c1.739,0,3.803-0.289,7.002-0.823c1.97-0.329,4.085-0.663,5.588-0.8c0.183,1.017,0.347,2.251,0.455,3.063
			c0.311,2.334,0.579,4.35,1.263,6.06c0.61,1.525,1.341,2.602,1.837,3.296l0,7.669c0,1.67,0.597,3.285,1.684,4.554
			c1.245,1.454,4.561,4.96,8.445,6.126c0.378,0.113,1.046,0.47,1.581,0.819c0.555,2.447,1.702,6.718,3.5,9.8
			c1.764,3.026,10.088,12.848,13.584,16.931c0.768,0.897,1.751,1.585,2.857,2c2.176,0.839,4.873,2.635,5.316,3.548
			c1.859,4.651,5.616,8.504,8.36,11.318c0.837,0.858,1.627,1.669,2.102,2.238c2.569,3.084,5.878,3.828,7.855,4.272
			c1.546,0.347,1.586,0.399,1.812,0.688c3.6,4.631,11.096,10.963,15.824,12.599c0.244,0.14,0.78,0.552,1.177,0.857
			c1.905,1.464,4.783,3.676,9.253,4.174c0.5,0.056,0.994,0.083,1.47,0.083c3.629,0,5.831-1.571,7.013-2.415
			c0.05-0.036,0.107-0.077,0.163-0.116c0.003,0,0.007,0,0.01,0c0.174,0,0.479,0.014,0.944,0.081c1.333,0.19,2.672,0.287,3.982,0.287
			c4.881,0,8.534-1.292,11.2-2.236c0.689-0.244,1.285-0.455,1.755-0.589c2.59-0.74,4.944-2.449,6.833-4.225l0.853,0.406
			c-1.331,1.399-2.187,2.883-2.56,4.445c-0.549,2.301-0.068,4.698,1.318,6.592c0.71,1.104,2.81,5.7,4.345,9.347
			c0.94,2.233,2.968,3.821,5.361,4.199c2.335,0.369,4.866,0.875,6.627,1.307c0.74,1.399,1.626,2.506,2.156,3.168
			c1.263,1.579,2.795,3.176,4.111,4.304c0.165,0.426,0.354,1.062,0.525,1.749c-0.599,1.306-1.216,2.568-1.744,3.578
			c-3.458,0.644-7.134,3.406-8.181,11.791c-0.249,1.993-0.886,2.961-1.24,3.245c-2.164,0.856-3.775,2.742-4.268,5.043
			c-0.617,2.879-1.437,6.473-1.675,7.234c-1.168,3.494-0.355,6.746,7.456,15.679c0.792,0.906,1.805,1.593,2.94,1.993
			c3.077,1.086,6.961,2.565,7.992,3.091c1.336,0.834,2.883,1.239,4.723,1.239c2.242,0,5.205-0.617,8.636-1.331
			c2.407-0.502,5.136-1.069,6.854-1.226c0.745-0.068,1.523-0.103,2.313-0.103c2.813,0,4.895,0.435,4.915,0.438
			c0.506,0.113,1.013,0.167,1.514,0.167c2.416,0,4.693-1.266,5.978-3.407c0.788-1.297,2.017-2.814,2.831-3.541
			c0.186,0.026,0.386,0.058,0.607,0.094c0.838,0.133,1.881,0.299,3.12,0.299c3.247,0,6.243-1.117,9.704-3.619
			c1.514,0.804,3.293,1.281,5.312,1.281c1.592,0,3.59-0.336,5.621-0.812v1.295c0,2.055,0.902,4.006,2.469,5.336l15.424,13.097
			c0.494,0.419,1.044,0.768,1.633,1.036l0.618,0.281c-1.58,4.633-3.359,9.552-3.981,10.798c-0.813,1.626-3.239,6.485,5.169,17.723
			c0.212,0.664,0.397,1.373,0.522,1.984c-2.455,2.39-3.529,6.024-2.736,9.889c1.096,5.338,5.168,9.065,9.902,9.065
			c1.319,0.036,5.205,1.354,6.683,2.586c3.105,2.589,6.766,2.964,8.953,3.188c0.008,0,0.015,0.001,0.022,0.002
			c2.176,2.652,6.085,6.511,12.485,7.675c1.124,0.205,2.048,0.576,2.94,0.935c1.25,0.502,2.665,1.07,4.451,1.07
			c2.924,0,7.873-1.873,7.873-8.892c0-1.312,0.816-4.377,1.627-6.142c2.586-0.338,4.314-1.565,5.354-2.621
			c2.758-2.798,2.876-6.441,2.849-9.032c8.551-0.19,14.941-5.547,14.941-12.608c0.002-0.414,0.166-1.211,0.427-2.163l4.733,3.552
			c1.219,0.915,2.695,1.401,4.201,1.401c0.347,0,0.694-0.025,1.041-0.078c1.854-0.278,3.519-1.289,4.621-2.806
			c0.424-0.569,1.099-1.273,1.607-1.701c1.017,0.118,2.246,0.22,3.55,0.22c8.841,0,11.958-4.802,13.029-7.665
			c1.938-5.162,0.738-12.764,0.324-14.97c-0.076-0.408-0.189-0.809-0.337-1.196c-0.4-1.054-1.821-4.226-4.981-6.189
			c-0.002-2.163-0.771-4.438-3.122-6.591c-0.067-0.062-0.142-0.127-0.219-0.204c-1.46-1.461-3.184-2.17-4.705-2.796
			c-0.062-0.025-0.129-0.054-0.199-0.082c-1.279-1.856-3.295-2.973-5.342-3.654l-0.041-1.707c1.382-2.29,2.986-5.631,2.986-8.797
			c0-1.308-0.283-2.477-0.717-3.519c1.826-0.641,3.903-1.444,4.436-1.651v-0.001c3.105-1.222,6.707-5.303,4.618-12.09
			c-0.032-0.104-0.066-0.211-0.103-0.318c1.048-1.246,1.593-2.867,1.564-4.628c-0.012-0.703-0.142-1.379-0.371-2.016
			c0.069-0.075,0.137-0.149,0.202-0.221c0.216-0.235,0.519-0.566,0.713-0.761c1.215-0.677,2.302-1.185,2.313-1.19
			c2.466-1.149,4.049-3.626,4.049-6.348v-5.847c0-2.041-0.891-3.979-2.438-5.309c-1.278-1.098-2.899-1.691-4.563-1.691
			c-0.136,0-0.272,0.004-0.409,0.012l-0.418-11.507c-0.018-0.487-0.086-0.971-0.204-1.444l-0.059-0.234
			c3.466-0.35,6.644-2.658,8.767-4.619c1.435-1.325,2.251-3.189,2.251-5.143v-8.419c0-2.458-1.29-4.737-3.397-6.002l-0.029-0.018
			c0.513-2.39-0.26-4.892-2.064-6.58c-1.319-1.233-3.036-1.886-4.781-1.886c-0.223,0-0.445,0.01-0.668,0.032l0.462-1.913
			c0.742-3.077-0.673-6.27-3.451-7.787l-5.143-2.807c-1.049-0.572-2.202-0.855-3.353-0.855c-0.646,0-1.288,0.089-1.912,0.266
			l-2.15-6.188l11.127,6.307c1.088,0.616,2.274,0.911,3.446,0.911c2.287,0,4.519-1.121,5.857-3.159l5.375-8.186
			c0.501-0.764,0.843-1.609,1.016-2.488c0.229,0.022,0.457,0.034,0.685,0.034c2.501,0,4.916-1.345,6.176-3.697l2.338-4.365
			c0.044-0.082,0.086-0.165,0.127-0.249c0.263,0.03,0.525,0.045,0.788,0.045c2.032,0,4.014-0.886,5.372-2.51
			c1.063-1.271,2.38-2.815,2.995-3.502c2.138-1.81,2.48-4.52,2.666-5.994c0.107-0.845,0.235-1.999,0.383-3.427
			c0.247-2.409,0.466-4.808,0.466-4.808c0.093-1.02-0.04-2.039-0.38-2.99c0.351-0.425,0.705-0.875,1.055-1.346
			c0.844-1.138,1.426-1.655,1.582-1.786c1.573-1.007,2.684-2.606,3.073-4.446c0.419-1.982-0.041-4.049-1.262-5.667l-2.239-2.966
			c-0.198-0.65-0.493-1.277-0.882-1.857l-3.271-4.884c0.436-0.452,0.813-0.964,1.118-1.527c0.139-0.255,0.271-0.502,0.398-0.738
			c1.066,1.345,2.627,2.302,4.459,2.573l7.335,1.084l3.125,4.387l-2.641,3.505c-0.876,1.162-1.367,2.569-1.406,4.023l-0.289,10.702
			c-0.116,0.21-0.223,0.427-0.317,0.648l-1.051,2.456c-0.859,2.009-0.731,4.303,0.345,6.204c0.903,1.594,2.388,2.758,4.12,3.266
			c-0.14,3.176,1.905,6.117,5.054,7.025l6.076,1.753c0.639,0.185,1.292,0.274,1.94,0.274c1.645,0,3.26-0.58,4.542-1.674l7.129-6.08
			c1.56-1.33,2.458-3.277,2.458-5.326v-1.637c0-0.005,0-0.011,0-0.017h3.168c1.737,0,3.407-0.646,4.688-1.802
			c1.015,0.558,2.171,0.867,3.374,0.867h3.037c1.715,0,3.37-0.629,4.651-1.769c1.642-1.46,2.848-2.957,3.607-4.475
			c0.34-0.201,0.72-0.408,0.991-0.54c1.245-0.604,2.284-1.565,2.983-2.76l1.986-3.392c0.629-1.073,0.96-2.294,0.96-3.538
			c0-0.005,0-0.178,0.005-0.47c1.261-0.349,2.407-1.066,3.325-2.086c1.543-1.715,2.041-4.093,1.5-6.336l-0.818-3.391
			c-0.281-1.165-0.857-2.239-1.673-3.118l-1.403-1.514c1.569-1.284,2.57-3.235,2.57-5.42v-7.366c0-0.809-0.14-1.597-0.401-2.337
			c0.128-0.252,0.241-0.515,0.339-0.786l2.57-7.133c0.189-0.526,0.315-1.074,0.374-1.63c0,0,0.354-3.308,0.472-4.49
			c0.078-0.73,0.814-5.82,1.479-10.313c0.032-0.216,0.054-0.432,0.065-0.647l0.435-0.206c2.911-1.371,4.512-4.549,3.881-7.704
			l-0.383-1.914c0.162-1.266,0.321-3.143,0.188-5.008c-0.047-0.66-0.113-1.254-0.205-1.804c0.395-0.949,0.584-1.995,0.524-3.073
			c-0.036-0.655-0.074-1.406-0.103-2.024c0.396-0.863,0.869-1.915,1.198-3.031c0.584-1.981,0.528-3.711,0.089-5.158
			c1.676-1.548,2.561-3.883,2.159-6.295c-0.073-0.44-0.146-0.9-0.212-1.349c1.583-1.001,2.712-2.602,3.109-4.443l0.842-3.897
			c0.219-1.009,0.21-2.055-0.023-3.06l-0.215-0.928c0.372-1.059,0.484-2.191,0.327-3.303c-0.11-0.782-0.373-2.529-0.688-3.904
			c0.041-0.269,0.132-0.738,0.33-1.533c0.288-1.153,1.174-4.69-1.004-7.87c-0.712-1.041-1.639-1.875-2.719-2.467
			c-0.416-1.744-1.485-3.24-2.943-4.207c-0.225-0.574-0.526-1.117-0.896-1.615l0.395-6.359c0.251-0.195,0.488-0.407,0.71-0.634
			l2.396-2.455c0.372-0.381,0.696-0.8,0.97-1.249c1.598-0.138,3.104-0.821,4.262-1.941l1.754-1.695
			c0.284-0.275,0.545-0.574,0.779-0.893l1.459-1.99c1.07-1.459,1.534-3.277,1.293-5.07l-0.525-3.916
			c-0.046-0.341-0.116-0.677-0.211-1.005c0.033-0.192,0.057-0.385,0.073-0.58l0.234-2.807c0.129-1.539-0.256-3.047-1.051-4.311
			c1.109-2.007,1.906-4.449,1.405-6.944c-0.294-1.48-1.144-3.645-1.721-5.02l-1.556-5.291l-0.524-2.574
			c-0.492-2.415-2.182-4.299-4.34-5.134c0.049-0.277,0.095-0.563,0.139-0.855c0.263-1.76-0.155-3.555-1.169-5.018l-1.578-2.279
			c-1.176-1.698-3.022-2.769-5.029-2.978l-0.521-1.539c-0.596-1.761-1.869-3.213-3.538-4.035c-1.177-0.58-2.479-1.252-3.061-1.577
			c-0.816-0.69-2.461-2.064-3.648-3.056l-2.141-4.097l-0.702-4.632c-0.008-0.052-0.017-0.104-0.025-0.156
			c0.132-0.206,0.252-0.419,0.361-0.638c0.952-1.908,1.899-4.462,0.762-7.307c-0.167-0.415-0.303-0.753-1.213-2.206l-0.363-3.76
			c-0.05-0.513-0.141-0.996-0.282-1.458c2.375-0.917,4.5-2.759,5.614-3.843c0.229-0.222,0.441-0.459,0.638-0.71
			c1.303-1.668,2.195-3.02,2.653-4.017c0.739-1.595,1.354-4.07-0.539-8.919c-0.535-1.371-1.489-2.538-2.726-3.335
			c-1.727-1.114-3.791-2.457-4.346-2.833c-0.739-0.565-1.634-1.035-4.838-2.195c-0.769-0.278-1.576-0.418-2.383-0.418
			c-0.65,0-1.302,0.091-1.934,0.272c-0.859-0.394-1.764-0.583-2.692-0.583c-0.557,0-1.122,0.068-1.693,0.201
			c-0.438,0.102-0.855,0.211-1.254,0.328c-0.982-0.873-2.187-1.658-3.6-2.335c-0.944-0.453-1.979-0.688-3.026-0.688h-0.259
			c-1.3-1.237-3.026-1.929-4.825-1.929h-1.368c-0.401-0.373-0.845-0.698-1.322-0.967l-2.279-1.287
			c-0.778-0.439-1.633-0.726-2.519-0.844l-1.6-0.213l-0.363-0.286l-2.726-2.781c-0.528-0.54-1.142-0.99-1.813-1.333l-2.746-1.403
			c-0.998-0.51-2.091-0.767-3.186-0.767c-0.938,0-1.876,0.188-2.758,0.566c-0.391,0.167-0.82,0.347-1.205,0.503
			c-0.222-0.034-0.444-0.069-0.644-0.102c-0.372-0.061-0.747-0.09-1.12-0.09c-0.476,0-0.949,0.048-1.412,0.144l-0.74-1.416
			c-1.207-2.309-3.598-3.756-6.203-3.756h-4.603l-1.013-0.697c-1.049-0.721-2.272-1.142-3.542-1.219
			c-0.615-0.038-1.307-0.095-1.892-0.153c-0.17-0.183-0.34-0.372-0.488-0.543c-1.34-1.543-3.278-2.417-5.293-2.417
			c-0.296,0-0.594,0.019-0.892,0.057c-0.675,0.087-1.306,0.188-1.893,0.304c-0.698-0.35-1.443-0.559-2.261-0.66
			c-0.192-0.023-1.211-0.141-2.422-0.142c-2.269,0-4.176,0.444-5.701,1.324c-0.104-0.127-0.188-0.227-0.251-0.299
			c-0.337-0.384-0.943-1.076-3.688-3.059c-0.82-0.592-1.753-0.996-2.734-1.191c-0.826-1.564-1.599-2.518-2.318-3.163
			c-0.219-0.408-0.504-1.006-0.703-1.484c-1.087-2.607-3.64-4.315-6.465-4.315h-11.803c-0.919,0-1.829,0.181-2.679,0.533
			c-0.634,0.263-3.895,1.628-5.816,2.726c-2.408,1.378-4.42,3.808-5.304,4.98l-5.955,6.334c-1.099,0.35-1.943,0.798-3.058,1.479
			c-0.014,0.008-0.026,0.016-0.039,0.024c-1.576,0.361-3.101,1.31-5.625,3.027c-0.177,0.12-0.349,0.249-0.514,0.385l-7.596,6.256
			c-0.307,0.253-0.592,0.531-0.851,0.832l-5.393,6.253l-2.913-1.065c-0.781-0.286-1.595-0.425-2.402-0.425
			c-0.378,0-0.755,0.031-1.128,0.091c-0.41-0.225-0.729-0.348-0.97-0.441c-0.997-0.382-2.084-0.574-3.243-0.574
			c-1.486,0-2.85,0.312-3.367,0.446c-1.57,0.407-2.951,1.347-3.906,2.66l-0.639,0.879c-0.285,0.021-0.57,0.06-0.854,0.116
			l-2.045,0.408c-2.704,0.54-4.839,2.617-5.454,5.305l-0.936,4.093c-0.13,0.57-0.188,1.155-0.174,1.74l0.103,3.97l-0.065,0.453
			c-0.048,0.024-0.095,0.05-0.142,0.075l-4.268,2.339c-0.001,0.001-0.002,0.001-0.003,0.002l-2.869-3.37
			c-0.827-0.972-1.905-1.7-3.116-2.104c-0.545-0.182-2.531-0.775-5.191-0.775c-1.38,0-2.729,0.16-4.022,0.477
			c-2.371-1.94-5.879-3.864-9.473-3.864c-0.721,0-1.431,0.077-2.111,0.229c-1.771,0.394-3.155,1.191-4.188,1.88
			c-0.283-0.066-0.564-0.129-0.844-0.192c-0.57-0.128-1.443-0.324-1.983-0.487c-1.456-1.454-5.051-5.125-7.946-8.093l-0.426-3.408
			c0.695-1.658,1.61-3.443,2.224-4.119c3.331-3.666,4.349-11.143,4.616-16.771c0.088-1.841-0.555-3.643-1.787-5.013
			c-0.082-0.092-0.167-0.195-0.254-0.304c0.992-1.222,1.817-2.214,1.831-2.23c1.002-1.203,1.571-2.707,1.617-4.271l0.234-7.952
			c0.039-1.337-0.306-2.659-0.994-3.806l-2.027-3.38l-0.527-4.579c-0.242-2.099-1.419-3.976-3.203-5.108l-9.582-6.082
			c-0.782-0.496-1.655-0.833-2.568-0.989l-8.18-1.402c-0.391-0.067-0.786-0.101-1.183-0.101h-6.744l-10.037-7.68
			c-1.243-0.951-2.743-1.44-4.255-1.44c-0.996,0-1.996,0.212-2.933,0.645c-0.26,0.12-0.538,0.246-0.824,0.374
			c-3.136-2.547-8.763-7.597-13.409-11.977c-0.602-0.567-1.3-1.024-2.062-1.348l-9.349-3.976c-0.883-0.375-1.814-0.558-2.738-0.558
			c-1.771,0-3.514,0.671-4.843,1.944l-3.035,2.906c-1.412-0.162-2.816-0.346-3.604-0.504l-0.525-0.105
			c-7.11-1.412-9.146-2.016-9.727-2.25c-1.345-0.598-2.857-0.909-4.46-0.909c-3.089,0-5.668,1.17-6.385,1.528
			c-1.323,0.662-2.403,1.727-3.084,3.041c-0.404,0.774-0.933,1.664-1.41,2.39c-1.09-0.063-2.372-0.12-3.716-0.121
			c-4.027,0-7.008,0.516-9.381,1.624c-0.428,0.2-0.797,0.359-1.113,0.486c-1.254-1.821-3.033-4.501-4.54-6.831l-0.013,0.008
			C240.99,2.123,238.82,0.531,235.032,0.53L235.032,0.53z"/>
	</g>
</g>
<g id="zoneMap_x5F_Ulsan3">
	<path fill="none" stroke="#2694BF" stroke-linejoin="round" stroke-miterlimit="10" d="M60.343,225.236
		c0,0-16.827,18.243-20.1,20.582c-3.272,2.338-29.915,13.096-29.915,13.096l2.337,9.355l12.153,13.564l14.023-5.613
		c0,0,5.608,9.355,6.075,11.693c0.469,2.34-1.401,7.484-1.401,7.484l-0.935,6.549c0,0-2.805,7.483,0,7.951
		c2.804,0.469,11.218,2.339,13.088,3.742c1.869,1.403,5.141,2.807,9.348,2.807c4.206,0,10.283,0,10.283,0s2.804-6.549,7.479-6.549
		c4.674,0,9.348-1.957,12.619-2.85c3.273-0.893,8.882-1.359,13.556-4.166s10.75-5.613,10.75-5.613s0.935,4.21,0,7.484
		c-0.935,3.273-7.011,7.016-7.011,9.354s4.207,12.161,4.207,12.161s4.207,2.807,8.414,5.612c4.206,2.807,5.609,6.081,9.815,7.485
		c4.207,1.402,8.881,5.144,15.425,7.016c6.545,1.871,8.415,0,9.816,3.741c1.402,3.741,0.935,4.21,9.348,2.807
		s10.283-1.353,12.153,0.728c1.87,2.079,1.87,9.563,2.805,11.901c0.935,2.338,2.338,2.573,2.338,5.38c0,2.806,0,8.185,0,8.185
		s2.805,3.273,5.141,3.976c2.338,0.701,5.843,3.041,6.077,4.443c0.233,1.404,1.401,6.549,3.038,9.354
		c1.636,2.807,12.854,15.903,12.854,15.903s7.479,2.807,9.349,7.484c1.869,4.678,7.011,8.887,9.348,11.693
		c2.337,2.807,6.543,0.936,9.816,5.146c3.271,4.209,9.815,9.354,12.62,10.29s4.674,4.21,8.882,4.678
		c4.206,0.467,3.271-3.274,9.815-2.34c6.544,0.936,10.751-1.402,14.023-2.338c3.272-0.936,7.012-6.081,7.012-6.081l9.815,4.678
		l2.338,6.12c0,0-6.544,3.234-5.143,5.105c1.403,1.871,5.143,10.758,5.143,10.758s11.856,1.871,11.304,3.274
		c-0.554,1.403,3.653,6.08,5.524,7.483c1.869,1.403,2.803,7.483,2.803,7.483s-4.205,9.823-5.607,9.823
		c-1.403,0-3.74-1.87-4.675,5.613c-0.935,7.483-5.609,8.887-5.609,8.887s-1.403,6.549-1.87,7.953
		c-0.468,1.402,6.076,8.887,6.076,8.887s7.947,2.807,9.349,3.74c1.402,0.937,10.75-1.87,15.893-2.338
		c5.141-0.469,9.348,0.468,9.348,0.468s4.207-7.017,7.947-7.017c3.738,0,5.141,1.871,10.283-1.87
		c5.141-3.743,5.141-3.743,5.141-3.743s0.467,3.743,4.207,3.743c3.738,0,12.621-3.274,12.621-3.274v10.758l15.424,13.097
		l5.143,2.339v4.209c0,0-3.74,11.226-5.143,14.032s5.143,11.227,5.143,11.227s3.271,8.419,0,9.822
		c-3.273,1.402-1.299,7.483,1.453,7.483s8.361,1.871,11.168,4.21c2.803,2.339,7.477,0.935,8.881,2.806
		c1.402,1.871,4.207,5.613,9.348,6.549c5.143,0.936,7.012,3.743,7.012,0c0-3.742,2.805-13.564,6.543-13.097
		c3.74,0.468,3.273-2.807,3.273-6.08c0-3.274,1.869-5.613,6.543-5.613s8.414-2.339,8.414-5.613c0-3.273,2.338-8.887,2.338-8.887
		l6.543-0.937l7.479,5.613c0,0,3.74-5.144,7.012-4.677c3.271,0.468,8.881,0.936,10.283-2.807c1.402-3.741,0-11.226,0-11.226
		s-0.889-2.338-2.76-3.04c-1.869-0.701-4.439-0.234-3.271-3.274s0.467-3.04-0.703-4.209c-1.166-1.17-5.375-1.872-5.607-3.508
		c-0.232-1.638-6.543-2.105-6.543-2.105l-0.234-9.588c0,0,3.037-4.21,3.037-6.783c0-2.572-6.076-5.847-3.037-7.25
		c3.037-1.403,3.74-1.87,5.375-2.339c1.635-0.468,5.844-2.104,5.844-2.104s1.4-0.469,0.467-3.508
		c-0.936-3.041-3.506-0.936-2.338-3.275c1.17-2.338,3.271-3.507,3.271-3.507l-4.906-2.106c0,0,2.102-2.805,3.738-2.805
		s3.506-3.274,5.143-4.211c1.637-0.935,3.148-1.637,3.148-1.637v-5.847l-9.225,1.403l-0.936-4.678l2.803-2.104l-0.465-12.863
		l-1.869-7.484c0,0,5.842-1.402,7.711-1.402s4.908-2.807,4.908-2.807v-8.42l-4.674-2.807l1.402-4.678l-11.219,4.211l-2.805-4.445
		l5.375-3.507l1.635-6.783l-5.141-2.806l-7.479,5.146l-0.234-7.249l-3.738-10.76l0.701-7.016c0,0,2.104-1.402,1.402-3.976
		c-0.701-2.572-8.18-9.589-8.18-9.589l-0.701-7.718c0,0-1.869-7.718-4.441-9.354c-2.57-1.638-7.01-4.677-7.01-4.677l-6.078-4.911
		l-6.309,4.443c0,0-5.611-8.187-7.012-8.419c-1.404-0.234-8.414-0.469-8.414-0.469l-5.143-8.888c0,0-4.205,5.146-5.375,4.444
		c-1.168-0.701-0.934-5.379-3.506-6.549c-2.57-1.169-4.207-5.144-5.375-6.782c-1.168-1.637-3.738-6.08-4.908-7.016
		c-1.168-0.936-1.635-8.186-1.635-8.186s-0.703-2.807-3.973-3.273c-3.273-0.469-6.311-1.403-6.311-3.509
		c0-2.104-1.402-3.274-2.805-4.443c0,0-7.012-2.425-7.246-4.253c-0.232-1.828,0.701-5.102,1.637-6.037s-2.572-2.338-2.572-2.338
		s0-0.702-2.803-0.235c-2.805,0.468-5.377-1.169-5.377-1.169h-3.973l-0.467,3.508l-6.311-4.91v-2.807l-3.973-2.105
		c0,0-0.701,3.508-2.104,3.508s-4.908-1.87-6.076-2.807c-1.17-0.935-4.207-2.104-6.311-2.104s-7.246,0-7.246,0l2.104-6.08
		c0,0,2.57,0,4.441-0.468c1.869-0.469,2.104-3.976,3.506-4.21c1.402-0.233,3.037-1.17,3.037-1.17l-0.934-4.21
		c0,0,1.869-0.701,4.908-3.273c3.037-2.572,6.777-9.121,6.777-9.121l6.543,5.146c0,0,0.936-5.848,3.271-5.848
		c2.338,0,3.975-0.468,3.975-0.468l-0.701-3.741l-7.246-5.847c0,0-0.232-3.041-1.168-4.443c-0.936-1.403-0.234-2.104,0.467-4.21
		c0.701-2.104,1.402-6.313,0.701-7.25c-0.701-0.936-7.711-3.273-7.711-3.273s-0.469-6.081-4.441-10.057
		c-3.973-3.977-0.234-4.21,1.869-4.21c0,0,2.805-0.625,7.168,0c4.363,0.624,9.66,1.871,9.66,1.871l2.492-2.148
		c0,0,9.66,1.525,11.219,1.525s4.051,1.559,3.115,2.807c-0.934,1.248,1.246,2.493,2.805,2.807c1.559,0.313,5.299,1.87,6.857,0
		c1.557-1.871,5.92,1.559,5.92,1.559s-1.871-6.17-1.246-8.697c0.621-2.528,3.738-4.711,0.621-10.324
		c-3.115-5.611-4.984-11.849-4.984-11.849s3.428-1.249,4.051-3.431c0.623-2.183,0-7.172,2.492-7.795
		c2.494-0.624,2.182-3.118,2.182-4.678s4.363-3.742,4.363-3.742v-7.484l-7.479-4.054c0,0-0.625-3.432,1.246-4.679
		c1.869-1.246,0.311-4.053,0-5.924c-0.313-1.87,0.623-3.43,2.182-4.987c1.557-1.56,0.936-8.109,0-9.044
		c-0.936-0.936-3.117-9.355-1.248-11.226c1.871-1.87-1.557-6.237-1.557-6.237l-4.986-1.092l-5.375-6.314c0,0-2.805-0.936-5.844,0
		c-3.037,0.936-3.271,1.039-4.441-0.415c-1.168-1.456-4.674-3.796-6.775-3.327c-2.104,0.468-3.74,3.04-5.609,2.338
		c-1.871-0.7-5.844-1.057-7.246-2.398c-1.402-1.343-10.283-10.463-10.283-10.463l-0.936-7.484c0,0,1.871-5.379,4.209-7.951
		c2.336-2.573,2.805-12.396,2.805-12.396s-4.209-4.678-2.572-6.782s3.973-4.911,3.973-4.911l0.234-7.951l-2.805-4.677l-0.701-6.081
		l-9.582-6.082l-8.18-1.402h-9.115l-11.92-9.121c0,0-3.037,1.403-4.439,1.871s-17.528-14.734-17.528-14.734l-9.348-3.976
		l-5.375,5.146c0,0-5.143-0.47-7.479-0.937c-2.337-0.467-9.583-1.87-11.686-2.807c-2.104-0.935-4.908,0.468-4.908,0.468
		s-3.273,6.315-5.142,6.315c-1.87,0-9.115-0.936-12.62,0.7c-3.506,1.639-6.544,2.34-7.947,0.702
		c-1.402-1.638-6.543-9.589-6.543-9.589s0-0.467-4.207,0c-4.207,0.469-10.751,3.508-10.751,3.508s-9.115,5.848-9.115,7.484
		c0,1.638-2.805,3.742-2.805,3.742s-5.375-0.234-7.479,1.169c-2.102,1.403-7.01,4.677-7.945,4.677c-0.935,0-5.375,0.703-5.375,0.703
		l-12.621,3.742c0,0-8.647,1.168-10.049,1.87c-1.402,0.701-3.739,3.04-5.609,4.21c-1.87,1.168-4.908,0-4.908,0
		s-6.31,1.402-10.283,7.483c-3.973,6.08-13.555,23.152-13.555,23.152l0.233,4.444c0,0,1.87,3.508,1.87,4.444
		c0,0.936-2.571,4.442-2.571,4.442s-2.804,2.105-2.571,7.017c0.234,4.911-0.7,16.839,2.338,19.411s10.984,11.693,10.984,11.693
		l3.974,6.081l-4.441,5.612l-6.31,0.468c0,0-2.337-3.039-3.039-3.742c-0.701-0.701-16.36-5.847-16.36-5.847
		s-6.544-2.807-8.881-2.572c-2.337,0.232-3.506-0.468-4.674,2.572s-4.908,14.734-4.908,14.734l-7.012,8.887l-9.115-3.975
		c0,0-4.439-2.574-4.907-1.638c-0.467,0.935-6.311,1.638-6.311,1.638s-7.945,2.104-10.283,5.612
		c-2.337,3.507-5.609,13.564-7.245,15.2c-1.636,1.638-2.57,3.743-2.57,3.743l7.945,7.951l7.479-2.104c0,0,6.544,1.871,7.479,4.209
		c0.935,2.339,1.636,10.992,3.272,14.268c1.636,3.273,3.271,4.677,2.103,7.016c-1.168,2.338-2.805,5.846-3.038,8.887
		c-0.233,3.04-2.571,6.081-3.272,10.523c-0.7,4.444-1.635,5.379-4.207,6.549C65.296,226.172,60.343,225.236,60.343,225.236z"/>
	<path fill="none" stroke="#2694BF" stroke-linejoin="round" stroke-miterlimit="10" d="M383.145,259.849l-0.701-3.741l-7.246-5.847
		c0,0-0.232-3.041-1.168-4.443c-0.936-1.403-0.234-2.104,0.467-4.21c0.701-2.104,1.402-6.313,0.701-7.25
		c-0.701-0.936-7.711-3.273-7.711-3.273s-0.469-6.081-4.441-10.057c-3.973-3.977-0.234-4.21,1.869-4.21c0,0,2.805-0.625,7.168,0
		c4.363,0.624,9.66,1.871,9.66,1.871l2.492-2.148c0,0,9.66,1.525,11.219,1.525s4.051,1.559,3.115,2.807
		c-0.934,1.248,1.246,2.493,2.805,2.807c1.559,0.313,5.299,1.87,6.857,0c1.557-1.871,5.92,1.559,5.92,1.559s-1.871-6.17-1.246-8.697
		c0.621-2.528,3.738-4.711,0.621-10.324c-1.273-2.297-2.342-4.697-3.156-6.731l1.365-1.415c0,0,2.805,2.964,3.896,2.768
		c1.09-0.195,3.504-1.558,3.504-1.558h4.168l4.246,0.076c0,0-0.508,2.065,0,2.339c0.506,0.273,1.947,1.091,1.947,1.091
		s-0.232,2.885,1.326,2.885c1.557,0,1.596,1.169,1.596,1.169h3.467c0,0,1.52-2.689,2.299-3.43c0.779-0.739,2.805-3,4.635-3.196
		c1.83-0.195,4.051-1.091,4.051-1.091l1.947-1.053h1.754c0,0,0.584-3.352,0.35-4.481c-0.234-1.132,1.443-2.301,2.027-2.301
		s2.453,1.521,3.311,1.092c0.855-0.429,4.127-2.689,4.127-2.689s1.871,0.194,1.988,0.936c0.115,0.74-0.625,3.898-0.352,4.561
		s2.531,3.118,2.531,3.118s2.436,0.564,4.539-1.015s5.959-2.748,7.596-2.748c1.635,0,4.498,0.351,4.498,0.351l2.221,1.813
		l0.527,4.326l-0.936,1.578l0.936,1.638l-0.645,5.555c0,0-1.285,4.735-0.467,6.431c0.818,1.696,5.727,8.536,5.727,8.536
		s0.408,8.303,0,10.643c-0.41,2.337-0.701,5.027-0.234,6.08c0.467,1.051,3.738,3.156,3.738,5.379c0,2.222,0,3.74,0,3.74
		s-3.33,2.281-3.504,3.275c-0.176,0.993,0,6.548,0.875,8.127c0.877,1.578,0.994,5.73,0.994,5.73s-4.266-1.346-5.492-1.638
		c-1.229-0.292-7.244,0.117-7.244,0.117s-3.684,1.695-4.5,1.521c-0.818-0.176-3.156-1.462-4.148-1.755
		c-0.994-0.292-11.334-1.812-11.334-1.812l-15.25-0.294c0,0-5.785-0.525-6.604-1.169c-0.818-0.643-4.381-1.227-5.375-0.292
		c-0.994,0.936-3.154,4.854-3.154,4.854l0.059,4.149c0,0-2.105,3.042-2.98,3.218c-0.877,0.174-6.604,0-6.604,0
		s-3.389-1.872-4.322-2.281c-0.936-0.409-3.039-3.858-5.844-4.502s-6.953-2.748-7.479-3.274c-0.525-0.525-2.162-1.988-3.271-2.223
		c-1.111-0.232-11.803-0.467-11.803-0.467L383.145,259.849z"/>
	<path fill="none" stroke="#2694BF" stroke-linejoin="round" stroke-miterlimit="10" d="M414.773,121.087
		c0,0,3.428,4.367,1.557,6.237c-1.869,1.87,0.313,10.29,1.248,11.226c0.936,0.935,1.557,7.484,0,9.044
		c-1.559,1.558-2.494,3.117-2.182,4.987c0.311,1.871,1.869,4.678,0,5.924c-1.871,1.247-1.246,4.679-1.246,4.679l7.479,4.054v7.484
		c0,0-4.363,2.183-4.363,3.742s0.313,4.054-2.182,4.678c-2.492,0.623-1.869,5.612-2.492,7.795c-0.623,2.182-4.051,3.431-4.051,3.431
		s0.568,1.896,1.6,4.536l0.229,0.581l1.365-1.415c0,0,2.805,2.964,3.896,2.768c1.09-0.195,3.504-1.558,3.504-1.558h4.168
		l4.246,0.076c0,0-0.508,2.065,0,2.339c0.506,0.273,1.947,1.091,1.947,1.091s-0.232,2.885,1.326,2.885
		c1.557,0,1.596,1.169,1.596,1.169h3.467c0,0,1.52-2.689,2.299-3.43c0.779-0.739,2.805-3,4.635-3.196
		c1.83-0.195,4.051-1.091,4.051-1.091l1.947-1.053h1.754c0,0,0.584-3.352,0.35-4.481c-0.234-1.132,1.443-2.301,2.027-2.301
		s2.453,1.521,3.311,1.092c0.855-0.429,4.127-2.689,4.127-2.689s1.871,0.194,1.988,0.936c0.115,0.74-0.625,3.898-0.352,4.561
		s2.531,3.118,2.531,3.118s2.436,0.564,4.539-1.015s5.959-2.748,7.596-2.748c1.635,0,4.498,0.351,4.498,0.351l2.221,1.813
		l0.527,4.326l-0.936,1.578l0.936,1.638l-0.645,5.555c0,0-1.285,4.735-0.467,6.431c0.818,1.696,5.727,8.536,5.727,8.536
		s0.408,8.303,0,10.643c-0.41,2.337-0.701,5.027-0.234,6.08c0.467,1.051,3.738,3.156,3.738,5.379c0,2.222,0,3.74,0,3.74
		s-3.33,2.281-3.504,3.275c-0.176,0.993,0,6.548,0.875,8.127c0.877,1.578,0.994,5.73,0.994,5.73s11.297,6.449,13.477,8.165
		c2.182,1.715,2.338,4.21,2.338,4.21s2.025,2.494,3.74,2.494c1.713,0,8.568,4.365,8.568,4.365l0.936,2.651l6.076,7.483
		c0,0,2.182,3.586,3.738,3.586c1.559,0,4.52,0,4.52,0s2.182,0,2.961,0.936s0.934,1.87,0.934,1.87l1.559,3.543h2.025l4.518,3.941
		c0,0,3.896-0.779,5.299-0.779s2.025,0.779,2.025,0.779l3.582,0.78c0,0,2.338,0.313,2.65,1.404c0.311,1.09,1.559,1.09,1.559,1.09
		s1.4,0.001,1.557-1.09c0.156-1.093-0.936-6.55,0-6.706s1.715-3.431,0.936-4.209c-0.779-0.779-3.74-4.521-3.74-4.521l-6.23-0.624
		l-1.092-1.56c0,0,0.779-1.87,1.092-2.807c0.311-0.936,1.246-2.807,2.025-3.273c0.779-0.468,1.713-3.274,1.557-4.21
		s1.869-2.65,1.869-2.65l-0.934-2.494l-2.182-2.339c0,0,1.713-2.34,2.492-3.118c0.779-0.78,1.402-3.119,1.402-3.119l-1.557-2.026
		l-0.469-7.017l1.869-2.183c0,0,3.443-0.156,4.215-1.558c0.771-1.404,3.422-4.99,3.422-4.99v-2.963l-2.961-2.183
		c0,0,2.648-2.65,4.518-3.586c1.869-0.935,11.529-4.989,11.529-4.989l3.117-0.779l1.559-1.403l2.492-0.313l2.338-1.403l2.959,0.469
		l4.207-0.779l5.453,0.623l2.961-0.935l3.271-2.651l4.051-1.403l1.402-1.091l0.645-10.349l-0.645-2.358l3.271-1.793l2.396-2.455
		l0.352-3.1l1.342-1.637l1.813,1.462l1.869-0.06l1.754-1.694l1.461-1.989l-0.525-3.916l-1.17-1.17l0.992-1.929l0.234-2.807
		l-1.051-0.702l-0.059-5.028c0,0,1.811-2.397,1.578-3.566c-0.234-1.169-1.461-4.034-1.461-4.034l-1.754-5.963l-0.584-2.865
		l-3.156,0.409l-1.342-1.813c0,0-1.229-2.396-0.701-3.332c0.525-0.936,0.934-3.684,0.934-3.684l-1.578-2.279l-5.023,0.525
		l-0.234-3.332l-1.168-3.449c0,0-3.682-1.813-4.148-2.223c-0.469-0.409-5.025-4.21-5.025-4.21l-3.33-6.373l-0.877-5.787
		l-1.109-2.748l2.104-2.222c0,0,0.643-1.287,0.525-1.58c-0.117-0.291-1.52-2.455-1.52-2.455l-0.525-5.437
		c0,0-1.461-2.024-1.285-3.353c0.176-1.326,1.637-3.197,1.637-3.197s2.219-1.637,3.621-2.046c1.402-0.408,3.447-2.396,3.447-2.396
		s1.461-1.871,1.813-2.632c0.35-0.759-0.701-3.449-0.701-3.449s-4.441-2.865-4.732-3.099c-0.293-0.234-3.039-1.229-3.039-1.229
		s-0.936,0.293-1.928,0.526c-0.994,0.234-2.805-0.818-2.805-0.818s-2.512,0.585-2.863,1.229c-0.352,0.642-1.109,1.345-1.109,1.345
		s-2.807-1.403-2.748-2.573c0.059-1.169-2.744-2.515-2.744-2.515h-3.156l-1.928-1.928h-4.383l-1.752-1.872l-2.279-1.287
		l-3.506-0.467l-2.219-1.755l-3.039-3.098l-2.746-1.403c0,0-2.863,1.228-3.213,1.228c-0.352,0-2.514-0.351-2.514-0.351l-3.213,2.164
		l-1.869-0.936l-3.273-6.257h-6.777l-2.805-1.929c0,0-3.855-0.234-4.615-0.585c-0.76-0.352-2.629-2.515-2.629-2.515
		s-2.279,0.293-3.098,0.701c-0.816,0.41-2.805-1.052-2.805-1.052s-3.33-0.409-4.031,0.526s-2.277,1.521-2.277,1.521l-3.682,0.059
		c0,0-2.396-3.1-2.805-3.567s-2.514-1.987-2.514-1.987h-3.328c0,0-1.52-4.386-2.455-4.911c-0.934-0.526-2.338-3.917-2.338-3.917
		h-11.801c0,0-3.391,1.402-5.025,2.337c-1.637,0.937-3.389,3.392-3.389,3.392l-6.486,6.899c0,0-1.402,1.287-2.16,1.461
		c-0.762,0.177-1.053,0.294-2.105,0.937c-1.051,0.644-1.752,0.877-2.104,0.877c-0.35,0-3.271,1.987-3.271,1.987l-7.596,6.256
		l-7.361,8.537l-3.154,2.163l-1.813-2.163l-3.682-1.346l-2.043,1.639c0,0-1.813-2.164-2.572-2.457
		c-0.76-0.291-2.336,0.117-2.336,0.117l-1.869,2.573l-2.455,2.339l-1.461-1.169l-2.045,0.408l-0.934,4.093l0.115,4.562l-0.992,6.898
		l-2.863-0.643l-4.266,2.338L414.773,121.087z"/>
	<path fill="none" stroke="#2694BF" stroke-linejoin="round" stroke-miterlimit="10" d="M539.264,307.047h2.025l4.518,3.941
		c0,0,3.896-0.779,5.299-0.779s2.025,0.779,2.025,0.779l3.582,0.78c0,0,2.338,0.313,2.65,1.404c0.311,1.09,1.559,1.09,1.559,1.09
		s1.4,0.001,1.557-1.09c0.156-1.093-0.936-6.55,0-6.706s1.715-3.431,0.936-4.209c-0.779-0.779-3.74-4.521-3.74-4.521l-6.23-0.624
		l-1.092-1.56c0,0,0.779-1.87,1.092-2.807c0.311-0.936,1.246-2.807,2.025-3.273c0.779-0.468,1.713-3.274,1.557-4.21
		s1.869-2.65,1.869-2.65l-0.934-2.494l-2.182-2.339c0,0,1.713-2.34,2.492-3.118c0.779-0.78,1.402-3.119,1.402-3.119l-1.557-2.026
		l-0.469-7.017l1.869-2.183c0,0,3.443-0.156,4.215-1.558c0.771-1.404,3.422-4.99,3.422-4.99v-2.963l-2.961-2.183
		c0,0,2.648-2.65,4.518-3.586c1.869-0.935,11.529-4.989,11.529-4.989l3.117-0.779l1.559-1.403l2.492-0.313l2.338-1.403l2.959,0.469
		l4.207-0.779l5.453,0.623l2.961-0.935l3.271-2.651l4.051-1.403l1.402-1.091l1.559,1.56v3.118l2.648,0.156v2.963
		c0,0,1.715,1.246,2.961,1.402s1.09,1.402,0.779,2.65c-0.313,1.247-0.779,3.273-0.467,4.366c0.311,1.092,0.686,3.741,0.686,3.741
		l-0.686,1.871l0.686,2.963l-0.842,3.896c0,0-3.428,1.872-3.584,2.807c-0.156,0.936,0.623,5.613,0.623,5.613l-2.492,0.468
		c0,0-0.623,3.74-0.779,4.365c-0.156,0.626,0,1.404,1.09,2.028c1.09,0.622-1.402,4.521-1.402,5.3c0,0.781,0.156,3.588,0.156,3.588
		s-2.027,0.621-1.404,1.714c0.625,1.092,0.938,1.092,1.092,3.273c0.156,2.184-0.311,4.678-0.311,4.678l0.623,3.117l-2.648,1.248
		l-2.182-2.337l-4.363-0.937l-0.467,1.714l-6.855-0.311l-0.195,13.797l1.402,0.118l0.234-3.742c0,0,4.906,0.467,5.492-0.234
		c0.584-0.701,1.285-4.21,1.285-4.21l1.168,0.234l0.117,1.053l1.402-0.585h0.584l0.584,0.351c0,0-1.402,9.472-1.518,10.641
		c-0.117,1.171-0.469,4.444-0.469,4.444l-2.57,7.133H602.6l-0.234-3.391l-1.168,0.818h-9.115l-1.051,1.637l-0.701,8.888l1.869,1.052
		l3.973-4.326l5.025-0.234l1.051-0.936l3.391,1.988v7.366h-2.807l-2.92,2.222l-4.674,1.402l-1.754-1.635l-3.389,5.378
		c0,0,0.818,3.392,1.17,4.443c0.35,1.053,1.869,2.339,3.037,2.223c1.168-0.118,1.285-0.819,2.922-1.287
		c1.635-0.468,2.92-0.468,2.92-0.468l0.936-3.156l2.221-0.702l3.037,3.274l0.818,3.391c0,0-4.557-0.468-4.791,2.104
		c-0.232,2.573-0.232,5.146-0.232,5.146l-1.988,3.392c0,0-3.855,1.871-3.973,3.04s-2.221,3.04-2.221,3.04h-3.037l-1.52-3.157
		l-3.037-3.157l-2.455-0.351l-2.57,2.222l1.402,2.222l0.117,3.157h-5.025l-0.352-2.689l-1.869-0.468l-0.35,2.105l-3.74,2.807
		l-1.168,0.816v2.457l2.336,1.988v1.637l-7.127,6.08l-6.078-1.753l0.469-2.223l-2.922-4.443l-2.57-0.35l1.051-2.457l0.818-0.937
		l0.352-12.979l5.725-7.602l-7.83-10.991l-10.283-1.521l1.287-8.887l-1.053-8.068l1.52-2.923L539.264,307.047z"/>
	<path fill="none" stroke="#2694BF" stroke-linejoin="round" stroke-miterlimit="10" d="M490.418,267.744
		c0,0-4.266-1.346-5.492-1.638c-1.229-0.292-7.244,0.117-7.244,0.117s-3.684,1.695-4.5,1.521c-0.818-0.176-3.156-1.462-4.148-1.755
		c-0.994-0.292-11.334-1.812-11.334-1.812l-15.25-0.294c0,0-5.785-0.525-6.604-1.169c-0.818-0.643-4.381-1.227-5.375-0.292
		c-0.994,0.936-3.154,4.854-3.154,4.854l0.059,4.149c0,0-2.105,3.042-2.98,3.218c-0.877,0.174-6.604,0-6.604,0
		s-3.389-1.872-4.322-2.281c-0.936-0.409-3.039-3.858-5.844-4.502s-6.953-2.748-7.479-3.274c-0.525-0.525-2.162-1.988-3.271-2.223
		c-1.111-0.232-11.803-0.467-11.803-0.467l-1.482-1.571l-0.445-0.476c0,0-1.637,0.468-3.975,0.468c-2.336,0-3.271,5.848-3.271,5.848
		l-6.543-5.146c0,0-3.74,6.549-6.777,9.121c-3.039,2.572-4.908,3.273-4.908,3.273l0.934,4.21c0,0-1.635,0.937-3.037,1.17
		c-1.402,0.234-1.637,3.741-3.506,4.21c-1.871,0.468-4.441,0.468-4.441,0.468l-2.104,6.08c0,0,5.143,0,7.246,0
		s5.141,1.17,6.311,2.104c1.168,0.937,4.674,2.807,6.076,2.807s2.104-3.508,2.104-3.508l3.973,2.105v2.807l6.311,4.91l0.467-3.508
		h3.973c0,0,2.572,1.637,5.377,1.169c2.803-0.467,2.803,0.235,2.803,0.235s3.508,1.402,2.572,2.338s-1.869,4.209-1.637,6.037
		c0.234,1.828,7.246,4.253,7.246,4.253c1.402,1.169,2.805,2.339,2.805,4.443c0,2.105,3.037,3.04,6.311,3.509
		c3.27,0.467,3.973,3.273,3.973,3.273s0.467,7.25,1.635,8.186c1.17,0.936,3.74,5.379,4.908,7.016
		c1.168,1.639,2.805,5.613,5.375,6.782c2.572,1.17,2.338,5.848,3.506,6.549c1.17,0.702,5.375-4.444,5.375-4.444l5.143,8.888
		c0,0,7.01,0.234,8.414,0.469c1.4,0.232,7.012,8.419,7.012,8.419l6.309-4.443l6.078,4.911c0,0,4.439,3.039,7.01,4.677
		c2.572,1.637,4.441,9.354,4.441,9.354l0.256,2.814l6.912,6.464h1.635l4.986,3.508v2.729c0,0,2.492,2.338,2.961,3.508
		c0.467,1.169,0.855,3.119,0.855,3.119l11.141,6.314l5.377-8.186l-6-3.664l6-5.77l7.555,3.82l2.338-4.365v-1.794l3.895-3.353
		l3.195,1.247c0,0,3.584-4.286,3.816-4.364c0.234-0.078,1.09-9.511,1.09-9.511l-2.258-3.274c0,0,2.26-1.871,4.283-4.6
		c2.027-2.729,3.43-3.508,3.43-3.508l-2.65-3.508l-1.402-0.079l0.701-1.56l-9.348-13.953h-4.986l-1.246,2.885l-1.402,1.561
		l-3.428,0.311l0.701-1.481l-0.234-1.169l-5.92,1.48c0,0-1.246-4.288-1.791-4.832c-0.547-0.547-2.104-3.43-2.104-3.43l-15.113-6.472
		l1.713-2.885l17.217,8.654l6.545,5.457l2.648-0.469l3.895-3.196c0,0,2.572-1.248,3.973-0.701c1.404,0.546,6.389,4.599,6.389,4.599
		s2.492-4.599,2.57-5.223c0.078-0.623,1.014-1.87,1.014-1.87l-1.947-5.613l-2.416-5.068l1.324-7.016l-1.246-0.701v-1.56
		c0,0-10.594,0.859-10.906-0.155s-0.545-6.159-0.545-6.159l-3.584-3.196l3.193-6.313c0,0,4.441,3.585,5.299,3.897
		c0.855,0.313,2.805,0.078,2.805,0.078l1.479-1.639c-1.557,0-3.738-3.586-3.738-3.586l-6.076-7.483l-0.936-2.651
		c0,0-6.855-4.365-8.568-4.365c-1.715,0-3.74-2.494-3.74-2.494s-0.156-2.495-2.338-4.21
		C501.715,274.193,490.418,267.744,490.418,267.744"/>
</g>
<g id="zoneMap_x5F_Ulsan4">
	<path fill="none" stroke="#25B8F1" stroke-width="3" stroke-miterlimit="10" d="M626.285,200.793l0.992-1.929l0.234-2.807
		l-1.051-0.702l-0.059-5.028c0,0,1.811-2.397,1.576-3.566c-0.232-1.169-1.459-4.034-1.459-4.034l-1.754-5.963l-0.584-2.865
		l-3.156,0.409l-1.344-1.813c0,0-1.227-2.396-0.701-3.332c0.525-0.936,0.936-3.684,0.936-3.684l-1.578-2.279l-5.023,0.525
		l-0.234-3.332l-1.168-3.449c0,0-3.682-1.813-4.148-2.223c-0.469-0.409-5.025-4.21-5.025-4.21l-3.33-6.372l-0.877-5.788
		l-1.109-2.748l2.104-2.222c0,0,0.643-1.287,0.525-1.58c-0.117-0.291-1.52-2.455-1.52-2.455l-0.525-5.437
		c0,0-1.461-2.024-1.285-3.353c0.174-1.326,1.635-3.197,1.635-3.197s2.221-1.637,3.623-2.046c1.402-0.408,3.447-2.396,3.447-2.396
		s1.461-1.871,1.811-2.632c0.352-0.759-0.699-3.449-0.699-3.449s-4.441-2.865-4.734-3.099c-0.291-0.234-3.037-1.229-3.037-1.229
		s-0.936,0.293-1.928,0.526c-0.994,0.234-2.805-0.818-2.805-0.818s-2.514,0.585-2.863,1.229c-0.352,0.642-1.111,1.345-1.111,1.345
		s-2.805-1.403-2.746-2.573c0.059-1.169-2.746-2.514-2.746-2.514h-3.154l-1.93-1.929h-4.381l-1.752-1.872l-2.279-1.287l-3.506-0.467
		l-2.221-1.754l-3.037-3.099l-2.746-1.403c0,0-2.863,1.228-3.215,1.228c-0.35,0-2.512-0.351-2.512-0.351l-3.213,2.164l-1.871-0.936
		l-3.271-6.257h-6.777l-2.805-1.929c0,0-3.855-0.234-4.615-0.585c-0.76-0.352-2.631-2.515-2.631-2.515s-2.277,0.293-3.096,0.701
		c-0.818,0.41-2.805-1.052-2.805-1.052s-3.33-0.409-4.031,0.526s-2.279,1.521-2.279,1.521l-3.68,0.059c0,0-2.396-3.1-2.805-3.567
		c-0.41-0.468-2.514-1.987-2.514-1.987h-3.33c0,0-1.518-4.386-2.453-4.911c-0.936-0.526-2.338-3.917-2.338-3.917h-11.803
		c0,0-3.389,1.403-5.023,2.337c-1.637,0.937-3.389,3.392-3.389,3.392l-6.486,6.899c0,0-1.402,1.287-2.162,1.463
		c-0.76,0.175-1.051,0.292-2.104,0.935c-1.051,0.644-1.752,0.877-2.104,0.877c-0.35,0-3.271,1.987-3.271,1.987l-7.596,6.256
		l-7.361,8.537l-3.156,2.163l-1.811-2.163l-3.682-1.346l-2.045,1.639c0,0-1.811-2.164-2.57-2.457
		c-0.76-0.291-2.336,0.117-2.336,0.117l-1.871,2.573l-2.453,2.339l-1.461-1.169l-2.045,0.408l-0.936,4.093l0.117,4.562l-0.994,6.898
		l-2.861-0.644l-4.268,2.339l-1.205,2.437l-4.986-1.092l-5.375-6.314c0,0-2.805-0.936-5.844,0c-3.037,0.936-3.271,1.039-4.441-0.415
		c-1.168-1.456-4.674-3.796-6.777-3.327c-2.102,0.468-3.738,3.041-5.609,2.338c-1.869-0.7-5.842-1.057-7.244-2.398
		s-10.283-10.463-10.283-10.463l-0.936-7.484c0,0,1.869-5.378,4.207-7.951s2.805-12.396,2.805-12.396s-4.207-4.678-2.57-6.782
		s3.973-4.911,3.973-4.911l0.234-7.951l-2.805-4.677l-0.701-6.081l-9.582-6.082l-8.18-1.402h-9.115l-11.92-9.12
		c0,0-3.037,1.402-4.441,1.87c-1.4,0.468-17.527-14.734-17.527-14.734l-9.349-3.976l-5.375,5.146c0,0-5.142-0.469-7.479-0.937
		c-2.337-0.467-9.582-1.87-11.686-2.807c-2.103-0.935-4.907,0.468-4.907,0.468s-3.272,6.315-5.143,6.315
		c-1.87,0-9.114-0.936-12.62,0.7c-3.506,1.639-6.543,2.34-7.947,0.702c-1.401-1.638-6.544-9.589-6.544-9.589s0-0.467-4.207,0
		c-4.207,0.469-10.75,3.508-10.75,3.508s-9.115,5.848-9.115,7.485c0,1.637-2.805,3.741-2.805,3.741s-5.375-0.234-7.479,1.169
		s-7.011,4.677-7.945,4.677c-0.936,0-5.376,0.703-5.376,0.703l-12.621,3.742c0,0-8.647,1.168-10.049,1.87
		c-1.402,0.701-3.739,3.04-5.609,4.21c-1.87,1.168-4.908,0-4.908,0s-6.311,1.402-10.283,7.483s-13.555,23.152-13.555,23.152
		l0.233,4.444c0,0,1.87,3.508,1.87,4.444c0,0.936-2.571,4.442-2.571,4.442s-2.805,2.105-2.571,7.017s-0.701,16.839,2.338,19.411
		c3.038,2.572,10.984,11.693,10.984,11.693l3.973,6.081l-4.44,5.612l-6.31,0.468c0,0-2.337-3.039-3.039-3.742
		c-0.701-0.701-16.36-5.847-16.36-5.847s-6.543-2.807-8.881-2.572c-2.337,0.232-3.506-0.468-4.674,2.572s-4.907,14.734-4.907,14.734
		l-7.012,8.887l-9.115-3.976c0,0-4.44-2.573-4.908-1.637c-0.467,0.935-6.311,1.637-6.311,1.637s-7.945,2.104-10.283,5.613
		c-2.336,3.507-5.609,13.564-7.244,15.2c-1.636,1.638-2.571,3.743-2.571,3.743l7.946,7.951l7.479-2.104c0,0,6.544,1.871,7.479,4.209
		c0.935,2.339,1.637,10.992,3.272,14.268c1.637,3.273,3.271,4.677,2.104,7.016c-1.168,2.338-2.805,5.846-3.038,8.887
		c-0.233,3.04-2.571,6.081-3.272,10.523c-0.7,4.444-1.635,5.379-4.206,6.549c-2.571,1.169-7.524,0.234-7.524,0.234
		s-16.828,18.241-20.1,20.58C36.643,247.625,10,258.384,10,258.384l2.337,9.354l12.153,13.565l14.023-5.614
		c0,0,5.609,9.355,6.076,11.693c0.468,2.34-1.402,7.484-1.402,7.484l-0.935,6.549c0,0-2.805,7.483,0,7.951
		c2.805,0.469,11.218,2.339,13.088,3.742c1.87,1.403,5.141,2.807,9.349,2.807c4.206,0,10.283,0,10.283,0s2.805-6.549,7.479-6.549
		c4.674,0,9.349-1.957,12.62-2.85c3.272-0.893,8.881-1.36,13.556-4.166c4.674-2.807,10.75-5.613,10.75-5.613s0.935,4.21,0,7.484
		c-0.935,3.273-7.011,7.016-7.011,9.354s4.207,12.161,4.207,12.161s4.207,2.807,8.413,5.612c4.207,2.807,5.609,6.081,9.816,7.483
		c4.207,1.404,8.881,5.146,15.425,7.018c6.544,1.871,8.414,0,9.815,3.741c1.403,3.741,0.935,4.21,9.349,2.807
		s10.283-1.353,12.153,0.728c1.87,2.079,1.87,9.563,2.805,11.901c0.935,2.338,2.337,2.573,2.337,5.38c0,2.806,0,8.185,0,8.185
		s2.805,3.274,5.141,3.976c2.338,0.701,5.843,3.041,6.077,4.443c0.233,1.404,1.402,6.549,3.038,9.354
		c1.636,2.807,12.854,15.903,12.854,15.903s7.479,2.807,9.349,7.484c1.87,4.678,7.012,8.888,9.349,11.693
		c2.337,2.807,6.544,0.936,9.815,5.146c3.272,4.209,9.816,9.354,12.621,10.29s4.674,4.209,8.882,4.678
		c4.206,0.467,3.271-3.274,9.815-2.339c6.544,0.935,10.751-1.403,14.022-2.339c3.273-0.936,7.012-6.081,7.012-6.081l9.815,4.678
		l2.338,6.12c0,0-6.544,3.234-5.142,5.105c1.403,1.871,5.142,10.758,5.142,10.758s11.857,1.871,11.304,3.274
		c-0.553,1.403,3.653,6.08,5.522,7.483c1.871,1.403,2.805,7.483,2.805,7.483s-4.207,9.824-5.609,9.824s-3.739-1.871-4.674,5.612
		c-0.935,7.483-5.609,8.887-5.609,8.887s-1.402,6.549-1.869,7.953c-0.469,1.402,6.075,8.887,6.075,8.887s7.948,2.805,9.35,3.741
		c1.402,0.936,10.75-1.871,15.891-2.339c5.143-0.468,9.35,0.468,9.35,0.468s4.207-7.017,7.945-7.017c3.74,0,5.143,1.871,10.283-1.87
		c5.143-3.742,5.143-3.742,5.143-3.742s0.467,3.742,4.207,3.742c3.738,0,12.621-3.274,12.621-3.274v10.758l15.424,13.097
		l5.143,2.339v4.209c0,0-3.74,11.226-5.143,14.032s5.143,11.227,5.143,11.227s3.271,8.419,0,9.822
		c-3.273,1.403-1.299,7.483,1.453,7.483s8.361,1.871,11.166,4.21s7.479,0.935,8.881,2.807c1.402,1.87,4.207,5.612,9.35,6.548
		c5.141,0.936,7.012,3.743,7.012,0c0-3.742,2.803-13.564,6.543-13.097s3.271-2.807,3.271-6.08c0-3.274,1.871-5.613,6.545-5.613
		s8.412-2.339,8.412-5.613c0-3.273,2.338-8.887,2.338-8.887l6.545-0.935l7.479,5.611c0,0,3.74-5.145,7.01-4.677
		c3.273,0.468,8.883,0.936,10.283-2.807c1.404-3.741,0-11.226,0-11.226s-0.889-2.338-2.758-3.04
		c-1.869-0.701-4.439-0.234-3.271-3.274s0.467-3.04-0.701-4.209c-1.17-1.17-5.377-1.872-5.609-3.508
		c-0.234-1.638-6.545-2.105-6.545-2.105l-0.232-9.588c0,0,3.037-4.21,3.037-6.783c0-2.572-6.076-5.847-3.037-7.25
		c3.037-1.403,3.738-1.87,5.375-2.339c1.635-0.467,5.842-2.104,5.842-2.104s1.402-0.469,0.467-3.508
		c-0.934-3.041-3.504-0.936-2.336-3.275c1.168-2.338,3.271-3.507,3.271-3.507l-4.908-2.105c0,0,2.104-2.806,3.74-2.806
		s3.506-3.274,5.143-4.211c1.635-0.935,3.148-1.637,3.148-1.637v-5.847l-9.227,1.403l-0.934-4.678l2.805-2.104l-0.467-12.863
		l-1.871-7.484c0,0,5.844-1.402,7.713-1.402s4.908-2.807,4.908-2.807v-8.419l-4.676-2.807l1.404-4.679l-11.219,4.211l-2.805-4.443
		l5.375-3.509l1.637-6.782l-5.143-2.807l-7.479,5.146l-0.234-7.25l-3.738-10.757l0.701-7.018c0,0,2.102-1.402,1.402-3.976
		c-0.701-2.572-8.18-9.589-8.18-9.589l-0.447-4.903l6.912,6.464h1.637l4.986,3.508v2.729c0,0,2.492,2.338,2.959,3.508
		c0.469,1.169,0.857,3.119,0.857,3.119l11.141,6.314l5.375-8.186l-5.998-3.664l5.998-5.77l7.557,3.82l2.338-4.365v-1.794
		l3.895-3.353l3.193,1.247c0,0,3.584-4.286,3.818-4.364c0.232-0.078,1.09-9.511,1.09-9.511l-2.258-3.274c0,0,2.258-1.871,4.283-4.6
		s3.428-3.508,3.428-3.508l-2.648-3.508l-1.402-0.078l0.701-1.56l-9.348-13.954h-4.986l-1.246,2.885l-1.402,1.561l-3.428,0.311
		l0.701-1.481l-0.234-1.169l-5.92,1.48c0,0-1.246-4.288-1.791-4.833c-0.547-0.546-2.105-3.429-2.105-3.429l-15.111-6.472
		l1.713-2.884l17.217,8.653l6.545,5.457l2.648-0.469l3.895-3.196c0,0,2.572-1.248,3.973-0.701c1.402,0.546,6.389,4.599,6.389,4.599
		s2.492-4.599,2.57-5.223c0.078-0.623,1.014-1.87,1.014-1.87L533.559,328l-2.414-5.068l1.324-7.015l-1.246-0.702v-1.56
		c0,0-10.596,0.859-10.906-0.155c-0.313-1.015-0.545-6.159-0.545-6.159l-3.584-3.196l3.193-6.313c0,0,4.441,3.585,5.297,3.897
		c0.857,0.313,2.805,0.078,2.805,0.078l1.48-1.639c1.559,0,4.52,0,4.52,0s2.182,0,2.961,0.936c0.777,0.936,0.934,1.871,0.934,1.871
		l1.557,3.542l6.779,12.557l-1.52,2.923l1.051,8.068l-1.285,8.887l10.283,1.521l7.83,10.991l-5.727,7.602l-0.35,12.98l-0.818,0.935
		l-1.051,2.456l2.57,0.351l2.922,4.443l-0.469,2.223l6.076,1.753l7.129-6.08v-1.637l-2.336-1.988v-2.455l1.168-0.818l3.738-2.807
		l0.352-2.105l1.869,0.468l0.352,2.689h5.025l-0.119-3.157l-1.4-2.222l2.57-2.222l2.453,0.351l3.039,3.157l1.52,3.157h3.037
		c0,0,2.104-1.87,2.221-3.04c0.117-1.169,3.973-3.04,3.973-3.04l1.986-3.392c0,0,0-2.572,0.234-5.146
		c0.232-2.572,4.791-2.104,4.791-2.104l-0.818-3.391l-3.037-3.274l-2.221,0.702l-0.936,3.156c0,0-1.285,0-2.922,0.468
		c-1.635,0.468-1.752,1.17-2.92,1.287c-1.168,0.116-2.688-1.17-3.039-2.223c-0.35-1.052-1.168-4.443-1.168-4.443l3.389-5.378
		l1.752,1.637l4.676-1.404l2.922-2.222h2.803v-7.366l-3.389-1.988l-1.051,0.936l-5.025,0.234l-3.973,4.326l-1.869-1.052l0.699-8.888
		l1.053-1.637h9.115l1.168-0.818l0.232,3.391h3.391l2.57-7.133c0,0,0.35-3.274,0.467-4.444c0.117-1.169,1.52-10.641,1.52-10.641
		l-0.584-0.351h-0.584l-1.402,0.585l-0.117-1.053l-1.168-0.234c0,0-0.701,3.509-1.287,4.21c-0.584,0.701-5.49,0.234-5.49,0.234
		l-0.234,3.742l-1.402-0.117l0.195-13.798l6.855,0.311l0.467-1.714l4.363,0.936l2.182,2.338l2.648-1.248l-0.623-3.117
		c0,0,0.467-2.494,0.311-4.678c-0.154-2.182-0.467-2.182-1.09-3.273c-0.625-1.092,1.402-1.714,1.402-1.714s-0.156-2.807-0.156-3.588
		c0-0.779,2.492-4.678,1.402-5.3c-1.09-0.624-1.246-1.404-1.09-2.028s0.777-4.365,0.777-4.365l2.494-0.468
		c0,0-0.779-4.678-0.623-5.613c0.154-0.936,3.584-2.806,3.584-2.806l0.842-3.897l-0.688-2.963l0.688-1.87
		c0,0-0.375-2.65-0.688-3.742c-0.313-1.093,0.156-3.119,0.467-4.366c0.313-1.248,0.469-2.494-0.777-2.65s-2.961-1.402-2.961-1.402
		v-2.963l-2.648-0.156v-3.118l-1.559-1.56l0.643-10.349l-0.643-2.358l3.271-1.793l2.396-2.455l0.35-3.1l1.344-1.637l1.811,1.462
		l1.871-0.059l1.754-1.695l1.459-1.989l-0.525-3.916L626.285,200.793z"/>
</g>
</svg>
